<?xml version="1.0" encoding="UTF-8" standalone="no"?>
<!-- Created with Inkscape (http://www.inkscape.org/) -->

<svg
   xmlns:dc="http://purl.org/dc/elements/1.1/"
   xmlns:cc="http://creativecommons.org/ns#"
   xmlns:rdf="http://www.w3.org/1999/02/22-rdf-syntax-ns#"
   xmlns:svg="http://www.w3.org/2000/svg"
   xmlns="http://www.w3.org/2000/svg"
   xmlns:sodipodi="http://sodipodi.sourceforge.net/DTD/sodipodi-0.dtd"
   xmlns:inkscape="http://www.inkscape.org/namespaces/inkscape"
   version="1.1"
   id="svg95"
   xml:space="preserve"
   width="193.49881"
   height="275.27539"
   viewBox="0 0 193.49881 275.27539"
   sodipodi:docname="1.svg"
   inkscape:version="0.92.2 5c3e80d, 2017-08-06"><metadata
     id="metadata101"><rdf:RDF><cc:Work
         rdf:about=""><dc:format>image/svg+xml</dc:format><dc:type
           rdf:resource="http://purl.org/dc/dcmitype/StillImage" /><dc:title /></cc:Work></rdf:RDF></metadata><defs
     id="defs99" /><sodipodi:namedview
     pagecolor="#ffffff"
     bordercolor="#666666"
     borderopacity="1"
     objecttolerance="10"
     gridtolerance="10"
     guidetolerance="10"
     inkscape:pageopacity="0"
     inkscape:pageshadow="2"
     inkscape:window-width="1325"
     inkscape:window-height="821"
     id="namedview97"
     showgrid="false"
     inkscape:zoom="0.8939394"
     inkscape:cx="14.929179"
     inkscape:cy="145.45069"
     inkscape:window-x="0"
     inkscape:window-y="0"
     inkscape:window-maximized="0"
     inkscape:current-layer="g105"
     fit-margin-top="0"
     fit-margin-left="0"
     fit-margin-right="0"
     fit-margin-bottom="0" /><g
     id="g103"
     inkscape:groupmode="layer"
     inkscape:label="bluegrass"
     transform="matrix(0,-1.3333333,-1.3333333,0,280.55468,963.36788)"><g
       id="g105"
       transform="scale(792,612)"><path
         style="fill:#000000;stroke-width:0.00034473"
         d="m 0.91171521,0.10668611 c 0.003857,0.0143365 -0.0131412,0.0223304 -0.0174582,0.035687 -0.00855,0.0199034 -0.0302063,0.0273271 -0.0477443,0.0367754 -0.009593,0.003724 -0.0393311,0.007164 -0.0177267,0.0137457 0.0196798,0.004437 0.0482979,-0.001132 0.0510666,0.026614 0.00614,0.0163274 -0.0138692,0.0325879 -0.0282636,0.0220277 -0.0156761,-0.009781 -0.0112113,-0.0359788 -0.0305813,-0.0407087 -0.0149002,-0.009806 -0.0332742,-0.006945 -0.0108208,0.005384 0.013864,0.0141636 0.0193135,0.0350872 0.0333347,0.0485781 0.0225569,0.00289 0.0459103,0.0217715 0.0407868,0.0469705 -1.866e-5,0.0247624 -0.0344471,0.0257764 -0.0417035,0.005111 -0.008359,-0.0212192 -0.009394,-0.0453639 -0.0241259,-0.064247 -0.0136462,-0.0198088 -0.0328211,-0.0353374 -0.0545015,-0.0456222 -0.0138927,0.001478 -0.0503012,-0.007564 -0.0238316,0.0109751 0.0242385,0.0268416 0.0396402,0.0600169 0.0621427,0.0879721 0.001844,0.0159555 0.005583,0.0374542 -0.0111648,0.0470874 -0.0255086,0.006304 -0.0332434,-0.0270692 -0.0304608,-0.0460023 1.0149e-4,-0.0123643 0.011927,-0.0233768 0.002821,-0.0354987 -0.0143103,-0.0285338 -0.0397631,-0.0554351 -0.072609,-0.0606185 -0.0112162,-0.007765 -0.032456,0.0159013 -0.0392709,-7.8943e-4 -1.2773e-4,-0.011002 0.008813,-0.016756 0.013904,-0.0255189 0.0340328,-0.040894 0.08853,-0.0648047 0.1417615,-0.0575213 0.0301165,0.005187 0.0642909,0.0165698 0.0924243,-2.7864e-4 0.004452,-0.002971 0.005845,-0.009748 0.0120213,-0.0101223 z M 0.79893945,0.1309347 c -0.0325869,1.3747e-4 -0.0683584,0.003108 -0.0939662,0.0257177 -0.008066,0.0059 -0.0394173,0.0312661 -0.0266398,0.0300124 0.0349845,-0.008526 0.0718165,2.5833e-4 0.1074256,-0.004904 0.0276658,-0.00472 0.0572063,-0.0110873 0.0797896,-0.0286492 0.001875,-0.005412 0.0251473,-0.0195233 0.0128592,-0.0135457 -0.0268112,0.002769 -0.0526204,-0.009351 -0.0794684,-0.008631 z m 0.084697,0.005715 c 7.5646e-4,0.001403 3.413e-4,-0.001402 0,0 z m -0.0308402,0.0704609 c -0.0172567,0.008371 0.0038,0.0337383 0.0147793,0.0187822 0.007561,-0.0114902 -0.003595,-0.0223458 -0.0147793,-0.0187822 z m 0.003113,0.0704584 c -0.0193571,0.005972 0.005905,0.0395614 0.0168191,0.0229259 0.00377,-0.008919 -0.006077,-0.0258382 -0.0168191,-0.0229259 z m -0.0797945,0.0170117 c -0.0133446,0.006209 -0.009082,0.0242319 5.5284e-4,0.0318789 0.0248919,0.005239 0.0162982,-0.0383471 -5.5284e-4,-0.0318789 z"
         id="path222"
         inkscape:connector-curvature="0"
         sodipodi:nodetypes="cccccccccccccccccccccccccccccccccccccccccc" /><path
         style="fill:#2d5016;fill-opacity:1;stroke:none;stroke-width:1.11864412;stroke-miterlimit:4;stroke-dasharray:none"
         d="m 129.73022,243.7586 c 0.3855,-2.92246 1.14899,-29.22458 1.69666,-58.44915 0.54766,-29.22458 1.282,-54.39407 1.63185,-55.93221 0.34986,-1.53813 1.66836,-9.08898 2.93001,-16.77966 4.68445,-28.555167 13.04284,-53.250594 22.06397,-65.189478 2.42885,-3.21443 5.24883,-7.089052 6.26662,-8.610272 1.78748,-2.671619 1.85053,-2.412775 1.85053,7.597119 0,5.699636 1.38432,19.529016 3.07627,30.731956 2.79136,18.482542 3.06891,23.114415 2.99682,50.013045 -0.13213,49.29643 -4.72598,67.63063 -24.9161,99.44101 -8.59598,13.54332 -15.43921,22.4912 -17.201,22.4912 -0.66075,0 -0.81798,-2.1117 -0.39563,-5.31356 z"
         id="path2857"
         inkscape:connector-curvature="0"
         transform="matrix(0,-0.00122549,-9.4696972e-4,0,0.91228021,0.34381702)" /><path
         style="fill:#2d5016;fill-opacity:1;stroke:none;stroke-width:1.11864412;stroke-miterlimit:4;stroke-dasharray:none"
         d="m 185.81089,131.61453 c 0,-1.53813 0.2539,-2.16737 0.56423,-1.3983 0.31032,0.76906 0.31032,2.02754 0,2.79661 -0.31033,0.76906 -0.56423,0.13983 -0.56423,-1.39831 z"
         id="path3402"
         inkscape:connector-curvature="0"
         transform="matrix(0,-0.00122549,-9.4696972e-4,0,0.91228021,0.34381702)" /><path
         style="fill:#2d5016;fill-opacity:1;stroke:none;stroke-width:1.11864412;stroke-miterlimit:4;stroke-dasharray:none"
         d="m 114.66379,272.31477 c -2.42155,-3.45726 -2.19167,-7.30464 1.17487,-19.66205 3.03576,-11.14329 3.03607,-11.79945 0.012,-26.57688 -5.28732,-25.83746 -22.354212,-51.12255 -45.52578,-67.4478 -4.496001,-3.1676 -9.322468,-5.75927 -10.725481,-5.75927 -1.403013,0 -6.413561,1.5344 -11.13455,3.40977 -14.627106,5.81052 -29.618124,4.29522 -39.2739287,-3.96978 -5.9024444,-5.05227 -8.1328979,-10.01255 -8.1328979,-18.08666 0,-14.16173 9.8275126,-20.61603 28.6981136,-18.84771 l 8.619745,0.80774 9.027511,8.59674 c 4.965131,4.7282 16.830054,15.106 26.366494,23.06176 20.994383,17.51452 34.374004,30.6486 39.182524,38.46345 2.34179,3.80588 4.22216,5.70699 5.41448,5.47422 1.6016,-0.3127 1.82672,-2.63001 1.82672,-18.80317 v -18.44652 l -6.89612,-13.97399 C 105.0305,123.80284 96.243029,111.60699 84.287404,100.2925 73.765439,90.334783 68.555601,87.376734 49.856893,80.74349 32.098986,74.443989 27.591625,72.132476 24.19345,67.582485 18.364692,59.778061 17.346827,46.957298 21.864797,38.25138 c 3.31969,-6.396889 8.213052,-8.641768 17.887318,-8.205987 6.412395,0.288849 8.822851,0.947202 12.585994,3.437532 8.805767,5.827381 15.367943,17.469624 18.673854,33.1301 1.815863,8.601951 4.179314,11.346416 20.096876,23.336706 14.714961,11.084409 19.230331,15.441849 22.382271,21.599469 8.29821,16.2114 11.45172,4.11367 3.9803,-15.269527 C 113.48946,85.949261 111.07313,83.3342 100.05799,77.434045 95.751212,75.12716 90.79706,71.901585 89.048763,70.266103 77.502872,59.465238 79.802924,39.441614 93.173398,34.35817 c 3.487868,-1.326085 12.212922,0.641293 17.128812,3.862312 5.74567,3.764703 8.76784,13.274747 10.48298,32.98727 1.22505,14.079925 3.69494,25.728813 5.45521,25.728813 2.12897,0 3.50147,-3.528189 6.11546,-15.720495 3.19124,-14.884728 13.11964,-39.824573 19.57063,-49.16086 2.33813,-3.383899 6.40607,-7.662712 9.03986,-9.508475 2.63378,-1.845763 8.63228,-6.940295 13.33,-11.321181 9.14462,-8.5278732 12.09144,-10.49237799 15.73895,-10.49237799 3.26438,0 2.87337,2.63737629 -1.05421,7.11065209 -11.50066,13.0985219 -13.9582,38.3723859 -7.79303,80.1450979 4.24938,28.792084 5.10097,43.894714 3.43759,60.964584 -4.32116,44.34437 -21.5836,84.21947 -48.50856,112.0515 -13.54455,14.00086 -17.94391,16.32011 -21.4533,11.30976 z m 21.64128,-27.71284 c 6.55598,-8.29394 21.21761,-31.81473 24.91587,-39.97106 8.34331,-18.40078 12.31052,-43.30403 12.52289,-78.60956 0.12872,-21.39979 -0.21433,-26.39364 -3.11216,-45.305084 -2.14348,-13.988411 -3.29072,-25.906237 -3.35593,-34.862422 -0.0545,-7.484503 -0.18864,-13.519541 -0.29808,-13.411196 -1.11434,1.103227 -12.93049,19.22772 -15.69816,24.079013 -7.1728,12.572744 -13.95123,37.923153 -18.27149,68.332899 -1.77495,12.49368 -2.16002,21.81819 -2.1963,53.18374 -0.0404,34.88166 -0.99071,57.16615 -2.89818,67.95763 -0.66375,3.75507 -0.49429,4.19491 1.61615,4.19491 1.49368,0 3.97655,-2.04807 6.77539,-5.58887 z M 35.493442,151.1229 c 9.424418,-6.60113 6.052692,-20.91233 -5.670692,-24.06911 -9.189011,-2.47434 -16.459673,2.75203 -16.459673,11.8317 0,3.96971 0.651473,5.5135 3.549714,8.41174 1.952343,1.95234 4.595139,3.97272 5.872881,4.48972 3.790163,1.53358 10.036189,1.2072 12.70777,-0.66405 z M 108.75591,68.129434 c 4.94145,-5.460243 4.96244,-14.610255 0.0469,-20.452028 -7.39757,-8.79151 -19.872235,1.218766 -16.029375,12.862746 2.56102,7.759965 11.840355,12.166262 15.982465,7.589282 z M 48.924825,67.135038 c 5.73583,-1.536492 7.602102,-11.943882 3.302105,-18.4144 -2.948678,-4.437087 -11.438841,-9.138105 -14.770562,-8.178485 -3.674346,1.058304 -6.194986,4.848948 -6.194986,9.31628 0,5.404357 5.205224,13.618558 10.184009,16.071066 4.364888,2.150109 4.107915,2.108689 7.479434,1.205539 z"
         id="path3404"
         inkscape:connector-curvature="0"
         transform="matrix(0,-0.00122549,-9.4696972e-4,0,0.91228021,0.34381702)" /><path
         style="fill:#2d5016;fill-opacity:1;stroke:none;stroke-width:1.11864412;stroke-miterlimit:4;stroke-dasharray:none"
         d="m 130.26321,241.61198 c 0.30019,-3.58758 1.07792,-29.67881 1.72829,-57.9805 1.07147,-46.62645 1.44573,-52.9805 3.98633,-67.67797 5.97776,-34.581652 12.8112,-54.450938 24.36102,-70.83349 l 4.6005,-6.525451 1.25713,14.908287 c 0.69142,8.199557 2.04158,20.697269 3.00037,27.772692 2.64161,19.493952 3.2423,38.486472 1.99897,63.203392 -1.66821,33.1633 -5.16771,47.86425 -16.19348,68.02673 -6.11996,11.1914 -21.98317,34.541 -23.8943,35.17086 -1.04182,0.34335 -1.25373,-1.17782 -0.84483,-6.06455 z"
         id="path3406"
         inkscape:connector-curvature="0"
         transform="matrix(0,-0.00122549,-9.4696972e-4,0,0.91228021,0.34381702)" /><path
         style="fill:#2d5016;fill-opacity:1;stroke:none;stroke-width:1.11864412;stroke-miterlimit:4;stroke-dasharray:none"
         d="m 116.06242,272.84334 c -3.14688,-3.66406 -3.1737,-6.13414 -0.20159,-18.56404 l 2.97072,-12.42404 -1.85401,-10.46354 c -2.47669,-13.97784 -5.43917,-22.4735 -11.58327,-33.21787 -10.917389,-19.09156 -26.251123,-35.45294 -39.946,-42.62312 l -5.848058,-3.06185 -9.974499,3.21478 c -18.523156,5.97 -32.807345,4.05541 -41.6971812,-5.58893 -7.6694123,-8.32033 -8.82163752,-20.27359 -2.6601101,-27.59614 4.3982723,-5.22705 8.7464663,-6.56508 21.3345823,-6.56508 h 11.074498 l 13.29194,12.04952 c 7.310567,6.62724 20.339397,18.12924 28.952957,25.56001 16.207753,13.98215 28.157041,25.9904 33.000001,33.16281 2.80302,4.15128 5.32216,5.93672 6.59231,4.67232 0.37338,-0.37169 0.839,-8.6629 1.0347,-18.42492 l 0.35582,-17.74912 -6.18761,-12.08447 C 105.44497,125.03008 97.926178,114.2624 86.694701,103.00796 74.921645,91.210829 68.260749,87.206906 47.644324,79.53443 39.73545,76.591115 31.693192,73.124007 29.772638,71.829747 18.859775,64.47557 16.012542,45.447939 24.333496,35.480777 c 3.476926,-4.164795 9.941393,-5.901716 18.114327,-4.867088 6.964838,0.881693 10.088899,2.688678 15.983696,9.245111 5.093734,5.665457 8.899786,13.898616 12.471366,26.977755 2.250914,8.242856 4.003149,10.28538 19.572578,22.815112 13.466497,10.837363 19.426797,16.800963 25.076467,25.090363 1.75386,2.57334 3.76742,4.48912 4.47457,4.25729 4.28223,-1.40385 -0.49215,-22.391535 -7.36999,-32.397677 -1.15825,-1.685054 -7.12112,-6.145704 -13.250847,-9.912555 C 85.91392,68.398114 82.390695,63.611631 82.310548,53.464501 c -0.0972,-12.306558 6.91014,-20.118223 16.827409,-18.758909 13.022603,1.784945 17.445103,8.056988 20.146093,28.571377 0.93883,7.130574 2.53432,17.49519 3.54554,23.032478 2.36569,12.954199 4.18624,13.34715 7.77404,1.677966 15.70966,-51.095021 17.2946,-53.913091 42.48533,-75.540143 17.24024,-14.8013029 22.7819,-15.6906926 14.14574,-2.270274 -2.74857,4.271219 -5.77191,10.311897 -6.71854,13.423728 -2.41758,7.947272 -3.25722,31.186586 -1.65943,45.929062 1.42444,13.142977 1.43525,13.233398 3.98473,33.336954 7.76976,61.26743 -10.15323,120.11168 -48.56576,159.44962 -6.77585,6.93908 -13.80409,12.46747 -15.86636,12.48043 -0.36609,0.002 -1.4222,-0.87675 -2.34692,-1.95345 z m 16.72417,-24.37817 c 2.41976,-1.69488 12.57649,-15.15671 12.57649,-16.66903 0,-0.42435 1.2046,-2.37399 2.67689,-4.33252 9.68011,-12.87704 18.99662,-34.49015 21.78742,-50.544 3.00484,-17.28515 3.65968,-26.95463 3.66973,-54.18717 0.008,-20.11036 -0.47363,-28.417725 -2.36823,-40.89758 -1.30763,-8.613559 -2.67911,-23.086016 -3.04773,-32.161016 -0.3686,-9.075 -1.052,-16.5 -1.51863,-16.5 -0.92682,0 -9.8608,13.636822 -15.46961,23.612788 -6.44321,11.460052 -12.19542,31.342867 -16.95548,58.607548 -1.97639,11.32031 -2.50415,20.91929 -3.36814,61.25936 -0.56348,26.30959 -1.53709,53.24094 -2.16359,59.84745 -0.62649,6.60651 -1.13948,12.38938 -1.14,12.85082 -0.001,1.3958 2.70648,0.94454 5.32088,-0.88665 z M 37.433303,149.49464 c 7.786651,-7.31519 1.909185,-21.1553 -9.747941,-22.95423 -7.360834,-1.13592 -14.338004,4.32404 -14.30701,11.19591 0.02668,5.91662 1.244871,8.32998 5.987808,11.86251 4.007938,2.9851 5.336868,3.37926 9.9741,2.95833 3.559649,-0.32311 6.26801,-1.348 8.093043,-3.06252 z M 109.74638,66.73148 c 6.79462,-9.144839 -0.55753,-24.484282 -10.534997,-21.980098 -3.266508,0.819841 -7.543222,7.32525 -7.543222,11.474169 0,6.626392 7.473673,14.265018 13.313099,13.606935 1.47729,-0.166485 3.62159,-1.561938 4.76512,-3.101006 z M 51.383912,65.85005 c 3.358138,-2.719255 4.284809,-10.880718 1.784423,-15.715932 -1.965043,-3.799974 -8.355427,-8.555154 -13.018584,-9.687323 -2.179158,-0.529078 -3.573155,0.02201 -5.872882,2.32174 -4.216331,4.216332 -4.061982,9.696067 0.465651,16.531544 5.367272,8.103102 11.663132,10.581122 16.641392,6.549971 z"
         id="path3408"
         inkscape:connector-curvature="0"
         transform="matrix(0,-0.00122549,-9.4696972e-4,0,0.91228021,0.34381702)" /><path
         style="fill:#2d5016;fill-opacity:1;stroke:none;stroke-width:1.11864412;stroke-miterlimit:4;stroke-dasharray:none"
         d=""
         id="path3410"
         inkscape:connector-curvature="0"
         transform="matrix(0,-0.00122549,-9.4696972e-4,0,0.91228021,0.34381702)" /><path
         style="fill:#ccff00;fill-opacity:1;stroke:none;stroke-width:1.11864412;stroke-miterlimit:4;stroke-dasharray:none"
         d="M 41.241566,64.189606 C 32.251647,58.131301 29.639957,47.596924 35.962253,42.895248 l 3.022906,-2.248031 5.234939,2.695521 c 8.96481,4.61607 12.317484,14.995594 6.668403,20.644675 -3.395231,3.395231 -4.863134,3.425997 -9.646935,0.202193 z"
         id="path3955"
         inkscape:connector-curvature="0"
         transform="matrix(0,-0.00122549,-9.4696972e-4,0,0.91228021,0.34381702)" /><path
         style="fill:#ccff00;fill-opacity:1;stroke:none;stroke-width:1.11864412;stroke-miterlimit:4;stroke-dasharray:none"
         d="m 97.972657,66.216708 c -6.030573,-5.588946 -6.531515,-14.162386 -1.078143,-18.452009 3.938136,-3.097736 7.759606,-2.87339 11.022266,0.647079 3.4236,3.694128 4.49155,9.184725 2.78956,14.341818 -2.18989,6.635422 -7.69516,8.13266 -12.733683,3.463112 z"
         id="path3957"
         inkscape:connector-curvature="0"
         transform="matrix(0,-0.00122549,-9.4696972e-4,0,0.91228021,0.34381702)" /><path
         style="fill:#ccff00;fill-opacity:1;stroke:none;stroke-width:1.11864412;stroke-miterlimit:4;stroke-dasharray:none"
         d="m 22.871552,150.44774 c -5.712639,-3.15177 -8.389831,-6.85985 -8.389831,-11.62045 0,-9.56704 7.628019,-13.86092 17.145029,-9.65109 5.196237,2.29854 8.583785,6.79256 8.583785,11.38748 0,3.28265 -2.964657,8.66104 -5.531258,10.03464 -2.796248,1.49651 -8.964938,1.41784 -11.807725,-0.15058 z"
         id="path3959"
         inkscape:connector-curvature="0"
         transform="matrix(0,-0.00122549,-9.4696972e-4,0,0.91228021,0.34381702)" /></g></g></svg>