<?xml version="1.0" encoding="UTF-8" standalone="no"?>
<!-- Created with Inkscape (http://www.inkscape.org/) -->

<svg
   xmlns:dc="http://purl.org/dc/elements/1.1/"
   xmlns:cc="http://creativecommons.org/ns#"
   xmlns:rdf="http://www.w3.org/1999/02/22-rdf-syntax-ns#"
   xmlns:svg="http://www.w3.org/2000/svg"
   xmlns="http://www.w3.org/2000/svg"
   xmlns:sodipodi="http://sodipodi.sourceforge.net/DTD/sodipodi-0.dtd"
   xmlns:inkscape="http://www.inkscape.org/namespaces/inkscape"
   version="1.1"
   id="svg62"
   xml:space="preserve"
   width="358.7309"
   height="206.77081"
   viewBox="0 0 358.7309 206.77081"
   sodipodi:docname="4.svg"
   inkscape:version="0.92.2 5c3e80d, 2017-08-06"><metadata
     id="metadata68"><rdf:RDF><cc:Work
         rdf:about=""><dc:format>image/svg+xml</dc:format><dc:type
           rdf:resource="http://purl.org/dc/dcmitype/StillImage" /><dc:title></dc:title></cc:Work></rdf:RDF></metadata><defs
     id="defs66" /><sodipodi:namedview
     pagecolor="#ffffff"
     bordercolor="#666666"
     borderopacity="1"
     objecttolerance="10"
     gridtolerance="10"
     guidetolerance="10"
     inkscape:pageopacity="0"
     inkscape:pageshadow="2"
     inkscape:window-width="1123"
     inkscape:window-height="757"
     id="namedview64"
     showgrid="false"
     inkscape:zoom="0.63211061"
     inkscape:cx="136.8911"
     inkscape:cy="65.159315"
     inkscape:window-x="211"
     inkscape:window-y="40"
     inkscape:window-maximized="0"
     inkscape:current-layer="g72"
     fit-margin-top="0"
     fit-margin-left="0"
     fit-margin-right="0"
     fit-margin-bottom="0" /><g
     id="g70"
     inkscape:groupmode="layer"
     inkscape:label="bluegrass"
     transform="matrix(0,-1.3333333,-1.3333333,0,710.16513,954.98548)"><g
       id="g72"
       transform="matrix(-791.99994,-0.29431345,0.22742412,-611.99996,791.88626,612.14713)"><path
         style="fill:#000000;stroke-width:0.00034473"
         d="m 0.11199042,0.56979379 c -0.004965,-0.0165733 0.0209773,-0.0257256 0.03155,-0.0363074 0.0226797,-0.003269 0.0359421,-0.009904 0.006711,-0.0119158 -0.0196252,-0.004244 -0.0439415,-0.004531 -0.05289375,-0.0267849 -0.01051267,-0.0186712 0.01143244,-0.0502815 0.03159697,-0.0338277 0.0135721,0.0114027 0.0148248,0.029949 0.027801,0.0416744 0.009937,0.0113747 0.0256911,0.0161754 0.0114374,-0.001779 -0.0105319,-0.0193987 -0.0158686,-0.0420264 -0.0280594,-0.0601281 -0.0257387,-0.007651 -0.04392229,-0.0417705 -0.0285173,-0.0657526 0.0177973,-0.0206786 0.050419,0.001001 0.0468166,0.0253767 -0.002501,0.0265555 -0.003556,0.0543581 0.0119432,0.0779702 0.009524,0.0197585 0.0293615,0.0343437 0.0501749,0.0395365 0.0183086,-0.003085 0.0492951,0.00582 0.0228684,-0.0186666 -0.0154349,-0.0248406 -0.0205308,-0.0536993 -0.0271365,-0.0815525 -0.0207962,-0.0237997 -0.0192767,-0.0575484 -0.0238271,-0.0870014 -0.008228,-0.0206591 -0.0156747,-0.0455659 -0.0140326,-0.0694562 0.004035,-0.0310902 -0.0104713,-0.0590228 -0.0122547,-0.0898484 -0.0154741,-0.0187262 -0.009557,-0.0325371 0.0134168,-0.0158389 0.012065,0.0209278 0.0151255,-0.001059 0.0294972,-0.007627 0.0118698,-0.001357 0.0301241,-0.0358977 0.0256298,-0.0118265 4.4016e-4,0.0126557 -0.001874,0.0554598 0.0121538,0.0275392 0.011669,-0.0029 0.0315046,-0.0246321 0.0339095,-0.001984 -0.022869,0.048289 -0.0102943,0.1035816 -0.0130835,0.15500687 -5.2795e-4,0.0214711 -0.0201581,0.0361643 -0.0171834,0.0586469 -0.004596,0.0146664 -0.0106472,0.0292986 -0.0187995,0.0416656 0.004158,0.0315309 0.0113602,0.065928 0.0335353,0.0900644 0.005886,0.0120963 0.0388979,0.008778 0.0221192,0.0223523 -0.0272807,0.0216237 -0.0625241,0.0298472 -0.0967893,0.0271811 -0.0255109,0.001632 -0.0530077,-3.9744e-4 -0.0756323,0.0134121 l -0.002951,-1.2791e-4 z m 0.0272164,-0.0191417 c 0.0419315,-0.011675 0.0888225,-0.003769 0.1277191,-0.0252017 -0.0437459,0.00183 -0.0903201,0.005233 -0.12984026,0.0256181 l 0.002121,-4.1745e-4 z m 0.0662191,-0.001776 c -0.001269,-2.8525e-4 1.03e-5,0.001337 0,0 z m 0.006324,-4.086e-4 c -6.8665e-4,-0.00116 -6.8546e-4,0.001162 0,0 z m 0.002738,-2.812e-5 c -5.3007e-4,-0.00201 -0.003555,0.001287 0,0 z m -0.0953679,-0.0471907 c 0.029456,0.002751 0.00824,-0.0540141 -0.0120806,-0.0302827 -0.006932,0.00913 -9.8654e-4,0.0321309 0.0120806,0.0302827 z m 0.0124709,-0.0206125 c -5.4541e-4,-0.001632 0.001741,5.4347e-4 0,0 z m 0.009316,-0.0622769 c 0.0253136,-0.009653 0.005423,-0.0488507 -0.0178499,-0.0414347 -0.0149229,0.0101828 -0.0121941,0.0356989 0.006166,0.0403009 l 0.004246,0.001995 z m 0.10393315,-0.0826554 c 0.002811,-0.0302201 3.0374e-4,-0.0685706 -9.595e-4,-0.10163457 -0.007954,-0.0376958 -0.004219,0.0344799 -0.008543,0.0465441 0.001729,0.0154606 -0.003983,0.0460954 0.009503,0.0550904 z m -0.0221241,-0.005044 c 0.007255,-0.0161006 -0.009902,-0.0339793 -0.0111178,-0.0526485 -0.00533,-0.0299116 -0.00149,-0.0604999 -0.004571,-0.0905303 -0.005174,0.0260203 -0.0107293,0.053745 -0.002648,0.0790754 0.003383,0.0213894 0.002694,0.0472636 0.0169741,0.06421 l 0.001364,-1.041e-4 z m -0.0227773,-0.002914 c 0.0129356,-0.008444 -0.0127215,-0.0495762 -0.008006,-0.0730131 4.6723e-4,-0.0118921 -0.004824,-0.0641891 -0.003536,-0.0231935 8.455e-5,0.032199 -0.003612,0.0676376 0.0115423,0.0962066 z m 0.0611036,-0.002034 c 0.003263,-0.0146481 0.00122,-0.0741298 -3.2198e-4,-0.0316721 9.287e-5,0.0104861 -0.001532,0.0212867 3.2198e-4,0.0316721 z m -0.0318122,-0.0297393 c -0.002395,-0.0448571 0.0118895,-0.0897802 9.3901e-4,-0.13405834 0.007162,-0.0300764 -0.0430255,-0.001478 -0.0162127,0.0119221 0.009577,0.0439143 -6.9265e-4,0.0908899 0.01501,0.13402557 l 1.3595e-4,-0.003568 z m 0.027565,-0.0394345 c 0.001496,-0.03057 0.008077,-0.0621952 0.0125081,-0.091364 -0.0196758,-0.002771 -0.0273657,0.0162217 -0.0230417,0.0312349 0.004344,0.0189986 0.003811,0.0472554 0.0105355,0.0601317 z M 0.1952897,0.21626177 c -9.453e-4,-0.020004 -8.7456e-4,-0.0468127 -0.0238691,-0.0549218 6.6043e-4,0.00439 0.006908,0.0476835 0.0110379,0.0413293 -0.008697,-0.0241759 0.004091,-0.0320608 0.009124,-0.005228 3.918e-4,0.005362 0.003366,0.0159817 0.003707,0.0188203 z m 0.005123,-0.0265696 c 0.006107,-0.0235975 -0.001806,-0.0346209 -0.00257,-0.004414 -5.218e-5,-9.7401e-4 0.001957,0.00871 0.00257,0.004414 z m -0.0484354,0.30376764 c 0.00136,-0.001767 0.001362,0.001765 0,0 z m -0.001806,-0.001789 c -0.001322,-0.001302 0.002291,-0.0013 0,0 z m -0.001758,-4.6533e-4 c -3.7493e-4,-0.005955 0.002466,0.001393 0,0 z m -7.577e-4,-0.003133 c 5.2232e-4,-0.001526 0.001771,0.001123 0,0 z m -0.001213,-0.001591 c 9.5407e-4,-7.1782e-4 5.9591e-4,0.001291 0,0 z"
         id="path3997"
         inkscape:connector-curvature="0"
         sodipodi:nodetypes="ccccccccccccccccccccccccccccccccccccccccccccccccccccccccccccccccccccccccccccccccccccccccccccccccccc" /><path
         style="fill:#ccff00;stroke-width:0.00482031"
         d="m 0.12382341,0.49819769 c -0.003676,0.001827 -0.009806,-7.146e-4 -0.0136215,-0.005649 -0.006425,-0.008308 -0.006416,-0.009647 1.1071e-4,-0.0181004 0.005823,-0.007541 0.008191,-0.007902 0.0136193,-0.002077 0.008469,0.009089 0.008417,0.0215881 -1.0851e-4,0.0258264 z"
         id="path4019"
         inkscape:connector-curvature="0" /><path
         style="fill:#ccff00;stroke-width:4.47457647"
         d=""
         id="path4021"
         inkscape:connector-curvature="0"
         transform="matrix(3.5190156e-7,0.00122549,9.4696966e-4,-4.5540184e-7,-1.4356708e-4,2.4045255e-4)" /><path
         style="fill:#ccff00;stroke-width:4.47457647"
         d=""
         id="path4023"
         inkscape:connector-curvature="0"
         transform="matrix(3.5190156e-7,0.00122549,9.4696966e-4,-4.5540184e-7,-1.4356708e-4,2.4045255e-4)" /><path
         style="fill:#ccff00;stroke-width:0.00482031"
         d="m 0.14658462,0.41117307 c -0.006765,0.008762 -0.0123212,0.008302 -0.0236489,-0.001958 -0.007616,-0.006898 -0.008587,-0.0105971 -0.005037,-0.01919 0.005536,-0.0133977 0.017616,-0.0136811 0.0267513,-6.2752e-4 0.008375,0.0119676 0.008492,0.0132826 0.001935,0.0217755 z"
         id="path4025"
         inkscape:connector-curvature="0" /><path
         style="fill:#005500;stroke-width:4.47457647"
         d=""
         id="path4027"
         inkscape:connector-curvature="0"
         transform="matrix(3.5190156e-7,0.00122549,9.4696966e-4,-4.5540184e-7,-1.4356708e-4,2.4045255e-4)" /><path
         style="fill:#005500;stroke-width:0.00170424"
         d="m 0.24727852,0.53240262 c -0.0181924,0.00567 -0.0196135,0.005917 -0.0539292,0.009364 -0.0164787,0.001655 -0.0329948,0.003436 -0.0367025,0.003958 -0.006321,8.8887e-4 -0.006142,7.0964e-4 0.002878,-0.002876 0.0198761,-0.007901 0.0762978,-0.0170328 0.0944941,-0.0152929 0.006521,6.2353e-4 0.006301,7.8205e-4 -0.00674,0.004847 z"
         id="path4029"
         inkscape:connector-curvature="0" /><path
         style="fill:#005500;stroke-width:1.58200157"
         d=""
         id="path4031"
         inkscape:connector-curvature="0"
         transform="matrix(3.5190156e-7,0.00122549,9.4696966e-4,-4.5540184e-7,-1.4356708e-4,2.4045255e-4)" /><path
         style="fill:#005500;stroke-width:0.00170424"
         d="m 0.28510503,0.52994305 c -0.0247922,0.018807 -0.0527236,0.0263553 -0.0977439,0.0264148 -0.0299446,3.952e-5 -0.048306,0.002388 -0.063317,0.0081 -0.005986,0.002278 -0.0112722,0.00364 -0.0117463,0.003027 -4.7405e-4,-6.1303e-4 -4.1883e-4,-0.002924 1.2271e-4,-0.005134 0.002033,-0.008301 0.029729,-0.0281153 0.0422338,-0.0302153 0.007681,-0.00129 0.0141039,-0.005335 0.0122591,-0.00772 -5.2727e-4,-6.8185e-4 -0.008279,-0.002479 -0.017227,-0.003993 -0.0237619,-0.004022 -0.0318903,-0.006485 -0.0399784,-0.0121182 -0.009384,-0.006535 -0.01527137,-0.0186828 -0.01384233,-0.0285609 0.0012675,-0.008761 0.0096953,-0.0197221 0.01642263,-0.0213587 0.0118546,-0.002884 0.0193793,0.003287 0.0308798,0.0253252 0.007822,0.0149898 0.0190669,0.0272793 0.0267834,0.0292727 0.006191,0.001599 0.006088,-0.00176 -3.7574e-4,-0.0122728 -0.002755,-0.00448 -0.007551,-0.0145109 -0.0106577,-0.0222902 -0.003107,-0.007779 -0.008323,-0.0195496 -0.0115904,-0.0261561 -0.005136,-0.0103839 -0.006924,-0.0124336 -0.0131892,-0.0151234 -0.008718,-0.003742 -0.0200027,-0.0160997 -0.0240345,-0.0263178 -0.003528,-0.008942 -0.00379,-0.0211691 -6.2205e-4,-0.0291037 0.007124,-0.0178445 0.0304026,-0.0178162 0.0433724,5.254e-5 l 0.004496,0.006194 -4.5791e-4,0.0265218 c -3.8557e-4,0.0223324 2.164e-5,0.0285122 0.002578,0.0391221 0.003778,0.0156799 0.0139855,0.0341448 0.0244628,0.0442512 0.016943,0.0163432 0.0298966,0.0211837 0.0528388,0.0197449 0.0194967,-0.001223 0.0209772,-0.003197 0.0111789,-0.0149078 -0.009446,-0.0112893 -0.0171448,-0.0299081 -0.0247449,-0.0598407 -0.004934,-0.0194308 -0.008094,-0.0287224 -0.0111889,-0.0328942 -0.007207,-0.009716 -0.0121544,-0.0267017 -0.0157628,-0.0541231 -0.002161,-0.016424 -0.00499,-0.0302744 -0.008029,-0.0393196 -0.0068,-0.0202339 -0.009179,-0.0358855 -0.009115,-0.0599684 4.146e-5,-0.0155415 -7.5887e-4,-0.0248676 -0.003055,-0.0355976 -0.006204,-0.028994 -0.009027,-0.0433184 -0.009028,-0.0458092 -4.1e-7,-0.001398 -0.002117,-0.006423 -0.004703,-0.0111677 -0.005383,-0.009876 -0.004958,-0.0147682 0.001278,-0.0147075 0.005369,5.232e-5 0.0153504,0.005989 0.0190088,0.0113068 0.00395,0.005741 0.008862,0.005187 0.0149038,-0.001683 0.00282,-0.003206 0.008741,-0.007956 0.0131575,-0.0105548 0.004417,-0.002599 0.0114004,-0.008249 0.015519,-0.0125553 l 0.007488,-0.00783 9.3274e-4,0.0217674 c 5.1301e-4,0.0119721 0.001021,0.0218922 0.00113,0.0220446 0.001851,0.002602 0.005488,0.001722 0.008147,-0.001971 0.004164,-0.005784 0.0233191,-0.0167393 0.0292735,-0.0167422 0.006574,-3.16e-6 0.007366,0.005621 0.002692,0.0191145 -0.008592,0.0248012 -0.009039,0.0293952 -0.009102,0.0934702 l -5.779e-5,0.0592667 -0.005909,0.0124106 c -0.008505,0.0178613 -0.0113078,0.0260522 -0.0113058,0.033038 1.9e-6,0.006627 -0.006375,0.0243006 -0.0138354,0.0383442 -0.004592,0.008644 -0.00461,0.008781 -0.002761,0.0204886 0.00508,0.032161 0.0142393,0.0561873 0.0280821,0.0736647 0.006849,0.008647 0.009853,0.0108943 0.0193077,0.0144447 0.006158,0.002312 0.0111972,0.005018 0.0111975,0.006013 2.9e-7,9.9461e-4 -0.002864,0.003981 -0.006365,0.006637 z M 0.2540248,0.16752713 c -0.006456,0.004324 -0.009618,0.0131908 -0.008611,0.0241479 0.001866,0.0202991 0.006843,0.0539385 0.008917,0.0602599 0.002168,0.00661 0.002247,0.00666 0.003046,0.001937 4.5109e-4,-0.002666 0.0016,-0.0122632 0.002554,-0.0213272 9.5349e-4,-0.009064 0.003585,-0.0278225 0.005848,-0.0416855 l 0.004115,-0.0252054 -0.005658,-5.881e-4 c -0.003112,-3.2345e-4 -0.007707,7.8404e-4 -0.010211,0.002461 z M 0.2270526,0.52722647 c -0.0274268,0.002676 -0.0523691,0.007869 -0.0715195,0.0148928 -0.0194333,0.007127 -0.0224991,0.0105643 -0.006472,0.007256 0.006803,-0.001404 0.0262925,-0.003978 0.0433097,-0.005719 0.0353066,-0.003613 0.0493187,-0.006386 0.064902,-0.0128469 l 0.0109775,-0.004551 -0.008989,-6.4846e-4 c -0.004944,-3.5666e-4 -0.0194378,3.7088e-4 -0.0322087,0.001617 z M 0.2614381,0.28004308 c -8.5802e-4,6.8683e-4 -0.001495,0.010722 -0.001491,0.0234943 4.13e-6,0.0143699 5.3883e-4,0.0218692 0.001504,0.0210965 8.5802e-4,-6.8682e-4 0.001495,-0.010722 0.001491,-0.0234943 -4.13e-6,-0.0143699 -5.3883e-4,-0.0218692 -0.001504,-0.0210965 z M 0.243381,0.22916018 c -9.5031e-4,-0.003465 -0.002336,-0.0063 -0.003079,-0.006299 -0.001739,8.3e-7 -0.001458,-0.002156 -0.002905,0.0222968 -0.003085,0.0521118 -0.003301,0.0621877 -0.001563,0.0726563 0.001943,0.0117053 0.007256,0.0212014 0.009525,0.0170268 0.00191,-0.003514 1.4284e-4,-0.0979484 -0.001978,-0.1056809 z M 0.2320455,0.16127698 c -6.4202e-4,-0.00729 -0.001721,-0.0107793 -0.003771,-0.012198 -0.006918,-0.004787 -0.0223028,0.00534 -0.0223001,0.0146777 7.4e-7,0.002606 0.001619,0.006037 0.00383,0.00812 0.005302,0.004995 0.006428,0.0128902 0.008241,0.0577807 0.001626,0.0402705 0.00378,0.0588239 0.008339,0.0718396 l 0.002677,0.007643 0.001196,-0.0300508 c 6.5758e-4,-0.016528 0.001818,-0.0352857 0.00258,-0.0416839 0.001381,-0.0116094 9.1162e-4,-0.056787 -7.919e-4,-0.0761283 z M 0.2187742,0.29952899 c -0.007327,-0.0193406 -0.008513,-0.0281433 -0.00959,-0.0711622 -5.2498e-4,-0.0209714 -0.001372,-0.0386691 -0.001883,-0.0393282 -0.001731,-0.002235 -0.006145,0.0250259 -0.006911,0.0426812 -5.4685e-4,0.0126064 -1.0566e-4,0.0205415 0.001563,0.0281108 0.001279,0.0058 0.003111,0.0174116 0.004072,0.0258025 0.002107,0.0184064 0.00482,0.0288597 0.009999,0.0385378 0.0042,0.007848 0.007321,0.009272 0.008494,0.003873 0.001291,-0.005946 -4.301e-4,-0.0144911 -0.005743,-0.0285153 z m -0.006978,0.24772729 c -0.001195,6.1947e-4 -8.3978e-4,0.001079 9.0545e-4,0.001171 0.001579,8.344e-5 0.002464,-3.7521e-4 0.001966,-0.001019 -4.9799e-4,-6.4399e-4 -0.00179,-7.1224e-4 -0.002871,-1.52e-4 z M 0.19864809,0.29287441 c -0.005146,-0.019711 -0.00597,-0.0253684 -0.006663,-0.0457563 -4.3506e-4,-0.0127954 -0.001464,-0.0254451 -0.002287,-0.0281105 -0.002055,-0.006655 -0.002193,0.0637322 -1.5277e-4,0.0776274 0.00298,0.0202924 0.0112771,0.0372074 0.0139856,0.0285113 0.001606,-0.005156 7.92e-4,-0.010536 -0.004883,-0.0322719 z m 0.002488,-0.12574568 c -0.004049,0.001749 -0.005184,0.0247338 -0.001221,0.0247319 0.001634,-7.9e-7 0.002589,-0.005717 0.002863,-0.0171268 1.4101e-4,-0.005876 -3.5246e-4,-0.008162 -0.001642,-0.007605 z m -0.009868,0.014409 c -0.00296,-0.008651 -0.0101192,-0.0171606 -0.016574,-0.0197008 -0.003503,-0.001378 -0.003547,-0.00124 -0.002487,0.007882 0.001796,0.0154634 0.006722,0.0337844 0.009084,0.0337833 0.001689,-8.1e-7 0.001836,-0.001068 6.8743e-4,-0.004973 -0.002242,-0.007624 -0.001844,-0.0163521 7.469e-4,-0.0163533 0.003234,-1.55e-6 0.006226,0.007045 0.009052,0.0213217 0.001372,0.00693 0.002865,0.0130366 0.003318,0.0135695 0.002043,0.002405 -0.001223,-0.0279195 -0.003827,-0.0355294 z m -0.0415227,0.20717274 c -0.003627,-0.007157 -0.0127036,-0.0126405 -0.0209177,-0.0126366 -0.009381,4.51e-6 -0.0156724,0.007672 -0.0156691,0.0190969 6.14e-6,0.0213853 0.0262434,0.0330267 0.0372364,0.0165216 0.004008,-0.006018 0.003776,-0.0142483 -6.496e-4,-0.0229819 z m -0.0178284,0.0881972 c -0.003108,-0.007771 -0.007935,-0.01165 -0.0144937,-0.0116468 -0.0129746,6.24e-6 -0.01833564,0.0189003 -0.008845,0.031173 0.003527,0.004561 0.005678,0.005664 0.0110354,0.005662 0.0125027,-6.01e-6 0.0179307,-0.0111183 0.0123033,-0.0251882 z"
         id="path4033"
         inkscape:connector-curvature="0"
         sodipodi:nodetypes="cssccscsscsscssssssscssssssssscssccsscccsccssccssssscscccscccscscssssscsscscscsssccsscscsccscssscsssscsccccsscssscsscccsscssccssssscscsc" /><path
         style="fill:none;stroke:#000000;stroke-width:0.00107727px;stroke-linecap:butt;stroke-linejoin:miter;stroke-opacity:1"
         d="m 0.21628301,0.41763687 0.0154264,-7.2379e-4 v 0"
         id="path4882"
         inkscape:connector-curvature="0" /><path
         style="fill:#2d1650;stroke-width:0.00042606"
         d="m 0.27776283,0.16554655 c -4.6982e-4,0.001866 -0.001814,0.006196 -0.002988,0.009622 -0.007607,0.0222055 -0.008095,0.0283746 -0.008075,0.10214378 l 1.276e-5,0.0472976 -0.001922,0.00408 c -0.009463,0.020085 -0.0127764,0.0279615 -0.0143588,0.0341358 -3.4164e-4,0.001333 -7.7549e-4,0.004348 -9.6414e-4,0.006699 -6.9894e-4,0.008713 -0.004988,0.0212146 -0.0124188,0.0362014 -0.001653,0.003333 -0.003511,0.007096 -0.004129,0.008363 l -0.001124,0.002303 -0.003034,5.195e-5 c -0.001669,2.862e-5 -0.005269,1.939e-4 -0.008002,3.6736e-4 l -0.004968,3.1539e-4 -0.001356,-0.002843 c -7.4596e-4,-0.001564 -0.002118,-0.003953 -0.00305,-0.005309 -0.006677,-0.009722 -0.0112051,-0.0255043 -0.0149012,-0.0519395 -0.002951,-0.0211058 -0.004632,-0.0290089 -0.009482,-0.0445862 -0.005896,-0.018937 -0.007399,-0.0298997 -0.007941,-0.0579157 -3.8543e-4,-0.0199371 -7.0078e-4,-0.0227797 -0.004564,-0.0411421 -0.00379,-0.0180152 -0.006604,-0.0322152 -0.007247,-0.03658 -5.7838e-4,-0.003924 -0.001268,-0.005777 -0.004379,-0.0117706 -0.004653,-0.008965 -0.005327,-0.0137053 -0.002154,-0.0151387 0.001729,-7.8107e-4 0.003955,-6.61e-4 0.007102,3.8314e-4 0.005372,0.001782 0.010912,0.00566 0.0149561,0.0104674 0.002646,0.003145 0.003464,0.003627 0.006161,0.003625 0.002421,-1.16e-6 0.00496,-0.001595 0.008706,-0.005466 0.003929,-0.004059 0.00577,-0.005547 0.0124471,-0.0100573 0.007828,-0.005287 0.0124021,-0.009134 0.0186506,-0.015684 0.00471,-0.004937 0.004955,-0.005127 0.004959,-0.003847 5.31e-6,0.002002 0.001454,0.034195 0.001734,0.0385257 1.7621e-4,0.002725 4.2767e-4,0.003954 9.2877e-4,0.00454 0.001471,0.001721 0.005366,4.4597e-4 0.007443,-0.002436 0.003124,-0.004335 0.0168847,-0.0130353 0.0249406,-0.0157701 0.004744,-0.00161 0.007886,-0.001109 0.00929,0.001484 8.686e-4,0.001604 7.5172e-4,0.005801 -2.7514e-4,0.009879 z m -0.0134279,-4.4209e-4 c -0.004159,-2.827e-5 -0.005408,1.44e-4 -0.007641,0.001054 -0.006285,0.002561 -0.0104149,0.00918 -0.011387,0.018249 -3.5316e-4,0.003295 -2.8124e-4,0.004882 5.7009e-4,0.0125765 0.001937,0.0175047 0.005158,0.0398844 0.007128,0.0495161 0.001115,0.005452 0.003083,0.0112511 0.003594,0.0105894 5.2896e-4,-6.8506e-4 0.001276,-0.005737 0.002606,-0.0176202 0.002125,-0.0189893 0.005322,-0.0412065 0.00966,-0.0671331 5.7993e-4,-0.003466 9.1657e-4,-0.006503 7.4808e-4,-0.00675 -1.6849e-4,-2.4663e-4 -0.002544,-4.6358e-4 -0.005278,-4.817e-4 z m -0.001748,0.11947449 c -6.4663e-4,-0.007255 -0.0016,-0.006084 -0.002245,0.00276 -4.6327e-4,0.006347 -4.7426e-4,0.0286649 -1.64e-5,0.0332501 6.3892e-4,0.006398 0.001671,0.004997 0.002216,-0.003007 4.5017e-4,-0.006614 4.7964e-4,-0.0281284 4.54e-5,-0.0330031 z m -0.0168628,-0.0111753 c -7.9809e-4,-0.029198 -0.001529,-0.0413837 -0.00273,-0.0455339 -0.001329,-0.004593 -0.003615,-0.006573 -0.004186,-0.003626 -3.0298e-4,0.001565 -0.001054,0.0130462 -0.002504,0.0382593 -9.7154e-4,0.0168965 -0.001203,0.0237779 -0.00122,0.0363517 -2.071e-5,0.0146081 2.763e-5,0.0157617 8.3176e-4,0.0198424 0.001639,0.008317 0.005724,0.0172326 0.007896,0.0172315 0.001082,-5.2e-7 0.001865,-0.001501 0.002025,-0.003879 3.2137e-4,-0.004757 2.4295e-4,-0.0456421 -1.1276e-4,-0.058646 z M 0.23279545,0.17114201 c -9.452e-4,-0.0148648 -0.001654,-0.0188535 -0.003782,-0.0212688 -0.00567,-0.006438 -0.0230238,0.003964 -0.023021,0.0137977 7.6e-7,0.002658 8.9835e-4,0.004604 0.003767,0.008166 0.001432,0.001778 0.002951,0.004113 0.003376,0.00519 0.002288,0.005798 0.003371,0.017546 0.004864,0.052769 0.001607,0.0378935 0.003653,0.0568125 0.007455,0.0689249 0.001736,0.005531 0.003525,0.0103625 0.00364,0.009831 5.741e-5,-2.666e-4 2.9173e-4,-0.005501 5.2063e-4,-0.0116326 9.6188e-4,-0.0257656 0.002182,-0.048564 0.003035,-0.0567092 8.2976e-4,-0.007923 0.00101,-0.01558 8.7997e-4,-0.0373209 -8.832e-5,-0.0147335 -3.3746e-4,-0.0255008 -7.346e-4,-0.0317471 z m -0.008628,0.14584428 c -7.8334e-4,-0.004085 -0.002142,-0.008497 -0.005581,-0.0181238 -0.007295,-0.02042 -0.00802,-0.0259696 -0.009397,-0.0719707 -8.22e-4,-0.0274433 -0.001381,-0.0374993 -0.002117,-0.0380873 -0.001158,-9.254e-4 -0.004081,0.0146271 -0.005711,0.0303826 -0.001811,0.0175155 -0.001653,0.0290237 5.5831e-4,0.0406666 0.001623,0.008546 0.002426,0.0136751 0.004133,0.0264132 0.001743,0.0130086 0.003144,0.0202869 0.005048,0.0262347 0.002347,0.007329 0.006184,0.0148877 0.008848,0.0174291 0.004076,0.003889 0.006198,-0.002621 0.004219,-0.0129444 z m -0.0211053,-0.005845 c -6.0594e-4,-0.003017 -0.002613,-0.0114821 -0.004461,-0.018812 -0.005068,-0.0201074 -0.00562,-0.0239572 -0.006639,-0.0462839 -7.3174e-4,-0.0160272 -0.001524,-0.0253899 -0.002283,-0.0269785 -6.3648e-4,-0.001332 -9.7439e-4,0.00123 -0.001328,0.0100691 -4.5221e-4,0.0113028 -1.6501e-4,0.051025 4.3065e-4,0.0595628 5.2568e-4,0.007535 0.001272,0.0122753 0.003015,0.0191614 0.002433,0.009608 0.006305,0.0182469 0.008653,0.0193049 0.00364,0.00164 0.004769,-0.005289 0.002612,-0.0160238 z M 0.2022589,0.16778862 c -9.6644e-4,-0.002335 -0.002587,-2.1986e-4 -0.003847,0.005023 -0.001116,0.004639 -0.001211,0.0146713 -1.6303e-4,0.0171536 0.00201,0.00476 0.003691,9.0165e-4 0.004394,-0.0100842 3.511e-4,-0.005489 1.8525e-4,-0.0107181 -3.8397e-4,-0.0120924 z m -0.006922,0.0394802 c -0.001177,-0.0134807 -0.002819,-0.0227236 -0.004978,-0.0280363 -0.002806,-0.006904 -0.0101554,-0.0151965 -0.0152829,-0.0172433 -0.002882,-0.001151 -0.003541,-9.4305e-4 -0.00354,0.001116 1.61e-6,0.004789 0.002457,0.0195203 0.004694,0.0281638 0.002322,0.008969 0.004149,0.0128096 0.005777,0.0121401 0.001,-4.1138e-4 9.7314e-4,-0.001134 -2.1892e-4,-0.005827 -0.001256,-0.004947 -0.001458,-0.0118715 -4.067e-4,-0.0139535 8.8793e-4,-0.001758 0.002161,-0.001692 0.003825,1.9766e-4 0.002275,0.002583 0.004317,0.009199 0.007537,0.0244136 0.001374,0.006492 0.002334,0.009403 0.002793,0.008464 4.6701e-4,-9.5637e-4 4.4338e-4,-0.002074 -1.9948e-4,-0.009435 z"
         id="path4887"
         inkscape:connector-curvature="0" /><path
         style="fill:#ccaaff;stroke-width:0.00042606"
         d="m 0.23259771,0.23027329 c -3.6906e-4,0.004132 -0.001106,0.0122024 -0.001639,0.017934 -0.001657,0.0178436 -0.002078,0.0264719 -0.002094,0.0428954 -1.709e-5,0.017331 9.303e-5,0.0169496 -0.002399,0.008309 -0.004298,-0.0149038 -0.006195,-0.029906 -0.006958,-0.0550394 -0.001381,-0.0454641 -0.001692,-0.0501277 -0.004354,-0.0652566 l -9.4389e-4,-0.005364 -0.001767,-0.001094 c -0.004368,-0.002705 -0.006075,-0.005192 -0.006076,-0.008857 -1.12e-6,-0.003893 0.002604,-0.007916 0.007166,-0.011065 0.0102614,-0.007084 0.0185599,-0.003884 0.0169022,0.006518 -3.4528e-4,0.002167 -2.4436e-4,0.003167 9.0558e-4,0.008981 0.001603,0.008105 0.001972,0.015416 0.001946,0.0385313 -1.384e-5,0.0121266 -1.805e-4,0.0178114 -6.8889e-4,0.0235073 z"
         id="path4889"
         inkscape:connector-curvature="0" /><path
         style="fill:#ccaaff;stroke-width:0.00042606"
         d="m 0.22400511,0.32589667 c -4.9541e-4,0.002553 -0.001411,0.004711 -0.002,0.004711 -7.6487e-4,3.7e-7 -0.004477,-0.005275 -0.006336,-0.009005 -0.004785,-0.009599 -0.006717,-0.0181525 -0.009454,-0.0418651 -8.4669e-4,-0.007334 -0.001724,-0.0131598 -0.002299,-0.0152664 -0.004956,-0.0181457 -0.004589,-0.0355152 0.001423,-0.0673856 0.001554,-0.008236 0.001555,-0.008239 0.001842,-0.005817 5.7016e-4,0.004808 0.001069,0.0211322 0.00108,0.0353813 1.826e-5,0.0220257 7.149e-4,0.034664 0.002685,0.0487092 0.001317,0.009391 0.002349,0.0130278 0.007077,0.0249434 0.002435,0.006138 0.004777,0.0125071 0.005204,0.0141538 9.1599e-4,0.003531 0.001278,0.008861 7.78e-4,0.0114404 z"
         id="path4891"
         inkscape:connector-curvature="0" /><path
         style="fill:#ccaaff;stroke-width:0.00042606"
         d="m 0.20260484,0.3238006 c -0.001266,0.00312 -0.001905,0.003466 -0.003273,0.00177 -0.001573,-0.001949 -0.004983,-0.0110697 -0.006769,-0.0181063 -0.003578,-0.0140948 -0.004272,-0.0241928 -0.004063,-0.0590873 1.59e-4,-0.0265791 4.8459e-4,-0.0323011 0.001345,-0.0236306 0.001583,0.0159632 0.001861,0.0223086 0.001592,0.0363237 -1.5577e-4,0.008101 0.001041,0.0141129 0.006576,0.0330472 0.003976,0.0135998 0.005026,0.0182631 0.00527,0.0234126 1.7414e-4,0.003662 9.897e-5,0.004359 -6.7661e-4,0.00627 z"
         id="path4893"
         inkscape:connector-curvature="0" /><path
         style="fill:#ccaaff;stroke-width:0.00042606"
         d="m 0.24533546,0.32744588 c -3.839e-4,0.006042 -5.9116e-4,0.007513 -0.001058,0.007513 -9.9391e-4,4.8e-7 -0.004251,-0.004724 -0.005455,-0.007911 -0.001703,-0.00451 -0.002324,-0.007786 -0.002797,-0.0147513 -4.1365e-4,-0.006094 -3.1334e-4,-0.033556 1.2595e-4,-0.0344766 5.5513e-4,-0.001163 0.00133,-0.0127677 0.001887,-0.0282743 7.545e-4,-0.0209863 0.001303,-0.0267177 0.002469,-0.0257862 5.5974e-4,4.4731e-4 0.001929,0.004624 0.00269,0.008205 0.00157,0.007393 0.003177,0.0791334 0.002138,0.0954814 z"
         id="path4895"
         inkscape:connector-curvature="0" /><path
         style="fill:#ccaaff;stroke-width:0.00042606"
         d="m 0.26645449,0.18178882 c -0.00556,0.033105 -0.008589,0.0549298 -0.009315,0.0671329 -1.2688e-4,0.002133 -3.2518e-4,0.004519 -4.4068e-4,0.005303 l -2.1e-4,0.001426 -5.7542e-4,-0.00142 c -0.002223,-0.005486 -0.003906,-0.0146353 -0.005699,-0.0309943 -0.001506,-0.0137305 -0.002417,-0.0202952 -0.003568,-0.0256942 -5.1056e-4,-0.002395 -0.001037,-0.005886 -0.001169,-0.007759 -0.00105,-0.0148635 0.009276,-0.026364 0.021699,-0.0241664 0.00127,2.2467e-4 0.00173,5.1793e-4 0.001709,0.00109 -1.588e-5,4.3027e-4 -0.00111,0.007217 -0.002431,0.015082 z"
         id="path4897"
         inkscape:connector-curvature="0" /><path
         style="fill:#ccaaff;stroke-width:0.00042606"
         d="m 0.19462578,0.21183326 c -2.4926e-4,-3.4687e-4 -0.002428,-0.0107638 -0.002677,-0.0128024 -0.001069,-0.008733 -0.005088,-0.0176834 -0.008288,-0.0184587 -0.004243,-0.001028 -0.005543,0.007249 -0.002773,0.0176597 6.6231e-4,0.00249 0.001108,0.004651 9.9077e-4,0.004803 -1.1737e-4,1.5201e-4 -5.7709e-4,-1.4014e-4 -0.001022,-6.4923e-4 -0.001566,-0.001793 -0.003559,-0.008715 -0.00571,-0.0198258 -0.001098,-0.005673 -0.003235,-0.0188458 -0.003236,-0.0199441 -3.2e-7,-0.001109 0.001388,-5.7702e-4 0.005816,0.002227 0.008343,0.005282 0.013377,0.0143499 0.0155022,0.0279246 0.001042,0.006656 0.002014,0.0199255 0.001397,0.0190659 z"
         id="path4899"
         inkscape:connector-curvature="0" /><path
         style="fill:#ccaaff;stroke-width:0.00042606"
         d="m 0.20223,0.17875562 c -3.3086e-4,0.003297 -0.00179,0.0108362 -0.002217,0.011452 -1.4847e-4,2.1433e-4 -6.5486e-4,-7.6691e-4 -0.001125,-0.002181 -7.6138e-4,-0.002288 -8.3153e-4,-0.00308 -6.384e-4,-0.007209 5.1383e-4,-0.0109862 0.002992,-0.0174753 0.004029,-0.0105485 3.709e-4,0.002479 3.5994e-4,0.004423 -4.86e-5,0.008487 z"
         id="path4901"
         inkscape:connector-curvature="0" /><path
         style="fill:#ccaaff;stroke-width:0.00042606"
         d="m 0.26223484,0.3128973 c -4.5144e-4,0.007072 -8.1955e-4,0.010421 -0.001146,0.0104212 -6.6461e-4,3.2e-7 -8.2169e-4,-0.008024 -4.161e-4,-0.0212553 5.3993e-4,-0.0176141 7.6495e-4,-0.0211297 0.001308,-0.0204282 4.9098e-4,6.3477e-4 6.8507e-4,0.0245111 2.541e-4,0.0312623 z"
         id="path4903"
         inkscape:connector-curvature="0" /></g></g></svg>