<?xml version="1.0" encoding="UTF-8" standalone="no"?>
<!-- Created with Inkscape (http://www.inkscape.org/) -->

<svg
   xmlns:dc="http://purl.org/dc/elements/1.1/"
   xmlns:cc="http://creativecommons.org/ns#"
   xmlns:rdf="http://www.w3.org/1999/02/22-rdf-syntax-ns#"
   xmlns:svg="http://www.w3.org/2000/svg"
   xmlns="http://www.w3.org/2000/svg"
   xmlns:sodipodi="http://sodipodi.sourceforge.net/DTD/sodipodi-0.dtd"
   xmlns:inkscape="http://www.inkscape.org/namespaces/inkscape"
   version="1.1"
   id="svg274"
   xml:space="preserve"
   width="60.833858"
   height="51.295135"
   viewBox="0 0 60.833858 51.295135"
   sodipodi:docname="0.svg"
   inkscape:version="0.92.4 (5da689c313, 2019-01-14)"><metadata
     id="metadata280"><rdf:RDF><cc:Work
         rdf:about=""><dc:format>image/svg+xml</dc:format><dc:type
           rdf:resource="http://purl.org/dc/dcmitype/StillImage" /><dc:title /></cc:Work></rdf:RDF></metadata><defs
     id="defs278" /><sodipodi:namedview
     pagecolor="#ffffff"
     bordercolor="#666666"
     borderopacity="1"
     objecttolerance="10"
     gridtolerance="10"
     guidetolerance="10"
     inkscape:pageopacity="0"
     inkscape:pageshadow="2"
     inkscape:window-width="1434"
     inkscape:window-height="760"
     id="namedview276"
     showgrid="false"
     inkscape:zoom="3.5757575"
     inkscape:cx="-53.618233"
     inkscape:cy="-1.5631069"
     inkscape:window-x="0"
     inkscape:window-y="0"
     inkscape:window-maximized="0"
     inkscape:current-layer="g282"
     fit-margin-top="0"
     fit-margin-left="0"
     fit-margin-right="0"
     fit-margin-bottom="0" /><g
     id="g282"
     inkscape:groupmode="layer"
     inkscape:label="Plantos_Test2"
     transform="matrix(1.3333333,0,0,-1.3333333,-619.90502,930.66233)"><g
       id="g284"
       transform="matrix(610.6,0,0,789.1,-651.87568,22.757022)"><path
         style="fill:#000000;stroke-width:0.48000872"
         d="M 5.6367188 0 C 3.4792655 0.81334113 -0.19312991 1.2539426 0.04296875 4.3261719 C 1.0932007 7.7887426 1.6957317 11.353881 2.265625 14.921875 C 5.8885182 23.162183 10.611124 42.845332 18.314453 46.306641 C 24.143648 50.135354 28.864276 52.134022 33.220703 46.855469 C 36.078311 44.998453 38.332342 42.417589 39.96875 39.445312 C 41.662147 36.594031 43.161284 33.601677 44.390625 30.527344 C 45.269889 26.85119 45.40713 22.739966 48.044922 19.753906 C 49.673189 17.821137 51.270241 15.660073 53.525391 14.451172 C 55.870095 14.05982 59.158574 13.85316 60.648438 11.71875 C 61.276379 9.1494405 60.864488 5.2328003 57.498047 5.0507812 C 54.567167 4.3658635 51.603216 4.993009 48.738281 5.6601562 C 46.051641 5.5423068 43.234731 5.0737985 40.759766 3.9082031 C 36.029651 1.5082871 30.580608 -0.19288718 25.277344 1.1601562 C 22.769813 1.9294446 19.341486 1.7906342 17.705078 4.0703125 C 17.95461 6.8142762 21.736091 7.0973844 23.917969 6.6796875 C 26.506913 6.1424893 29.217368 5.1222318 31.814453 6.1308594 C 29.722131 6.7171922 27.930752 7.941821 26.115234 9.078125 C 23.265768 10.370145 20.066892 9.2863409 18.072266 7.0253906 C 15.849682 5.4335129 15.360936 1.8317711 12.324219 1.3867188 C 9.9550908 1.4560964 7.8547388 0.68083162 5.6484375 0.001953125 L 5.6367188 0 z M 35.341797 8.1972656 C 38.248253 9.1149258 33.656541 9.9406505 35.341797 8.1972656 z M 7.0078125 9.1210938 C 7.6484965 9.1187237 8.4741459 9.3665865 9.5078125 9.90625 C 16.702652 13.662583 32.566688 12.015577 45.304688 10.464844 C 53.038834 9.5232838 33.221238 43.499954 24.890625 43.744141 C 17.6875 43.955287 -0.55225892 9.1490607 7.0078125 9.1210938 z "
         transform="matrix(0.0012283,0,0,-9.504499e-4,1.8290279,0.85570871)"
         id="path3991" /></g><path
       style="fill:#a5ff23;fill-opacity:1;stroke:none;stroke-width:0;stroke-miterlimit:4;stroke-dasharray:none;stroke-opacity:1"
       d="M 22.946351,43.083547 C 21.229872,42.175745 17.558013,38.033468 14.856435,33.957198 11.922022,29.529616 7.7490559,21.288258 6.4430635,17.341292 5.318612,13.94298 5.0155513,10.606203 5.7569468,9.7869705 6.4577548,9.0125864 7.5748726,9.0895907 9.7985341,10.065562 c 2.6027719,1.142364 4.8046479,1.617028 9.2391669,1.991712 4.480435,0.378564 12.325136,0.01065 21.114407,-0.990273 4.819242,-0.548813 5.680293,-0.583568 6.222458,-0.251155 3.239068,1.98594 -6.822563,20.90623 -15.553826,29.248028 -3.495538,3.339617 -5.683194,4.178541 -7.874389,3.019673 z"
       id="path3449"
       inkscape:connector-curvature="0"
       transform="matrix(0.75000002,0,0,-0.75000002,464.92878,697.99676)" /></g></svg>