<?xml version="1.0" encoding="UTF-8" standalone="no"?>
<!-- Created with Inkscape (http://www.inkscape.org/) -->

<svg
   xmlns:dc="http://purl.org/dc/elements/1.1/"
   xmlns:cc="http://creativecommons.org/ns#"
   xmlns:rdf="http://www.w3.org/1999/02/22-rdf-syntax-ns#"
   xmlns:svg="http://www.w3.org/2000/svg"
   xmlns="http://www.w3.org/2000/svg"
   xmlns:sodipodi="http://sodipodi.sourceforge.net/DTD/sodipodi-0.dtd"
   xmlns:inkscape="http://www.inkscape.org/namespaces/inkscape"
   version="1.1"
   id="svg4100"
   xml:space="preserve"
   width="84.733482"
   height="89.112999"
   viewBox="0 0 84.733482 89.112999"
   sodipodi:docname="1.svg"
   inkscape:version="0.92.4 (5da689c313, 2019-01-14)"><metadata
     id="metadata4106"><rdf:RDF><cc:Work
         rdf:about=""><dc:format>image/svg+xml</dc:format><dc:type
           rdf:resource="http://purl.org/dc/dcmitype/StillImage" /><dc:title /></cc:Work></rdf:RDF></metadata><defs
     id="defs4104" /><sodipodi:namedview
     pagecolor="#ffffff"
     bordercolor="#666666"
     borderopacity="1"
     objecttolerance="10"
     gridtolerance="10"
     guidetolerance="10"
     inkscape:pageopacity="0"
     inkscape:pageshadow="2"
     inkscape:window-width="1262"
     inkscape:window-height="796"
     id="namedview4102"
     showgrid="false"
     fit-margin-top="0"
     fit-margin-left="0"
     fit-margin-right="0"
     fit-margin-bottom="0"
     inkscape:zoom="3.5757576"
     inkscape:cx="10.69041"
     inkscape:cy="23.384404"
     inkscape:window-x="0"
     inkscape:window-y="0"
     inkscape:window-maximized="0"
     inkscape:current-layer="g4108" /><g
     id="g4108"
     inkscape:groupmode="layer"
     inkscape:label="Plantos_Test2"
     transform="matrix(1.3333333,0,0,-1.3333333,-4.1325735,828.58379)"><g
       id="g4110"
       transform="matrix(0,-610.6,789.1,0,-871.64082,715.48801)"><path
         style="fill:#000000;stroke-width:0.00051864"
         d="m 0.15403592,1.1607567 c 2.4833e-4,-0.00394 0.0116328,-0.00345 0.00998,-0.00697 -0.005083,-0.00411 0.005425,-0.00591 0.008114,-0.00865 1.1647e-4,-0.00323 -0.0101709,-0.00215 -0.0121749,-0.00553 -0.001168,-0.00549 0.007717,-0.00435 0.0117952,-0.00617 0.004341,-9.877e-4 -0.003495,-0.00168 -0.001886,-0.00413 0.00192,-0.00511 0.0106689,-0.00159 0.0145891,-0.00492 -0.001139,-0.00278 -0.007337,-0.00542 -0.0105402,-0.00347 -0.003413,-7.494e-4 -0.0128073,-0.0033 -0.006429,-0.00629 0.00515,-1.981e-4 0.0102679,0.00287 0.0152624,6.683e-4 0.002729,1.478e-4 0.004509,0.00127 0.007333,-2.388e-4 0.002835,7.079e-4 0.006261,0.00658 0.008768,0.00436 -0.002077,-0.00318 -0.009805,-0.00583 -0.00684,-0.0098 0.004967,-0.00294 0.01029,0.00174 0.0152172,0.00261 0.006219,0.00204 0.0130445,0.00256 0.0193556,0.0043 0.005204,0.00241 0.008951,0.00632 0.0135431,0.00938 0.007535,0.00561 0.0132642,0.01325 0.0133579,0.021516 -4.9843e-4,0.00421 0.003485,0.00729 0.005534,0.010857 0.00274,-0.00116 0.003908,0.00418 0.004044,6.69e-4 4.3012e-4,0.00158 9.7602e-4,0.00481 -0.001857,0.00578 -0.003373,0.00333 -0.006412,0.00675 -0.0110828,0.00912 -0.007382,0.0053 -0.0149787,0.010765 -0.0241927,0.014093 -0.009789,0.00215 -0.0200193,7.676e-4 -0.0297038,-0.00102 -0.004052,-6.76e-5 -0.00882,-9.672e-4 -0.008043,-0.00458 -0.002937,-0.00163 -0.005703,1.13e-4 -0.006065,0.00267 0.001943,-4.623e-4 0.005641,-0.00109 0.003129,0.0013 -0.002769,0.00308 -0.0105266,0.0028 -0.008136,-0.00198 0.002192,-0.00142 0.004062,-0.00485 -6.0916e-4,-0.00395 -0.003581,0.00126 -0.0113837,0.00187 -0.008633,-0.00296 0.001667,-0.00234 0.002291,-0.00437 -0.001481,-0.00542 -0.003176,-0.00291 0.001736,-0.00612 0.004402,-0.00814 0.002618,-0.00173 -0.004551,3.494e-4 -0.005729,-1.625e-4 -0.00334,-6.154e-4 -0.0104564,8.553e-4 -0.0110223,-0.00293 z m 0.009371,-0.00127 c 0.0045,9.062e-4 0.00923,8.5e-4 0.0138568,0.00107 9.7015e-4,0.00362 -0.00309,0.00572 -0.005594,0.00799 9.6408e-4,0.00226 0.007636,-0.00201 0.006977,0.00238 -0.001311,0.00271 -0.008294,0.00862 1.5339e-4,0.00704 0.004993,-0.00116 0.0111564,7.097e-4 0.0147973,-0.00327 0.006882,-0.00323 -0.004274,-0.00652 -0.00105,-0.00995 0.004628,-0.002 0.006072,-0.00526 0.005042,-0.00904 0.00289,-0.00273 0.00928,-0.00344 0.007918,-0.00813 0.003095,-0.00345 -0.004366,-0.00478 -0.002771,-0.00856 -0.001533,-0.00384 -0.002098,-0.00793 -0.003975,-0.011747 4.2262e-4,-0.00257 -0.005124,-0.00577 -0.004676,-0.00125 -0.002133,0.004 -0.008347,0.00168 -0.0123768,0.00322 -0.003832,6.154e-4 0.003947,0.00131 0.003361,0.00317 -3.3597e-4,0.00584 -0.010062,0.00256 -0.0146057,0.00499 -0.005847,0.00157 0.005762,0.00289 0.007525,0.00404 0.005766,0.00106 0.001728,0.00533 -0.001809,0.00543 -0.001587,5.579e-4 -0.007938,0.00436 -0.002642,0.0026 0.003334,-0.00268 0.009031,-0.00152 0.004774,0.00227 -0.004987,0.00114 -0.007885,0.00492 -0.0126157,0.00662 -8.0591e-4,3.26e-4 -0.001649,6.243e-4 -0.002291,0.00114 z m 0.0282797,0.020797 c 0.003737,0.00239 0.009502,0.00231 0.014219,0.00297 0.005987,4.248e-4 0.012071,-6.56e-5 0.0179649,-8.677e-4 0.006343,-0.00198 0.0119883,-0.00524 0.0172245,-0.00861 -0.004821,6.269e-4 -0.0104111,0.00237 -0.0150605,5.812e-4 -0.003125,-8.068e-4 4.2606e-4,-0.00129 0.001753,-0.00188 0.004552,-0.0017 0.009687,-0.00238 0.0147009,-0.00239 0.002431,0.00296 0.00851,-0.00407 0.007102,-0.00481 -0.003107,0.00249 -0.0106405,6.864e-4 -0.0124023,-0.00188 0.001077,-0.00241 0.0109707,1.438e-4 0.00462,-0.00257 -0.004778,-0.00129 0.001468,-0.00395 -0.001355,-0.00499 -0.002477,-0.0017 -0.008152,-0.00446 -0.005939,-0.00707 0.003171,0.00134 0.009902,0.00468 0.00813,0.00771 0.003028,-2.323e-4 0.008013,0.00547 0.005836,3.146e-4 -6.527e-4,-0.00416 -0.00272,-0.00787 -0.006897,-0.010658 -0.007668,-0.0065 -0.0168066,-0.011887 -0.0260629,-0.01696 -0.002886,-0.00145 -0.007243,-0.00377 -0.00606,8.666e-4 -5.6921e-4,0.00342 0.003677,0.0055 0.001469,0.00898 -7.6941e-4,0.00197 0.003255,0.00291 0.004732,0.00398 0.0048,0.00241 -0.003414,0.00528 -0.002631,0.00839 -0.001876,0.00393 -0.011089,0.00316 -0.008721,0.00842 -0.001259,0.00243 -0.004069,0.00405 -0.006274,0.00595 0.001824,0.00204 0.004914,0.00377 0.005104,0.00637 -0.001988,0.0039 -0.005815,0.00738 -0.0113631,0.008 l -9.117e-5,1.318e-4 z m 0.019113,-0.061616 c 0.00224,0.00203 0.002704,-0.00109 0,0 z m 0.004167,0.00564 c 0.002868,0.00385 0.0102894,0.00473 0.0141571,0.00832 0.005792,0.00374 0.0119879,0.00717 0.0167261,0.011762 0.003711,0.00237 -1.5517e-4,-0.00428 -6.1914e-4,-0.00552 -0.001933,-0.00383 -0.006151,-0.00651 -0.00937,-0.00966 -0.003843,-0.00305 -0.008447,-0.00533 -0.0129649,-0.00755 -0.002663,-7.397e-4 -0.007896,-0.00378 -0.007006,4.485e-4 -2.5419e-4,7.483e-4 -7.7135e-4,0.00143 -9.2316e-4,0.0022 z"
         id="path4114"
         inkscape:connector-curvature="0" /></g><path
       style="fill:#a599ff;fill-opacity:1;stroke:none;stroke-width:0;stroke-miterlimit:4;stroke-dasharray:none;stroke-opacity:1"
       d="m 60.30534,76.901053 c 0.688928,-1.129926 0.745974,-3.748235 0.121586,-5.580711 -0.46292,-1.358602 -2.172474,-3.578188 -2.755965,-3.578188 -0.594917,0 -1.045859,1.223509 -1.247369,3.384399 l -0.192941,2.068991 -1.049053,-1.608051 c -1.127512,-1.728316 -1.668813,-1.943526 -2.989492,-1.188559 -1.261302,0.721025 -2.012427,0.508524 -3.076272,-0.870308 -0.538347,-0.697743 -1.709609,-1.951452 -2.602805,-2.786022 -1.388702,-1.297555 -1.781363,-1.517399 -2.71019,-1.517399 -0.597409,0 -1.165055,0.127593 -1.261434,0.283537 -0.248808,0.402581 2.159642,3.927313 3.528649,5.164131 1.382569,1.249067 2.886553,1.924118 3.784653,1.698709 0.506788,-0.127196 0.659284,-0.05099 0.658786,0.329228 -2.79e-4,0.272104 0.582425,1.348713 1.295069,2.392463 0.712643,1.043751 1.222524,1.970917 1.133072,2.060369 -0.258611,0.258611 -4.907621,-0.741219 -6.902071,-1.484379 -0.999788,-0.372536 -2.447034,-1.09987 -3.216102,-1.616301 C 41.112631,72.90414 35.069561,66.930175 31.936352,63.290351 27.536725,58.179342 21.153664,49.531428 20.187517,47.372769 19.401439,45.616437 19.7291,45.250286 22.178169,45.148276 c 1.608414,-0.06699 2.351273,0.06729 4.254609,0.769068 2.356906,0.869019 4.387145,1.082705 5.35672,0.563805 1.049414,-0.561629 1.915418,-0.01178 3.365133,2.136602 1.587874,2.353127 2.44312,3.047015 3.386523,2.747591 0.351531,-0.111572 1.62364,-0.877093 2.826909,-1.701158 1.304768,-0.893577 2.491461,-1.499045 2.940225,-1.500144 1.480154,-0.0036 2.598097,-1.090401 4.313321,-4.193072 1.516138,-2.742541 2.13642,-3.215136 4.227247,-3.220742 2.031441,-0.0054 2.696002,-0.382368 5.519941,-3.130758 l 1.841945,-1.792667 2.073309,1.696709 c 1.140321,0.933191 2.610107,1.902537 3.266192,2.154103 1.189216,0.455986 1.198398,0.454594 2.985731,-0.452608 3.415312,-1.733523 5.222076,-3.81618 6.780473,-7.81586 l 0.26348,-0.67623 0.614589,0.994427 c 1.505329,2.435669 2.735725,10.574648 2.463934,16.29871 -0.360631,7.595026 -1.133869,10.227406 -4.545048,15.472957 -1.655177,2.545248 -5.134991,7.139622 -5.290113,6.984497 -0.04981,-0.04981 0.151962,-1.095988 0.448372,-2.324853 1.068051,-4.427945 0.959554,-8.282261 -0.287256,-10.204634 -0.426813,-0.658077 -0.92454,0.04988 -2.06787,2.941287 -1.259702,3.185722 -1.812173,5.505001 -2.039294,8.561 -0.145004,1.951102 -0.09525,2.533385 0.259797,3.040284 0.534035,0.762437 0.254044,1.699819 -0.867385,2.903919 -1.04909,1.126433 -3.114199,2.409442 -3.878188,2.409442 h -0.64029 z"
       id="path4039"
       inkscape:connector-curvature="0"
       transform="matrix(0.75000002,0,0,-0.75000002,3.0994302,621.43786)" /><path
       style="fill:#a599ff;fill-opacity:1;stroke:none;stroke-width:0;stroke-miterlimit:4;stroke-dasharray:none;stroke-opacity:1"
       d="M 34.417376,75.078856 C 32.716487,74.504475 30.598083,73.594061 29.709811,73.055714 27.510951,71.723068 21.157295,66.117828 19.318062,63.888039 16.323268,60.257312 13.08331,54.963431 12.213751,52.28006 c -0.429064,-1.324049 -0.06253,-1.876889 1.244386,-1.876889 0.500175,0 1.450792,-0.191011 2.112481,-0.424468 l 1.203072,-0.424469 1.418953,1.477322 c 0.780425,0.812528 2.215762,2.892336 3.189639,4.621798 0.973877,1.729461 2.365048,3.804088 3.091493,4.610282 0.726444,0.806193 2.847061,3.309419 4.712483,5.562723 1.865421,2.253305 4.675683,5.352531 6.245026,6.88717 1.672116,1.635139 2.772987,2.920285 2.659226,3.104354 -0.262484,0.424708 -0.174737,0.442363 -3.673134,-0.739027 z"
       id="path4041"
       inkscape:connector-curvature="0"
       transform="matrix(0.75000002,0,0,-0.75000002,3.0994302,621.43786)" /><path
       style="fill:#f099ff;fill-opacity:1;stroke:none;stroke-width:0;stroke-miterlimit:4;stroke-dasharray:none;stroke-opacity:1"
       d="m 36.560891,41.054361 c -1.89271,-1.259582 -2.561628,-1.55797 -3.492635,-1.55797 -1.212795,0 -8.644824,-1.621256 -11.499032,-2.50845 -0.922881,-0.286865 -2.127548,-0.596413 -2.677038,-0.687885 -1.335861,-0.222372 -2.833805,-1.680676 -2.720485,-2.64849 0.07242,-0.618476 0.286814,-0.761932 1.559038,-1.043171 2.58817,-0.572143 3.100075,-1.440946 3.419498,-5.803545 0.212924,-2.908078 0.653976,-4.928148 1.075582,-4.926305 0.100313,4.47e-4 0.55993,0.724061 1.021371,1.60805 0.790197,1.513794 0.904031,1.611684 1.957627,1.683435 1.424462,0.09701 2.684096,-0.657519 3.314104,-1.985162 0.294638,-0.620902 0.568962,-2.263994 0.728172,-4.361454 0.204012,-2.687696 0.407627,-3.704363 1.0113,-5.049527 0.415722,-0.926352 0.861618,-1.684275 0.990881,-1.684275 0.443038,0 1.095808,1.31486 2.030125,4.089241 1.494823,4.438755 2.270844,5.700185 3.504779,5.697052 1.451875,-0.0037 2.795299,-1.293452 3.537036,-3.395759 0.438335,-1.242375 2.523129,-4.153246 2.974594,-4.153246 0.38187,0 0.0058,1.006719 -0.923394,2.471917 -0.950474,1.498742 -1.073856,3.073161 -0.296,3.777112 1.188327,1.07542 2.803409,0.163072 4.131357,-2.333775 0.531736,-0.999788 1.968067,-3.013348 3.191844,-4.474576 1.22378,-1.461229 2.612948,-3.382559 3.087046,-4.2696219 0.474099,-0.887063 0.960902,-1.5517146 1.081785,-1.4770036 0.280676,0.1734673 0.7858,4.1778375 1.015933,8.0538285 l 0.178499,3.006356 1.021817,-0.0061 c 1.545049,-0.0093 3.272585,-0.930862 5.526709,-2.948295 1.914145,-1.71315 2.053733,-1.788087 2.338738,-1.255552 0.220236,0.411515 0.209477,1.074414 -0.03935,2.424867 -0.332279,1.803338 -0.323282,1.874048 0.30296,2.381147 0.354973,0.28744 0.851699,0.522331 1.10383,0.52198 0.252134,-3.64e-4 1.575381,-0.627153 2.940552,-1.392892 4.351861,-2.441012 5.208552,-2.526506 5.208552,-0.519793 0,0.649276 -0.12085,1.880238 -0.268556,2.735472 -0.147703,0.855233 -0.382903,2.944461 -0.522664,4.642729 -0.296692,3.60517 -0.652723,4.454154 -2.80354,6.685294 -2.002862,2.07766 -2.74124,2.097108 -5.616656,0.147937 -3.21352,-2.178363 -4.026864,-2.178222 -5.666422,9.79e-4 -0.518279,0.688865 -1.557009,1.632721 -2.308291,2.097458 -1.208342,0.74747 -1.659027,0.856126 -3.905597,0.941596 -2.94796,0.112156 -2.920277,0.09499 -5.04593,3.128527 -1.814446,2.589406 -2.517419,3.075605 -4.882353,3.376778 -1.012088,0.12889 -2.156183,0.309666 -2.542432,0.401722 -0.545675,0.130053 -1.224299,-0.180029 -3.04335,-1.390592 z"
       id="path4043"
       inkscape:connector-curvature="0"
       transform="matrix(0.75000002,0,0,-0.75000002,3.0994302,621.43786)" /></g></svg>