<?xml version="1.0" encoding="UTF-8" standalone="no"?>
<!-- Created with Inkscape (http://www.inkscape.org/) -->

<svg
   xmlns:dc="http://purl.org/dc/elements/1.1/"
   xmlns:cc="http://creativecommons.org/ns#"
   xmlns:rdf="http://www.w3.org/1999/02/22-rdf-syntax-ns#"
   xmlns:svg="http://www.w3.org/2000/svg"
   xmlns="http://www.w3.org/2000/svg"
   xmlns:sodipodi="http://sodipodi.sourceforge.net/DTD/sodipodi-0.dtd"
   xmlns:inkscape="http://www.inkscape.org/namespaces/inkscape"
   version="1.1"
   id="svg4100"
   xml:space="preserve"
   width="150.33337"
   height="90.333984"
   viewBox="0 0 150.33337 90.333985"
   sodipodi:docname="2.svg"
   inkscape:version="0.92.4 (5da689c313, 2019-01-14)"><metadata
     id="metadata4106"><rdf:RDF><cc:Work
         rdf:about=""><dc:format>image/svg+xml</dc:format><dc:type
           rdf:resource="http://purl.org/dc/dcmitype/StillImage" /><dc:title /></cc:Work></rdf:RDF></metadata><defs
     id="defs4104" /><sodipodi:namedview
     pagecolor="#ffffff"
     bordercolor="#666666"
     borderopacity="1"
     objecttolerance="10"
     gridtolerance="10"
     guidetolerance="10"
     inkscape:pageopacity="0"
     inkscape:pageshadow="2"
     inkscape:window-width="1262"
     inkscape:window-height="796"
     id="namedview4102"
     showgrid="false"
     fit-margin-top="0"
     fit-margin-left="0"
     fit-margin-right="0"
     fit-margin-bottom="0"
     inkscape:zoom="3.5757575"
     inkscape:cx="88.070775"
     inkscape:cy="21.306371"
     inkscape:window-x="0"
     inkscape:window-y="0"
     inkscape:window-maximized="0"
     inkscape:current-layer="g4108" /><g
     id="g4108"
     inkscape:groupmode="layer"
     inkscape:label="Plantos_Test2"
     transform="matrix(1.3333333,0,0,-1.3333333,-332.64885,769.84971)"><g
       id="g4110"
       transform="matrix(0,-610.6,789.1,0,-88.55,701.25)"><path
         style="fill:#000000;stroke-width:0.00051864"
         d="m 0.20285408,0.45945097 c 0.004564,-0.004714 0.010717,-0.008216 0.0166396,-0.0118212 -0.005523,3.2754e-4 -0.009728,-0.005824 -0.002071,-0.005813 0.002963,-4.3683e-4 0.0151382,0.002834 0.007741,-0.001171 -0.00356,-0.004361 -0.0105717,-0.006671 -0.0152565,-0.009996 -0.003608,-0.004347 0.005356,-3.5167e-4 0.007662,6.2399e-4 0.004239,-0.001434 0.008366,0.004239 0.009338,-0.001027 0.006833,0.002307 0.0147949,0.004719 0.0226977,0.005836 0.007893,0.001574 0.0164301,0.003069 0.0220027,0.008059 0.006293,0.003978 0.0113313,0.009049 0.0136842,0.015129 0.001584,0.003332 0.005341,0.003428 0.005651,0.007377 0.00178,0.003196 9.9708e-4,0.006883 0.004657,0.009407 0.002031,0.007698 0.009784,0.0132393 0.0149587,0.0196428 0.002439,0.001095 0.001677,0.004244 0.002721,0.006234 0.001388,0.004638 -0.009153,0.005284 -0.0115581,0.009223 -0.0138749,0.0100287 -0.0224807,0.0233852 -0.0300368,0.0366379 -0.004293,0.005373 -0.0116419,0.007713 -0.0167329,0.0123744 -0.00595,0.003699 -0.0106317,0.008898 -0.0180513,0.0110517 -0.008386,-3.6357e-4 -0.004634,-0.009407 0.002253,-0.009495 0.007754,-0.004118 0.0136269,-0.0100607 0.0199357,-0.0153991 0.003809,-0.002263 -1.8325e-4,-0.004437 0.002818,-0.00682 -0.002826,-0.004682 0.0120122,-0.007676 0.009874,-0.009641 -0.004557,0.003555 -0.011355,-0.001369 -0.004535,-0.003792 0.002781,-0.001893 0.008756,-0.004611 0.002045,-0.004152 -0.004224,-0.004173 0.0157333,-0.00904 0.004614,-0.00723 -0.009871,0.001266 -1.6873e-4,-0.006382 0.004456,-0.006476 0.00347,-0.001043 0.008673,-0.002124 0.002256,-0.001723 -0.008762,9.7874e-4 -0.00397,-0.005459 0.002106,-0.004534 0.007947,-0.001646 -0.0131482,-0.002941 -0.003926,-0.007249 0.003216,-3.1068e-4 0.009093,-4.376e-5 0.002608,-0.001595 -0.0055,3.6714e-4 -0.009899,-0.006156 -0.001855,-0.005435 0.001718,-3.4199e-4 0.011685,0.001414 0.006155,-3.4266e-4 -0.004707,-0.002654 -0.0135702,-0.002645 -0.0154436,-0.007055 0.001253,-0.004025 0.013885,0.001848 0.0125421,-3.3741e-4 -0.005961,-0.003064 -0.013776,-0.005132 -0.0174554,-0.0100768 0.00193,-0.005093 0.0134553,0.002354 0.0137855,7.4852e-4 -0.003611,-0.003082 -0.0173873,-0.006399 -0.011686,-0.01104 0.003719,-4.8801e-4 0.0150087,0.00726 0.009022,0.001107 -0.004806,-0.004899 -0.012183,-0.007338 -0.0181124,-0.0110252 0.002708,-0.003742 0.0136016,0.005675 0.0130615,0.003067 -0.004352,-0.003551 -0.0109056,-0.006982 -0.0158349,-0.006675 -0.002277,-0.002499 -0.008572,-0.001184 -0.0102087,-0.005285 5.1262e-4,0.007476 -0.009006,4.4262e-4 -0.0129175,-0.001386 -0.006316,-0.001047 0.004721,0.003752 0.006317,0.004628 0.002725,0.001667 0.0135783,0.005944 0.006664,0.007681 -0.008039,-0.002126 0.004481,0.002732 0.006613,0.003739 0.003075,2.6772e-4 0.0115179,0.00707 0.004192,0.005164 -0.007323,-0.003366 -0.0145741,-0.006939 -0.0224351,-0.009501 0.002216,0.002243 0.006511,0.006741 -4.3903e-4,0.00824 0.004655,8.8423e-4 0.008982,0.005794 0.00308,0.007919 0.005563,0.001488 0.005613,0.00821 0.006761,0.0121554 4.121e-4,0.004752 -0.0119358,0.008551 -0.00604,0.002432 -0.006208,5.1298e-4 -0.002865,-0.009312 2.7015e-4,-0.010236 -0.002802,-0.002228 -0.0142639,-9.4419e-4 -0.008556,-0.005725 0.002879,-7.7379e-4 0.009139,-0.002219 0.002533,-0.003209 -0.006435,-0.001336 -0.0128372,-0.002483 -0.0180459,0.00168 -0.00439,0.001791 -0.004677,0.004629 0.001043,0.004085 0.005859,-0.001498 0.0134981,0.00367 0.005381,0.00624 -0.007369,0.001135 -0.009449,0.008834 5.981e-5,0.007653 0.0102106,-0.001144 0.007216,0.007056 -1.8432e-4,0.008089 -0.003006,0.00168 -0.006983,0.005466 -8.3212e-4,0.003923 0.009054,-0.001867 0.006351,0.006467 9.283e-4,0.008506 -0.005701,0.003204 -0.004628,0.008482 0.002945,0.006053 0.003322,0.00507 -0.009564,0.007528 -0.009687,0.0131884 -0.00158,0.001936 -0.002301,0.0124273 0.001244,0.006126 7.5404e-4,-0.004005 0.007126,-0.005345 0.005183,-2.0341e-4 -0.002295,0.003368 0.009088,-0.001487 0.0061,0.004345 -0.002824,0.002932 -0.00465,0.006691 0.001975,0.007084 0.006457,0.003962 -0.004577,0.008146 -0.008115,0.0110328 0.003016,0.001365 0.0139191,-0.005973 0.0151916,2.1521e-4 -0.001622,0.002731 -0.005745,0.004424 2.2757e-4,0.003223 0.002389,-7.1961e-4 0.006454,-0.006749 0.0086,-0.002441 -0.004394,0.00247 -0.004991,0.0111502 -0.00874,0.0130669 -3.5712e-4,-0.005545 -0.00457,7.677e-5 -0.008949,-0.001062 -0.007058,4.7309e-4 3.937e-4,-0.007578 -0.008023,-0.007312 -0.006892,-2.5516e-4 -0.003793,-0.005375 -0.002487,-0.007089 -0.010116,4.3271e-4 -0.00173,-0.0101344 -5.3433e-4,-0.0131727 -0.007757,-2.0206e-4 -0.006927,-0.009181 -0.004936,-0.0133229 -5.381e-5,-0.003615 0.006844,-0.008187 0.00545,-0.0102562 -0.00806,-0.002947 6.7699e-4,-0.0101818 0.004283,-0.0136169 6.6341e-4,-0.002534 -0.0120719,-1.0707e-4 -0.00734,-0.005925 0.001174,-0.003846 0.0146248,-0.007479 0.003791,-0.008073 -0.009819,-7.0101e-4 -0.007038,-0.00907 -5.6414e-4,-0.0118044 0.001294,-0.002391 -0.0150346,-4.6808e-4 -0.009222,-0.006943 0.00217,-0.002136 0.007379,-0.005077 6.3374e-4,-0.004336 -0.001606,-3.4875e-4 -0.002697,-0.001378 -0.003939,-0.002165 z m 0.006463,-0.001103 c 0.003832,0.001105 0.0100243,-1.6647e-4 0.0128924,9.653e-5 0.002498,-0.001719 0.0160298,-0.001961 0.006646,-0.003812 -0.006164,-0.001118 -0.0112559,-0.004788 -0.0159443,6.3709e-4 -0.001244,9.5656e-4 -0.002859,0.001809 -0.003594,0.003078 z m 0.00362,0.086942 c 0.001661,0.003515 0.0105162,-0.002873 0.0115429,-0.003196 -0.005437,6.8261e-4 -0.006491,-0.008028 -0.009235,-0.002185 -0.00103,0.001707 -0.002029,0.003492 -0.002308,0.005381 z m 0.006698,0.008482 c 0.003527,0.001192 0.0124729,-0.002923 0.004479,-9.4287e-4 -0.001487,3.3137e-4 -0.002986,6.2937e-4 -0.004479,9.4287e-4 z m 0.009251,-0.0378955 c -0.001206,-0.004107 0.0108129,-0.008283 0.001403,-0.008838 -0.002637,-0.002655 0.004172,-0.007683 0.006125,-0.005626 -0.001495,0.002914 0.002577,0.009603 -0.00264,0.0112951 -0.004674,0.005326 0.0133284,0.003492 0.010316,0.0104165 -0.003257,0.002903 -0.0123189,0.0108462 -0.001509,0.01 7.8709e-4,0.003919 -1.1875e-4,0.0184792 -0.00532,0.0204041 2.5201e-4,-0.003569 0.005442,-0.0181177 -0.002517,-0.0182506 -0.005763,-0.005629 0.009837,-0.0108844 0.003351,-0.0147906 -0.002813,-0.002113 -0.008975,-4.9458e-4 -0.009209,-0.00461 z m 0.002841,-0.0305127 c 0.004325,-0.003204 0.0129253,0.001673 0.0170155,0.004835 5.5634e-4,0.004583 -0.009291,0.003421 -0.00619,0.008372 -0.002523,0.002702 -0.0128795,0.006203 -0.006234,6.1241e-4 0.003471,-0.002141 -0.00805,-0.001487 -0.003083,-0.005026 0.003182,-1.6442e-4 0.0162119,-0.003476 0.006846,-0.003711 -0.003158,-0.001271 -0.0072,-0.001656 -0.008354,-0.005082 z m -2.4007e-4,-0.0404499 c 0.001402,0.00221 0.0129187,0.005456 0.005611,0.001395 -0.001585,-3.9244e-4 -0.004333,-0.003536 -0.005611,-0.001395 z"
         id="path4114"
         inkscape:connector-curvature="0"
         sodipodi:nodetypes="ccccccccccccccccccccccccccccccccccccccccccccccccccccccccccccccccccccccccccccccccccccccccccccccccccccccccccccccccccccccc" /></g><path
       style="fill:#a599ff;fill-opacity:1;stroke:none;stroke-width:0;stroke-miterlimit:4;stroke-dasharray:none;stroke-opacity:1"
       d="m 61.26731,65.902048 c -0.657844,-1.359533 -1.41847,-3.183779 -1.69029,-4.05388 -1.171345,-3.749562 -3.434838,-6.921257 -4.939384,-6.921257 -0.882243,0 -1.545391,1.237557 -1.484282,2.769952 0.05034,1.262357 0.89571,4.794488 1.585178,6.623183 0.102513,0.271906 -0.0028,0.494375 -0.233978,0.494375 -0.231202,0 -1.16147,-1.29032 -2.067257,-2.867377 -2.988655,-5.203511 -4.762065,-7.752844 -6.521065,-9.374233 -1.890996,-1.743059 -2.556409,-1.928945 -3.505951,-0.979403 -0.98696,0.98696 -0.731,3.154063 0.777865,6.585842 0.769651,1.750503 1.33415,3.37838 1.254442,3.617504 -0.07971,0.239125 -1.554805,-1.698198 -3.277993,-4.305161 -3.535261,-5.348401 -5.154499,-6.681642 -7.060315,-5.813295 -1.694152,0.771908 -1.650485,1.50957 0.317665,5.366209 1.015266,1.989438 1.842313,3.756904 1.837883,3.927701 -0.01517,0.584846 -1.787915,-0.641635 -4.061532,-2.809985 -1.25055,-1.192649 -3.894226,-4.544199 -5.874836,-7.447888 -1.980609,-2.903688 -3.828771,-5.279434 -4.107026,-5.279434 -1.52653,0 -0.754095,2.999503 1.704942,6.620595 1.879163,2.767191 2.307033,3.662416 1.75044,3.662416 -0.639425,0 -4.715812,-5.385089 -5.756216,-7.604217 -0.537776,-1.147049 -1.102063,-2.841005 -1.253972,-3.764347 -0.151909,-0.923343 -0.42482,-1.770658 -0.60647,-1.882923 -0.181649,-0.112266 -0.716575,-1.364962 -1.188724,-2.78377 -0.472149,-1.418809 -1.28781,-3.089914 -1.812579,-3.713567 l -0.954127,-1.133915 1.188513,-0.414318 c 2.012512,-0.701565 1.671177,-2.429227 -1.382239,-6.996177 -1.413914,-2.114771 -2.570753,-4.014728 -2.570753,-4.222127 0,-1.098766 1.363595,0.487402 4.746005,5.520673 2.06649,3.075086 4.188722,6.046489 4.716071,6.603117 1.742512,1.839256 3.919237,0.980169 3.450816,-1.361933 -0.130407,-0.652035 -0.163903,-1.18552 -0.07443,-1.18552 0.159376,0 3.229177,5.45999 4.7331,8.418356 0.873081,1.717437 3.87201,4.633158 4.765379,4.633158 1.224376,0 0.52163,-1.821164 -3.109925,-8.059361 -3.891539,-6.684792 -6.175498,-11.0154 -6.175498,-11.709343 0,-0.226457 0.71704,0.04091 1.593424,0.594145 2.157023,1.361669 3.700504,1.627284 4.897716,0.84284 0.529856,-0.347175 1.080094,-0.998975 1.22275,-1.448444 0.236119,-0.743946 0.360413,-0.677736 1.386305,0.738466 0.619811,0.855626 1.535055,1.841544 2.033875,2.190931 1.347128,0.943565 3.362493,0.808156 4.471053,-0.300404 l 0.935653,-0.935653 0.793037,1.07264 c 1.079895,1.460635 3.053187,2.323697 7.331743,3.206694 5.639939,1.163955 6.363076,1.075953 8.469745,-1.030715 0.98268,-0.98268 1.821872,-1.739074 1.864871,-1.680877 0.043,0.0582 0.59488,1.074097 1.226399,2.257554 0.63152,1.183457 1.969671,3.047172 2.973677,4.141588 1.708629,1.862501 1.891315,1.959842 2.854504,1.520983 0.565977,-0.257877 1.556832,-1.231715 2.201901,-2.164087 2.064386,-2.98383 2.347157,-3.192372 4.02377,-2.967491 1.352157,0.181362 1.623822,0.06661 2.466218,-1.04171 0.520672,-0.685037 1.247448,-1.829477 1.615062,-2.5432 l 0.668387,-1.297677 4.495147,0.08176 c 3.660147,0.06657 4.685608,-0.04303 5.520486,-0.590068 0.56394,-0.369506 1.025343,-0.850107 1.025343,-1.068001 0,-0.561867 1.84525,-1.193519 2.619122,-0.896557 0.356666,0.136866 1.40744,1.884059 2.33505,3.882649 1.727384,3.721753 3.156683,5.338323 4.719914,5.338323 0.476523,0 2.172081,-0.989185 3.767911,-2.198189 2.95295,-2.237161 4.26467,-3.027723 5.81841,-3.506694 1.25,-0.385337 2.49211,0.979644 2.49211,2.73863 v 1.384251 l 4.84488,-0.0138 c 4.28539,-0.0122 8.50072,-0.499621 11.86501,-1.371945 0.92745,-0.240477 1.08763,-0.16125 1.08763,0.537952 0,1.146431 1.33677,1.817568 2.00839,1.008324 0.2802,-0.337615 1.19759,-0.96491 2.03865,-1.393988 1.39754,-0.712969 7.85287,-3.117048 8.36978,-3.117048 0.12079,0 0.0388,0.475643 -0.18225,1.056984 -0.79395,2.088247 -4.63425,6.287858 -10.99646,12.025318 l -6.47415,5.838408 -2.42461,0.191336 c -6.15291,0.48555 -6.94563,0.94017 -10.42011,5.975895 -2.03641,2.951458 -3.46218,4.077649 -2.28819,1.807402 1.11846,-2.162873 -0.0809,-4.747321 -2.20312,-4.747321 -0.8977,0 -1.50953,0.54642 -3.43208,3.065129 -1.2868,1.68582 -2.591859,3.065128 -2.900132,3.065128 -0.343262,0 -0.608528,-0.498172 -0.684429,-1.285377 -0.107489,-1.114831 -0.270957,-1.285376 -1.232039,-1.285376 -1.473781,0 -2.748791,1.063272 -4.60001,3.836097 -0.842404,1.261788 -1.667453,2.459516 -1.833445,2.661618 -0.165988,0.202103 -0.191193,-0.816983 -0.05601,-2.264635 0.392661,-4.204901 -0.620113,-4.689593 -3.681808,-1.762034 -1.661564,1.58877 -2.100028,2.40703 -3.76217,7.020964 l -0.9261,2.570752 -0.118824,-2.752014 c -0.171683,-3.976245 -1.031307,-4.68663 -3.250424,-2.686116 -0.835297,0.753011 -1.270972,1.574338 -1.416113,2.669628 -0.569959,4.301173 -0.911957,4.355598 -2.700987,0.429829 -1.612392,-3.53816 -2.496651,-4.183207 -3.97958,-2.903009 -0.812829,0.701709 -1.08186,1.374669 -1.2654,3.165305 -0.128205,1.25077 -0.373558,2.274128 -0.545229,2.274128 -0.171667,0 -0.523306,-1.017247 -0.781414,-2.26055 -0.548705,-2.643095 -2.409827,-4.858458 -4.081584,-4.858458 -1.615983,0 -1.976794,1.18657 -1.70707,5.613887 0.129945,2.13297 0.179153,3.878123 0.109352,3.878123 -0.0698,0 -0.665145,-1.112345 -1.322989,-2.471877 z"
       id="path4643"
       inkscape:connector-curvature="0"
       transform="matrix(0.75000002,0,0,-0.75000002,249.48664,577.3873)" /><path
       style="fill:#e699ff;fill-opacity:1;stroke:none;stroke-width:0;stroke-miterlimit:4;stroke-dasharray:none;stroke-opacity:1"
       d="M 31.349609 5.6777344 C 30.263867 5.860048 26.05898 10.145574 25.546875 11.697266 C 25.073617 13.131254 25.048139 12.997362 27.050781 19.232422 C 27.836786 21.679581 28.621224 23.681641 28.794922 23.681641 C 28.968619 23.681641 29.391769 22.658973 29.736328 21.408203 C 30.080887 20.157433 30.631065 18.270877 30.957031 17.214844 C 31.771382 14.576589 32.187662 6.1077783 31.523438 5.6972656 C 31.480796 5.6709119 31.421992 5.6655801 31.349609 5.6777344 z M 40.886719 5.9472656 C 40.166543 5.9610309 39.148566 6.7606081 37.929688 8.375 C 35.46038 11.645575 34.951934 12.900599 34.933594 15.765625 C 34.917913 18.214828 35.935945 23.45194 36.728516 24.994141 C 37.249992 26.008839 37.90331 25.343815 38.78125 22.902344 C 39.308101 21.437221 39.836839 20.715886 40.722656 20.257812 C 41.87846 19.660122 41.97283 19.671968 42.613281 20.462891 C 42.98432 20.921105 43.507587 22.233069 43.775391 23.378906 C 44.043195 24.524744 44.508517 26.068872 44.810547 26.810547 L 45.361328 28.158203 L 46.244141 27.353516 C 47.526381 26.185879 48.466695 25.775794 50.84375 25.34375 C 53.512827 24.85863 55.510307 25.356634 56.101562 26.654297 C 56.50413 27.537836 56.602962 27.564214 57.599609 27.048828 C 58.24064 26.717338 58.818166 25.97525 59.042969 25.191406 C 59.822111 22.474697 62.217611 23.692098 64.189453 27.806641 C 64.920931 29.332979 65.519531 31.075357 65.519531 31.679688 C 65.519531 33.623562 66.571542 32.900982 67.644531 30.220703 C 68.207805 28.813671 68.784282 26.937618 68.925781 26.052734 C 69.188723 24.40838 70.216531 23.427344 71.255859 23.826172 C 71.549252 23.938757 72.147221 24.842193 72.585938 25.833984 C 73.024654 26.825775 73.527749 27.635766 73.703125 27.634766 C 74.130507 27.632234 76.624487 25.208698 77.458984 23.984375 C 77.826353 23.445397 78.782779 22.692697 79.583984 22.3125 C 81.450038 21.426999 82.70603 21.914911 83.054688 23.658203 C 83.441539 25.592459 84.27747 25.558454 86.892578 23.503906 C 91.683413 19.740015 94.475758 20.384191 95.625 25.519531 C 95.931327 26.888349 96.531365 28.153676 97.234375 28.90625 C 98.735944 30.513687 99.943466 30.250884 104.20117 27.390625 C 108.86844 24.255228 111.68182 24.087822 112.6582 26.888672 C 112.88769 27.546974 113.60628 28.339765 114.30664 28.705078 C 116.98842 30.103905 128.65916 29.160313 130.7832 27.373047 C 131.80878 26.510079 132.71181 24.2997 132.23438 23.822266 C 132.12514 23.713037 131.29614 24.160459 130.39062 24.816406 C 128.7056 26.037031 128.02217 26.061398 126.72266 24.945312 C 125.71135 24.076748 125.86533 22.203739 127.24609 18.587891 C 127.9148 16.836732 128.40448 15.003265 128.33398 14.513672 C 128.2238 13.74864 127.91531 13.990531 126.13867 16.226562 C 123.13994 20.000687 121.13152 21.705078 119.68359 21.705078 C 118.32503 21.705078 116.53906 20.193154 116.53906 19.042969 C 116.53906 18.646431 116.24672 17.904866 115.89062 17.396484 C 115.3385 16.608218 114.99544 16.501668 113.55469 16.664062 C 112.62549 16.768797 111.32992 17.235385 110.67578 17.701172 C 109.10761 18.817807 107.33175 19.163461 106.75195 18.464844 C 106.50526 18.167592 106.24709 16.94956 106.17969 15.759766 L 106.05664 13.597656 L 104.05469 13.726562 C 101.54959 13.887527 100.76587 13.215079 101.57617 11.601562 C 102.10172 10.555053 102.77603 10.099972 105.5625 8.90625 C 108.14815 7.7985615 107.42361 7.3531941 103.38867 7.5703125 C 97.555942 7.8841692 96.040765 8.5409444 92.269531 12.396484 C 88.731613 16.013493 87.917219 16.5625 86.097656 16.5625 L 84.871094 16.5625 L 85.126953 14.640625 C 85.489156 11.910206 84.922885 11.025391 82.814453 11.025391 C 81.273267 11.025391 80.967304 11.222935 78.576172 13.753906 C 75.707038 16.790839 74.144576 17.75 72.064453 17.75 C 69.893739 17.75 68.915853 16.542166 69.224609 14.240234 C 69.359563 13.234081 69.515032 12.061482 69.570312 11.634766 C 69.629019 11.181606 69.404706 10.804173 69.03125 10.726562 C 68.001407 10.512549 65.921984 12.570956 64.953125 14.761719 C 63.038871 19.090187 58.773784 20.66692 57.15625 17.644531 C 56.885661 17.138929 56.718179 15.458872 56.761719 13.689453 C 56.830578 10.890875 56.749914 10.527258 55.857422 9.6347656 C 53.844223 7.6215672 51.004246 8.9777793 49.105469 12.859375 C 47.592284 15.952721 47.057997 16.5625 45.867188 16.5625 C 43.214861 16.5625 41.574892 13.66929 41.986328 9.7167969 C 42.247415 7.2086511 41.812659 5.9295674 40.886719 5.9472656 z "
       transform="matrix(0.75000002,0,0,-0.75000002,249.48664,577.3873)"
       id="path4645" /></g></svg>