<?xml version="1.0" encoding="UTF-8" standalone="no"?>
<!-- Created with Inkscape (http://www.inkscape.org/) -->

<svg
   xmlns:dc="http://purl.org/dc/elements/1.1/"
   xmlns:cc="http://creativecommons.org/ns#"
   xmlns:rdf="http://www.w3.org/1999/02/22-rdf-syntax-ns#"
   xmlns:svg="http://www.w3.org/2000/svg"
   xmlns="http://www.w3.org/2000/svg"
   xmlns:sodipodi="http://sodipodi.sourceforge.net/DTD/sodipodi-0.dtd"
   xmlns:inkscape="http://www.inkscape.org/namespaces/inkscape"
   version="1.1"
   id="svg2195"
   xml:space="preserve"
   width="179.30992"
   height="133.38905"
   viewBox="0 0 179.30992 133.38905"
   sodipodi:docname="2.svg"
   inkscape:version="0.92.4 (5da689c313, 2019-01-14)"><metadata
     id="metadata2201"><rdf:RDF><cc:Work
         rdf:about=""><dc:format>image/svg+xml</dc:format><dc:type
           rdf:resource="http://purl.org/dc/dcmitype/StillImage" /><dc:title /></cc:Work></rdf:RDF></metadata><defs
     id="defs2199" /><sodipodi:namedview
     pagecolor="#ffffff"
     bordercolor="#666666"
     borderopacity="1"
     objecttolerance="10"
     gridtolerance="10"
     guidetolerance="10"
     inkscape:pageopacity="0"
     inkscape:pageshadow="2"
     inkscape:window-width="1226"
     inkscape:window-height="776"
     id="namedview2197"
     showgrid="false"
     fit-margin-top="0"
     fit-margin-left="0"
     fit-margin-right="0"
     fit-margin-bottom="0"
     inkscape:zoom="2.5284424"
     inkscape:cx="42.585462"
     inkscape:cy="28.172532"
     inkscape:window-x="0"
     inkscape:window-y="0"
     inkscape:window-maximized="0"
     inkscape:current-layer="g2203" /><g
     id="g2203"
     inkscape:groupmode="layer"
     inkscape:label="Plantos_Test1_with names"
     transform="matrix(1.3333333,0,0,-1.3333333,-277.59033,960.67187)"><g
       id="g2205"
       transform="matrix(610.6,0,0,789.1,-589.94408,18.179661)"><path
         style="fill:#000000;stroke-width:0.48000872"
         d="M 104.10742,-0.00195313 104.10938,0 c -6.936421,3.8224003 6.88647,1.9713171 9.09765,6.1503906 C 114.72132,10.394696 108.26525,1.64399 105.17969,3.609375 97.999032,3.060961 90.510129,2.5866112 83.615234,3.09375 77.558083,3.8690144 75.150149,14.631796 69.34375,9.6738281 62.277073,11.709706 52.983975,13.676712 49.966797,21.255859 c -0.62444,4.116998 0.286844,7.280683 -4.0625,4.746094 -7.481885,-2.292598 -15.445881,0.113382 -22.849609,1.548828 -7.742408,3.717187 -12.62497,11.439769 -17.5000005,18.208985 -3.2483919,5.374297 -7.1640299,11.534744 -4.84375,18.214843 0.9851013,7.470147 9.1890904,9.148021 15.2812505,10.857422 5.56053,0.578674 9.016507,0.491245 3.646484,5.564453 C 16.5124,84.262022 7.6943885,90.467466 8.3652344,93.324219 6.5415758,94.876115 4.3351714,104.51137 5.4179688,109.8418 c -0.7596678,7.73002 7.0018332,10.02209 12.4980472,12.73828 5.389562,1.29938 13.560244,3.83203 18.703125,-0.6211 5.120898,-3.34894 9.068294,-7.99011 13.228515,-12.41601 0.224701,4.92503 0.624645,11.08603 4.298828,14.58984 l 9.771485,4.16992 c 4.062525,1.15946 11.0455,5.23511 16.824219,4.92579 2.556378,-0.37274 6.579232,1.17161 7.857421,-1.03907 4.437027,0.0715 2.816885,0.83537 3.240235,1.1836 6.806154,-2.48093 15.030306,-1.28845 21.359376,-5.52539 5.19417,0.62776 9.80624,-8.02191 11.99219,-13.77539 2.30399,-5.48688 1.93724,-11.61261 0.97656,-17.355473 5.78849,6.612653 13.63608,11.420553 21.99805,13.974613 6.94455,-0.25505 14.14272,0.80336 20.18359,-3.02735 5.65823,-2.42516 12.34408,-6.92069 10.32422,-12.359372 -2.23073,-2.008523 -11.54977,7.173322 -13.23828,4.501953 3.82642,-4.908202 13.29014,-7.798948 10.24609,-16.080079 -1.98648,-6.989321 -16.242,-12.747991 -5.50195,-18.208984 7.24578,-10.403494 3.71942,-26.063607 -6.74219,-32.878906 -1.96504,-1.157457 -4.07378,-1.995586 -6.25586,-2.894531 0.96104,0.786857 -1.63873,0.448987 -0.88086,-0.365235 -1.05129,-0.441479 -2.11352,-0.903618 -3.19336,-1.445312 -6.32581,-3.212163 -13.26446,-4.128041 -20.13086,-2.291016 -0.58056,-7.348099 -5.4381,-17.3572253 -14.36914,-14.86914 0.21078,-8.3244792 -7.86481,-10.77581198 -14.5,-10.77539113 z M 156.30078,29.378906 c 0.29636,0.124454 0.58735,0.244317 0.88086,0.365235 -0.15614,-0.127842 -0.40034,-0.282608 -0.77539,-0.472657 -0.0466,0.03735 -0.0723,0.07184 -0.10547,0.107422 z M 85.333984,3.8652344 c 2.922739,0.6239782 -4.542864,0.9778316 0,0 z M 79.845703,6.4375 c -3.183261,4.026514 -5.544248,3.0669686 0,0 z m 17.744067,4.148438 c 17.06468,-2.1746492 17.10462,23.5022 14.92928,36.880622 9e-5,13.378422 -16.453123,14.929747 -26.992043,14.930349 C 74.988088,62.396305 74.552643,48.188968 74.552734,34.810547 74.552643,21.432126 87.050851,10.586542 97.58977,10.585938 Z m 22.05867,4.285156 h 0.002 c 5.77221,0.183786 11.27992,9.610822 4.95899,12.755859 -2.83319,-2.45147 -2.93975,2.501934 -4.625,0.613281 2.27143,-4.599926 -2.88263,-8.822767 -0.33594,-13.36914 z M 70.3125,16.822266 C 71.273177,20.218552 65.061127,28.004243 66.835938,30.65625 62.056975,30.329468 54.702781,27.409383 53.947266,25.707031 54.899802,20.764109 64.996209,18.406147 70.3125,16.822266 Z m 0.466797,3.419922 c -0.438248,3.732968 -5.233972,10.650461 -1.423828,2.732421 0.473825,-0.909727 0.837652,-1.880194 1.423828,-2.732421 z m -3.46875,7.771484 c 0.846699,1.013067 -0.452821,1.660266 0,0 z m 70.572263,4.394531 c 0.52875,-0.0064 0.98388,0.03391 1.31055,0.132813 h -0.01 c 7.15624,1.086853 16.99242,0.998102 20.42969,8.568359 -0.74151,3.70877 4.55936,14.472878 5.07227,5.921875 1.19677,5.956127 3.35417,15.6601 -3.86719,18.597656 -7.27835,-1.780209 -13.42337,-7.899064 -20.95898,-9.943359 -4.8848,-3.512021 -10.45647,-5.888323 -15.04493,-9.509766 3.67989,0.03079 19.04961,1.161919 12.73438,-6.109375 4.37189,-0.706118 2.72747,-6.490675 -2.71094,-5.111328 -7.9607,-0.192307 -0.65632,-2.502363 3.04492,-2.546875 z m -81.298826,0.769531 h 0.002 c -2.051616,3.523595 0.243568,5.713574 -3.150391,8.328125 4.02996,4.049661 6.935523,7.992632 -0.607422,9.060547 -3.964829,4.5126 -7.441864,-4.417284 -8.716797,1.351563 -6.977122,4.402126 -15.02611,6.965039 -23.257812,7.560547 -5.031344,0.752033 -9.41395,2.448827 -6.089844,-4.003907 1.734104,-7.977274 6.512999,-15.358536 14.566406,-18.052734 6.35024,-4.080173 14.072377,-2.811968 21.400391,-3.703125 1.95392,-0.138282 3.907737,-0.327201 5.853515,-0.541016 z m 0.06641,1.373047 c 1.050232,0.976464 -1.603843,1.088958 0,0 z m 67.160156,0.958985 c 1.47358,1.774949 0.7812,5.604469 4.9082,3.728515 -0.55687,1.916987 -8.52824,4.311677 -8.72852,3.779297 -0.84669,-4.549424 2.28079,-5.067915 3.82032,-7.507812 z m -1.74414,14.964843 c 2.44335,2.05718 6.68147,2.977646 1.88867,3.572266 -0.39579,-1.024936 -0.99658,-2.203167 -1.88867,-3.572266 z m 1.89257,3.583985 c 0.74543,0.0073 0.70244,0.511471 0.3711,1.138672 -0.0928,-0.356123 -0.2156,-0.734861 -0.3711,-1.138672 z m 0.61524,1.851562 c 4.08695,1.681309 8.04337,4.630587 12.65625,6.320313 6.46422,6.738914 13.18235,13.320556 21.02734,18.46875 6.02459,3.593035 3.01101,9.819554 -2.43554,11.414062 4.68126,-0.994087 5.29277,0.854937 3.36328,4.521485 0.28942,5.461624 -9.05771,7.827444 -12.43555,4.152344 -0.14573,-2.730287 -9.19583,-2.151684 -11.11719,-6.851563 -7.92966,-8.39392 -14.70952,-17.754412 -21.3789,-27.132813 0.0956,-4.945026 6.86348,7.152492 10.77539,6.457032 5.76032,-0.550297 -2.71651,-4.436439 -4.50977,-8.466797 -0.39964,1.073952 -3.32365,0.48162 -4.01367,-2.001953 0.51901,-0.458667 1.12306,-1.104216 1.89648,-1.009766 0.90293,0.702056 1.45841,1.292211 1.79102,1.789062 -0.0139,-0.249825 -0.002,-0.500353 0.0566,-0.748046 1.14793,1.140512 10.38581,2.079501 4.625,-1.134766 -6.49419,-1.087003 0.491,-0.130289 -0.38086,-5.710938 0.0517,-0.04433 0.0258,-0.01987 0.0801,-0.06641 z m -4.38086,7.660156 c 0.0226,0.407314 0.14479,0.815 0.32617,1.222657 0.10733,-0.288434 0.0263,-0.696175 -0.32617,-1.222657 z m -75.810545,5.164063 h 0.002 c 6.789871,3.435215 -4.453257,9.205961 2.271484,12.617187 2.833184,-0.719785 4.73865,-6.745361 4.632812,-1.439453 4.241635,-0.19576 6.349065,-2.163344 9.689454,-6.646484 4.803386,-5.867747 -2.310386,8.074845 -0.107422,1.349609 -2.540096,3.777159 -7.035102,9.121469 -3.167969,6.492188 -5.479117,7.976222 -11.232682,15.839873 -16.59375,23.910158 -2.417976,1.94539 -7.725212,9.93887 -9.044922,8.13867 4.925507,-4.87559 -0.06681,-1.30491 -1.271484,-1.125 4.298624,-5.11863 -7.806882,6.38575 -10.015625,0.69336 -6.879427,-6.27808 3.435359,-14.649518 4.697265,-21.810548 3.427502,-7.577464 11.819155,-10.950687 15.464844,-18.501953 1.107221,-1.26256 2.28729,-2.454103 3.443359,-3.677734 z m 58.003905,7.414063 c 0.92616,4.152746 0.99526,18.925123 7.36523,14.386718 -1.28633,-2.30312 -3.2389,-10.359664 0.67774,-5.474609 3.053,7.50171 9.21039,15.592243 6.13867,23.984373 -1.89693,7.08822 -11.6089,8.34137 -17.171873,10.04688 -4.282341,-0.20871 -10.385133,0.37725 -11.082031,0.84765 -4.15208,0.36176 -5.040371,-8.46019 -7.425781,-1.78125 -3.90784,3.46152 -12.273776,3.53472 -15.84375,-1.02929 -0.879264,-8.67063 3.126677,-16.79087 5.40625,-24.962894 0.565008,-1.729708 4.48603,-2.378204 5.21875,-2.265625 6.146706,6.952497 9.143099,-3.701243 10.261719,-8.798829 2.059757,0.0314 -4.632054,16.823611 5.503906,14.138672 1.94226,-2.713893 2.303723,-7.393107 3.263672,-10.722656 -0.530798,4.761096 6.400598,8.922265 7.052728,1.978516 0.43376,-3.424312 0.0597,-6.964952 0.63477,-10.347656 z M 86.6875,78.876953 c 2.067899,1.126835 -1.367744,0.931285 0,0 z m 74.70898,10.875 c 0.30498,2.138987 -3.10184,1.095271 0,0 z m -55.90039,28.324217 c 1.44916,0.75661 -3.21582,1.04944 0,0 z"
         transform="matrix(0.0012283,0,0,-9.504499e-4,1.3071353,0.89003201)"
         id="path2209"
         inkscape:connector-curvature="0"
         sodipodi:nodetypes="ccccccccccccccccccccccccccccccccccccccccccccccccccccccccccccccccccccccccccccscccccccccccccccccccccccccccccccccccccccccccccccccccccccccccccccccccccccccccccccccc" /></g><path
       style="fill:#ffff4e;fill-opacity:1;stroke:none;stroke-width:0;stroke-miterlimit:4;stroke-dasharray:none;stroke-opacity:1"
       d="m 120.06641,14.886719 c -0.61541,-0.01939 -0.79773,0.353915 -1.04688,1.488281 -0.22723,1.034595 -0.0126,2.968654 0.54102,4.873047 0.50491,1.73681 0.87552,3.944248 0.82422,4.904297 -0.0513,0.960049 -0.0683,1.935295 -0.0371,2.166015 0.10318,0.763788 1.05024,0.434356 1.40429,-0.488281 0.25402,-0.661952 0.78271,-0.820411 1.95508,-0.585937 1.84271,0.368542 3.09882,-0.685883 3.70313,-3.107422 0.78461,-3.143999 -2.84206,-8.179019 -6.56446,-9.113281 -0.31943,-0.08018 -0.57416,-0.130255 -0.77929,-0.136719 z m -50.181644,2.166015 c -0.744892,-0.01268 -2.275182,0.450944 -5.148438,1.38086 -5.364561,1.736213 -8.888837,3.695209 -10.169922,5.65039 -0.925323,1.412223 -0.909427,1.476944 0.650391,2.720704 0.878824,0.70075 3.132718,1.78853 5.007812,2.417968 1.875095,0.629438 4.068343,1.154739 4.875,1.167969 1.287142,0.02111 1.51241,-0.253673 1.830079,-2.240234 0.199081,-1.244987 0.594617,-2.118314 0.880859,-1.941407 0.76248,0.471239 1.9083,-1.925332 2,-4.183593 0.04372,-1.076695 0.272525,-2.65012 0.507812,-3.496094 0.270951,-0.974196 0.311298,-1.463888 -0.433593,-1.476563 z m -0.519532,5.089844 c 0.03327,-0.0098 0.06138,-0.0065 0.08203,0.01172 0.02753,0.02425 0.04102,0.07348 0.04102,0.150391 0,0.307627 -0.242809,0.936997 -0.541015,1.398437 -0.298206,0.461441 -0.542969,0.586925 -0.542969,0.279297 0,-0.307627 0.244763,-0.936997 0.542969,-1.398438 0.16774,-0.25956 0.318147,-0.4119 0.417968,-0.441406 z m 68.874996,10.47461 c -3.88708,-0.05624 -6.64843,0.518111 -6.64843,1.746093 0,0.289471 1.42724,0.525391 3.17187,0.525391 4.67376,0 6.93471,2.65051 4.00977,4.699219 -0.98882,0.692597 -1.0836,0.995718 -0.51758,1.677734 0.38023,0.458143 0.61031,1.413954 0.50976,2.123047 -0.25612,1.80665 -3.01366,2.613828 -9.13281,2.673828 -4.65597,0.04565 -4.94872,0.114019 -3.91406,0.914062 2.25891,1.746688 14.62465,8.891644 17.33789,10.017579 1.53813,0.638294 4.6262,2.231825 6.86133,3.541015 2.23512,1.309189 5.38002,2.992515 6.99023,3.742188 1.61022,0.749674 3.20969,1.36614 3.55274,1.36914 1.06758,0.0094 3.54974,-2.246765 4.50586,-4.095703 0.98112,-1.897263 1.13252,-8.44501 0.27929,-12.11914 -0.41442,-1.784559 -0.49262,-1.846436 -0.87304,-0.699219 -0.22953,0.692161 -0.7547,1.257812 -1.16797,1.257812 -0.99395,0 -2.95187,-4.118232 -3.5957,-7.564453 -0.67045,-3.588604 -3.70446,-6.549477 -7.9668,-7.773437 -4.50323,-1.293131 -9.51526,-1.978922 -13.40235,-2.035156 z m -82.968746,0.691406 c -1.340612,-0.03671 -4.23195,0.215075 -10.433593,0.705078 -9.357104,0.73932 -10.091316,0.883072 -14.767579,2.914062 -5.4634,2.372862 -9.564698,5.661109 -11.78125,9.44336 -1.829112,3.121144 -4.881196,11.88665 -4.492187,12.90039 0.186089,0.48494 1.112105,0.785204 2.416016,0.783204 3.070852,-0.0048 12.244237,-1.479339 15.818359,-2.542969 4.502859,-1.340015 12.304688,-5.270773 12.304688,-6.199219 -10e-7,-1.25472 1.556464,-1.529758 3.0625,-0.542969 1.496291,0.980408 4.510454,1.209677 5.021484,0.382813 0.175497,-0.28396 1.046139,-0.676177 1.933594,-0.871094 3.70602,-0.813979 4.01652,-3.184151 0.904296,-6.882812 -1.400043,-1.663863 -1.437317,-1.852821 -0.613281,-3.029297 0.483383,-0.690126 0.878904,-2.079646 0.878907,-3.087891 0,-1.008246 0.197746,-1.832031 0.439453,-1.832031 0.241707,0 0.439453,-0.503887 0.439453,-1.119141 0,-0.65984 0.209753,-0.98477 -1.13086,-1.021484 z M 123.75,36.007812 c -1.08407,10e-7 -3.9043,4.055271 -3.9043,5.613282 0,0.912177 0.24102,1.658203 0.53711,1.658203 1.01756,0 6.52119,-2.238735 7.60547,-3.09375 1.0707,-0.844338 1.07055,-0.853898 -0.0332,-0.773438 -2.04692,0.149215 -2.37628,-0.03688 -3.07617,-1.726562 -0.38227,-0.922881 -0.89047,-1.677735 -1.12891,-1.677735 z M 122.17578,50.5 l -0.88476,3.046875 c -0.48729,1.67623 -0.88672,3.840455 -0.88672,4.808594 0,1.5147 0.29279,1.874929 2.09765,2.583984 2.96988,1.166741 3.80021,1.685186 3.60938,2.255859 -0.24103,0.720755 -4.5814,0.305842 -6.42774,-0.615234 -1.54176,-0.769132 -3.19336,-0.617056 -3.19336,0.294922 0,0.832248 1.73681,2.21875 2.78125,2.21875 1.13032,0 7.91681,6.703132 7.48829,7.396484 -0.1474,0.238494 -1.03412,0.433594 -1.96875,0.433594 -1.33238,0 -2.51224,-0.786214 -5.46485,-3.636719 -3.67295,-3.545933 -5.07422,-4.356712 -5.07422,-2.935547 0,0.98816 11.56143,16.386563 17.87696,23.808594 4.15976,4.888565 5.85983,6.462524 7.93554,7.355469 1.45265,0.624916 3.01067,1.136719 3.46289,1.136719 0.45221,0 1.8773,0.880333 3.16602,1.957036 2.61597,2.18558 5.31581,2.56287 8.54687,1.19531 3.02968,-1.28232 4.25815,-3.43807 4.50391,-7.906252 0.0723,-1.315036 -0.16147,-1.714241 -1.08203,-1.845704 -1.09207,-0.155955 -1.04542,-0.298332 0.66601,-2.009765 3.97627,-3.97625 3.19923,-6.183068 -4.07226,-11.572266 -3.01799,-2.236752 -8.25477,-6.749131 -11.63867,-10.027344 -5.19434,-5.032115 -7.08672,-6.454983 -12.14649,-9.130859 -3.29622,-1.743223 -6.35541,-3.167969 -6.79882,-3.167969 -0.53088,0 -0.70629,-0.382591 -0.51368,-1.11914 0.1609,-0.615254 0.66208,-1.119141 1.11328,-1.119141 1.24353,0 0.6347,-1.044539 -1.33398,-2.291016 z M 44.476562,69.177734 c -1.021728,0.148916 -2.310125,1.492897 -4.195312,4.304688 -0.92813,1.384322 -4.264523,5.16054 -7.414062,8.390625 -3.149546,3.230085 -6.09128,6.627899 -6.539063,7.550781 -0.447784,0.922881 -2.371539,4.824583 -4.273437,8.669922 -4.210811,8.51359 -4.515172,11.04835 -1.710938,14.24219 2.101544,2.39353 3.441564,2.48988 7.314453,0.52734 1.5732,-0.79721 3.610845,-1.5441 4.527344,-1.66016 1.625123,-0.20567 1.641678,-0.18314 0.669922,0.89063 -0.868689,0.95989 -0.883297,1.10156 -0.109375,1.10156 0.488242,0 2.650774,-1.95182 4.804687,-4.33593 4.678849,-5.17896 19.851545,-26.769779 19.365235,-27.556646 -0.392753,-0.635487 3.049309,-5.668011 3.630859,-5.308593 0.356814,0.220523 2.248047,-3.188954 2.248047,-4.052735 0,-0.211319 -1.57921,1.274819 -3.509766,3.302735 -3.920676,4.118401 -6.713783,5.34882 -8.037109,3.539062 -0.6686,-0.914363 -0.837229,-0.860075 -2.361328,0.771485 -1.983915,2.123788 -2.570832,2.179884 -3.763672,0.359374 -0.861735,-1.315175 -0.842588,-1.579826 0.3125,-4.425781 1.363297,-3.358941 1.336283,-5.226569 -0.08789,-6.11914 -0.145354,-0.0911 -0.293708,-0.153027 -0.449218,-0.183594 -0.136077,-0.02675 -0.275909,-0.02909 -0.421876,-0.0078 z m 57.822268,7.826172 c -0.19303,-0.193032 -0.35347,1.640791 -0.35547,4.076172 -0.002,2.435382 -0.26069,5.358231 -0.57617,6.494141 -0.99093,3.567831 -4.074731,3.347848 -6.011721,-0.427735 l -1.00586,-1.96289 -0.722656,3.496094 c -0.397001,1.922089 -1.091837,4.211719 -1.544922,5.08789 -0.711506,1.375905 -1.103158,1.568265 -2.876953,1.419922 -3.047704,-0.254881 -3.596188,-1.702091 -3.240234,-8.560547 l 0.291015,-5.59375 -1.414062,4.005859 c -2.295793,6.508723 -4.9598,8.345237 -8.298828,5.71875 -1.389567,-1.093034 -1.66036,-1.123383 -3.570313,-0.402343 -1.929182,0.728299 -2.18603,1.114836 -3.84375,5.796875 -2.66361,7.523056 -4.192762,14.577486 -3.992187,18.425776 0.169376,3.24977 0.235939,3.37577 2.412109,4.60547 2.990757,1.69001 8.335582,1.76074 11.488281,0.15235 1.218253,-0.6215 2.214844,-1.50977 2.214844,-1.97461 0,-1.76372 1.733484,-1.52773 3.580078,0.48828 l 1.835938,2.00391 6.101562,-0.30079 c 6.320754,-0.31214 14.153219,-2.09376 18.134769,-4.125 5.00112,-2.55138 7.4647,-8.16257 6.24609,-14.23046 -0.63995,-3.186555 -5.75064,-14.916767 -7.26172,-16.667973 -1.88874,-2.188889 -2.40723,-0.07451 -0.97656,3.980469 0.79803,2.261844 0.78867,2.310327 -0.52734,2.640625 -0.73715,0.185012 -1.60825,0.171032 -1.93555,-0.03125 -1.25027,-0.772712 -2.32548,-3.848529 -3.04883,-8.714844 -0.41294,-2.778017 -0.90852,-5.207358 -1.10156,-5.400391 z"
       transform="matrix(0.75000002,0,0,-0.75000002,208.19275,720.50392)"
       id="path2234"
       inkscape:connector-curvature="0"
       sodipodi:nodetypes="cccsccscccssscscccccsccsssccssssccsscccccscscssssscscsscsscscsssssscsssccsscssscsssscscccscsscscscccsccsccccsccssscccscccccccccssccccsscccsccccccccccc" /><path
       style="fill:#3c3900;fill-opacity:1;stroke:none;stroke-width:0;stroke-miterlimit:4;stroke-dasharray:none;stroke-opacity:1"
       d="m 83.134276,62.132881 c -2.991202,-0.848845 -4.996749,-2.883297 -6.38112,-6.47309 -1.44134,-3.73752 -1.959718,-7.796466 -2.103686,-16.472062 -0.102116,-6.153559 -0.08393,-6.644183 0.318926,-8.602134 1.692796,-8.227363 7.996816,-15.600686 15.96524,-18.673301 2.273052,-0.876486 4.149199,-1.243239 7.180085,-1.403579 3.892639,-0.205928 6.281129,0.47902 8.705269,2.496413 4.32157,3.596449 6.734,11.646063 6.71456,22.404627 -0.007,3.825972 -0.6267,10.917085 -1.27731,14.613993 -1.02038,5.797991 -5.83942,9.629136 -14.221313,11.305976 -3.348642,0.669913 -5.559492,0.891262 -10.006466,1.001846 -3.04592,0.07574 -4.074235,0.034 -4.894185,-0.198689 z"
       id="path2260"
       inkscape:connector-curvature="0"
       transform="matrix(0.75000002,0,0,-0.75000002,208.19275,720.50392)" /></g></svg>