<?xml version="1.0" encoding="UTF-8" standalone="no"?>
<!-- Created with Inkscape (http://www.inkscape.org/) -->

<svg
   xmlns:dc="http://purl.org/dc/elements/1.1/"
   xmlns:cc="http://creativecommons.org/ns#"
   xmlns:rdf="http://www.w3.org/1999/02/22-rdf-syntax-ns#"
   xmlns:svg="http://www.w3.org/2000/svg"
   xmlns="http://www.w3.org/2000/svg"
   xmlns:sodipodi="http://sodipodi.sourceforge.net/DTD/sodipodi-0.dtd"
   xmlns:inkscape="http://www.inkscape.org/namespaces/inkscape"
   version="1.1"
   id="svg1956"
   xml:space="preserve"
   width="253.37852"
   height="100.37541"
   viewBox="0 0 253.37852 100.37541"
   sodipodi:docname="0.svg"
   inkscape:version="0.92.4 (5da689c313, 2019-01-14)"><metadata
     id="metadata1962"><rdf:RDF><cc:Work
         rdf:about=""><dc:format>image/svg+xml</dc:format><dc:type
           rdf:resource="http://purl.org/dc/dcmitype/StillImage" /><dc:title /></cc:Work></rdf:RDF></metadata><defs
     id="defs1960" /><sodipodi:namedview
     pagecolor="#ffffff"
     bordercolor="#666666"
     borderopacity="1"
     objecttolerance="10"
     gridtolerance="10"
     guidetolerance="10"
     inkscape:pageopacity="0"
     inkscape:pageshadow="2"
     inkscape:window-width="1299"
     inkscape:window-height="760"
     id="namedview1958"
     showgrid="false"
     inkscape:zoom="3.5757576"
     inkscape:cx="77.227752"
     inkscape:cy="61.598389"
     inkscape:window-x="0"
     inkscape:window-y="0"
     inkscape:window-maximized="0"
     inkscape:current-layer="g1964"
     fit-margin-top="0"
     fit-margin-left="0"
     fit-margin-right="0"
     fit-margin-bottom="0"
     showguides="false" /><g
     id="g1964"
     inkscape:groupmode="layer"
     inkscape:label="Plantos_Test2"
     transform="matrix(1.3333333,0,0,-1.3333333,-136.8578,536.49413)"><g
       id="g1966"
       transform="matrix(610.6,0,0,789.1,-476.2735,2.5865012)"><path
         style="fill:#000000;stroke-width:0.00051864"
         d="m 1.1087448,0.50663301 c -0.014686,-2.6127e-4 -0.028795,-0.003965 -0.043337,-0.005329 -0.011017,-9.1093e-4 -0.020439,-0.004669 -0.030479,-0.007982 -0.016469,-0.006554 -0.0351339,-0.007595 -0.0527325,-0.0112128 -0.009545,-0.002304 -0.0198633,-0.004049 -0.0280848,-0.008424 -0.003565,-0.002466 -0.009602,-0.012079 -5.2576e-4,-0.006265 0.004649,0.004171 0.0102725,0.002836 0.0164363,0.001855 0.0147409,-1.1438e-4 0.0294904,-8.5676e-4 0.0441777,-0.001249 0.011268,-1.8429e-4 0.022858,7.6933e-4 0.032625,-0.004744 0.010018,-0.003845 0.022138,0.00227 0.031267,-0.00443 0.00925,-0.003644 0.016082,-0.00978 0.024049,-0.0147045 0.011163,-6.0171e-4 0.020789,0.0110148 0.031965,0.004069 0.01241,-0.004176 0.019762,-0.0136651 0.03126,-0.0187639 0.010437,-0.002175 0.015796,0.0100427 0.026705,0.003016 0.010484,-0.002905 0.016844,-0.0136045 0.027923,-0.0137756 0.00562,0.002616 0.00908,0.0117547 0.014258,0.004131 0.00377,-0.002839 0.014861,-0.0154426 0.015967,-0.008083 -0.00587,0.006136 -0.016041,0.0227926 -0.026989,0.0122737 -0.00902,-0.008031 -0.017936,0.009456 -0.028785,0.0104518 -0.00956,0.004894 -0.018079,-3.1962e-4 -0.026017,-0.003154 -0.010851,0.004664 -0.017727,0.0135277 -0.029177,0.0176822 -0.010983,0.007213 -0.022945,-4.3166e-4 -0.033827,-0.003021 -0.00858,0.005368 -0.016706,0.0115745 -0.026798,0.0154685 -0.00947,0.00645 -0.022583,-0.001599 -0.031951,0.004732 -0.010374,0.005476 -0.023019,0.003327 -0.034743,0.004039 -0.0139773,5.1625e-4 -0.0285104,-2.4221e-4 -0.0421596,9.7908e-4 0.0108697,0.002269 0.0218582,0.004425 0.0329874,0.005588 0.015978,0.002689 0.030894,0.007809 0.045814,0.0128134 0.00956,0.004019 0.021821,0.00492 0.03345,0.006426 0.013818,0.002341 0.028095,0.004356 0.042133,0.001771 0.017546,-0.001341 0.034977,-0.004391 0.050628,-0.0108686 0.015039,-0.004685 0.030477,-0.008827 0.043931,-0.0160283 0.00915,-0.004993 0.02127,-0.008212 0.025861,-0.0167084 0.00938,-0.006769 0.00721,-0.0168255 0.00607,-0.0256445 0.00145,-0.00576 -0.00545,-0.0179769 8.991e-4,-0.0200294 0.0075,-0.00111 0.00361,0.006857 0.00477,0.0104375 4.094e-4,0.00254 0.00126,0.005164 0.00185,0.00822 -0.00324,0.009054 0.00654,0.020854 -0.00402,0.0275185 -0.00813,0.006724 -0.016497,0.0133121 -0.027536,0.0172354 -0.013029,0.006652 -0.026512,0.013188 -0.041833,0.0160196 -0.012378,0.003652 -0.02349,0.009727 -0.036846,0.0114366 -0.012983,0.001689 -0.02604,0.003672 -0.039188,0.004253 z"
         id="path1970"
         inkscape:connector-curvature="0" /></g><path
       style="fill:#57ed66;fill-opacity:1;stroke:none;stroke-width:0;stroke-miterlimit:4;stroke-dasharray:none;stroke-opacity:1"
       d="m 243.01754,92.249742 c -3.68546,-5.859041 -7.36027,-9.997644 -10.02096,-11.285659 -3.08773,-1.494746 -5.2406,-0.918264 -8.60899,2.305271 -4.36006,4.172539 -6.0404,3.757251 -13.34696,-3.298649 -4.47246,-4.319029 -6.59837,-5.98285 -8.5094,-6.659792 -0.73136,-0.259072 -2.33653,-0.930413 -3.56704,-1.491871 -2.13346,-0.973461 -2.37356,-1.020089 -5.17373,-1.004805 -3.51629,0.01918 -4.12927,0.208291 -10.13335,3.126084 l -4.40031,2.138403 -2.31156,-1.57509 c -2.27143,-1.547751 -4.17955,-3.193866 -10.7549,-9.27816 -3.64921,-3.376677 -6.35264,-5.468984 -8.89564,-6.884714 -0.92288,-0.513785 -2.06082,-1.219529 -2.52875,-1.56832 -1.38904,-1.03538 -3.78171,-2.005961 -5.69931,-2.31191 -3.44964,-0.550381 -6.94542,0.317032 -14.56431,3.613869 -2.38411,1.031647 -4.81125,2.031097 -5.39365,2.220998 l -1.0589,0.345275 -4.98235,-4.195662 c -6.32312,-5.324726 -10.31711,-8.330492 -13.70888,-10.316935 -1.47537,-0.864071 -3.31173,-1.987154 -4.0808,-2.49574 -2.96849,-1.963066 -3.9648,-2.077235 -15.381355,-1.762549 -5.22228,0.14395 -6.23189,-0.09264 -9.268651,-2.171954 C 78.199403,38.03511 75.731073,36.934387 72.931224,36.265661 70.10636,35.590963 67.822354,35.420934 59.693006,35.28017 36.55914,34.879594 21.409311,34.525228 19.841311,34.348009 l -1.817796,-0.205456 1.118644,-0.342271 c 4.973712,-1.521805 16.318773,-4.068165 23.211864,-5.209823 8.633217,-1.429864 19.27412,-5.032341 34.398305,-11.645543 9.949237,-4.350404 11.070135,-4.78306 14.879093,-5.743184 2.03096,-0.511944 6.750239,-1.4344282 10.487289,-2.0499647 3.73705,-0.6155366 8.99697,-1.5559634 11.6887,-2.0898374 8.54066,-1.693937 10.99419,-1.9638472 17.89831,-1.9689708 5.32265,-0.00395 6.76646,0.088352 9.36864,0.5989334 1.69195,0.3319817 3.89428,0.6855467 4.89407,0.7857 12.56395,1.2585884 26.27689,5.0056305 35.77325,9.7749895 1.3534,0.679716 5.46751,2.424288 9.14247,3.876826 14.91917,5.896849 21.8663,9.271599 29.20811,14.18861 1.31493,0.880642 4.52404,2.892509 7.13135,4.470812 7.72417,4.675717 10.86253,7.373003 12.99537,11.168942 0.53571,0.953443 1.58292,2.445935 2.32713,3.316646 3.87953,4.538974 5.13555,10.483457 4.26129,20.167762 -0.24237,2.684693 -0.43929,5.893803 -0.43762,7.131356 0.003,2.005505 -1.14585,11.402272 -1.63228,13.354172 -0.17758,0.712531 -0.27779,0.614759 -1.71996,-1.677966 z"
       id="path5905"
       inkscape:connector-curvature="0"
       transform="matrix(0.75000002,0,0,-0.75000002,102.64335,402.37061)" /></g></svg>