<?xml version="1.0" encoding="UTF-8" standalone="no"?>
<!-- Created with Inkscape (http://www.inkscape.org/) -->

<svg
   xmlns:dc="http://purl.org/dc/elements/1.1/"
   xmlns:cc="http://creativecommons.org/ns#"
   xmlns:rdf="http://www.w3.org/1999/02/22-rdf-syntax-ns#"
   xmlns:svg="http://www.w3.org/2000/svg"
   xmlns="http://www.w3.org/2000/svg"
   xmlns:sodipodi="http://sodipodi.sourceforge.net/DTD/sodipodi-0.dtd"
   xmlns:inkscape="http://www.inkscape.org/namespaces/inkscape"
   version="1.1"
   id="svg1212"
   xml:space="preserve"
   width="54.840832"
   height="170.0246"
   viewBox="0 0 54.840831 170.0246"
   sodipodi:docname="0.svg"
   inkscape:version="0.92.4 (5da689c313, 2019-01-14)"><metadata
     id="metadata1218"><rdf:RDF><cc:Work
         rdf:about=""><dc:format>image/svg+xml</dc:format><dc:type
           rdf:resource="http://purl.org/dc/dcmitype/StillImage" /><dc:title /></cc:Work></rdf:RDF></metadata><defs
     id="defs1216" /><sodipodi:namedview
     pagecolor="#ffffff"
     bordercolor="#666666"
     borderopacity="1"
     objecttolerance="10"
     gridtolerance="10"
     guidetolerance="10"
     inkscape:pageopacity="0"
     inkscape:pageshadow="2"
     inkscape:window-width="1202"
     inkscape:window-height="719"
     id="namedview1214"
     showgrid="false"
     fit-margin-top="0"
     fit-margin-left="0"
     fit-margin-right="0"
     fit-margin-bottom="0"
     inkscape:zoom="2.5284424"
     inkscape:cx="-22.264087"
     inkscape:cy="69.45826"
     inkscape:window-x="0"
     inkscape:window-y="0"
     inkscape:window-maximized="0"
     inkscape:current-layer="g1220" /><g
     id="g1220"
     inkscape:groupmode="layer"
     inkscape:label="Plantos_Test2"
     transform="matrix(1.3333333,0,0,-1.3333333,-577.19177,890.20696)"><g
       id="g1222"
       transform="matrix(610.6,0,0,789.1,-981.72303,29.87603)"><path
         style="fill:#000000;stroke-width:0.48000872"
         d="M 34.119141 0.00390625 C 31.158817 1.8508218 32.250791 7.0536364 34.53125 9.8007812 C 34.028876 9.6274961 33.507143 9.5101312 32.958984 9.4960938 L 32.957031 9.4960938 C 32.626737 12.500986 31.313913 10.777359 29.441406 11.443359 C 28.350468 16.349457 32.599405 20.708381 28.300781 24.501953 C 26.933037 29.995141 32.330737 34.63166 28.296875 39.603516 C 29.509934 46.25405 22.874933 51.489724 25.439453 58.048828 C 27.328242 64.420547 17.321545 70.552695 23.09375 77.064453 C 27.066721 81.991593 15.067878 77.756836 20.253906 83.029297 C 19.065272 87.599764 18.169264 92.746759 20.789062 97.017578 C 16.205493 96.654571 14.316962 100.73206 10.550781 102.62695 C 5.5275792 107.64247 5.6010186 116.36237 10.939453 121.14062 C 15.425328 124.58005 7.3807184 122.65819 6.1269531 125.48633 C 1.7143509 130.09467 1.9843661 137.02692 2.8066406 142.82617 C -0.88138306 148.52242 -1.3380638 156.69015 3.8886719 161.63086 C 8.6025035 167.224 17.909603 166.72781 23.271484 162.37695 C 25.477786 159.67087 26.46368 165.39387 28.523438 166.58594 C 30.50178 170.13899 32.577153 169.92333 36.566406 170.02539 C 44.561195 167.7591 51.122341 158.27277 46.855469 150.23438 C 46.298764 146.917 39.536817 145.25144 45.056641 143.30078 C 49.892592 138.16111 44.945241 129.97488 40.521484 126.16016 C 37.944157 123.68261 30.086145 122.01691 27.341797 124.14258 C 25.358244 122.16228 22.875742 120.46903 25.611328 119.23438 C 27.451269 117.53097 29.160238 117.02984 30.560547 119.48047 C 34.728909 124.8453 44.368947 123.10438 44.044922 115.47852 C 46.471039 108.80904 42.789632 103.39529 36.585938 100.96875 C 32.69438 99.917585 28.885791 109.54717 27.564453 101.59766 C 34.240346 100.55097 32.196061 92.127085 37.158203 88.873047 C 37.155803 89.721077 34.740907 96.895616 38.689453 99.273438 C 41.791301 104.16691 53.638655 102.39856 51.279297 95.449219 C 51.404266 90.316912 43.109522 84.826064 50.751953 82.902344 C 54.961022 78.913706 52.55033 72.538338 49.660156 68.511719 C 54.162313 65.269044 52.558861 58.814429 51.101562 54.345703 C 50.051332 48.595795 41.841246 48.269485 40.394531 44.517578 C 43.724337 37.925963 45.280899 53.377581 51.34375 48.052734 C 59.836016 45.296145 50.447752 36.86293 48.453125 35.4375 C 57.0577 33.170153 47.965486 25.533181 47.386719 22.111328 C 49.844448 17.488264 46.400202 13.148027 42.146484 11.785156 C 45.914396 9.1376157 48.935977 2.5069803 37.546875 1.03125 C 36.480932 0.51694866 35.341551 -0.05220754 34.121094 0.00390625 L 34.119141 0.00390625 z M 39.152344 4.7441406 C 40.542932 4.7438414 41.670304 5.7146581 41.669922 6.9121094 C 41.670304 8.1095606 40.542932 9.0803773 39.152344 9.0800781 C 37.761756 9.0803773 36.634384 8.1095606 36.634766 6.9121094 C 36.634384 5.7146581 37.761756 4.7438414 39.152344 4.7441406 z M 34.503906 15.183594 C 38.126799 16.935396 30.213424 17.261557 34.503906 15.183594 z M 42.853516 16.134766 C 47.941848 17.771885 41.542761 19.371128 42.853516 16.134766 z M 39.101562 19.052734 C 43.620002 21.375845 32.660599 26.269646 36.373047 21.441406 C 37.618671 21.051665 38.173452 19.800801 39.101562 19.052734 z M 41.761719 26.222656 L 41.763672 26.222656 C 39.134821 34.79712 45.222985 34.489418 45.214844 35.34375 C 40.207924 33.590896 39.442855 43.973162 36.283203 38.582031 C 33.474443 36.237878 42.422908 35.57785 39.882812 30.958984 C 40.093999 29.443912 39.687388 26.587747 41.761719 26.222656 z M 35.039062 27.828125 C 37.717561 32.424895 30.854365 33.303733 32.767578 28.207031 C 33.793386 28.424833 34.420322 28.647937 35.039062 27.828125 z M 46.224609 28.435547 A 2.3235648 2.0269397 0 0 1 48.546875 30.462891 A 2.3235648 2.0269397 0 0 1 46.224609 32.490234 A 2.3235648 2.0269397 0 0 1 43.900391 30.462891 A 2.3235648 2.0269397 0 0 1 46.224609 28.435547 z M 47.519531 40.224609 C 51.736742 40.190869 49.921072 45.095766 47.695312 41.791016 C 48.058904 41.764866 46.906326 40.381377 47.519531 40.224609 z M 33.134766 41.160156 C 38.353359 44.186092 31.921707 45.59069 33.134766 41.160156 z M 33.107422 49.208984 L 33.109375 49.208984 C 38.555927 52.172844 32.453153 64.745271 29.583984 56.212891 C 28.906544 53.230093 29.942652 49.071051 33.083984 50.855469 C 33.386353 50.363155 32.455869 49.53725 33.107422 49.208984 z M 44.181641 51.988281 C 47.951077 54.325069 50.450857 61.560311 45.623047 63.830078 C 40.160212 63.962952 40.713512 55.087326 43.986328 52.230469 L 44.181641 51.988281 z M 37.652344 62.470703 C 39.516709 64.432932 38.693636 74.165264 36.414062 67.361328 C 35.087026 64.827791 33.736363 63.206144 37.652344 62.470703 z M 31.603516 66.816406 C 36.756978 70.688257 32.411829 79.216887 26.701172 74.796875 C 25.292721 72.566352 27.441591 65.407882 29.787109 69.314453 C 29.990561 68.257059 30.574695 67.259354 31.603516 66.816406 z M 46.148438 69.705078 C 48.73738 72.82781 49.755035 80.373025 43.779297 79.197266 C 40.596036 75.600022 43.122385 72.010302 46.148438 69.705078 z M 38.039062 78.589844 C 43.241374 83.460169 32.372537 82.205034 31.224609 86.869141 C 29.563777 87.420595 27.975862 79.940526 30.898438 80.945312 C 33.430391 80.840458 36.003567 80.145738 38.039062 78.589844 z M 24.923828 86.863281 C 29.776063 88.089017 27.634633 100.25569 24.160156 93.484375 C 24.143546 91.476905 23.460993 88.440429 24.923828 86.863281 z M 41.251953 87.220703 L 41.253906 87.220703 C 46.77373 87.147583 49.814554 100.99475 41.765625 96.386719 C 41.543885 92.995693 45.233192 87.963346 40.136719 87.25 L 41.251953 87.220703 z M 20.699219 101.64648 L 20.703125 101.64648 C 27.883781 103.54243 26.026029 116.09879 18.853516 116.68945 C 11.37163 120.76752 9.2470092 111.07034 13.798828 106.80078 C 15.044452 101.39913 21.62176 110.18367 20.783203 106.54102 C 21.325334 104.8334 18.007039 102.1978 20.699219 101.64648 z M 39.496094 106.86523 C 42.390771 111.06293 36.277192 122.50295 32.736328 114.63867 C 32.199651 110.60269 35.455232 104.25505 39.078125 109.65039 C 39.752735 108.95762 38.50043 107.38647 39.496094 106.86523 z M 18.755859 122.75 C 23.298723 123.99257 16.207623 123.07401 18.755859 122.75 z M 21.669922 123.66211 C 26.84781 126.88059 26.522823 135.43916 20.832031 138.16797 C 16.948615 141.24335 10.869596 138.48942 6.9511719 137.23047 C 6.2339204 130.02651 13.048912 125.55974 19.642578 126.95508 C 22.956101 127.12051 23.273765 125.96457 21.669922 123.66211 z M 28.957031 126.26367 C 32.458285 126.92706 37.968489 127.18027 35.535156 128.45117 C 32.229775 129.4415 29.168935 133.95705 29.193359 127.74609 C 29.286099 127.24128 29.175729 126.74735 28.957031 126.26367 z M 39.587891 131.04688 C 44.529679 134.61781 41.965414 142.37012 35.761719 142.31836 C 27.864626 141.21046 35.219414 132.44305 39.587891 131.04688 z M 26.960938 139.58008 L 26.964844 139.58008 C 29.928289 142.33982 29.63523 144.64799 26.09375 146.04102 C 23.244283 148.90913 30.906003 154.95497 25.912109 155.21484 C 26.560974 149.56594 17.270118 143.40447 25.429688 140.76172 L 25.992188 140.30273 L 26.960938 139.58008 z M 17.068359 145.58203 L 17.070312 145.58203 C 21.69459 148.78262 22.915799 158.99128 16.248047 160.95898 C 11.159714 163.15794 3.9766464 159.48175 4.9707031 153.33203 C 4.5314782 148.43119 7.0633529 144.03016 12.167969 146.92773 C 13.853225 146.70752 15.285407 145.46524 17.068359 145.58203 z M 38.46875 148.70703 C 45.585397 149.02181 44.150955 159.38114 39.537109 162.54297 C 36.451545 167.46485 30.015771 165.3421 31.65625 159.36914 C 32.020656 155.46257 33.789406 150.13252 37.746094 148.70898 L 37.753906 148.70898 C 38.001454 148.69766 38.239181 148.69688 38.46875 148.70703 z "
         transform="matrix(0.0012283,0,0,-9.504499e-4,2.3167653,0.80823623)"
         id="path1226" /></g><path
       style="fill:#e2c0d5;fill-opacity:1;stroke:none;stroke-width:0;stroke-miterlimit:4;stroke-dasharray:none;stroke-opacity:1"
       d="m 29.917095,130.81529 c -0.430996,-0.3316 -0.664251,-1.16331 -0.682089,-2.4321 -0.0094,-0.66913 -0.0721,-1.40836 -0.139323,-1.64274 -0.06722,-0.23438 -0.107563,-0.43836 -0.08965,-0.45329 0.01791,-0.0149 0.630342,0.0628 1.360957,0.1728 4.6889,0.70571 5.73305,0.96904 5.73305,1.44587 0,0.17793 -0.377637,0.43686 -1.293432,0.88686 -0.711387,0.34955 -1.833952,0.95558 -2.494588,1.34673 -1.302077,0.77093 -2.011246,0.97106 -2.394923,0.67587 z"
       id="path1335"
       inkscape:connector-curvature="0"
       transform="matrix(0.75000002,0,0,-0.75000002,432.89384,667.65524)" /><path
       id="path1340"
       transform="matrix(0.75000002,0,0,-0.75000002,432.89384,667.65524)"
       style="fill:#6600ff;fill-opacity:1;stroke:none;stroke-width:0;stroke-miterlimit:4;stroke-dasharray:none;stroke-opacity:1"
       d="m 45.07047,32.195979 c -1.240627,-0.636356 -1.540348,-1.967772 -0.666914,-2.962558 0.886011,-1.00911 2.548796,-1.078344 3.509387,-0.146122 0.962265,0.933847 0.788582,2.272017 -0.396696,3.056415 -0.333582,0.220759 -0.537017,0.273559 -1.153783,0.299453 -0.661803,0.02778 -0.811899,-9.3e-4 -1.291994,-0.247188 z M 43.040506,17.707237 c -0.625988,-0.492402 -0.459394,-1.658399 0.208389,-1.458515 0.574682,0.172017 1.483931,0.751834 1.582724,1.009284 0.245407,0.639522 -1.115322,0.980809 -1.791113,0.449231 z M 38.057737,8.8908014 C 37.247516,8.5677224 36.65904,7.7096303 36.659883,6.8525078 c 0.0015,-1.4937496 1.846011,-2.5401908 3.418791,-1.9395407 0.676482,0.2583506 1.419068,0.9978425 1.558039,1.5515465 0.221325,0.8818318 -0.276515,1.8316089 -1.209576,2.307621 -0.587941,0.2999454 -1.766732,0.3589828 -2.3694,0.1186668 z m -4.754309,7.4981946 c -0.213518,-0.257274 -0.05185,-0.48796 0.642839,-0.917304 0.54072,-0.334184 0.846423,-0.280663 1.327629,0.232433 l 0.336736,0.359052 -0.33011,0.267782 c -0.416692,0.338018 -1.713146,0.376075 -1.977094,0.05804 z m 2.395098,6.873358 c -0.355823,-0.42874 0.294647,-1.638006 1.102888,-2.05034 0.29335,-0.149656 0.895959,-0.682551 1.33913,-1.184212 0.443172,-0.501661 0.893819,-0.912111 1.001438,-0.912111 0.107619,0 0.379601,0.183931 0.604406,0.408735 0.978421,0.978421 0.206295,2.427687 -1.841336,3.456153 -0.924952,0.464578 -1.946543,0.595035 -2.206526,0.281775 z m 12.553428,19.170074 c -0.434739,-0.448261 -1.028588,-1.847256 -0.883665,-2.081746 0.13336,-0.21578 1.074567,-0.127266 1.659936,0.156107 0.314362,0.15218 0.680309,0.460776 0.813216,0.685769 0.775337,1.312543 -0.530855,2.331431 -1.589487,1.23987 z M 33.373344,31.568247 c -0.555854,-0.227506 -0.819749,-0.687591 -0.881132,-1.536198 -0.03258,-0.450409 0.01404,-1.040943 0.103592,-1.312297 l 0.162827,-0.493373 0.757216,0.07815 c 0.573108,0.05915 0.844287,0.0211 1.115331,-0.156495 0.196964,-0.129055 0.413372,-0.200495 0.480908,-0.158756 0.200374,0.123838 0.568502,1.344568 0.567938,1.883312 -0.0013,1.21873 -1.242547,2.131197 -2.30668,1.695655 z m 0.125847,11.961851 c -0.444633,-0.444633 -0.475424,-0.535195 -0.475424,-1.398305 0,-0.507585 0.05268,-0.922882 0.117067,-0.922882 0.06439,0 0.465021,0.249164 0.890297,0.553698 0.872663,0.6249 1.329858,1.375418 1.099768,1.805345 -0.318528,0.595175 -1.014831,0.579021 -1.631708,-0.03786 z m -2.549859,15.091876 c -0.317594,-0.286927 -0.731404,-0.901264 -1.012521,-1.503178 -0.449639,-0.96274 -0.475506,-1.101337 -0.477069,-2.556071 -0.0021,-1.949299 0.212004,-2.719761 0.977895,-3.51909 0.496337,-0.518005 0.662161,-0.60591 1.14299,-0.60591 0.309334,0 0.763798,0.0702 1.009921,0.155998 0.246122,0.0858 0.471054,0.132438 0.499848,0.103644 0.0288,-0.02879 -0.01879,-0.318899 -0.105746,-0.644677 -0.214435,-0.803382 -0.02128,-0.981078 0.582346,-0.535736 1.106393,0.81627 1.694059,2.170213 1.694059,3.902994 0,1.832912 -0.599971,3.688497 -1.538073,4.756936 -0.945376,1.076724 -1.904199,1.230587 -2.77365,0.44509 z M 44.31055,63.66049 c -1.133004,-0.40421 -1.888134,-1.175403 -2.404664,-2.455816 -0.363395,-0.900811 -0.445916,-3.381644 -0.158142,-4.754237 0.272093,-1.297801 1.147882,-3.086441 1.90754,-3.895803 l 0.572338,-0.609786 0.655488,0.552306 c 3.246997,2.735875 4.41279,7.723446 2.354077,10.071366 -1.059225,1.208025 -1.813003,1.48927 -2.926637,1.09197 z m -0.130277,15.628958 c -0.728743,-0.123364 -1.68235,-1.700979 -1.86628,-3.087513 -0.110707,-0.834551 0.20138,-2.156676 0.744737,-3.155002 0.403247,-0.740898 2.01464,-2.552313 2.712573,-3.049286 0.400771,-0.285373 0.418913,-0.286387 0.608953,-0.03402 0.387162,0.514138 1.027661,1.814662 1.313558,2.667162 0.967127,2.88382 0.49513,5.527729 -1.125586,6.305018 -0.631959,0.303085 -1.727873,0.465383 -2.387955,0.353642 z M 28.254492,75.697519 c -1.665572,-0.685154 -1.996647,-1.190629 -1.982451,-3.026743 0.01373,-1.775194 0.680275,-3.704261 1.471396,-4.258384 0.52176,-0.365454 1.069783,-0.271886 1.580747,0.269894 l 0.458439,0.486086 0.157106,-0.451128 c 0.244837,-0.703045 0.768505,-1.405079 1.260143,-1.689359 l 0.448639,-0.259417 0.701958,0.728269 c 0.386077,0.400548 0.86855,1.083599 1.072162,1.517891 0.326745,0.696928 0.370204,0.961979 0.370204,2.257843 0,1.300434 -0.04284,1.559629 -0.374899,2.268098 -0.994078,2.120946 -3.106164,3.003237 -5.163444,2.15695 z m -3.171395,19.152383 c -0.974559,-1.057271 -1.015558,-1.209721 -1.048709,-3.899533 -0.02901,-2.353603 -0.02105,-2.427264 0.347109,-3.212856 0.228852,-0.488331 0.464917,-0.804025 0.601224,-0.804025 0.616751,0 1.653062,0.915619 2.13654,1.887712 0.453965,0.912755 0.630279,2.006822 0.565335,3.508035 -0.0882,2.038709 -0.638476,3.133914 -1.574618,3.133914 -0.366162,0 -0.578492,-0.126802 -1.026881,-0.613247 z m 17.830109,2.092307 c -1.206029,-0.495941 -1.250557,-0.553309 -1.138817,-1.467181 0.05252,-0.429521 0.279952,-1.536032 0.505411,-2.458913 0.894352,-3.660898 0.651262,-4.783807 -1.195647,-5.523068 l -0.719284,-0.287907 0.978814,0.05297 c 1.236119,0.06689 1.979866,0.433904 2.972179,1.46666 0.926094,0.963838 1.912947,2.904704 2.217528,4.361262 0.382037,1.826965 -0.0066,3.510287 -0.919305,3.982288 -0.608526,0.314681 -1.759675,0.260932 -2.700879,-0.126109 z m -8.509917,19.992571 c -0.621487,-0.42231 -1.514318,-1.74065 -1.680878,-2.48195 -0.252712,-1.12474 0.303455,-3.76163 1.073201,-5.08824 0.443147,-0.76374 1.330885,-1.54606 1.947636,-1.71635 0.882933,-0.24379 1.846797,0.18956 2.770677,1.2457 0.741227,0.84733 0.894199,0.71199 0.659314,-0.58332 -0.107163,-0.59096 -0.1053,-0.89922 0.0067,-1.10848 0.454731,-0.84968 1.026661,0.64421 1.019731,2.66355 -0.0041,1.20695 -0.07303,1.67973 -0.387112,2.65678 -0.675411,2.10108 -1.891373,3.90218 -3.024823,4.48042 -0.766183,0.39088 -1.75035,0.36277 -2.384443,-0.0681 z m -19.967006,0.60739 c -1.238379,-0.3786 -2.326695,-1.58121 -2.768568,-3.05933 -0.33492,-1.12035 -0.302809,-3.03998 0.07139,-4.26757 0.32044,-1.05125 1.064299,-2.39756 1.699685,-3.07627 0.215992,-0.23072 0.43348,-0.59302 0.483307,-0.80511 0.161149,-0.68593 0.788202,-1.24173 1.487565,-1.31853 0.529682,-0.0582 0.784217,0.0144 1.67343,0.4774 0.576801,0.30031 1.579922,0.87343 2.229158,1.27362 0.649236,0.40019 1.247012,0.70489 1.32839,0.67712 0.08712,-0.0297 0.141238,-0.44768 0.131611,-1.01648 -0.01375,-0.81256 -0.108141,-1.1688 -0.594279,-2.24293 -0.755524,-1.66934 -0.740224,-2.07175 0.09187,-2.41641 0.978846,-0.40545 3.163634,1.07802 4.057463,2.75501 0.625039,1.17269 0.876202,2.26507 0.880488,3.82948 0.0111,4.05357 -2.328489,7.51538 -5.560789,8.22809 -0.37191,0.082 -1.173396,0.33964 -1.781079,0.57252 -1.218471,0.46695 -2.645854,0.62901 -3.429639,0.38939 z m 0.82901,21.95649 c -1.574625,-0.13378 -3.210045,-0.53334 -6.0476699,-1.47751 l -2.342161,-0.77932 0.00243,-0.99845 c 0.00349,-1.4331 0.3267818,-2.78183 0.9934881,-4.14464 0.8130692,-1.66198 2.4826988,-3.32521 4.1778128,-4.1618 1.881026,-0.92833 3.083693,-1.19326 5.243644,-1.15508 4.650202,0.0822 4.354498,0.0958 4.779287,-0.22031 0.547373,-0.40737 0.587764,-1.08027 0.120226,-2.00291 -0.197853,-0.39044 -0.317961,-0.7099 -0.266906,-0.7099 0.266511,0 1.351672,1.08307 1.923116,1.9194 2.643721,3.86922 1.596867,9.57482 -2.189878,11.93534 -0.401639,0.25037 -1.012553,0.63607 -1.357586,0.8571 -1.241642,0.79543 -2.956007,1.11478 -5.035801,0.93808 z m 19.258422,2.53466 c -1.536076,-0.49095 -2.235347,-1.35116 -2.218882,-2.72956 0.02281,-1.90977 1.975507,-4.79989 4.55118,-6.73606 0.914228,-0.68724 2.316297,-1.44777 2.66901,-1.44777 0.421113,0 1.468101,1.14754 1.963602,2.15219 0.622024,1.26118 0.818649,2.4234 0.623362,3.68458 -0.571544,3.69109 -4.241468,6.1463 -7.588272,5.07662 z m -1.04972,22.8448 c -0.808001,-0.40264 -1.351284,-0.97285 -1.72161,-1.80692 -0.429161,-0.96659 -0.459038,-1.81856 -0.13506,-3.85139 0.44667,-2.80268 0.893867,-4.34196 1.784697,-6.14304 0.669433,-1.35346 0.959092,-1.7698 1.850706,-2.66012 1.425416,-1.42335 2.0803,-1.73167 3.503159,-1.64931 1.38618,0.0803 2.399502,0.55185 3.272806,1.52317 1.017436,1.13164 1.262703,1.94033 1.268084,4.18111 0.0052,2.18089 -0.237395,3.18809 -1.22837,5.09914 -0.543562,1.04823 -1.334894,1.98297 -3.650329,4.31185 -1.318477,1.32613 -3.428165,1.75093 -4.944083,0.99551 z m -22.653141,-3.5489 c -2.769183,-0.74865 -4.9297915,-2.63688 -5.644367,-4.93282 -0.3425173,-1.10051 -0.3639989,-4.64265 -0.037735,-6.2222 0.3800457,-1.83991 1.2632735,-3.19733 2.5057779,-3.85107 0.8546871,-0.44969 2.2531383,-0.40778 3.4258471,0.10267 0.499894,0.21759 1.07461,0.39592 1.277147,0.39628 0.202536,3.6e-4 1.068285,-0.26172 1.923886,-0.58241 0.8556,-0.32068 1.842626,-0.62239 2.193389,-0.67047 l 0.637752,-0.0874 0.947949,0.96884 c 0.714387,0.73013 1.107989,1.295 1.597497,2.29259 0.86051,1.75367 1.089483,2.66937 1.170166,4.67967 0.07617,1.89788 -0.126869,3.07241 -0.743516,4.30104 -0.844857,1.68333 -1.965283,2.60887 -4.045269,3.34161 -1.653619,0.58254 -3.654404,0.68383 -5.208524,0.26368 z" /></g></svg>