<?xml version="1.0" encoding="UTF-8" standalone="no"?>
<!-- Created with Inkscape (http://www.inkscape.org/) -->

<svg
   xmlns:dc="http://purl.org/dc/elements/1.1/"
   xmlns:cc="http://creativecommons.org/ns#"
   xmlns:rdf="http://www.w3.org/1999/02/22-rdf-syntax-ns#"
   xmlns:svg="http://www.w3.org/2000/svg"
   xmlns="http://www.w3.org/2000/svg"
   xmlns:sodipodi="http://sodipodi.sourceforge.net/DTD/sodipodi-0.dtd"
   xmlns:inkscape="http://www.inkscape.org/namespaces/inkscape"
   version="1.1"
   id="svg109"
   xml:space="preserve"
   width="135.78313"
   height="336.47852"
   viewBox="0 0 135.78313 336.47852"
   sodipodi:docname="1_1.svg"
   inkscape:version="0.92.4 (5da689c313, 2019-01-14)"><metadata
     id="metadata115"><rdf:RDF><cc:Work
         rdf:about=""><dc:format>image/svg+xml</dc:format><dc:type
           rdf:resource="http://purl.org/dc/dcmitype/StillImage" /><dc:title></dc:title></cc:Work></rdf:RDF></metadata><defs
     id="defs113" /><sodipodi:namedview
     pagecolor="#ffffff"
     bordercolor="#666666"
     borderopacity="1"
     objecttolerance="10"
     gridtolerance="10"
     guidetolerance="10"
     inkscape:pageopacity="0"
     inkscape:pageshadow="2"
     inkscape:window-width="1217"
     inkscape:window-height="812"
     id="namedview111"
     showgrid="false"
     fit-margin-top="0"
     fit-margin-left="0"
     fit-margin-right="0"
     fit-margin-bottom="0"
     inkscape:zoom="1.2642212"
     inkscape:cx="88.7658"
     inkscape:cy="185.16805"
     inkscape:window-x="75"
     inkscape:window-y="14"
     inkscape:window-maximized="0"
     inkscape:current-layer="g117" /><g
     id="g117"
     inkscape:groupmode="layer"
     inkscape:label="Plantos_Test2"
     transform="matrix(1.3333333,0,0,-1.3333333,-311.30926,1029.3183)"><g
       id="g119"
       transform="matrix(610.6,0,0,789.1,0.7,1.4)"><path
         style="fill:#000000;stroke-width:0.48000872"
         d="M 70.833984,0 C 64.185778,0.63443638 67.423637,2.8091949 61.091797,0.00585938 49.737242,0.39064553 74.585379,15.381868 71.158203,1.5214844 Z m -9.43164,1.8847656 c 0.491001,5.904e-4 0.888682,0.3545701 0.888672,0.7910156 1e-5,0.436446 -0.397671,0.7904253 -0.888672,0.7910157 -0.491764,3.68e-4 -0.890634,-0.353892 -0.890625,-0.7910157 -9e-6,-0.4371233 0.398861,-0.7913836 0.890625,-0.7910156 z m 7.316406,0.9882813 c 0.601421,-1.338e-4 1.088793,0.4434893 1.087891,0.9902343 -2.85e-4,0.5459827 -0.48731,0.9884144 -1.087891,0.9882813 -0.600581,1.331e-4 -1.087606,-0.4422986 -1.087891,-0.9882813 -9.02e-4,-0.546745 0.48647,-0.9903681 1.087891,-0.9902343 z M 57.400391,8.6113281 c -8.789628,4.9734339 6.820915,14.8421039 8.740234,7.2851559 4.281527,9.410281 20.544879,-0.694436 7.648437,-5.851562 C 68.103161,8.8307594 62.565246,11.730903 57.400391,8.6113281 Z m 2.814453,4.0507809 c 0.928422,-2.85e-4 1.681359,0.508669 1.68164,1.136719 0.0013,0.628813 -0.75209,1.138958 -1.68164,1.138672 -0.92955,2.87e-4 -1.682956,-0.509859 -1.681641,-1.138672 2.81e-4,-0.62805 0.753219,-1.137005 1.681641,-1.136719 z m 11.503906,0.550782 c 6.000977,2.282077 -5.370837,2.922826 0,0 z m -2.640625,8.470703 c -4.96804,4.075272 -7.757699,4.498026 -13.980469,1.296875 -11.328984,6.277027 9.411703,20.702181 12.626953,6.488281 7.525849,4.651481 -1.467017,5.648914 -1.326171,11.341797 -5.913865,-6.777843 -25.373423,-5.687308 -18.449219,8.246094 9.019532,5.074439 -7.634301,15.928431 4.423828,21.177734 -10.224538,7.067179 3.867167,24.712027 11.132812,12.521484 3.99251,7.736337 13.076592,15.591074 2.501953,21.136721 -7.007242,16.6821 28.623529,16.47003 22.423829,0.78125 C 86.641361,97.850732 69.173664,98.178158 80.779297,92.839844 88.782221,82.311041 60.160626,78.449054 77.423828,79.324219 84.852795,75.741705 75.599492,69.54843 83.087891,66.478516 80.619438,59.99001 75.46755,54.784299 70.400391,49.734375 62.380363,44.154912 64.786947,58.988572 57.984375,51.996094 60.795577,46.872205 62.665626,44.825281 68.023438,45.150391 67.750198,35.969475 79.453985,58.051594 83.541016,43.349609 82.794708,35.535415 72.643858,36.325681 80.5,29.474609 79.863527,23.947753 73.983034,21.608892 69.078125,21.683594 Z m 4.441406,4.226562 c 4.588456,3.071177 -2.518928,6.567416 0,0 z m -16.058593,2.9375 c 5.577621,0.265317 -1.01034,4.782998 0,0 z m 18.019531,9.539063 c 8.267192,5.305908 -4.748026,8.06881 0,0 z m -19.988281,2.419922 c 5.694856,7.078753 -9.128438,9.351507 -2.279297,1.412109 l 1.246093,-1.001953 z m 13.388671,12 c 6.135309,3.723499 -1.382398,11.020991 0,0 z m -10.414062,3.527343 c 10.119752,5.58262 -10.933986,16.022996 -4.353516,2.847657 0.529122,-2.069547 2.840856,-2.013315 4.353516,-2.847657 z m 7.914062,6.117188 c 4.315721,1.693934 11.915665,0.444743 7.578125,4.734375 -8.543916,-4.02441 -1.009508,10.987966 -8.642578,1.480469 -3.474721,-1.216266 1.545036,-3.822293 1.064453,-6.214844 z m 9.625,0.0039 c 6.678336,1.626598 -1.15037,3.496239 0,0 z m -3.296875,8.269531 c 6.752422,0.65549 1.231784,8.989427 0,0 z m -7.5625,3.203125 c 1.942522,4.040192 -1.804119,5.604715 0,0 z m -7.40625,1.203125 c 6.342099,4.365301 -7.065857,1.353044 0,0 z m -0.96875,5.082032 c 2.001954,2.242096 -4.607174,1.737072 0,0 z m 16.779297,4.46875 c 10.085809,1.853859 -4.536116,13.29438 -1.77539,0.736328 0.155735,-0.801431 1.237248,-0.646781 1.77539,-0.736328 z m -30.529297,5.939453 c -18.041671,0.439273 -9.089168,25.260296 6.199219,23.746096 8.742408,14.08764 20.649113,-8.058 9.1875,-14.652346 3.644061,-8.585408 -7.99033,-8.535894 -13.556641,-9.058594 -0.638857,-0.03827 -1.248088,-0.04933 -1.830078,-0.03516 z m 3.347657,4.066406 c 16.894562,1.255195 -2.445945,23.75725 -8.107422,9.07031 -3.25979,-5.595212 3.386263,-9.188149 8.107422,-9.07031 z m 31.939453,6.62109 c 15.512246,0.30124 -0.466559,19.00192 -7.054688,8.27149 -0.571969,-4.16459 4.820193,-7.50659 7.054688,-8.27149 z m -20.484375,4.98633 c 5.215332,7.35967 -10.006704,10.49812 -1.115235,4.36524 -0.142961,-1.74339 -1.059315,-3.16581 1.115235,-4.36524 z m -15.257813,9.07031 c -15.036629,4.03073 -12.617452,22.77561 1.449219,25.57618 8.596841,3.87606 12.598354,-9.94171 19.099609,0.97461 2.160779,0.71647 3.850772,0.15043 5.310547,-0.82227 2.089378,3.84377 8.519198,10.64675 2.757813,8.63477 -2.852723,-2.71661 -15.684606,-13.06924 -8.582032,-4.35547 0.629548,4.79916 7.587928,6.86368 11.285157,8.66211 l 3.226562,-2.11914 c 0.388684,-6.94277 -2.395172,-10.19453 -3.595703,-10.90821 -1.239585,-1.21044 -1.824457,-1.85408 -2.404297,-2.16992 2.326532,-2.1772 4.344999,-3.84535 7.507813,0.61719 18.450371,1.36988 6.941563,-24.05873 -6.660156,-18.3125 0.554264,7.40702 -0.953918,9.64413 -8.083985,3.83008 -4.281798,0.0795 10.957579,15.51145 -0.863281,10.65039 0.62702,-7.39347 -7.713982,0.98845 -7.832031,-8.91016 -2.17455,-4.70514 -6.494475,-11.3386 -12.615235,-11.34766 z m 1.822266,4.74415 c 13.808102,3.99699 4.694978,23.03459 -7.298828,12.20898 -2.218514,-5.11968 3.106855,-10.22714 7.298828,-12.20898 z m 34,4.29687 c 11.961159,-0.054 0.08013,17.94436 -1.238281,6.40625 0.429496,-1.74654 -0.761703,-5.38989 1.238281,-6.40625 z m -29.246094,19.34766 c -18.615698,0.5952 -7.751205,15.87915 1.835938,15.85156 10.23414,3.22133 -4.539504,2.89351 -7.142578,3.01953 -6.885691,0.32446 -18.290468,-1.26333 -26.765626,-1.2168 -3.843028,-1.67521 -6.50098,0.6642 -7.1035151,3.20899 -6.1944925,1.52983 -11.037277,14.79371 -5.546875,17.82617 -3.91272365,7.86049 2.3072733,12.93928 5.1542969,7.87305 3.3027672,10.95595 25.2298962,1.18445 35.8750002,-4.48243 -2.241113,2.89802 14.988728,0.52783 17.103515,-5.5996 7.559228,-9.85323 -20.26434,-12.89013 -3.804687,-17.08204 0.469306,3.29232 6.255153,12.26766 11.865234,11.875 -3.691628,8.71653 10.521515,22.29071 12.308594,25.37305 -7.175771,-3.6509 -22.637151,-4.23973 -13.173828,7.20117 10.500293,11.1166 31.089073,27.9398 45.679683,18.00782 2.34142,-1.69015 14.66363,-11.90402 8.54297,-19.92969 -8.56582,-7.61113 -23.78332,-0.053 -34.681638,-4.55469 -0.03747,0.32226 13.198978,-4.09335 16.394528,-5.02344 9.21502,4.3895 24.3884,-8.06557 22.87696,-19.23828 2.35528,-9.92898 0.73686,-8.94081 -7.12891,-11.67383 v 0.002 c -7.95408,5.12915 -22.800265,3.73182 -33.484374,4.77343 -3.158329,0.0234 -8.22571,-0.43707 -11.351563,-0.24218 3.302087,-9.5668 -18.104098,-14.41928 -17.195312,-15.96485 1.928681,-2.77026 5.294548,-3.46596 -0.28711,-5.05469 -0.210585,-3.78408 -4.989329,-5.05501 -9.970703,-4.94921 z m -0.271484,5.84375 c 11.939437,0.0425 -3.441483,10.48379 -6.904297,0.70703 2.935134,-0.50766 5.198662,-0.71311 6.904297,-0.70703 z m 15.001953,10.72656 c 6.996662,2.93861 12.201311,4.89112 2.457031,7.58984 -2.444028,-1.1363 -2.209535,-5.34985 -2.457031,-7.58984 z m -40.753906,5.08984 c 7.071021,0.15813 20.714097,2.77341 23.96289,0.5918 4.922078,5.89992 17.52336,11.83134 3.378907,16.99219 h -0.002 c -8.522341,-3.9171 -30.489086,11.67726 -36.912109,8.57031 9.83448,-3.40576 -4.7403559,-3.65944 2.757813,-9.54297 2.219321,-4.94397 1.710427,-13.67238 3.763671,-16.41992 0.745339,-0.16861 1.793042,-0.21953 3.050782,-0.19141 z M 11.40625,168.6543 c 9.17503,2.50352 -1.04211,14.17247 -2.4375,14.38086 -3.393368,-4.14207 -0.6549484,-9.60602 2.4375,-14.38086 z m 106.01758,3.57422 c 1.20654,3.13956 -5.69808,11.19324 -8.49024,14.94336 -1.43776,5.21431 -11.864194,5.73465 -16.626949,8.23242 -11.107872,4.83139 -18.9083,-13.6354 -17.455079,-20.09571 14.273956,-0.0832 28.454138,-1.02991 42.572268,-3.08007 z m 7.02539,0.63281 c 2.42123,6.40749 -8.02325,18.35473 -10.0918,16.98633 4.16999,-5.23016 5.70948,-11.96681 10.0918,-16.98633 z m -79.466798,18.90625 c -0.660341,-0.0118 -1.313186,-0.0104 -1.953125,0.008 -4.654101,0.12623 -8.649115,1.01896 -10.244141,2.60547 -13.488996,-1.64157 -12.736434,14.83346 -16.992187,24.41211 -7.6463397,9.65332 9.948892,10.53172 15.751953,9.74609 -10.965528,17.56279 -11.601154,23.7811 -3.566406,40.25977 -7.045197,-0.87042 -10.253651,19.5783 -1.197266,19.08789 -2.892859,2.36069 -6.321935,4.49725 -9.414062,7.24219 -4.325491,7.93203 -5.356845,14.54742 -1.976563,22.15234 1.182936,7.07139 9.534475,14.83087 17.609375,14.30859 7.573068,-1.31095 -0.694749,-11.87712 6.316406,-14.83593 9.847105,-9.001 12.025478,-22.854 19.826172,-33.33203 2.430188,-7.81525 5.518174,-16.41832 10.054688,-22.72071 4.191966,12.98385 -2.358641,23.03352 -9.779297,33.03321 -3.95506,8.4917 -20.383542,19.65617 -12.97461,28.38867 -9.5764,8.90946 11.222207,18.75964 17.728516,11.29297 5.409102,-5.47005 8.62969,-12.13683 12.503906,-18.76758 0.856468,6.16971 11.532627,20.11324 23.335939,18.19531 11.46495,2.35047 20.74436,-3.56618 24.19336,-15.42187 6.17823,-10.543 0.30007,-19.26846 -5.13867,-19.94727 3.98591,-7.4318 2.36462,-13.32649 1.1289,-15.5 15.5113,1.4324 6.3148,-19.74016 14.37696,-28.30273 4.46633,-13.29655 -5.58364,-6.37873 -11.04297,-5.04883 -13.87975,-3.64249 -26.6293,-11.28996 -38.070316,-19.55078 0.106296,-0.007 0.225567,-0.008 0.333985,-0.0137 -4.757128,-3.4603 -8.854068,-5.82272 -13.908203,-7.22656 -1.05307,-3.89649 -3.426602,-6.22675 -8.736328,-3.33203 -8.157128,4.34531 -22.286277,12.27415 -27.949219,9.06641 8.027348,-7.67426 25.907273,-11.9682 29.591797,-24.74805 1.787615,-7.39881 -9.903478,-10.87403 -19.808594,-11.05078 z m -8.962891,3.96875 c 24.281009,3.51988 28.41073,15.46087 1.125,24.06055 -2.429499,-6.61851 7.317868,-16.83009 -1.125,-24.06055 z m -3.164062,1.28906 c 8.376774,5.91299 -0.0923,22.5682 -7.052735,26.9375 -14.608313,3.19323 4.320194,-14.85892 0.212891,-22.29687 -0.36899,-3.97812 3.886982,-4.54678 6.839844,-4.64063 z m 54.318359,3.67773 c 1.494749,0.59235 -2.073597,0.26415 0,0 z m -15.68164,2.06446 c 13.769512,2.8639 27.691377,5.42488 41.822262,5.07031 -1.08035,14.29797 -15.874137,16.37508 -26.187497,9.24414 -4.723601,-5.04708 -12.935757,-7.81122 -15.634765,-14.31445 z m 48.537112,7.0332 c 2.08743,4.45999 -3.87772,0.41266 0,0 z m -3.99414,5.96289 c 0.62761,4.68094 -4.65523,12.45956 -5.9668,7.22656 1.80575,-2.55563 3.77515,-4.99183 5.9668,-7.22656 z m -51.978519,7.43945 c 0.842628,13.74087 -9.017208,23.63755 -18.34375,32.09376 -5.324432,9.88473 -4.402523,-5.23802 -7.441407,-7.73438 -3.064519,-2.31182 -12.752061,-6.5759 -4.685546,-11.20312 9.750705,-5.28592 20.842762,-7.4398 30.470703,-13.15626 z m 8.472656,2.68555 c 8.89041,8.91702 25.050015,14.92869 34.654293,20.92578 6.51714,4.00021 19.61286,3.27082 14.26563,14.64649 -7.02841,3.56252 0.59016,18.57056 -9.76563,11.52344 -11.46438,-4.05177 -26.09763,-8.33875 -31.353512,-20.43555 -1.830986,-6.47588 -9.330525,-10.57036 -7.632812,-17.9375 -0.02006,-2.3089 0.09286,-5.61054 -0.167969,-8.72266 z m -5.658203,7.1543 c -0.132948,7.52065 3.108409,16.74193 1.082031,23.02148 -6.405601,-0.48746 -6.469691,11.09452 -12.158203,8.42578 -2.900757,7.09454 -15.858161,17.9652 -20.84375,15.95899 2.593829,-4.87033 4.561317,-11.68969 -2.933594,-13.11133 9.741838,-5.11863 14.745206,-6.11588 23.728516,-15.76562 7.252293,-4.0665 9.727296,-10.83084 11.125,-18.5293 z m -37.763672,13.32812 c 5.59562,-0.0748 7.885468,6.76628 8.357422,11.37305 -10.389127,11.12944 -8.108311,-8.154 -10.369141,-11.07226 0.768829,-0.19698 1.432862,-0.29305 2.011719,-0.30079 z m 46.166016,3.75782 c 4.465515,14.7608 19.784233,21.11288 32.683592,26.35156 -2.42831,1.49597 -1.33421,12.63625 0.46485,17.42383 -5.38705,-2.30737 -10.804496,-5.33065 -15.812505,-6.8711 -5.484816,-2.65137 -14.62504,-12.0891 -17.126953,-10.02734 1.046975,-7.51223 -3.38202,-26.73302 -0.208984,-26.87695 z m 51.966792,4.46875 c 2.27388,5.26908 -3.81912,8.5601 -0.52734,0.38086 z m -1.14453,8.44531 c -0.22103,5.21016 -0.5246,22.11647 -5.47265,8.24609 0.69752,-3.48361 4.63817,-4.79615 5.47265,-8.24609 z m -95.962888,8.68164 c 1.017053,-0.0234 2.107024,0.69172 3.160157,2.47656 0.490812,5.68781 -1.684035,9.28116 -4.91211,12.29883 -5.18866,-2.86067 -2.297608,-14.68238 1.751953,-14.77539 z m 26.482422,1.72851 c 0.384141,11.65722 -8.812557,20.20393 -12.886718,30.08399 -2.13303,3.64038 -11.096763,18.03832 -9.69336,6.34375 5.699748,-7.38492 0.149561,-13.60272 -3.947265,-18.09375 8.705358,-6.28229 18.846083,-10.65352 26.527343,-18.33399 z m 57.976566,6.67383 c 2.04615,4.5e-4 3.70482,3.16129 3.70508,7.06055 2.9e-4,3.90002 -1.65853,7.06205 -3.70508,7.0625 -2.04731,0.002 -3.70734,-3.16103 -3.70703,-7.0625 2.6e-4,-3.90071 1.66012,-7.06215 3.70703,-7.06055 z m -38.646488,3.07422 c 9.881544,3.108 16.913476,12.6677 28.328128,14.41992 15.5488,4.61992 -8.004719,17.67376 -6.814456,27.63672 -22.859808,-7.30363 -18.175102,-19.42848 -21.591796,-36.41797 -0.03239,-1.87595 -0.267933,-3.77397 0.07812,-5.63867 z m -5.767578,1.67969 c 0.634902,12.10606 2.06081,25.42137 -3.40039,36.56641 -9.152894,2.45252 3.937955,-14.12691 -6.382813,-15.51172 3.254091,-6.22442 3.111387,-14.48738 9.783203,-21.05469 z m -43.972656,10.78516 c 10.167874,5.58051 -0.456264,18.59253 4.919922,27.99218 -1.801677,10.87212 -15.890313,-6.18968 -12.255859,-13.25781 -0.920785,-6.10553 4.148768,-10.48344 7.335937,-14.73437 z m 96.388672,9.05859 c 0.50872,-0.0377 0.9449,0.009 1.29102,0.15039 -2.8229,12.16183 -6.44686,16.76763 -14.26954,23.64648 -18.612156,-3.66365 5.34769,-23.23146 12.97852,-23.79687 z m -65.322266,3.45117 c 7.029227,3.94761 -1.32752,13.36048 2.78711,20.11328 -19.359403,7.64362 -6.569672,-18.75639 -2.78711,-20.11328 z m -32.878906,2.4707 c -6.499226,4.65464 1.510117,17.04565 2.246094,4.33399 -0.08887,-1.61082 -0.640761,-3.58066 -2.246094,-4.33399 z"
         transform="matrix(0.0012283,0,0,-9.504499e-4,0.38123477,0.97654131)"
         id="path123"
         inkscape:connector-curvature="0"
         sodipodi:nodetypes="cccccccccccccccccccccccccccccccccccccccccccccccccccccccccccccccccccccccccccscccsccccccccccccccccccccccccccccccccccccccccccccccccccccccccccccccccccccccccccccccccccccccccccccccccccccccccccccccccccccccccccccccccccccccccccccccccccccccccccccccccccccccccccccccccccccccccccccccccccccccccc" /></g><g
       id="g1109"
       style="fill:#fe00ff;fill-opacity:1" /><path
       id="path1128"
       transform="matrix(0.75000002,0,0,-0.75000002,233.48195,771.98874)"
       style="fill:#6600ff;fill-opacity:1;stroke-width:0;stroke-miterlimit:4;stroke-dasharray:none"
       d="m 69.615986,58.548433 c -0.09766,-0.158009 0.359579,-4.788133 0.472837,-4.788133 0.162346,0 0.85011,1.069199 1.05219,1.635736 0.372707,1.044897 0.19208,2.192314 -0.450738,2.863272 -0.355697,0.371267 -0.928283,0.525368 -1.074289,0.289125 z M 65.444799,167.15845 c -0.838689,-0.99672 -1.199376,-2.18359 -1.464814,-4.82008 -0.138524,-1.37591 -0.100157,-1.88771 0.141513,-1.88771 0.594385,0 6.285908,2.8006 6.939652,3.41476 1.240239,1.16514 0.502166,2.22974 -2.253205,3.25003 -2.638944,0.97718 -2.57774,0.9764 -3.363146,0.043 z m 6.113051,-17.33222 c -0.307627,-0.13283 -1.629025,-1.1415 -2.93644,-2.24149 -1.307416,-1.1 -3.100438,-2.52497 -3.984494,-3.16661 -1.131131,-0.82097 -1.586861,-1.32935 -1.538136,-1.71583 0.05969,-0.47348 0.300597,-0.55304 1.747206,-0.57704 1.012206,-0.0168 2.048898,-0.22317 2.612853,-0.52015 0.514188,-0.27077 0.963716,-0.45157 0.998951,-0.40177 3.803079,5.37464 5.388562,8.08483 5.050079,8.63251 -0.200605,0.32458 -1.1873,0.31972 -1.950019,-0.01 z m -6.540401,-13.48349 -1.226842,-0.27065 0.196854,-3.11099 c 0.10827,-1.71104 0.268069,-3.46706 0.355109,-3.90226 0.154914,-0.77457 0.179146,-0.75709 1.147576,0.82781 1.168806,1.91283 2.278047,4.46776 2.28136,5.25468 0.0052,1.23983 -0.863018,1.61859 -2.754057,1.20141 z M 55.477342,81.576285 c -0.358011,-0.239868 -0.32273,-0.362202 0.240728,-0.834701 0.803751,-0.674002 1.120517,-0.695964 1.351624,-0.09371 0.108057,0.281592 -0.02451,0.606911 -0.34189,0.838983 -0.61485,0.44959 -0.703449,0.455926 -1.250462,0.08943 z m 1.398305,-4.383353 c -1.550533,-0.570121 -1.54225,-1.560321 0.01591,-1.902552 0.987615,-0.216916 2.501035,0.727475 2.501035,1.560675 0,0.441806 -0.191143,0.536254 -1.048729,0.5182 -0.576801,-0.01214 -1.2375,-0.09149 -1.46822,-0.176323 z M 61.152344,1.9296875 c -0.567277,0.07392 -0.795387,0.6894813 -0.359375,1.2148437 0.395512,0.4765627 0.549932,0.5002224 1.074219,0.1679688 0.566072,-0.3587357 0.265578,-1.2766638 -0.451172,-1.3789062 -0.09394,-0.013401 -0.182633,-0.014466 -0.263672,-0.00391 z m 7.75,1.0117187 c -0.246578,-0.026816 -0.523112,0.036765 -0.796875,0.2285157 -0.698916,0.4895398 -0.78814,0.9511719 -0.183594,0.9511719 0.230721,0 0.419922,0.1872483 0.419922,0.4179687 0,0.5034641 0.595874,0.5506097 1.0625,0.083984 0.70515,-0.7051501 0.23778,-1.6011909 -0.501953,-1.6816403 z m -8.695313,9.7343748 c -0.234972,-7.64e-4 -0.468998,0.03634 -0.68164,0.117188 -1.01705,0.386682 -1.194001,1.098265 -0.427735,1.71875 0.350317,0.283669 0.861219,0.515625 1.134766,0.515625 0.781063,0 1.799089,-0.959807 1.591797,-1.5 -0.195456,-0.509348 -0.912271,-0.849269 -1.617188,-0.851563 z m 11.66211,0.701172 c -0.374788,-0.0084 -0.729489,0.137711 -1.058594,0.435547 -0.645638,0.584294 -0.654326,1.132464 -0.02148,1.310547 0.687723,0.193524 2.039011,-0.03737 2.511719,-0.429688 0.336504,-0.279273 0.296518,-0.408595 -0.253906,-0.832031 -0.40877,-0.314459 -0.802947,-0.475931 -1.177734,-0.484375 z m 1.798828,12.556641 c -0.428437,0 -0.887057,2.488493 -0.56836,3.083984 0.585753,1.094489 1.953125,0.488477 1.953125,-0.865234 0,-0.72584 -0.931611,-2.21875 -1.384765,-2.21875 z m -15.939453,2.871094 c -0.256377,-0.0062 -0.292969,0.199776 -0.292969,0.839843 0,0.523077 0.083,1.034176 0.185547,1.136719 0.303865,0.303865 1.353095,0.213311 1.714844,-0.148438 0.493086,-0.493086 0.41011,-1.284549 -0.152344,-1.441406 -0.269173,-0.07507 -0.77306,-0.218879 -1.119141,-0.318359 -0.141162,-0.04058 -0.250479,-0.06628 -0.335937,-0.06836 z m 17.861328,9.71289 c -0.442123,0 -1.095703,1.820271 -1.095703,3.052734 0,0.831849 0.156042,1.221133 0.621093,1.546876 0.72252,0.506072 1.042482,0.532016 2,0.167968 1.03194,-0.392342 1.420308,-1.272058 1.003907,-2.277344 -0.347528,-0.839008 -2.02447,-2.490234 -2.529297,-2.490234 z m -20.435547,2.414063 c -0.07499,-0.0057 -0.150779,-2.87e-4 -0.226563,0.01953 -0.89287,0.233491 -3.014667,2.714623 -3.388672,3.96289 -0.305455,1.01953 -0.286019,1.217715 0.16211,1.712891 1.058222,1.169323 3.910802,0.341006 4.832031,-1.404297 0.729223,-1.381539 -0.254077,-4.204821 -1.378906,-4.291014 z m 3.416015,15.544921 c -0.364175,-0.03372 -0.82466,0.145509 -1.777343,0.501954 -1.824103,0.682484 -2.43102,1.321728 -3.273438,3.451172 -0.889865,2.249352 -0.90419,3.980921 -0.03906,4.68164 1.339063,1.084589 3.956897,0.289209 6.099609,-1.853516 2.244561,-2.244561 2.303749,-4.145815 0.1875,-6.003906 -0.56614,-0.497078 -0.833077,-0.74361 -1.197266,-0.777344 z m 17.75,6.091797 c -0.645502,0 -0.515077,1.027229 0.19336,1.523438 0.931867,0.652706 2.175781,0.476067 2.175781,-0.308594 0,-0.40718 -1.575044,-1.214844 -2.369141,-1.214844 z m -3.242187,8.111329 c -0.626212,-10e-7 0.02338,2.772186 0.896484,3.824218 0.767013,0.924194 1.917969,0.190789 1.917969,-1.222656 0,-1.241969 -1.470308,-2.601562 -2.814453,-2.601562 z M 73.25,84.689453 c -0.574838,-0.01867 -1.036798,0.110199 -1.269531,0.390625 -0.503642,0.606852 -0.706523,3.873993 -0.300781,4.853516 0.185431,0.44767 0.612133,0.94495 0.947265,1.105468 1.641294,0.786135 4.407527,-1.336662 4.466797,-3.427734 0.03275,-1.15536 -0.444462,-1.765446 -1.900391,-2.427734 C 74.5116,84.873469 73.824838,84.708121 73.25,84.689453 Z M 46.109375,94.873047 c -2.43081,-0.0019 -2.999619,0.09233 -4.347656,0.724609 -2.104255,0.986976 -3.494019,2.269726 -4.058594,3.748047 -0.573496,1.501677 -0.398807,2.686557 0.720703,4.904297 1.074198,2.12797 2.11996,3.31677 3.478516,3.95508 1.442015,0.67752 3.763824,0.53771 5.464844,-0.33008 1.757234,-0.89647 4.082917,-3.20869 4.890624,-4.86328 1.612871,-3.30395 0.999572,-5.769831 -1.814453,-7.300782 -1.415957,-0.770359 -1.759518,-0.835891 -4.333984,-0.837891 z m 32.398437,6.443363 c -0.50929,0.0464 -0.935344,0.25891 -1.816406,0.72851 -3.027684,1.61374 -5.529545,4.63719 -5.546875,6.70117 -0.01013,1.20609 1.320342,2.70328 3.208985,3.61133 1.621819,0.77976 3.322657,0.7005 5.314453,-0.25 2.910976,-1.38914 5.173828,-4.27002 5.173828,-6.58594 0,-2.18704 -1.591462,-3.54759 -4.740235,-4.05468 -0.429817,-0.0692 -0.759294,-0.12061 -1.037109,-0.14453 -0.208361,-0.0179 -0.386867,-0.0213 -0.556641,-0.006 z m -21.017578,5.19531 c -0.677198,-0.0103 -1.259462,1.12459 -1.041015,2.71289 0.185223,1.34673 0.173063,1.37993 -0.955078,2.27344 -1.240324,0.98235 -1.818305,1.82299 -1.550782,2.25586 0.231187,0.37406 0.539746,0.3447 1.748047,-0.16016 2.699528,-1.12794 3.92143,-3.95968 2.714844,-6.29297 -0.280967,-0.54333 -0.608198,-0.78437 -0.916016,-0.78906 z m -12.855468,13.78711 c -0.459548,0.006 -0.902165,0.15371 -1.431641,0.42383 -1.503836,0.7672 -4.644884,3.73225 -5.5,5.1914 -0.95506,1.62968 -1.378379,3.9096 -0.992187,5.34375 0.34028,1.2637 1.689506,2.40164 4.27539,3.60547 1.03731,0.48291 1.974678,0.69331 3.103516,0.69531 2.918687,0.005 5.002255,-1.29591 6.330078,-3.95312 1.868487,-3.73918 0.732035,-7.73741 -2.857422,-10.05859 -1.347879,-0.87179 -2.161822,-1.25757 -2.927734,-1.24805 z m 34.267578,4.12305 c -1.417663,0.003 -1.658428,0.87652 -1.673828,4.36718 -0.01465,3.32137 0.340965,4.86407 1.265625,5.51172 0.820449,0.57467 1.350743,0.5289 2.43164,-0.20898 1.275648,-0.87082 2.52323,-3.19333 2.69336,-5.01758 0.248133,-2.66065 -1.157308,-4.26463 -4.035157,-4.60547 -0.253363,-0.03 -0.479117,-0.0474 -0.68164,-0.0469 z m -29.761719,25.17773 c -2.52215,-0.0103 -7.087891,0.48656 -7.087891,0.83398 0,1.10331 1.959167,3.17256 3.535157,3.73438 1.42322,0.50741 2.486357,0.50225 4.25,-0.0215 1.761933,-0.52324 3.402343,-1.87636 3.402343,-2.80664 0,-0.95001 -1.025245,-1.50163 -3.162109,-1.70117 -0.25766,-0.0241 -0.577193,-0.0376 -0.9375,-0.0391 z m 68.291015,22.59766 c -0.0716,0 -1.4877,0.18453 -3.14648,0.41015 -9.48851,1.29056 -18.173579,1.98851 -30.351566,2.43946 l -9.160156,0.33789 0.0039,1.9707 c 0.01584,7.55474 5.642969,16.57512 11.542968,18.50391 1.643659,0.53725 4.20124,0.31936 6.212891,-0.52735 0.922881,-0.38844 3.627608,-1.29295 6.011719,-2.00976 5.572044,-1.67529 7.817194,-2.70643 9.234374,-4.24415 0.61282,-0.66483 1.11328,-1.3473 1.11328,-1.51757 0,-0.17027 0.98631,-1.58878 2.1914,-3.15235 4.46127,-5.7884 6.45591,-9.27391 6.47071,-11.30273 0.004,-0.4999 -0.0514,-0.9082 -0.12305,-0.9082 z m -80.988281,23.55859 c -0.208939,0.0192 -0.02024,0.2743 0.681641,1.13086 2.72177,3.32156 2.970344,6.41593 1.068359,13.27148 -1.272585,4.58691 -1.639272,6.95992 -1.332031,8.59766 0.229057,1.22098 0.183204,1.22538 4.353516,-0.33398 8.977603,-3.35715 14.069222,-7.2362 14.703125,-11.20118 0.716448,-4.4813 -5.88381,-8.92418 -16.101563,-10.83593 -1.307415,-0.24462 -2.673089,-0.50769 -3.035156,-0.58399 -0.153628,-0.0324 -0.268244,-0.0513 -0.337891,-0.0449 z m 35.34961,7.22461 c -0.06267,0.004 -0.0957,0.0137 -0.0957,0.0312 0,0.46904 0.796367,1.79968 1.78125,2.97851 1.385416,1.65823 3.44973,3.37214 7.308593,6.06836 1.845763,1.28966 4.208432,3.10437 5.251953,4.03125 2.709007,2.40619 6.709014,4.22613 10.6875,4.86524 1.677923,0.26955 5.876745,-0.0773 7.435545,-0.61524 2.3451,-0.80928 3.29086,-1.36997 4.92969,-2.91992 1.89123,-1.78864 3.01747,-3.75626 3.7207,-6.50586 0.88107,-3.44495 1.51076,-3.09846 -5.94727,-3.28125 -8.796013,-0.21559 -18.072276,-1.40972 -30.482415,-3.92578 -2.254329,-0.45706 -4.151145,-0.75347 -4.589843,-0.72656 z M 63.998047,223.375 c -0.127852,0 -1.437993,0.61975 -2.912109,1.37695 -3.162711,1.62457 -6.788985,3.12772 -14.417969,5.98243 -11.436378,4.27903 -15.009478,6.16944 -15.957031,8.4375 -0.80633,1.92976 0.413173,3.58345 4.910156,6.6621 3.452614,2.36368 3.733527,2.8103 4.878906,7.76758 0.411605,1.78146 0.994342,3.6451 1.296875,4.14258 0.739274,1.21564 1.534149,1.06983 2.623047,-0.48242 0.467076,-0.66582 3.059731,-3.43427 5.759766,-6.15234 7.914077,-7.96727 11.357093,-13.17877 13.152343,-19.9043 0.58712,-2.19951 1.065859,-7.83008 0.666016,-7.83008 z m 8.501953,2.4043 0.08789,6.83789 0.08789,6.83789 0.853516,1.67773 c 0.468926,0.92288 1.892911,3.14932 3.164062,4.94727 1.346632,1.90471 2.709831,4.22981 3.267579,5.57226 1.285455,3.09411 2.443058,4.94399 4.515624,7.21485 4.365468,4.7831 10.172422,8.04966 21.619139,12.1582 2.84555,1.02134 5.552,2.06961 6.01368,2.33008 0.46144,0.26047 1.27806,0.69314 1.8164,0.96289 1.29079,0.64679 2.39298,0.63828 3.05664,-0.0254 0.55609,-0.55608 0.6281,-0.92634 1.13086,-5.89258 0.34382,-3.3961 1.21206,-5.56111 2.54688,-6.34961 1.60479,-0.94797 2.55822,-5.63645 1.54101,-7.57812 -0.98627,-1.88258 -3.24431,-3.3005 -7.43555,-4.66993 -4.01181,-1.31087 -6.38905,-2.33279 -9.05273,-3.89453 -1.40478,-0.82365 -6.077986,-3.32135 -10.384766,-5.54882 -12.680071,-6.5584 -17.239642,-9.38669 -21.482422,-13.32813 z m -5.646484,7.56836 -0.78125,3.10937 c -1.723462,6.85854 -4.619887,11.42743 -9.056641,14.28516 -0.615255,0.39628 -2.506717,2.04592 -4.203125,3.66601 -4.285768,4.09297 -7.13488,6.00391 -14.324219,9.61133 -3.421881,1.71702 -6.222185,3.21667 -6.222656,3.33203 -4.7e-4,0.11535 0.192839,0.20899 0.429687,0.20899 0.754921,0 2.551038,1.06563 3.302735,1.95898 1.7072,2.02889 1.545913,5.66037 -0.425781,9.58594 -0.292358,0.58208 -0.445556,1.19734 -0.341797,1.36523 0.120214,0.19453 0.754752,0.24551 1.751953,0.14258 3.354986,-0.34626 8.56579,-3.69794 13.238281,-8.51758 2.341648,-2.4154 5.537109,-6.65546 5.537109,-7.34765 10e-7,-0.12338 0.391486,-0.11216 0.871094,0.0254 1.020828,0.29277 2.328144,-0.1599 3.16211,-1.09571 0.296499,-0.33271 1.304272,-1.75419 2.238281,-3.1582 1.98078,-2.97753 3.26948,-4.12777 4.865234,-4.3418 1.101892,-0.1478 1.1451,-0.1932 1.431641,-1.52929 0.471089,-2.19662 0.337423,-5.86323 -0.410156,-11.27735 -0.382293,-2.76865 -0.777636,-6.15742 -0.878907,-7.52929 z m 8.15039,16.93945 c -0.11937,0.0266 -0.245215,0.14352 -0.388672,0.33789 -0.58104,0.78725 -0.510713,5.84177 0.173828,12.46094 0.310211,2.99936 0.641609,7.30937 0.736329,9.57812 l 0.171875,4.125 h 0.742187 c 1.278647,0 3.546388,1.35791 8.837891,5.28711 5.642757,4.19002 6.212145,4.52647 10.470703,6.19141 1.615043,0.63142 5.012853,2.13611 7.550783,3.34375 2.53792,1.20764 4.72411,2.20509 4.85742,2.21679 0.1333,0.0119 0.15746,-0.26329 0.0547,-0.60937 -0.80114,-2.69792 -1.32389,-6.17488 -1.46094,-9.7168 -0.15469,-3.99808 -0.0865,-4.5332 0.85352,-6.72265 0.14512,-0.33802 -0.46102,-0.68882 -2.82813,-1.63672 -8.145928,-3.26199 -15.955444,-7.66649 -20.492187,-11.55664 -3.62925,-3.11201 -7.133578,-7.99238 -8.28125,-11.53321 -0.369906,-1.14124 -0.62098,-1.68412 -0.880859,-1.76171 -0.03898,-0.0116 -0.0774,-0.0128 -0.117188,-0.004 z m -18.408203,23.06055 -1.607422,1.5332 c -2.137996,2.03648 -6.466328,5.22566 -10.419922,7.67969 -1.768154,1.0975 -5.353919,3.32171 -7.96875,4.94336 -2.61483,1.62165 -5.150672,3.24556 -5.634765,3.60742 l -0.878906,0.6582 1.55664,1.80859 c 5.179837,6.01794 6.054911,10.53326 2.982422,15.4004 -0.524183,0.83036 -0.681641,1.46233 -0.681641,2.74023 0,0.91335 0.07656,1.86022 0.169922,2.10352 0.363958,0.94846 1.56951,0.4952 3.234375,-1.2168 1.980111,-2.03616 5.805696,-7.76492 7.205078,-10.78711 0.569769,-1.23051 2.514232,-4.67836 4.320313,-7.66211 3.561666,-5.88408 5.104956,-8.78985 6.175781,-11.63477 0.894301,-2.37594 1.546875,-5.57602 1.546875,-7.58007 z m 19.646485,9.97851 c -0.253648,0.0217 -0.340843,0.28363 -0.462891,1.04688 -0.21014,1.31415 -0.07672,2.92917 0.6875,8.35742 0.292339,2.07648 0.730539,5.59978 0.974609,7.83008 1.039423,9.49818 2.498814,13.36278 6.544922,17.33984 2.507875,2.46508 5.46813,4.3028 9.691406,6.01563 1.677412,0.68031 3.188533,1.24109 3.359375,1.24609 0.170842,0.005 0.388312,-0.65124 0.482422,-1.45899 0.25676,-2.20305 2.036653,-5.48553 5.193359,-9.57812 6.97709,-9.04554 7.97772,-11.38303 6.00586,-14.0332 -0.85716,-1.15201 -2.8968,-2.08644 -6.52344,-2.99024 -4.028247,-1.00389 -7.488955,-2.77932 -14.277341,-7.32617 -5.022902,-3.36434 -9.467335,-5.86803 -11.359375,-6.40039 -0.129411,-0.0364 -0.231864,-0.0561 -0.316406,-0.0488 z m -6.333985,1.9336 c -0.297123,0.007 -0.803776,0.70409 -1.736328,1.91601 -1.912217,2.48507 -3.038698,4.98257 -5.300781,11.74805 -1.149692,3.43852 -2.161607,6.45368 -2.248047,6.70117 -0.115786,0.33153 0.06945,0.49631 0.703125,0.62305 3.029217,0.60584 3.750731,3.27656 2.541016,9.41406 -0.831582,4.21893 -0.713558,5.48705 0.558593,5.96875 0.340534,0.12895 2.267103,-0.022 2.417969,-0.18945 0.250651,-0.27818 1.639662,-4.02351 2.166016,-5.83985 1.317582,-4.5467 1.685005,-7.89506 1.697265,-15.46094 0.0062,-3.84534 -0.09494,-8.8507 -0.226562,-11.125 -0.152578,-2.63624 -0.190251,-3.76546 -0.572266,-3.75585 z M 14.227342,191.7842 c -0.487283,-0.19937 -0.397234,-0.30022 0.699152,-0.78309 0.692161,-0.30483 1.489036,-0.81211 1.770832,-1.12727 0.503425,-0.56304 0.485142,-0.60263 -1.048729,-2.2711 -1.976793,-2.15026 -2.015841,-2.74174 -0.312722,-4.73699 1.43899,-1.68582 1.643241,-2.28242 2.408087,-7.03374 1.157113,-7.18813 1.400931,-8.4201 1.854774,-9.37182 l 0.46525,-0.97564 2.954559,0.005 c 1.625008,0.003 5.345661,0.24598 8.268119,0.54 8.559037,0.86111 11.726701,0.96993 13.983051,0.48038 l 1.957627,-0.42473 0.699152,0.78135 c 0.384534,0.42974 2.165709,2.11885 3.958166,3.75357 1.792456,1.63472 3.648706,3.56055 4.125,4.27962 1.984964,2.99675 0.677347,5.43478 -4.031904,7.51744 -1.202702,0.53189 -1.678931,0.61677 -2.247543,0.40058 -1.173804,-0.44627 -4.853721,-0.31036 -7.257108,0.26804 -2.838398,0.68309 -6.09791,1.83123 -11.745763,4.13734 -10.587599,4.3231 -14.462674,5.39418 -16.5,4.56064 z" /><path
       style="fill:#000000;fill-opacity:1;stroke:none;stroke-width:4.20000029;stroke-linecap:butt;stroke-linejoin:miter;stroke-miterlimit:4;stroke-dasharray:none;stroke-opacity:1"
       d="m 285.07941,606.0451 -3.55498,-1.4587 -3.49259,52.08475 0.23392,24.09434 2.25233,32.12262 -0.8104,14.63473 -0.34751,11.33786 2.67791,29.38564 1.88772,1.08584"
       id="path167"
       inkscape:connector-curvature="0"
       sodipodi:nodetypes="ccccccccc" /><path
       id="path1170"
       transform="matrix(0.75000002,0,0,-0.75000002,233.48195,771.98874)"
       style="fill:#e2c0d5;fill-opacity:1;stroke:none;stroke-width:0;stroke-miterlimit:4;stroke-dasharray:none;stroke-opacity:1"
       d="m 8.3164035,182.09761 c -1.6816538,-2.91141 -1.0793594,-6.44732 1.9900165,-11.68284 0.500305,-0.85338 1.019714,-1.59385 1.154242,-1.64547 0.702531,-0.26959 2.993477,1.38783 3.453535,2.49851 0.350686,0.84663 0.155636,3.23624 -0.375527,4.60066 -0.916085,2.35319 -4.537282,7.06958 -5.4279539,7.06958 -0.1698782,0 -0.5273188,-0.37819 -0.7943126,-0.84044 z m 106.2143265,7.84273 c -0.0666,-0.0666 0.36837,-0.84621 0.96659,-1.73249 0.59821,-0.88628 2.02174,-3.46457 3.16339,-5.72954 2.38388,-4.72946 3.61393,-6.87145 4.88508,-8.50683 l 0.89811,-1.15544 0.23193,0.85881 c 0.28947,1.07187 0.12098,2.86711 -0.42643,4.54355 -1.28362,3.9311 -5.09592,9.22532 -7.98713,11.09188 -0.88293,0.57001 -1.54916,0.81244 -1.73154,0.63006 z m -93.686593,33.78847 c -0.588658,-0.52597 -0.655882,-0.69279 -0.635728,-1.57757 0.03175,-1.39394 0.595175,-2.92382 2.710514,-7.35997 2.301957,-4.8275 2.796002,-6.03703 3.27761,-8.02432 0.451275,-1.86212 0.478135,-3.25602 0.08383,-4.3505 -0.403841,-1.12097 -0.353553,-2.05319 0.159635,-2.95926 0.67827,-1.19753 1.936466,-1.86791 4.200071,-2.23784 1.738229,-0.28406 1.956311,-0.28409 2.435951,-2.5e-4 0.840368,0.4973 2.126894,2.19393 2.614943,3.44851 0.547477,1.40734 0.742974,4.71304 0.396417,6.70311 -0.823452,4.72862 -3.90677,10.58274 -7.496671,14.23352 -2.276564,2.31517 -2.663283,2.51592 -5.051106,2.62212 -2.034503,0.0905 -2.038075,0.0898 -2.695468,-0.49755 z m 31.581537,105.75226 c -0.934803,-0.30318 -1.851579,-1.13806 -2.326132,-2.11836 -1.152609,-2.38097 -0.121338,-7.7364 2.489123,-12.9261 1.414608,-2.8123 3.241685,-5.40196 4.216058,-5.97574 l 0.586178,-0.34518 0.998085,0.89736 c 1.889076,1.69844 2.201112,3.68267 1.325909,8.43141 -1.025436,5.56389 -1.05278,7.66241 -0.12711,9.75503 0.226307,0.51161 0.363784,1.00735 0.305506,1.10165 -0.05828,0.0943 -0.836195,0.40031 -1.728702,0.68003 -1.76111,0.55196 -4.770196,0.81407 -5.738915,0.4999 z m -25.052882,-2.45234 c -1.199264,-0.32378 -2.42336,-1.19865 -3.967765,-2.8358 -3.796076,-4.02404 -5.972118,-9.87909 -4.851751,-13.05455 0.156166,-0.44262 0.234852,-1.16207 0.181151,-1.6563 -0.127884,-1.17695 0.389652,-3.51767 1.125381,-5.08989 0.796487,-1.70206 1.811593,-3.17087 4.295486,-6.2154 1.68215,-2.06182 2.117968,-2.48878 2.390604,-2.342 0.817102,0.4399 2.085998,1.60387 2.718931,2.4941 1.650931,2.32207 1.89508,5.28705 0.952297,11.56479 -0.416646,2.77433 -0.550434,4.39907 -0.553645,6.72351 -0.0045,3.22406 0.12102,3.96612 1.008518,5.9644 0.484882,1.09175 0.489572,1.1458 0.189125,2.1793 -0.306789,1.05532 -1.301577,2.33706 -1.813845,2.33706 -0.141342,0 -0.375499,0.0385 -0.520348,0.0856 -0.144849,0.0471 -0.664211,-0.0226 -1.154139,-0.15485 z m -2.173162,-7.02055 c 0.811556,-0.81156 1.266128,-2.51273 1.275995,-4.77524 0.0073,-1.67757 -0.05017,-1.98936 -0.537149,-2.91326 -0.299938,-0.56905 -0.771569,-1.18286 -1.048068,-1.36403 -0.490122,-0.32114 -0.520043,-0.31262 -1.193407,0.34003 -0.379874,0.36819 -0.927152,1.15277 -1.216172,1.7435 -1.31361,2.68493 -0.0752,7.36208 1.991261,7.52048 0.08994,0.007 0.417331,-0.24127 0.72754,-0.55148 z m 2.01199,-34.52085 c -1.740855,-1.8886 -2.119955,-5.74922 -0.919445,-9.36331 1.486946,-4.47639 4.305547,-5.70273 6.414794,-2.791 0.563663,0.77812 0.599231,0.93508 0.599231,2.64454 0,2.12181 -0.481023,4.24406 -1.353849,5.97312 -0.867875,1.71925 -3.096642,4.41073 -3.652448,4.41073 -0.155423,0 -0.645151,-0.39334 -1.088283,-0.87408 z m 3.966958,-24.62471 c -1.403566,-0.87737 -1.989702,-2.61187 -2.820451,-8.3463 -0.331071,-2.28529 -0.728559,-4.52257 -0.883307,-4.97173 -0.154749,-0.44916 -0.233731,-0.86428 -0.175516,-0.9225 0.05821,-0.0582 0.815863,-0.13809 1.683664,-0.1775 1.445027,-0.0656 1.683942,-0.0194 2.838761,0.54911 0.79377,0.39077 1.599183,0.99697 2.173889,1.63618 1.554728,1.72923 2.975226,5.19184 3.379201,8.23716 l 0.124481,0.93838 -1.212854,1.12289 c -2.24839,2.08162 -3.882352,2.70038 -5.107868,1.93431 z m 94.572192,-1.40674 c -0.30958,-0.9754 0.70427,-4.57485 1.32209,-4.69375 0.51465,-0.099 0.87647,1.91526 0.57704,3.21247 -0.35882,1.55447 -1.57486,2.50296 -1.89913,1.48128 z m -2.40602,17.08906 c -0.6347,-0.25854 -2.63296,-4.31522 -2.63296,-5.34519 0,-0.8592 0.93029,-2.31192 2.72618,-4.25712 0.97387,-1.05484 1.9682,-2.30067 2.20963,-2.76851 l 0.43895,-0.85061 -0.12343,2.96625 c -0.31861,7.65617 -1.13632,10.85886 -2.61837,10.25518 z m -9.88476,17.34258 c -1.84417,-1.12448 -2.98881,-5.06103 -2.46022,-8.46094 0.31553,-2.02946 0.93162,-3.53404 1.80458,-4.40699 0.93674,-0.93674 1.71072,-1.13012 2.68077,-0.6698 2.64191,1.25367 3.70497,7.47057 1.94085,11.35029 -1.03258,2.27086 -2.50095,3.08075 -3.96598,2.18744 z m -5.99606,34.07998 c -2.12031,-0.72207 -3.52489,-1.74074 -4.22071,-3.06108 -0.50462,-0.95754 -0.55543,-1.22074 -0.47823,-2.47765 0.16223,-2.64155 1.75529,-5.27601 5.37411,-8.88725 4.81977,-4.80966 10.8788,-8.48893 14.40188,-8.74534 0.73415,-0.0534 1.334,-0.0184 1.33301,0.0777 -0.004,0.41229 -1.02553,4.14356 -1.6771,6.12735 -0.95812,2.9171 -3.17239,7.30623 -4.77855,9.47205 -1.75031,2.36019 -7.41617,8.01072 -8.02555,8.00382 -0.24592,-0.003 -1.11391,-0.23212 -1.92886,-0.50964 z m 11.70986,-116.46576 c -0.80652,-0.5649 -0.39642,-1.66966 0.61979,-1.66966 0.33472,0 0.81348,1.25211 0.64582,1.68903 -0.14435,0.37618 -0.71333,0.36747 -1.26561,-0.0194 z m -8.45082,12.83429 c -0.7504,-0.7504 -0.74401,-1.2304 0.0308,-2.31421 1.62343,-2.27078 4.89463,-6.05948 5.23183,-6.05948 0.25648,0 0.21369,0.88448 -0.11959,2.47187 -0.61406,2.92477 -2.84218,6.22914 -4.20028,6.22914 -0.33851,0 -0.76277,-0.1473 -0.94279,-0.32732 z" /></g></svg>