<?xml version="1.0" encoding="UTF-8" standalone="no"?>
<!-- Created with Inkscape (http://www.inkscape.org/) -->

<svg
   xmlns:dc="http://purl.org/dc/elements/1.1/"
   xmlns:cc="http://creativecommons.org/ns#"
   xmlns:rdf="http://www.w3.org/1999/02/22-rdf-syntax-ns#"
   xmlns:svg="http://www.w3.org/2000/svg"
   xmlns="http://www.w3.org/2000/svg"
   xmlns:sodipodi="http://sodipodi.sourceforge.net/DTD/sodipodi-0.dtd"
   xmlns:inkscape="http://www.inkscape.org/namespaces/inkscape"
   version="1.1"
   id="svg274"
   xml:space="preserve"
   width="169.90491"
   height="136.49481"
   viewBox="0 0 169.90491 136.49481"
   sodipodi:docname="3.svg"
   inkscape:version="0.92.4 (5da689c313, 2019-01-14)"><metadata
     id="metadata280"><rdf:RDF><cc:Work
         rdf:about=""><dc:format>image/svg+xml</dc:format><dc:type
           rdf:resource="http://purl.org/dc/dcmitype/StillImage" /><dc:title /></cc:Work></rdf:RDF></metadata><defs
     id="defs278" /><sodipodi:namedview
     pagecolor="#ffffff"
     bordercolor="#666666"
     borderopacity="1"
     objecttolerance="10"
     gridtolerance="10"
     guidetolerance="10"
     inkscape:pageopacity="0"
     inkscape:pageshadow="2"
     inkscape:window-width="1434"
     inkscape:window-height="760"
     id="namedview276"
     showgrid="false"
     inkscape:zoom="3.5757575"
     inkscape:cx="124.1507"
     inkscape:cy="55.960376"
     inkscape:window-x="0"
     inkscape:window-y="0"
     inkscape:window-maximized="0"
     inkscape:current-layer="g282"
     fit-margin-top="0"
     fit-margin-left="0"
     fit-margin-right="0"
     fit-margin-bottom="0" /><g
     id="g282"
     inkscape:groupmode="layer"
     inkscape:label="Plantos_Test2"
     transform="matrix(1.3333333,0,0,-1.3333333,-415.99626,912.62959)"><g
       id="g284"
       transform="matrix(610.6,0,0,789.1,-651.87568,22.757022)"><path
         style="fill:#000000;stroke-width:0.48000872"
         d="m 96.443359,0.00976563 -0.01953,0.00390625 c 0.0013,0.0013224 0.0026,0.0025832 0.0039,0.0039063 0.0054,-0.0022556 0.01017,-0.0055644 0.01563,-0.0078125 z m -0.01563,0.0078125 C 90.032586,2.6649779 87.521961,10.470011 84.568359,16.146484 78.576339,18.436979 72.880727,19.634351 66.404297,16.085938 63.750222,13.59659 59.59884,11.54577 59.085938,15.707031 53.655668,13.026196 50.77808,3.3205202 43.767578,4.5195312 c -1.978344,5.3385244 6.546571,10.0295958 2.492188,13.9628908 0.678905,5.586828 10.68405,13.416504 -0.439454,11.189453 -3.940404,-1.279394 -6.749727,1.240844 -3.419921,5.080078 0,0 3.351126,2.64905 -25.429688,-1.556641 -0.0016,0.0034 -0.0024,0.0064 -0.0039,0.0098 -0.0014,-0.0012 -0.0025,-0.0028 -0.0039,-0.0039 -5.106573,3.67704 7.656255,9.996364 -0.306641,13.099609 6.559074,5.838942 -0.185109,12.17122 0.279297,18.78125 l 5.103515,3.015625 c 0.06026,-0.100351 0.119551,-0.202055 0.208985,-0.285156 3.500773,2.611395 12.254644,1.415915 13.242187,3.755859 -5.405844,2.770267 -12.640386,3.891026 -17.230468,5.761719 -1.270116,1.418451 -1.63293,1.372309 -1.472657,0.66211 l -8.7207028,3.921874 c -2.2124266,2.472114 -4.840358,4.499879 -8.06054683,5.892579 0.70715616,4.869273 6.71729373,3.428081 5.49609373,9.283203 5.9757389,6.162346 13.0218909,2.756604 19.6269529,-1.087891 -1.302613,6.400127 -9.226287,8.787557 -11.902344,14.517577 -5.6419426,4.87453 -0.519871,15.67743 6.31836,9.83399 3.891557,-2.91547 7.359631,-5.79899 11.53125,-4.72266 6.521208,-2.08428 8.204278,-14.24909 15.371094,-7.75195 1.783824,1.81868 4.16596,2.07547 6.408203,2.43945 l 13.060547,0.57812 c 4.689407,-2.98174 7.627913,-1.30219 9.267578,3.40821 5.764063,-2.39676 12.119676,1.80443 16.003906,-5.31641 l 1.359375,-1.07226 0.75,-0.39649 3.185547,-4.58398 2.99414,8.55468 c 0.08189,-0.51279 0.156464,-1.02789 0.25,-1.53711 -0.121258,0.64098 -0.142886,1.30212 -0.103515,1.95704 l 1.689453,4.82226 c 1.64629,2.18132 4.02129,2.38168 5.01562,-2.78125 1.40031,0.57366 8.36575,5.99663 8.72071,-0.77734 1.31075,-2.65453 11.38154,5.51153 10.51367,-2.4668 -1.16421,-3.76453 -6.41487,-13.445297 -0.0234,-6.50195 3.98926,4.27902 13.42732,4.86337 11.64844,-3.06446 -1.00953,-7.658468 -5.53636,-14.177855 -9.78125,-20.445308 -0.70466,-1.908749 3.63943,0.527198 7.23828,2.03125 -1.50802,0.758071 -1.47891,1.506926 2.00977,1.892579 6.36652,-2.074807 20.26322,3.117024 23.75586,-3.869141 -1.00139,-3.804514 6.69181,-5.850794 0.8789,-9.75 -4.45331,-1.603451 -8.99422,-3.169536 -13.19922,-5.472656 0.83856,-4.169605 -4.07005,-7.346481 2.5,-7.634766 5.33258,-2.006418 17.43952,-4.160505 14.07227,-11.939453 -2.43426,-2.326267 -9.53743,-0.296719 -4.3457,-4.771484 5.19417,-5.496345 10.60538,-12.939983 9.20507,-20.894532 -5.16974,-0.124172 -10.88768,8.525612 -17.32421,4.851563 -5.40585,-3.086959 -17.48815,-6.411738 -12.99415,-14.857422 3.87528,-5.7583256 -2.06056,-12.4498712 -6.02539,-4.9628906 -2.70292,3.180599 -4.25039,6.8164086 -8.50585,6.1093746 -1.36775,8.987323 -9.63992,-4.2255037 -10.98243,4.529297 -2.98787,5.151245 -6.92976,13.905906 -9.54883,3.97461 C 99.639662,14.047561 101.38909,5.0257941 96.427734,0.01757813 Z M 16.962891,33.201172 c 0.0028,-0.002 0.005,-0.0038 0.0078,-0.0059 h -0.01367 c 0.0021,0.0017 0.0037,0.0041 0.0059,0.0059 z M 96.027344,5.1582031 c 2.100464,7.7321279 4.738846,15.4954649 8.960936,22.2968749 6.7166,10.096271 7.88772,-4.647151 12.6211,-6.949219 3.37864,2.908097 6.13843,3.021184 8.72656,-0.798828 4.80338,1.107897 6.6761,-10.0873008 11.09765,-12.7617185 -2.99601,5.6194435 -6.62588,16.4846125 0.3418,20.6308595 -3.10999,7.270241 4.24857,8.590598 8.97461,7.179687 4.54286,2.473566 9.99317,-6.491278 11.1875,1.558594 -1.88065,2.742912 -9.22846,8.843781 -2.55664,11.4375 8.3351,1.309906 -5.57746,4.792901 -8.01172,6.003906 -7.38419,3.56568 -15.11676,5.753329 -23.35742,4.646485 -2.39355,1.647641 2.73628,10.020287 3.65625,4.748047 3.01229,0.382566 9.80066,-2.634557 8.0918,2.841797 1.37588,5.431111 16.73608,2.283011 14.54687,7.642578 0.24709,4.443159 2.61467,7.411739 -3.99609,6.873046 -1.01745,-0.174445 -3.10391,0.04671 -5.28516,0.4375 -1.81018,-3.738414 -13.85113,-13.090546 -16.77734,-12.548828 2.2063,2.432533 4.86852,9.543367 -0.82227,5.105469 -3.29724,6.875691 5.70712,12.831651 7.88086,19.121094 3.21583,4.375822 1.7013,12.233243 -4.20117,6.748047 -5.99202,-3.090116 -8.49385,-15.641526 -14.40039,-15.257813 0.27615,7.198696 7.16498,12.164173 6.51367,19.935549 3.53334,8.69588 -11.01519,-4.151466 -8.49219,6.06055 -2.88203,-5.54159 -8.97306,1.51393 -9.58203,-5.42383 -2.279571,-4.792473 1.31135,-17.278397 -6.251952,-15.984378 -3.150696,6.218108 -2.573065,16.149778 -10.609375,18.341798 -3.533338,0.0906 -9.498103,5.19457 -7.359375,-1.49805 -3.061141,-5.85617 -13.166589,3.78782 -15.357422,0.27344 2.25515,-2.75659 5.299027,-10.178436 0.208985,-4.32227 -5.487259,9.80589 -7.228268,-4.654757 -11.837891,-6.728512 -7.066677,1.576096 -6.986733,11.044282 -14.394531,11.166012 -5.959456,2.80394 -11.873978,5.44318 -17.585938,9.38868 -6.35838,4.54206 1.930466,-6.51766 3.216797,-9.1543 2.027192,-4.7609 16.565798,-10.358589 8.060547,-14.898439 -5.967597,-1.643432 -11.700662,5.288313 -16.955078,1.777344 -3.5577626,-6.585302 2.67859,-10.918538 8.576172,-10.115234 5.218593,-5.536326 12.495776,-8.63169 20.076172,-8.796875 9.162255,-4.092799 -3.069272,-9.53857 -8.027344,-9.28711 -4.39632,-0.237024 0.03665,-7.473272 -4.835938,-9.191406 6.822438,-0.634742 7.833169,-7.912289 1.035157,-9.949219 -3.45635,-1.972705 -5.736905,-5.227719 -8.128907,-8.232422 5.095754,1.150385 13.207426,0.850254 15.673829,1.681641 5.177886,0.06465 19.104237,7.757945 16.929687,-2.373047 -7.481885,-6.032932 11.393054,5.134605 5.820313,-4.3125 C 56.524547,28.655668 46.930992,19.124864 56.125,17.654297 c 4.290483,1.111053 11.115385,3.255633 9.544922,0.183594 4.958072,1.448787 14.097697,3.647532 11.998047,10.322265 0.453146,5.36588 0.714528,14.295362 4.689453,16.916016 -0.462509,-6.450629 -2.058403,-12.855418 -1.72461,-19.394531 4.282342,1.571887 8.382951,2.19914 7.644532,-3.931641 2.043474,-5.742544 3.076875,-12.2556399 7.75,-16.5917969 z M 137.42188,21.119141 c 6.38279,3.338419 -0.77644,5.135462 0,0 z m 3.7207,2.714843 c 2.89831,2.034826 10.22385,5.362613 2.4668,5.521485 -0.46618,-1.37093 -0.52705,-4.168441 -2.4668,-5.521485 z m 21.55859,6.458985 c 2.47497,4.619917 -6.27846,2.200008 -1.125,0.177734 z m -64.082029,0.974609 c -2.588944,2.433584 -3.166791,10.786347 -1.261719,13.164063 1.725962,-3.732969 3.256348,-9.527259 1.261719,-13.164063 z m 4.765629,2.921875 c -6.23627,3.19112 2.19837,8.277782 1.88085,1.990235 -0.27435,-0.828471 -0.95274,-1.842936 -1.88085,-1.990235 z m 27.79296,5.191406 c -5.66636,2.902836 -5.61863,10.886496 -12.45898,13.267579 -4.69755,4.072807 -12.12683,11.849366 -15.64063,3.085937 -2.30398,-2.557736 -3.567402,-5.727393 -7.507808,-4.138672 -5.487257,1.296228 3.859141,-6.389752 -1.164062,-8.427734 -7.498168,-0.314546 -10.416268,9.729214 -16.599609,12.871093 -5.584955,1.460362 -2.043922,-11.963556 -6.904297,-9.111328 -2.947163,2.639803 -1.35969,15.608853 -6.1875,7.28711 -3.78572,-3.364723 -6.203722,-13.131612 -10.337891,-13.058594 0.830416,6.555843 6.652338,11.180549 10.269531,16.431641 1.105306,1.709647 2.3222,3.336455 3.47461,3.630859 -3.823562,4.258678 -9.271089,10.062815 -9.373047,13.304688 1.799234,3.886579 6.024791,1.089873 4.298828,6.283203 2.027192,7.095587 7.123719,0.451459 11.072266,-0.529297 3.207684,2.534589 8.13312,6.874268 12.177734,1.214844 3.647317,-5.128098 6.333487,-4.581743 9.556641,0.09961 5.332574,-2.830239 10.521974,-6.832432 16.109374,-6.949219 4.44517,-3.631964 -4.42147,-10.409796 -1.38477,-11.8125 6.96084,-3.864486 12.54434,-9.94886 18.78711,-14.890625 4.34748,-2.65348 1.9797,-4.728241 2.28907,-8.525391 z m -10.71289,2.654297 c -4.25791,2.12531 -12.87048,5.89545 -11.96679,10.871094 4.59985,-0.492462 10.72036,-7.522048 11.96679,-10.871094 z m 36.27539,2.123047 c 1.93764,1.293072 -1.8725,1.132096 0,0 z M 21.841797,45.384766 c 2.238866,2.154769 7.457023,6.922116 1.074219,4.253906 -1.15607,-1.132096 -1.098643,-2.778815 -1.074219,-4.253906 z m 64.337891,9.126953 c 0.563235,-0.078 1.011532,0.591072 1.318359,2.568359 2.597085,4.332685 8.2642,-4.417508 8.966797,2.22461 1.196776,5.850912 11.941036,2.359027 9.648436,9.134765 -4.56729,-0.266789 -6.935971,9.89136 -11.490233,5.720703 -5.080192,-8.781104 -10.735399,6.139595 -14.220703,2.931641 -2.287715,-9.273503 -12.331382,5.686987 -12.328125,-4.339844 -3.557763,-2.239992 10.091983,-12.60438 2.833984,-14.794922 h -0.002 c 1.848083,-2.9344 4.877138,6.489079 9.224609,2.521485 2.428407,-0.678701 4.609448,-5.767458 6.048829,-5.966797 z m -47.234376,3.625 c -0.798093,3.669841 14.214559,11.029585 6.513672,4.251953 -2.01905,-1.589774 -4.030565,-3.458645 -6.513672,-4.251953 z m -16.193359,0.501953 c 6.96084,2.664001 -4.347373,4.233244 -1.839844,1.611328 1.424734,0.711305 0.985004,-1.317783 1.839844,-1.611328 z M 145.0149,58.97974 c -1.20492,3.228998 0.59246,7.823377 -4.65162,4.473385 -5.76406,-1.530854 3.70722,-3.679024 4.65162,-4.473385 z M 54.892578,79.166016 c -4.1991,-0.12614 -9.704403,11.136275 -3.40039,4.814453 0.517787,-1.245726 6.033459,-3.515691 3.802734,-4.765625 -0.132297,-0.02875 -0.266889,-0.04476 -0.402344,-0.04883 z m 51.654302,0.923828 c -4.38818,3.136409 1.14798,12.238798 3.09374,16.820312 2.07604,-4.405282 0.13575,-13.339434 -3.09374,-16.820312 z m -15.982427,2.478515 c -2.409834,4.539956 -1.848303,12.330158 -1.058594,17.230469 2.719206,-4.222211 4.420965,-13.387762 1.058594,-17.230469 z m -51.337891,0.90625 c -4.036348,-0.180829 -15.073448,3.886979 -9.839843,5.824219 2.800618,-3.291073 13.064588,-2.500751 12.732422,-5.658203 l -0.960938,-0.08984 -1.220703,0.01758 -0.0039,0.002 c -0.199972,-0.05171 -0.437942,-0.08365 -0.707032,-0.0957 z m 36.955079,3.947266 C 72.770422,89.813374 70.441807,98.472767 72.65625,101.6582 75.131215,99.146764 79.706837,89.988133 76.181641,87.421875 Z M 49.824219,104.6582 c 3.6636,1.83703 -1.595702,1.75286 0,0 z m 31.771484,9.43164 c -0.447188,-0.0414 -0.912577,0.17159 -1.167969,0.64063 l 2.189454,0.17773 c -0.188531,-0.49818 -0.592521,-0.77865 -1.021485,-0.81836 z"
         transform="matrix(0.0012283,0,0,-9.504499e-4,1.5785668,0.83856949)"
         id="path3991"
         inkscape:connector-curvature="0"
         sodipodi:nodetypes="cccccccccccccccccccccccccccccccccccccccccccccccccccccccccccccccccccccccccccccccccccccccccccccccccccccccccccccccccccccccccccccccccccccccccccccccccccccccccccccccccccccccccccccccccccccsccscccccccccccccccccccccc" /></g><path
       style="fill:#fff40e;fill-opacity:1;stroke:none;stroke-width:0;stroke-miterlimit:4;stroke-dasharray:none;stroke-opacity:1"
       d="m 80.074685,76.112208 c -0.375126,-0.740276 -0.900172,-1.526823 -1.166768,-1.747881 -0.874883,-0.725442 -2.851922,-0.438325 -5.60856,0.814508 -1.404638,0.638377 -2.86384,1.160686 -3.242673,1.160686 -0.974925,0 -1.657043,-0.886904 -1.824457,-2.372191 -0.07912,-0.701934 -0.253006,-1.343706 -0.386418,-1.426159 -0.133411,-0.08245 -0.242566,-0.558895 -0.242566,-1.05876 0,-0.911382 0.335268,-1.538258 3.407785,-6.371782 1.943628,-3.057612 2.415291,-4.574731 1.795112,-5.774025 -0.243389,-0.470663 -0.702528,-0.938272 -1.02031,-1.039132 -0.592202,-0.187958 -0.623312,-0.716411 -0.05336,-0.906395 0.175366,-0.05846 1.127849,0.646329 2.116629,1.566188 1.962244,1.82547 3.163986,2.563664 4.157627,2.553905 1.277326,-0.01255 3.652532,-1.844111 5.680248,-4.380147 2.355315,-2.945758 2.869776,-3.107652 3.504166,-1.102717 0.456055,1.441322 1.370418,2.412909 2.270793,2.412909 0.29837,0 1.536494,-0.392793 2.751386,-0.872875 2.799381,-1.106213 3.489839,-0.989255 3.930797,0.665844 0.849954,3.190233 1.649119,3.882997 6.014414,5.213657 1.73761,0.529671 3.03993,1.100002 3.40512,1.49122 1.32481,1.419258 1.04222,3.364287 -0.53387,3.674463 -0.70136,0.138029 -1.6244,0.90276 -3.74492,3.102611 -1.547779,1.605688 -3.170462,3.054904 -3.605961,3.220481 -1.185939,0.450892 -2.485899,-0.09204 -3.490224,-1.457714 -1.004708,-1.366191 -2.141643,-2.168909 -3.075528,-2.171437 -1.167842,-0.0032 -3.008175,1.089751 -5.118836,3.039904 -2.848389,2.631781 -3.532238,3.110796 -4.441023,3.110796 -0.670821,0 -0.904218,-0.21246 -1.478605,-1.345957 z"
       id="path2301"
       inkscape:connector-curvature="0"
       transform="matrix(0.75000002,0,0,-0.75000002,311.9972,684.47221)" /><path
       style="fill:#a599ff;fill-opacity:1;stroke:none;stroke-width:0;stroke-miterlimit:4;stroke-dasharray:none;stroke-opacity:1"
       d="m 15.586292,116.04209 c 0,-0.64884 2.782773,-5.47784 6.251375,-10.84812 0.330176,-0.5112 2.33066,-2.36845 4.44552,-4.12723 4.433085,-3.686682 5.523444,-4.995107 5.523444,-6.628106 0,-2.140414 -2.728696,-3.810527 -5.538467,-3.389847 -0.722275,0.108137 -3.075092,0.806375 -5.228482,1.551638 -4.248005,1.470186 -5.812139,1.65726 -7.663331,0.916561 -1.357601,-0.543205 -1.984974,-1.890878 -1.984974,-4.263967 0,-2.163278 1.056193,-3.877584 3.112591,-5.05204 1.488727,-0.850247 4.902975,-1.632714 5.733542,-1.313995 0.285909,0.109714 0.98211,-0.327321 1.992538,-1.250795 4.400579,-4.021881 9.395955,-6.293909 15.88404,-7.224481 3.835703,-0.550146 5.099754,-1.143771 5.869642,-2.756509 0.394624,-0.826642 0.392453,-0.99622 -0.02397,-1.873782 -0.251827,-0.530685 -0.887672,-1.292711 -1.41299,-1.693393 -2.083042,-1.588802 -6.547894,-3.214605 -8.828112,-3.214605 -2.299817,0 -3.029438,-0.968959 -3.032233,-4.026901 -0.0021,-2.293894 -0.414581,-3.633409 -1.36516,-4.433267 l -0.791033,-0.665611 1.428453,-0.50443 c 2.622446,-0.926064 4.159138,-3.225059 3.663638,-5.481057 -0.295435,-1.345107 -2.006084,-3.048769 -3.927625,-3.911582 -0.940852,-0.422464 -2.449247,-1.460611 -3.396636,-2.337728 -1.93992,-1.796023 -4.993529,-5.425466 -4.76063,-5.658365 0.08531,-0.08531 1.266693,-0.02567 2.625291,0.132506 1.358597,0.15819 3.917422,0.367905 5.686278,0.466033 4.830997,0.268002 8.40571,0.85524 12.881276,2.116072 2.778615,0.782779 4.831245,1.18536 6.580623,1.290658 2.527339,0.152121 2.548031,0.148005 3.491101,-0.694631 0.884775,-0.790545 0.948697,-0.964148 0.948697,-2.576589 0,-1.635134 -0.05276,-1.771989 -0.972365,-2.522537 -0.534801,-0.436484 -0.892172,-0.873801 -0.794156,-0.971817 0.09801,-0.09801 1.386355,0.150925 2.862974,0.553201 3.136018,0.854347 5.280995,0.871485 5.438355,0.04346 0.256997,-1.352318 -0.349677,-2.51512 -3.188734,-6.111794 -4.083328,-5.172991 -5.362844,-7.877855 -4.598945,-9.72207 0.39517,-0.95402 1.162946,-1.517417 2.613805,-1.918019 0.823917,-0.227494 1.420149,-0.174805 2.918204,0.257882 4.997707,1.443499 8.151934,1.543569 7.813102,0.247876 -0.07973,-0.304886 -0.09533,-0.554338 -0.03466,-0.554338 0.06067,0 1.338824,0.392616 2.840343,0.872481 5.161206,1.649446 7.672327,3.20869 8.748838,5.432463 0.518449,1.070972 0.586301,1.545606 0.429827,3.006719 -0.378756,3.536767 0.864695,12.029256 2.167264,14.801918 0.652978,1.389935 2.072199,3.185622 2.321064,2.936754 0.06238,-0.06238 -0.2648,-3.122415 -0.727057,-6.800092 -0.462258,-3.677676 -0.840645,-7.959721 -0.84086,-9.515656 l -3.92e-4,-2.828971 1.887712,0.536692 c 2.48511,0.706538 3.880068,0.535821 4.894068,-0.598944 0.649359,-0.726698 0.769068,-1.110078 0.769068,-2.463042 0,-1.194421 0.399378,-2.813105 1.568686,-6.357876 1.768199,-5.360329 3.287728,-8.5339074 4.973603,-10.3875145 l 1.148389,-1.2626421 1.317201,4.329803 c 1.618971,5.3217526 2.866278,8.5528826 4.984518,12.9123146 2.95747,6.086589 5.23634,8.779988 7.11189,8.405543 1.28689,-0.256922 2.16825,-1.3144 4.2143,-5.056417 1.04051,-1.90299 2.31706,-3.872127 2.83678,-4.37586 0.87404,-0.847149 0.99159,-0.885675 1.5664,-0.513385 3.39644,2.199768 5.40612,2.173641 7.39905,-0.09619 0.4928,-0.561259 1.15778,-1.020471 1.47774,-1.020471 1.75051,0 3.39626,-1.775673 5.73056,-6.182948 1.71458,-3.237199 3.66035,-6.122137 4.12913,-6.122137 0.14443,0 0.19362,0.1573094 0.1093,0.3495763 -2.10355,4.7967207 -2.98281,8.2073507 -2.98281,11.5702617 0,3.321034 0.64725,5.183253 2.41645,6.952457 l 1.26,1.259994 -0.34449,1.539338 c -0.44599,1.992913 -0.0492,3.40977 1.28223,4.578805 1.40779,1.236049 2.57648,1.444992 7.43364,1.329 4.26463,-0.101842 4.33802,-0.114382 6.63296,-1.133349 2.8051,-1.24548 3.86463,-1.249695 4.55402,-0.01812 1.04038,1.858599 0.9767,2.09498 -1.32721,4.926621 -2.34062,2.876755 -3.15479,4.368735 -3.16417,5.798379 -0.009,1.330432 1.36359,2.627964 3.40799,3.222285 1.946,0.565718 2.20659,0.919081 1.27116,1.723705 -0.66716,0.573862 -1.77409,1.044087 -8.46071,3.594108 -1.38432,0.527928 -3.90127,1.531852 -5.59322,2.230943 -5.6521,2.335371 -11.86088,3.482968 -16.84666,3.113841 l -2.58395,-0.191302 -0.29082,0.764926 c -0.42339,1.113591 0.33084,3.473678 1.50949,4.723413 1.13593,1.204427 1.72935,1.254252 2.3366,0.196185 0.4384,-0.763877 0.59643,-0.814652 3.55267,-1.14147 4.32072,-0.477667 5.0396,-0.162925 4.95144,2.16786 -0.098,2.591216 1.56951,3.576979 7.89145,4.66507 4.23807,0.729429 5.6743,1.155422 6.22523,1.846439 0.17229,0.216092 0.38837,1.4626 0.48019,2.770015 0.0918,1.307415 0.24662,2.882455 0.34401,3.500086 0.13938,0.883914 0.0583,1.269619 -0.38076,1.811865 -0.53656,0.662629 -0.72692,0.696219 -4.99201,0.880849 -4.34189,0.187954 -4.44243,0.179349 -4.83123,-0.41356 -1.45096,-2.212709 -8.46207,-8.122235 -12.11769,-10.213769 -1.57997,-0.903965 -3.84773,-1.808929 -4.04319,-1.61346 -0.0608,0.06079 0.27852,0.722832 0.75402,1.471205 1.00068,1.574922 1.77943,3.994972 1.51081,4.694983 -0.22677,0.590957 -1.22002,0.404417 -2.42849,-0.456088 -0.96626,-0.688034 -1.19922,-0.469761 -1.47996,1.386618 -0.43512,2.877231 0.54233,5.207017 4.48027,10.678831 4.21088,5.851079 6.06479,10.111281 5.49654,12.630817 -0.70077,3.107139 -2.20928,3.251389 -5.83639,0.558072 -2.45885,-1.82582 -3.59279,-3.21559 -6.61209,-8.103852 -3.19836,-5.178159 -5.02211,-7.019483 -6.95597,-7.023029 -0.74831,-0.0014 -0.77422,0.04341 -0.60598,1.047297 0.35016,2.089347 1.06465,3.914717 2.97291,7.595084 2.85406,5.504492 3.57608,8.046857 3.70045,13.029917 0.0265,1.06219 -0.0175,1.12304 -0.87223,1.20563 -0.49509,0.0478 -1.82451,-0.17239 -2.95428,-0.48941 -3.9079,-1.09655 -5.23455,-0.64748 -5.23455,1.77188 v 1.10517 l -0.65437,-0.61475 c -0.94578,-0.88851 -2.09363,-1.13014 -4.56979,-0.96198 -1.86545,0.12669 -2.28193,0.0712 -2.83374,-0.37757 -1.02778,-0.83585 -1.69858,-3.82239 -2.03269,-9.049983 -0.378192,-5.917467 -0.789504,-7.679119 -2.073123,-8.879237 -0.79285,-0.741272 -1.199759,-0.908898 -2.206346,-0.908898 h -1.234208 l -0.726372,2.027542 c -0.399505,1.115148 -1.169828,3.587819 -1.711828,5.494822 -2.076902,7.307494 -4.128756,9.837214 -8.944818,11.028034 -0.922881,0.22819 -2.590447,0.74552 -3.705704,1.14961 -1.641459,0.59476 -2.140942,0.67413 -2.622001,0.41668 -0.534539,-0.28608 -0.575917,-0.47416 -0.411706,-1.87134 0.160053,-1.36179 0.106288,-1.63449 -0.436053,-2.21179 -0.861865,-0.91741 -2.416269,-1.28924 -3.951378,-0.94522 -0.680773,0.15257 -2.76108,0.84722 -4.622903,1.54368 -3.342154,1.25021 -4.825095,1.51086 -5.644323,0.99208 -0.367592,-0.23278 -0.35708,-0.362 0.08497,-1.04445 0.277455,-0.42834 0.938154,-1.65618 1.46822,-2.72853 0.974787,-1.97206 1.226146,-3.223999 0.647298,-3.223999 -0.417332,0 -2.422756,2.123029 -3.375464,3.573409 -1.441146,2.19397 -2.88114,2.52226 -4.308401,0.98222 -0.374805,-0.40442 -1.326771,-1.87804 -2.115479,-3.27471 -1.917404,-3.395392 -3.4575,-5.432529 -4.259159,-5.633731 -1.529606,-0.383908 -4.633975,2.025651 -6.869029,5.331631 -2.466512,3.64833 -4.357745,5.16846 -6.958219,5.59285 -1.620222,0.26441 -13.102159,6.03287 -16.945772,8.51345 -2.972388,1.91831 -3.792697,2.28281 -3.792697,1.68525 z m 58.66522,-16.505076 c 2.553792,-3.854423 3.826591,-9.032883 2.737711,-11.138546 -0.649166,-1.255348 -1.202937,-1.048584 -2.543092,0.949524 -1.421707,2.119699 -2.379163,4.986642 -2.567,7.686444 -0.157863,2.268977 0.284337,4.579834 0.843575,4.408374 0.183659,-0.0563 0.871622,-0.91391 1.528806,-1.905796 z m 16.126384,-1.348965 c 1.558269,-3.075096 2.438913,-8.561595 1.865882,-11.62463 -0.326787,-1.746769 -1.115985,-3.547635 -1.629741,-3.718888 -0.377574,-0.125859 -1.069315,1.957398 -1.505572,4.534209 -0.445319,2.630329 -0.07213,12.172646 0.476058,12.172646 0.05639,0 0.413404,-0.613501 0.793373,-1.363337 z m 19.965424,-5.522164 c 0.085,-2.489646 -0.0106,-3.571733 -0.47907,-5.424238 -0.66189,-2.617426 -2.08412,-5.893456 -2.86556,-6.600641 -0.4914,-0.444717 -0.55599,-0.442669 -1.08307,0.03433 -1.8895,1.709973 -1.18979,5.800994 2.24663,13.135558 1.2703,2.711277 1.47494,3.004527 1.75638,2.516949 0.17521,-0.303536 0.36632,-1.951416 0.42469,-3.661958 z M 30.751377,88.358443 c 0.968753,-0.524698 2.977089,-1.168105 5.293307,-1.695803 2.052757,-0.467678 4.16408,-1.062528 4.691829,-1.321891 0.975136,-0.47923 1.673083,-1.288093 1.371606,-1.589571 -0.09131,-0.09131 -1.282408,-0.17931 -2.646889,-0.195553 -3.9999,-0.04762 -9.708237,1.889955 -11.113591,3.772272 -0.538991,0.72192 -0.540251,0.760368 -0.04294,1.309891 0.281792,0.311377 0.596344,0.56614 0.699004,0.56614 0.102659,0 0.889113,-0.380468 1.747674,-0.845485 z m 20.302712,-3.996211 c 0.873009,-0.817167 2.23497,-1.950957 3.026578,-2.519531 1.574768,-1.131075 1.955952,-1.734256 1.467734,-2.322526 -1.10507,-1.331527 -4.651876,1.21779 -6.36431,4.574438 -0.328789,0.644479 -0.597798,1.302639 -0.597798,1.46258 0,0.671407 0.981775,0.196011 2.467796,-1.194961 z M 69.840531,82.50092 c 1.307415,-0.738353 2.785888,-1.548897 3.285496,-1.801216 l 0.908381,-0.458755 1.468738,1.166404 c 3.081602,2.447266 6.33147,3.371719 8.290948,2.358435 0.429945,-0.222336 1.70169,-1.424747 2.826098,-2.67203 2.204565,-2.445476 3.122082,-3.076271 4.474576,-3.076271 1.238636,0 2.284151,0.624919 3.677381,2.198029 l 1.216687,1.373773 4.316944,-2.478003 c 4.80418,-2.757693 7.11237,-3.749167 9.80594,-4.212106 3.6949,-0.635038 4.00718,-2.476594 1.31755,-7.769853 -0.86714,-1.706556 -1.50371,-3.292824 -1.41459,-3.525044 0.0891,-0.232219 1.31149,-1.168644 2.71639,-2.080943 3.04148,-1.975034 11.04845,-8.539251 17.90941,-14.682363 l 1.37198,-1.228434 -0.18362,-3.001121 c -0.101,-1.650618 -0.23698,-3.054468 -0.30218,-3.119674 -0.0652,-0.0652 -0.38174,-0.03502 -0.70341,0.06707 -1.0807,0.343001 -3.21894,2.856231 -5.0341,5.916945 -2.09406,3.530966 -4.02329,5.699726 -5.85069,6.577082 -0.71339,0.342512 -2.24094,1.448233 -3.39454,2.457157 -4.34472,3.799844 -6.50244,5.034777 -8.80932,5.041869 -1.97352,0.0061 -3.23314,-0.920706 -4.43417,-3.262478 -0.73493,-1.432955 -3.19432,-4.233864 -4.15289,-4.729557 -0.859485,-0.444457 -1.994727,-0.427353 -4.203954,0.06334 -1.215051,0.269876 -1.242427,-0.48696 -0.10742,-2.96995 1.272717,-2.78426 1.341279,-4.175781 0.248107,-5.035671 -0.633922,-0.498641 -0.979622,-0.569314 -2.020979,-0.413154 -2.764382,0.414547 -4.786866,1.942961 -8.663163,6.546856 -4.409824,5.23757 -6.516614,6.840212 -8.119278,6.176367 -0.996765,-0.412872 -1.563946,-1.668869 -2.10985,-4.672166 -0.794419,-4.3705 -1.260835,-5.142286 -2.762595,-4.571319 -1.008206,0.38332 -1.695294,1.941258 -2.405571,5.454508 -0.873885,4.322517 -1.214909,5.064891 -2.160049,4.702207 -0.704558,-0.270365 -4.455324,-5.566231 -6.23236,-8.799733 -2.143728,-3.900734 -3.382763,-5.61917 -4.589162,-6.364766 -1.416769,-0.87561 -1.664599,-0.770273 -1.445607,0.614432 0.354336,2.240499 2.221954,5.498636 5.384353,9.393227 1.665854,2.051548 3.633465,4.568497 4.372472,5.59322 0.739004,1.02472 1.844747,2.375947 2.457205,3.002723 l 1.113557,1.139594 -2.122666,2.356169 c -3.014335,3.34592 -5.4053,6.559863 -6.329935,8.508712 -0.437862,0.922881 -0.796214,1.825619 -0.796334,2.006084 -5.6e-4,0.66394 1.423136,1.990901 2.746713,2.560288 1.912786,0.822858 2.099404,1.12591 1.876461,3.04722 -0.163946,1.412876 -0.10513,1.73733 0.469509,2.589961 0.819963,1.216637 1.791117,1.729043 2.877435,1.518215 0.46144,-0.08956 1.908686,-0.766934 3.216102,-1.505284 z M 47.739787,64.943334 c -0.04243,-1.183005 -8.170666,-7.366305 -8.82422,-6.712748 -0.248285,0.248283 0.474028,1.745084 1.228772,2.546297 2.157778,2.29063 7.635951,5.295661 7.595448,4.166451 z M 111.19517,51.982447 c 1.03969,-0.519538 2.67875,-1.761613 4.10012,-3.107054 2.38843,-2.260852 5.47514,-6.410935 4.90869,-6.599751 -0.33545,-0.111817 -5.01283,2.329495 -7.01599,3.661932 -2.89077,1.922845 -4.75424,4.29823 -4.75424,6.060296 0,1.109706 0.5156,1.106826 2.76142,-0.01541 z M 98.544527,41.381893 c 0.696353,-2.068519 0.800241,-2.794639 0.800241,-5.593221 0,-2.211791 -0.119868,-3.426854 -0.383851,-3.890995 l -0.383849,-0.674893 -0.526266,0.674893 c -0.289446,0.371192 -0.801813,1.555826 -1.138598,2.632521 -0.804269,2.571256 -0.868479,7.254099 -0.122709,8.949152 0.582321,1.323555 0.617544,1.281458 1.755032,-2.097457 z m 6.067133,-2.745047 c 1.07677,-1.189809 0.71434,-3.514978 -0.66276,-4.251977 -0.44874,-0.240162 -0.73363,-0.180812 -1.39598,0.29082 -1.56007,1.110869 -1.84492,2.641473 -0.70391,3.782474 0.81985,0.819854 2.10706,0.903106 2.76265,0.178683 z"
       id="path2868"
       inkscape:connector-curvature="0"
       transform="matrix(0.75000002,0,0,-0.75000002,311.9972,684.47221)" /></g></svg>