<?xml version="1.0" encoding="UTF-8" standalone="no"?>
<!-- Created with Inkscape (http://www.inkscape.org/) -->

<svg
   xmlns:dc="http://purl.org/dc/elements/1.1/"
   xmlns:cc="http://creativecommons.org/ns#"
   xmlns:rdf="http://www.w3.org/1999/02/22-rdf-syntax-ns#"
   xmlns:svg="http://www.w3.org/2000/svg"
   xmlns="http://www.w3.org/2000/svg"
   xmlns:sodipodi="http://sodipodi.sourceforge.net/DTD/sodipodi-0.dtd"
   xmlns:inkscape="http://www.inkscape.org/namespaces/inkscape"
   version="1.1"
   id="svg62"
   xml:space="preserve"
   width="393.29965"
   height="399.17331"
   viewBox="0 0 393.29965 399.17331"
   sodipodi:docname="6.svg"
   inkscape:version="0.92.2 5c3e80d, 2017-08-06"><metadata
     id="metadata68"><rdf:RDF><cc:Work
         rdf:about=""><dc:format>image/svg+xml</dc:format><dc:type
           rdf:resource="http://purl.org/dc/dcmitype/StillImage" /><dc:title></dc:title></cc:Work></rdf:RDF></metadata><defs
     id="defs66" /><sodipodi:namedview
     pagecolor="#ffffff"
     bordercolor="#666666"
     borderopacity="1"
     objecttolerance="10"
     gridtolerance="10"
     guidetolerance="10"
     inkscape:pageopacity="0"
     inkscape:pageshadow="2"
     inkscape:window-width="1123"
     inkscape:window-height="757"
     id="namedview64"
     showgrid="false"
     inkscape:zoom="0.63211061"
     inkscape:cx="283.06145"
     inkscape:cy="158.60808"
     inkscape:window-x="0"
     inkscape:window-y="0"
     inkscape:window-maximized="0"
     inkscape:current-layer="g72"
     fit-margin-top="0"
     fit-margin-left="0"
     fit-margin-right="0"
     fit-margin-bottom="0" /><g
     id="g70"
     inkscape:groupmode="layer"
     inkscape:label="bluegrass"
     transform="matrix(0,-1.3333333,-1.3333333,0,533.33264,544.83642)"><g
       id="g72"
       transform="matrix(-791.99994,-0.29431345,0.22742412,-611.99996,791.88626,612.14713)"><path
         style="fill:#000000;stroke-width:0.00034473"
         d="m 0.39643561,0.04829902 c -0.001891,0.002737 0.002162,-2.6774e-4 0,0 z m 0.33674561,0.29686743 c -0.0164532,0.014861 -0.0407317,0.0199699 -0.0537728,0.0394627 -0.0257296,0.0299166 -0.0380602,0.0706744 -0.0334325,0.10976644 -0.0169321,-0.0348025 -0.0443121,-0.0683449 -0.0845549,-0.0751008 -0.0151165,-0.008299 -0.039774,-0.009374 -0.0194483,0.009732 0.0199308,0.034751 0.012433,0.0807344 0.0421635,0.11080812 0.0318446,0.0273816 -0.0310603,0.008579 -0.0460119,0.0264388 -0.0222945,0.009523 -0.0271665,0.0424085 -0.0535652,0.0439212 -0.007183,0.0138736 0.0245885,0.0163261 0.0342454,0.0282144 0.0230666,0.0218851 0.0581945,0.0266643 0.0848261,0.008841 0.002345,0.0111106 -0.0155394,0.0581822 -0.006939,0.0828477 0.006607,0.0246722 -1.5465e-4,0.0513316 0.006771,0.0744349 0.005511,0.0186109 0.0119973,0.0393539 0.0204709,0.0101471 0.0166991,-0.0241669 0.0426851,-0.0435742 0.0474484,-0.074462 0.004603,-0.0254188 0.006322,-0.024719 0.009048,-1.8274e-4 0.0152084,0.0274213 0.041137,0.0582622 0.0766852,0.0512739 0.01265,8.1749e-4 0.0359348,0.006934 0.0189256,-0.0113086 -0.014164,-0.0577764 -0.0110247,-0.12127002 -0.0400581,-0.17480452 -0.022881,-0.0161478 -0.002046,-0.0193732 0.0147751,-0.0210752 0.0406679,-0.00945 0.0692059,-0.0432504 0.0945531,-0.073925 0.021072,-0.006555 0.0259355,-0.0346242 -0.002909,-0.0229148 -0.0357272,1.1289e-4 -0.068603,-0.0295822 -0.1053843,-0.0168723 -0.0189845,0.003412 -0.046934,0.0353459 -0.033664,-0.00374 0.00798,-0.033655 0.0302801,-0.0622496 0.0333128,-0.0973459 0.002035,-0.008172 0.0120225,-0.0226593 -0.003485,-0.0241553 z m 7.5757e-4,0.0112858 c -0.004655,0.0269718 -0.0134003,0.0525851 -0.0258744,0.0768813 -0.008638,0.016873 -0.022088,0.0684733 -0.004262,0.0665714 0.0102202,-0.0171664 0.0349957,-0.0248807 0.0545989,-0.0243031 0.0321703,6.707e-5 0.0594477,0.0227123 0.0915448,0.0212726 -0.0228175,0.0191866 -0.038159,0.0465852 -0.0642438,0.0624332 -0.0196351,0.0160763 -0.0459613,0.0187965 -0.0698132,0.0228784 -0.0269494,-0.002753 0.0149906,0.0154951 0.018346,0.0307543 0.0254535,0.0529303 0.0228134,0.11387113 0.0364928,0.1699003 -0.0244906,0.002605 -0.0532457,2.3459e-4 -0.068253,-0.0225239 -0.0321172,-0.0321389 -0.014345,-0.0803841 -0.0215619,-0.12008951 -0.0213766,-0.0234514 0.006595,0.0344332 -0.005605,0.0469471 -0.00501,0.0325929 -0.009527,0.0679524 -0.0332339,0.0927619 -0.0107987,0.00571 -0.0252884,0.0438178 -0.0294474,0.0274399 -0.0130496,-0.0189194 9.821e-5,-0.0436743 -0.008231,-0.0650215 -0.006643,-0.0399963 -0.005518,-0.091599 0.0318178,-0.116792 -0.002768,-0.0234953 -0.0187384,0.0112936 -0.0318555,0.0124797 -0.024111,0.0180161 -0.0578733,0.0158776 -0.0798004,-0.004501 -0.008202,-0.006182 -0.0223369,-0.0121157 -0.0267742,-0.01843 0.0216225,-0.0126659 0.0294373,-0.0425231 0.0566006,-0.0480307 0.0161436,-0.0103565 0.0708706,0.005429 0.0640995,-0.009207 -0.0387435,-0.0186732 -0.0548694,-0.0627466 -0.0587689,-0.10297052 -0.0102712,-0.0188065 -0.0155324,-0.037506 0.0115011,-0.0245046 0.0373133,0.008629 0.0570608,0.0445636 0.0721161,0.0763126 0.0238364,0.013742 -0.003205,-0.0356288 0.008778,-0.0471045 0.005549,-0.0415715 0.0322114,-0.0829945 0.0727372,-0.0974522 0.00297,-0.002026 0.006305,-0.003465 0.009092,-0.005702 z m -0.0337403,0.0568132 c -0.004201,0.0160154 -0.0161071,0.0450687 -0.008638,0.0536502 -1.0705e-4,-0.0175661 0.0121456,-0.0407763 0.008638,-0.0536502 z m 0.001355,0.003107 c -3.9252e-4,8.8132e-4 -9.7131e-4,-0.002333 0,0 z m -0.0108092,0.0455611 c 4.6417e-4,0.001369 -9.6269e-4,-5.933e-5 0,0 z m -5.8509e-4,0.003873 c -0.001269,2.8649e-4 9.52e-6,-0.001337 0,0 z m -0.006447,-0.0371717 c -0.010733,0.0117327 -0.0184584,0.0634464 -0.0103729,0.0569189 -0.003021,-0.0199911 0.009604,-0.0396741 0.0103729,-0.0569189 z m -0.006319,0.0187506 c -6.8599e-4,0.001161 -6.8614e-4,-0.001161 0,0 z m -0.002103,0.006313 c 4.6417e-4,0.001369 -9.6269e-4,-5.933e-5 0,0 z m -0.0821083,0.0141253 c 0.003075,0.007116 0.0412774,0.0660468 0.0272921,0.0319789 C 0.613615,0.48799125 0.6057797,0.47342735 0.5931819,0.46782375 Z m 0.0197664,0.0237858 c -0.001162,7.2029e-4 -3.0419e-4,-8.296e-4 0,0 z m 0.002897,0.004862 c 1.8724e-4,0.001767 -9.9749e-4,-0.00109 0,0 z m 0.13627573,0.007757 c -0.0206023,-0.006123 -0.0675947,0.0411048 -0.029242,0.0141948 0.003567,-0.005078 0.050904,-0.0101853 0.029242,-0.0141948 z m -0.002828,0.002617 c -2.7062e-4,0.001266 -6.7701e-4,-9.6495e-4 0,0 z m -0.13878791,0.002947 c -0.004428,0.0179301 0.0304529,0.0267382 0.004798,0.004934 -0.0038,0.00479 -0.001346,-0.008142 -0.004798,-0.004934 z m 0.13741764,0.0153917 c -0.0227019,0.005397 -0.0289439,0.0220682 -0.003074,0.006013 0.004478,6.1848e-4 0.0181403,-0.00781 0.003074,-0.006013 z m 0.0271908,0.002768 c -0.006941,0.0213653 -0.055828,0.0261801 -0.0511877,0.0352117 0.0222838,-0.00151 0.0434426,-0.0173364 0.0538223,-0.0363309 l -0.002635,0.001118 z m -0.16359366,0.002129 c 0.005416,0.0208439 0.034769,0.0189264 0.006675,0.002264 -0.002316,-9.7303e-4 -0.004188,-0.004908 -0.006675,-0.002264 z m 0.0409044,0.0141243 c -0.005337,0.0167435 0.007057,0.0170698 -0.0104318,0.0275592 0.0101421,0.0110144 0.016458,0.0150976 0.008287,0.0318162 0.002948,0.0201563 0.0243666,-0.0141776 0.0379898,-4.4304e-4 -0.0153796,-0.0209086 0.0119977,-0.0208405 0.00616,-0.039164 -0.0178489,-0.001065 -0.0117738,-0.0263397 -0.0300222,-0.0130267 l -0.005014,-0.003197 -0.00697,-0.003543 z m 0.003333,0.008735 c 0.0208373,0.00146 0.0166692,0.010233 0.0337397,0.0190023 -0.0185411,0.0129561 -2.6601e-4,0.026526 -0.0269836,0.0268454 -0.0175028,0.0129664 0.009149,-0.0178764 0.001193,-0.0213626 -0.0332276,-0.007244 0.0190854,-0.004989 -0.00172,-0.0130298 -0.003988,0.003836 -0.008143,-0.0145495 -0.006229,-0.0114553 z m -0.0634027,0.0276714 c -0.0193496,-0.003346 -0.0368022,0.0189806 -0.005473,0.006637 0.0116921,0.001325 0.0313312,-0.007206 0.005473,-0.006637 z m -0.004628,0.0272458 c -0.0283275,0.00885 0.003406,0.0125412 0,0 z m 0.11756097,0.00982 c 0.009426,0.0171743 0.0130308,0.0652211 0.0170782,0.0640118 0.001645,-0.0220964 -0.004693,-0.0465751 -0.0170782,-0.0640118 z m 0.0155018,0.0503498 c -3.5346e-4,0.002758 -4.6151e-4,-0.001931 0,0 z m 0,0.003529 c -3.5346e-4,0.002758 -4.6152e-4,-0.001931 0,0 z m 0.003587,-0.0428941 c 0.002083,0.0187762 0.0136632,0.0586705 0.007539,0.0171754 -0.003316,-0.004924 -0.002943,-0.0145784 -0.007539,-0.0171754 z m 0.008489,0.0328783 c 4.6417e-4,0.001369 -9.6269e-4,-5.933e-5 0,0 z m -0.0355871,-0.02458 c -0.005484,0.0228321 0.005086,0.077278 0.0141344,0.0797067 -0.007259,-0.0260519 -0.0142573,-0.0527097 -0.0125011,-0.0800728 l -0.001634,3.6831e-4 z m 6.3915e-4,0.0182353 c -3.9253e-4,8.8125e-4 -9.7131e-4,-0.002333 0,0 z m 0.003295,0.027003 c -0.001377,0.00114 -4.935e-4,-6.8152e-4 0,0 z m 1.1024e-4,0.001132 c -7.5195e-4,0.001385 -5.7516e-4,-0.001064 0,0 z m 7.9885e-4,0.002705 c -6.877e-5,0.001039 -0.001815,-3.0097e-4 0,0 z m 0.007008,0.0303361 c -3.9256e-4,8.8125e-4 -9.7131e-4,-0.002333 0,0 z m -0.0677881,-0.0751192 c -0.014295,0.0219216 -0.0142551,0.0499467 -0.0163164,0.0752177 0.005025,-0.0119059 0.00843,-0.0610043 0.0163164,-0.0752177 z m -0.0102938,0.032445 c 4.6418e-4,0.001369 -9.6269e-4,-5.932e-5 0,0 z m 0.0237985,-0.0264399 c 0.004574,0.0196236 -0.0180393,0.0715434 -0.0111036,0.0729983 0.002412,-0.0242052 0.019224,-0.0501054 0.0111036,-0.0729983 z m 0.001113,0.0160576 c -2.7062e-4,0.001266 -6.7701e-4,-9.6495e-4 0,0 z m -0.0134982,0.0171741 c -0.007329,0.0222097 -0.005256,0.0585607 -7.3492e-4,0.0159888 -0.001229,-0.005043 0.006129,-0.0116216 7.3492e-4,-0.0159888 z m 0.009357,-0.23798918 c 2.332e-5,0.001824 -0.001583,-1.4664e-4 0,0 z m -0.0513849,0.23196435 c -5.7162e-4,0.002792 -6.7629e-4,-0.001442 0,0 z m -9.0081e-4,0.006684 c 4.6416e-4,0.001369 -9.6268e-4,-5.933e-5 0,0 z m 0.16192412,0.033959 c -0.001099,-1.1051e-4 3.9677e-4,-0.001635 0,0 z m 0.149974,-0.0823193 c -6.9142e-4,0.0055 0.001309,8.5991e-4 0,0 z"
         id="path3997"
         inkscape:connector-curvature="0"
         sodipodi:nodetypes="ccccccccccccccccccccccccccccccccccccccccccccccccccccccccccccccccccccccccccccccccccccccccccccccccccccccccccccccccccccccccccccccccccccccccccccccccccccccccccccccccccccccc" /><path
         style="fill:#4400aa;fill-opacity:1;stroke-width:1.11864412"
         d="m 397.64967,908.60372 c -0.95171,-1.14675 -1.29547,-3.93887 -0.99849,-8.11017 0.24909,-3.49874 0.39754,-11.89864 0.32989,-18.66643 -0.11228,-11.23327 -0.72651,-14.64359 -7.05171,-39.15255 -10.75229,-41.66309 -10.56808,-55.00657 1.15028,-83.32123 6.0407,-14.59592 6.83856,-19.54502 3.30011,-20.47036 -2.69741,-0.70538 -20.29917,5.33009 -30.23059,10.36579 -3.99916,2.02775 -13.06017,6.97512 -20.1356,10.99415 -16.90294,9.60132 -25.06164,13.2295 -35.54392,15.80641 -4.75339,1.16856 -11.2282,3.24737 -14.38847,4.6196 -6.48663,2.81657 -8.77588,2.41746 -10.72967,-1.87062 -1.18672,-2.60458 -0.96834,-3.66471 1.76244,-8.55576 1.71435,-3.07056 6.1161,-12.36163 9.78166,-20.64684 8.69418,-19.6513 12.00334,-24.58631 24.62451,-36.72301 14.98076,-14.40573 31.01025,-23.81463 48.5443,-28.49425 3.07627,-0.82102 12.30557,-1.78433 20.50956,-2.14069 l 14.91634,-0.64793 -6.55133,-4.61306 c -28.54309,-20.09838 -46.23138,-45.61559 -52.8796,-76.28439 -1.15801,-5.342 -2.89455,-12.48137 -3.85898,-15.86526 -0.96443,-3.3839 -1.75948,-9.06284 -1.76678,-12.61986 -0.0182,-8.88228 1.79703,-9.30206 9.34709,-2.16153 9.21324,8.7135 17.28941,12.26677 47.54368,20.91778 23.14136,6.61712 36.94859,15.44521 48.57584,31.05852 3.40884,4.57745 7.81834,5.65707 9.1377,2.23729 0.41539,-1.0767 1.25558,-9.76017 1.86708,-19.29661 0.6115,-9.53644 1.80723,-20.3938 2.65717,-24.12747 2.64239,-11.60763 9.79665,-23.17248 22.47866,-36.33671 11.76688,-12.21431 16.3776,-19.4064 17.76241,-27.70693 1.53873,-9.22307 6.55514,-6.85704 11.11298,5.24152 1.53765,4.08161 3.85756,10.30704 5.15537,13.83428 1.29781,3.52724 4.03831,8.85351 6.09,11.83614 5.67484,8.24976 10.37145,18.17985 13.16731,27.83974 2.09783,7.24812 2.51872,11.37473 2.48717,24.38553 -0.0357,14.72829 -0.25125,16.26063 -3.61942,25.72881 -1.96981,5.53729 -3.71302,10.57119 -3.87381,11.18644 -0.41573,1.59077 7.10663,0.82013 17.37463,-1.77999 4.7948,-1.21416 9.15646,-1.93647 9.69259,-1.60512 0.53612,0.33134 1.14362,0.11362 1.34998,-0.48383 0.59592,-1.72528 15.97519,-4.52226 24.77885,-4.50646 5.0287,0.009 10.75871,0.88562 15.30822,2.34189 5.75528,1.84222 11.8189,2.50908 29.08475,3.19865 23.69623,0.94638 29.54671,2.20635 42.71286,9.19873 9.63688,5.11802 9.76179,8.16969 0.52595,12.84985 -3.69426,1.87203 -9.04281,6.4824 -15.1884,13.09218 -27.62545,29.71207 -34.88894,35.2149 -52.66058,39.89577 -5.22966,1.37743 -10.42191,2.97176 -11.53833,3.54295 -3.33994,1.7088 -0.32423,3.88029 7.23904,5.21253 4.25846,0.75012 8.31708,2.3417 10.86254,4.25976 12.10155,9.11874 24.78994,23.91832 30.85045,35.98358 5.74808,11.44331 7.14496,20.00874 7.1987,44.14157 0.0315,14.15811 -0.36757,22.20838 -1.12417,22.67599 -0.64519,0.39874 -2.76798,-0.82085 -4.71729,-2.7102 -4.55023,-4.41026 -15.41047,-7.33145 -52.75399,-14.18978 -39.27987,-7.21397 -52.03052,-10.57349 -69.90412,-18.41826 -13.4119,-5.88652 -22.85323,-12.04879 -25.23432,-16.4702 -2.48183,-4.60846 -6.46669,-7.55369 -8.93733,-6.60562 -2.78763,1.06972 -4.66515,7.06611 -6.60535,21.09604 -4.46145,32.26147 -19.10048,59.27704 -51.18161,94.45299 -4.89182,5.36373 -9.84918,12.21476 -12.00031,16.58432 -4.89594,9.94507 -12.08027,14.49146 -15.80594,10.00232 z m 30.66159,-38.52237 c 31.1449,-35.91535 39.90036,-55.56899 45.84755,-102.91525 l 2.59949,-20.69492 7.31019,11.18644 c 9.00229,13.77577 11.05897,15.69664 24.38575,22.77543 14.20107,7.54321 33.65399,13.88624 56.34908,18.37383 10.2783,2.03236 18.29156,4.09145 17.80726,4.57577 -0.48431,0.4843 0.38662,0.56251 1.93542,0.17379 2.99357,-0.75134 31.86991,4.54889 45.7037,8.38887 4.53919,1.25999 8.56493,1.97905 8.94608,1.59789 0.38115,-0.38115 0.65964,-7.57405 0.61886,-15.9842 -0.12713,-26.21965 -4.72303,-40.45656 -17.8617,-55.3309 -8.88833,-10.06252 -16.13188,-15.24178 -26.30482,-18.80842 -6.6367,-2.32682 -9.78004,-2.57859 -39.47859,-3.16203 l -32.26775,-0.63392 -2.68431,-3.35594 c -1.47638,-1.84576 -2.68682,-3.73347 -2.68987,-4.19491 -0.0101,-1.52631 5.42137,-0.87493 16.32326,1.95763 12.90712,3.35354 18.15514,3.49027 25.59871,0.66685 3.08816,-1.17136 13.09557,-3.90713 22.23868,-6.07948 21.56283,-5.12319 34.23985,-11.20892 45.76019,-21.96763 4.47178,-4.17616 8.82874,-8.89765 9.68212,-10.49221 0.85338,-1.59456 6.47451,-7.1941 12.49139,-12.44344 14.81592,-12.92592 15.07066,-14.17969 4.11429,-20.25005 -5.86622,-3.25018 -5.96721,-3.26335 -22.92848,-2.99035 -12.4032,0.19962 -18.33552,-0.15992 -21.81356,-1.3221 -14.2862,-4.77367 -41.05254,-5.93403 -55.11623,-2.38936 -17.34853,4.37259 -31.21405,13.74724 -39.92167,26.99152 -4.94238,7.51736 -6.32382,8.34553 -9.17123,5.49811 -2.25245,-2.25244 -1.55531,-3.85815 6.29958,-14.51 6.6429,-9.00827 9.75715,-15.31995 15.17865,-30.76271 2.6801,-7.63411 2.94456,-9.90129 2.93593,-25.16949 -0.009,-15.4656 -0.25379,-17.47966 -3.1291,-25.71808 -1.71578,-4.91613 -4.86448,-11.81077 -6.99708,-15.32142 -2.13261,-3.51065 -5.92228,-10.809 -8.4215,-16.21855 -4.56257,-9.87566 -8.28328,-16.01314 -9.70761,-16.01314 -0.42059,0 -1.92844,2.19362 -3.35076,4.87471 -1.42231,2.6811 -7.38953,10.1061 -13.26047,16.5 -16.68777,18.17424 -19.63623,23.19465 -23.9089,40.71004 -2.26744,9.29521 -2.41013,11.95633 -1.85927,34.67796 0.59077,24.36804 0.21085,29.65001 -2.19017,30.45035 -0.68118,0.22707 -2.77544,-2.87151 -4.65391,-6.88572 -9.48233,-20.26326 -25.09682,-35.50454 -46.48922,-45.37802 -8.73279,-4.03055 -24.79556,-8.94164 -29.29386,-8.95642 -1.18861,-0.004 -6.62264,-2.26916 -12.07562,-5.0339 -5.45298,-2.76474 -10.82847,-5.0268 -11.94552,-5.0268 -3.04066,0 -5.54675,3.09399 -5.54675,6.84796 0,4.96811 6.5176,28.51622 10.06733,36.37332 8.30798,18.3892 23.61583,34.43829 47.69096,50.00028 8.1176,5.24715 9.36036,6.75321 9.36036,11.34347 0,3.70291 -2.4502,4.17033 -11.55058,2.20352 -20.23216,-4.37267 -20.20933,-4.37091 -25.49859,-1.96695 -2.69499,1.22487 -8.67541,3.37033 -13.28981,4.76768 -29.94594,9.06834 -56.19255,35.75182 -67.09845,68.21527 -1.32873,3.95523 -3.39725,9.11498 -4.59671,11.4661 -2.17271,4.25887 -2.17246,4.27478 0.0658,4.27478 4.10568,0 23.9305,-6.8886 35.2734,-12.25656 6.15255,-2.91165 16.55122,-8.56517 23.10818,-12.56337 24.89676,-15.18115 53.02847,-20.21471 56.24995,-10.06472 0.45533,1.43458 -0.56831,3.39621 -3.26348,6.25393 -11.90014,12.61782 -18.73832,43.125 -15.21847,67.89416 0.7345,5.16866 4.31735,20.72385 7.96189,34.56707 5.62436,21.36333 8.85973,38.59203 8.89852,47.38577 0.006,1.3459 1.71778,-0.23428 4.8474,-4.47458 2.66103,-3.6054 10.73134,-13.35103 17.93405,-21.65696 z"
         id="path6286"
         inkscape:connector-curvature="0"
         transform="matrix(3.5190156e-7,0.00122549,9.4696966e-4,-4.5540184e-7,-1.4356708e-4,2.4045255e-4)" /><path
         style="fill:#4400aa;fill-opacity:1;stroke-width:1.11864412"
         d="m 352.25561,720.42217 c 1.1075,-1.79198 10.7978,-5.95023 12.05524,-5.17309 0.81105,0.50126 1.00142,0.3177 0.50445,-0.48641 -0.73989,-1.19717 -0.28953,-1.38873 4.08809,-1.73894 0.76907,-0.0615 1.6841,-0.49651 2.03339,-0.96662 0.81818,-1.10117 15.12104,-4.1396 19.50051,-4.14259 7.20601,-0.005 6.20299,1.89727 -1.30646,2.47765 -5.27405,0.40762 -11.8761,2.1897 -21.30228,5.7501 -13.57769,5.12849 -16.61295,5.96266 -15.57294,4.2799 z"
         id="path6290"
         inkscape:connector-curvature="0"
         transform="matrix(3.5190156e-7,0.00122549,9.4696966e-4,-4.5540184e-7,-1.4356708e-4,2.4045255e-4)" /><path
         style="fill:#4400aa;fill-opacity:1;stroke-width:0.55932206"
         d=""
         id="path6292"
         inkscape:connector-curvature="0"
         transform="matrix(3.5190156e-7,0.00122549,9.4696966e-4,-4.5540184e-7,-1.4356708e-4,2.4045255e-4)" /><path
         style="fill:#4400aa;fill-opacity:1;stroke-width:0.55932206"
         d="m 339.09737,739.45169 c 0.009,-0.6601 20.98096,-8.60975 26.48345,-10.03893 5.88007,-1.52724 11.84686,-1.76311 11.34234,-0.44836 -0.17707,0.46144 -0.0991,0.83899 0.17321,0.83899 0.27234,0 0.58386,-0.2661 0.69227,-0.59133 0.22711,-0.68134 2.1334,-0.0995 2.1334,0.65117 0,0.27471 -0.90192,0.49948 -2.00427,0.49948 -2.80215,0 -9.58878,1.81076 -17.98088,4.79753 -3.92809,1.39801 -9.15553,3.02812 -11.61655,3.62247 -4.53377,1.09493 -9.23365,1.43583 -9.22297,0.66898 z"
         id="path6294"
         inkscape:connector-curvature="0"
         transform="matrix(3.5190156e-7,0.00122549,9.4696966e-4,-4.5540184e-7,-1.4356708e-4,2.4045255e-4)" /><path
         style="fill:#4400aa;fill-opacity:1;stroke-width:0.55932206"
         d="m 412.75962,798.98351 c -0.15515,-0.40433 -0.59416,-2.66958 -0.97556,-5.0339 -1.2733,-7.8931 0.80893,-16.05503 7.58912,-29.74792 3.77961,-7.63307 9.43926,-16.45706 10.11928,-15.77703 0.40381,0.40381 -2.32064,6.71212 -5.18478,12.00506 -3.10462,5.73734 -3.51184,7.13638 -6.31489,21.69531 -3.0328,15.75219 -4.20662,19.53362 -5.23317,16.85848 z"
         id="path6296"
         inkscape:connector-curvature="0"
         transform="matrix(3.5190156e-7,0.00122549,9.4696966e-4,-4.5540184e-7,-1.4356708e-4,2.4045255e-4)" /><path
         style="fill:#4400aa;fill-opacity:1;stroke-width:0.55932206"
         d="m 436.2289,814.68051 c 5.15088,-5.45209 8.36691,-12.6394 14.45334,-32.30085 3.9177,-12.65565 6.01749,-17.47678 7.756,-17.80783 0.96365,-0.1835 1.01914,0.0693 0.67403,3.07088 -1.75989,15.30654 -7.7536,29.9911 -16.91494,41.44148 -3.29482,4.11806 -7.54822,8.53276 -8.22099,8.53276 -0.28691,0 0.72674,-1.3214 2.25256,-2.93644 z"
         id="path6298"
         inkscape:connector-curvature="0"
         transform="matrix(3.5190156e-7,0.00122549,9.4696966e-4,-4.5540184e-7,-1.4356708e-4,2.4045255e-4)" /><path
         style="fill:#4400aa;fill-opacity:1;stroke-width:0.55932206"
         d="m 428.92803,796.05158 c -1.55803,-4.06016 2.88939,-19.52854 7.26368,-25.26354 0.76859,-1.00766 1.63631,-1.83211 1.92828,-1.83211 1.55974,0 -0.067,6.86886 -3.37046,14.23165 -0.93054,2.07401 -1.6919,4.36726 -1.6919,5.09612 0,1.74497 -2.07461,7.2477 -3.03207,8.04233 -0.57179,0.47454 -0.83541,0.40862 -1.09753,-0.27445 z"
         id="path6300"
         inkscape:connector-curvature="0"
         transform="matrix(3.5190156e-7,0.00122549,9.4696966e-4,-4.5540184e-7,-1.4356708e-4,2.4045255e-4)" /><path
         style="fill:#4400aa;fill-opacity:1;stroke-width:0.55932206"
         d="m 572.88814,746.81595 c -18.57701,-6.36844 -32.46135,-9.15347 -45.72458,-9.17181 -6.76187,-0.009 -8.87534,-0.44729 -6.52013,-1.35107 0.48999,-0.18803 3.29095,-0.63682 6.22436,-0.99731 15.82298,-1.94453 45.94732,4.88434 55.20347,12.51404 1.83929,1.5161 2.60647,2.78563 1.58383,2.62095 -0.23072,-0.0372 -5.07585,-1.66382 -10.76695,-3.6148 z m -12.30509,-5.82612 c 0,-0.30763 -0.25169,-0.55932 -0.55932,-0.55932 -0.30763,0 -0.55932,0.25169 -0.55932,0.55932 0,0.30762 0.25169,0.55932 0.55932,0.55932 0.30763,0 0.55932,-0.2517 0.55932,-0.55932 z m -2.86052,-1.15815 c -0.89758,-0.55473 -1.30614,-0.26047 -0.79243,0.57074 0.20588,0.33311 0.63549,0.44424 0.95471,0.24695 0.37579,-0.23225 0.31858,-0.5205 -0.16228,-0.81769 z m -22.86829,-3.00376 c 0,-0.13566 -0.25169,-0.40221 -0.55932,-0.59233 -0.30763,-0.19012 -0.55932,-0.0791 -0.55932,0.24665 0,0.32578 0.25169,0.59233 0.55932,0.59233 0.30763,0 0.55932,-0.11099 0.55932,-0.24665 z"
         id="path6302"
         inkscape:connector-curvature="0"
         transform="matrix(3.5190156e-7,0.00122549,9.4696966e-4,-4.5540184e-7,-1.4356708e-4,2.4045255e-4)" /><path
         style="fill:#4400aa;fill-opacity:1;stroke-width:0.55932206"
         d="m 411.37909,656.55324 c -10.0202,-4.74036 -26.15024,-20.62144 -28.38468,-27.94659 -0.40423,-1.32519 -0.3555,-1.31469 2.03215,0.438 5.9823,4.39139 18.11938,14.87242 24.39971,21.07049 8.55639,8.44431 8.95225,9.74938 1.95282,6.4381 z m -9.64349,-9.52951 c 0,-0.30763 -0.2517,-0.55933 -0.55933,-0.55933 -0.30762,0 -0.55932,0.2517 -0.55932,0.55933 0,0.30762 0.2517,0.55932 0.55932,0.55932 0.30763,0 0.55933,-0.2517 0.55933,-0.55932 z"
         id="path6304"
         inkscape:connector-curvature="0"
         transform="matrix(3.5190156e-7,0.00122549,9.4696966e-4,-4.5540184e-7,-1.4356708e-4,2.4045255e-4)" /><path
         style="fill:#4400aa;fill-opacity:1;stroke-width:0.55932206"
         d="m 426.27614,657.23135 c -4.04227,-4.29374 -5.65731,-6.80209 -5.29896,-8.2299 0.30565,-1.2178 0.085,-1.42479 -2.22194,-2.08439 -1.40871,-0.40277 -2.60531,-0.98401 -2.65911,-1.29164 -0.14669,-0.83873 4.00815,-1.01154 5.86164,-0.2438 3.67373,1.52171 8.30325,8.57396 8.30325,12.64852 0,1.96647 -1.70294,1.62511 -3.98488,-0.79879 z"
         id="path6306"
         inkscape:connector-curvature="0"
         transform="matrix(3.5190156e-7,0.00122549,9.4696966e-4,-4.5540184e-7,-1.4356708e-4,2.4045255e-4)" /><path
         style="fill:#4400aa;fill-opacity:1;stroke-width:0.55932206"
         d="m 440.63217,663.04518 c -2.44354,-3.20365 -8.6883,-15.38337 -8.34543,-16.27687 0.27446,-0.71524 0.60403,-0.68538 2.36272,0.21407 5.10977,2.61329 9.67741,9.52586 9.80603,14.84023 0.0602,2.48705 -0.074,2.84003 -1.13738,2.99157 -0.83549,0.11906 -1.66009,-0.42403 -2.68594,-1.769 z"
         id="path6308"
         inkscape:connector-curvature="0"
         transform="matrix(3.5190156e-7,0.00122549,9.4696966e-4,-4.5540184e-7,-1.4356708e-4,2.4045255e-4)" /><path
         style="fill:#4400aa;fill-opacity:1;stroke-width:0.55932206"
         d="m 474.7575,637.37542 c -0.20887,-0.69216 -0.52398,-5.309 -0.70024,-10.25964 -0.25959,-7.29073 -0.14042,-9.81054 0.62712,-13.26049 1.08583,-4.88057 3.82441,-10.75749 5.40776,-11.60486 2.44966,-1.31103 2.45104,3.74027 0.004,13.26479 -0.64555,2.51227 -1.1781,6.2877 -1.18344,8.38983 -0.0141,5.55238 -2.10053,14.72884 -3.34885,14.72884 -0.23442,0 -0.59712,-0.56631 -0.80598,-1.25847 z"
         id="path6310"
         inkscape:connector-curvature="0"
         transform="matrix(3.5190156e-7,0.00122549,9.4696966e-4,-4.5540184e-7,-1.4356708e-4,2.4045255e-4)" /><path
         style="fill:#4400aa;fill-opacity:1;stroke-width:0.55932206"
         d="m 496.40167,620.03644 c 0.14318,-0.38454 0.81967,-2.59475 1.50331,-4.9116 1.45939,-4.94581 3.06655,-7.45052 3.93658,-6.13501 1.36312,2.06108 0.19377,8.25959 -1.96554,10.41889 -1.39717,1.39718 -3.93134,1.85503 -3.47435,0.62772 z"
         id="path6312"
         inkscape:connector-curvature="0"
         transform="matrix(3.5190156e-7,0.00122549,9.4696966e-4,-4.5540184e-7,-1.4356708e-4,2.4045255e-4)" /><path
         style="fill:#4400aa;fill-opacity:1;stroke-width:0.55932206"
         d="m 528.7017,673.69054 c 0,-0.16518 1.82479,-1.30309 4.05508,-2.5287 5.32193,-2.92453 14.06173,-5.91779 21.43163,-7.34004 5.89557,-1.13773 27.61428,-3.59538 28.03704,-3.17263 0.4166,0.4166 -8.73001,2.63709 -23.43807,5.68996 -12.512,2.59704 -25.47655,5.83321 -29.10687,7.26554 -0.53835,0.21241 -0.97881,0.25105 -0.97881,0.0859 z"
         id="path6314"
         inkscape:connector-curvature="0"
         transform="matrix(3.5190156e-7,0.00122549,9.4696966e-4,-4.5540184e-7,-1.4356708e-4,2.4045255e-4)" /><path
         style="fill:#4400aa;fill-opacity:1;stroke-width:0.55932206"
         d="m 556.80763,679.6533 c -1.15494,-0.46603 -0.79406,-1.29824 0.83898,-1.93473 6.2275,-2.4272 22.57161,-4.9696 25.34715,-3.94286 1.10112,0.40733 0.70649,0.61983 -2.58528,1.39213 -5.35629,1.25667 -10.17414,2.05928 -12.36136,2.05928 -1.01142,0 -3.26177,0.62923 -5.00077,1.3983 -3.04377,1.3461 -4.75242,1.62761 -6.23872,1.02788 z"
         id="path6316"
         inkscape:connector-curvature="0"
         transform="matrix(3.5190156e-7,0.00122549,9.4696966e-4,-4.5540184e-7,-1.4356708e-4,2.4045255e-4)" /><path
         style="fill:#4400aa;fill-opacity:1;stroke-width:0.55932206"
         d="m 533.45594,692.88813 c -1.55925,-0.39676 -1.50611,-0.43165 0.75112,-0.49314 5.02347,-0.13686 14.25989,-2.50213 28.88513,-7.39694 17.29116,-5.78705 21.41685,-6.87625 23.30926,-6.15378 1.28951,0.4923 1.28409,0.50536 -0.36924,0.88989 -6.29141,1.46324 -11.18042,3.05548 -20.85993,6.79363 -13.53224,5.22604 -19.99065,6.94329 -25.77535,6.85349 -2.34467,-0.0364 -5.01811,-0.25831 -5.94099,-0.49315 z"
         id="path6318"
         inkscape:connector-curvature="0"
         transform="matrix(3.5190156e-7,0.00122549,9.4696966e-4,-4.5540184e-7,-1.4356708e-4,2.4045255e-4)" /><path
         style="fill:#4400aa;fill-opacity:1;stroke-width:0.55932206"
         d="m 542.242,762.20449 c -10.72005,-1.39231 -24.85135,-7.09007 -31.99793,-12.90162 -1.72748,-1.40478 -1.31077,-1.31021 6.27194,1.42339 2.98813,1.07723 12.04928,3.59264 20.13589,5.5898 14.52248,3.58663 18.48626,4.8105 19.17168,5.91953 0.41861,0.67733 -8.28038,0.65741 -13.58158,-0.0311 z"
         id="path6320"
         inkscape:connector-curvature="0"
         transform="matrix(3.5190156e-7,0.00122549,9.4696966e-4,-4.5540184e-7,-1.4356708e-4,2.4045255e-4)" /><path
         style="fill:#4400aa;fill-opacity:1;stroke-width:0.55932206"
         d="m 532.89661,773.62905 c -2.76864,-0.44177 -6.16652,-1.39154 -7.55084,-2.11061 -1.38433,-0.71907 -3.8538,-1.741 -5.48772,-2.27097 -1.63392,-0.52996 -3.64747,-1.58332 -4.47457,-2.3408 l -1.50382,-1.37724 2.71054,0.35728 c 6.14729,0.81027 23.29794,6.41782 23.29794,7.61746 0,0.30342 0.2343,0.40687 0.52067,0.22988 0.28637,-0.17698 0.67877,-0.066 0.872,0.24665 0.46629,0.75449 -2.13569,0.64536 -8.3842,-0.35165 z"
         id="path6322"
         inkscape:connector-curvature="0"
         transform="matrix(3.5190156e-7,0.00122549,9.4696966e-4,-4.5540184e-7,-1.4356708e-4,2.4045255e-4)" /><path
         style="fill:#4400aa;fill-opacity:1;stroke-width:0.55932206"
         d="m 461.27501,733.29058 c -0.32324,-0.22601 -0.89779,-1.78717 -1.27677,-3.46926 -1.01247,-4.49382 -3.00675,-7.44787 -7.38809,-10.94366 -2.14659,-1.71273 -4.31748,-3.74681 -4.82422,-4.52018 -1.33338,-2.035 -1.083,-5.75481 0.64678,-9.60929 l 1.49445,-3.33007 -1.42411,-2.81035 c -1.4164,-2.79513 -3.69884,-8.45407 -3.69938,-9.17202 -8.1e-4,-1.08335 4.36807,-1.6935 9.5138,-1.32868 l 5.45578,0.38679 1.9165,-1.97335 c 1.05407,-1.08535 2.51108,-3.24283 3.2378,-4.79439 0.72671,-1.55157 1.49475,-2.82104 1.70675,-2.82104 0.212,0 1.96532,1.88683 3.89627,4.19296 4.79672,5.72871 7.64075,7.5528 11.77595,7.5528 2.49769,0 3.99042,-0.40149 6.85723,-1.84434 2.78687,-1.40263 3.97238,-1.73047 4.94991,-1.36886 4.31787,1.59728 4.37501,4.68796 0.26515,14.3421 -4.83518,11.35793 -5.65158,14.65848 -4.77992,19.32425 0.28075,1.50283 0.435,2.80788 0.34276,2.90012 -0.0922,0.0922 -1.39357,-0.4529 -2.89184,-1.21142 -1.49828,-0.75852 -3.32075,-1.37913 -4.04993,-1.37913 -2.34121,0 -5.51373,2.08561 -8.61073,5.66068 -4.34019,5.01017 -6.79442,6.64635 -9.95358,6.63584 -1.41507,-0.005 -2.83732,-0.19349 -3.16056,-0.4195 z m 7.796,-8.18621 c 2.655,-3.85494 5.24706,-5.62964 10.66306,-7.30067 2.38614,-0.7362 4.94598,-1.90932 5.68855,-2.60693 1.72075,-1.61656 2.81893,-5.32958 3.31922,-11.2225 0.22918,-2.6995 0.83399,-5.52541 1.44019,-6.72911 1.20353,-2.38977 1.35979,-4.35748 0.34594,-4.35602 -0.38453,5.6e-4 -3.34195,1.76372 -6.57203,3.91815 -3.23009,2.15442 -6.95687,4.33302 -8.28175,4.84133 -3.24284,1.24418 -3.79314,0.61976 -5.10748,-5.79546 -0.56986,-2.78144 -1.34726,-5.63857 -1.72757,-6.34918 -0.64825,-1.21127 -0.73667,-1.23021 -1.41458,-0.30312 -0.39771,0.5439 -1.01115,2.79159 -1.36319,4.99487 -0.82539,5.16569 -2.1399,9.87884 -2.75524,9.87884 -0.71243,0 -2.2824,-4.23745 -2.2824,-6.16035 0,-1.29398 -0.49066,-2.01857 -2.21051,-3.26443 -2.24599,-1.62698 -7.05017,-3.31454 -7.67036,-2.69435 -0.60103,0.60104 0.87777,10.04685 2.13108,13.61225 0.73112,2.07985 2.74978,5.52403 5.08128,8.66949 2.12754,2.87031 4.8596,7.16938 6.07124,9.55349 1.21164,2.38411 2.28418,4.33475 2.38343,4.33475 0.0992,0 1.11675,-1.35947 2.26112,-3.02105 z"
         id="path6324"
         inkscape:connector-curvature="0"
         transform="matrix(3.5190156e-7,0.00122549,9.4696966e-4,-4.5540184e-7,-1.4356708e-4,2.4045255e-4)" /><path
         style="fill:#ccaaff;fill-opacity:1;stroke-width:0.00120508"
         d="m 0.84486161,0.49757465 c -0.0380317,-0.00337 -0.0748286,-0.0319332 -0.11339201,-0.0170626 -0.0135143,-0.002865 -0.0276731,0.0332237 -0.0360832,0.0117158 -0.003274,-0.0412161 0.022804,-0.0720685 0.031694,-0.1092068 0.003767,-0.0115649 0.0101848,-0.0327701 -0.005208,-0.0190622 -0.0326352,0.012984 -0.0599478,0.0476672 -0.0685638,0.0907678 -0.004288,0.008941 -0.005213,0.0180279 -0.002377,0.0278157 0.003544,0.0109972 0.00489,0.0376586 -0.008999,0.0217157 C 0.625895,0.47241795 0.604995,0.44042435 0.5748625,0.43198215 c -0.00929,-0.006249 -0.0312244,-0.008683 -0.0195523,0.0123198 0.008846,0.0204345 0.008504,0.0456029 0.0191441,0.0652009 0.009286,0.0212047 0.0246832,0.0365362 0.0415506,0.0466512 0.009249,0.0137611 -0.0195211,0.006406 -0.0261568,0.008236 -0.02245,-0.001832 -0.0474744,0.00133 -0.0640689,0.0232819 -0.006502,0.0103984 -0.0228179,0.0214067 -0.0253697,0.0291153 0.0225701,0.0145361 0.0451252,0.0358769 0.0716777,0.0321852 0.021378,-0.001061 0.0405143,-0.0156204 0.0573726,-0.0313087 0.0176009,0.006187 -0.009663,0.0196648 -0.013502,0.0306933 -0.0183351,0.0294036 -0.0157186,0.070437 -0.008967,0.10481904 0.001102,0.0142221 -4.3872e-4,0.0290568 8.9623e-4,0.043028 0.003835,0.0141394 0.0116896,0.0172486 0.0184464,0.002365 0.0141443,-0.0191215 0.0322111,-0.0353 0.0384153,-0.061884 0.005664,-0.0204444 0.009292,-0.0421259 0.0129299,-0.0629536 2.8e-6,-0.0107136 -0.0126095,-0.053027 0.004362,-0.0323479 0.001766,0.023846 5.7226e-4,0.0492322 0.002136,0.0735113 9.5472e-4,0.029086 0.020549,0.0520077 0.0401644,0.0624476 0.012766,0.00355 0.036944,0.0110957 0.0445766,6.0656e-4 -0.0116915,-0.057104 -0.0120102,-0.11986388 -0.0379842,-0.17058526 -0.005067,-0.008358 -0.0375384,-0.0259117 -0.0148709,-0.0259858 0.0297801,-0.003871 0.0608606,-0.0104867 0.0851154,-0.0350416 0.0157173,-0.0147294 0.0300191,-0.0318101 0.0450075,-0.0477075 z m -0.0892323,0.0543505 c -0.008729,0.004198 -0.0262779,0.0170581 -0.0317276,0.008099 0.0161365,-0.012522 0.03905,-0.0117882 0.0509588,-0.0325783 0.00754,0.001461 -0.0169041,0.023074 -0.0192312,0.0244793 z m 8.1109e-4,-0.0434845 c -0.016361,0.003575 -0.0339632,0.0115386 -0.0482296,0.0176344 0.0120406,-0.0143213 0.0361043,-0.0294493 0.0495181,-0.0185915 z m -0.004045,0.0211033 c -0.006124,0.003935 -0.036329,0.0146101 -0.0174174,1.6664e-4 0.002026,-0.001873 0.0275674,-0.0111988 0.0174174,-1.6664e-4 z M 0.7330015,0.66412028 c -0.006051,-0.007891 -0.0126225,-0.051702 -0.002555,-0.0236026 0.001728,0.006986 0.005191,0.0167033 0.002555,0.0236026 z m -0.0106659,0.0178267 c -0.006578,-0.0170075 -0.0131949,-0.0517033 -0.0149333,-0.0622591 0.010172,0.0172261 0.017722,0.0404593 0.0149333,0.0622591 z m -0.0119445,0.0353061 c -0.0119053,-0.0180981 -0.0147624,-0.044122 -0.014666,-0.0674468 -1.912e-4,-0.02207 0.004851,-0.005084 0.004049,0.006964 5.8795e-4,0.0204947 0.009554,0.0427575 0.010617,0.0604828 z M 0.6966632,0.44177768 c -0.001762,0.009927 -0.007156,0.0388811 -0.007648,0.0123146 0.002773,-0.010635 0.006326,-0.0377693 0.0125569,-0.0379402 -5.4091e-4,0.008792 -0.003038,0.0172038 -0.004909,0.0256256 z m -0.002377,0.13266967 c -0.00956,0.005992 -0.00985,0.0244343 -0.007958,0.0280537 -0.0111927,-0.007804 -0.0421965,0.0244051 -0.0333759,-0.008212 0.003955,-0.0126505 -0.0207157,-0.0226668 -0.004325,-0.0279671 0.003327,-0.009453 8.529e-5,-0.0298233 0.0132416,-0.0179472 0.0137889,-0.006436 0.0235922,0.0102219 0.0337561,0.0183712 l -3.91e-5,0.003812 z M 0.67857831,0.4529839 c -0.004439,0.006592 -0.005193,0.0495603 -0.008955,0.0236402 2.8934e-4,-0.013553 0.00776,-0.0462932 0.0144103,-0.04645 -0.001002,0.007877 -0.00338,0.0153332 -0.005455,0.0228098 z m -0.0224396,0.21960957 c -0.00454,0.0129304 -0.008228,0.0421354 -0.0143389,0.0451215 0.00432,-0.0229183 0.0117975,-0.0449361 0.0135311,-0.0685677 0.003765,0.004918 0.001987,0.0164213 8.078e-4,0.0234462 z m -0.0122966,0.0164104 c -0.001545,0.007867 -0.006371,0.0421919 -0.005966,0.015946 -0.001918,-0.005588 0.007514,-0.0395928 0.005966,-0.015946 z m -0.0119716,-0.004622 c -0.001244,0.0103452 -0.008439,0.0457801 -0.006179,0.0170015 0.001778,-0.0202599 0.003844,-0.0436326 0.0147801,-0.0588838 -0.003202,0.0137595 -0.006294,0.0277413 -0.008601,0.0418823 z M 0.62774657,0.5460055 c -0.009023,0.003573 -0.0245268,-0.0253243 -0.008023,-0.0134613 0.002539,0.002337 0.0149423,0.008242 0.008023,0.0134613 z m -0.004644,-0.0175503 c -0.0120648,0.00211 -0.0177248,-0.0299933 -0.005848,-0.0124641 0.002514,0.001877 0.0110116,0.009481 0.005848,0.0124641 z M 0.62242094,0.510634 c -0.009391,-0.0111562 -0.0263816,-0.031003 -0.0276931,-0.0427806 0.0113147,0.008316 0.02829,0.0261125 0.0276931,0.0427806 z m -0.021746,0.0753509 c -0.008096,-0.001598 -0.0315564,0.0129462 -0.0288872,-5.2618e-4 0.002055,-0.006868 0.045311,-0.00835 0.0288872,5.2618e-4 z M 0.58662704,0.613543 c -0.0133334,0.008828 -0.0109888,-0.007865 0.001623,-0.005204 0.001906,0.001402 -0.001562,0.004169 -0.001623,0.005204 z"
         id="path6326"
         inkscape:connector-curvature="0" /><path
         style="fill:#eeffaa;fill-opacity:1;stroke-width:1.11864412"
         d="m 466.39322,725.84738 c 0,-0.55806 -2.31159,-4.45194 -5.13687,-8.65306 -7.1006,-10.5584 -8.05302,-12.60909 -8.93138,-19.2305 -0.71017,-5.3535 -0.60953,-5.73095 1.33657,-5.0128 3.75709,1.38645 7.17801,3.98987 6.9361,5.27856 -0.4324,2.30343 1.49209,6.42186 2.79751,5.98673 0.70765,-0.23589 1.67171,-2.02547 2.14236,-3.97684 2.84105,-11.7795 2.57433,-11.49442 4.1043,-4.38693 1.79683,8.34716 3.70823,8.68471 13.35659,2.35871 6.30851,-4.1362 7.84684,-4.28599 5.85834,-0.57043 -0.66511,1.24275 -1.2167,4.43205 -1.22577,7.08733 -0.0245,7.18963 -1.95524,10.02272 -8.38134,12.29886 -3.1747,1.12448 -7.1543,3.67374 -9.22081,5.90667 -1.99958,2.16061 -3.6356,3.47177 -3.6356,2.9137 z"
         id="path6873"
         inkscape:connector-curvature="0"
         transform="matrix(3.5190156e-7,0.00122549,9.4696966e-4,-4.5540184e-7,-1.4356708e-4,2.4045255e-4)" /></g></g></svg>