<?xml version="1.0" encoding="UTF-8" standalone="no"?>
<!-- Created with Inkscape (http://www.inkscape.org/) -->

<svg
   xmlns:dc="http://purl.org/dc/elements/1.1/"
   xmlns:cc="http://creativecommons.org/ns#"
   xmlns:rdf="http://www.w3.org/1999/02/22-rdf-syntax-ns#"
   xmlns:svg="http://www.w3.org/2000/svg"
   xmlns="http://www.w3.org/2000/svg"
   xmlns:sodipodi="http://sodipodi.sourceforge.net/DTD/sodipodi-0.dtd"
   xmlns:inkscape="http://www.inkscape.org/namespaces/inkscape"
   version="1.1"
   id="svg2034"
   xml:space="preserve"
   width="126.60205"
   height="121.58917"
   viewBox="0 0 126.60205 121.58917"
   sodipodi:docname="pleasework.svg"
   inkscape:version="0.92.4 (5da689c313, 2019-01-14)"><metadata
     id="metadata2040"><rdf:RDF><cc:Work
         rdf:about=""><dc:format>image/svg+xml</dc:format><dc:type
           rdf:resource="http://purl.org/dc/dcmitype/StillImage" /><dc:title></dc:title></cc:Work></rdf:RDF></metadata><defs
     id="defs2038" /><sodipodi:namedview
     pagecolor="#ffffff"
     bordercolor="#666666"
     borderopacity="1"
     objecttolerance="10"
     gridtolerance="10"
     guidetolerance="10"
     inkscape:pageopacity="0"
     inkscape:pageshadow="2"
     inkscape:window-width="1280"
     inkscape:window-height="746"
     id="namedview2036"
     showgrid="false"
     fit-margin-top="0"
     fit-margin-left="0"
     fit-margin-right="0"
     fit-margin-bottom="0"
     inkscape:zoom="2.5284424"
     inkscape:cx="21.078366"
     inkscape:cy="60.751834"
     inkscape:window-x="0"
     inkscape:window-y="0"
     inkscape:window-maximized="0"
     inkscape:current-layer="g2042" /><g
     id="g2042"
     inkscape:groupmode="layer"
     inkscape:label="Plantos_Test1_with names"
     transform="matrix(1.3333333,0,0,-1.3333333,-363.79445,1032.4121)"><path
       style="fill:#57ed66;fill-opacity:1;stroke:none;stroke-width:0;stroke-miterlimit:4;stroke-dasharray:none;stroke-opacity:1"
       d="M 89.154297 50.039062 L 53.974609 56.289062 L 40.691406 63.279297 L 33.839844 73.90625 L 49.080078 102.43164 L 71.314453 104.11133 L 94.384766 67.054688 L 89.154297 50.039062 z "
       transform="matrix(0.75000002,0,0,-0.75000002,272.84584,774.30909)"
       id="rect890" /><g
       id="g2044"
       transform="matrix(610.6,0,0,789.1,-371.86139,2.5865012)"><path
         style="fill:#000000;stroke-width:0.48000872"
         d="M 70.726562,0 C 68.39,1.1373561 67.071341,4.5201569 68.544922,6.9179688 c 3.6636,10.8964182 5.788731,22.1989032 9.404297,33.1074222 1.701538,4.970277 3.874653,11.332046 -3.273438,11.367187 -2.75177,-4.448419 -2.099324,-10.691692 -5.201172,-15.251953 -2.336562,-3.304751 -5.724029,-8.387201 -9.548828,-6.558594 -0.468615,4.323216 6.814592,7.646974 6.472657,13.34375 2.344703,5.18807 0.198623,8.586361 -4.339844,11.001953 -3.90784,-5.670998 -4.127262,-13.251146 -8.56836,-18.677734 -4.909224,-3.056447 -8.731821,4.213849 -4.607422,7.939453 1.253766,4.336894 2.70185,9.642277 2.636719,13.677735 -6.29325,3.349992 -4.510855,-8.6477 -7.433593,-11.878907 -0.76724,-3.529907 -4.875353,-11.93342 -8.009766,-8.375 2.719205,4.62623 3.662868,10.054639 4.998047,15.394531 0.895546,4.770373 3.394376,8.924256 -1.824219,11.433594 -1.449157,2.60403 -3.963539,6.579672 -4.769531,1.214844 -3.565904,-10.654007 -5.740018,-21.717927 -7.873047,-32.724609 0.810632,-5.180705 -6.007545,-9.477253 -7.464844,-2.955079 -2.271432,6.718924 -4.617045,14.159476 -1.767578,21.115235 2.833184,10.992057 2.695287,22.609938 6.757812,33.328125 1.424734,2.887054 1.040904,5.311513 -1.083984,1.300781 C 20.036535,79.897724 19.222324,74.08622 16.039062,69.322266 13.165172,61.366034 9.3556563,53.746109 6.8945312,45.642578 3.3367687,45.281644 4.8911796,36.525719 1.9277344,35.759766 0.56813174,34.903613 2.7350012,42.864871 2.9960938,45.466797 5.8944083,56.486946 9.5495256,67.339773 13.835938,77.888672 l 0.285156,1.857422 c 0.01074,-0.0015 0.02038,-0.0067 0.03125,-0.0078 0.347143,3.323905 4.869555,8.899107 4.470703,10.457031 C 15.598586,85.2584 -1.6268943,75.15631 0.30078125,85.556641 3.4596185,94.560797 9.3083033,103.16198 17.623047,108.09375 c 5.910608,2.73765 9.928074,8.35954 16.292969,10.4375 4.249776,2.48935 8.174966,2.44643 13.378906,3.00195 5.845477,0.43542 11.338208,-1.78268 16.958984,-3 4.974355,-2.53459 11.056567,-2.04057 16.039063,-4.83398 6.570056,-3.01436 12.796688,-6.9539 17.65625,-12.37891 8.278921,-6.784153 15.854621,-14.566798 22.335941,-23.082029 3.61475,-5.632069 5.93515,-11.980157 6.08984,-18.705078 1.44916,-5.08496 -4.33123,-8.982527 -8.71289,-6.982422 -6.72474,1.729707 -6.40838,10.904103 -9.57617,16.09375 -1.14793,3.183756 -4.58262,7.159839 -2.34375,1.236328 3.73687,-10.167816 3.92343,-21.277451 3.30469,-31.970703 -1.54686,-6.09606 -2.4907,-12.745193 -6.1543,-18.005859 -1.66898,-2.894419 -10.138343,-9.28559 -5.349611,-3.011719 3.972971,5.55842 5.854041,12.157422 6.953121,18.822266 1.90508,9.577569 -0.0432,19.403479 -1.60351,28.888672 -1.61199,7.070335 -3.71221,14.253563 -7.791018,20.246093 -5.853618,5.728866 2.833625,-5.225982 2.117188,-8.333984 5.03949,-15.773793 3.98793,-33.772846 -4.755859,-48.0625 C 90.354285,23.151425 87.993967,17.953394 84.419922,13.431641 82.164773,8.169922 79.192676,3.435824 74.470703,0.82421875 73.526308,-0.1813787 71.955575,0.131355 70.734375,0.00195313 Z M 48.230469,44.164062 c -0.130831,2.275765 1.8318,1.971698 0,0 z m 39.970703,0.16211 c 0.63364,1.530854 -0.613043,1.919091 0,0 z m 0.953125,5.71289 c 1.620125,4.236941 -1.70968,2.33258 0,0 z m -9.273438,4.019532 c 2.841326,3.439424 1.456972,9.853798 1.603516,14.490234 -0.846699,7.693199 -1.799162,16.023922 -6.578125,22.365234 0.546365,-7.256563 1.816486,-15.023963 1.621094,-22.53125 C 77.66713,62.782307 71.51971,55.09968 79.880859,54.058594 Z m -14.308593,0.132812 c 5.039485,2.329423 2.360732,5.424835 3.826172,10.441406 1.058373,5.019729 0.166601,10.96792 -0.07227,16.310547 -0.395588,5.487928 -1.930018,10.556008 -3.517578,15.78711 0.270943,2.672418 -4.031019,8.135031 -2.199219,2.611328 2.149312,-6.067653 4.005959,-12.29222 3.761719,-18.8125 0.477977,-7.968858 -2.237685,-15.58145 -3.703125,-23.289063 1.538712,-2.3673 -1.807893,-0.848113 1.269531,-2.759765 z m -0.125,0.472656 c -2.507531,1.092115 1.65269,1.212058 0,0 z m 9.384765,0.164063 c 2.092323,1.078437 -1.335178,0.948856 0,0 z m -26.183593,5.150391 c 7.14809,1.555053 4.502451,9.416487 4.876953,14.769531 -0.03631,2.435688 -0.16266,10.387562 -1.009766,10.171875 -0.749165,-8.332896 -2.0916,-16.679192 -4.175781,-24.78125 z M 43.1875,61.953125 h 0.0059 c 2.051616,5.801463 2.304888,12.23987 3.41211,18.318359 0.04388,4.941871 1.456841,10.356808 1.123047,14.947266 C 44.480124,87.774907 39.734828,80.668927 38.621094,72.501953 38.344288,68.30815 41.958159,65.5409 43.1875,61.953125 Z m 45.884766,3.931641 c 0.846698,1.01675 -0.449483,1.663422 0,0 z M 88.871094,69.0625 c 1.017666,2.5893 -1.546854,3.596192 0,0 z"
         transform="matrix(0.0012283,0,0,-9.504499e-4,1.0558586,0.97797819)"
         id="path2048"
         inkscape:connector-curvature="0"
         sodipodi:nodetypes="cccccccccccccccccccccccccccccccccccccccccccccccccccccccccccccccccccccccccccccccccccccccccccc" /></g><path
       style="fill:#c8fc00;fill-opacity:1;stroke:#000000;stroke-width:0.75px;stroke-linecap:butt;stroke-linejoin:miter;stroke-opacity:1"
       d="m 290.04499,748.55789 c -0.95839,2.09757 -1.61946,-4.40647 -1.67796,-6.71187 -0.33076,-13.03551 5.80295,-27.27188 7.55084,-38.38347 0.29233,-1.85838 -5.08834,2.60157 -4.19491,-3.77543 0.26101,-1.86303 -10.25334,10.73256 -14.6822,11.11653 -4.4584,0.38653 3.44979,-8.47314 6.50211,-11.74577 5.17175,-5.54503 11.66491,-10.82296 19.08687,-12.375 10.1256,-2.11741 21.17241,0.8268 30.62288,5.03391 9.81553,4.36963 18.35886,11.82574 25.16949,20.13559 4.23552,5.16789 4.32905,9.05353 7.52672,16.96816 0.93239,2.30778 -5.03215,4.74235 -5.63901,2.32845 -1.2396,-4.93077 -4.71452,-12.35621 -8.80932,-17.4089 -2.88053,-3.55437 -6.57117,-10.57651 -10.69703,-8.59958 -1.82848,0.87613 -1.33036,4.55257 0,6.08263 4.95592,5.69984 5.66671,15.19659 5.24364,23.07204 -0.39258,7.30789 -3.698,14.30175 -7.13135,20.76483 -2.83392,5.33468 -10.26008,20.47843 -10.90678,14.47245 -0.82879,-7.69715 7.11772,-22.31403 9.43856,-33.76906 2.20188,-10.86789 0.56143,-20.55605 -2.30721,-29.15467 -0.84688,-2.53849 -5.38216,-6.20994 -6.71186,-4.40466 -2.02804,2.75338 1.7354,25.93844 0.20974,22.23305 -2.2748,-5.52485 -3.91361,-23.12578 -5.0339,-26.00847 -1.09576,-2.81956 -3.10614,-6.46664 -5.87288,-5.24364 -2.13431,0.94345 -1.32089,4.604 -1.04872,6.92161 0.41339,3.52017 3.40144,6.36208 3.98516,9.85805 0.8648,5.17939 0.39461,10.62679 -0.83898,15.73093 -1.20572,4.98883 -6.15183,19.18351 -6.29237,14.05297 -0.20972,-7.65628 2.42126,-11.5563 2.3072,-17.4089 -0.12027,-6.1712 -1.3156,-12.35321 -3.14618,-18.24789 -0.719,-2.31526 -0.62774,-6.38185 -3.04165,-6.60643 -4.99291,-0.46452 -6.54329,7.74456 -8.70412,12.26957 -5.78964,12.12412 -6.4917,29.13995 -10.90678,38.80297 z"
       id="path895"
       inkscape:connector-curvature="0"
       sodipodi:nodetypes="ssssssssssssssssssssssssssssssss" /></g></svg>