<?xml version="1.0" encoding="UTF-8" standalone="no"?>
<!-- Created with Inkscape (http://www.inkscape.org/) -->

<svg
   xmlns:dc="http://purl.org/dc/elements/1.1/"
   xmlns:cc="http://creativecommons.org/ns#"
   xmlns:rdf="http://www.w3.org/1999/02/22-rdf-syntax-ns#"
   xmlns:svg="http://www.w3.org/2000/svg"
   xmlns="http://www.w3.org/2000/svg"
   xmlns:sodipodi="http://sodipodi.sourceforge.net/DTD/sodipodi-0.dtd"
   xmlns:inkscape="http://www.inkscape.org/namespaces/inkscape"
   version="1.1"
   id="svg2034"
   xml:space="preserve"
   width="126.60205"
   height="121.58917"
   viewBox="0 0 126.60205 121.58917"
   sodipodi:docname="0.svg"
   inkscape:version="0.92.4 (5da689c313, 2019-01-14)"><metadata
     id="metadata2040"><rdf:RDF><cc:Work
         rdf:about=""><dc:format>image/svg+xml</dc:format><dc:type
           rdf:resource="http://purl.org/dc/dcmitype/StillImage" /><dc:title></dc:title></cc:Work></rdf:RDF></metadata><defs
     id="defs2038" /><sodipodi:namedview
     pagecolor="#ffffff"
     bordercolor="#666666"
     borderopacity="1"
     objecttolerance="10"
     gridtolerance="10"
     guidetolerance="10"
     inkscape:pageopacity="0"
     inkscape:pageshadow="2"
     inkscape:window-width="1280"
     inkscape:window-height="746"
     id="namedview2036"
     showgrid="false"
     fit-margin-top="0"
     fit-margin-left="0"
     fit-margin-right="0"
     fit-margin-bottom="0"
     inkscape:zoom="1.7878788"
     inkscape:cx="44.205551"
     inkscape:cy="4.7674734"
     inkscape:window-x="0"
     inkscape:window-y="0"
     inkscape:window-maximized="0"
     inkscape:current-layer="g2042" /><g
     id="g2042"
     inkscape:groupmode="layer"
     inkscape:label="Plantos_Test1_with names"
     transform="matrix(1.3333333,0,0,-1.3333333,-363.79445,1032.4121)"><g
       id="g2044"
       transform="matrix(610.6,0,0,789.1,-371.86139,2.5865012)"><path
         style="fill:#000000;stroke-width:0.00051864"
         d="m 1.1427325,0.97797819 c -0.00287,-0.001081 -0.00449,-0.004297 -0.00268,-0.006576 0.0045,-0.0103565 0.00711,-0.0210974 0.011551,-0.0314654 0.00209,-0.004724 0.00476,-0.0107714 -0.00402,-0.0108048 -0.00338,0.004228 -0.00258,0.0101619 -0.00639,0.0144962 -0.00287,0.003141 -0.00703,0.007972 -0.011728,0.006234 -5.756e-4,-0.004109 0.00837,-0.007269 0.00795,-0.0126835 0.00288,-0.004931 2.446e-4,-0.008161 -0.00533,-0.0104569 -0.0048,0.00539 -0.00507,0.0125949 -0.010525,0.0177526 -0.00603,0.002905 -0.010726,-0.004004 -0.00566,-0.007545 0.00154,-0.004122 0.00332,-0.009166 0.00324,-0.0130015 -0.00773,-0.003184 -0.00554,0.00822 -0.00913,0.0112911 -9.424e-4,0.003355 -0.00599,0.0113421 -0.00984,0.00796 0.00334,-0.004397 0.0045,-0.009556 0.00614,-0.0146313 0.0011,-0.004534 0.00417,-0.008483 -0.00224,-0.010868 -0.00178,-0.002475 -0.00487,-0.006253 -0.00586,-0.001154 -0.00438,0.0101261 -0.00705,0.0206419 -0.00967,0.0311032 9.957e-4,0.004924 -0.00738,0.009007 -0.00917,0.002808 -0.00279,-0.006386 -0.00567,-0.013457 -0.00217,-0.0200681 0.00348,-0.0104474 0.00331,-0.0214897 0.0083,-0.0316768 0.00175,-0.002744 0.00128,-0.005048 -0.00133,-0.001236 -0.0037,0.004584 -0.0047,0.0101075 -0.00861,0.0146354 -0.00353,0.007562 -0.00821,0.0148044 -0.011233,0.0225064 -0.00437,3.4305e-4 -0.00246,0.008664 -0.0061,0.009392 -0.00167,8.1373e-4 9.893e-4,-0.006753 0.00131,-0.009226 0.00356,-0.0104741 0.00805,-0.0207886 0.013315,-0.0308148 -8.94e-5,-0.001383 -0.00527,-0.00176 -0.00636,-0.003411 -0.00308,0.004106 -0.012619,5.8274e-4 -0.010264,-0.003878 0.00388,-0.008558 0.011063,-0.0167318 0.021276,-0.0214192 0.00726,-0.002602 0.012196,-0.007946 0.020014,-0.009921 0.00522,-0.002366 0.01004,-0.002325 0.016432,-0.002853 0.00718,-4.1384e-4 0.013926,0.001695 0.02083,0.002852 0.00611,0.002409 0.013583,0.001939 0.019703,0.004594 0.00807,0.002865 0.015717,0.00661 0.021686,0.0117662 0.010169,0.006448 0.019474,0.0138448 0.027435,0.0219381 0.00444,0.005353 0.00729,0.0113865 0.00748,0.0177782 0.00178,0.004833 -0.00532,0.008537 -0.010702,0.006636 -0.00826,-0.001644 -0.00787,-0.0103636 -0.011761,-0.0152961 -0.00141,-0.003026 -0.00563,-0.006805 -0.00288,-0.001175 0.00459,0.009664 0.00482,0.0202228 0.00406,0.0303862 -0.0019,0.005794 -0.00306,0.0121141 -0.00756,0.0171141 -0.00205,0.002751 -0.012452,0.008826 -0.00657,0.002863 0.00488,-0.005283 0.00719,-0.0115555 0.00854,-0.0178901 0.00234,-0.009103 -5.35e-5,-0.0184422 -0.00197,-0.0274574 -0.00198,-0.00672 -0.00456,-0.0135467 -0.00957,-0.0192423 -0.00719,-0.005445 0.00348,0.004967 0.0026,0.007921 0.00619,0.0149922 0.0049,0.0320989 -0.00584,0.0456805 -0.00259,0.005039 -0.00549,0.009979 -0.00988,0.0142767 -0.00277,0.005001 -0.00642,0.009501 -0.01222,0.0119832 -0.00116,9.5577e-4 -0.00309,6.588e-4 -0.00459,7.8179e-4 z m -0.027632,-0.0419757 c -1.607e-4,-0.002163 0.00225,-0.001874 0,0 z m 0.049096,-1.5407e-4 c 7.783e-4,-0.001455 -7.53e-4,-0.001824 0,0 z m 0.00117,-0.00543 c 0.00199,-0.004027 -0.0021,-0.002217 0,0 z m -0.01139,-0.00382 c 0.00349,-0.003269 0.00179,-0.009366 0.00197,-0.0137727 -0.00104,-0.007312 -0.00221,-0.0152298 -0.00808,-0.0212569 6.711e-4,0.006897 0.00223,0.0142803 0.00199,0.0214156 0.0014,0.005323 -0.00615,0.0126245 0.00412,0.013614 z m -0.017575,-1.2624e-4 c 0.00619,-0.002214 0.0029,-0.005157 0.0047,-0.009925 0.0013,-0.004771 2.029e-4,-0.0104235 -9.05e-5,-0.0155014 -4.859e-4,-0.005216 -0.00237,-0.0100329 -0.00432,-0.0150048 3.328e-4,-0.00254 -0.00495,-0.007733 -0.0027,-0.002483 0.00264,0.005767 0.00492,0.0116835 0.00462,0.0178807 5.871e-4,0.007574 -0.00275,0.0148101 -0.00455,0.0221358 0.00189,0.00225 -0.00222,8.0607e-4 0.00156,0.002623 z M 1.136248,0.92602295 c -0.00308,-0.001038 0.00203,-0.001152 0,0 z m 0.011527,-1.5593e-4 c 0.00257,-0.001025 -0.00164,-9.0184e-4 0,0 z m -0.032161,-0.004895 c 0.00878,-0.001478 0.00553,-0.008951 0.00599,-0.0140388 -4.46e-5,-0.002315 -1.995e-4,-0.009873 -0.00124,-0.009668 -9.202e-4,0.00792 -0.00257,0.0158535 -0.00513,0.0235541 z m -0.0067,-0.001877 c 0.00252,-0.005514 0.00283,-0.0116344 0.00419,-0.0174117 5.39e-5,-0.004697 0.00179,-0.009843 0.00138,-0.014206 -0.00399,0.007075 -0.00982,0.0138293 -0.011188,0.0215916 -3.4e-4,0.003986 0.0041,0.006616 0.00561,0.010026 z m 0.056351,-0.003737 c 0.00104,-9.6637e-4 -5.521e-4,-0.001581 0,0 z m -2.471e-4,-0.00302 c 0.00125,-0.002461 -0.0019,-0.003418 0,0 z m -0.091775,-0.0101449 c 4.246e-4,-0.003159 0.00598,-0.00846 0.00549,-0.009941 -0.00335,0.001163 -0.013306,0.007356 -0.010325,0.007539 0.00128,-0.002271 0.00312,0.002445 0.00484,0.002402 z"
         id="path2048"
         inkscape:connector-curvature="0" /></g></g></svg>