<?xml version="1.0" encoding="UTF-8" standalone="no"?>
<!-- Created with Inkscape (http://www.inkscape.org/) -->

<svg
   xmlns:dc="http://purl.org/dc/elements/1.1/"
   xmlns:cc="http://creativecommons.org/ns#"
   xmlns:rdf="http://www.w3.org/1999/02/22-rdf-syntax-ns#"
   xmlns:svg="http://www.w3.org/2000/svg"
   xmlns="http://www.w3.org/2000/svg"
   xmlns:sodipodi="http://sodipodi.sourceforge.net/DTD/sodipodi-0.dtd"
   xmlns:inkscape="http://www.inkscape.org/namespaces/inkscape"
   version="1.1"
   id="svg2092"
   xml:space="preserve"
   width="211.22449"
   height="102.06871"
   viewBox="0 0 211.22449 102.06871"
   sodipodi:docname="1.svg"
   inkscape:version="0.92.4 (5da689c313, 2019-01-14)"><metadata
     id="metadata2098"><rdf:RDF><cc:Work
         rdf:about=""><dc:format>image/svg+xml</dc:format><dc:type
           rdf:resource="http://purl.org/dc/dcmitype/StillImage" /><dc:title /></cc:Work></rdf:RDF></metadata><defs
     id="defs2096" /><sodipodi:namedview
     pagecolor="#ffffff"
     bordercolor="#666666"
     borderopacity="1"
     objecttolerance="10"
     gridtolerance="10"
     guidetolerance="10"
     inkscape:pageopacity="0"
     inkscape:pageshadow="2"
     inkscape:window-width="1356"
     inkscape:window-height="804"
     id="namedview2094"
     showgrid="false"
     fit-margin-top="0"
     fit-margin-left="0"
     fit-margin-right="0"
     fit-margin-bottom="0"
     inkscape:zoom="5.0568848"
     inkscape:cx="98.187431"
     inkscape:cy="51.513842"
     inkscape:window-x="0"
     inkscape:window-y="0"
     inkscape:window-maximized="0"
     inkscape:current-layer="g2100" /><g
     id="g2100"
     inkscape:groupmode="layer"
     inkscape:label="Plantos_Test1_with names"
     transform="matrix(1.3333333,0,0,-1.3333333,-254.03435,966.63442)"><g
       id="g2102"
       transform="matrix(610.6,0,0,789.1,-602.04263,-12.838015)"><path
         style="fill:#000000;stroke-width:0.48000872"
         d="M 127.79492,0.00585938 C 110.82395,-0.29202548 118.04526,9.6135433 115.15234,8.0917969 111.69228,0.39965027 103.01735,0.08073311 95.982422,2.4101562 87.073361,5.170954 77.702416,8.6825591 71.443359,15.904297 c 0.928112,4.263244 -3.964368,2.054459 -6.732421,2.587891 -8.442563,-0.788501 -16.32862,2.55636 -24.314454,4.613281 -7.343482,2.3673 -12.810248,8.742974 -16.74414,15.21875 -0.323455,5.203851 8.108186,8.379271 11.029297,13.208984 -10.315884,5.48898 -22.608304,7.987534 -31.2421879,16.292969 -5.2430185,6.123416 -4.9020148,18.375854 3.890625,21.117187 0.070359,-0.02495 0.1440531,-0.0356 0.2148438,-0.05859 0.4055279,0.147042 3.6148091,0.393761 1.8710937,-0.06445 -0.8583678,-0.02493 -1.3098577,-0.02118 -1.6035156,-0.0078 6.375724,-1.844178 14.422031,3.787154 21.699219,1.833984 14.384107,-0.0833 26.417369,-8.696829 39.091797,-14.416015 3.468208,-5.952971 4.738967,3.240506 3.851562,3.658203 3.166979,3.956021 3.06097,9.87038 6.822266,13.570312 2.133029,2.547215 3.47571,6.143722 7.171875,6.630857 4.494016,2.02957 9.640682,2.23202 14.300781,1.77539 10.51779,-0.0442 21.08361,-1.06312 31.60547,-1.36718 7.88895,-1.914887 10.08358,-9.915544 9.88086,-17.130863 0.71863,-4.675681 -3.16753,-12.960447 -2.64649,-14.386719 10.23203,4.006523 20.95785,7.588189 32.14649,6.890625 8.5598,0.276869 16.9079,-2.314148 24.8457,-5.132813 5.82105,-3.609869 7.06618,-10.512429 8.82227,-15.519531 0.96067,-6.273871 -3.55833,-12.037722 -9.00977,-14.185547 12.85598,2.457784 15.46352,-9.496623 14.71289,-12.820312 C 208.74644,19.53281 198.92063,17.241133 191.57227,14.451191 180.54809,10.33207 168.57168,13.62493 157.20312,13.644531 155.23292,7.7841487 148.02657,4.9945694 142.72656,3.6425781 138.52563,2.09489 134.00915,0.5302459 129.51758,0.06835937 h -0.004 c -0.59895,-0.03156827 -1.1713,-0.05289081 -1.71875,-0.06249999 z m -0.17578,5.70898442 c 0.25011,-0.00751 0.53649,-0.00362 0.86133,0.015625 h 0.004 c 5.75877,1.681885 21.83092,2.9634154 17.89453,11.3398432 -5.1209,1.241518 -10.87988,5.856326 -7.70313,7.013672 -3.49263,0.703309 -2.92276,-0.769839 -7.15625,2.183594 2.2063,-6.358041 -4.89121,-11.663765 -5.84375,-15.515625 0.62672,-2.210532 9.5951,-2.7737654 4.28125,-3.7617186 -1.74784,1.7409518 -6.10647,-1.162208 -2.33789,-1.2753906 z m -22.18359,2.03125 C 115.60489,12.526987 95.986577,11.439746 96.173828,16.017578 91.036647,16.976093 91.199018,27.81582 85.691406,23.783203 85.560738,19.90504 70.349734,22.289556 79.244141,17.279297 87.035396,11.952346 95.921749,8.269905 105.43164,7.7480469 Z m 75.6289,9.7500002 c 7.39077,-0.230749 13.4236,4.110874 19.69141,7.49414 3.06928,4.064391 7.53874,9.783673 -0.67188,10.089844 -8.49792,2.069546 -17.13527,2.78438 -25.89453,2.142578 -14.82048,0.352896 -29.73921,1.019743 -44.25195,4.152344 -3.7613,-2.299963 8.54744,-2.241951 11.1543,-3.496094 3.85085,0.236846 6.84579,-3.878754 1.81445,-4.234375 4.79525,-0.923783 4.73812,-4.042042 5.12891,-6.55664 6.32581,-1.845442 6.42421,-11.473865 14.26757,-8.441407 5.69829,-0.945571 11.50221,-1.06682 17.26563,-1.041015 0.50527,-0.05766 1.00338,-0.09399 1.49609,-0.109375 z m -71.61133,0.417968 c 7.8534,-3.28e-4 13.82425,7.889538 13.82326,15.426237 -1.3e-4,7.535936 -9.95376,17.478202 -17.80637,17.477874 -7.851842,-7.15e-4 -11.420049,-9.349425 -11.420183,-16.884624 -9.91e-4,-7.535961 7.550653,-16.018772 15.403293,-16.019487 z m -44.031245,8.212891 h 0.002 c 6.578197,0.435562 13.38536,2.204012 19.125,4.693359 C 79.91641,42.042682 63.613737,39.062645 62.09375,40.828125 53.150496,41.7039 44.063706,42.005719 35.097656,41.595703 27.298259,35.476496 41.969733,29.098025 47.554688,27.851562 53.351317,26.192348 59.436367,26.133266 65.421875,26.126953 Z m 69.869145,0.234375 c -0.63715,4.825083 -8.1762,1.68924 -1.16407,0.851563 l 0.63672,-0.410157 z M 82.556641,43.576172 c 4.559931,0.13137 4.202448,8.61908 -1.048829,7.970703 -4.437026,3.403651 -9.623146,4.289906 -14.978515,7.582031 -5.698933,2.467253 -10.505204,6.139952 -16.517578,9.466797 5.86176,-6.153928 -8.576464,5.63105 -3.859375,1.037109 -9.372303,3.417329 -18.398172,7.768897 -27.853516,10.96875 C 15.042295,83.422332 2.5030524,82.275126 7.0019531,74.474609 9.7781477,67.488444 17.489905,65.82012 23.900391,62.65625 32.680818,58.67603 41.081463,53.894076 50.080078,50.361328 59.175016,44.426609 70.673865,45.2812 80.984375,43.822266 h 0.002 c 0.576274,-0.184212 1.099109,-0.259669 1.570313,-0.246094 z m 95.091799,0.308594 c 7.64799,-0.0063 20.65213,3.102436 14.18359,12.605468 -4.20907,8.820034 11.95332,-1.100374 3.47656,5.246094 -9.5107,5.908781 -21.42473,7.345911 -32.4082,6.160156 -9.80135,-1.424588 -18.75388,-6.04706 -28.42578,-8.070312 -3.5659,-1.18365 -15.05128,-4.699813 -13.43359,-6.119141 4.47773,2.918618 20.10543,5.349131 16.99218,-3.005859 -2.32028,0.15075 -4.73004,-3.756475 -3.38672,-0.603516 -2.88203,-2.032721 -3.82561,-1.829774 -2.00195,0.544922 -3.81014,-0.599674 -7.97796,-1.256556 -2.14062,-3.136719 5.4954,-3.770845 13.69616,-2.128427 20.41601,-2.896484 8.42482,-0.228611 16.85172,-0.514364 25.27735,-0.683594 0.45489,-0.02714 0.9413,-0.04059 1.45117,-0.04102 z m -93.888674,20.96875 0.0078,0.002 c 2.084181,5.47951 7.644957,10.884153 12.199219,9.367187 4.388185,-2.208428 8.720325,1.213828 6.457035,7.794922 1.01766,6.462203 -0.30686,12.850446 -7.767582,10.863281 -8.511764,-1.914882 -11.219004,-11.882779 -13.794922,-19.15039 -0.163641,-2.960703 1.359726,-6.539113 2.898438,-8.876953 z m 43.244144,4.33789 c 4.29862,6.10553 10.58701,15.637198 4.74804,22.761719 -5.69079,4.588353 -17.29168,2.414818 -17.66211,-6.365234 -2.13303,-5.626809 -5.43822,-17.807366 4.34766,-16.080079 3.49984,1.040745 5.54324,1.401827 8.56641,-0.316406 z m -89.447269,5.650391 c 0.911829,1.333053 -1.693398,0.938419 0,0 z"
         transform="matrix(0.0012283,0,0,-9.504499e-4,1.2980157,0.93500678)"
         id="path2106"
         inkscape:connector-curvature="0"
         sodipodi:nodetypes="scccccccccccccccccccccccccccccccsscccccccsccccccscccccccccscccccccccccccccccccccccccccsscccccccccccsccccccccccccccccccc" /></g><path
       style="fill:#3c3900;fill-opacity:1;stroke:none;stroke-width:0;stroke-miterlimit:4;stroke-dasharray:none;stroke-opacity:1"
       d="m 102.74794,50.408165 c -3.44168,-1.100217 -6.233204,-4.482489 -7.653949,-9.273685 -1.058627,-3.570024 -1.296672,-7.706345 -0.600348,-10.431762 0.833623,-3.262804 3.16292,-6.833287 6.027237,-9.238907 1.55786,-1.308377 4.75432,-2.952239 6.38718,-3.284768 6.84315,-1.393599 13.48547,3.237642 15.77624,10.999703 0.74073,2.509894 0.74938,5.278068 0.0234,7.474283 -2.00566,6.067083 -8.64164,12.354211 -14.58602,13.819237 -1.70416,0.42 -3.94287,0.393296 -5.37369,-0.0641 z"
       id="path2272"
       inkscape:connector-curvature="0"
       transform="matrix(0.75000002,0,0,-0.75000002,190.52577,724.97583)" /><path
       id="path3362"
       transform="matrix(0.75000002,0,0,-0.75000002,190.52577,724.97583)"
       style="fill:#ffff4e;fill-opacity:1;stroke:none;stroke-width:0;stroke-miterlimit:4;stroke-dasharray:none;stroke-opacity:1"
       d="m 127.56641,5.7050781 c -0.94374,0 -1.57512,0.3954033 -1.39258,0.8710938 0.286,0.7452857 2.63771,1.2001422 3.48047,0.6738281 0.29128,-0.1819071 0.56559,-0.1765473 1.22656,0.021484 0.78516,0.2352375 0.8238,0.2752428 0.48437,0.5234375 -0.20244,0.1480309 -1.0911,0.5082092 -1.97265,0.7988281 -1.95613,0.6448741 -2.86574,1.0898683 -3.36914,1.6464844 -0.34463,0.381064 -0.35789,0.497715 -0.12696,1.158204 0.14122,0.403918 1.08045,1.979276 2.08594,3.501953 3.44275,5.213538 3.95822,6.478416 3.8125,9.34375 -0.0507,1.006054 -0.0709,1.830078 -0.0449,1.830078 0.026,0 0.56513,-0.313481 1.19922,-0.695313 1.42399,-0.857477 2.20894,-1.082584 3.77344,-1.083984 0.67087,-6.06e-4 1.36407,-0.0571 1.54101,-0.125 0.2818,-0.108133 0.2722,-0.158139 -0.082,-0.40625 -0.91107,-0.638142 -0.11693,-2.122086 1.97852,-3.697266 1.31838,-0.991044 3.87144,-2.301246 5.29296,-2.714844 1.08062,-0.314388 1.48201,-1.019717 1.50391,-2.648437 0.0358,-2.656389 -2.05505,-4.529847 -6.86133,-6.1484379 -2.37058,-0.7983144 -11.38899,-2.849609 -12.52934,-2.849609 z M 105.2168,7.7753906 c -0.37133,-0.033932 -0.86367,0.014513 -1.79492,0.1171875 -7.89036,0.8699481 -14.913821,3.4858469 -22.943364,8.5429689 -3.184639,2.005732 -4.003907,2.68132 -4.003907,3.300781 0,0.569144 0.755861,0.865366 3.570313,1.402344 4.011217,0.765314 4.990925,1.184764 5.607422,2.394531 0.118418,0.232377 0.525325,0.587137 0.904297,0.789063 1.863419,0.992874 3.046831,0.175589 5.046875,-3.488282 1.441397,-2.640491 2.369984,-3.777843 3.558593,-4.359375 C 95.760631,16.18178 96.25,15.825629 96.25,15.683594 c 0,-0.517092 0.998683,-1.425672 2.117188,-1.925782 0.629931,-0.281655 2.568392,-0.869643 4.308592,-1.30664 4.74859,-1.192457 5.63672,-1.575909 5.63672,-2.435547 0,-0.4851073 -0.84543,-1.2630318 -2.02344,-1.8613281 -0.45083,-0.2289714 -0.70094,-0.3449742 -1.07226,-0.3789063 z m 73.54882,9.7753904 c -4.72064,0.03538 -10.76188,0.311056 -13.97265,0.72461 -2.13599,0.275118 -2.47693,0.274992 -3.74609,-0.01367 -2.99181,-0.680461 -4.35066,0.06084 -7.46876,4.078125 -2.09977,2.705347 -3.1447,3.69105 -4.59374,4.332031 -0.6095,0.26959 -0.95238,0.555262 -1.01368,0.84375 -0.051,0.240021 -0.19339,0.970472 -0.3164,1.623047 -0.41928,2.224289 -1.50585,3.474527 -3.63477,4.18164 l -0.98633,0.326172 0.96875,0.246094 c 1.55095,0.393802 1.91833,1.326561 0.96875,2.455078 -0.69716,0.828523 -1.45504,1.191669 -3.12304,1.492188 -3.90886,0.704246 -5.19399,0.913422 -7.84375,1.279297 -4.07774,0.563052 -5.23017,1.04418 -4.5293,1.888671 0.32124,0.38708 0.1143,0.407071 5.5332,-0.568359 11.2457,-2.024288 23.06309,-2.92193 39.45117,-3 12.67497,-0.06038 16.45529,-0.349515 23.13672,-1.769531 1.19639,-0.254271 2.82943,-0.562244 3.62696,-0.683594 4.43179,-0.674327 4.65206,-2.976573 0.80078,-8.320312 -1.21062,-1.679751 -1.21263,-1.681577 -4.19727,-3.361328 -6.14323,-3.457411 -9.63584,-4.958237 -12.88476,-5.535157 -0.98537,-0.174972 -3.34336,-0.239981 -6.17579,-0.21875 z m -43.32617,8.691407 -0.75976,0.486328 c -0.41776,0.267874 -1.14549,0.543661 -1.61914,0.613281 -1.65012,0.242536 -2.49491,0.998181 -1.66016,1.484375 0.53432,0.311217 1.65635,0.249421 2.41406,-0.132813 0.66784,-0.336897 1.20955,-1.06119 1.48828,-1.992187 z m -53.259762,17.375 c -0.387395,0.01668 -0.82713,0.06957 -1.339844,0.15625 -0.932152,0.157572 -4.275573,0.513305 -7.429688,0.789062 -3.154116,0.275757 -7.028233,0.676854 -8.607422,0.892578 -5.327681,0.727782 -9.957231,2.126647 -13.24414,4 -0.81572,0.464913 -2.817779,1.413609 -4.449219,2.107422 -1.631439,0.693815 -6.677154,3.072508 -11.212891,5.287109 -10.302329,5.030174 -11.542982,5.615306 -16.699218,7.876953 -5.520695,2.421517 -7.049631,3.335678 -9.2773441,5.544922 -1.5564442,1.543539 -1.9220336,2.040816 -2.7539063,3.75586 -1.5093922,3.111864 -1.4729433,4.690675 0.140625,6.148437 0.9095172,0.821695 1.7803435,1.236162 3.3164064,1.582031 2.253917,0.507514 5.572741,0.169799 7.082031,-0.720703 0.38783,-0.228825 2.39,-1.040114 4.449219,-1.802734 2.059218,-0.76262 6.870708,-2.678048 10.691406,-4.257813 6.494356,-2.685248 10.437911,-4.269226 12.269531,-4.927734 0.772023,-0.27756 0.772488,-0.27712 0.41211,0.121094 -0.792242,0.875418 -0.04985,0.518485 2.197265,-1.056641 2.489705,-1.745165 3.634766,-2.422724 3.634766,-2.148437 0,0.09121 -0.264692,0.420905 -0.589844,0.732422 -0.325153,0.311516 -0.552236,0.605966 -0.503906,0.654296 0.109573,0.109581 0.898112,-0.349414 6.333984,-3.683593 5.093132,-3.123954 12.216542,-6.889844 16.414063,-8.679688 3.633251,-1.549235 6.013754,-2.724288 7.453125,-3.679687 0.665056,-0.441439 1.330004,-0.72461 1.701172,-0.72461 3.151003,0 4.804023,-4.607147 2.521484,-7.027343 -0.668622,-0.708947 -1.347603,-0.989497 -2.509765,-0.939453 z M 178.55078,44 c -0.9306,-0.0036 -2.0944,0.0019 -3.59766,0.01172 -3.53478,0.02315 -10.69736,0.1852 -15.91796,0.359375 -5.22061,0.174175 -12.20618,0.394394 -15.52344,0.490234 -7.51406,0.217098 -8.51875,0.400657 -12.51953,2.279297 -1.54367,0.72486 -2.97528,1.479038 -3.18164,1.677734 -0.36711,0.353482 -0.36154,0.371666 0.27343,0.757813 0.35692,0.217056 1.41646,0.535052 2.35352,0.707031 2.29743,0.42165 2.303,0.419674 1.81641,-0.263672 -0.9063,-1.272781 -0.27731,-1.573872 1.25586,-0.601562 1.02757,0.651654 1.26011,0.654403 0.91406,0.0078 -0.30617,-0.572087 -0.11486,-0.521543 1.12109,0.298828 0.58987,0.39154 1.38349,0.79791 1.76172,0.902344 0.85292,0.235502 1.12861,0.862526 1.01367,2.298828 -0.10822,1.352254 -0.5731,1.974117 -2.02148,2.703125 -1.05893,0.532986 -1.38046,0.592466 -3.58985,0.666016 -3.65115,0.121553 -7.91865,-0.711579 -10.61132,-2.072266 -1.12476,-0.568376 -1.5559,-0.438229 -0.89649,0.269532 1.21529,1.304399 8.64207,4.124976 15.52539,5.896484 1.86909,0.481033 6.45141,1.891375 10.1836,3.134766 10.57568,3.523313 13.98287,4.351907 19.07812,4.642578 1.6142,0.09209 3.06733,0.179479 3.23047,0.193359 0.86924,0.07394 7.30916,-0.391242 9.06055,-0.654297 7.38264,-1.108857 14.54694,-3.842295 18.39062,-7.015625 1.56237,-1.289887 1.40399,-1.419408 -0.98828,-0.814453 -0.89134,0.225399 -2.09438,0.410156 -2.67187,0.410156 -2.20513,0 -2.37264,-1.222593 -0.64063,-4.65625 1.17036,-2.320195 1.42522,-3.721502 0.97266,-5.33789 -0.72983,-2.606704 -4.31687,-4.771877 -9.72266,-5.867188 C 182.04892,44.105669 181.34259,44.010722 178.55078,44 Z m -94.820311,20.830078 -0.396485,0.642578 c -1.279084,2.079223 -2.504512,5.749054 -2.507812,7.511719 -0.0015,0.784929 1.899149,6.375485 3.091797,9.09375 2.889305,6.585259 6.168874,9.778249 11.24414,10.949219 1.48885,0.34351 3.411326,0.217551 4.390625,-0.28711 0.868056,-0.447334 1.859166,-1.444135 2.292966,-2.30664 0.76366,-1.518233 1.08331,-4.62295 0.75,-7.302735 -0.10322,-0.829856 -0.0619,-1.468125 0.13868,-2.152343 0.18935,-0.645786 0.25762,-1.551971 0.20312,-2.691407 -0.10211,-2.135641 -0.67776,-3.274088 -2.06641,-4.08789 -1.282716,-0.751724 -2.528284,-0.827527 -4.179684,-0.25586 -0.882535,0.305509 -1.748079,0.45476 -2.566406,0.44336 -3.258932,-0.04538 -7.405726,-3.508828 -9.658203,-8.066407 z m 43.281251,4.353516 c -0.0201,0 -0.40516,0.176967 -0.85547,0.394531 -1.89553,0.915822 -3.9481,0.976754 -6.67383,0.197266 -0.79971,-0.228697 -1.97501,-0.394532 -2.79297,-0.394532 -4.52599,0 -5.95744,3.97446 -4.11328,11.417969 0.27594,1.113772 0.68362,2.537632 0.90625,3.164063 0.22263,0.62643 0.52441,1.793506 0.66992,2.59375 0.67572,3.716175 3.17303,6.247949 7.25196,7.353515 1.16192,0.314936 1.86594,0.373955 3.61718,0.302735 2.34914,-0.09553 3.33098,-0.33532 5.18164,-1.269532 1.42625,-0.719951 2.07731,-1.446573 2.95313,-3.292968 1.79102,-3.775803 1.04307,-8.573406 -2.25391,-14.435547 -0.75555,-1.343396 -3.77975,-6.03125 -3.89062,-6.03125 z M 38.390195,41.699832 34.991317,41.596784 34.379058,41.00956 c -0.336742,-0.322974 -0.842859,-1.058555 -1.124704,-1.634625 -0.835467,-1.707635 -0.378801,-3.243921 1.532363,-5.155069 3.32213,-3.322101 10.426124,-6.308563 17.680867,-7.432894 2.319786,-0.359518 7.727924,-0.708948 11.014445,-0.711666 5.88754,-0.0049 13.946127,1.75198 20.394056,4.446096 l 0.742562,0.310262 -0.641858,1.229806 c -0.892391,1.70983 -3.41411,4.187192 -5.208428,5.116815 -3.094409,1.60319 -6.055532,2.312499 -11.846718,2.837769 -1.947664,0.176656 -3.91164,0.446957 -4.364387,0.600669 -1.08762,0.369257 -7.303779,0.865485 -12.363799,0.986988 -2.229634,0.05354 -5.032743,0.120253 -6.229132,0.148256 -1.196389,0.028 -3.704747,0.0045 -5.57413,-0.05213 z" /></g></svg>