<?xml version="1.0" encoding="UTF-8" standalone="no"?>
<!-- Created with Inkscape (http://www.inkscape.org/) -->

<svg
   xmlns:dc="http://purl.org/dc/elements/1.1/"
   xmlns:cc="http://creativecommons.org/ns#"
   xmlns:rdf="http://www.w3.org/1999/02/22-rdf-syntax-ns#"
   xmlns:svg="http://www.w3.org/2000/svg"
   xmlns="http://www.w3.org/2000/svg"
   xmlns:sodipodi="http://sodipodi.sourceforge.net/DTD/sodipodi-0.dtd"
   xmlns:inkscape="http://www.inkscape.org/namespaces/inkscape"
   version="1.1"
   id="svg274"
   xml:space="preserve"
   width="174.63005"
   height="167.22292"
   viewBox="0 0 174.63005 167.22292"
   sodipodi:docname="0.svg"
   inkscape:version="0.92.4 (5da689c313, 2019-01-14)"><metadata
     id="metadata280"><rdf:RDF><cc:Work
         rdf:about=""><dc:format>image/svg+xml</dc:format><dc:type
           rdf:resource="http://purl.org/dc/dcmitype/StillImage" /><dc:title /></cc:Work></rdf:RDF></metadata><defs
     id="defs278" /><sodipodi:namedview
     pagecolor="#ffffff"
     bordercolor="#666666"
     borderopacity="1"
     objecttolerance="10"
     gridtolerance="10"
     guidetolerance="10"
     inkscape:pageopacity="0"
     inkscape:pageshadow="2"
     inkscape:window-width="1434"
     inkscape:window-height="760"
     id="namedview276"
     showgrid="false"
     inkscape:zoom="2.5284424"
     inkscape:cx="9.8341713"
     inkscape:cy="87.256301"
     inkscape:window-x="0"
     inkscape:window-y="0"
     inkscape:window-maximized="0"
     inkscape:current-layer="g282"
     fit-margin-top="0"
     fit-margin-left="0"
     fit-margin-right="0"
     fit-margin-bottom="0" /><g
     id="g282"
     inkscape:groupmode="layer"
     inkscape:label="Plantos_Test2"
     transform="matrix(1.3333333,0,0,-1.3333333,-500.26451,842.86329)"><g
       id="g284"
       transform="matrix(610.6,0,0,789.1,-651.87568,22.757022)"><path
         style="fill:#000000;stroke-width:0.00051864"
         d="M 1.892522,0.77226012 C 1.886592,0.76806812 1.88048,0.76282112 1.872981,0.75968662 1.850948,0.75130762 1.828522,0.74354752 1.806744,0.73475502 1.794395,0.72990902 1.782945,0.72373722 1.771368,0.71784922 1.761378,0.71241722 1.75165,0.70673622 1.742411,0.70056272 1.732431,0.69352172 1.72456,0.68496952 1.71523,0.67744002 1.703327,0.66621812 1.697263,0.65238682 1.688648,0.63966912 c -0.0039,-0.004667 -0.00289,-0.0104879 -0.00598,-0.0154521 -0.00237,-0.004565 0.0028,-0.00891 0.0075,-0.009203 0.010065,-0.004032 0.021164,1.8273e-4 0.031248,0.001962 0.014621,0.004182 0.028613,0.009747 0.04267,0.0149798 0.00635,0.002636 0.013519,0.004373 0.018228,0.008829 0.013718,0.0104875 0.031979,0.0234113 0.042444,0.034089 0.013501,0.01266 0.025714,0.0261146 0.039176,0.0387943 0.00558,0.006594 0.01118,0.013159 0.016047,0.0200659 0.00436,0.008578 0.0086,0.0171576 0.01194,0.0260095 7.21e-4,0.003922 0.0097,0.0108865 6.048e-4,0.0125164 z M 1.7566461,0.62908375 c -7.4e-6,5.18e-6 -6.1e-6,-8.38e-6 0,0 z m 0.1294201,0.13140713 c -0.00362,-0.009141 -0.00953,-0.0180621 -0.012099,-0.0276112 -0.00611,-0.005895 -0.01117,-0.0132098 -0.01752,-0.0196923 -0.015241,-0.0150381 -0.029129,-0.0309642 -0.046357,-0.0447343 -0.00981,-0.007821 -0.019938,-0.0155192 -0.030875,-0.022413 -0.00785,-0.004209 -0.015434,-0.008043 -0.023383,-0.0125497 -0.015566,-0.008058 -0.033587,-0.0126188 -0.051512,-0.0162272 -0.00756,-0.00142 -0.017126,-1.2428e-4 -0.012962,0.007525 5.652e-4,0.008144 0.00246,0.0162792 0.00781,0.0234201 0.00625,0.0125907 0.015888,0.0239569 0.027603,0.0338798 0.010963,0.0106905 0.024147,0.0198012 0.038713,0.0274616 0.028599,0.0165564 0.060894,0.0286658 0.09349,0.0396941 0.00973,0.002729 0.01827,0.007201 0.02709,0.0112471 z M 1.8530149,0.7403755 c -0.00302,-0.005862 -0.0099,-0.0112858 -0.015177,-0.0162488 0.00645,0.00355 0.019497,0.008773 0.015177,0.0162488 z M 1.7896279,0.6871893 c -0.00398,-0.003152 -0.015444,-0.00748 -0.014509,-0.0114719 0.00435,0.002653 0.020421,0.007805 0.014509,0.0114719 z m -0.041273,-0.02569 c -0.00477,-0.001673 -0.01134,-0.008542 -0.00303,-0.003884 0.00138,9.6295e-4 0.00311,0.002333 0.00303,0.003884 z M 1.7324659,0.6509849 c -0.00607,-0.005112 -0.013134,-0.009775 -0.018852,-0.0150104 0.00864,0.002368 0.01638,0.007757 0.018852,0.0150104 z"
         id="path3991"
         inkscape:connector-curvature="0"
         sodipodi:nodetypes="cccccccccccccccccccccccccccccccccccccccccccccc" /></g><path
       style="fill:#4ebd00;fill-opacity:1;stroke:none;stroke-width:0;stroke-miterlimit:4;stroke-dasharray:none;stroke-opacity:1"
       d="m 9.4903557,162.65114 c -2.7418341,-1.2449 -2.7873017,-1.50643 -1.7576787,-10.1102 1.0929138,-9.13265 2.289063,-13.75647 5.166804,-19.97277 1.057351,-2.28402 2.585005,-5.66554 3.394788,-7.51451 1.883053,-4.29954 5.206208,-10.2971 8.217341,-14.83047 C 32.331913,98.449456 46.848165,82.373602 57.236335,73.982587 61.78701,70.30679 75.199141,60.682216 81.142895,56.827187 97.797563,46.025216 119.6009,34.746832 143.43421,24.605264 c 6.42724,-2.734923 10.22804,-4.703553 17.29874,-8.959898 2.66227,-1.602601 4.92085,-2.913821 5.01907,-2.913821 0.24586,0 -1.13054,3.928617 -4.64191,13.249264 -1.63896,4.350504 -3.45382,9.662869 -4.03302,11.805255 -0.82227,3.041477 -1.42383,4.385122 -2.74459,6.130256 -0.93033,1.229255 -3.57407,5.120057 -5.875,8.646226 -4.00323,6.134966 -20.36714,28.06654 -29.81949,39.965296 -6.78716,8.543768 -11.80504,14.050328 -21.731944,23.848378 -10.710594,10.57156 -15.613277,14.83119 -22.512627,19.5598 -2.813554,1.92833 -7.652197,5.29646 -10.752537,7.48474 -11.839985,8.35686 -22.858141,13.30631 -40.612438,18.24345 -7.251229,2.01643 -10.714586,2.26891 -13.5381083,0.98693 z M 29.274506,141.78096 c 4.85719,-2.5189 10.24044,-8.67132 11.521578,-13.1678 0.188238,-0.66066 -1.839943,1.111 -6.112341,5.33926 -6.141344,6.0779 -9.085468,9.29426 -8.507599,9.29426 0.149613,0 1.543876,-0.65957 3.098362,-1.46572 z M 50.84086,121.0867 c 2.067688,-1.49783 3.93394,-4.33855 2.850272,-4.33855 -0.695428,0 -4.196033,3.06676 -4.902757,4.29514 -0.948841,1.64921 -0.186522,1.66533 2.052485,0.0434 z M 80.69842,98.555134 c 5.410564,-3.238227 7.761232,-5.348851 7.761232,-6.968674 0,-2.425402 -0.621216,-2.239284 -5.808228,1.740147 -4.834794,3.709212 -6.847785,5.864191 -6.847785,7.330793 0,0.88564 -0.345414,1.03399 4.894781,-2.102266 z m 50.57996,-50.917415 c 4.00954,-2.797083 6.64573,-5.405103 7.72518,-7.642639 0.87218,-1.807882 1.08657,-4.223837 0.50661,-5.708762 -0.27017,-0.691735 -0.42257,-0.567653 -1.21437,0.988751 -1.68535,3.312787 -3.73899,6.092176 -10.64351,14.404874 -0.83229,1.002033 -0.34171,0.725738 3.62609,-2.042224 z"
       id="path5257"
       inkscape:connector-curvature="0"
       transform="matrix(0.75000002,0,0,-0.75000002,375.19839,632.14748)" /></g></svg>