<?xml version="1.0" encoding="UTF-8" standalone="no"?>
<!-- Created with Inkscape (http://www.inkscape.org/) -->

<svg
   xmlns:dc="http://purl.org/dc/elements/1.1/"
   xmlns:cc="http://creativecommons.org/ns#"
   xmlns:rdf="http://www.w3.org/1999/02/22-rdf-syntax-ns#"
   xmlns:svg="http://www.w3.org/2000/svg"
   xmlns="http://www.w3.org/2000/svg"
   xmlns:sodipodi="http://sodipodi.sourceforge.net/DTD/sodipodi-0.dtd"
   xmlns:inkscape="http://www.inkscape.org/namespaces/inkscape"
   version="1.1"
   id="svg2162"
   xml:space="preserve"
   width="436.22345"
   height="629.99127"
   viewBox="0 0 436.22345 629.99127"
   sodipodi:docname="4.svg"
   inkscape:version="0.92.2 5c3e80d, 2017-08-06"><metadata
     id="metadata2168"><rdf:RDF><cc:Work
         rdf:about=""><dc:format>image/svg+xml</dc:format><dc:type
           rdf:resource="http://purl.org/dc/dcmitype/StillImage" /><dc:title></dc:title></cc:Work></rdf:RDF></metadata><defs
     id="defs2166" /><sodipodi:namedview
     pagecolor="#ffffff"
     bordercolor="#666666"
     borderopacity="1"
     objecttolerance="10"
     gridtolerance="10"
     guidetolerance="10"
     inkscape:pageopacity="0"
     inkscape:pageshadow="2"
     inkscape:window-width="1358"
     inkscape:window-height="801"
     id="namedview2164"
     showgrid="false"
     inkscape:zoom="0.3160553"
     inkscape:cx="208.12366"
     inkscape:cy="201.47055"
     inkscape:window-x="0"
     inkscape:window-y="0"
     inkscape:window-maximized="0"
     inkscape:current-layer="g2172"
     fit-margin-top="0"
     fit-margin-left="0"
     fit-margin-right="0"
     fit-margin-bottom="0" /><g
     id="g2170"
     inkscape:groupmode="layer"
     inkscape:label="Hibiscus_Salvia_Firewheel"
     transform="matrix(0,-1.3333333,-1.3333333,0,498.50138,917.86211)"><g
       id="g2172"
       transform="matrix(792,0,0,612,-344.08536,-237.30025)"><path
         style="fill:#000000;stroke-width:0.00034473"
         d="m 1.2007298,0.46406684 c -0.058013,0.009634 -0.1046439,0.0482126 -0.1541254,0.0767275 -0.039381,6.7351e-4 -0.0684005,0.0401305 -0.10872758,0.048078 -0.0330657,0.0186015 -0.0719163,0.00935 -0.10574396,0.0242415 -0.017532,0.008699 -0.0371495,0.0367315 -0.0509151,0.037223 0.00863,-0.0350028 0.0370048,-0.0639895 0.0727703,-0.0652865 -0.0136413,-0.0237934 -0.0520374,0.0131864 -0.0514133,0.008682 0.0113076,-0.0209915 0.0319369,-0.0421974 0.0578889,-0.038678 -0.004925,-0.0335394 -0.044344,0.00382 -0.051801,0.0206901 -0.0268463,0.0300057 -0.0277624,0.0794418 -0.0693079,0.0949196 -0.0177248,0.003297 -0.0473711,0.0189297 -0.023189,0.0372439 0.0591371,-0.009947 0.0481834,0.069894 0.0910282,0.0917376 0.0247654,0.0214843 0.0592143,0.027376 0.0904379,0.0295455 -0.005684,-0.0206337 -0.0472971,-0.0105043 -0.0654463,-0.0261418 -0.0172694,-0.006741 -0.05192,-0.0342003 -0.0471123,-0.0450534 0.0277313,0.0171106 0.0590419,0.0161926 0.0824455,0.0396114 0.0553204,0.0174897 0.0890351,0.0680994 0.12941369,0.10304757 -0.011845,-0.045367 -0.0232501,-0.0948028 -0.06291,-0.12569512 -0.007324,-0.0102416 -0.0368733,-0.0232595 -0.0103704,-0.028065 0.0414115,-0.016715 0.0880882,-0.0455955 0.13047835,-0.0326373 -0.00903,0.0105489 -0.046653,0.002463 -0.0655199,0.0108711 0.0572735,0.006818 0.1133453,-0.0220307 0.170989,-0.0123558 0.098152,-4.2334e-4 0.1300906,0.0960138 0.1223567,0.20048177 -0.00519,0.0476541 -0.051824,0.0836702 -0.098871,0.0804751 -0.050401,-0.0183263 -0.090242,-0.0554045 -0.1249557,-0.0950122 -0.018985,-0.0176076 -0.0593682,-0.054587 -0.0696569,-0.0546938 0.0230067,0.0267631 0.0683518,0.0492519 0.0802112,0.0771356 -0.028812,-0.006007 -0.051184,-0.0256561 -0.0766594,-0.03892 0.0264804,0.0365878 0.0772591,0.0344859 0.1065832,0.0646545 0.030836,0.0266045 0.070749,0.060985 0.1148144,0.0494761 0.038888,-0.0122179 0.070447,-0.0459636 0.073406,-0.087644 0.023176,-0.0429087 0.00588,-0.0703016 0.00755,-0.1285412 C 1.2745634,0.74921482 1.233137,0.76007689 1.252371,0.72775169 1.2825591,0.70480969 1.298682,0.66045369 1.29899,0.62333674 1.2985482,0.60942284 1.29788,0.58505334 1.278246,0.58591184 1.311975,0.61596104 1.290172,0.66128094 1.274846,0.6945704 1.265676,0.7214253 1.241518,0.7347481 1.217453,0.7165189 1.1819722,0.70485 1.1435212,0.7031448 1.1067524,0.7089139 1.0640104,0.7166239 1.0181034,0.7025329 0.98111726,0.6831771 0.96289126,0.6719809 0.94357506,0.6627404 0.92461726,0.652883 0.97330766,0.649869 1.0072809,0.6101526 1.0300848,0.5709545 c 0.029657,-0.0266186 0.07439,-0.0336707 0.1068506,-0.059156 0.03651,-0.0255023 0.089819,-0.027874 0.1248778,0.0014 0.016648,0.0171771 0.00697,0.0418468 0.013227,0.0623516 -0.00939,-0.0336463 0.0431,-0.0397398 0.024627,-0.0751027 C 1.2868542,0.4531502 1.2348222,0.4738192 1.2007342,0.4640665 Z m 0.00777,0.006612 c 0.034693,0.002409 0.094064,1.6744e-4 0.089826,0.0502174 -0.00371,0.0104235 -0.026817,0.0286328 -0.023357,0.004276 -0.025641,-0.0465168 -0.091535,-0.0478419 -0.1332926,-0.0224707 -0.025055,0.0168974 -0.07354,0.0460871 -0.08935,0.0432131 0.045374,-0.0324043 0.094522,-0.0668964 0.1507873,-0.0755619 l 0.00539,3.261e-4 z m 0.017727,0.0104647 c 0.00742,0.0188387 0.032241,-0.002323 0,0 z m 0.036896,0.0106407 c 0.0049,0.0194294 0.027764,0.002177 0,0 z m -0.2332404,0.0572968 c -0.0323635,0.0432676 -0.088992,0.0722585 -0.12283856,0.1055807 0.0297358,0.015692 0.0798289,0.0276999 0.090841,0.0567917 -0.0384383,0.001263 -0.0699086,0.0420328 -0.10679857,0.030637 0.0135625,0.0337084 0.0508518,0.0550835 0.0630365,0.0922328 0.005908,0.0121822 0.0292837,0.0482808 0.005908,0.0201759 -0.0247834,-0.0388167 -0.0706979,-0.0489452 -0.10462229,-0.0755683 0.0302506,0.001883 0.003353,-0.0194614 -0.0133919,-0.0138833 -0.0129178,-0.008795 -0.0355403,-0.0318872 -0.003721,-0.0292165 0.0117268,0.00296 0.0506357,-0.00691 0.0393972,-0.0152411 -0.0211097,0.004039 -0.068709,0.0205843 -0.0640281,-0.017012 0.019475,0.007039 0.0398753,-0.0239791 0.0110125,-0.009409 -0.0347858,-0.006084 0.00824,-0.0489063 0.0295554,-0.0349858 0.0165158,0.003048 0.0420548,-0.0121478 0.0121587,-0.0117728 -0.0156659,-0.00538 -0.0604095,0.026468 -0.0477822,-0.008756 0.007871,-0.0126326 0.0546843,0.003756 0.026706,-0.0150675 -0.025637,-0.006223 0.0222963,-0.0118691 0.0319733,-0.0123302 0.0386372,-0.002892 0.0748494,-0.0184962 0.10854425,-0.0366439 0.014638,-0.008585 0.0288206,-0.0179918 0.0440498,-0.0255317 z m 0.00566,0.00562 c -0.024747,0.0307086 -0.0420949,0.0725429 -0.0831433,0.0848889 -0.0131464,0.00484 -0.0308174,0.005177 -0.009563,-0.006679 0.03327,-0.0232671 0.063715,-0.0509636 0.0927063,-0.0782099 z m -0.22397968,0.0875092 c 0.007653,0.0188105 -0.0395074,0.0373501 -0.0336795,0.0314558 0.007535,-0.0130765 0.0180978,-0.0279122 0.0336795,-0.0314558 z m -0.002868,0.029577 c 0.0159712,0.0266291 -0.0384174,0.0286228 -0.0388337,0.02152 0.0109712,-0.009797 0.0245903,-0.0177206 0.0388337,-0.02152 z m -0.006861,0.0321274 c 0.034137,0.0242733 -0.0409664,0.0391307 -0.0296384,0.007827 0.008533,-0.005837 0.019418,-0.008118 0.0296384,-0.007827 z m -0.022309,0.0323714 c 0.0168943,-0.008212 0.0494288,0.0174485 0.0415919,0.0247331 -0.0127728,-0.006581 -0.0390994,-0.007727 -0.0415919,-0.0247331 z m 0.49379288,0.0342275 c 0.032783,0.0215854 0.00624,0.0573402 0.024232,0.0823096 -0.00233,0.008977 -0.012364,0.0502746 -0.012411,0.0221739 0.00539,-0.0335496 -0.013901,-0.0826049 -0.011821,-0.1044835 z m -0.34774278,0.006303 c 0.0246404,0.0232239 0.0518751,0.050843 0.052142,0.0870697 -0.0169594,-0.0293 -0.0328374,-0.0591506 -0.052142,-0.0870697 z M 1.1733377,0.523885 C 1.1246867,0.527428 1.0983417,0.5744112 1.0588397,0.5962786 1.1018127,0.5829468 1.1243387,0.5284083 1.1742732,0.52942 c 0.012145,3.2622e-4 0.050874,-0.001104 0.017937,-0.005594 -0.00629,5.262e-5 -0.012579,9.3203e-4 -0.018873,5.9e-5 z m 0.013639,0.0384616 c -0.014918,-0.002371 -0.037348,0.009518 -0.010003,0.005622 0.013256,0.002969 0.044212,-0.005816 0.010003,-0.005622 z m 0.088064,0.0132035 c 3.249e-4,0.0179208 0.013041,0.005457 0,0 z M 1.0449981,0.6099993 C 1.0322751,0.6345039 1.0039691,0.6463256 0.9789076,0.6542753 1.0077429,0.6585813 1.0367961,0.628954 1.0449981,0.6099993 Z m 0.1457687,0.0197276 c 0.00955,0.0163913 0.028811,-0.001662 0,0 z m -0.1195711,0.00158 c -0.01012,0.0203868 0.064016,0.001966 0.025548,0.003534 -0.00861,-1.6884e-4 -0.017639,7.9215e-4 -0.025548,-0.003534 z m -0.046942,0.0385676 c 0.035872,0.0264863 0.08446,0.008883 0.1247271,0.004322 0.031153,-0.003 0.062385,0.004139 0.091478,0.0148631 C 1.2034578,0.6594059 1.1520428,0.6705383 1.1090457,0.677039 1.0808427,0.681496 1.0502817,0.681975 1.0242537,0.6698745 Z M 1.189665,0.6756055 C 1.195715,0.6835845 1.222467,0.719108 1.200577,0.6931554 1.196267,0.6862194 1.190034,0.6844254 1.189665,0.6756055 Z M 1.161058,0.7346207 C 1.142007,0.7370887 1.119028,0.7312037 1.10267,0.7425387 1.130992,0.7364357 1.186521,0.7436067 1.198265,0.7390037 1.186639,0.7335117 1.173471,0.7353387 1.161058,0.7346207 Z M 1.0228212,0.757432 c 0.039306,0.0189022 0.080681,0.0353989 0.12157,0.0517345 -0.0381,-0.020581 -0.079704,-0.0393232 -0.121571,-0.0517346 z m -0.0744645,0.00232 c 0.0353176,0.0294941 0.0800619,0.0472157 0.1190547,0.0717739 0.00575,0.008375 0.027899,0.0123899 0.017864,0.012329 0.023357,0.0146711 0.047246,0.0301919 0.073809,0.0385881 C 1.1221224,0.8607009 1.0842544,0.8405684 1.0486497,0.8166033 1.0150747,0.7988283 0.98112888,0.7751291 0.9483567,0.759752 Z m 0.2450697,0.00204 c 0.00612,0.023692 0.018909,0.0111402 0,0 z M 0.98737595,0.82395548 C 1.0703665,0.8606875 1.1425298,0.95065289 1.2209726,0.96508698 1.1351196,0.93344238 1.0649443,0.85395666 0.98737595,0.82395548 Z m 0.006431,0.0428116 c 0.004055,0.0138831 0.0480779,0.040876 0.0205134,0.0163268 -0.00683,-0.005389 -0.011086,-0.0148198 -0.0205134,-0.0163268 z m 0.18909885,0.0264965 c 0.00938,0.0108248 0.020017,0.005961 0.00119,-1.4411e-4 z"
         id="path2719"
         inkscape:connector-curvature="0"
         sodipodi:nodetypes="cccccccccccccccccccccccccccccccccccccccccccccccccccccccccccccccccccccccccccccccccccccccccccccccccccccccccccccccccccccccccccccccccccccccccccccccccccccccc" /><path
         style="fill:#ffd5e5;fill-opacity:1;stroke:none;stroke-width:2.23728824;stroke-miterlimit:4;stroke-dasharray:none"
         d="m 504.50348,532.41733 c -16.50913,-24.93113 -33.92579,-40.67289 -57.70823,-52.15864 -11.15666,-5.38812 -23.07604,-10.4695 -26.4875,-11.29195 -5.04127,-1.21538 -7.70395,-4.69421 -14.22048,-18.57924 -12.52327,-26.68387 -20.36408,-46.07959 -21.94878,-54.29447 l -1.45357,-7.53516 9.60766,10.23718 c 5.28421,5.63045 17.35646,22.82953 26.82722,38.22018 16.0645,26.1059 22.97829,35.14139 25.19407,32.92563 3.21146,-3.21147 -30.60716,-56.22388 -54.41278,-85.29482 -39.83166,-48.64163 -67.42458,-101.04188 -67.42458,-128.04247 0,-34.91529 21.61118,-75.03246 48.04663,-89.18968 8.16354,-4.37191 12.24192,-4.80475 43.68219,-4.63606 31.2946,0.16792 36.45857,0.7713 52.92839,6.18443 31.86535,10.47316 54.5402,29.01588 68.11096,55.69881 10.42884,20.50528 13.3075,35.32763 14.6675,75.52392 1.06812,31.56862 0.40405,43.56827 -4.58485,82.85031 -6.17778,48.64301 -7.74017,88.62583 -3.35735,85.91708 3.51261,-2.17091 1.47473,5.88324 -11.38492,44.99571 -6.03479,18.35476 -11.93827,33.69425 -13.11885,34.08779 -1.18058,0.39352 -7.0138,-6.63481 -12.96273,-15.61855 z m -0.45691,-42.44699 c -8.77094,-20.35062 -24.17405,-54.21592 -68.7608,-151.17765 -12.02034,-26.14034 -22.28773,-47.09533 -22.81642,-46.56665 -2.95857,2.95858 17.02546,50.88813 39.69877,95.21318 3.46189,6.7678 13.0687,28.41356 21.34847,48.1017 20.18323,47.99292 35.82881,78.99551 38.51153,76.3128 0.5573,-0.55731 -3.0344,-10.40482 -7.98155,-21.88338 z M 451.17828,444.4766 C 440.44113,418.53842 431.523,400.97849 403.46275,350.52397 376.88377,302.73288 363.37896,274.86479 352.50613,245.37143 c -8.2602,-22.40641 -10.04761,-19.72425 -3.23607,4.856 8.3484,30.12622 18.70918,50.86989 68.84265,137.83222 11.19216,19.41411 24.70292,45.35307 30.0239,57.64216 5.32098,12.28907 9.988,21.40331 10.37115,20.25383 0.38316,-1.14947 -2.91511,-10.81502 -7.32948,-21.47904 z m -25.78651,18.31585 c 0,-3.36291 -16.98534,-26.86298 -20.23583,-27.99729 -3.0247,-1.05553 -2.67201,1.04791 1.55047,9.24669 8.10923,15.7457 18.68536,26.35875 18.68536,18.7506 z m 81.69498,-59.86848 c -8.77943,-30.82854 -32.4177,-96.82982 -34.08304,-95.16449 -1.28107,1.28107 18.68346,66.2013 31.35754,101.96777 4.9979,14.10417 9.4364,24.59603 9.86332,23.31525 0.42693,-1.28079 -2.78509,-14.83412 -7.13782,-30.11853 z m 24.36698,-63.25803 c 2.37077,-12.63728 1.80048,-83.7935 -0.70608,-88.09883 -2.89866,-4.97884 -2.82122,-6.23007 -3.23817,52.31953 -0.30509,42.84303 0.77723,52.661 3.94425,35.7793 z m -128.31687,-80.5605 c -2.44963,-6.44301 -7.56689,-8.36501 -5.29367,-1.98825 1.7577,4.93064 5.53975,9.89019 6.67575,8.75418 0.47434,-0.47433 -0.14762,-3.519 -1.38208,-6.76593 z M 508.109,247.53349 c -3.04025,-3.66328 -8.88672,-4.43319 -8.88672,-1.17028 0,1.16073 2.26001,3.6934 5.02225,5.62815 5.62766,3.94176 8.28832,0.87255 3.86447,-4.45787 z"
         id="path2742"
         inkscape:connector-curvature="0"
         transform="matrix(0,-0.00122549,-9.4696972e-4,0,1.4344512,1.3877455)" /><path
         style="fill:#ffd5e5;fill-opacity:1;stroke:none;stroke-width:2.23728824;stroke-miterlimit:4;stroke-dasharray:none"
         d="m 585.45212,500.90193 c -18.08496,-43.57797 -25.26251,-67.44921 -29.645,-98.59396 -3.20816,-22.79922 -3.35622,-30.33451 -1.05506,-53.69491 5.00653,-50.82429 1.96863,-95.70425 -8.46115,-124.9993 -5.63006,-15.81364 -5.66367,-22.57802 -0.1723,-34.67474 9.42116,-20.7535 63.2491,-45.7368 86.15561,-39.98764 3.25842,0.81781 10.1437,5.3486 15.30063,10.06842 11.09145,10.15131 13.8408,11.14094 37.60785,13.53691 15.86101,1.59895 18.98864,2.66339 24.74774,8.42248 15.9159,15.91592 23.95796,62.3109 16.702,96.35462 -1.91093,8.96576 -8.4685,26.5844 -14.57238,39.15255 -6.10389,12.56814 -15.82597,36.4427 -21.60463,53.05456 -15.044,43.24691 -18.942,50.01015 -40.33055,69.97586 -27.63282,25.79459 -42.71551,50.6222 -48.84398,80.4021 l -2.63101,12.78476 z m 29.73427,-63.62085 c 2.6823,-5.19543 8.14277,-13.16729 12.13437,-17.71525 5.35978,-6.10681 6.02142,-7.60794 2.53038,-5.7409 -14.53009,7.77075 -30.0141,34.99949 -31.35348,55.13532 l -0.90222,13.56372 6.35701,-17.8983 c 3.49636,-9.84407 8.55163,-22.14913 11.23394,-27.34459 z m -32.3135,-18.52284 c -4.23975,-16.11416 -4.15891,-58.09555 0.18094,-93.96308 6.28432,-51.93802 3.63328,-89.52438 -7.9103,-112.15165 -2.5521,-5.00254 -4.96951,-8.74626 -5.37201,-8.31939 -0.40251,0.42687 1.03819,7.82358 3.20154,16.43714 2.16335,8.61356 4.6255,20.19152 5.47145,25.72881 l 1.5381,10.0678 -10.17678,-9.9743 c -13.46717,-13.19922 -13.13309,-8.69372 0.40279,5.43221 10.09601,10.5361 10.61698,11.71029 11.39821,25.68972 0.45026,8.05694 -1.29033,31.76423 -3.86798,52.68288 -6.54413,53.10827 -5.90215,72.65964 3.09272,94.18739 4.86434,11.642 5.87627,8.75809 2.04132,-5.81753 z m 67.60257,-29.53856 c 2.03889,-3.94277 12.60726,-20.67134 23.48527,-37.17459 26.41245,-40.07089 29.40966,-48.16284 30.60304,-82.62281 0.57638,-16.64339 0.10719,-27.40678 -1.1947,-27.40678 -2.22653,0 -4.9846,22.42142 -5.01224,40.74658 -0.0229,15.16968 -7.17705,32.18136 -24.74069,58.83019 -16.49169,25.0224 -24.02336,38.63682 -26.87499,48.57987 -2.36888,8.2598 -0.82604,7.86628 3.73431,-0.95246 z m -34.46531,-23.59401 c -0.54244,-10.76695 -1.36874,-19.99577 -1.83622,-20.50848 -2.3696,-2.59889 -4.16094,3.84394 -4.94965,17.80219 -0.96211,17.0269 0.15755,22.28256 4.74705,22.28256 2.38658,0 2.81691,-4.13196 2.03882,-19.57627 z m 56.31047,-83.89831 c 2.07926,-7.75872 1.65548,-37.47458 -0.53443,-37.47458 -2.54682,0 -4.71184,13.53241 -4.74268,29.64407 -0.0248,12.97177 2.78282,17.13793 5.27711,7.83051 z m -52.28478,-29.46109 c 0,-10.66785 -4.73312,-16.39704 -7.52839,-9.1127 -1.60506,4.18272 2.12273,14.52294 5.23572,14.52294 1.26097,0 2.29267,-2.43461 2.29267,-5.41024 z"
         id="path2744"
         inkscape:connector-curvature="0"
         transform="matrix(0,-0.00122549,-9.4696972e-4,0,1.4344512,1.3877455)" /><path
         style="fill:#ffd5e5;fill-opacity:1;stroke:none;stroke-width:2.23728824;stroke-miterlimit:4;stroke-dasharray:none"
         d="m 689.42083,390.73365 c 0.0324,-4.92127 13.97405,-39.46924 29.94427,-74.20314 13.51982,-29.40451 17.721,-49.09458 16.45195,-77.10699 -0.79089,-17.4579 -0.40157,-21.38736 2.0267,-20.45555 2.16796,0.83192 3.00564,-1.05894 3.00564,-6.78446 0,-8.51279 -3.78554,-12.93679 -6.84035,-7.99401 -2.19262,3.54774 -1.96258,3.81477 -8.15619,-9.46794 -6.76576,-14.50972 -17.81873,-26.53657 -24.38776,-26.53657 -7.89346,0 -7.18271,-9.70939 1.33421,-18.22631 6.92738,-6.92738 10.16974,-7.12715 21.90623,-1.34969 12.29638,6.05308 19.31939,29.07337 21.67086,71.03362 1.65395,29.51353 -1.06855,47.53319 -12.22069,80.88618 -6.71216,20.07423 -33.84736,79.03232 -41.21643,89.55316 -3.3072,4.72169 -3.54553,4.76583 -3.51844,0.6517 z m 42.47941,-213.41653 c 0,-6.66823 -2.41174,-11.36942 -5.83258,-11.36942 -3.83297,0 -4.14134,9.26675 -0.43182,12.97627 3.90187,3.90187 6.2644,3.29587 6.2644,-1.60685 z"
         id="path2746"
         inkscape:connector-curvature="0"
         transform="matrix(0,-0.00122549,-9.4696972e-4,0,1.4344512,1.3877455)" /><path
         style="fill:#ffd5e5;fill-opacity:1;stroke:none;stroke-width:2.23728824;stroke-miterlimit:4;stroke-dasharray:none"
         d=""
         id="path2748"
         inkscape:connector-curvature="0"
         transform="matrix(0,-0.00122549,-9.4696972e-4,0,1.4344512,1.3877455)" /><path
         style="fill:#ffd5e5;fill-opacity:1;stroke:none;stroke-width:2.23728824;stroke-miterlimit:4;stroke-dasharray:none"
         d="m 466.7816,162.29027 c -12.51835,-3.41275 -26.90421,-5.60862 -38.02791,-5.80461 l -17.89231,-0.31524 11.66974,-5.29536 c 10.04471,-4.55797 12.38046,-4.895 16.77366,-2.4203 2.80717,1.58128 14.92635,3.4211 26.93151,4.08849 20.90064,1.16191 22.13393,1.5198 29.04172,8.42759 l 7.21415,7.21415 -7.78749,-0.20268 c -4.28311,-0.11147 -16.8485,-2.67289 -27.92307,-5.69204 z"
         id="path2750"
         inkscape:connector-curvature="0"
         transform="matrix(0,-0.00122549,-9.4696972e-4,0,1.4344512,1.3877455)" /><path
         style="fill:#ffd5e5;fill-opacity:1;stroke:none;stroke-width:0.79100078;stroke-miterlimit:4;stroke-dasharray:none"
         d="m 540.81805,482.4302 c 0.005,-0.61633 0.53864,-2.86793 1.1865,-5.00356 1.41226,-4.65538 1.58051,-9.51071 0.3022,-8.72067 -0.56737,0.35066 -0.72217,0.0189 -0.4396,-0.94207 1.47034,-5.00057 2.2255,-13.39464 2.8774,-31.984 0.70673,-20.1527 1.3479,-26.119 3.34295,-31.10716 0.84693,-2.11757 0.95619,-2.1661 1.50942,-0.67055 0.32803,0.88673 1.02587,5.29551 1.55077,9.7973 1.82639,15.66388 -0.51744,35.99669 -6.77381,58.7631 -2.70865,9.85655 -3.57409,12.25822 -3.55583,9.86761 z"
         id="path2752"
         inkscape:connector-curvature="0"
         transform="matrix(0,-0.00122549,-9.4696972e-4,0,1.4344512,1.3877455)" /><path
         style="fill:#217821;fill-opacity:1;stroke:none;stroke-width:0.79100078;stroke-miterlimit:4;stroke-dasharray:none"
         d="m 571.04316,655.51674 c -2.06042,-2.19321 -4.04689,-6.7937 -4.23544,-9.80886 -0.0771,-1.23371 0.4488,-4.17645 1.16877,-6.53943 1.64889,-5.41177 1.7113,-10.01357 0.14395,-10.61502 -1.82402,-0.69994 -5.66414,3.08734 -8.0267,7.91626 -1.67821,3.43012 -2.25462,5.99762 -2.61117,11.63095 -0.52008,8.21694 -0.86165,8.53529 -7.29822,6.8021 -11.31709,-3.04738 -13.68783,-19.01161 -7.85609,-52.90181 2.27387,-13.21426 2.39207,-14.68488 1.27034,-15.80661 -3.72775,-3.72775 -8.76676,7.42357 -11.5057,25.46209 -0.44835,2.95276 -0.76339,10.78367 -0.70011,17.40202 0.15078,15.76967 -0.97722,18.63141 -6.45028,16.36439 -2.98121,-1.23486 -9.74524,-8.6518 -13.37077,-14.66142 -2.49867,-4.14174 -2.72028,-5.00494 -2.52334,-9.82884 0.38264,-9.37231 -3.20814,-20.67625 -7.45106,-23.45632 -3.10736,-2.03602 -4.47634,-0.12936 -5.03146,7.00755 l -0.44793,5.75895 -5.67169,-11.46951 c -3.11942,-6.30823 -9.50664,-20.54625 -14.19382,-31.64003 -15.31349,-36.24451 -22.23572,-47.89151 -37.95883,-63.8676 -9.17412,-9.32172 -10.76301,-11.27748 -9.16204,-11.27748 0.3543,0 5.07065,3.23943 10.48076,7.19873 5.41011,3.9593 11.7943,8.19844 14.18707,9.42031 11.59637,5.92172 20.82641,14.23058 40.57973,36.52981 6.81812,7.69686 14.9485,16.19068 18.06752,18.87513 5.50244,4.73581 13.98738,10.64401 14.51727,10.10861 0.1437,-0.14521 -0.0483,-1.86578 -0.42664,-3.82351 -0.93821,-4.8547 -0.91437,-15.96203 0.047,-21.88527 1.32838,-8.18468 4.50752,-18.03333 11.83021,-36.64879 9.76768,-24.83106 13.46902,-37.67989 13.46902,-46.75643 0,-1.69214 0.26697,-3.07317 0.59325,-3.06894 1.11758,0.0145 7.25024,5.30003 10.08189,8.68929 4.68827,5.6115 10.33903,15.98362 14.43867,26.50256 0.67823,1.74021 5.53864,15.77546 10.80094,31.18944 5.26229,15.41399 9.94401,28.14597 10.40381,28.29329 1.38896,0.445 15.92307,-22.34915 31.62313,-49.59522 18.50581,-32.11521 26.4733,-44.90729 35.33232,-56.72726 7.39125,-9.86163 16.39207,-20.32153 16.98048,-19.73312 0.47848,0.47847 -2.47694,7.38404 -11.39587,26.62733 -21.01826,45.3486 -33.48092,86.66628 -36.57043,121.24261 -3.17985,35.58735 -4.21945,43.70458 -6.28434,49.06791 -1.11549,2.89736 -2.02961,2.22368 -3.17957,-2.34324 -1.53749,-6.10591 -7.00285,-14.14994 -8.56031,-12.59925 -0.32362,0.32222 -0.77911,7.40938 -1.0122,15.74926 -0.52291,18.70986 -1.17415,20.64944 -7.71816,22.98704 -3.34776,1.19586 -4.57965,1.31672 -6.14614,0.60297 -4.42263,-2.01508 -4.36461,-7.48738 0.28223,-26.61963 2.71969,-11.19762 2.87428,-12.5348 2.74836,-23.77293 -0.14544,-12.98081 -0.81664,-16.17261 -3.40091,-16.17261 -4.61951,0 -8.90125,21.41624 -5.93042,29.66253 0.62694,1.74021 1.15551,5.5929 1.1746,8.56154 0.11587,18.01294 -17.33391,40.23486 -25.10167,31.96646 z"
         id="path2754"
         inkscape:connector-curvature="0"
         transform="matrix(0,-0.00122549,-9.4696972e-4,0,1.4344512,1.3877455)" /><path
         style="fill:#002b00;fill-opacity:1;stroke:none;stroke-width:0.79100078;stroke-miterlimit:4;stroke-dasharray:none"
         d="m 562.97062,766.65631 c -1.50636,-0.75758 -3.86224,-2.86143 -5.23531,-4.67524 -2.45824,-3.24731 -2.49046,-3.4048 -2.10343,-10.28301 0.48185,-8.56321 -1.17664,-18.12329 -4.17995,-24.09459 -5.46172,-10.85924 -12.36515,-17.10058 -30.52986,-27.60179 -24.74633,-14.30612 -32.947,-21.58631 -39.62789,-35.17988 -1.06908,-2.17526 -3.17347,-6.09071 -4.67643,-8.70101 -6.35972,-11.04544 -11.87456,-26.92861 -15.24284,-43.90055 -2.8831,-14.52724 -5.9838,-44.29604 -4.61385,-44.29604 1.06423,0 4.61138,4.0405 6.04867,6.88995 1.95241,3.87066 3.42666,11.16492 5.24298,25.94105 2.33817,19.02156 4.46142,28.5769 7.37823,33.20462 0.5529,0.87722 1.65549,3.3747 2.45018,5.54995 2.23826,6.12658 10.21808,21.47706 14.7344,28.344 4.65269,7.0743 12.62294,15.9103 15.86253,17.58554 2.5754,1.3318 5.43741,1.49005 5.43741,0.30065 0,-0.4589 -1.03194,-3.25937 -2.29319,-6.22328 -2.84747,-6.69147 -5.20901,-14.43627 -10.26934,-33.6789 -6.01805,-22.88453 -10.68843,-34.92621 -17.02686,-43.90055 -1.47817,-2.09288 -3.25862,-6.29826 -4.32117,-10.20648 -7.05445,-25.94739 -21.04668,-50.42165 -49.56234,-86.69112 -15.1841,-19.31286 -31.32865,-40.89377 -30.90748,-41.31493 0.5564,-0.55641 19.06291,5.71909 31.3253,10.62231 22.481,8.98921 36.88034,18.08301 51.0589,32.24585 9.1677,9.15754 12.00338,12.81734 25.15043,32.45981 6.76911,10.11346 9.18694,12.62827 11.45052,11.90984 1.55499,-0.49353 4.09624,-5.54119 4.09624,-8.1363 0,-0.73477 4.62035,-15.05457 10.26744,-31.82178 15.59538,-46.3054 19.29473,-62.58211 19.33343,-85.06488 0.0213,-12.33853 -1.32623,-24.12552 -2.75799,-24.12552 -1.19769,0 -2.94528,4.2058 -3.87267,9.32006 -0.48894,2.69631 -1.21998,14.07159 -1.62454,25.27843 -0.63119,17.4846 -1.72658,29.89217 -2.72736,30.89295 -0.15065,0.15066 -0.53294,-2.83554 -0.84951,-6.63599 -1.11567,-13.39346 0.80556,-37.77009 5.93708,-75.32998 1.70423,-12.47401 3.70523,-28.01927 4.44667,-34.54503 2.56379,-22.56502 1.48871,-69.36377 -2.0773,-90.42557 -2.98803,-17.64812 -9.54124,-34.81323 -18.31475,-47.97263 -5.15504,-7.73204 -16.48846,-19.72493 -23.72681,-25.10741 -2.96489,-2.20472 -5.39071,-4.13761 -5.39071,-4.29532 0,-0.1577 3.11457,-0.28635 6.92126,-0.28587 l 6.92126,8.6e-4 2.67661,5.95316 c 3.28805,7.31307 5.83281,9.4352 10.66158,8.89093 4.77621,-0.53835 9.43346,-3.82075 13.1167,-9.24456 1.75998,-2.59168 3.58132,-4.94784 4.04743,-5.23591 1.65668,-1.02389 1.52998,0.23266 -0.36977,3.66712 -3.48583,6.3019 -4.65745,12.03276 -4.25807,20.82819 0.31617,6.96305 0.73678,8.86209 3.34115,15.08488 5.03461,12.02956 8.89048,31.5089 10.78874,54.50323 1.34223,16.25885 0.53848,50.98887 -1.63096,70.4749 -3.34524,30.04705 -0.86333,58.95908 7.87912,91.78473 3.30188,12.39772 9.07913,29.30645 13.63851,39.91691 7.73866,18.00916 12.36721,29.1929 18.02076,43.54269 3.16277,8.02773 5.98747,14.86268 6.27711,15.18878 0.28963,0.32611 0.95623,-3.23339 1.48132,-7.91 3.89662,-34.70414 23.50727,-67.98117 55.60863,-94.3615 10.97443,-9.01859 11.57592,-9.6913 16.30372,-18.23403 5.68234,-10.26753 10.11204,-21.15177 18.43443,-45.29534 10.04869,-29.15163 14.17164,-39.3249 22.19148,-54.7569 10.88388,-20.94307 15.59279,-36.93191 17.49076,-59.38887 2.02362,-23.94372 -2.48013,-48.79017 -12.30699,-67.89563 -1.79013,-3.4804 -3.37666,-6.59497 -3.5256,-6.92126 -0.14894,-0.32628 0.445,-0.59325 1.31985,-0.59325 2.95077,0 10.35127,14.10242 13.99029,26.65991 3.56221,12.29243 4.61297,20.72993 4.60971,37.01566 -0.006,27.03342 -4.00599,43.25975 -17.64932,71.58557 -19.16834,39.79662 -28.00886,62.54919 -30.2048,77.73708 -0.84707,5.85858 -0.69003,8.87454 0.39703,7.62509 1.02487,-1.17798 14.76073,-27.09325 22.61935,-42.67568 14.54445,-28.83935 23.02778,-49.53215 29.68224,-72.40181 3.55661,-12.22312 7.81054,-31.84739 8.73325,-40.28825 0.96544,-8.8317 -2.13343,-57.83398 -4.0393,-63.87332 -0.35902,-1.13763 0.0557,-1.38425 2.32805,-1.38425 2.75486,0 2.76641,0.0151 3.18407,4.15276 0.23057,2.28401 0.63284,13.76341 0.89395,25.50977 0.26112,11.74637 0.92807,24.38019 1.4821,28.07518 0.87574,5.84052 0.83028,7.80385 -0.34799,15.02901 -5.20195,31.8985 -15.35811,59.09048 -43.87447,117.46898 -16.77718,34.34614 -17.14123,35.23155 -17.90573,43.54806 -1.33765,14.55144 -5.34372,25.97849 -19.25779,54.93154 -10.6341,22.12794 -14.80003,32.49116 -17.1707,42.71404 -0.85755,3.69793 -2.76712,10.46099 -4.2435,15.02902 -5.28525,16.35301 -7.1528,27.38293 -9.44199,55.76555 -3.18406,39.47767 -6.17468,50.63399 -18.28846,68.22382 -2.77139,4.02422 -7.35594,10.67344 -10.18787,14.77603 -8.02515,11.62597 -12.15686,21.80776 -8.84945,21.80776 2.22406,0 14.42424,-6.55973 19.98758,-10.74682 7.02829,-5.28964 12.60732,-11.30377 17.86728,-19.2607 8.20796,-12.41648 12.23539,-23.90934 14.51849,-41.43067 0.43826,-3.36337 0.64266,-3.68638 1.75199,-2.7685 2.32612,1.9247 4.13379,7.20566 4.15175,12.12903 0.0251,6.87754 -2.5023,15.09748 -8.42068,27.38685 -2.85843,5.93546 -5.05392,11.2214 -4.87887,11.74654 0.38069,1.1421 6.29551,-3.41483 12.42227,-9.57043 12.43571,-12.49425 19.87867,-29.35186 19.87867,-45.02334 0,-5.4569 0.0528,-5.60841 1.77976,-5.10966 5.66846,1.63705 8.81834,6.62337 8.14136,12.88792 -0.99458,9.20339 -9.18667,23.38885 -18.99893,32.89857 -17.47759,16.93875 -22.44451,20.82788 -39.99179,31.31388 -20.9031,12.4914 -28.25242,18.25182 -35.33456,27.69535 -6.10365,8.1388 -8.93007,14.91558 -12.86631,30.84903 -2.63631,10.67152 -7.77338,20.5192 -12.13805,23.26844 -3.03221,1.90994 -4.83958,2.06417 -7.64649,0.6525 z m 8.80012,-72.30654 c 3.93112,-6.56981 9.5894,-20.33642 11.40698,-27.75321 1.369,-5.58634 1.368,-5.6071 -0.33763,-6.98824 -0.9409,-0.76189 -2.07183,-1.50563 -2.51319,-1.65274 -0.44136,-0.14712 1.4583,-2.58454 4.22147,-5.41648 10.15113,-10.40379 14.92385,-26.56903 11.13683,-37.72046 -1.70709,-5.02675 -1.09696,-14.59296 1.39773,-21.91538 1.73313,-5.08707 3.84691,-7.83642 5.07821,-6.60514 1.00022,1.00023 2.08568,14.5058 1.67016,20.78062 -0.23046,3.4804 -1.6639,11.84523 -3.1854,18.58852 -3.52198,15.60938 -4.04836,19.80754 -2.91433,23.2437 1.23225,3.73373 4.21615,4.75721 9.38996,3.22075 7.30733,-2.17004 8.16501,-4.48962 8.76166,-23.69595 0.28731,-9.24857 0.77111,-15.0051 1.25788,-14.96683 1.28344,0.10089 5.79799,8.16674 7.12394,12.72786 0.72318,2.48763 1.67713,4.21647 2.3266,4.21647 2.41693,0 5.14274,-13.75559 6.74002,-34.01303 2.21774,-28.12659 4.19836,-40.91712 9.50883,-61.40669 6.36138,-24.54436 14.58516,-46.88015 27.92042,-75.83195 9.75634,-21.18172 14.06908,-31.44426 13.46264,-32.03554 -0.2231,-0.21752 -2.17905,1.56223 -4.34658,3.95501 -13.51543,14.92 -26.81999,34.133 -42.99837,62.09356 -5.53798,9.57111 -13.26554,22.91925 -17.17236,29.66253 -6.91587,11.93699 -19.83286,32.01024 -21.10382,32.79573 -0.34804,0.2151 -4.47636,-11.08038 -9.17405,-25.10108 -4.69768,-14.02069 -10.10448,-29.40762 -12.0151,-34.19318 -6.39811,-16.02543 -13.86792,-27.72581 -20.99858,-32.89123 -4.48212,-3.24683 -5.32216,-3.03775 -5.32216,1.3247 0,9.33771 -4.23015,23.89924 -14.21134,48.9199 -10.01673,25.10978 -12.32827,34.95361 -11.667,49.68457 0.31012,6.90829 0.18251,9.15861 -0.49697,8.76415 -7.6838,-4.46067 -17.69971,-13.92428 -33.34474,-31.50604 -16.89014,-18.98099 -25.69955,-26.82276 -35.99105,-32.03769 -2.39277,-1.21248 -7.37608,-4.40279 -11.07401,-7.08957 -11.19367,-8.13293 -17.39458,-12.1634 -17.91414,-11.64383 -0.87929,0.87928 2.12172,4.5758 12.09393,14.89677 15.63593,16.18277 21.77532,26.7284 38.61436,66.32785 9.03937,21.25739 18.29561,40.34104 19.56682,40.34104 0.34985,0 0.63609,-2.41245 0.63609,-5.361 0,-9.74708 3.57521,-11.27836 7.34561,-3.14616 2.79543,6.02934 3.88244,11.316 3.62012,17.60637 -0.20851,5.00001 0.0132,5.96328 2.27555,9.88751 4.91268,8.52135 12.90182,16.60832 16.40742,16.60832 0.96038,0 2.42422,-0.74868 3.25298,-1.66373 1.3443,-1.48425 1.56055,-3.46811 2.00468,-18.39077 0.49401,-16.59903 1.01477,-20.67141 3.90913,-30.56955 1.55897,-5.33136 4.14582,-10.28302 5.37207,-10.28302 2.4681,0 2.47468,2.36657 0.0453,16.31287 -3.37712,19.38732 -3.96736,34.33875 -1.656,41.94841 2.20935,7.27381 5.56305,10.47566 12.23447,11.68051 5.38873,0.97319 5.98881,0.35996 5.97361,-6.10452 -0.0143,-6.07142 1.57583,-11.98387 4.29814,-15.98172 1.9624,-2.88187 4.65418,-5.155 5.49158,-4.63745 1.08235,0.66892 0.61053,6.08385 -0.91514,10.50287 -1.3411,3.88439 -1.37597,4.67844 -0.37433,8.52398 1.20263,4.61724 2.97144,7.78709 4.96909,8.90502 1.14022,0.6381 1.09659,0.91023 -0.40921,2.55244 -5.04488,5.50183 -7.70372,16.684 -7.28513,30.63873 0.19898,6.63357 0.60962,9.71806 1.42447,10.69966 1.36799,1.64794 1.51333,1.49529 6.48184,-6.80824 z m -21.29088,5.75412 c 3.35106,-1.27407 7.73165,-16.89611 7.73165,-27.57259 0,-4.35096 -0.33873,-5.54379 -2.44267,-8.60175 -6.1165,-8.89004 -12.82686,-6.97757 -17.00778,4.84725 -1.94863,5.51127 -2.01801,21.67869 -0.11086,25.8322 2.43208,5.29671 6.89654,7.37045 11.82966,5.49489 z m 47.70172,-20.64858 c 4.67473,-5.81131 7.51567,-11.06676 9.38115,-17.35417 1.40501,-4.73546 1.01093,-5.55363 -2.68217,-5.56869 -4.42386,-0.018 -10.09867,5.19291 -14.98068,13.75614 -4.29767,7.53826 -9.31028,21.8572 -8.25133,23.57061 0.66175,1.07073 12.10388,-8.89788 16.53303,-14.40389 z m -65.78066,10.87626 c 0.89406,-3.33617 0.50141,-12.61423 -0.74,-17.48559 -1.90945,-7.49276 -6.95683,-17.23098 -11.5171,-22.22065 -3.50883,-3.83921 -4.43823,-4.44084 -6.54329,-4.23568 -1.70828,0.16649 -2.36823,0.59954 -2.17262,1.42563 7.44713,31.45099 10.79797,39.97389 16.89815,42.98055 3.36371,1.6579 3.51063,1.64116 4.07486,-0.46426 z M 491.87268,527.78091 c -19.21799,-25.16912 -34.50385,-38.4 -49.93829,-43.22476 -6.94561,-2.17118 -14.53061,-3.31651 -14.11873,-2.13193 0.15192,0.43694 10.4208,8.33511 22.81974,17.5515 21.42881,15.9285 34.46911,26.14839 42.99734,33.69773 2.11355,1.87095 4.17891,3.40171 4.58971,3.40171 0.41079,0 -2.4466,-4.18241 -6.34977,-9.29425 z m 119.96792,0 c 0.84191,-1.19639 2.61056,-4.36525 3.93032,-7.0419 1.31977,-2.67665 3.38604,-6.5921 4.59171,-8.70101 13.72926,-24.0145 28.34062,-46.61051 47.61829,-73.64019 6.59344,-9.24482 11.70004,-16.80876 11.34799,-16.80876 -0.35205,0 -1.31817,0.76236 -2.14693,1.69413 -0.82877,0.93178 -8.44788,7.94467 -16.93137,15.5842 -17.92297,16.13998 -24.37514,22.62954 -31.18744,31.36822 -9.2408,11.85389 -14.62456,22.51638 -18.226,36.0964 -4.62849,17.45277 -4.10213,28.70406 1.00343,21.44891 z"
         id="path2758"
         inkscape:connector-curvature="0"
         transform="matrix(0,-0.00122549,-9.4696972e-4,0,1.4344512,1.3877455)" /><path
         style="fill:#002b00;fill-opacity:1;stroke:none;stroke-width:0.79100078;stroke-miterlimit:4;stroke-dasharray:none"
         d="m 492.12141,531.47096 c -0.96332,-1.55868 -23.369,-19.08427 -43.28942,-33.86073 -10.78051,-7.99671 -19.45747,-14.68293 -19.28213,-14.85827 0.62816,-0.62816 11.32263,1.9943 16.17734,3.96695 7.24518,2.94398 15.20645,8.54046 23.7211,16.67506 9.41976,8.99931 25.98411,28.93519 24.04171,28.93519 -0.46101,0 -1.07688,-0.38619 -1.3686,-0.8582 z"
         id="path2760"
         inkscape:connector-curvature="0"
         transform="matrix(0,-0.00122549,-9.4696972e-4,0,1.4344512,1.3877455)" /><path
         style="fill:#002b00;fill-opacity:1;stroke:none;stroke-width:0.79100078;stroke-miterlimit:4;stroke-dasharray:none"
         d="m 608.44785,527.60771 c -0.64038,-2.01769 0.74745,-11.91439 2.7958,-19.937 4.37363,-17.12982 12.84573,-31.96371 26.59446,-46.56451 5.11806,-5.43525 36.65052,-34.39423 36.65052,-33.65934 0,0.18999 -4.87224,7.22555 -10.8272,15.63458 -18.84482,26.61087 -38.17993,57.16193 -47.47204,75.00971 -6.1383,11.79012 -6.7725,12.56973 -7.74154,9.51656 z"
         id="path2762"
         inkscape:connector-curvature="0"
         transform="matrix(0,-0.00122549,-9.4696972e-4,0,1.4344512,1.3877455)" /></g></g></svg>