<?xml version="1.0" encoding="UTF-8" standalone="no"?>
<!-- Created with Inkscape (http://www.inkscape.org/) -->

<svg
   xmlns:dc="http://purl.org/dc/elements/1.1/"
   xmlns:cc="http://creativecommons.org/ns#"
   xmlns:rdf="http://www.w3.org/1999/02/22-rdf-syntax-ns#"
   xmlns:svg="http://www.w3.org/2000/svg"
   xmlns="http://www.w3.org/2000/svg"
   xmlns:sodipodi="http://sodipodi.sourceforge.net/DTD/sodipodi-0.dtd"
   xmlns:inkscape="http://www.inkscape.org/namespaces/inkscape"
   version="1.1"
   id="svg834"
   xml:space="preserve"
   width="548.17035"
   height="491.78836"
   viewBox="0 0 548.17035 491.78836"
   sodipodi:docname="3.svg"
   inkscape:version="0.92.2 5c3e80d, 2017-08-06"><metadata
     id="metadata840"><rdf:RDF><cc:Work
         rdf:about=""><dc:format>image/svg+xml</dc:format><dc:type
           rdf:resource="http://purl.org/dc/dcmitype/StillImage" /><dc:title></dc:title></cc:Work></rdf:RDF></metadata><defs
     id="defs838" /><sodipodi:namedview
     pagecolor="#ffffff"
     bordercolor="#666666"
     borderopacity="1"
     objecttolerance="10"
     gridtolerance="10"
     guidetolerance="10"
     inkscape:pageopacity="0"
     inkscape:pageshadow="2"
     inkscape:window-width="1423"
     inkscape:window-height="821"
     id="namedview836"
     showgrid="false"
     fit-margin-top="0"
     fit-margin-left="0"
     fit-margin-right="0"
     fit-margin-bottom="0"
     inkscape:zoom="1.2159091"
     inkscape:cx="232.16553"
     inkscape:cy="235.73824"
     inkscape:window-x="0"
     inkscape:window-y="0"
     inkscape:window-maximized="0"
     inkscape:current-layer="g844" /><g
     id="g842"
     inkscape:groupmode="layer"
     inkscape:label="Hibiscus_Salvia_Firewheel"
     transform="matrix(0,-1.3333333,-1.3333333,0,653.85375,907.35715)"><g
       id="g844"
       transform="matrix(792,0,0,612,4.934583,-4.9345776)"><path
         style="fill:#ffaacc;fill-opacity:1;stroke:none;stroke-width:1.64485979;stroke-miterlimit:4;stroke-dasharray:none"
         d=""
         id="path851"
         inkscape:connector-curvature="0"
         transform="matrix(0,-0.00122549,-9.4696972e-4,0,0.99376949,1.0080631)" /><path
         style="fill:#ffd5e5;fill-opacity:1;stroke:none;stroke-width:1.64485979;stroke-miterlimit:4;stroke-dasharray:none"
         d="m 464.02092,637.76648 c -5.26521,-1.74148 -12.61491,-5.17931 -16.33267,-7.63961 -6.71695,-4.44505 -6.80697,-4.45627 -14.27737,-1.77908 -10.94501,3.92239 -24.56336,3.27969 -47.81686,-2.25668 -11.30841,-2.69239 -23.56507,-4.9041 -27.23702,-4.91492 -3.67195,-0.0115 -8.11308,-1.1064 -9.86916,-2.43464 -1.75609,-1.32822 -5.27706,-2.43851 -7.82438,-2.46729 -2.54733,-0.0288 -6.21886,-0.90183 -8.15894,-1.94013 -1.94008,-1.0383 -7.78953,-1.99758 -12.99876,-2.13174 -11.95341,-0.30783 -14.90344,-2.90694 -25.10707,-22.12045 -5.21105,-9.81244 -9.2547,-15.31093 -12.79997,-17.40517 -2.85036,-1.68376 -13.82958,-11.45829 -24.39827,-21.72118 -17.05582,-16.56234 -19.3167,-19.41211 -20.11345,-25.35229 -0.60742,-4.52862 -3.25502,-9.7077 -8.18872,-16.01822 -14.96473,-19.14085 -14.834,-20.87934 1.6677,-22.17721 33.61677,-2.64402 72.95018,-25.3605 117.46975,-67.84307 6.0308,-5.75485 12.69248,-10.83137 14.80374,-11.28114 2.11126,-0.44977 11.24053,-1.07299 20.28726,-1.38494 16.81695,-0.57986 28.0356,-3.9313 29.96173,-8.95073 1.53289,-3.99468 -1.04075,-4.47848 -9.02712,-1.69692 -8.59824,2.99466 -34.54352,7.05978 -35.96784,5.63547 -1.65619,-1.6562 12.6304,-9.49246 23.33255,-12.79801 10.70475,-3.30637 14.79699,-7.13616 12.90198,-12.07453 -3.36099,-8.75858 -29.22412,6.39607 -57.38822,33.62696 -50.25241,48.58732 -95.55102,73.25439 -128.5447,69.99819 -28.67353,-2.82985 -45.16832,-15.80906 -53.30158,-41.94126 -4.29203,-13.79032 -4.04782,-21.91466 1.73413,-57.69089 2.70486,-16.73645 4.92167,-33.05757 4.92625,-36.26916 0.005,-3.21159 0.67797,-6.54243 1.49642,-7.40187 0.81845,-0.85944 3.04327,-9.27349 4.94405,-18.69789 1.90078,-9.42441 4.89306,-19.41693 6.64952,-22.20561 1.75645,-2.78868 6.66199,-11.36192 10.90119,-19.05164 15.36887,-27.87842 18.69906,-31.02657 41.61171,-39.3371 7.57981,-2.74923 16.09769,-6.36521 18.92863,-8.0355 l 5.14716,-3.0369 0.10593,12.67771 c 0.14665,17.55241 5.32216,27.58471 23.70803,45.95609 10.31024,10.30212 17.45509,15.78256 27.15121,20.82626 12.6576,6.58419 34.65318,14.11571 47.05129,16.11088 4.6291,0.74494 8.77834,3.83482 18.91589,14.08643 7.9884,8.07825 15.04341,13.71981 18.33188,14.6591 8.55915,2.44478 6.64736,-1.54467 -5.34579,-11.15539 -5.88038,-4.71222 -10.69159,-9.31222 -10.69159,-10.22217 0,-1.97063 3.98189,0.0201 16.09513,8.0469 6.48804,4.29925 9.16714,5.28666 10.56135,3.89244 1.3942,-1.3942 0.34128,-3.30804 -4.15077,-7.54457 -8.74203,-8.24482 -20.47645,-13.19162 -47.27679,-19.93021 -52.07974,-13.09476 -84.1504,-40.57866 -89.39159,-76.60678 -0.97953,-6.73328 -0.51952,-8.39723 4.30874,-15.58581 16.13505,-24.02276 78.50473,-55.46694 137.24367,-69.19253 18.01632,-4.20989 21.84998,-4.53361 50.7411,-4.28462 31.77483,0.27384 52.32896,2.0494 71.5514,6.18094 8.34105,1.79276 9.07733,2.15461 3.34902,1.6459 -26.1009,-2.31791 -59.84952,18.33599 -72.48938,44.36295 -7.15184,14.7265 -8.51173,27.63378 -7.45188,70.72897 0.51172,20.80748 0.49825,36.90654 -0.0299,35.7757 -1.57932,-3.38122 -4.6818,-2.36552 -10.04857,3.28972 -6.4501,6.79683 -9.98446,13.83217 -11.40185,22.69606 -1.47631,9.23233 0.7907,7.71087 8.16872,-5.48224 3.17058,-5.66955 7.30163,-11.69918 9.18009,-13.39916 3.36247,-3.04299 3.41539,-3.03272 3.41539,0.66249 0,2.06436 -2.95027,9.09796 -6.55617,15.63023 -3.60589,6.53228 -6.10271,12.33033 -5.54847,12.88456 2.64585,2.64586 10.98015,-4.53478 14.70391,-12.66853 6.63662,-14.49628 7.49276,-23.40342 6.27707,-65.30412 -1.06013,-36.53849 -0.92364,-39.47912 2.32987,-50.19061 6.09209,-20.05683 20.71374,-37.17133 39.2481,-45.93948 12.17678,-5.76054 23.54025,-6.76304 38.57973,-3.40356 46.91689,10.48021 96.53689,52.65679 122.93457,104.49338 7.74365,15.20607 14.02942,31.21702 16.72319,42.59696 1.90294,8.03894 -1.4485,8.29118 -16.47441,1.23995 -30.13944,-14.14356 -67.24126,-7.95789 -105.6271,17.61031 -7.51065,5.00271 -18.65319,13.5129 -24.76123,18.91152 -14.05622,12.42364 -21.148,14.68626 -39.29462,12.53685 -10.22117,-1.21066 -13.90492,-1.05228 -17.33588,0.74539 -3.98742,2.08922 -4.10551,2.42332 -1.39315,3.94123 1.62996,0.91217 7.20274,1.27411 12.38395,0.80429 8.36902,-0.75887 15.24402,0.62261 13.1088,2.63411 -0.42614,0.40144 -6.69057,1.94278 -13.92096,3.42519 -14.97694,3.07062 -20.62924,6.63546 -13.39847,8.45027 14.41019,3.61672 35.52537,-5.33588 65.68007,-27.84764 39.58313,-29.5505 64.30205,-40.81986 89.38346,-40.74997 7.40218,0.0206 16.66008,0.8996 20.5731,1.95327 27.11703,7.30186 46.7128,30.07164 55.86138,64.90944 7.21349,27.46904 3.73538,74.67386 -6.72637,91.28972 -2.5632,4.07103 -8.38043,15.04181 -12.92715,24.37954 -9.07719,18.64205 -15.61063,28.25597 -19.20219,28.25597 -1.28318,0 -4.84591,3.88598 -7.91717,8.63552 -8.83168,13.65765 -15.29491,18.67731 -37.79886,26.52911 -3.11896,1.08823 -6.54605,2.23086 -10.33027,3.45843 -12.58059,4.08102 -23.05886,7.42297 -23.28503,7.42654 -0.22617,0.003 -0.41121,-2.83587 -0.41121,-6.30985 0,-9.73764 -5.91425,-30.61834 -11.86805,-41.90101 -7.76408,-14.71327 -25.12885,-31.12096 -45.82049,-43.29511 -9.43393,-5.55055 -24.55446,-14.42207 -33.60118,-19.71449 -9.04673,-5.29241 -19.52289,-12.77347 -23.28036,-16.62454 -7.07793,-7.25426 -12.07951,-18.61804 -12.09028,-27.46957 -0.008,-6.75146 -5.62799,-15.74437 -9.83883,-15.74437 -4.57057,0 -4.24635,4.67645 0.79825,11.51402 4.59345,6.22607 5.57099,14.80373 1.6871,14.80373 -2.7859,0 -6.51448,-6.57057 -8.21923,-14.48409 -1.63251,-7.57806 -6.44519,-6.56715 -7.12211,1.49603 -0.41276,4.91667 0.71627,7.38265 6.77151,14.79006 12.31672,15.06709 25.27842,24.91226 60.34067,45.83224 28.97327,17.28698 42.91088,26.91315 50.47317,34.85988 7.70574,8.09748 16.63616,23.78975 20.31555,35.69785 3.44822,11.15993 4.35463,29.19639 1.51482,30.14299 -0.94333,0.31445 -10.01062,10.5537 -20.14954,22.7539 l -18.43437,22.18217 -19.00474,9.61985 c -17.88316,9.05214 -19.82459,9.65997 -32.8972,10.29936 -10.69323,0.52301 -16.09699,-0.0497 -23.46555,-2.48683 z m -52.59489,-60.60995 c 2.59566,-12.23887 0.99537,-65.76406 -2.71104,-90.67656 -5.14849,-34.60545 -12.49982,-57.77204 -18.33249,-57.77204 -0.70459,0 1.27927,7.58692 4.40862,16.85982 11.64128,34.4956 13.01301,44.5897 12.7411,93.75701 -0.22919,41.4456 0.86752,52.10111 3.89381,37.83177 z m 110.76371,-5.70676 c -6.83576,-34.9542 -32.78539,-74.48204 -81.56047,-124.23716 -9.97599,-10.17644 -14.38331,-13.5701 -17.62336,-13.5701 -7.18396,0 -6.64671,2.79896 1.61968,8.43818 11.78131,8.03707 32.10396,29.47288 51.37963,54.19394 22.25336,28.53991 25.96334,34.87966 37.14505,63.4746 5.11623,13.08376 9.69769,23.39323 10.181,22.90992 0.48331,-0.48331 -0.0304,-5.52754 -1.14153,-11.20938 z M 371.25258,555.23915 c 0.75312,-3.0987 1.48661,-18.2172 1.62999,-33.59664 0.1974,-21.17135 -0.30615,-29.16107 -2.07332,-32.89719 l -2.33406,-4.93458 -0.43592,4.93458 c -1.36019,15.39705 -1.16835,73.13277 0.24145,72.66249 0.88141,-0.29404 2.21875,-3.06994 2.97186,-6.16866 z m -34.81533,-20.77326 c 4.24807,-17.79952 3.38565,-40.7968 -1.35225,-36.05891 -1.03743,1.03743 -2.97658,16.3264 -6.18068,48.73086 -1.01453,10.26052 -0.95361,10.51227 1.51138,6.24394 1.41269,-2.44622 4.1224,-10.95837 6.02155,-18.91589 z m 119.8888,-9.95142 c -8.75875,-21.60428 -16.07962,-35.86705 -17.61959,-34.32707 -2.38335,2.38335 16.21169,49.20937 22.14508,55.76568 5.30714,5.86434 3.96401,-0.49847 -4.52549,-21.43861 z M 318.2404,508.07114 c 1.87198,-9.01727 0.88496,-23.43797 -1.6042,-23.43797 -2.01839,0 -5.06717,17.43852 -5.00856,28.64816 0.0471,9.01597 0.28417,9.69982 2.39558,6.91122 1.28879,-1.70215 3.18653,-7.15678 4.21718,-12.12141 z m 308.14405,2.17743 c -1.1261,-2.93456 -14.17017,-9.16682 -21.766,-10.39945 -8.39229,-1.36187 -5.31156,2.18272 6.93073,7.97435 11.14414,5.27209 16.24793,6.10641 14.83527,2.4251 z m 29.06154,-15.56883 c -8.99805,-16.81298 -65.11502,-38.44651 -105.77721,-40.77792 -9.72523,-0.5576 -17.68224,-0.56137 -17.68224,-0.008 0,1.52849 10.55128,4.00685 28.78505,6.76125 32.08715,4.8471 61.15696,15.12894 81.88734,28.96308 13.20399,8.81153 15.2211,9.61005 12.78706,5.06198 z m 3.19476,-47.69093 c 0,-4.97929 -56.36971,-21.53579 -73.40187,-21.55906 -9.8157,-0.0132 -18.71028,1.52736 -18.71028,3.24113 0,0.65812 6.10654,1.67754 13.57009,2.26538 15.30011,1.20506 42.02224,6.99579 60.4486,13.09932 13.42127,4.44564 18.09346,5.20825 18.09346,2.95323 z m -416.66954,-6.08496 c 28.01697,-5.65194 53.33602,-13.98121 73.05883,-24.03435 15.10945,-7.70161 21.05242,-11.90365 19.30575,-13.65033 -0.40501,-0.405 -6.32669,2.19296 -13.15928,5.77326 -33.98681,17.80913 -81.57754,31.22952 -110.74455,31.22952 -9.04477,0 -13.55995,1.51178 -10.4338,3.49344 4.07455,2.58286 20.77961,1.46387 41.97305,-2.81154 z m 246.9443,-17.54171 c 0.64018,-3.37571 -4.50624,-3.98908 -7.59065,-0.90467 -3.22707,3.22706 -2.26627,4.85788 2.53547,4.30364 2.71969,-0.3139 4.72594,-1.66285 5.05518,-3.39897 z m -5.68613,-9.86916 c 2.3165,-5.52114 1.05504,-9.45794 -3.03058,-9.45794 -1.3713,0 -1.82207,-1.96964 -1.37638,-6.01409 0.58809,-5.33661 0.36901,-5.77028 -1.94492,-3.84989 -2.23477,1.85469 -3.51794,1.27529 -8.9734,-4.05182 -7.5851,-7.40667 -9.21151,-11.77765 -4.81059,-12.92853 3.46612,-0.9064 3.82001,-2.41868 1.41649,-6.05287 -1.39515,-2.1095 -2.04744,-1.93685 -4.49818,1.19055 -2.10105,2.68117 -3.52518,3.23687 -5.33369,2.08126 -1.35701,-0.86712 -4.13271,-1.58792 -6.16822,-1.60177 -2.5582,-0.0174 -3.70094,-1.01098 -3.70094,-3.21782 0,-4.34815 3.372,-6.12056 5.25227,-2.76072 2.13013,3.80634 4.61689,1.73969 4.61689,-3.83689 0,-2.71021 1.07645,-5.07459 2.57154,-5.64832 1.41435,-0.54274 2.11085,-1.7322 1.5478,-2.64327 -2.01793,-3.26505 -5.9616,-1.56469 -8.08529,3.48608 -1.30222,3.09706 -2.61775,4.40557 -3.30739,3.28972 -1.43404,-2.32032 -8.36345,-2.40304 -12.57311,-0.15018 -4.40382,2.35686 -3.97818,6.22915 0.93056,8.46572 4.10664,1.87111 5.57797,4.63529 2.46729,4.63529 -4.46584,0 -0.3428,6.11051 12.33645,18.28312 7.68972,7.38242 13.98131,14.34024 13.98131,15.46179 0,3.25622 4.44198,6.33566 5.401,3.74431 0.4661,-1.2595 1.5194,-0.28272 2.58652,2.39864 2.54636,6.39819 7.83569,5.99143 10.69457,-0.82243 z m 9.43473,-1.31617 c 3.78626,-2.02633 2.68198,-4.85205 -1.89614,-4.85205 -1.75596,0 -3.19264,0.30956 -3.19264,0.68789 0,0.37835 -0.44928,1.85873 -0.99842,3.28972 -1.15406,3.00748 1.41264,3.37618 6.0872,0.87444 z m -52.48726,-17.19546 c 1.03223,-2.2655 1.32594,-4.66994 0.65268,-5.34319 -1.41932,-1.41934 -5.88972,4.12863 -5.88972,7.30939 0,3.61767 3.24857,2.39802 5.23704,-1.9662 z m 7.62503,-0.42107 c 0.64516,-4.52201 -2.25823,-4.84061 -4.5799,-0.50253 -2.37358,4.43508 -2.14202,5.36765 1.17578,4.7353 1.58317,-0.30175 3.11503,-2.20648 3.40412,-4.23277 z m -11.49889,-5.87378 c 0.44466,-2.33195 -0.29056,-2.88906 -3.25611,-2.46728 -2.12798,0.30265 -4.08575,1.88354 -4.40482,3.55687 -0.44466,2.33195 0.29056,2.88907 3.25611,2.46729 2.12797,-0.30265 4.08575,-1.88354 4.40482,-3.55688 z m 102.27413,-0.58543 c 16.91259,-3.9542 22.1114,-4.42065 49.33466,-4.4264 29.16083,-0.007 42.50449,1.47631 74.4536,8.27177 3.52458,0.74967 4.34242,0.43384 3.63697,-1.40452 -1.02384,-2.66807 -23.31513,-8.73224 -41.08123,-11.17582 -15.61235,-2.14734 -49.98415,-2.04957 -73.09987,0.20795 -14.75258,1.44075 -20.7628,2.78919 -26.82536,6.01842 -6.96995,3.71257 -10.01873,6.92855 -6.56831,6.92855 0.68463,0 9.75192,-1.98898 20.14954,-4.41995 z m -258.12841,-1.25016 c 18.85822,-2.51075 37.59735,-6.83951 40.0911,-9.26109 2.93144,-2.84659 -10.60582,-1.57336 -29.23284,2.74947 -15.33576,3.55901 -21.66031,4.19519 -38.12417,3.83481 -25.04909,-0.54834 -30.4299,-0.25173 -30.4299,1.67736 0,3.428 34.9124,4.03278 57.69581,0.99945 z m 150.87241,-4.52802 c 3.3689,-3.36891 2.1865,-5.74379 -2.93216,-5.88932 -5.72005,-0.16268 -7.7228,2.07069 -4.90338,5.4679 2.41586,2.91093 5.1965,3.06046 7.83554,0.42142 z m -11.49346,-14.37196 c 0.41122,-1.23365 -0.2056,-1.85047 -1.43925,-1.43926 -1.18739,0.39579 -2.48272,1.69112 -2.8785,2.87851 -0.41122,1.23364 0.2056,1.85046 1.43925,1.43925 1.18737,-0.3958 2.4827,-1.69113 2.8785,-2.8785 z m 9.62518,0.60905 c 1.37092,-3.57257 -2.10943,-6.93227 -4.60059,-4.44112 -2.10549,2.10549 -0.80113,7.01898 1.86326,7.01898 0.96146,0 2.19326,-1.16004 2.73733,-2.57786 z m 32.40533,-2.4761 c 4.72917,-3.71997 5.86154,-8.66539 1.7893,-7.8143 -2.87033,0.59986 -10.16617,11.2234 -7.70783,11.2234 0.87151,0 3.53485,-1.53409 5.91853,-3.4091 z m -40.07724,-9.61271 c 0,-1.73395 0.78255,-3.4135 1.739,-3.7323 0.95644,-0.31883 1.23534,-1.89217 0.61977,-3.49632 -0.61558,-1.60415 -1.94244,-2.64223 -2.94856,-2.30686 -2.3181,0.7727 -3.33535,12.68813 -1.08321,12.68813 0.92015,0 1.673,-1.41869 1.673,-3.15265 z m 12.59127,-2.6753 c 0.53572,-1.39603 0.53037,-2.98187 -0.0115,-3.52411 -1.1715,-1.17152 -5.99995,2.54552 -5.99995,4.61888 0,2.48224 4.98775,1.57397 6.01183,-1.09477 z m 7.14705,-2.53341 c 0,-4.00861 -3.84366,-3.44199 -4.64396,0.68459 -0.3148,1.62308 0.52431,2.74219 2.05607,2.74219 1.52582,0 2.58789,-1.40635 2.58789,-3.42678 z m -125.34148,0.69974 c 23.06048,-1.79506 13.34694,-4.40512 -20.64002,-5.54604 l -30.84093,-1.03533 -17.27103,-6.82998 c -9.49906,-3.75648 -23.13381,-10.17425 -30.29945,-14.26168 -15.68693,-8.94818 -20.97046,-9.68294 -11.64447,-1.61938 6.90746,5.97244 30.43013,18.14384 44.41121,22.97983 17.53548,6.06544 40.88848,8.28945 66.28469,6.31258 z m 286.77569,-5.36407 c 16.12734,-4.86976 28.94871,-7.06643 34.33706,-5.88296 4.2013,0.92277 4.90163,0.59235 4.90163,-2.31249 0,-7.21218 -12.56673,-6.70649 -34.75206,1.39843 -23.23262,8.48752 -26.50548,13.44574 -4.48663,6.79702 z m -35.60243,-68.56872 c 14.12388,-10.38766 15.86849,-12.08466 14.57508,-14.17742 -1.48984,-2.41063 -17.50017,7.52477 -28.50782,17.6909 -5.90708,5.45549 -17.14345,15.65743 -24.96968,22.67099 -13.8218,12.38653 -24.62523,25.93685 -26.89969,33.73924 -0.66252,2.27269 9.79205,-7.14568 25.76415,-23.21056 14.78349,-14.86937 32.80057,-31.39029 40.03796,-36.71315 z m -219.58879,52.92845 c 0,-1.98389 -21.71519,-13.18302 -43.43763,-22.40197 -28.26064,-11.99374 -44.64994,-22.08285 -55.50523,-34.16851 -4.20922,-4.68631 -8.11025,-8.52057 -8.66894,-8.52057 -2.78952,0 6.36244,13.37392 14.26911,20.85173 17.79335,16.8282 46.11773,31.71882 79.36138,41.72165 10.15339,3.0551 13.98131,3.74441 13.98131,2.51767 z M 562.51993,311.7787 c 7.23166,-7.60238 30.04594,-22.28536 44.1691,-28.42666 14.88235,-6.47142 16.31363,-7.61607 9.52312,-7.61607 -8.60834,0 -40.84417,17.44907 -51.73963,28.00635 -8.64073,8.37256 -11.57731,13.11515 -8.12082,13.11515 0.73542,0 3.51112,-2.28545 6.16823,-5.07877 z m -83.17099,-11.35456 c 2.44589,-17.8638 9.73691,-40.67987 19.92478,-62.35134 8.86425,-18.85591 8.6515,-18.26206 6.54251,-18.26206 -2.49353,0 -15.28136,21.54076 -17.5318,29.53185 -1.15818,4.11262 -5.1191,15.98964 -8.80203,26.39338 -6.78067,19.15439 -8.27481,30.19111 -4.93269,36.43593 0.97797,1.82736 2.0278,3.0728 2.33294,2.76764 0.30516,-0.30513 1.41498,-6.83707 2.46629,-14.5154 z m -81.49988,0.44728 c -1.64686,-2.51609 -10.1147,-11.97657 -18.81741,-21.0233 -8.7027,-9.04673 -19.59546,-21.25981 -24.20612,-27.14019 -18.52303,-23.62405 -23.42912,-23.12843 -6.37294,0.64381 5.7713,8.04381 15.50932,20.16345 21.64004,26.93252 10.87219,12.00423 28.62229,27.29031 30.04144,25.87116 0.39013,-0.39012 -0.63814,-2.76792 -2.28501,-5.284 z m 102.88797,-1.65906 c 8.42453,-15.94148 29.75471,-46.19536 43.51461,-61.71938 7.8182,-8.82056 13.23993,-16.03738 12.04831,-16.03738 -12.05716,0 -53.43562,55.26026 -61.27499,81.83177 -1.88701,6.39603 1.42843,4.03077 5.71207,-4.07501 z m -82.38122,-15.54043 c -7.25525,-14.26742 -21.24777,-32.78045 -21.24777,-28.11218 0,3.55526 16.93263,33.4876 20.2637,35.82076 4.9217,3.4473 5.26992,0.71954 0.98407,-7.70858 z m -74.24197,-0.22921 c -2.13155,-3.8487 -21.76134,-22.51049 -23.67812,-22.51049 -0.57054,0 0.17068,1.66542 1.64716,3.70094 1.47648,2.03551 3.35756,5.2576 4.18019,7.1602 1.84116,4.25835 14.69057,15.45662 17.73563,15.45662 1.83526,0 1.85537,-0.66513 0.11514,-3.80727 z m 85.71666,-20.91439 c -4.50539,-32.61595 -4.48659,-56.69662 0.0554,-71.02193 1.92404,-6.06832 4.21836,-11.47836 5.09849,-12.02231 2.42206,-1.4969 1.91536,-5.72943 -0.68589,-5.72943 -3.19101,0 -9.06369,13.2183 -12.01124,27.03509 -3.28271,15.38781 -1.98152,49.679 2.5006,65.89949 3.71175,13.43267 6.66989,21.30136 7.64234,20.3289 0.37845,-0.37845 -0.79142,-11.39887 -2.59973,-24.48981 z"
         id="path853"
         inkscape:connector-curvature="0"
         transform="matrix(0,-0.00122549,-9.4696972e-4,0,0.99376949,1.0080631)"
         sodipodi:nodetypes="ccsscccscscssscssccscccsssscsscssccsssscccscccsssssssssccscssccsscssscscsscscccsscsscsscsccscscccssscssssscscssccssscsscsscscsccccccccscccssccsssccssscscssscccscssssssccscscccccscsccccccscsccsccsscscccccssccscsscsccccccccccssscscscscsscccccscccccscccscscccssccsccscsssscsccssscsssscsscsssssssssssscssssscsscscsssscccssscsscsssccsscccsscccc" /><path
         style="fill:#550044;stroke:#000000;stroke-width:0.00107727px;stroke-linecap:butt;stroke-linejoin:miter;stroke-opacity:1"
         d="m 0.68749817,0.55562509 -0.0240207,-0.0244364 -0.0153249,-0.0187116 -0.007786,0.00593 -0.0107384,0.0279503 -0.007786,0.0163505 -0.008617,0.001623 -0.003983,-0.0253948 -8.3e-6,-0.0282386 0.001163,-0.0140659 -0.005009,-0.0163652 -0.007434,-0.0183581 -0.004413,0.004656 c -0.0182973,-0.0174784 -0.006394,-0.0175865 -0.008122,-0.0255349 l 0.0132316,6.0503e-4 0.0141085,-4.6456e-4 0.009366,-0.0167428 0.013948,-0.0393609 0.0108448,0.00129 0.003085,0.013281 0.004371,0.0212443 0.0120465,0.0218343 0.0336866,0.009025 0.003006,0.006955 v 0 l -0.0152358,0.0230445 -0.0141323,0.006692 -0.00186,0.0110086 0.002573,0.0156108 0.00632,0.02732 v 0 z"
         id="path875"
         inkscape:connector-curvature="0"
         sodipodi:nodetypes="cccccccccccccccccccccccccccccccc" /><path
         style="fill:#000000;stroke-width:0.32000452"
         d="M 302.51562,-13.865234 C 217.89554,-13.321206 128.64683,48.095197 51.277344,94.28125 34.107235,117.88961 12.628299,143.52956 9.046875,177.20508 c 1.027915,35.88964 6.690643,-19.78971 11.505859,-28.85547 17.026738,-20.6562 17.91635,-42.75611 40.150391,-54.302735 3.550455,-2.442603 28.824902,-7.83386 41.423825,-19.339844 -3.811047,11.190397 -2.888223,24.858439 1.15625,35.458989 19.95221,38.23068 56.28922,54.96087 90.16016,62.40039 17.26215,-1.12021 23.32264,20.56433 37.77539,28.64062 23.8192,7.15377 1.61035,8.71176 -4.23548,-1.06152 -2.24261,-11.77587 20.98265,3.1672 17.80189,-10.06543 -23.9911,-25.43344 -58.14502,-19.72322 -85.66993,-34.99414 -24.47184,-12.66155 -54.85372,-33.75637 -56.10546,-72.285159 8.09264,-38.414111 147.64783,-96.31318 204.58398,-82.222656 15.24011,-6.1344094 119.26245,14.214196 57.86719,7.7578125 -22.70398,0.7262112 -46.12123,14.8051665 -61.72071,36.5019535 -22.43347,34.044172 -5.42269,81.543499 -11.82421,120.845699 0.0726,12.52649 -25.72718,38.27313 -4.77149,25.85743 21.11604,-26.11457 9.51207,-66.6922 11.07227,-99.69727 -2.28015,-44.475234 31.9694,-73.75375 62.66406,-77.871094 66.17438,2.849922 135.33317,69.79985 156.51367,140.507814 15.14472,39.6603 -18.33901,3.34076 -33.30273,5.87305 -40.10579,-7.27078 -78.22471,15.24599 -111.15235,42.37695 -15.49828,18.47715 -33.2087,14.29048 -52.10547,11.25976 -21.07858,8.73629 9.58278,4.60159 17.16016,5.22461 15.26958,7.516 -18.92999,6.57243 -26.35156,12.11719 0.0406,-0.0177 0.0549,-0.0354 0.11133,-0.0527 0.91917,0.65893 -0.39366,0.4753 -0.30274,0.19531 -0.79359,0.64553 -1.24761,1.37266 -1.21289,2.21289 20.28217,4.96457 41.44045,-7.44058 58.95703,-20.60742 33.97943,-26.10358 70.93151,-53.63754 112.16016,-47.22656 16.31029,2.16691 33.23577,11.58872 43.26172,24.44531 27.34399,31.46853 30.30105,87.90428 17.29883,129.875 -14.63725,16.56114 -18.49102,44.98931 -35.69336,58.33398 14.05233,4.97133 23.87989,-30.37896 31.97461,-43.8457 13.30022,-14.22717 15.84075,-37.613 16.41211,-58.74219 0.86661,-29.09528 -4.96501,-59.77552 -19.83204,-82.23242 C 515.35091,183.10057 534.1643,154.42242 515.4043,139.35352 508.60596,111.80976 492.22126,89.334991 474.03711,72.816406 464.11259,47.838311 439.20211,45.079985 424.20117,28.308594 401.27802,17.420178 383.87117,3.0897766 360.15625,-3.5820312 341.32424,-10.875147 322.04334,-13.990779 302.51562,-13.865234 Z M 506.22266,378.50781 c -0.31253,-5.08886 -6.77407,4.22076 -7.10938,6.375 -14.09395,28.7816 -52.60292,29.20462 -74.36719,40.65039 1.14905,-14.91407 -2.45686,-29.33119 -7.41406,-42.52929 -17.16452,-38.49448 -53.08513,-51.88878 -82.53906,-69.69727 -18.95788,-11.28082 -36.45099,-20.65643 -36.63867,-49.21289 -4.21301,-17.10394 -20.82718,-14.4421 -5.92188,0.80664 8.60178,15.22984 -0.8628,22.09308 -8.7168,4.4375 -1.73524,-23.49167 -13.04726,-2.15787 -2.20507,7.53516 27.72735,34.54334 65.93291,47.41972 98.84765,71.05468 22.0706,15.02974 40.55904,43.54909 38.82422,77.4336 -15.60975,9.74572 -36.12563,51.26622 -56.83008,54.24414 -26.83938,19.41614 -58.49571,17.33212 -83.89648,-1.92774 -30.97495,16.44509 -58.04595,-6.76202 -88.72461,-4.1875 -8.00339,-6.3658 -12.78796,-6.67887 -13.33789,-4.7539 l -14.51953,-5.17383 c -23.08587,7.00857 -26.10624,-19.39447 -37.9043,-35.50977 C 106.2891,417.51417 91.194311,398.08833 74.486328,382.83789 77.812834,362.69374 51.345637,356.0682 55.841797,338.71484 105.003,340.79115 148.75223,303.87415 187.47266,268.91992 c 14.88082,-24.08746 44.05508,-0.47699 62.75976,-19.78711 1.05105,-8.73375 -8.27498,1.21598 -10.96289,0.71094 -10.22529,1.71706 -54.68016,10.83054 -25.4375,-3.68164 6.61123,-7.88895 33.42418,-4.68632 26.94922,-20.19727 -8.45368,-1.57101 -15.81704,5.63701 -23.19531,10.52735 -22.99521,10.63202 -38.22209,36.3386 -59.43164,50.98828 C 123.11513,314.80088 81.741775,342.9627 39.777344,329.86914 17.280061,325.19613 -0.73338639,300.19099 -1.3632812,270.00195 0.02392035,246.68326 9.5181364,208.62426 9.4785156,187.79883 c -0.1382258,0.0714 -0.2491222,-0.0313 -0.023437,-0.53321 -10.7584267,24.96355 -18.4895946,71.89525 -13.1914062,101.93555 3.85899488,32.08625 30.7627561,44.87316 53.6757811,48.70117 -1.29098,7.26532 6.226119,30.05611 15.132813,29.47071 2.934907,27.05947 26.87513,34.22803 39.486324,52.07812 25.82224,5.70346 23.21391,62.0139 56.375,47.82031 5.76889,1.31647 11.31251,3.53366 17.05664,4.94922 1.99787,1.881 5.64882,3.96754 11.19727,5.45703 29.72088,-1.9272 56.99002,20.43309 86.92188,4.72657 26.67867,20.074 60.9084,19.89605 89.08203,1.03125 6.03071,-1.70423 40.71364,-31.01969 51.19336,-48.2168 -0.10986,6.1907 4.68597,5.76464 7.09375,-0.0801 6.50531,1.98424 18.03226,0.96442 21.54492,-5.4414 22.96376,-6.05802 50.47772,-24.38593 61.19922,-51.18946 z M 9.4550781,187.26562 c 0.00825,-0.0192 0.017133,-0.0395 0.025391,-0.0586 -0.00103,-5e-4 -9.11e-4,-0.001 -0.00195,-0.002 -0.012187,0.0254 -0.01281,0.0369 -0.023437,0.0605 z m 0.025391,-0.0586 c 0.00206,0.19228 -0.00232,0.39646 -0.00195,0.5918 0.1686836,-0.0871 0.3625422,-0.41823 0.00195,-0.5918 z M 311.45117,231.47461 c 0.0598,-0.0486 0.12762,-0.0949 0.19141,-0.14258 -0.1125,0.0489 -0.17619,0.0957 -0.19141,0.14258 z M 306.54102,-0.10546875 c 0.24049,0.07796349 -0.45926,0.60294031 -0.60938,0.125 0.34415,-0.12692064 0.52921,-0.15098783 0.60938,-0.125 z m 73.27929,6.72265625 c 0.2405,0.077961 -0.4573,0.6029324 -0.60742,0.125 0.34415,-0.1269206 0.52726,-0.150987 0.60742,-0.125 z M 272.26367,25.439453 c -2.78717,0.06242 -6.96012,11.359 -8.16015,13.660156 -10.14378,31.388755 -6.20225,70.031191 5.97851,99.378911 -2.15505,-32.43895 -17.15672,-79.262866 3.83594,-111.039067 -0.44202,-1.430807 -1.0111,-2.014405 -1.6543,-2 z m 150.50586,2.787109 c 1.45983,1.013919 -1.17259,1.139424 0,0 z M 424.05273,30 c 1.60916,0.513448 -1.1628,1.049495 0,0 z m -79.69921,41.449219 c -2.63906,0.472463 -19.3091,27.652143 -16.59375,27.441406 -4.56773,19.974765 -24.6479,52.595425 -12.61329,67.615235 0.75652,-34.503 14.62684,-65.71158 29.38282,-93.464844 0.2932,-1.180318 0.20122,-1.659292 -0.17578,-1.591797 z m 49.17968,2.267578 C 380.94954,73.87954 333.18198,140.45007 333.24414,158.80078 350.18871,126.7685 370.51738,97.037439 395.125,74.1875 c -0.4388,-0.326878 -0.97293,-0.478707 -1.5918,-0.470703 z M 176.2793,86.646484 c -0.72549,0.09079 0.96099,3.573978 6.89648,12.794922 16.17475,21.953604 33.98791,45.075514 54.85156,58.000004 -9.75993,-16.89759 -28.79322,-28.49121 -40.35937,-45.53516 -4.41621,-6.66297 -19.67041,-25.474804 -21.38867,-25.259766 z m 59.43945,20.158206 c -0.41199,0.0455 -0.1933,1.12866 0.89453,3.58593 6.21147,8.24472 13.57845,32.63048 22.70313,33.79102 -0.80775,-7.58776 -21.37289,-37.62281 -23.59766,-37.37695 z m -78.25391,5.36719 c -0.32037,0.44132 19.94113,21.04322 13.70118,15.64257 -15.45284,-15.29975 -1.27028,4.25246 11.51562,11.07422 0.82033,-6.69092 -12.45206,-13.76637 -16.29297,-18.72851 -6.42422,-6.04273 -8.81703,-8.13539 -8.92383,-7.98828 z m 261.21289,3.08984 c -4.40172,0.15718 -22.71473,13.52211 -25.62109,16.77344 -16.6495,17.70954 -49.06407,39.10134 -53.67773,59.98046 24.16322,-27.98494 50.20534,-53.91933 79.08007,-73.26757 0.63477,-1.01203 0.97914,-1.76372 1.10352,-2.31641 -0.14631,0.0195 -0.1711,-0.0617 0.043,-0.30078 0.0426,-0.61428 -0.2843,-0.89212 -0.92774,-0.86914 z m 0.92774,0.86914 c -0.006,0.0933 -0.0182,0.19082 -0.043,0.30078 0.35427,-0.0472 1.23772,-0.59293 0.19141,-0.4668 -0.0792,0.0737 -0.0994,0.11129 -0.14844,0.16602 z m -341.294923,0.9082 c 0.117385,0.40549 0.250207,0.81043 0.386719,1.21485 0.52141,0.3412 0.481255,0.55739 0.234375,0.66211 10.920125,30.03912 73.605529,56.87962 106.244139,63.61523 -30.61966,-23.00327 -80.07971,-26.33339 -106.865233,-65.49219 z m 0.621094,1.87696 c -0.08019,-0.2206 -0.1598,-0.44118 -0.234375,-0.66211 -0.03001,-0.0196 -0.04815,-0.0362 -0.08203,-0.0566 -1.755996,0.64389 -0.235486,0.95284 0.316407,0.71875 z m 376.859379,8.46093 c -10.57762,-0.40337 -62.07865,26.63611 -61.74219,40.09766 18.95584,-18.23638 40.83547,-30.99699 63.60937,-39.04688 -0.11563,-0.67449 -0.77295,-1.00905 -1.86718,-1.05078 z m -167.58399,30.39258 c -5.34457,0.0377 -13.60366,13.83845 -15.75586,19.10938 -8.49464,36.8299 7.66299,-12.42453 19.36133,-15.41407 -0.84173,-2.63691 -2.10899,-3.70588 -3.60547,-3.69531 z M 40.119141,168.17969 c -7.564786,0.002 23.389838,19.04331 29.265625,20.08984 30.887724,16.80149 64.814804,16.84239 97.646484,13.0957 -16.98545,-5.68634 -42.99582,-0.30702 -63.43164,-4.14453 -21.557088,-6.45807 -42.883513,-15.98364 -62.625001,-28.98047 -0.326323,-0.0408 -0.611443,-0.0606 -0.855468,-0.0605 z M 471.9082,185.20898 c -3.56712,-0.0361 -7.32429,0.72542 -9.09179,0.91016 -11.28732,3.77087 -24.57376,7.08138 -37.46485,14.73633 12.29076,-1.27565 37.13389,-13.5458 54.74219,-8.62695 0.67326,-5.60855 -3.59925,-6.97314 -8.18555,-7.01954 z M 4.4609375,197.33789 c -0.080164,-0.026 -0.2632739,-0.002 -0.6074219,0.125 0.1501114,0.47794 0.8479149,-0.047 0.6074219,-0.125 z m 255.1835925,1.47266 c -2.25298,0.24371 -4.80919,5.91261 1.97852,4.23047 0.008,-3.33023 -0.95444,-4.34125 -1.97852,-4.23047 z m 18.44531,0.68164 c -1.67957,-0.39477 -6.34962,10.43424 0.15821,5.14843 0.62954,-3.63836 0.40165,-5.01684 -0.15821,-5.14843 z m -6.21093,2.11133 c -2.6467,-0.40528 -10.38721,10.9393 0.5039,3.76757 0.57834,-2.62048 0.23717,-3.6541 -0.5039,-3.76757 z m -13.5293,2.43359 c -1.22478,0.15032 -3.15169,7.18771 0.63281,5.52734 0.33635,-4.24165 -0.0761,-5.59567 -0.63281,-5.52734 z m 34.8457,0.69922 c -3.50505,0.15667 -5.87324,9.0424 2.99024,2.45312 -0.93802,-1.85608 -2.00882,-2.49699 -2.99024,-2.45312 z m -3.38476,4.17969 c -2.34511,-0.51291 -4.58454,14.37817 2.26367,9.76953 -0.41149,-7.00911 -1.34602,-9.56883 -2.26367,-9.76953 z m 12.63281,1.17578 c -0.76235,-0.0243 -1.82745,0.55864 -2.53125,0.69922 -11.11735,13.09239 -5.41386,11.49422 3.24414,2.25 0.50878,-2.29364 0.0495,-2.9249 -0.71289,-2.94922 z m -22.80859,1.61132 c -6.79497,0.0502 -16.3301,4.84399 -4.23047,9.43165 11.10796,9.60041 2.93133,-5.94966 9.14843,-4.89454 1.44783,-3.28899 -1.35869,-4.56342 -4.91796,-4.53711 z m -14.92969,3.88672 c -2.73305,0.0139 -5.41284,8.02795 2.5957,4.81055 -0.44844,-3.59709 -1.52625,-4.81599 -2.5957,-4.81055 z m -8.19336,2.18164 c -1.67757,-0.056 -6.35151,6.43494 0.1543,2.85352 0.63199,-2.0893 0.40489,-2.83484 -0.1543,-2.85352 z m 37.44922,1.75782 c 0.67696,0.32124 -0.58777,1.22707 0,0 z m 6.50195,2.64062 c -3.46159,0.10979 -6.73839,10.8736 3.04688,4.47266 -0.71768,-3.36091 -1.89302,-4.50925 -3.04688,-4.47266 z m -16.14258,2.47852 c -6.77373,-0.0333 -12.63559,3.11491 -8.67773,6.92578 8.68803,4.78326 17.40522,16.73598 27.09375,25.75 5.14749,18.56553 4.62538,-10.00692 8.5332,9.35156 10.59681,10.67627 7.54305,-5.46092 11.01758,-6.17383 1.35064,-6.42628 -10.39214,-2.1775 -5.96289,-7.89257 1.62792,-1.48168 -15.07921,-10.99744 -18.0625,-18.7168 -1.27828,-6.70879 -7.96459,-9.21479 -13.94141,-9.24414 z m -129.95117,3.51367 c -12.61309,-0.10425 -25.96018,5.61854 -38.49609,7.3418 -17.807407,4.56825 -40.672666,-3.54535 -55.214847,1.88671 33.050039,4.99615 66.766837,1.17826 99.068357,-8.79882 -1.76737,-0.28143 -3.55555,-0.4148 -5.35742,-0.42969 z m 114.73047,0.0859 c -0.45285,-0.0289 -0.92005,0.29075 -1.23242,1.17383 -14.42288,-4.61367 -2.89011,12.44224 2.23437,1.83007 0.92453,-1.18518 -0.006,-2.94029 -1.00195,-3.0039 z m 161.22851,1.03515 c -16.81483,-0.0857 -33.65201,1.30858 -50.25585,3.64063 -6.28704,-4.25209 -34.76305,13.96098 -20.61524,10.09179 47.29741,-14.93627 97.48986,-10.64051 144.49024,0.41211 1.95703,-1.87396 -6.96786,-1.99084 -0.83399,-2.5957 -23.68171,-8.13846 -48.20963,-11.42358 -72.78516,-11.54883 z M 273.67383,238 c -12.70927,0.45091 -6.89541,9.65264 0.5,3.00195 z m 3.87305,2.89844 c -2.72949,-0.57076 -7.7422,18.65132 1.17773,2.70117 -0.24595,-1.81241 -0.67228,-2.59548 -1.17773,-2.70117 z m 7.24609,2.14258 c -2.58551,0.44261 -8.51528,11.81796 0.7832,4.30664 0.56937,-3.38609 0.0786,-4.45418 -0.7832,-4.30664 z m 31.49609,1.96875 c -1.81358,-0.13237 -6.20505,6.26543 0.44922,2.91211 0.47267,-2.09828 0.15531,-2.86799 -0.44922,-2.91211 z m -145.36523,9.94726 c -39.61728,22.41751 -82.461966,36.41254 -125.890627,37.48438 -28.239311,2.75721 16.195701,4.46424 22.396485,1.48632 36.063112,-6.38818 73.031802,-15.49319 105.189452,-38.2832 z m 158.27929,4.30274 c -4.89668,-0.26264 -8.36593,10.52918 3.44727,2.3164 -1.11185,-1.60756 -2.31726,-2.2558 -3.44727,-2.3164 z m -8.80664,5.78515 c -0.63661,0.54171 1.1677,0.78598 0,0 z m 3.78516,7.38672 c -4.18955,0.30134 -12.53823,8.92058 1.42188,4.73242 1.22025,-3.69557 0.21751,-4.85033 -1.42188,-4.73242 z m 97.70508,4.8457 c -5.8305,0.0334 -11.59733,0.89129 -17.24024,2.96289 30.64186,1.04935 61.80726,9.63889 91.58204,19.83985 -1.34224,-6.30791 -15.87903,-8.07577 -21.75586,-11.26172 -17.02774,-4.31086 -35.09445,-11.6412 -52.58594,-11.54102 z m -193.91797,3.87305 c 24.01414,62.27464 18.78166,90.60552 18.0332,136.85156 -0.46014,9.02164 -0.38208,13.68967 -0.0176,15.43946 0.0502,-0.0269 0.0825,-0.0538 0.16796,-0.0801 0.63211,0.45314 0.20251,0.50266 -0.10156,0.40234 1.27296,4.45672 5.35373,-20.38825 4.3125,-30.47851 0.16565,-32.19934 -3.09314,-64.1962 -9.48242,-94.85157 -4.1474,-8.10469 -3.85867,-24.9241 -12.91211,-27.2832 z m 18.08203,152.61328 c -0.0242,-0.0846 -0.0443,-0.21624 -0.0664,-0.32226 -0.24603,0.1315 -0.1319,0.25683 0.0664,0.32226 z m 13.72266,-147.93359 c -1.57207,0.0548 -3.02841,0.6109 -4.3418,1.77148 28.50916,17.84809 51.88152,49.56086 74.02539,78.88672 15.1078,18.77063 21.91439,45.54537 31.57227,67.98633 l -0.20118,-4.14649 c -6.41792,-41.77493 -31.74069,-73.43259 -55.10546,-101.42968 -12.7137,-10.69932 -33.1481,-43.51439 -45.94922,-43.06836 z M 361.0293,434.47461 v 0.008 l 0.002,-0.002 c -8.1e-4,-0.002 -0.001,-0.004 -0.002,-0.006 z M 375.61719,304.8125 c -2.14073,-0.0183 -4.28193,0.007 -6.42188,0.0762 13.98526,6.34973 34.51102,5.00081 51.05664,10.57227 25.9333,5.25465 50.66298,16.11568 73.27149,32.93945 -1.98835,-9.73114 -17.55497,-14.20081 -23.37305,-20.24219 -30.2875,-13.14591 -62.42232,-23.0716 -94.5332,-23.3457 z m -220.5,31.13867 c -1.98284,-0.38894 -5.93421,21.84115 -5.09766,27.17969 -2.4533,26.44646 8.56345,-6.88698 6.15625,-16.00977 0.11748,-7.92833 -0.3414,-11.02924 -1.05859,-11.16992 z m 51.54687,0.20899 c -2.7869,10.63561 2.62103,53.90694 -2.43164,75.59961 5.2681,9.09965 7.02088,-36.30344 6.53125,-46.23829 0.19095,-10.2451 -0.58183,-20.23115 -4.09961,-29.36132 z m 69.54883,5.58593 c 4.22598,13.58048 15.45788,49.07075 26.11133,58.81446 0.42522,-4.98717 -4.7126,-10.7801 -5.11719,-15.94922 -6.94946,-14.08831 -11.26318,-31.95655 -20.99414,-42.86524 z m -102.52734,7.25977 c -2.48551,0.70807 -3.32318,35.70004 -5.78907,43.39453 -7.89643,41.65223 10.08337,-13.42297 8.6211,-26.08008 h -0.002 l 0.01,-6.56054 c -1.16404,-7.97552 -2.07897,-10.97067 -2.83984,-10.75391 z m 265.76562,1.88086 c -6.32116,-0.12922 16.9296,13.43681 24.59375,11.69336 -3.44352,-5.26205 -10.14105,-6.4186 -14.9375,-9.0586 -5.16318,-1.8451 -8.19752,-2.60494 -9.65625,-2.63476 z m -45.45898,6.31445 c 0.48752,0.74232 -1.14567,0.81493 0,0 z M 205.98242,410.1582 c -0.004,-0.0981 0.0149,0.0359 0.0801,0.64649 0.15737,2.04098 -0.0676,-0.35216 -0.0801,-0.64649 z"
         transform="matrix(0,-0.00122549,-9.4696972e-4,0,0.85300921,0.80935442)"
         id="path848"
         inkscape:connector-curvature="0"
         sodipodi:nodetypes="sccccccccccccccccccccccccccccccccccccccccscccccccccccccccccccccccccccccccccccccccccccccccccccccccccccscccscccccccccsccsscccscccccccccccccccccccccccccccccccccsccsccccccccccccccccccccccccccccccccsccscccccccccccccccsccccccscccccccccsccccsccccccccccccccccccccccccccccccccccccccccccccccccccccccccccccccccccccccccccccsccsccccc" /></g></g></svg>