<?xml version="1.0" encoding="UTF-8" standalone="no"?>
<!-- Created with Inkscape (http://www.inkscape.org/) -->

<svg
   xmlns:dc="http://purl.org/dc/elements/1.1/"
   xmlns:cc="http://creativecommons.org/ns#"
   xmlns:rdf="http://www.w3.org/1999/02/22-rdf-syntax-ns#"
   xmlns:svg="http://www.w3.org/2000/svg"
   xmlns="http://www.w3.org/2000/svg"
   xmlns:sodipodi="http://sodipodi.sourceforge.net/DTD/sodipodi-0.dtd"
   xmlns:inkscape="http://www.inkscape.org/namespaces/inkscape"
   version="1.1"
   id="svg815"
   xml:space="preserve"
   width="243.01064"
   height="345.16504"
   viewBox="0 0 243.01064 345.16504"
   sodipodi:docname="1.svg"
   inkscape:version="0.92.2 5c3e80d, 2017-08-06"><metadata
     id="metadata821"><rdf:RDF><cc:Work
         rdf:about=""><dc:format>image/svg+xml</dc:format><dc:type
           rdf:resource="http://purl.org/dc/dcmitype/StillImage" /><dc:title></dc:title></cc:Work></rdf:RDF></metadata><defs
     id="defs819" /><sodipodi:namedview
     pagecolor="#ffffff"
     bordercolor="#666666"
     borderopacity="1"
     objecttolerance="10"
     gridtolerance="10"
     guidetolerance="10"
     inkscape:pageopacity="0"
     inkscape:pageshadow="2"
     inkscape:window-width="1325"
     inkscape:window-height="841"
     id="namedview817"
     showgrid="false"
     fit-margin-top="0"
     fit-margin-left="0"
     fit-margin-right="0"
     fit-margin-bottom="0"
     inkscape:zoom="0.60795455"
     inkscape:cx="144.30947"
     inkscape:cy="100.2424"
     inkscape:window-x="0"
     inkscape:window-y="0"
     inkscape:window-maximized="0"
     inkscape:current-layer="g825" /><g
     id="g823"
     inkscape:groupmode="layer"
     inkscape:label="Hibiscus_Salvia_Firewheel"
     transform="matrix(0,-1.3333333,-1.3333333,0,749.69265,345.25909)"><g
       id="g825"
       transform="matrix(792,0,0,612,-5.233912,43.615933)"><path
         style="fill:#000000;stroke-width:0.00034473"
         d="m 0.22924242,0.549666 c -0.0201403,0.006999 -0.0425341,0.0130262 -0.060646,0.0252334 -0.021848,0.0207631 -0.0431355,0.040899 -0.0610838,0.0648772 C 0.09460405,0.6504942 0.08335243,0.6633784 0.06847208,0.6723401 0.05518532,0.6871587 0.03395906,0.6906776 0.01899333,0.699884 -0.0086661,0.7179385 0.01789353,0.7161044 0.02718283,0.703449 0.05033436,0.698276 0.06765467,0.6812677 0.0859108,0.6677712 0.10699925,0.6518016 0.12226549,0.6304163 0.13977318,0.6112191 c 0.0136355,-0.0126359 0.0258576,-0.0278167 0.0422737,-0.0364949 0.0253466,-0.00891 0.0521369,-0.02485 0.0799578,-0.0146327 0.021308,4.7046e-4 0.0388095,0.0126264 0.0487961,0.030868 0.0129976,0.0445394 -7.7106e-4,0.0930399 -0.0348913,0.0901167 -0.0241295,-0.005914 -0.0428702,-0.0273383 -0.0687433,-0.0283318 -0.0130946,-0.002814 -0.0523993,-0.007237 -0.0505568,0.006054 0.0154215,-0.00851 0.0544587,-0.002985 0.0555119,0.003181 -0.0121373,0.003918 -0.0248737,0.0130868 -0.005617,0.007273 0.0223641,-0.0132013 0.0472482,0.0118256 0.0628768,0.0193762 -0.026291,0.010007 -0.055769,0.020823 -0.0834724,0.0125478 -0.0206905,-0.0124867 -0.0419722,-0.0262034 -0.0668551,-0.0272097 0.0195061,0.0113 0.0477813,0.0169466 0.0678501,0.0327734 0.0247529,4.4369e-4 -0.0197934,0.00812 -0.026162,0.0147628 -0.0110729,0.005222 -0.0473175,0.0265806 -0.0189259,0.0156999 0.0150419,-0.00994 0.0308611,-0.0217569 0.0499591,-0.0234754 0.0142012,-0.002072 0.0258294,-0.00627 0.0386615,-0.007088 0.0245419,-0.00827 6.196e-4,0.009262 -0.006647,0.0185793 -0.0207469,0.0197112 -0.0364349,0.0455152 -0.0631497,0.0583021 -0.0157648,0.0175346 0.0249926,-0.006548 0.0301213,-0.0144982 0.0128882,-0.0155867 0.005738,-0.005459 0.00805,0.004481 0.006807,-0.0231956 0.024502,-0.0393064 0.0412063,-0.055854 0.0115422,-0.0150622 0.0355682,-0.0266449 0.0498483,-0.0277195 -0.009357,0.0201493 -0.010062,0.0472194 -0.0208619,0.0642118 -8.3908e-4,0.0128307 -0.0286516,0.0251964 -0.0248195,0.0305657 0.00663,-0.007198 0.0287852,-0.0209962 0.0137611,-0.001089 -6.1615e-4,0.008965 -0.0320159,0.0293301 -0.0171572,0.0234922 0.0137778,-0.0115246 0.0262814,-0.0256333 0.0308646,-0.044368 0.008107,-0.007192 0.00826,-0.0526942 0.0178815,-0.0250985 -0.005248,-0.018013 -0.00314,-0.0443519 0.0129812,-0.0551959 0.004305,0.0335133 0.0352844,0.0544837 0.0261157,0.0912744 1.9683e-4,0.0233216 -0.0133726,0.0409218 -0.0298113,0.0562133 -0.0247674,0.0175388 -0.0542785,0.006889 -0.0807894,0.0102051 C 0.19551561,0.8318002 0.17690301,0.8211109 0.15501641,0.8104196 0.13284601,0.8038139 0.11861216,0.78633302 0.09810659,0.7760876 0.08068617,0.76263021 0.05946555,0.75030919 0.04060665,0.73736433 0.03241352,0.72760055 -0.01307363,0.69101402 0.0166673,0.72649317 c 0.01250108,0.007021 0.02017182,0.0194644 0.03279244,0.0254058 0.01752306,0.009987 0.03266698,0.0201427 0.04853241,0.0316329 0.01882615,0.008258 0.03200711,0.025275 0.05199268,0.0309759 0.021164,0.0109048 0.0403337,0.0214739 0.0620547,0.0305981 0.0266503,-0.001393 0.0553455,0.008856 0.081749,-0.00492 0.0188843,-0.0120367 0.0368102,-0.0309025 0.0377277,-0.0546334 0.005562,-0.0291289 -6.324e-5,-0.0580875 -0.01902,-0.08057 -0.0127331,-0.0203274 0.001044,-0.0356374 0.006897,-0.0544927 0.0112309,-0.025901 -1.9498e-4,-0.0548173 -0.0136001,-0.0772215 -0.0182331,-0.0222889 -0.0496829,-0.0232407 -0.0765528,-0.0236006 z m -0.0819697,0.047589 c -7.661e-4,0.001383 -3.3329e-4,-0.001404 0,0 z m 0.0284024,0.0539624 c -0.001162,7.2022e-4 -3.0417e-4,-8.2964e-4 0,0 z m -0.0511301,0.0254074 c -6.879e-5,0.001039 -0.001815,-3.0101e-4 0,0 z M 0.1986005,0.770805 c 3.957e-5,0.001243 -9.6297e-4,-0.001103 0,0 z M 0.1793119,0.7771 c -0.001162,7.2025e-4 -3.0418e-4,-8.2965e-4 0,0 z M 0.2381,0.8072963 c -0.001162,7.2022e-4 -3.0417e-4,-8.2964e-4 0,0 z M 0.243402,0.59614671 c 0.0142892,0.0103697 -0.0191757,-0.001194 5.6195e-4,0.0105203 0.007111,0.001333 0.0276506,0.021793 0.0139747,0.0186359 -0.0233096,0.002648 0.0264212,0.00459 0.0210089,0.0254821 -0.001517,0.0123038 0.0222659,0.0350626 0.0113586,0.0182355 -0.003696,-0.0185215 -0.0200686,-0.04125 -0.0244159,-0.0535081 -0.005528,-0.007362 -0.013458,-0.0168316 -0.0224882,-0.0193657 z m -0.0521121,0.0394526 c 0.00118,0.0130417 0.0342899,0.0214449 0.0109013,0.00573 -0.003718,-6.704e-5 -0.008157,-0.00695 -0.0109013,-0.00573 z m -0.1218013,0.0705303 c 0.01621394,0.0218597 0.0068883,-0.003306 0,0 z m 0.0021908,0.00174 c -7.7992e-4,0.001028 -7.1435e-4,-0.001582 0,0 z m 0.0245835,0.001412 c 0.0055207,0.0103102 0.01523128,0.006001 0,0 z m 0.07222222,0.004651 c -0.0228827,0.005293 -0.0561622,0.004001 -0.07013872,0.006294 -0.01291556,9.9557e-4 -0.04627804,-0.009419 -0.04800223,0.001395 0.01285687,0.002066 0.03798608,-0.002672 0.04495384,0.003477 -0.0098045,0.0105943 0.02178532,-0.008275 0.0315975,-0.001213 0.007436,-0.00125 0.0498465,-0.005303 0.0415896,-0.009954 z m -0.11765808,0.00552 c -0.0011621,7.2024e-4 -3.0417e-4,-8.2967e-4 0,0 z m 0.04370966,0.008798 c -0.0015828,-6.949e-5 0.0013878,-0.001269 0,0 z m -0.01711337,-0.002123 c -0.01449291,0.005855 0.0090061,0.002858 0,0 z"
         id="path829"
         inkscape:connector-curvature="0"
         sodipodi:nodetypes="cccccccccccccccccccccccccccccccccccccccccccccccccccccccccccccccccccccccccccccccccccccccccccccccc" /><path
         style="fill:#165016;fill-opacity:1;stroke:none;stroke-width:0.41121495;stroke-miterlimit:4;stroke-dasharray:none"
         d="m 173.03178,1044.8298 c -3.18766,-5.696 -11.19342,-17.9069 -14.75709,-22.5083 -1.99113,-2.571 -4.66769,-7.5124 -12.25049,-22.61683 -10.30054,-20.51793 -15.20325,-29.92538 -19.07318,-36.59813 -1.31169,-2.26168 -2.77382,-5.10533 -3.24918,-6.31923 -1.67537,-4.27831 -5.37089,-11.47316 -11.11675,-21.64338 C 103.67716,919.37682 99.953894,911.2647 97.616654,902.53119 97.086868,900.55156 93.834626,891.72069 90.389448,882.90705 82.823,863.55014 78.801021,852.63508 75.48589,842.46099 l -2.493821,-7.65351 -0.234274,-17.88785 c -0.348301,-26.59429 -0.262822,-39.22183 0.295064,-43.58879 1.137935,-8.90739 3.327152,-16.82755 6.369819,-23.04478 3.232566,-6.60525 15.031473,-20.0204 22.298412,-25.35291 6.69828,-4.91523 14.35707,-8.03681 21.02049,-8.56758 1.76335,-0.14046 4.92431,-0.6359 7.02437,-1.10098 3.1467,-0.69686 4.73791,-0.80908 9.04673,-0.638 9.5977,0.38109 14.98546,2.79059 32.77222,14.65632 12.26962,8.18519 17.84335,11.22277 23.85809,13.00221 2.03551,0.6022 4.03501,1.22107 4.44333,1.37527 0.65467,0.24723 0.49552,0.6319 -1.34681,3.25528 -3.94334,5.61512 -10.34102,9.79125 -17.90026,11.68453 -5.18451,1.2985 -14.05392,1.30557 -19.12149,0.0153 -1.92243,-0.4895 -3.95795,-1.0022 -4.52337,-1.13933 -0.56542,-0.13713 -0.0117,0.32919 1.23057,1.03627 2.93765,1.6721 4.52644,3.223 4.52644,4.41848 0,1.58376 -2.96719,3.05203 -11.36473,5.62367 -8.45233,2.58842 -13.77653,4.86875 -15.33312,6.56711 -0.5483,0.59824 -1.19596,1.09058 -1.43925,1.09408 -1.11519,0.016 -7.9994,3.44758 -11.23366,5.59959 -10.43414,6.94264 -26.55128,26.85157 -25.003261,30.88564 0.213106,0.55535 0.331826,0.54808 1.005465,-0.0616 0.420105,-0.38019 2.928416,-3.71995 5.574036,-7.4217 6.63609,-9.28524 11.05903,-14.20462 12.77115,-14.20462 0.27962,0 1.64599,-1.01506 3.03639,-2.25568 2.73726,-2.44241 4.76852,-3.67911 5.40093,-3.28825 1.49204,0.92213 -1.63406,8.75303 -6.46231,16.18809 -2.45535,3.78102 -2.47237,4.87137 -0.0544,3.48656 0.98178,-0.56229 3.08344,-3.37436 7.49329,-10.02619 6.98635,-10.53821 10.69951,-14.74277 13.82806,-15.65806 1.01063,-0.29568 2.76275,-1.2266 3.89359,-2.06872 4.92819,-3.66996 9.80573,-5.61601 32.28038,-12.87923 4.63644,-1.49838 10.44174,-3.70306 12.90066,-4.89928 l 4.47076,-2.17495 -0.26974,2.97675 c -0.2713,2.99385 -2.00854,10.59197 -3.4704,15.1784 -3.68238,11.55308 -9.46886,22.74637 -15.62472,30.2243 -1.58255,1.92243 -5.17662,6.45608 -7.98682,10.07477 -16.85695,21.70668 -25.58251,30.00955 -37.35018,35.54087 -1.83667,0.86332 -3.17888,1.66888 -2.98266,1.79015 0.87782,0.54253 3.4745,0.68958 6.3131,0.35753 1.69626,-0.19843 3.16043,-0.29441 3.25371,-0.21332 0.43075,0.37451 -0.98756,2.31306 -4.29271,5.86728 -4.54847,4.89123 -7.5542,9.52631 -11.89287,18.33973 -5.12622,10.41324 -7.46897,17.21309 -6.65827,19.32574 0.20635,0.53773 0.416,0.56883 1.18216,0.17536 1.97446,-1.01399 3.62445,-3.08036 4.87617,-6.10669 2.23744,-5.40953 6.38521,-13.21963 9.73412,-18.32899 5.26364,-8.03062 8.93292,-12.65941 21.51425,-27.14018 7.0757,-8.14395 13.60152,-16.155 25.41789,-31.2028 3.84645,-4.89836 5.64228,-6.48976 6.27015,-5.55642 0.46111,0.68544 0.1723,3.43698 -0.85857,8.17978 -0.41785,1.92243 -0.95923,5.71588 -1.20306,8.4299 -0.24384,2.71402 -1.37177,10.48598 -2.50652,17.27103 -1.13475,6.78505 -2.35462,14.9271 -2.71083,18.09346 -1.66322,14.78453 -4.49587,23.24306 -14.45956,43.17757 -3.79244,7.58758 -5.18395,10.82754 -6.01907,14.01471 -1.19408,4.55707 -1.39744,6.92143 -0.57223,6.65294 1.33252,-0.43356 7.51283,-12.73962 12.45363,-24.79733 2.43871,-5.95153 5.12581,-11.7242 5.12581,-11.01173 0,0.25385 -0.35614,2.56171 -0.79142,5.12858 -0.43528,2.56687 -1.26507,9.01563 -1.84398,14.33059 -2.25378,20.69195 -2.23688,20.46495 -1.64651,22.11863 0.75011,2.10111 0.71558,8.96594 -0.0676,13.44361 -0.35529,2.0312 -1.35307,6.65737 -2.21729,10.28038 -2.01367,8.44169 -2.25176,9.92093 -1.65605,10.2891 0.25887,0.15999 0.92933,-0.14001 1.48992,-0.66665 1.18178,-1.11022 1.4931,-0.84793 2.25437,1.89941 0.99666,3.5968 1.17289,7.29089 1.18689,24.87851 0.008,10.06445 0.1781,18.55735 0.37798,18.87295 0.19988,0.3157 0.64771,0.4649 0.99517,0.3316 0.34747,-0.1334 0.73085,-0.022 0.85197,0.2484 0.12762,0.2846 0.18732,0.2316 0.14199,-0.1259 -0.043,-0.3392 0.22958,-1.0794 0.60578,-1.6448 1.95226,-2.9342 2.05892,-11.7534 0.34618,-28.62335 -1.728,-17.02031 -1.78535,-18.01891 -1.29624,-22.57292 0.24291,-2.26168 0.71728,-11.60654 1.05416,-20.76636 0.9208,-25.03698 1.65546,-35.92001 3.09089,-45.78733 0.42267,-2.90546 0.66882,-5.54238 0.54701,-5.85981 -0.34097,-0.88858 -1.59663,-0.6841 -2.13746,0.34808 -0.48054,0.91712 -0.48285,0.91622 -0.2627,-0.10281 0.99751,-4.61729 6.13583,-24.26297 6.65431,-25.44184 0.64968,-1.47721 0.65979,-1.48204 0.97195,-0.4647 0.1735,0.56542 0.3339,2.22746 0.35644,3.69343 0.038,2.46781 0.26726,3.10791 3.09352,8.63551 5.04468,9.86638 7.39303,16.21877 14.36848,38.86732 2.36833,7.68972 4.87634,15.54337 5.57336,17.45254 0.69702,1.90918 1.26731,3.80591 1.26731,4.21495 0,0.40905 0.18505,0.74373 0.41122,0.74373 0.22617,0 0.42257,0.23131 0.43645,0.51402 0.0139,0.28271 0.47779,1.43925 1.03091,2.57009 l 1.00569,2.05608 -0.20856,-4.11215 c -0.77026,-15.18713 -5.85188,-32.11914 -16.66084,-55.51402 -5.12967,-11.10267 -5.58601,-12.33448 -6.36661,-17.1854 -2.51671,-15.63992 -1.19826,-33.40636 4.14132,-55.80526 2.11867,-8.88756 6.8595,-25.5603 7.16447,-25.19626 0.736,0.87856 12.08528,24.81498 13.76015,29.02113 2.78978,7.00604 4.34307,13.46306 4.6195,19.20317 0.27532,5.71731 -0.23014,9.28035 -2.11623,14.91769 -1.48327,4.43332 -2.61771,10.75684 -2.14894,11.97843 0.15273,0.39802 0.50891,0.65117 0.7915,0.56256 0.80133,-0.25128 3.74507,-6.40727 5.19996,-10.87421 0.72414,-2.22333 1.41385,-4.31998 1.5327,-4.65924 0.37,-1.05622 1.70116,1.01924 2.60911,4.068 3.89602,13.0821 4.34442,39.14096 0.86402,50.21238 -1.01275,3.22162 -1.04042,3.70093 -0.21362,3.70093 2.55761,0 4.60132,-3.04921 5.81392,-8.67438 1.16096,-5.38561 1.02762,-26.20159 -0.23286,-36.35366 -0.50546,-4.07102 -1.10209,-9.43738 -1.32584,-11.92523 -0.55828,-6.20752 -1.72863,-11.70391 -3.9402,-18.50467 -1.72029,-5.29006 -3.03396,-8.49959 -10.98984,-26.85025 -3.1587,-7.2857 -5.92294,-15.14452 -7.24243,-20.59047 -1.70133,-7.02187 -0.58939,-15.86876 2.88259,-22.93462 8.60292,-17.50792 31.78659,-25.88031 57.27891,-20.68531 9.83985,2.00523 13.4754,3.7421 18.72158,8.94415 10.98001,10.88766 17.12712,24.93798 18.56526,42.43426 0.21378,2.60093 0.76574,6.39439 1.22657,8.4299 2.76856,12.22907 1.82875,26.93189 -2.87067,44.90989 -1.34486,5.14484 -5.4275,18.91634 -9.90951,33.42656 -1.99548,6.46025 -8.61667,17.54618 -17.19217,28.78505 -2.50228,3.27944 -6.65968,8.73831 -9.23866,12.13084 -2.57898,3.39252 -7.43521,9.23475 -10.79161,12.98273 -29.11507,32.51173 -29.69388,33.26585 -44.35832,57.79349 -9.62942,16.10609 -12.18309,20.64254 -15.143,26.90074 -3.58596,7.5819 -6.70635,16.6887 -8.09459,23.6239 -0.36881,1.8425 -0.87939,2.8995 -2.03443,4.2117 -1.88231,2.1384 -4.24202,6.8764 -5.1943,10.4295 -0.38875,1.4506 -0.8143,2.7624 -0.94565,2.9152 -0.13135,0.1527 -1.44162,-1.8716 -2.91171,-4.4985 z m 9.04672,-56.47419 c 0,-1.81734 -1.07934,-3.85227 -3.13204,-5.90497 -3.02249,-3.02249 -5.76475,-3.2365 -4.22166,-0.32946 0.68858,1.29723 6.46701,7.50873 6.98521,7.50873 0.20267,0 0.36849,-0.57344 0.36849,-1.2743 z m -17.42844,-4.71184 c 0.66745,-1.86202 0.77801,-2.69443 0.47378,-3.56712 -0.84493,-2.42377 -2.08617,-1.02673 -2.61242,2.94032 -0.53877,4.06148 0.76996,4.44504 2.13864,0.6268 z M 179.2,961.05986 c 0,-0.67246 -2.24877,-5.99398 -3.00034,-7.10004 -1.85269,-2.72657 -3.09965,-1.06893 -1.70917,2.27208 0.84493,2.03017 4.70951,5.99194 4.70951,4.82796 z m 59.84528,-102.43301 c -0.3449,-0.82547 -1.29822,-2.60566 -2.11849,-3.95596 -0.82027,-1.35031 -1.74994,-3.31419 -2.06594,-4.36418 -1.04308,-3.46588 -5.3943,-9.94783 -6.67781,-9.94783 -1.6373,0 -0.47086,6.26054 2.18355,11.71962 2.09961,4.31809 4.66577,7.42201 7.00023,8.46717 2.07975,0.93113 2.61404,0.32033 1.67846,-1.91882 z m 28.46234,-50.58168 c 0.16346,-6.53583 0.37375,-6.84101 2.59805,-3.77045 1.41179,1.94892 1.52656,1.36754 0.38502,-1.95039 -2.54307,-7.39158 -11.85879,-18.74472 -18.32318,-22.3306 -1.34428,-0.74569 -6.42265,-4.13975 -11.28527,-7.54235 -13.12862,-9.18671 -20.36296,-13.42518 -26.31775,-15.41908 -1.24393,-0.41652 -3.26331,-1.45339 -4.48751,-2.30415 -2.01628,-1.40122 -3.32558,-1.92123 -3.32558,-1.32081 0,0.63303 1.45607,2.87704 3.32056,5.11746 2.67797,3.21791 7.67436,7.19528 11.00043,8.75689 2.57319,1.20813 3.44911,1.32773 8.17052,1.11564 2.53494,-0.11387 4.2707,0.79713 6.51745,3.42062 2.85852,3.33784 4.71578,7.86919 8.71022,21.25121 1.77542,5.94796 3.01197,5.01093 3.07229,-2.32814 0.017,-2.07207 0.17091,-3.99385 0.34196,-4.27062 1.24206,-2.00968 7.73204,4.71334 12.12598,12.56138 0.75976,1.35701 1.87799,3.85514 2.48496,5.5514 0.99757,2.78786 2.53901,5.91632 3.60311,7.31276 0.91645,1.20267 1.3092,0.1291 1.40874,-3.85077 z"
         id="path832"
         inkscape:connector-curvature="0"
         transform="matrix(0,-0.00122549,-9.4696972e-4,0,1.0066085,0.92873216)" /><path
         style="fill:#0b280b;fill-opacity:1;stroke:none;stroke-width:0.41121495;stroke-miterlimit:4;stroke-dasharray:none"
         d="m 175.24611,1054.9489 c -0.65246,-0.4877 -3.09735,-2.7545 -5.43308,-5.0374 -3.38538,-3.3088 -4.56979,-4.787 -5.83923,-7.2876 -1.65125,-3.2527 -5.18855,-8.6775 -10.9592,-16.8071 -4.39864,-6.1967 -5.49586,-8.1964 -9.59725,-17.491 -4.16092,-9.42944 -14.83136,-30.87364 -20.55685,-41.31272 -2.29485,-4.18411 -4.78103,-9.18037 -5.52484,-11.1028 -1.81427,-4.68911 -5.43119,-11.83484 -10.44177,-20.62917 -7.266453,-12.75373 -10.677111,-20.21022 -12.824368,-28.03704 -0.472357,-1.72175 -3.880437,-10.67481 -7.57351,-19.89568 -7.763877,-19.38485 -11.905833,-30.29126 -15.346641,-40.41007 l -2.447022,-7.19626 -0.268861,-9.86916 c -0.147873,-5.42804 -0.547601,-13.66262 -0.888285,-18.29907 -1.501669,-20.43659 -1.236341,-34.22523 0.860647,-44.72644 1.885624,-9.44276 3.752321,-14.22169 9.024412,-23.10341 9.594011,-16.1627 21.774384,-26.92814 33.508058,-29.6156 11.64861,-2.66798 20.67316,-3.61424 28.15335,-2.952 15.46907,1.36952 27.68054,7.05736 39.91145,18.58989 4.19903,3.95926 5.85095,5.2248 8.55984,6.5577 7.77583,3.82609 13.62516,3.10532 25.15106,-3.09919 9.68504,-5.21356 19.11638,-9.65247 22.80684,-10.73417 9.95412,-2.91761 22.00431,-1.09346 34.91174,5.28492 6.57497,3.24911 16.80525,10.01576 20.02375,13.2444 5.86169,5.88013 11.00038,16.11744 13.96924,27.82951 2.54726,10.0489 3.73048,20.44418 4.37153,38.40663 l 0.46962,13.15888 -3.37615,12.95327 c -5.81893,22.32551 -9.08357,32.834 -13.28608,42.76636 -2.92042,6.90225 -3.99978,8.65908 -11.74788,19.12149 -17.02603,22.9906 -26.50116,34.57465 -39.41307,48.1854 -4.27238,4.50361 -7.31673,8.22476 -10.93376,13.36448 -13.27216,18.85945 -15.66201,22.51085 -19.5871,29.92668 -1.25147,2.36444 -3.13122,5.42969 -4.17723,6.81166 -4.08245,5.39366 -7.98533,14.23311 -12.70603,28.77721 -5.13936,15.834 -7.38966,21.2203 -11.63177,27.8419 -2.04632,3.1941 -4.41776,5.6721 -5.42821,5.6721 -0.30088,0 -1.08089,-0.399 -1.73335,-0.8866 z m 1.57972,-7.0322 c 0.8477,-3.5563 3.81784,-9.7347 5.78081,-12.0251 1.17261,-1.3682 1.56169,-2.356 2.31304,-5.8727 1.81702,-8.5044 6.12307,-19.4609 11.50989,-29.2862 4.00368,-7.30253 19.85135,-33.70656 22.58318,-37.62616 6.16253,-8.84192 12.77488,-16.88356 25.35207,-30.83202 11.09335,-12.30285 14.72551,-16.52028 17.89231,-20.77545 1.43072,-1.92243 4.95396,-6.5486 7.82942,-10.28038 11.50851,-14.93575 17.37904,-24.89132 19.93528,-33.8074 0.60217,-2.10032 2.57465,-8.62998 4.38329,-14.51036 5.8342,-18.96847 8.10035,-29.15045 9.03053,-40.57469 0.55346,-6.79747 0.0349,-15.17749 -1.30613,-21.10755 -0.46032,-2.03551 -1.01613,-5.73645 -1.23513,-8.2243 -1.53419,-17.42792 -7.0805,-30.79293 -17.20151,-41.45064 -4.27093,-4.49741 -7.45991,-6.78492 -11.24013,-8.06271 -7.77441,-2.62792 -15.50124,-3.8607 -24.16864,-3.85598 -26.88217,0.0146 -45.10631,14.47783 -46.34337,36.77948 -0.4649,8.38128 1.8306,15.48861 13.85817,42.90761 3.20166,7.29876 6.7097,17.69289 7.79718,23.10262 0.46289,2.30269 1.02051,6.2812 1.23915,8.84112 0.21863,2.55991 0.66949,6.6899 1.00191,9.17776 1.45563,10.89432 1.96757,28.16805 1.05135,35.47502 -0.62222,4.96229 -1.87247,8.64165 -3.48406,10.25324 -1.23822,1.23823 -2.67944,1.80437 -2.66643,1.04744 0.003,-0.16963 0.36262,-1.44803 0.79932,-2.84089 3.91772,-12.49541 2.71033,-44.29035 -2.03512,-53.59221 -1.34464,-2.6357 -1.81531,-2.38728 -3.00465,1.58586 -1.42992,4.77684 -3.75791,10.25418 -5.00354,11.77247 l -1.0121,1.23364 -0.0148,-1.70368 c -0.0199,-2.29675 1.09296,-7.52746 2.26283,-10.63554 2.18169,-5.79621 2.7657,-12.84123 1.63602,-19.73554 -1.37241,-8.37561 -4.0666,-15.48183 -11.86489,-31.2949 -3.02301,-6.12994 -5.70981,-11.75761 -5.97068,-12.50593 -0.26086,-0.74831 -0.55488,-1.27999 -0.65337,-1.1815 -0.0985,0.0985 -1.30912,4.15327 -2.69027,9.01061 -7.37181,25.92572 -9.92924,40.65941 -9.91978,57.14929 0.008,14.63835 0.99245,19.66739 5.90695,30.18786 9.84236,21.06957 14.6397,34.70259 16.94306,48.14859 1.15878,6.76447 1.72339,13.09535 1.07742,12.08105 -1.02474,-1.60907 -4.43882,-11.61035 -9.03709,-26.47358 -6.78003,-21.91541 -10.74432,-32.36518 -15.22952,-40.14465 -1.47367,-2.55605 -1.67657,-3.2241 -1.71271,-5.63913 -0.0726,-4.85477 -1.00126,-6.28415 -2.1757,-3.34894 -0.37115,0.9276 -1.8816,6.53296 -3.35657,12.45636 -3.27414,13.14887 -4.04232,15.77633 -5.61331,19.19973 -0.67462,1.47009 -2.39509,5.4486 -3.82326,8.84112 -3.88792,9.23548 -7.85914,17.69915 -10.00863,21.33089 -1.64173,2.77383 -1.9344,3.08656 -2.04382,2.18388 -0.0702,-0.57945 0.37334,-2.96153 0.98571,-5.29351 0.87274,-3.3234 2.16593,-6.32401 5.98231,-13.8808 9.74776,-19.30145 12.83943,-28.60526 14.56051,-43.8171 0.35824,-3.16635 1.55088,-11.12336 2.65031,-17.68224 1.09943,-6.55888 2.20971,-14.14579 2.46728,-16.85981 0.25758,-2.71402 0.8193,-6.69253 1.24829,-8.84112 0.42898,-2.1486 0.89378,-4.67914 1.0329,-5.62343 0.25282,-1.71609 -0.27892,-3.4233 -1.06625,-3.4233 -0.89477,0 -4.30028,3.67879 -8.50029,9.1824 -2.43613,3.19226 -5.16951,6.65835 -6.07419,7.70245 -0.90467,1.04408 -3.6111,4.38006 -6.01428,7.41328 -2.40319,3.03322 -7.74612,9.40093 -11.8732,14.15047 -16.92076,19.47278 -24.15556,29.86259 -29.26238,42.02325 -1.80672,4.30226 -2.44741,5.37586 -4.16931,6.9865 -1.66435,1.55681 -2.09854,1.78876 -2.38621,1.27472 -0.75391,-1.34716 1.93447,-8.94424 6.44388,-18.20971 4.26029,-8.75363 7.0663,-13.10515 12.05365,-18.69264 2.51478,-2.8174 4.57234,-5.48076 4.57234,-5.91857 0,-0.7408 -0.23215,-0.78011 -3.34618,-0.56667 -1.8404,0.12614 -3.93594,0.13364 -4.65676,0.0167 -1.2387,-0.20101 -1.0807,-0.33003 2.88034,-2.35211 5.85789,-2.9904 10.17787,-6.20413 16.35781,-12.16892 5.93502,-5.72841 10.58882,-11.13338 18.76543,-21.79439 3.0356,-3.95794 6.51698,-8.31743 7.7364,-9.68774 7.94933,-8.93304 16.27717,-26.97107 19.2155,-41.62066 0.87484,-4.36163 1.35986,-8.72897 0.96941,-8.72897 -0.17795,0 -1.48646,0.63472 -2.9078,1.41049 -3.89901,2.12808 -9.8793,4.38381 -20.13907,7.59635 -16.16192,5.0606 -20.19274,6.68324 -25.99151,10.46307 -1.88497,1.22868 -3.86845,2.36288 -4.40773,2.52043 -3.72809,1.08917 -8.05634,5.82765 -14.13939,15.47954 -2.03552,3.22972 -4.39679,6.75743 -5.24729,7.83936 -1.53302,1.9502 -3.4361,3.50893 -3.81793,3.12711 -0.10913,-0.10914 0.66438,-1.4758 1.71893,-3.03702 2.83819,-4.20184 6.7093,-12.41591 6.99728,-14.84745 0.19967,-1.68592 0.11988,-2.09908 -0.4474,-2.31677 -0.95356,-0.36591 -3.3016,0.92947 -5.98864,3.30385 -1.24392,1.09918 -2.77023,2.22042 -3.39178,2.49165 -2.62407,1.14506 -6.11975,5.24816 -14.71396,17.27068 -2.70899,3.78963 -3.896215,4.47955 -3.200555,1.85991 0.788612,-2.96967 10.165025,-15.2489 15.816095,-20.71256 5.54386,-5.36 11.90411,-9.66146 17.62104,-11.91714 1.35701,-0.53543 3.11123,-1.51976 3.89826,-2.18741 2.18432,-1.85299 6.45289,-3.64461 14.80163,-6.2126 4.17839,-1.28523 8.15689,-2.61924 8.84112,-2.96448 3.79339,-1.91401 4.09877,-4.27004 0.8164,-6.29866 -0.80635,-0.49834 -1.40901,-0.96316 -1.33924,-1.03293 0.0698,-0.0698 1.32856,0.16706 2.79733,0.52628 4.24374,1.03788 13.63451,0.91806 18.29665,-0.23346 5.58796,-1.3802 10.70201,-4.08739 14.51051,-7.68135 2.72977,-2.57599 6.28958,-7.34359 5.79894,-7.76643 -0.088,-0.0758 -1.91786,-0.62555 -4.06646,-1.22166 -6.32612,-1.75514 -13.39617,-5.55877 -26.08094,-14.03133 -17.28197,-11.54316 -23.48606,-14.18154 -33.33962,-14.17811 -2.26168,7.8e-4 -5.31495,0.27429 -6.78504,0.60778 -1.4701,0.3335 -4.59056,0.80432 -6.93436,1.04628 -14.66751,1.51416 -25.924049,9.1194 -39.8291,26.90967 -3.8072,4.87097 -5.793502,8.65915 -7.870021,15.00934 -3.917945,11.98145 -4.258545,17.4149 -3.686154,58.80374 l 0.253068,18.29907 2.108432,6.62748 c 2.964263,9.31763 6.677895,19.43173 14.628129,39.83981 3.788593,9.72523 7.323433,19.29628 7.855201,21.269 2.346441,8.70468 6.359285,17.4911 14.794925,32.39455 4.58526,8.10091 7.73917,14.24794 12.44815,24.26168 0.69131,1.47009 3.02603,5.81869 5.18826,9.66355 2.16222,3.84486 8.83015,16.72456 14.81761,28.62155 9.43255,18.74235 11.33301,22.22805 14.23158,26.10245 5.61998,7.5119 12.82233,18.8187 15.63036,24.5377 0.74957,1.5267 1.46193,2.7744 1.58302,2.7728 0.12108,0 0.53962,-1.3432 0.93009,-2.9813 z m 94.0751,-140.11857 c 0,-0.22617 -0.18504,-0.41121 -0.41121,-0.41121 -0.22617,0 -0.41122,0.18504 -0.41122,0.41121 0,0.22617 0.18505,0.41122 0.41122,0.41122 0.22617,0 0.41121,-0.18505 0.41121,-0.41122 z m -44,-30.01869 c 0,-0.22617 -0.18504,-0.41122 -0.41121,-0.41122 -0.22617,0 -0.41122,0.18505 -0.41122,0.41122 0,0.22617 0.18505,0.41121 0.41122,0.41121 0.22617,0 0.41121,-0.18504 0.41121,-0.41121 z M 124.0972,874.0785 c 0,-0.22616 -0.18505,-0.41121 -0.41122,-0.41121 -0.22617,0 -0.41121,0.18505 -0.41121,0.41121 0,0.22617 0.18504,0.41122 0.41121,0.41122 0.22617,0 0.41122,-0.18505 0.41122,-0.41122 z"
         id="path834"
         inkscape:connector-curvature="0"
         transform="matrix(0,-0.00122549,-9.4696972e-4,0,1.0066085,0.92873216)" /><path
         style="fill:#0b280b;fill-opacity:1;stroke:none;stroke-width:0.41121495;stroke-miterlimit:4;stroke-dasharray:none"
         d="m 169.13875,1008.8884 c -0.10588,-0.3015 -0.26215,-9.43046 -0.34725,-20.28653 -0.15661,-19.9776 -0.26516,-21.48798 -1.79612,-24.99325 l -0.67872,-1.554 -1.0855,1.03998 c -1.19101,1.14106 -2.07843,1.42604 -1.2201,0.39181 0.36277,-0.43711 0.39728,-0.73837 0.10597,-0.92523 -0.28665,-0.18387 0.16676,-2.8361 1.34791,-7.88454 0.97893,-4.18412 2.06418,-9.25925 2.41167,-11.27808 0.77484,-4.50162 0.79376,-10.98909 0.0382,-13.10723 -0.49022,-1.37433 -0.41482,-2.93314 0.62499,-12.92046 2.40811,-23.12969 4.10855,-33.01199 5.68034,-33.01199 0.82337,0 0.82932,0.8181 0.0452,6.2137 -1.42216,9.78596 -2.1148,20.18319 -3.10623,46.62742 -0.33917,9.04673 -0.79895,18.07113 -1.02174,20.05421 -0.45894,4.08512 -0.17227,8.81211 1.45218,23.94579 1.02658,9.56371 1.36933,19.2573 0.81227,22.9721 -0.44815,2.9884 -2.71785,6.2689 -3.2631,4.7163 z"
         id="path836"
         inkscape:connector-curvature="0"
         transform="matrix(0,-0.00122549,-9.4696972e-4,0,1.0066085,0.92873216)" /><path
         style="fill:#0b280b;fill-opacity:1;stroke:none;stroke-width:0.41121495;stroke-miterlimit:4;stroke-dasharray:none"
         d="m 266.32094,811.31161 c -0.917,-1.04277 -2.96958,-5.24508 -3.79798,-7.77572 -2.12386,-6.48811 -10.82737,-17.8686 -13.66545,-17.8686 -1.36883,0 -1.69082,0.95731 -1.7289,5.14019 -0.0185,2.03551 -0.19655,4.25607 -0.39561,4.93458 -0.34101,1.16238 -0.38766,1.18576 -0.80757,0.40473 -0.24511,-0.45589 -1.19337,-3.41664 -2.10724,-6.57943 -3.54888,-12.28223 -6.28065,-17.62782 -10.47274,-20.49327 -1.61835,-1.10621 -1.89869,-1.16065 -4.9482,-0.96099 -4.13346,0.27064 -6.31034,-0.36586 -10.23976,-2.99401 -4.49005,-3.00313 -12.34734,-11.52657 -10.62572,-11.52657 0.21466,0 1.24071,0.64915 2.28011,1.44255 1.03941,0.79339 3.04284,1.83481 4.45206,2.31426 6.22937,2.11935 14.01881,6.76555 29.4621,17.57337 3.93886,2.75657 8.25839,5.59655 9.59896,6.31106 5.34567,2.84922 15.37512,15.71315 16.92209,21.70456 l 0.26544,1.02804 -0.67838,-0.92524 c -0.54613,-0.74485 -2.03025,-1.28051 -2.27869,-0.82243 -0.0307,0.0565 -0.16945,2.29789 -0.30841,4.98077 -0.23655,4.5671 -0.29558,4.82916 -0.92611,4.11215 z"
         id="path838"
         inkscape:connector-curvature="0"
         transform="matrix(0,-0.00122549,-9.4696972e-4,0,1.0066085,0.92873216)" /><path
         style="fill:#0b280b;fill-opacity:1;stroke:none;stroke-width:0.41121495;stroke-miterlimit:4;stroke-dasharray:none"
         d="m 237.24403,860.03407 c -2.27442,-1.12581 -4.69894,-4.16538 -6.67378,-8.36678 -2.26286,-4.81414 -3.47821,-10.04726 -2.4771,-10.66599 0.8588,-0.53076 5.74557,6.69415 6.37983,9.43235 0.15717,0.6785 1.1864,2.80654 2.28719,4.72897 1.74086,3.04026 2.88275,5.7577 2.41899,5.75668 -0.0811,-1.8e-4 -0.95187,-0.39853 -1.93513,-0.88523 z"
         id="path840"
         inkscape:connector-curvature="0"
         transform="matrix(0,-0.00122549,-9.4696972e-4,0,1.0066085,0.92873216)" /><path
         style="fill:#0b280b;fill-opacity:1;stroke:none;stroke-width:0.41121495;stroke-miterlimit:4;stroke-dasharray:none"
         d="m 180.9798,988.78336 c -0.26504,-0.26802 -0.3717,-0.77446 -0.23702,-1.12542 0.17926,-0.46715 0.0623,-0.56805 -0.4365,-0.37664 -0.49726,0.19081 -1.34991,-0.53276 -3.15551,-2.67781 -2.55954,-3.04073 -3.15653,-4.53298 -1.65655,-4.14073 1.31364,0.34353 4.49118,3.37032 5.39213,5.13632 0.89539,1.75511 0.96314,4.06377 0.0935,3.18428 z"
         id="path842"
         inkscape:connector-curvature="0"
         transform="matrix(0,-0.00122549,-9.4696972e-4,0,1.0066085,0.92873216)" /><path
         style="fill:#0b280b;fill-opacity:1;stroke:none;stroke-width:0.41121495;stroke-miterlimit:4;stroke-dasharray:none"
         d=""
         id="path846"
         inkscape:connector-curvature="0"
         transform="matrix(0,-0.00122549,-9.4696972e-4,0,1.0066085,0.92873216)" /><path
         style="fill:#0b280b;fill-opacity:1;stroke:none;stroke-width:0.41121495;stroke-miterlimit:4;stroke-dasharray:none"
         d="m 176.76751,958.9712 c -1.49442,-1.70205 -2.50209,-3.77131 -2.50209,-5.13805 0,-1.60006 1.00669,-0.61053 2.61564,2.57103 1.87115,3.70005 1.82367,4.7734 -0.11355,2.56702 z"
         id="path848"
         inkscape:connector-curvature="0"
         transform="matrix(0,-0.00122549,-9.4696972e-4,0,1.0066085,0.92873216)" /><path
         style="fill:#0b280b;fill-opacity:1;stroke:none;stroke-width:0.41121495;stroke-miterlimit:4;stroke-dasharray:none"
         d="m 162.76121,984.67477 c 0.0127,-1.84334 0.63202,-4.48669 1.17933,-5.03401 0.30006,-0.30005 0.54452,-0.12892 0.80616,0.5643 0.26969,0.71456 0.16109,1.5648 -0.38536,3.01714 -1.0282,2.73269 -1.61265,3.26324 -1.60013,1.45257 z"
         id="path850"
         inkscape:connector-curvature="0"
         transform="matrix(0,-0.00122549,-9.4696972e-4,0,1.0066085,0.92873216)" /></g></g></svg>