<?xml version="1.0" encoding="UTF-8" standalone="no"?>
<!-- Created with Inkscape (http://www.inkscape.org/) -->

<svg
   xmlns:dc="http://purl.org/dc/elements/1.1/"
   xmlns:cc="http://creativecommons.org/ns#"
   xmlns:rdf="http://www.w3.org/1999/02/22-rdf-syntax-ns#"
   xmlns:svg="http://www.w3.org/2000/svg"
   xmlns="http://www.w3.org/2000/svg"
   xmlns:sodipodi="http://sodipodi.sourceforge.net/DTD/sodipodi-0.dtd"
   xmlns:inkscape="http://www.inkscape.org/namespaces/inkscape"
   version="1.1"
   id="svg834"
   xml:space="preserve"
   width="90.778198"
   height="75.514336"
   viewBox="0 0 90.778198 75.514336"
   sodipodi:docname="0.svg"
   inkscape:version="0.92.2 5c3e80d, 2017-08-06"><metadata
     id="metadata840"><rdf:RDF><cc:Work
         rdf:about=""><dc:format>image/svg+xml</dc:format><dc:type
           rdf:resource="http://purl.org/dc/dcmitype/StillImage" /><dc:title></dc:title></cc:Work></rdf:RDF></metadata><defs
     id="defs838" /><sodipodi:namedview
     pagecolor="#ffffff"
     bordercolor="#666666"
     borderopacity="1"
     objecttolerance="10"
     gridtolerance="10"
     guidetolerance="10"
     inkscape:pageopacity="0"
     inkscape:pageshadow="2"
     inkscape:window-width="1442"
     inkscape:window-height="839"
     id="namedview836"
     showgrid="false"
     fit-margin-top="0"
     fit-margin-left="0"
     fit-margin-right="0"
     fit-margin-bottom="0"
     inkscape:zoom="4.8636364"
     inkscape:cx="51.592399"
     inkscape:cy="41.494241"
     inkscape:window-x="0"
     inkscape:window-y="0"
     inkscape:window-maximized="0"
     inkscape:current-layer="g844" /><g
     id="g842"
     inkscape:groupmode="layer"
     inkscape:label="Hibiscus_Salvia_Firewheel"
     transform="matrix(0,-1.3333333,-1.3333333,0,708.8866,799.11254)"><g
       id="g844"
       transform="matrix(792,0,0,612,-11.340143,9.5955053)"><path
         style="fill:#000000;stroke-width:0.00034473"
         d="m 0.74540721,0.74180707 c -0.002827,0.004996 -0.0232937,0.007695 -0.0236997,0.0159783 -0.007096,-9.0255e-4 -0.0122621,0.0205588 -0.003826,0.004439 0.005552,-0.009693 0.0220936,-0.0162361 0.0248875,-0.005456 0.005146,-0.00398 -0.007915,0.0164415 -0.001857,0.008921 -0.006719,0.009004 5.5466e-4,0.0121926 -0.002089,0.0195803 -0.003865,0.0109711 -0.005123,0.0212002 -0.00759,0.0192329 0.005544,0.007521 0.0105985,-0.0231403 0.0105233,-0.0240447 0.002404,0.009798 0.0192775,0.0280988 0.007576,0.008471 -0.0131626,-0.0110901 -0.002476,-0.0372163 0.0125626,-0.0191404 0.0100294,0.00686 0.001639,0.0126937 -0.001806,0.0180235 0.00997,-0.002501 0.005347,0.0128773 0.005732,0.0194384 -0.007424,-0.002559 0.001615,0.0157639 -0.008907,0.0107867 9.3555e-4,0.0127489 -0.006516,5.8554e-4 -0.0109674,0.0107375 -0.0155417,2.4574e-4 7.8922e-4,0.0159815 -0.0169329,0.0145352 -0.004646,0.0131108 -0.007947,-0.002512 -0.007666,-0.009502 -7.9863e-4,-0.0135262 -0.0250365,-0.0206785 -0.0169261,-0.029518 -0.005084,-0.0107157 0.009797,-0.0320299 0.009391,-0.0370436 -0.008123,0.005885 -0.004858,0.007327 -0.00957,0.0131698 -0.005027,0.0169059 -9.8334e-4,-0.005777 -0.003946,0.009315 -0.003469,0.0163973 0.005484,0.0359955 0.0180436,0.0438296 -0.002382,0.008148 0.004342,0.0291025 0.0134752,0.0143891 0.0125206,-0.001238 0.007275,-0.0159555 0.0196367,-0.0186394 0.0166772,3.4924e-4 0.0203766,-0.0290524 0.0179453,-0.0458415 0.009895,-0.0198704 -0.02794,-0.0197063 -0.0239901,-0.0416619 -9.7748e-4,0.008166 0,0 0,2e-7 z m -0.0100827,0.0327787 c -0.006558,0.009003 4.6967e-4,0.007617 0,0 z m -0.002639,0.001687 c -0.008612,0.00854 -0.002309,0.005209 0.001412,-0.001373 z m -0.002206,0.005889 c -0.005014,0.004029 -0.0122836,0.0105614 -0.001358,0.002495 -4.3448e-4,-1.634e-4 0.005041,-0.003799 0.001358,-0.002495 z"
         id="path848"
         inkscape:connector-curvature="0"
         sodipodi:nodetypes="cccccccccccccccccccccccccccccccccc" /><path
         style="fill:#338000;fill-opacity:1;stroke:none;stroke-width:0.58154577;stroke-miterlimit:4;stroke-dasharray:none"
         d="M 34.164774,70.409548 C 33.166453,69.569516 30.55556,66.363745 28.362789,63.285612 22.426706,54.952757 19.006497,52.164323 14.721747,52.164323 c -3.555749,0 -7.9185185,-1.225648 -9.5390535,-2.679839 L 3.6148734,48.077597 5.7063357,46.195526 C 7.5268161,44.557307 7.8476914,43.861365 8.1828804,40.82418 8.6752805,36.362487 10.28008,34.71795 14.14156,34.71795 c 3.311076,0 5.116683,-1.653955 5.684907,-5.207435 0.249726,-1.5617 1.06948,-3.295138 2.128916,-4.501769 1.495119,-1.702846 1.722819,-2.417972 1.722819,-5.41076 0,-3.719082 0.72734,-4.652592 3.625041,-4.652592 1.241426,0 1.351071,-0.207727 1.126226,-2.133686 -0.317846,-2.722579 0.88501,-3.6817718 4.617053,-3.6817718 3.608379,0 4.588779,-0.4301948 4.588779,-2.0135347 0,-1.189948 0.35306,-1.3408956 3.925434,-1.6782842 7.240193,-0.6837915 8.780836,-0.5196058 10.409811,1.1093697 1.10756,1.1075603 1.424153,1.9259206 1.237378,3.1985017 -0.138047,0.9405713 -0.127185,1.7101303 0.02414,1.7101303 0.151322,0 1.53516,-1.178609 3.075194,-2.6191317 5.500107,-5.1447038 7.202483,-4.9990404 11.572369,0.9901856 3.704825,5.0777171 4.649104,7.2073831 4.646249,10.4788411 -0.0077,8.793194 -12.029761,11.637427 -18.42107,4.358128 -2.029812,-2.311828 -7.219357,-6.229474 -8.251928,-6.229474 -0.361613,0 -0.657478,0.430041 -0.657478,0.955646 0,1.220878 7.26146,8.277639 10.073788,9.78981 2.22779,1.197869 2.756544,2.048551 1.273308,2.048551 -1.686394,0 -12.256378,3.618725 -14.723232,5.040624 -3.126079,1.801878 -4.238947,3.876809 -2.83323,5.282527 0.912908,0.912907 0.975454,0.912841 0.975454,-10e-4 0,-1.229528 0.364464,-1.416397 9.886278,-5.06891 l 7.850867,-3.011547 4.117449,1.006436 c 3.845757,0.940026 4.244976,0.942815 6.050187,0.04226 1.063013,-0.530299 2.14541,-0.96418 2.405326,-0.96418 0.259916,0 2.07378,-1.03491 4.030816,-2.299801 l 3.55824,-2.299803 2.226959,2.204817 c 2.631873,2.6057 3.34736,5.744304 2.333482,10.236247 -2.150306,9.526824 -6.933753,14.759319 -20.651638,22.590307 -11.144347,6.361855 -16.626588,8.21003 -20.252551,6.827539 -1.289515,-0.491662 -1.911781,-0.438265 -2.89174,0.248122 -1.719276,1.20423 -2.365978,1.10959 -4.460385,-0.652738 z M 56.866028,44.743852 c 1.811918,-2.989652 1.990972,-4.972646 0.24507,-2.714127 -1.599703,2.069397 -4.355734,7.069843 -4.342676,7.879205 0.01568,0.972377 1.550238,-0.961941 4.097606,-5.165078 z m 4.432946,-2.195209 c 1.2124,-1.450422 2.394625,-3.151443 2.627162,-3.780047 0.358139,-0.968155 0.168735,-1.142917 -1.238681,-1.142917 -1.988021,0 -4.489292,1.83407 -3.869322,2.837202 0.257564,0.416747 0.935524,0.539648 1.677612,0.304119 1.063842,-0.33765 0.971941,-0.08385 -0.630487,1.741217 -1.999947,2.277814 -2.1975,2.677557 -1.323255,2.677557 0.303931,0 1.544567,-1.186709 2.756971,-2.637131 z"
         id="path851"
         inkscape:connector-curvature="0"
         transform="matrix(0,-0.00122549,-9.4696972e-4,0,0.77105374,0.85305467)" /><path
         style="fill:#0b280b;fill-opacity:1;stroke:none;stroke-width:0.58154577;stroke-miterlimit:4;stroke-dasharray:none"
         d="M 40.179289,74.5589 C 31.195042,72.604819 22.984711,66.61452 17.655152,58.125167 l -1.551635,-2.47157 -3.627366,-0.0057 c -2.5844687,-0.0041 -4.4765476,-0.401096 -6.5809576,-1.381 -5.72113636,-2.663989 -7.0018054,-6.510959 -3.5212088,-10.577253 1.0766871,-1.257867 2.153686,-3.202265 2.3933309,-4.320884 0.728588,-3.400919 2.1640116,-5.200697 6.1168795,-7.669532 6.787564,-4.239293 7.808993,-5.655562 8.722079,-12.093657 0.720964,-5.083458 2.060472,-7.80091 5.33139,-10.8157646 5.465894,-5.0379957 13.354763,-7.3356586 24.619325,-7.1704714 4.56879,0.066998 8.207849,-0.1509611 9.197204,-0.5508608 5.277877,-2.1333338 9.024456,0.8825748 14.349159,11.5507368 4.821736,9.660465 8.959783,14.106994 13.849699,14.882161 2.01794,0.319891 2.42219,0.578766 2.084888,1.335137 -0.230135,0.516066 -1.633917,4.471192 -3.119505,8.78917 -2.788273,8.104305 -4.724355,12.401272 -5.92081,13.140722 -0.448872,0.277417 -0.56446,0.139278 -0.331952,-0.396702 2.945634,-6.790224 3.493915,-8.667098 3.551191,-12.156489 0.06692,-4.07702 -1.244403,-7.258793 -3.254551,-7.896789 -0.57049,-0.181069 -1.037262,-0.704124 -1.037262,-1.162345 0,-1.203781 -0.592607,-1.05051 -3.798041,0.982317 -1.574465,0.998495 -3.160137,1.859106 -3.523719,1.912468 -0.363577,0.05336 -1.856027,0.730954 -3.316544,1.505759 l -2.655501,1.408737 -3.966305,-1.025548 -3.966311,-1.025548 -8.366382,3.21071 c -4.60151,1.765891 -8.854063,3.652057 -9.450119,4.191479 -0.962782,0.871306 -1.083736,0.878076 -1.083736,0.06066 0,-2.453936 6.5849,-5.586908 19.143655,-9.108194 1.323331,-0.371041 1.237349,-0.492918 -1.453864,-2.060833 -2.876898,-1.676095 -10.711242,-8.784454 -10.711242,-9.718663 0,-0.996578 3.570022,1.377692 6.837514,4.54734 5.647989,5.478862 10.192193,6.710425 15.278695,4.140804 6.370084,-3.218068 6.962731,-9.731361 1.565777,-17.208098 C 63.992391,3.3943283 62.178852,2.8603138 57.243864,7.3706149 L 54.078412,10.263659 53.557546,8.4475027 C 53.271069,7.4486165 52.346877,6.1163341 51.503786,5.4868759 50.105185,4.4426698 49.407942,4.3791818 43.545025,4.762185 c -6.392941,0.4176276 -6.426782,0.4276589 -6.603956,1.9576058 -0.166133,1.434603 -0.420486,1.5610194 -3.789339,1.883351 -4.287142,0.4101933 -5.402707,1.1810881 -5.402707,3.7334592 0,1.588049 -0.262852,1.96713 -1.595998,2.301729 -2.611489,0.655442 -3.056368,1.381181 -3.056368,4.985903 0,2.934089 -0.216028,3.589361 -1.659066,5.032399 -1.096974,1.096973 -1.795735,2.540583 -2.062456,4.260941 -0.60657,3.912394 -1.509524,4.751677 -5.716492,5.313396 -4.5519852,0.607786 -5.4594978,1.598277 -5.9882619,6.5358 -0.3358997,3.136585 -0.6178063,3.824138 -1.8350566,4.475591 -3.0611737,1.63829 -2.9487773,4.412133 0.2288935,5.648889 2.9252984,1.138533 6.233364,1.848077 8.631556,1.851376 3.163993,0.0044 6.886609,2.429965 9.888839,6.44345 1.298152,1.735414 3.82401,5.141056 5.613017,7.568091 3.769314,5.113596 5.995874,6.461683 8.24183,4.990076 1.107594,-0.725723 1.831038,-0.791379 3.535216,-0.320833 4.078605,1.126157 9.662692,-0.811588 20.364119,-7.066595 3.395308,-1.984566 6.328282,-3.453301 6.517726,-3.263856 0.553364,0.553358 -2.74692,4.517226 -4.615007,5.542939 -0.940976,0.516663 -2.619666,1.644652 -3.730419,2.506643 -1.110752,0.86199 -2.919627,1.864308 -4.019723,2.227367 -1.100095,0.363064 -2.254158,1.134694 -2.564585,1.714734 -0.383629,0.716813 -1.747922,1.26071 -4.259378,1.698061 -4.451055,0.775119 -4.949435,0.76336 -9.48812,-0.223802 z"
         id="path853"
         inkscape:connector-curvature="0"
         transform="matrix(0,-0.00122549,-9.4696972e-4,0,0.77105374,0.85305467)" /><path
         style="fill:#0b280b;fill-opacity:1;stroke:none;stroke-width:0.10280374;stroke-miterlimit:4;stroke-dasharray:none"
         d="m 59.062804,40.551559 c -0.156292,-0.156292 -0.04982,-0.646076 0.222001,-1.02118 0.564169,-0.778549 1.594914,-1.367883 2.861961,-1.636344 0.753666,-0.159685 1.68371,-0.201586 1.672324,-0.07534 -0.01051,0.116538 -1.393311,1.273295 -2.163971,1.810231 -0.374149,0.260677 -0.92929,0.58988 -1.233645,0.731561 -0.524453,0.244138 -1.209294,0.34045 -1.35867,0.191074 z"
         id="path855"
         inkscape:connector-curvature="0"
         transform="matrix(0,-0.00122549,-9.4696972e-4,0,0.77105374,0.85305467)" /><path
         style="fill:#0b280b;fill-opacity:1;stroke:none;stroke-width:0.10280374;stroke-miterlimit:4;stroke-dasharray:none"
         d=""
         id="path857"
         inkscape:connector-curvature="0"
         transform="matrix(0,-0.00122549,-9.4696972e-4,0,0.77105374,0.85305467)" /><path
         style="fill:#0b280b;fill-opacity:1;stroke:none;stroke-width:0.10280374;stroke-miterlimit:4;stroke-dasharray:none"
         d="m 58.549874,44.860749 c 0.144487,-0.411482 1.204701,-1.890146 2.00361,-2.794403 0.905431,-1.024827 2.529818,-2.531672 2.625745,-2.435745 0.112827,0.112827 -2.764692,3.669952 -3.832964,4.738224 -0.677393,0.677394 -0.912512,0.822624 -0.796391,0.491924 z"
         id="path859"
         inkscape:connector-curvature="0"
         transform="matrix(0,-0.00122549,-9.4696972e-4,0,0.77105374,0.85305467)" /><path
         style="fill:#0b280b;fill-opacity:1;stroke:none;stroke-width:0.10280374;stroke-miterlimit:4;stroke-dasharray:none"
         d="m 52.880953,49.84673 c 0.147196,-0.495137 2.757491,-5.24634 3.02661,-5.508971 0.09634,-0.09401 0.556432,-0.737226 1.022435,-1.429359 1.091117,-1.62059 1.232062,-1.721332 1.029077,-0.73555 -0.126902,0.616291 -0.518583,1.281543 -2.596399,4.409862 -1.293638,1.947676 -2.40114,3.495327 -2.501262,3.495327 -0.02707,0 -0.01828,-0.104089 0.01954,-0.231309 z"
         id="path861"
         inkscape:connector-curvature="0"
         transform="matrix(0,-0.00122549,-9.4696972e-4,0,0.77105374,0.85305467)" /><path
         style="fill:#0b280b;fill-opacity:1;stroke:none;stroke-width:0.10280374;stroke-miterlimit:4;stroke-dasharray:none"
         d=""
         id="path863"
         inkscape:connector-curvature="0"
         transform="matrix(0,-0.00122549,-9.4696972e-4,0,0.77105374,0.85305467)" /><path
         style="fill:#0b280b;fill-opacity:1;stroke:none;stroke-width:0.20560747;stroke-miterlimit:4;stroke-dasharray:none"
         d="m 61.25595,40.859046 c 0,-0.120114 -0.203161,-0.21839 -0.451469,-0.21839 -0.351823,0 -0.242522,-0.13251 0.495214,-0.600369 0.520675,-0.330202 1.325238,-0.94237 1.787918,-1.360373 0.686677,-0.620372 0.841214,-0.689502 0.84112,-0.376267 -6.3e-5,0.212549 -0.596264,0.916849 -1.336448,1.578764 -0.734984,0.657264 -1.336335,1.09675 -1.336335,0.976635 z"
         id="path875"
         inkscape:connector-curvature="0"
         transform="matrix(0,-0.00122549,-9.4696972e-4,0,0.77105374,0.85305467)" /></g></g></svg>