<?xml version="1.0" encoding="UTF-8" standalone="no"?>
<!-- Created with Inkscape (http://www.inkscape.org/) -->

<svg
   xmlns:dc="http://purl.org/dc/elements/1.1/"
   xmlns:cc="http://creativecommons.org/ns#"
   xmlns:rdf="http://www.w3.org/1999/02/22-rdf-syntax-ns#"
   xmlns:svg="http://www.w3.org/2000/svg"
   xmlns="http://www.w3.org/2000/svg"
   xmlns:sodipodi="http://sodipodi.sourceforge.net/DTD/sodipodi-0.dtd"
   xmlns:inkscape="http://www.inkscape.org/namespaces/inkscape"
   version="1.1"
   id="svg815"
   xml:space="preserve"
   width="234.64574"
   height="263.79904"
   viewBox="0 0 234.64574 263.79904"
   sodipodi:docname="1.svg"
   inkscape:version="0.92.2 5c3e80d, 2017-08-06"><metadata
     id="metadata821"><rdf:RDF><cc:Work
         rdf:about=""><dc:format>image/svg+xml</dc:format><dc:type
           rdf:resource="http://purl.org/dc/dcmitype/StillImage" /><dc:title /></cc:Work></rdf:RDF></metadata><defs
     id="defs819" /><sodipodi:namedview
     pagecolor="#ffffff"
     bordercolor="#666666"
     borderopacity="1"
     objecttolerance="10"
     gridtolerance="10"
     guidetolerance="10"
     inkscape:pageopacity="0"
     inkscape:pageshadow="2"
     inkscape:window-width="1440"
     inkscape:window-height="856"
     id="namedview817"
     showgrid="false"
     inkscape:zoom="3.5683818"
     inkscape:cx="131.35625"
     inkscape:cy="205.67047"
     inkscape:window-x="0"
     inkscape:window-y="0"
     inkscape:window-maximized="0"
     inkscape:current-layer="g825"
     fit-margin-top="0"
     fit-margin-left="0"
     fit-margin-right="0"
     fit-margin-bottom="0" /><g
     id="g823"
     inkscape:groupmode="layer"
     inkscape:label="Hibiscus_Salvia_Firewheel"
     transform="matrix(0,-1.3333333,-1.3333333,0,746.87746,570.7546)"><g
       id="g825"
       transform="matrix(792,0,0,612,-45.644861,-41.943923)"><path
         style="fill:#338000;fill-opacity:1;stroke:none;stroke-width:0.00042694;stroke-miterlimit:4;stroke-dasharray:none"
         d="m 0.35782282,0.83499119 c 0.001705,0.003618 0.006138,0.006613 0.0143044,0.009665 0.008122,0.003035 0.0146748,0.003352 0.0245727,0.001188 0.002599,-5.6819e-4 0.005149,-8.9535e-4 0.005667,-7.2703e-4 0.001664,5.4053e-4 0.001557,0.001694 -3.5957e-4,0.003864 l -0.001764,0.001998 0.001567,0.007285 c 0.002111,0.009813 0.002564,0.0126109 0.00258,0.0159303 1.629e-5,0.00349 -5.6299e-4,0.004985 -0.003001,0.007745 l -0.001908,0.00216 9.4354e-4,0.006509 c 0.001306,0.009012 0.001558,0.0117183 0.002661,0.0286079 0.001686,0.0258235 0.002089,0.0286839 0.005839,0.0414369 0.002561,0.00871 0.004829,0.0144625 0.006053,0.0153513 8.8423e-4,6.4227e-4 0.00114,6.2344e-4 0.002527,-1.8563e-4 0.001524,-8.8949e-4 0.003724,-0.003611 0.005833,-0.007217 6.6785e-4,-0.001142 0.002466,-0.002902 0.00468,-0.004581 0.005942,-0.004506 0.008644,-0.00725 0.0171062,-0.017371 0.007061,-0.008445 0.010231,-0.0120281 0.016138,-0.0182394 0.00289,-0.003039 0.007619,-0.008162 0.0105084,-0.0113845 0.007954,-0.008871 0.009939,-0.0104334 0.015108,-0.0118952 l 0.003226,-9.1239e-4 0.003232,-0.004279 c 0.003404,-0.004507 0.006057,-0.006716 0.009745,-0.008118 0.002502,-9.51e-4 0.00602,-0.001001 0.007638,-1.0894e-4 0.001686,9.2993e-4 0.002546,0.002298 0.004739,0.00754 0.00105,0.00251 0.003489,0.007427 0.005421,0.0109279 0.004254,0.007707 0.005232,0.009978 0.009579,0.0222388 0.001864,0.005258 0.004004,0.0111403 0.004756,0.0130716 l 0.001366,0.003511 6.7635e-4,-0.001415 c 3.7198e-4,-7.7834e-4 0.00346,-0.007863 0.006863,-0.0157428 0.003403,-0.00788 0.008398,-0.0192908 0.0110997,-0.0253569 0.007459,-0.0167457 0.0111172,-0.0265417 0.0147094,-0.0393947 8.8248e-4,-0.003158 0.001919,-0.006258 0.002303,-0.006891 3.843e-4,-6.3226e-4 0.001623,-0.001697 0.002752,-0.002366 0.003511,-0.00208 0.00516,-0.005323 0.007325,-0.0143989 0.001509,-0.006326 0.002533,-0.009019 0.005077,-0.0133437 0.003486,-0.005926 0.003693,-0.006862 0.00385,-0.0173563 2.0032e-4,-0.0133774 -3.5755e-4,-0.0162656 -0.005794,-0.0299978 -0.003708,-0.009367 -0.006813,-0.0149005 -0.0129046,-0.0230023 -0.007568,-0.0100649 -0.0130713,-0.0154973 -0.0211665,-0.0208934 -0.007204,-0.004802 -0.008841,-0.005261 -0.014929,-0.004188 -0.001511,2.6636e-4 -0.006343,9.2279e-4 -0.0107362,0.001459 -0.0105217,0.001284 -0.012317,0.001844 -0.013886,0.004334 -0.001716,0.002723 -0.001304,0.004879 0.002618,0.0137117 0.005004,0.0112701 0.008091,0.0198357 0.0112389,0.0311844 0.001584,0.005713 0.004452,0.0183741 0.004452,0.0196577 0,0.001838 -7.9972e-4,-6.4811e-4 -0.002396,-0.007449 -0.005234,-0.0223037 -0.006875,-0.0272822 -0.014059,-0.0426552 -0.00337,-0.00721 -0.0036,-0.007872 -0.003717,-0.010685 -2.8211e-4,-0.006758 0.001364,-0.007652 0.0175447,-0.009535 0.004851,-5.6459e-4 0.009376,-0.001154 0.0100556,-0.00131 0.002838,-6.5086e-4 0.001566,-0.001394 -0.0156852,-0.009161 -0.022475,-0.0101185 -0.0286303,-0.0135119 -0.0368945,-0.0203396 -0.002794,-0.002308 -0.005691,-0.004527 -0.006437,-0.004931 -0.003767,-0.002037 -0.0134955,-0.001881 -0.0320932,5.1219e-4 -0.005063,6.5166e-4 -0.012921,0.001623 -0.0174622,0.002158 -0.009143,0.001078 -0.0115479,0.001563 -0.0146854,0.002959 -0.00451,0.002008 -0.0106174,0.007346 -0.0159542,0.0139447 -0.009026,0.0111592 -0.015676,0.0261891 -0.0213279,0.0482012 -0.001747,0.006803 -0.002095,0.009278 -0.001505,0.0107053 7.1077e-4,0.001719 0.001321,3.6488e-4 0.002611,-0.005793 0.001268,-0.006054 0.002964,-0.0111884 0.00523,-0.0158314 8.0717e-4,-0.001654 0.002831,-0.00653 0.004497,-0.0108361 0.003408,-0.008807 0.005354,-0.0130909 0.007878,-0.0173424 0.002328,-0.003921 0.009061,-0.0128974 0.0109339,-0.0145773 0.001365,-0.001224 0.008412,-0.004692 0.0174439,-0.008583 0.004689,-0.00202 0.006301,-0.001669 0.0105519,0.002296 7.4171e-4,6.9189e-4 9.0094e-4,6.2525e-4 0.002413,-0.00101 0.002633,-0.002847 0.004308,-0.003717 0.007678,-0.003989 0.003425,-2.7654e-4 0.006034,4.8468e-4 0.009564,0.00279 l 0.002098,0.001371 0.002237,-0.001645 c 0.004741,-0.003485 0.007018,-0.003392 0.018034,7.397e-4 0.0101387,0.003802 0.0102741,0.00386 0.0131932,0.005663 0.003691,0.00228 0.005725,0.004813 0.005725,0.007131 0,0.004466 -0.006332,0.007107 -0.0245822,0.0102528 -0.0135138,0.00233 -0.0156275,0.002609 -0.0260692,0.003447 -0.007972,6.3968e-4 -0.0218018,0.002448 -0.0270359,0.003534 -0.001131,2.3471e-4 -0.001689,5.9143e-4 -0.001689,0.001079 0,5.4689e-4 3.743e-4,6.9752e-4 0.001501,6.0419e-4 8.2566e-4,-6.838e-5 0.00395,-3.3942e-4 0.006943,-6.023e-4 0.009478,-8.3243e-4 0.0131355,-4.8862e-4 0.0131355,0.001235 0,9.1357e-4 -0.002766,0.00512 -0.009626,0.0146421 -0.007821,0.0108541 -0.007945,0.0110389 -0.007209,0.0107014 3.3899e-4,-1.5534e-4 0.00416,-0.003464 0.008492,-0.007352 0.0166111,-0.0149111 0.0235079,-0.0196336 0.0316814,-0.0216931 0.00709,-0.001787 0.021791,-0.002467 0.0228787,-0.001059 9.2005e-4,0.001191 -1.4182e-4,0.003175 -0.003367,0.006291 -0.001714,0.001656 -0.009565,0.008416 -0.0174469,0.0150228 -0.0348579,0.0292184 -0.055238,0.047492 -0.0595936,0.0534339 -0.001784,0.002434 -0.002964,0.004478 -0.002964,0.005136 0,0.002321 0.0106449,-0.005721 0.0169956,-0.0128401 0.005016,-0.005622 0.009858,-0.0101115 0.0234171,-0.021708 0.0160172,-0.013699 0.0471691,-0.0397815 0.0480151,-0.0402017 5.6168e-4,-2.7892e-4 6.0257e-4,-3.002e-5 3.6919e-4,0.002247 -3.8499e-4,0.003756 -0.002286,0.0143281 -0.003826,0.0212777 -0.004636,0.0209238 -0.0113911,0.0417111 -0.0218982,0.0673876 -0.006157,0.0150457 -0.0244133,0.0621013 -0.0255799,0.0659314 -4.0766e-4,0.001338 -6.5826e-4,0.002541 -5.5689e-4,0.002672 2.2591e-4,2.9235e-4 0.005494,-0.0100963 0.009298,-0.0183351 0.003182,-0.006892 0.0100884,-0.023244 0.0179491,-0.0424973 0.005508,-0.013491 0.006547,-0.0157847 0.00715,-0.0157847 6.0155e-4,0 4.0304e-4,0.001972 -0.001498,0.0148878 -0.002977,0.0202191 -0.004737,0.0349411 -0.004442,0.037157 1.4543e-4,0.001094 1.6954e-4,0.001081 6.2322e-4,-3.195e-4 4.9179e-4,-0.001518 0.005377,-0.0287215 0.006771,-0.0377022 4.4054e-4,-0.002839 0.001115,-0.009395 0.001499,-0.0145705 l 6.9775e-4,-0.009409 0.005446,-0.0140848 c 0.002995,-0.007747 0.007253,-0.0193302 0.009461,-0.0257412 0.008508,-0.0246946 0.0119448,-0.0343365 0.0126064,-0.035362 6.6337e-4,-0.001028 6.8695e-4,-0.001031 6.9662e-4,-9.289e-5 5.68e-6,5.3425e-4 -2.3364e-4,0.005015 -5.3145e-4,0.009957 -0.001034,0.0171592 -0.002004,0.0692437 -0.001375,0.0738239 l 3.0018e-4,0.002186 5.9237e-4,-0.001711 c 0.001236,-0.00357 0.002761,-0.0176303 0.004028,-0.037144 0.001437,-0.0221267 0.002594,-0.0318123 0.003801,-0.0318123 4.6079e-4,0 0.003934,0.009542 0.006666,0.0183174 0.003059,0.009824 0.005783,0.0205464 0.009073,0.0357149 0.002565,0.0118257 0.00276,0.0125064 0.003598,0.0125064 0.001083,0 0.001122,-6.715e-4 1.3486e-4,-0.002296 -7.8948e-4,-0.001299 -9.1683e-4,-0.003285 -4.2889e-4,-0.006689 l 2.7847e-4,-0.001943 2.5338e-4,0.001952 c 1.3937e-4,0.001073 1.6044e-4,0.002713 4.687e-5,0.003643 -1.9952e-4,0.001634 -8.75e-5,0.001825 0.003304,0.005632 0.007096,0.007966 0.0150582,0.020469 0.0144475,0.0226867 -8.645e-5,3.1396e-4 -0.001655,-0.001505 -0.003486,-0.004043 -0.009151,-0.0126843 -0.0137867,-0.0184595 -0.0142915,-0.0178062 -4.2354e-4,5.4812e-4 0.001555,0.007662 0.005155,0.0185377 0.004564,0.0137869 0.004767,0.0148152 0.00416,0.0211073 -7.9248e-4,0.008218 -0.003125,0.0189587 -0.004117,0.0189587 -3.994e-4,0 -8.1104e-4,-0.005135 -8.1757e-4,-0.0101994 -1.667e-5,-0.0129053 -0.008024,-0.0601377 -0.0140621,-0.0829526 -0.003687,-0.0139319 -0.009377,-0.0311572 -0.0100178,-0.0303282 -5.8e-4,7.5058e-4 -0.001051,0.005632 -0.002377,0.0246436 -0.001848,0.0265048 -0.002802,0.0354394 -0.004357,0.0408177 -9.1826e-4,0.003176 -0.001587,0.004011 -0.002461,0.003075 -5.7089e-4,-6.1149e-4 -6.0157e-4,-0.002745 -3.7127e-4,-0.0258186 2.4767e-4,-0.0248159 7.6116e-4,-0.0471057 0.001205,-0.0523145 1.4777e-4,-0.001734 9.964e-5,-0.002501 -1.3711e-4,-0.002186 -2.0064e-4,2.6712e-4 -0.001887,0.004857 -0.003748,0.0101994 -0.008837,0.0253753 -0.0109949,0.0314344 -0.0156624,0.0439744 -0.002757,0.007408 -0.005274,0.0146418 -0.005593,0.0160743 -3.1852e-4,0.001432 -8.4647e-4,0.005774 -0.001173,0.009647 -7.0026e-4,0.008301 -0.001091,0.0109513 -0.004874,0.0330265 -0.003179,0.0185527 -0.003841,0.0216129 -0.004675,0.0216129 -9.5966e-4,0 -0.001297,-0.00423 -8.1432e-4,-0.0101993 4.7532e-4,-0.005874 0.001972,-0.0175961 0.003968,-0.0310776 7.1135e-4,-0.004805 0.001241,-0.008803 0.001178,-0.008886 -1.7179e-4,-2.2232e-4 -0.001494,0.002831 -0.006579,0.0151934 -0.0127761,0.0310612 -0.0205584,0.0481373 -0.029771,0.0653245 -0.003631,0.006774 -0.004303,0.007187 -0.002358,0.001448 0.004153,-0.0122505 0.0226687,-0.0605791 0.0293035,-0.0764864 0.0131502,-0.0315284 0.0203825,-0.0545869 0.0254751,-0.0812222 0.001875,-0.009807 0.001815,-0.009358 0.001256,-0.009358 -6.902e-4,0 -0.007167,0.005185 -0.0233503,0.0186943 -0.030921,0.0258112 -0.0380054,0.0320528 -0.042972,0.0378592 -0.005411,0.006326 -0.0166198,0.0155231 -0.0201126,0.0165026 -0.001474,4.134e-4 -0.002221,-5.9265e-4 -0.001861,-0.002504 3.8046e-4,-0.002015 0.005689,-0.008483 0.0118401,-0.0144263 0.005368,-0.005186 0.0206759,-0.0185143 0.0463397,-0.040346 0.0146652,-0.0124753 0.023682,-0.0205 0.0247228,-0.0220025 3.8145e-4,-5.5066e-4 5.826e-4,-0.001234 4.4698e-4,-0.001517 -5.5152e-4,-0.001155 -0.0128115,-7.255e-5 -0.0218636,0.00193 -0.00817,0.001808 -0.0123368,0.00482 -0.0384847,0.0278238 -0.004834,0.004253 -0.005535,0.00471 -0.005528,0.003606 5.68e-6,-9.0577e-4 0.001956,-0.003927 0.009313,-0.0144242 0.008261,-0.0117871 0.009546,-0.0138356 0.009373,-0.014937 -1.1983e-4,-7.6144e-4 -4.9423e-4,-8.5484e-4 -0.002939,-7.3337e-4 -0.001541,7.659e-5 -0.005204,4.5904e-4 -0.008139,8.4995e-4 -0.008718,0.001161 -0.0106958,8.7817e-4 -0.010011,-0.001431 6.7311e-4,-0.00227 0.005369,-0.003181 0.0277333,-0.005379 0.0245951,-0.002417 0.0416878,-0.005455 0.0480151,-0.008532 0.002325,-0.001131 0.003964,-0.002811 0.003964,-0.004064 0,-0.001354 -0.002222,-0.004027 -0.004812,-0.005788 -0.003093,-0.002103 -0.0179703,-0.007766 -0.0225927,-0.008599 -0.003898,-7.0259e-4 -0.005432,-2.6204e-4 -0.008262,0.002373 l -0.00201,0.001872 -0.00246,-0.001448 c -0.006492,-0.003821 -0.009752,-0.004279 -0.0136487,-0.001919 -0.001297,7.8527e-4 -0.002967,0.00212 -0.003712,0.002967 l -0.001355,0.001539 -0.002499,-0.002028 c -0.003394,-0.002754 -0.005048,-0.002934 -0.009224,-0.001004 -0.001744,8.0592e-4 -0.00586,0.002696 -0.009146,0.0042 -0.00694,0.003177 -0.007983,0.004051 -0.013213,0.0110781 -0.005895,0.00792 -0.009926,0.0159944 -0.0138223,0.0276877 -0.001342,0.004028 -0.002769,0.007377 -0.004118,0.00967 -0.002108,0.003581 -0.002408,0.00455 -0.005503,0.0177797 -4.552e-4,0.001946 -9.8726e-4,0.003665 -0.001182,0.003821 -1.9511e-4,1.5604e-4 -8.7673e-4,-2.157e-4 -0.001515,-8.2611e-4 l -0.00116,-0.00111 -0.001278,0.001903 c -0.004053,0.006036 -0.0109283,0.018887 -0.0127411,0.0238173 -0.001117,0.003038 -0.001435,0.00453 -0.001542,0.00724 -1.7116e-4,0.004313 2.784e-4,0.006452 0.002241,0.0106632 l 0.001568,0.003365 -0.001707,0.001964 c -0.001537,0.001769 -0.003668,0.00528 -0.003664,0.006039 7.5e-7,1.6306e-4 3.1857e-4,9.6958e-4 7.0622e-4,0.001792 z"
         id="path879"
         inkscape:connector-curvature="0" /><path
         style="fill:#000000;stroke-width:0.00034473"
         d="m 0.48507738,0.70315883 c -0.009362,-0.0167429 -0.0423361,-0.001402 -0.0674925,-0.002647 -0.0286715,0.0136315 -0.036741,0.0460059 -0.0440608,0.074249 0.005046,0.014766 0.003316,-0.0184002 0.0110458,-0.0199352 0.003797,-0.0162418 0.0114388,-0.0334146 0.0234457,-0.044479 0.0113791,1.2289e-4 0.0181002,-0.0162862 0.0268073,-0.002916 0.004648,-0.00827 0.014057,-0.009339 0.0213088,-0.001097 0.007649,-0.0140046 0.0217725,0.002826 0.0297498,0.001262 0.0311129,0.0180811 -0.0274186,0.0195072 -0.0313431,0.0213479 -0.001855,0.003045 -0.0195022,-0.001411 -0.0261482,0.003652 -0.00644,-0.004361 -0.004902,0.004424 -0.0110277,-4.7533e-4 -0.0149478,0.0141358 0.0367285,-0.0106196 0.0137422,0.0129081 -0.0399182,0.0541741 0.0159318,-0.0167431 0.03179,-0.0120113 0.0141011,-0.003973 0.0309496,-0.004331 0.0141467,0.006809 -0.0246056,0.0225613 -0.0523315,0.0417015 -0.0750784,0.066151 -0.0143224,0.0226081 0.030798,-0.0183737 0.0147195,-0.007004 0.0220481,-0.0228533 0.049217,-0.0405431 0.0721682,-0.0626883 -0.002246,0.0241295 -0.0130911,0.0606688 -0.0244,0.0874504 -0.005267,0.0106554 -0.0102257,0.0248727 -0.0153666,0.0365837 -0.0137384,0.0427541 -0.0311895,0.0740802 -0.006451,0.0271682 0.009573,-0.0204893 0.0180802,-0.0411044 0.0254118,-0.0599701 0.008058,-0.023339 -8.4318e-4,0.0154664 -6.1803e-4,0.021052 -0.001117,0.005658 -0.004058,0.031341 -0.001497,0.0245436 -1.6004e-4,0.0119166 0.002937,-0.0178253 0.004617,-0.024282 0.008526,-0.0405009 0.003678,-0.0360778 0.003955,-0.037576 0.0114512,-0.0242063 0.0152325,-0.040367 0.0284681,-0.0777289 -0.003991,0.0579342 -0.00175,0.0722796 -0.00175,0.0722796 -0.002565,0.0169851 0.001437,0.023885 0.003664,8.065e-5 0.002841,-0.0156023 0.001508,-0.0517917 0.005492,-0.0561355 0.0146744,0.0381252 0.0204038,0.0791078 0.0253331,0.11949084 -0.005741,0.0235657 0.00895,-0.0165281 4.8382e-4,-0.0275447 -0.0204809,-0.0551695 0.009008,-0.004967 0.0120592,-0.001425 -0.005362,-0.009619 -2.1364e-4,-0.003654 -0.0106805,-0.0176028 -0.004903,-0.009138 -0.0111153,-0.005464 -0.007592,-0.0163742 -0.004632,-0.0166489 -0.007017,-0.0353792 -0.0158698,-0.0512256 -0.0184429,-0.0306617 0.0218791,-0.015946 0.0257453,-0.023967 -5.6673e-4,-0.002653 0.0229998,0.0100781 0.0283383,0.0126581 0.0138121,0.0113921 0.0180452,0.040776 0.0237397,0.0441963 -0.003054,0.0143859 0.003499,0.0254571 -0.003374,0.0411163 -0.0105438,0.006668 -0.001366,0.0261806 -0.016915,0.029458 -0.005391,0.0332582 -0.0248896,0.0594586 -0.0352737,0.0920246 -0.006628,-0.0122066 -0.008705,-0.0347929 -0.021504,-0.0474241 -6.5705e-4,-0.02333 -0.020697,-0.0110324 -0.024172,0.001056 -0.0150774,-0.001591 -0.0205559,0.0197045 -0.031536,0.0254581 -0.0113666,0.009465 -0.0194453,0.0297502 -0.0346093,0.0355175 -0.006168,0.0144673 -0.0127402,0.0153299 -0.0135193,0.003299 -0.0135702,-0.0278786 -0.005246,-0.0564899 -0.0132303,-0.086593 0.0155061,-0.00405 -0.004526,-0.0317645 0.003116,-0.0381123 -0.01299,0.0107715 0.002889,0.0322306 -0.007246,0.04344 0.002185,0.0170288 0.009096,0.0260238 0.004901,0.0419192 0.006303,0.0181835 -0.001921,-0.003628 0.003415,0.0122788 0.001866,0.004238 -0.006077,0.007793 0.003045,0.0180284 -0.004361,-0.0144331 0.006229,0.0152444 0.003571,0.009304 -0.008145,0.008221 0.0143084,0.0223806 0.0112144,0.0126768 0.0104273,-0.0191684 0.0323721,-0.0260981 0.0404943,-0.0470655 0.0129021,-0.00894 0.0235267,-0.0258631 0.0369516,-0.0308927 0.0102014,-0.0248777 0.0128583,0.0100202 0.0216989,0.0141652 0.009418,0.00931 0.0076,0.0505052 0.0243601,0.0314191 0.007511,-0.0282445 0.0293991,-0.0595741 0.0313375,-0.085674 0.007488,-0.005046 0.0160659,-0.0244425 0.0237635,-0.0341697 -0.0184171,-0.11316477 -0.0725093,-0.092655 -0.11334439,-0.12602716 z m -0.0656774,0.0612541 c -5.9517e-4,0.001292 -9.5447e-4,-7.169e-4 0,0 z m 0.0642033,-0.0316761 c 6.3259e-4,9.6031e-4 0.00115,-0.002277 0,0 z M 0.3521686,0.80871646 c -5.07e-5,0.0106249 0.006303,0.0176022 -0.003979,0.0255437 0.005653,0.009946 0.0257161,0.0191396 0.0419264,0.0133507 -0.00933,0.00198 -0.0492383,-0.009781 -0.0284506,-0.0235263 -0.0134634,-0.0159665 0.006584,-0.0364083 0.0118587,-0.0493237 -0.011371,6.3179e-4 -0.0147774,0.0288728 -0.0213555,0.0339556 z m 0.0487475,0.03504 c -0.006731,0.003229 -0.0185879,0.003144 -0.004883,0.005566 0.001668,4.0506e-4 0.0106892,-0.004178 0.004883,-0.005566 z m 0.43636403,0.1360839 c 7.8036e-4,0.002596 0.001916,-0.00119 0,0 z"
         id="path829"
         inkscape:connector-curvature="0"
         sodipodi:nodetypes="cccccccccccccccccccccccccccccccccccccccccccccccccccccccccccccccccccccccccccc" /><path
         style="fill:#112b00;fill-opacity:1;stroke:none;stroke-width:0.7926358;stroke-miterlimit:4;stroke-dasharray:none"
         d="m 179.79687,701.2964 -0.57006,-3.17054 -8.84635,-0.26473 c -4.86549,-0.1456 -10.98646,-0.3232 -13.60216,-0.39466 -3.59289,-0.0981 -5.32665,0.25594 -7.09027,1.44806 -2.80246,1.89432 -3.22829,1.84312 -14.31089,-1.72067 -8.02136,-2.5794 -9.28693,-2.77249 -15.81694,-2.41324 -4.9208,0.27073 -7.83829,0.0684 -9.51163,-0.65977 -1.32753,-0.57765 -3.43666,-1.26777 -4.68696,-1.53359 -5.2284,-1.1116 -0.5839,-1.11447 15.61905,-0.01 15.03837,1.02542 23.15015,2.12566 29.64059,4.02031 1.40322,0.40961 1.92588,0.10465 2.52604,-1.47387 0.92931,-2.44427 3.77151,-4.52824 6.17581,-4.52824 0.98766,0 5.13625,1.07006 9.21908,2.37791 8.76009,2.80611 10.88748,2.93845 12.24677,0.76188 1.15359,-1.84719 2.72834,-1.37545 1.97366,0.59123 -0.27486,0.71629 -0.92634,3.29084 -1.44771,5.72123 l -0.94796,4.41888 z"
         id="path853"
         inkscape:connector-curvature="0"
         transform="matrix(0,-0.00122549,-9.4696972e-4,0,1.0576324,1.0685358)" /><path
         style="fill:#112b00;fill-opacity:1;stroke:none;stroke-width:0.7926358;stroke-miterlimit:4;stroke-dasharray:none"
         d="m 93.542081,692.50804 c -1.211797,-0.65718 -2.000714,-1.52259 -1.75315,-1.92316 0.247564,-0.40056 -1.775055,-1.85156 -4.49471,-3.22444 -3.958159,-1.99808 -5.227324,-2.31972 -6.360611,-1.61197 -2.629616,1.64222 -5.131375,1.00362 -7.749368,-1.97811 -3.875505,-4.41396 -5.378309,-9.81989 -2.729847,-9.81989 2.260203,0 10.954666,-9.68519 17.788861,-19.8159 4.1605,-6.16734 9.043061,-12.19198 12.932694,-15.9578 3.43682,-3.32741 7.12309,-6.89427 8.19171,-7.92636 4.00737,-3.87032 20.24766,-26.67476 23.06882,-32.39298 1.61312,-3.26962 3.23675,-6.07518 3.60808,-6.23458 0.37133,-0.15939 1.88899,-1.35558 3.37257,-2.65818 4.73827,-4.16026 3.47758,-6.70223 -6.02158,-12.14155 -2.83368,-1.62259 -7.11391,-4.97543 -9.51163,-7.45075 -3.65618,-3.7745 -5.38251,-4.86616 -10.70059,-6.76669 -3.48759,-1.24637 -8.29847,-2.97745 -10.69084,-3.84684 -5.920851,-2.15167 -9.073005,-5.35107 -8.431617,-8.55802 0.803446,-4.01722 3.237201,-6.56917 8.152947,-8.54886 5.54126,-2.23162 10.99597,-5.15919 26.949,-14.46369 15.48817,-9.03337 25.40599,-13.78157 32.53678,-15.57715 5.04583,-1.27058 6.09948,-1.87683 9.01147,-5.18503 1.81366,-2.06041 6.37611,-6.12572 10.13879,-9.034 3.76268,-2.90829 8.66166,-6.8168 10.88663,-8.68559 l 4.04539,-3.3978 6.08774,1.55698 c 7.36533,1.88374 17.13059,4.76603 17.13059,5.05624 0,0.1158 -3.15605,0.0596 -7.01346,-0.12477 -8.86873,-0.42402 -15.16602,1.19772 -17.63897,4.54257 -1.98376,2.68317 -5.65684,4.39116 -12.17792,5.66274 -5.37401,1.0479 -9.61494,4.48788 -10.40541,8.44022 -0.42614,2.13072 -1.01729,2.46902 -7.9578,4.55413 -9.12148,2.74031 -19.25795,7.8222 -37.54482,18.82294 -7.62912,4.58942 -17.60073,10.21497 -22.15912,12.50122 -9.652157,4.84104 -9.756048,4.39662 2.2287,9.53374 14.30736,6.13268 19.12684,8.78555 23.76953,13.08387 3.32688,3.0801 5.6062,4.50168 8.12112,5.065 5.08889,1.13987 7.34077,4.03911 6.878,8.85524 -0.47372,4.93007 -3.87489,10.57759 -8.21089,13.63389 -3.09766,2.18342 -3.49362,2.80816 -3.49362,5.51206 0,4.56342 -2.64945,8.9695 -9.98663,16.60794 -3.63695,3.78628 -7.92751,8.95823 -9.53457,11.49322 -1.60706,2.53499 -7.83424,9.66734 -13.83818,15.84966 -9.110365,9.38104 -11.390241,12.22605 -13.781416,17.19751 -1.647501,3.42529 -3.497828,6.15772 -4.353827,6.4294 -0.818766,0.25986 -2.786128,1.90862 -4.371915,3.66389 -3.410196,3.77468 -3.560981,6.8353 -0.410605,8.33444 9.644867,4.58959 17.01154,7.57418 21.004848,8.51007 l 4.755815,1.11458 -2.946926,1.28044 c -3.532289,1.53478 -3.600332,1.53502 -6.390063,0.0221 z"
         id="path855"
         inkscape:connector-curvature="0"
         transform="matrix(0,-0.00122549,-9.4696972e-4,0,1.0576324,1.0685358)" /><path
         style="fill:#112b00;fill-opacity:1;stroke:none;stroke-width:0.7926358;stroke-miterlimit:4;stroke-dasharray:none"
         d="m 93.961917,692.79896 c -0.980887,-0.47307 -1.783431,-1.35938 -1.783431,-1.96959 0,-0.61021 -2.290451,-2.18131 -5.089893,-3.49132 -4.358658,-2.03967 -5.32104,-2.23749 -6.698831,-1.37706 -2.540039,1.58629 -5.6917,-0.0168 -8.621647,-4.38549 -2.747398,-4.09647 -3.389299,-7.62503 -1.387112,-7.62503 2.034708,0 10.008364,-8.76012 16.984108,-18.6593 3.823999,-5.42658 10.212947,-13.03748 14.943799,-17.80195 10.47053,-10.54495 26.18246,-31.43308 31.30132,-41.61338 1.09603,-2.17974 3.45787,-5.13922 5.24854,-6.57659 5.40519,-4.33876 4.43718,-6.52873 -5.61226,-12.69694 -2.35506,-1.4455 -6.18274,-4.4035 -8.50596,-6.57335 -4.92265,-4.59765 -7.42753,-5.97294 -17.06729,-9.37065 -8.7759,-3.09322 -11.865465,-4.95996 -13.086054,-7.90673 -0.768624,-1.85562 -0.72657,-2.71836 0.221909,-4.55251 1.726933,-3.33952 3.228989,-4.42135 12.825765,-9.23751 4.79545,-2.4066 14.06929,-7.45709 20.60853,-11.2233 17.31067,-9.96991 32.64769,-17.07076 36.87088,-17.07076 0.66502,0 3.52005,-2.2391 6.34451,-4.97578 2.82448,-2.73668 9.48796,-8.45666 14.80776,-12.71107 l 9.67236,-7.73528 9.09012,2.40918 c 8.38723,2.22289 13.354,3.80568 12.3859,3.9471 -0.21798,0.0318 -3.96318,0.1644 -8.32268,0.29457 -6.32096,0.18875 -8.60865,0.59181 -11.29506,1.99005 -1.85278,0.96435 -3.37113,2.01363 -3.37411,2.33174 -0.0123,1.31364 -5.49048,4.13463 -10.4097,5.36048 -7.07512,1.76309 -9.99452,3.68203 -11.79538,7.75319 -1.40531,3.17693 -1.83793,3.48658 -7.27796,5.20919 -8.89679,2.81721 -18.73164,7.71908 -38.85747,19.3673 -10.14623,5.87232 -20.85894,11.86264 -23.80601,13.3118 -2.947077,1.44917 -5.244283,3.00237 -5.104906,3.45156 0.273472,0.88135 1.725441,1.64384 17.993256,9.44904 6.12123,2.93692 12.64597,6.73721 15.24635,8.88012 2.50017,2.06033 6.41357,4.49152 8.69644,5.40265 4.77024,1.90389 6.40118,4.24694 5.9026,8.47985 -0.63232,5.36835 -3.51242,9.86582 -9.45899,14.77085 -1.52402,1.25708 -2.15577,2.51937 -2.15577,4.30739 0,4.0288 -2.65364,8.47538 -10.10621,16.93455 -3.82441,4.34096 -8.45953,9.87985 -10.30026,12.30865 -1.84074,2.42878 -7.76233,9.13617 -13.159097,14.90529 -5.714212,6.10847 -10.933529,12.52209 -12.49692,15.35654 -1.476539,2.67696 -4.913905,7.05934 -7.63859,9.7386 -5.019302,4.93561 -6.21835,7.86868 -3.963179,9.69458 1.675778,1.3568 15.888161,7.1562 21.06392,8.59519 2.692196,0.74849 4.894906,1.62421 4.894906,1.94604 0,0.54894 -4.429094,2.38895 -5.468575,2.27185 -0.261908,-0.0295 -1.278741,-0.4407 -2.259628,-0.91376 z"
         id="path857"
         inkscape:connector-curvature="0"
         transform="matrix(0,-0.00122549,-9.4696972e-4,0,1.0576324,1.0685358)" /><path
         style="fill:#112b00;fill-opacity:1;stroke:none;stroke-width:0.7926358;stroke-miterlimit:4;stroke-dasharray:none"
         d="m 94.418979,693.23168 c -0.729501,-0.19294 -1.918417,-1.25437 -2.642033,-2.35875 -1.651951,-2.5212 -9.769364,-6.27598 -10.970735,-5.0746 -1.211685,1.21168 -3.858681,1.02274 -5.922383,-0.42273 -4.074053,-2.85358 -7.516876,-11.42513 -4.588982,-11.42513 1.942103,0 9.89197,-8.70775 16.950538,-18.56649 3.769332,-5.26464 10.515758,-13.34093 14.992056,-17.94731 9.26764,-9.53694 24.52054,-29.51574 30.03468,-39.3405 2.04575,-3.64498 4.74123,-7.35476 5.98996,-8.24393 2.87668,-2.04838 4.083,-4.2872 3.42578,-6.35791 -0.28298,-0.89158 -3.42374,-3.5049 -6.97947,-5.80735 -3.55574,-2.30247 -8.66802,-6.16099 -11.36063,-8.57451 -3.14755,-2.82129 -6.5439,-4.99481 -9.51163,-6.08704 -13.39567,-4.93006 -15.901145,-6.06461 -17.985352,-8.14425 -1.88256,-1.87844 -2.186149,-2.69914 -1.769349,-4.78313 0.751686,-3.75843 3.756196,-6.36031 11.949131,-10.34785 4.06261,-1.97729 13.7432,-7.25131 21.51242,-11.72004 16.45864,-9.46676 28.12413,-15.12815 34.72029,-16.85015 3.81737,-0.99657 5.51705,-2.03309 9.11531,-5.55882 2.43264,-2.3836 8.88156,-7.93565 14.33093,-12.33789 8.17375,-6.6031 10.25479,-7.92703 11.88954,-7.56398 6.31371,1.4022 19.81651,5.39588 19.4575,5.75488 -0.23315,0.23316 -2.92731,0.34273 -5.98701,0.24349 -7.3062,-0.23696 -13.35174,1.55136 -17.05659,5.04549 -2.69615,2.54279 -6.98385,4.41808 -12.69494,5.55232 -4.02971,0.80031 -7.15319,3.23396 -8.88834,6.92532 -1.57785,3.35674 -1.9369,3.60493 -8.20045,5.66854 -9.4718,3.12062 -17.79924,7.2101 -33.76424,16.5811 -13.28405,7.79735 -22.75781,13.12359 -29.89902,16.80949 -1.708155,0.88166 -3.084181,1.93684 -3.057832,2.34484 0.06026,0.93311 2.709772,2.35589 16.071522,8.63035 6.3025,2.95955 13.14397,6.88662 16.64535,9.55458 3.26963,2.49138 6.93839,4.73865 8.15282,4.99394 1.21442,0.2553 3.31386,1.49717 4.66541,2.75971 2.27696,2.12699 2.42348,2.58172 1.99569,6.19372 -0.61572,5.19877 -2.20569,8.05503 -7.34448,13.19382 -3.05065,3.05065 -4.29889,4.91168 -4.29889,6.40931 0,3.39706 -2.75258,8.11327 -8.69439,14.89679 -3.05485,3.4876 -7.65136,9.02226 -10.21446,12.29927 -2.56311,3.27699 -8.1864,9.70837 -12.49621,14.29194 -9.598972,10.20873 -12.891827,14.25189 -15.784891,19.38167 -1.229325,2.17974 -4.336641,6.00302 -6.905147,8.49616 -3.801724,3.69018 -4.622936,4.9382 -4.416823,6.7124 0.158852,1.36738 0.991516,2.55674 2.234778,3.1921 4.368397,2.23246 17.266391,7.3125 20.806689,8.19497 4.271274,1.06468 4.632664,1.68579 1.746135,3.00097 -2.062422,0.93971 -2.918254,1.00247 -5.252252,0.38519 z"
         id="path859"
         inkscape:connector-curvature="0"
         transform="matrix(0,-0.00122549,-9.4696972e-4,0,1.0576324,1.0685358)" /><path
         style="fill:#112b00;fill-opacity:1;stroke:none;stroke-width:0.7926358;stroke-miterlimit:4;stroke-dasharray:none"
         d="m 238.31317,721.13236 c -1.27502,-0.93232 -1.25408,-1.06133 0.30798,-1.89731 0.9218,-0.49334 2.19692,-0.89698 2.83358,-0.89698 3.07499,0 11.99128,-3.47997 13.73385,-5.36023 1.05395,-1.13723 4.41529,-3.03999 7.46965,-4.22836 8.80953,-3.42754 16.42645,-8.4183 23.38303,-15.32102 5.4936,-5.45108 6.51051,-6.87551 6.86161,-9.61138 0.2267,-1.76653 1.70399,-6.00783 3.28287,-9.4251 3.46159,-7.49214 3.69668,-11.22778 0.91467,-14.534 l -1.95601,-2.32459 1.96492,-1.84594 c 3.93947,-3.70094 4.39672,-11.46732 1.02804,-17.46108 l -1.64518,-2.92721 1.8766,-2.54307 c 2.63699,-3.5735 2.36474,-9.51942 -0.82776,-18.07797 -1.34628,-3.60913 -2.44777,-7.45772 -2.44777,-8.55241 0,-2.33863 -2.65667,-7.90845 -4.98344,-10.44802 -5.18926,-5.66387 -8.94951,2.05129 -11.23629,23.05428 -0.67233,6.17497 -1.57817,13.21046 -2.01297,15.63443 -0.43481,2.42396 -0.79056,7.99308 -0.79056,12.37582 0,4.38274 -0.40604,9.8899 -0.90231,12.23814 -0.49626,2.34824 -0.84148,5.6459 -0.76713,7.32814 0.0743,1.68224 -0.27344,3.55092 -0.77282,4.15264 -0.5377,0.64789 -0.70346,2.18417 -0.40648,3.76719 0.37199,1.98292 0.15749,2.95731 -0.83076,3.7737 -1.23821,1.02288 -1.28423,0.62497 -0.65199,-5.63683 1.14087,-11.29926 0.97175,-16.97253 -0.51459,-17.26282 -0.76932,-0.15026 -5.32749,3.71124 -11.43518,9.68743 -5.58576,5.46551 -10.29741,9.79583 -10.4703,9.62293 -0.17289,-0.17289 1.96344,-3.46864 4.7474,-7.32387 15.16951,-21.00677 19.21077,-28.83374 20.62326,-39.94245 0.52391,-4.12033 0.95976,-10.52333 0.96857,-14.22891 0.0156,-6.58496 -0.0269,-6.7374 -1.88351,-6.7374 -1.49066,0 -2.68491,1.22872 -5.54845,5.7086 -33.44907,52.32967 -51.34704,78.38402 -55.89092,81.36129 -3.10333,2.03338 -3.80011,1.64408 -2.52396,-1.41018 1.77201,-4.24102 9.22229,-15.48976 10.12843,-15.29233 1.28414,0.27979 13.84375,-17.74741 27.7394,-39.81521 7.01234,-11.13635 15.21855,-23.76551 18.23602,-28.06481 3.01747,-4.2993 5.34468,-7.95853 5.17159,-8.13162 -0.61488,-0.61487 -13.67459,2.23495 -22.49747,4.90928 -16.87903,5.11627 -36.41062,13.53921 -52.57502,22.67282 -15.36371,8.68119 -56.09893,28.83695 -56.82092,28.11496 -0.47113,-0.47113 12.08499,-8.58233 21.94495,-14.17634 7.48816,-4.24838 27.81428,-15.04535 39.43363,-20.94663 2.49526,-1.2673 3.41686,-2.64398 1.76997,-2.64398 -0.44336,0 -4.94253,0.89433 -9.99818,1.98739 -9.44419,2.0419 -28.2364,5.14634 -31.15249,5.14634 -3.69827,0 -1.25759,-1.3992 4.10841,-2.35529 3.16063,-0.56314 11.45358,-2.44814 18.42878,-4.18887 9.34228,-2.33147 14.59153,-3.21334 19.93233,-3.34862 6.64467,-0.16831 7.67071,-0.41722 12.28586,-2.98047 9.0142,-5.00648 16.40631,-8.5078 36.64513,-17.3572 10.95154,-4.78855 20.26857,-9.07785 20.70452,-9.53179 0.54671,-0.56927 -0.19107,-0.68087 -2.37791,-0.35969 -7.00384,1.02865 -28.80589,2.01118 -47.16182,2.12538 -23.01496,0.14319 -21.95585,0.18766 -20.89105,-0.87714 1.19717,-1.19717 16.23665,-3.70785 25.77846,-4.30343 17.42658,-1.08773 27.24459,-2.16008 29.88764,-3.26442 2.10911,-0.88124 3.34386,-0.95406 5.28946,-0.31196 3.20359,1.05728 6.13475,-0.14249 7.50473,-3.0718 0.5382,-1.15079 1.30603,-7.08595 1.70627,-13.18925 0.80967,-12.34648 1.15623,-14.66376 2.19305,-14.66376 0.39033,0 3.59618,8.82798 7.12411,19.61774 6.80277,20.80542 12.247,33.29115 16.9551,38.88456 1.58055,1.87776 3.23955,4.73124 3.68667,6.34108 1.29175,4.65097 0.9394,19.28376 -0.79575,33.04714 -0.87937,6.97519 -1.82235,16.78406 -2.09552,21.79748 -0.54039,9.91756 -1.42387,12.80736 -6.19657,20.26828 -7.31948,11.44219 -20.13143,21.36296 -35.27063,27.31135 -14.07979,5.53214 -18.93785,6.95314 -20.31883,5.94335 z"
         id="path861"
         inkscape:connector-curvature="0"
         transform="matrix(0,-0.00122549,-9.4696972e-4,0,1.0576324,1.0685358)" /><path
         style="fill:#112b00;fill-opacity:1;stroke:none;stroke-width:0.7926358;stroke-miterlimit:4;stroke-dasharray:none"
         d=""
         id="path863"
         inkscape:connector-curvature="0"
         transform="matrix(0,-0.00122549,-9.4696972e-4,0,1.0576324,1.0685358)" /><path
         style="fill:#112b00;fill-opacity:1;stroke:none;stroke-width:0.7926358;stroke-miterlimit:4;stroke-dasharray:none"
         d=""
         id="path865"
         inkscape:connector-curvature="0"
         transform="matrix(0,-0.00122549,-9.4696972e-4,0,1.0576324,1.0685358)" /><path
         style="fill:#112b00;fill-opacity:1;stroke:none;stroke-width:0.3963179;stroke-miterlimit:4;stroke-dasharray:none"
         d="m 192.24875,556.13313 c -3.70557,-0.75368 -11.87692,-2.22866 -18.15856,-3.27774 -10.77391,-1.79932 -11.52621,-1.8758 -13.27486,-1.34954 -3.27128,0.98451 -3.16195,0.35851 0.12809,-0.73336 8.93348,-2.96476 17.79278,-3.52324 21.7937,-1.37384 4.26504,2.29128 11.07828,5.51867 14.37423,6.80897 4.26155,1.66832 3.6609,1.65912 -4.8626,-0.0745 z"
         id="path867"
         inkscape:connector-curvature="0"
         transform="matrix(0,-0.00122549,-9.4696972e-4,0,1.0576324,1.0685358)" /><path
         style="fill:#112b00;fill-opacity:1;stroke:none;stroke-width:0.3963179;stroke-miterlimit:4;stroke-dasharray:none"
         d="m 260.01121,578.21285 c 0.43687,-0.70687 -9.81358,-5.39503 -20.20431,-9.24066 -8.35384,-3.09177 -16.37566,-5.54018 -26.91922,-8.21626 -5.68643,-1.44328 -8.65152,-2.35524 -7.92635,-2.43789 0.9956,-0.11346 1.1477,-0.28791 1.08142,-1.24032 l -0.0771,-1.1083 1.12786,1.20738 c 1.24654,1.33443 2.88648,1.56593 5.51967,0.7792 1.30252,-0.38916 2.44008,-0.11649 12.48443,2.9925 16.31621,5.05028 22.32975,7.62071 29.85123,12.75961 2.13475,1.45852 4.77307,3.15182 5.86295,3.76289 l 1.98159,1.11103 -1.50958,0.007 c -0.87352,0.004 -1.40971,-0.15442 -1.27255,-0.37636 z"
         id="path869"
         inkscape:connector-curvature="0"
         transform="matrix(0,-0.00122549,-9.4696972e-4,0,1.0576324,1.0685358)" /><path
         style="fill:#112b00;fill-opacity:1;stroke:none;stroke-width:0.3963179;stroke-miterlimit:4;stroke-dasharray:none"
         d="m 272.12624,537.56268 c -4.33794,-9.87088 -11.63501,-19.95382 -19.63717,-27.13421 -6.51341,-5.84453 -16.40861,-12.08722 -24.5841,-15.50963 -2.27159,-0.95093 -4.13439,-1.83731 -4.13955,-1.96974 -0.005,-0.13243 1.07798,-0.35443 2.40699,-0.49334 2.3517,-0.24581 2.46045,-0.21471 4.06226,1.16157 0.90523,0.77778 5.83693,3.52363 10.95934,6.10189 13.05868,6.57281 18.78145,10.5188 22.32604,15.39432 1.12796,1.55147 5.64802,12.4711 9.58946,23.16633 1.11525,3.02628 0.44796,2.53956 -0.98327,-0.71719 z"
         id="path871"
         inkscape:connector-curvature="0"
         transform="matrix(0,-0.00122549,-9.4696972e-4,0,1.0576324,1.0685358)" /><path
         style="fill:#112b00;fill-opacity:1;stroke:none;stroke-width:0.3963179;stroke-miterlimit:4;stroke-dasharray:none"
         d="m 189.15562,747.03388 c -5.81755,-6.47052 -10.18352,-19.56793 -10.18352,-30.54942 0,-3.40484 0.43146,-7.49949 0.79023,-7.49949 0.15455,0 0.38812,1.47133 0.51904,3.26962 0.68446,9.40148 5.07409,23.05755 8.59916,26.75187 3.33238,3.49238 6.15827,3.05604 9.1807,-1.41757 0.68834,-1.01886 1.29333,-1.90829 1.34441,-1.97653 0.0511,-0.0682 1.04765,0.60348 2.2146,1.49271 4.72151,3.59785 10.07485,3.69863 16.78549,0.31599 3.17853,-1.6022 6.14523,-3.62264 12.12355,-8.25658 4.9104,-3.80617 8.70231,-6.42132 8.95068,-6.17295 0.43724,0.43724 -1.41863,4.14071 -2.90147,5.78999 -2.34622,2.60956 -5.2141,4.43799 -14.07726,8.97502 -4.3628,2.23331 -8.08877,4.42486 -9.08217,5.34196 -2.03969,1.88303 -2.5398,1.9142 -8.64536,0.53882 -4.66256,-1.05032 -6.6803,-1.04118 -8.75993,0.0397 -1.04918,0.54529 -3.43885,2.94159 -4.44768,4.46003 l -0.60285,0.90737 z"
         id="path873"
         inkscape:connector-curvature="0"
         transform="matrix(0,-0.00122549,-9.4696972e-4,0,1.0576324,1.0685358)" /><path
         style="fill:#0b280b;fill-opacity:1;stroke:none;stroke-width:0.7926358;stroke-miterlimit:4;stroke-dasharray:none"
         d="m 122.83319,70.793516 c -0.8719,-0.229667 -8.18397,-1.551487 -16.24904,-2.93738 L 91.920391,65.33633 96.279888,64.227783 c 2.397723,-0.609702 6.856302,-1.094716 9.907952,-1.07781 5.04948,0.02797 6.2969,0.399063 13.87112,4.126479 7.34514,3.614677 8.44674,5.011251 2.77423,3.517064 z"
         id="path826"
         inkscape:connector-curvature="0"
         transform="matrix(0,-0.00122549,-9.4696972e-4,0,0.59811972,0.98382685)" /><path
         style="fill:#0b280b;fill-opacity:1;stroke:none;stroke-width:0.28023908;stroke-miterlimit:4;stroke-dasharray:none"
         d="m 136.02734,69.957567 c -0.81263,-1.314861 -6.92637,-7.178732 -11.85612,-11.371562 -2.25941,-1.921665 -4.07085,-3.531107 -4.02542,-3.576539 0.0454,-0.04543 0.92857,0.3876 1.96254,0.962294 1.18487,0.658569 3.19635,2.291757 5.44042,4.417257 1.95826,1.854797 4.22635,3.924235 5.04021,4.59875 1.34282,1.11291 3.3973,3.680253 4.23258,5.289167 0.52045,1.002488 -0.14186,0.736162 -0.79421,-0.319367 z"
         id="path828"
         inkscape:connector-curvature="0"
         transform="matrix(0,-0.00122549,-9.4696972e-4,0,0.59811972,0.98382685)" /></g></g></svg>