<?xml version="1.0" encoding="UTF-8" standalone="no"?>
<!-- Created with Inkscape (http://www.inkscape.org/) -->

<svg
   xmlns:dc="http://purl.org/dc/elements/1.1/"
   xmlns:cc="http://creativecommons.org/ns#"
   xmlns:rdf="http://www.w3.org/1999/02/22-rdf-syntax-ns#"
   xmlns:svg="http://www.w3.org/2000/svg"
   xmlns="http://www.w3.org/2000/svg"
   xmlns:sodipodi="http://sodipodi.sourceforge.net/DTD/sodipodi-0.dtd"
   xmlns:inkscape="http://www.inkscape.org/namespaces/inkscape"
   version="1.1"
   id="svg913"
   width="400.73761"
   height="372.21979"
   viewBox="0 0 400.73761 372.21979"
   sodipodi:docname="1.svg"
   inkscape:version="0.92.2 5c3e80d, 2017-08-06">
  <metadata
     id="metadata919">
    <rdf:RDF>
      <cc:Work
         rdf:about="">
        <dc:format>image/svg+xml</dc:format>
        <dc:type
           rdf:resource="http://purl.org/dc/dcmitype/StillImage" />
        <dc:title></dc:title>
      </cc:Work>
    </rdf:RDF>
  </metadata>
  <defs
     id="defs917" />
  <sodipodi:namedview
     pagecolor="#ffffff"
     bordercolor="#666666"
     borderopacity="1"
     objecttolerance="10"
     gridtolerance="10"
     guidetolerance="10"
     inkscape:pageopacity="0"
     inkscape:pageshadow="2"
     inkscape:window-width="1289"
     inkscape:window-height="811"
     id="namedview915"
     showgrid="false"
     inkscape:zoom="0.95158096"
     inkscape:cx="104.60369"
     inkscape:cy="217.90717"
     inkscape:window-x="0"
     inkscape:window-y="0"
     inkscape:window-maximized="0"
     inkscape:current-layer="svg913"
     fit-margin-top="0"
     fit-margin-left="0"
     fit-margin-right="0"
     fit-margin-bottom="0" />
  <path
     style="fill:#000000;stroke-width:1.33333337"
     d="m 1416.3539,3343.8539 3.6667,-1.0351 v 28.5736 28.5736 c -25.9674,5.2033 -14.6843,-53.0853 -3.6667,-56.1121 z M 77.816211,313.59219 c 2.8988,-1.4944 -42.8742,-23.8582 -43.3975,-31.4176 -0.4391,-6.3419 -1.5333,-9.7067 -4.814,-14.802 -6.0983,-12.5636 -9.7943,-22.4173 -13.7593,-30.3875 -0.6342,-1.2735 -1.1531,-3.4052 -1.1531,-4.7372 0,-1.3321 -2.4649,-7.4903 -5.4774996,-13.6848 -6.4056,-13.1709 -9.7837,-31.2712 -9.6918,-51.9295 0.052,-11.8456 0.3844,-13.3581 5.1184,-23.3333 2.7841,-5.8667 7.1420996,-13.5981 9.6843996,-17.1812 6.5636,-9.8125 9.717,-21.347 16.2936,-30.876501 2.9734,-4.2447 5.4048,-8.6683 5.4029,-9.83 2.5837,-8.6225 6.3263,-20.8839 13.8747,-22.2292 3.0041,-0.5219 9.2029,-1.05 13.7753,-1.1738 4.5723,-0.124 8.5097,-0.4838 8.75,-0.8004 2.6772,-6.9557 5.0925,-14.7806 7.3715,-21.3865 2.1798,-6.3125 4.24,-13.5304 4.5781,-16.0396 1.5164,-11.2523 8.4831,-17.8756996 19.736099,-18.7638996 6.5211,-0.5146 7.8888,-0.1266 13.5874,3.8544 3.485,2.4346996 7.1286,4.4266996 8.097,4.4266996 8.199,-2.1163 15.2764,-7.8688996 23.9878,-7.9999996 3.1417,0 6.2821,-0.5283 6.9788,-1.174 2.7456,-2.5447 21.3878,-5.3827 31.2666,-4.75990002 6.6499,-0.017 13.7878,1.90810002 19.6844,2.69980002 7.6152,1.0078 30.5816,8.1737996 31.6292,9.8688996 8.9305,5.3575 18.1721,11.8058 23.667,18.426 5.2873,7.653 10.5331,-0.3537 16.9173,2.8851 3.6444,1.0474 7.1494,0.6871 9.9757,2.8601 3.5738,2.8111 3.6638,3.1919 2.7956,11.8354 l -0.8968,8.9308 c 12.4426,-1.5974 26.6399,4.2673 35.6607,10.703 7.0797,4.6599 3.9742,13.5082 9.7221,18.9211 6.1763,5.3993 10.9279,23.502701 8.9443,34.076501 -0.9104,4.8524 -0.9329,4.8666 -7.1288,4.4644 -5.2329,-0.3396 -6.6508,-1.0513 -8.9691,-4.5024 -4.9189,-8.9576 -7.6303,-19.442 -10.9469,-28.199601 -5.5405,-14.1457 -9.8588,-17.1424 -24.0264,-20.9461 -4.0079,-1.0467 -7.4404,-2.0948 -7.6277,-2.3291 -2.5712,-4.4145 -3.2274,-5.0641 -5.8014,-1.4662 -1.5369,2.1585 -4.073,7.1756 -5.6356,11.149 -1.5625,3.9735 -3.6468,8.1244 -4.6317,9.2244 -0.9849,1.1 -2.1932,3.6128 -2.6852,5.5842 -6.7423,16.876001 -17.7898,34.476401 -23.9484,50.101601 -2.0923,5.327 -4.6053,10.3505 -5.5845,11.1632 -0.9792,0.8126 -1.7804,2.1004 -1.7804,2.8616 0,0.7613 -3.6008,6.3402 -8.0019,12.3977 -4.4011,6.0575 -9.5659,14.1272 -11.4772,17.9327 -3.7549,7.4758 -5.2648,9.1237 -28.8543,31.4916 -8.6166,8.1704 -15.6666,15.4356 -15.6666,16.1446 0,2.4308 11.0836,0.059 14.7605,-3.1581 1.1516,-1.0077 9.2516,-5.4879 18,-9.956 14.8547,-7.5979 29.6385,-16.6087 38.7792,-21.4488 11.3749,-5.9984 18.3633,-11.7973 31.1391,-25.8395 8.1073,-8.911 35.2685,-34.1144 38.9954,-36.1848 4.5958,-2.5528 10.0656,-2.1369 11.9686,0.91 0.9158,1.4667 2.2709,2.6532 3.0112,2.6367 2.6321,-8.5295 13.0617,-48.607301 8.6478,-14.6895 -0.733,5.6326 8.0848,0.053 9.0419,0.053 0.9569,0 2.0357,-0.7706 2.3972,-1.7126 6.9228,-3.5865 21.3132,1.7443 21.8961,8.5137 0.061,4.4171 -3.1754,11.3411 -7.1685,15.3344 -2.2744,2.2745 -8.6352,9.3095 -14.1352,15.6333 -7.0067,8.0562 -11.9956,12.4711 -16.6667,14.7491 -21.4164,11.8137 -40.921,34.9366 -61,43.6233 -2.0166,0.7991 -3.6666,1.9539 -3.6666,2.566 0,0.6123 -1.2087,1.4967 -2.686,1.9656 -1.4774,0.469 -2.2951,1.4852 -1.8172,2.2586 0.6026,0.9749 0.1266,0.9902 -1.5543,0.049 -2.0071,-1.1232 -3.7477,-0.064 -10.1333,6.1648 -8.5003,8.069 -30.0567,28.7698 -40.9144,29.5208 -0.7019,0 -1.6215,0.9 -2.0436,2 -0.4222,1.1 -2.1934,2 -3.936,2 -1.7427,0 -4.2439,1.1883 -5.5583,2.6405 -4.678,4.9917 -14.3456,2.9789 -18.1828,8.356 -0.4541,0.6951 -2.4037,1.3554 -4.3324,1.4671 -1.9285,0.112 -3.5069,0.9679 -3.5075,1.9028 -5e-4,0.9348 -1.5428,2.2857 -3.4272,3.0023 -6.3325,2.7223 3.0887,5.5944 5.7596,6.3996 3.1167,0.9197 5.6667,2.1798 5.6667,2.8005 0,2.3615 9.6027,3.2584 37.3671,3.4904 23.6658,0.1976 32.3626,-0.2888 49.5769,-2.7728 11.4821,-1.6568 23.8211,-3.9905 27.4199,-5.1859 3.5988,-1.1953 8.2892,-2.3969 10.423,-2.6704 8.4476,-1.0824 30.7967,-9.8708 34.4875,-13.5617 2.1536,-2.1536 2.7983,-4.7753 1.0331,-4.2017 -0.5642,0.1833 -2.7862,-1.049 -4.9375,-2.7383 -3.5076,-2.7543 -3.898,-3.8171 -3.7785,-10.2867 0.1306,-7.0854 2.9582,-13.6676 8.0642,-18.7736 3.1195,-3.1196 8.0086,-10.6276 11.8262,-18.1613 2.9022,-5.7273 3.4718,-8.8016 3.7482,-20.2303 0.231,-9.5497 -0.2009,-14.296 -1.4824,-16.2886 -0.9945,-1.5467 -1.5446,-3.6467 -1.2226,-4.6667 0.322,-1.02 0.9442,-3.4935 1.3828,-5.4968 0.4385,-2.0032 2.6508,-5.7532 4.9161,-8.3333 4.1832,-4.3942 -1.9907,-21.1481 3.3112,-17.2216 2.3379,1.856 25.9271,37.2642 28.2347,44.5305 1.9394,6.1072 3.5633,29.1672 3.2517,46.1795 -0.218,11.9074 0.084,13.9336 2.5381,17.0541 4.0574,5.1581 1.6618,10.0416 -7.2552,14.7897 -20.278,9.8192 -7.9865,14.8062 -9.455,22.396 -1.2856,6.428 -9.2182,13.7112 -22.7828,20.9178 -10.1589,7.544 -30.7215,10.2483 -35.4828,21.0026 -3.0332,7.0464 -13.8438,16.6162 -25.2723,22.3715 -8.9868,4.5256 -24.3123,8.5919 -39.2449,10.4127 -2.9334,0.3577 -7.7115,1.3646 -10.6182,2.2378 -4.0649,1.2211 -8.5328,1.229 -19.356,0.033 -7.7392,-0.8547 -17.7532,-1.8135 -22.2533,-2.1308 -4.5001,-0.3172 -12.29,-1.5555 -17.3107,-2.7518 -5.0206,-1.1961 -10.3285,-2.3476 -11.7952,-2.5588 -1.4666,-0.211 -5.0666,-0.998 -8,-1.7485 -2.9333,-0.7505 -8.6333,-2.2025 -12.6666,-3.2265 -6.3799,-1.6198 -16.2027,-5.4866 -31.5348,-12.414 -2.311,-1.0442 -4.94,-1.8984 -5.8427,-1.8984 -50.344399,-39.5893 -9.4284,-7.5605 -42.165299,-31.7072 z m 162.204399,38.7462 c 2.5667,-0.4517 5.0571,-0.7402 5.5343,-0.641 1.4114,0.2933 19.3282,-3.6186 23.0437,-5.0311 1.8821,-0.7156 3.422,-1.0425 3.422,-0.7265 3.755,-0.2764 7.1034,-2.3708 10.6667,-2.4862 5.354,-3.0961 3.4835,-5.4235 -1.6662,-5.171 -18.664,1.043 -49.7052,1.2436 -53.6816,0.3468 -2.5665,-0.579 -4.9638,-0.5714 -5.3273,0.017 -18.3171,-2.6811 -36.7271,-5.058 -53.9916,-7.2339 -3.3,-0.4158 -10.8,-1.3841 -16.6667,-2.1514 -5.8666,-0.7675 -14.9314,-1.8848 -20.1441,-2.4828 -5.2125,-0.5982 -10.1084,-1.4775 -10.8796,-1.9542 -1.7083,-1.0557 -5.6429,0.3048 -5.6429,1.9514 0,0.6548 0.8886,1.1906 1.9748,1.1906 1.0861,0 5.7361,1.7667 10.3333,3.9262 4.5972,2.1593 14.6585,5.7829 22.3585,8.0525 7.7,2.2696 16.0998,4.7959 18.666,5.6139 21.3928,4.8861 28.2977,2.9282 51.334,7.6106 5.1916,1.0858 11.1379,0.8467 20.6667,-0.8306 z M 47.746711,229.12379 c -0.061,-14.2084 1.8732,-54.1678 3.5418,-73.1579 2.1004,-23.9063 8.0677,-56.999901 12.081,-67.000001 1.5855,-3.9505 -2.922,-2.7511 -7.515,2 -5.2251,5.4047 -7.8339,11.406901 -7.8339,18.023901 0,2.8101 -0.5309,5.6794 -1.1799,6.3761 -0.6489,0.6967 -1.5574,7.1877 -2.0189,14.4247 -1.2994,10.9838 -2.1573,22.9299 -2.0948,32.125 0.075,9.1943 0.1253,17.767 0.1147,19.0503 -0.3102,35.7443 -0.1187,42.1332 1.8144,60.3333 0.1946,1.8334 0.4694,4.8334 0.6104,6.6667 0.247,3.2113 0.2985,3.2293 1.404,0.4912 0.631,-1.5632 1.1153,-10.2632 1.0762,-19.3333 z m 44.2739,14.889 c 0,-1.9869 5.0379,-4.22 9.750099,-4.3218 16.5893,-8.8714 29.0622,-24.5755 44.273,-42.524 9.8804,-14.9722 30.3257,-27.1026 36.7153,-43.2011 1.3968,-3.6667 3.7521,-9.0435 5.234,-11.9485 1.4819,-2.9051 2.6943,-5.975 2.6943,-6.8219 0,-1.7883 21.8856,-45.361301 24.3462,-48.472301 3.8303,-4.8424 19.6538,-35.7349 19.6538,-38.3705 0,-2.2484 3.9077,-10.0857 5.5645,-11.16 2.6053,-1.6896 -0.8345,-5.1577 -9.2003,-9.2763 -10.9668,-5.3988 -14.5502,-6.2828 -34.0222,-8.3922 -12.149,-1.3162 -17.0791,-1.3452 -22,-0.1294 -3.4882,0.8616 -10.8368,1.9603 -16.3304,2.4415 -8.3612,0.7324 -11.4271,1.7296 -18.8183,6.1205 -20.9931,25.2231 -23.5014,52.6926 -33.494,89.009401 -0.8151,3.1166 -1.9808,5.6666 -2.5907,5.6666 -1.9791,3.6056 -2.0305,8.7893 -3.2326,12.6667 -2.764799,8.7977 -7.111499,25.3265 -8.415199,32 -4.8981,22.3239 -10.7284,48.8498 -4.9443,68.8568 1.5392,5.0288 3.2527,9.1432 3.8076,9.1432 0.5551,0 1.0092,-0.5789 1.0092,-1.2864 z m -70.4953,-35.0469 c 1.4496,-2.7203 1.3917,-2.8293 -0.6198,-1.1701 -1.22,1.0065 -2.2182,2.3565 -2.2182,3 0,2.0366 1.1848,1.2728 2.838,-1.8299 z m 0.5186,-5.0379 c 0.4662,-0.7541 0.8255,-10.5041 0.7986,-21.6666 -0.075,-31.256 -0.069,-32.1292 0.2302,-34.8187 0.5027,-4.5103 -2.375,-3.6192 -4.8921,1.5147 -1.3507,2.7546 -2.9128,5.9282 -3.4716,7.0522 -3.0141,6.0635 -2.8451,10.4434 0.6044,15.6559 2.8391,4.2901 3.2261,5.8488 2.1529,8.6713 -1.1802,3.1044 -0.4212,19.9094 1.1127,24.6291 0.2915,0.8972 2.7183,0.1703 3.4649,-1.0379 z M -2523.9794,-1694.7008 c 0,-0.7334 0.9354,-1.3334 2.0787,-1.3334 1.1433,0 1.7079,0.6 1.2546,1.3334 -0.4532,0.7333 -1.3886,1.3333 -2.0786,1.3333 -0.6901,0 -1.2547,-0.6 -1.2547,-1.3333 z m -17.3173,-3.97 c -1.1512,-2.1512 -1.0371,-2.4932 0.6198,-1.8574 1.117,0.4286 2.0308,1.6151 2.0308,2.6367 0,2.6044 -0.9964,2.3114 -2.6506,-0.7793 z m 14.6506,0.6366 c 0.913,-1.1 2.2599,-2 2.9932,-2 0.7438,0 0.5994,0.8844 -0.3265,2 -0.9129,1.1 -2.2598,2 -2.9932,2 -0.7437,0 -0.5994,-0.8843 0.3265,-2 z m -10.6666,-2.0787 c 0,-0.7766 0.6,-1.0412 1.3333,-0.5879 0.7333,0.4532 1.3333,1.0886 1.3333,1.412 0,0.3234 -0.6,0.588 -1.3333,0.588 -0.7333,0 -1.3333,-0.6355 -1.3333,-1.4121 z m -43.083,-8.7551 c -1.3289,-1.7716 -2.9374,-2.8989 -3.5745,-2.5052 -0.637,0.3937 -1.5351,0.106 -1.9957,-0.6392 -0.4607,-0.7453 0.2535,-1.3551 1.5871,-1.3551 1.3335,0 3.2109,1.259 4.1719,2.7978 1.1345,1.8166 2.6497,2.5618 4.3207,2.1248 3.2066,-0.8385 3.3233,-0.082 0.2401,1.5574 -1.7833,0.9481 -2.9028,0.4813 -4.7496,-1.9805 z m 46.9129,1.1672 c -1.6585,-2.1148 -1.6113,-2.1619 0.5034,-0.5035 2.221,1.7419 2.9273,2.8368 1.8299,2.8368 -0.2768,0 -1.3268,-1.05 -2.3333,-2.3333 z m -17.8299,-0.3334 c 0.4532,-0.7333 1.0886,-1.3333 1.412,-1.3333 0.3234,0 0.588,0.6 0.588,1.3333 0,0.7334 -0.6354,1.3334 -1.412,1.3334 -0.7767,0 -1.0412,-0.6 -0.588,-1.3334 z m -53.2764,-5.2412 c -0.4219,-0.6826 -0.1573,-1.6181 0.588,-2.0787 0.7453,-0.4606 1.355,0.098 1.355,1.2412 0,2.3421 -0.8,2.6869 -1.943,0.8375 z m -8.057,-2.7588 c -0.4532,-0.7333 -0.1886,-1.3333 0.588,-1.3333 0.7766,0 1.412,0.6 1.412,1.3333 0,0.7334 -0.2645,1.3334 -0.5879,1.3334 -0.3234,0 -0.9588,-0.6 -1.4121,-1.3334 z m 24,0 c 0.4533,-0.7333 1.0887,-1.3333 1.4121,-1.3333 0.3234,0 0.5879,0.6 0.5879,1.3333 0,0.7334 -0.6354,1.3334 -1.412,1.3334 -0.7766,0 -1.0412,-0.6 -0.588,-1.3334 z m -8.6666,-1.3333 c 0,-0.7333 0.6354,-1.3333 1.412,-1.3333 0.7766,0 1.0412,0.6 0.588,1.3333 -0.4532,0.7333 -1.0887,1.3333 -1.412,1.3333 -0.3234,0 -0.588,-0.6 -0.588,-1.3333 z m -22.6667,-258.6667 c 0,-0.7333 0.6354,-1.3333 1.412,-1.3333 0.7766,0 1.0412,0.6 0.588,1.3333 -0.4532,0.7334 -1.0886,1.3334 -1.412,1.3334 -0.3234,0 -0.588,-0.6 -0.588,-1.3334 z"
     id="path923"
     inkscape:connector-curvature="0"
     sodipodi:nodetypes="cccccccccsccccccccccccccccccccccccccccccccccscccssccscccccccssccccccsccccccsccccccsccccccccccccsccccccccccccccccccccccccccccccccccsscsccccccccsccccccccsccccscscccccccccccsssccsccccccccccsscssscsscssscscssscscscsccccsccssscsssscsssccssscssssssssss" />
  <path
     style="fill:#d40000;fill-opacity:1;stroke:none;stroke-width:1.0508827;stroke-miterlimit:4;stroke-dasharray:none"
     d="m 88.329611,237.57759 c -2.9821,-9.655 -3.6753,-19.6552 -2.2716,-32.7719 1.4486,-13.5361 6.9847,-40.7958 12.0473,-59.3205 1.974499,-7.2248 3.912499,-14.7911 4.306599,-16.8141 0.3942,-2.0229 1.3527,-4.6844 2.1301,-5.9144 0.7773,-1.2299 4.075,-12.741 7.3282,-25.580001 7.3593,-29.0448 9.9095,-36.9644 15.7462,-48.8981 6.138,-12.55 11.4723,-19.4061 17.3419,-22.2896 5.3975,-2.6515 30.0055,-6.595 41.2103,-6.604 17.8021,-0.014 37.8921,4.6032 48.2437,11.0885 6.0577,3.7951 6.3041,4.3311 3.8803,8.4392 -1.1347,1.9232 -3.2205,6.6877 -4.6352,10.5878 -2.7083,7.4667 -11.2907,24.166 -18.8698,36.7156 -5.8599,9.703 -21.4631,40.912501 -25.1659,50.336601 -1.5896,4.0459 -4.9678,11.7312 -7.5071,17.0784 -4.1655,8.7717 -5.8286,10.9291 -17.0127,22.0685 -6.8178,6.7905 -14.7204,15.1838 -17.5614,18.6517 -21.9263,26.7644 -38.5375,42.4996 -47.2454,44.7538 -2.311999,0.5985 -5.484999,2.0051 -7.051199,3.1258 l -2.8477,2.0377 z"
     id="path815"
     inkscape:connector-curvature="0" />
  <path
     style="fill:#d40000;fill-opacity:1;stroke:none;stroke-width:1.0508827;stroke-miterlimit:4;stroke-dasharray:none"
     d="m 214.43251,351.91559 c -4.2707,-0.7793 -14.1949,-2.1624 -22.0539,-3.0735 -7.859,-0.9111 -17.3694,-2.3608 -21.1344,-3.2216 -18.1469,-4.1487 -57.2858,-18.2863 -54.8286,-19.8049 0.6074,-0.3755 7.869,0.2673 16.1368,1.4283 29.4055,4.1292 81.4167,10.7418 92.7977,11.7981 6.7424,0.6257 21.485,0.7895 35.3767,0.3931 23.2237,-0.6629 28.0265,-0.1531 23.1493,2.4571 -3.7452,2.0044 -32.3281,8.517 -44.2723,10.0876 -13.9053,1.8283 -14.8133,1.826 -25.1713,-0.064 z"
     id="path823"
     inkscape:connector-curvature="0" />
  <path
     style="fill:#d40000;fill-opacity:1;stroke:none;stroke-width:1.0508827;stroke-miterlimit:4;stroke-dasharray:none"
     d=""
     id="path825"
     inkscape:connector-curvature="0" />
  <path
     style="fill:#d40000;fill-opacity:1;stroke:none;stroke-width:1.0508827;stroke-miterlimit:4;stroke-dasharray:none"
     d="m 44.436711,235.07249 c -0.4891,-6.2131 -0.8373,-30.2124 -0.7737,-53.3318 0.1159,-42.1599 0.1847,-43.2594 4.5166,-72.1986 0.5799,-3.8742 1.9869,-8.8718 3.1267,-11.106001 2.0137,-3.9472 10.3465,-12.4357 11.2856,-11.4965 0.257,0.2569 -0.4801,3.9586 -1.6379,8.226 -7.5696,27.899701 -11.9228,68.287101 -13.3856,124.186801 -0.375,14.3286 -1.0329,26.2691 -1.4621,26.5344 -0.4292,0.2652 -1.1806,-4.6012 -1.6696,-10.8143 z"
     id="path827"
     inkscape:connector-curvature="0" />
  <path
     style="fill:#d40000;fill-opacity:1;stroke:none;stroke-width:1.0508827;stroke-miterlimit:4;stroke-dasharray:none"
     d="m 18.374711,201.52639 c -0.4003,-1.5948 -0.5941,-8.138 -0.4306,-14.5404 0.2674,-10.4727 0.064,-12.0175 -2.0248,-15.3977 -3.2723,-5.2947 -3.021,-11.1169 0.8071,-18.7003 2.754,-5.4557 5.017,-8.378 5.6105,-7.2453 0.1061,0.2024 -0.044,13.3339 -0.3326,29.1811 -0.3661,20.0743 -0.8858,28.9328 -1.7136,29.2077 -0.6535,0.2171 -1.5157,-0.9102 -1.916,-2.5051 z"
     id="path829"
     inkscape:connector-curvature="0" />
  <path
     style="fill:#d40000;fill-opacity:1;stroke:none;stroke-width:1.0508827;stroke-miterlimit:4;stroke-dasharray:none"
     d="m 175.78511,233.68819 c 0.8371,-1.1952 9.627,-9.9992 19.5331,-19.5646 15.0628,-14.5448 18.8878,-18.8765 23.3674,-26.4635 2.946,-4.9897 8.2516,-13.3281 11.7903,-18.53 8.9699,-13.1859 8.7635,-12.84 12.5172,-20.975 1.8561,-4.0225 8.1347,-17.0272 13.9525,-28.8993 5.8178,-11.8722 11.2204,-23.240901 12.0059,-25.263801 0.7854,-2.023 2.2028,-4.8604 3.1497,-6.3053 0.9468,-1.445 3.0597,-5.7011 4.6951,-9.458 1.6354,-3.7569 3.925,-8.1885 5.0879,-9.8479 2.0926,-2.9863 2.1315,-2.9955 3.7911,-0.8928 0.9929,1.2579 5.4287,3.2528 10.875,4.8909 14.4906,4.3583 18.0758,8.6001 25.6426,30.339001 4.3817,12.5883 8.0925,20.2147 10.4883,21.5554 1.6176,0.9053 1.6098,1.4625 -0.1089,7.812 -2.5362,9.3696 -2.9773,9.9293 -5.688,7.2187 -3.2372,-3.2373 -8.2523,-2.8679 -14.1561,1.0427 -2.714,1.7976 -16.6383,14.6841 -30.9429,28.6365 l -26.0082,25.3681 -15.2135,8.5868 c -14.8662,8.3908 -46.3321,25.6519 -55.5879,30.4936 -2.5544,1.3362 -6.0097,2.4294 -7.6784,2.4294 -2.8575,0 -2.9455,-0.1265 -1.5122,-2.1729 z"
     id="path831"
     inkscape:connector-curvature="0" />
  <path
     style="fill:#d40000;fill-opacity:1;stroke:none;stroke-width:1.0508827;stroke-miterlimit:4;stroke-dasharray:none"
     d="m 188.67081,298.85459 c -2.834,-0.4748 -5.441,-1.3296 -5.7933,-1.8997 -0.3523,-0.57 -3.3537,-2.0516 -6.6697,-3.2922 -3.4707,-1.2986 -6.029,-2.8926 -6.029,-3.7566 0,-0.8255 0.4485,-1.5008 0.9967,-1.5008 0.5482,0 2.2724,-1.1823 3.8315,-2.6272 1.5592,-1.445 3.6537,-2.6272 4.6545,-2.6272 1.0008,0 2.4053,-0.7057 3.121,-1.5682 0.7158,-0.8624 4.4952,-2.5192 8.3988,-3.6817 3.9035,-1.1625 8.2229,-2.9962 9.5988,-4.0748 1.3758,-1.0786 3.9989,-2.2881 5.8291,-2.6878 1.8301,-0.3996 3.5791,-1.3822 3.8866,-2.1836 0.3076,-0.8014 2.4305,-1.9609 4.7178,-2.5768 5.5946,-1.5065 14.8315,-7.8168 25.8407,-17.6535 17.1945,-15.3634 20.569,-18.045 22.0108,-17.4917 0.7947,0.3049 2.7393,-0.6451 4.3212,-2.1112 1.5819,-1.4661 6.2485,-4.5419 10.3702,-6.8351 4.1217,-2.2932 11.9864,-7.72 17.4773,-12.0594 23.9359,-18.9167 32.8569,-25.6258 39.9738,-30.0627 5.422,-3.3803 10.3191,-7.829 17.1713,-15.5986 l 9.586,-10.8696 0.3198,5.4157 c 0.2704,4.5793 -0.173,6.1598 -2.8707,10.2325 -3.6397,5.495 -4.9059,10.6058 -3.6605,14.7754 0.4723,1.5814 0.8788,9.4959 0.9035,17.5877 l 0.045,14.7123 -3.9383,7.3562 c -2.166,4.0459 -5.8102,9.7207 -8.0983,12.6106 -8.3143,10.5013 -9.975,14.069 -10.3928,22.3279 -0.3759,7.4286 -0.3024,7.6931 2.9931,10.7716 1.8582,1.7358 4.023,3.1559 4.8107,3.1559 2.5866,0 0.3275,3.1345 -4.1421,5.7472 -13.719,8.0196 -48.7271,16.9885 -80.0066,20.4975 -11.096,1.2448 -61.7748,1.2213 -69.2567,-0.032 z"
     id="path833"
     inkscape:connector-curvature="0" />
  <path
     style="fill:#550000;fill-opacity:1;stroke:none;stroke-width:1.0508827;stroke-miterlimit:4;stroke-dasharray:none"
     d="m 216.23071,370.35469 c -26.4406,-2.8133 -56.5985,-9.6673 -73.9974,-16.8172 -5.7264,-2.3532 -13.0127,-5.2971 -16.1916,-6.5419 -3.4088,-1.3348 -11.674,-6.8113 -20.1476,-13.3499 -23.426399,-18.0767 -33.407899,-25.078 -51.763299,-36.3079 -15.0749,-9.2229 -19.0693,-13.0126 -19.8696,-18.8516 -0.3579,-2.6111 -2.4796,-8.4227 -4.7149,-12.9147 -5.7992,-11.6538 -13.622,-29.6879 -14.4832,-33.3884 -0.4036,-1.734 -2.5512,-7.3064 -4.7726,-12.3832 -7.4049996,-16.9231 -10.9723996,-36.6493 -10.1827996,-56.3069 0.3774,-9.3979 0.7603,-10.9503 4.7514,-19.2681 2.3875,-4.9756 6.0954996,-11.7895 8.2398996,-15.1418 2.1445,-3.3523 6.4148,-11.1999 9.4895,-17.439 3.0748,-6.2392 7.2658,-14.063801 9.3134,-17.388001 2.0476,-3.3242 4.9185,-9.5675 6.3798,-13.874 2.8095,-8.2796 5.977,-13.7182 9.1404,-15.6937 1.0529,-0.6576 6.2866,-1.457 11.6304,-1.7764 5.3439,-0.3194 10.6818,-0.7714 11.8621,-1.0043 1.7744,-0.3501 3.1709,-3.6586 8.0668,-19.1114 3.2564,-10.2784 6.4284,-20.6338 7.0488,-23.012 2.314,-8.8707 9.5616,-14.0007996 19.839599,-14.0433996 4.6537,-0.019 6.7127,0.6633 12.4639,4.132 l 6.8893,4.1551996 5.4011,-2.1396 c 12.0317,-4.7660996 16.5437,-6.1706996 19.8244,-6.1711996 1.8929,-3e-4 5.8347,-0.9101 8.7597,-2.0219 8.0797,-3.07090002 24.1003,-4.53870002 34.8966,-3.19700002 30.3741,3.77440002 49.8069,11.90569962 65.9152,27.58089962 l 6.3145,6.1447 5.2617,-0.6353 c 6.9935,-0.8444 15.9929,1.1698 19.0976,4.2745 2.0759,2.0759 2.379,3.1946 1.8881,6.9695 -0.3216,2.4732 -0.8079,6.2701 -1.0806,8.4376 l -0.4959,3.9408 h 5.0461 c 6.7416,0 15.651,2.4175 23.4869,6.373 8.4518,4.2665 10.8345,6.8197 12.8571,13.7771 0.9246,3.1805 3.0905,7.5563 4.8132,9.724 4.5626,5.7412 7.6193,14.642201 8.2127,23.915301 0.7079,11.06 -10e-4,13.4671 -3.9688,13.4671 -2.7801,0 -3.1326,0.3547 -3.1326,3.1526 0,4.0524 2.4298,4.1579 9.8308,0.4268 5.9567,-3.0029 11.558,-2.97 17.5004,0.1029 6.9098,3.5732 7.3614,9.2239 1.435,17.957 -1.7265,2.544 -2.3971,4.4901 -1.8241,5.2929 14.2446,19.9551 26.0076,39.1894 27.5877,45.1099 1.4689,5.5037 3.2477,30.2614 3.2595,45.3659 0.01,9.9933 0.3619,12.5202 2.3188,16.548 l 2.3095,4.7536 -2.1361,2.8934 c -1.1749,1.5913 -5.296,4.8094 -9.1581,7.1512 -3.8621,2.3418 -7.7723,5.3291 -8.6894,6.6385 -1.6293,2.3261 -1.6157,2.8909 0.2867,11.975 0.3346,1.5975 0.017,4.3329 -0.7064,6.0786 -2.7676,6.6816 -18.1188,17.2031 -36.6653,25.1301 -13.3362,5.7 -16.4665,7.8571 -20.4591,14.0986 -5.123,8.0086 -15.6247,17.0068 -25.3489,21.72 -8.5012,4.1203 -20.3119,7.2862 -42.5607,11.4083 -13.9393,2.5826 -15.5524,2.5861 -39.0696,0.084 z m 22.7757,-17.3328 c 14.9922,-1.87 43.3715,-8.5508 46.0061,-10.8305 3.9862,-3.449 0.4434,-3.8678 -33.1803,-3.9227 -25.3152,-0.041 -35.1823,-0.4487 -43.2962,-1.7872 -14.1884,-2.3406 -85.2503,-11.6224 -89.8261,-11.7327 -2.6843,-0.065 -3.7503,0.3998 -4.0178,1.751 -0.2157,1.0892 0.2719,1.839 1.196,1.839 0.8582,0 5.4234,1.6535 10.1451,3.6745 9.6773,4.142 34.8701,12.302 45.1964,14.6391 3.757,0.8503 13.6122,2.3181 21.9007,3.2619 8.2885,0.9437 18.4557,2.3354 22.594,3.0925 9.9185,1.8148 8.8581,1.8141 23.2821,0.015 z m 21.5547,-53.5481 c 41.3347,-4.8549 84.0642,-18.3194 84.0642,-26.4895 0,-0.7662 -0.6731,-1.3931 -1.4957,-1.3931 -0.8226,0 -2.9507,-1.2243 -4.729,-2.7207 -2.9425,-2.476 -3.2332,-3.2821 -3.2332,-8.9662 0,-7.835 1.6488,-11.795 8.3635,-20.0872 2.9319,-3.6208 7.3301,-10.3663 9.7737,-14.9902 l 4.443,-8.4071 -0.1941,-15.2378 c -0.1067,-8.3808 -0.3401,-17.6136 -0.5186,-20.5174 -0.2751,-4.4763 0.1952,-6.0892 3.0909,-10.6008 2.8247,-4.4009 3.4154,-6.3505 3.4154,-11.2718 0,-3.2728 -0.4003,-5.9506 -0.8894,-5.9506 -0.4892,0 -5.5326,5.0071 -11.2076,11.1269 -7.8852,8.5033 -13.0648,12.9415 -21.9672,18.8227 -6.4071,4.2328 -16.5808,11.7752 -22.6083,16.7611 -14.9874,12.3974 -23.7142,18.7166 -30.5508,22.1223 -3.1789,1.5836 -6.5847,3.6501 -7.5684,4.5922 -3.6831,3.5273 -5.0097,4.3401 -7.0832,4.3401 -1.2309,0 -6.8356,4.324 -13.2808,10.2461 -14.0616,12.9204 -25.8834,21.8362 -31.9679,24.1097 -2.6009,0.9719 -5.8568,2.6244 -7.2352,3.6724 -1.3784,1.0479 -3.1619,1.9054 -3.9633,1.9054 -0.8014,0 -3.2204,1.1369 -5.3754,2.5264 -2.1551,1.3896 -6.5756,3.2764 -9.8234,4.1929 -3.2478,0.9166 -6.4725,2.3502 -7.1661,3.1859 -0.6935,0.8357 -2.5287,1.8132 -4.0783,2.1723 -3.9148,0.9073 -10.0685,6.3286 -9.3396,8.2282 0.3229,0.8413 2.8683,2.3716 5.6564,3.4006 2.7882,1.0291 5.8694,2.5485 6.8471,3.3766 2.8598,2.422 11.2776,3.1222 39.2132,3.2616 17.2493,0.086 30.7898,-0.3988 39.4081,-1.411 z M 48.433711,221.42009 c 1.7745,-59.6686 5.3514,-93.8668 12.9409,-123.725901 1.4658,-5.7666 2.665,-10.6138 2.665,-10.7716 0,-0.1577 -0.9293,-0.2868 -2.0652,-0.2868 -2.9751,0 -9.0009,5.673 -11.4922,10.8192 -2.1326,4.405501 -3.0855,9.219301 -5.9709,30.165201 -2.1649,15.7156 -3.1357,75.7474 -1.5888,98.2576 1.4781,21.5111 2.0462,25.2711 3.5854,23.7319 0.6911,-0.6911 1.4294,-11.4993 1.9258,-28.1896 z m 44.3429,22.3665 c 0.3235,-0.8429 3.1689,-2.2828 6.3233,-3.1997 9.946599,-2.8916 25.270599,-16.4565 42.704999,-37.8026 3.7569,-4.5999 13.2481,-14.9996 21.0915,-23.1106 7.8434,-8.1109 15.5147,-16.894 17.0473,-19.5179 1.5325,-2.624 5.8727,-11.9939 9.6448,-20.8221 7.3575,-17.2195 19.0743,-40.876101 25.3198,-51.121601 6.8465,-11.2313 17.1559,-31.4217 19.8748,-38.9236 1.4582,-4.0234 3.5972,-8.5965 4.7534,-10.1626 2.8936,-3.9192 2.7148,-4.5773 -2.2129,-8.147 -7.3903,-5.3535 -19.2508,-9.2282 -34.1148,-11.1449 -14.5622,-1.8778 -22.8805,-1.6703 -41.8503,1.0438 -16.3486,2.3391 -21.1425,4.7882 -27.1409,13.8653 -10.2937,15.5772 -13.902,25.1688 -23.0359,61.2346 -3.4433,13.596201 -6.7329,25.289601 -7.3103,25.985301 -2.0475,2.4671 -13.380799,48.6354 -16.845199,68.6219 -2.9667,17.1159 -3.176,35.8394 -0.5001,44.7508 2.8957,9.6432 4.8033,12.2224 6.2505,8.4509 z m 101.104399,-13.9411 c 63.4307,-34.8529 67.8853,-37.7203 79.954,-51.4668 6.7549,-7.6939 33.2752,-32.5974 39.6842,-37.2649 5.2413,-3.817 9.5645,-3.8799 13.4106,-0.1952 l 2.9117,2.7896 1.0672,-2.8069 c 0.5869,-1.5437 1.8851,-5.8766 2.8849,-9.6286 l 1.8177,-6.8217 -2.3297,-1.6318 c -3.119,-2.1847 -4.6998,-5.4493 -10.7942,-22.2922 -2.8445,-7.861301 -6.3464,-16.068201 -7.7821,-18.237601 -3.2092,-4.8494 -9.261,-8.4471 -19.0409,-11.3193 -4.0981,-1.2036 -8.2804,-3.1047 -9.294,-4.2247 -1.0136,-1.12 -2.4844,-1.7902 -3.2685,-1.4894 -0.784,0.3009 -4.222,6.2985 -7.6399,13.3279 -25.7061,52.868801 -32.7723,67.662001 -32.7723,68.609001 0,1.1937 -2.3695,5.0138 -15.2364,24.5644 -4.7549,7.2248 -9.714,15.2641 -11.0202,17.865 -1.5627,3.1118 -9.3385,11.524 -22.7382,24.5991 -11.1999,10.9286 -20.3635,20.5662 -20.3635,21.417 0,3.1882 8.6341,0.7542 20.5496,-5.7929 z M 23.031811,207.22459 c 0.047,-1.5847 -2.0011,-0.7283 -3.5513,1.4849 -2.2346,3.1903 -0.7515,4.8688 1.5999,1.8107 1.0604,-1.3791 1.9386,-2.8621 1.9514,-3.2956 z m -0.2232,-32.5774 c 0.3183,-34.4881 -0.061,-35.8096 -6.5709,-22.8829 -4.3932,8.7236 -4.8051,14.4844 -1.4298,19.993 1.9798,3.2309 2.228,5.0463 2.0422,14.9322 -0.2788,14.8316 0.481,18.9122 3.4427,18.4897 2.2153,-0.316 2.2396,-0.612 2.5158,-30.532 z"
     id="path835"
     inkscape:connector-curvature="0" />
</svg>
