<?xml version="1.0" encoding="UTF-8" standalone="no"?>
<!-- Created with Inkscape (http://www.inkscape.org/) -->

<svg
   xmlns:dc="http://purl.org/dc/elements/1.1/"
   xmlns:cc="http://creativecommons.org/ns#"
   xmlns:rdf="http://www.w3.org/1999/02/22-rdf-syntax-ns#"
   xmlns:svg="http://www.w3.org/2000/svg"
   xmlns="http://www.w3.org/2000/svg"
   xmlns:sodipodi="http://sodipodi.sourceforge.net/DTD/sodipodi-0.dtd"
   xmlns:inkscape="http://www.inkscape.org/namespaces/inkscape"
   version="1.1"
   id="svg913"
   width="709.00256"
   height="1638.6375"
   viewBox="0 0 709.00256 1638.6374"
   sodipodi:docname="2.svg"
   inkscape:version="0.92.2 5c3e80d, 2017-08-06">
  <metadata
     id="metadata919">
    <rdf:RDF>
      <cc:Work
         rdf:about="">
        <dc:format>image/svg+xml</dc:format>
        <dc:type
           rdf:resource="http://purl.org/dc/dcmitype/StillImage" />
        <dc:title></dc:title>
      </cc:Work>
    </rdf:RDF>
  </metadata>
  <defs
     id="defs917" />
  <sodipodi:namedview
     pagecolor="#ffffff"
     bordercolor="#666666"
     borderopacity="1"
     objecttolerance="10"
     gridtolerance="10"
     guidetolerance="10"
     inkscape:pageopacity="0"
     inkscape:pageshadow="2"
     inkscape:window-width="1289"
     inkscape:window-height="811"
     id="namedview915"
     showgrid="false"
     inkscape:zoom="0.16821734"
     inkscape:cx="301.7582"
     inkscape:cy="584.58502"
     inkscape:window-x="0"
     inkscape:window-y="0"
     inkscape:window-maximized="0"
     inkscape:current-layer="svg913"
     fit-margin-top="0"
     fit-margin-left="0"
     fit-margin-right="0"
     fit-margin-bottom="-1.6" />
  <path
     style="fill:#550000;stroke-width:1.33333337"
     d="m 333.46684,0.01420543 c -8.7342,-0.40982 -19.6761,8.01376997 -33.1836,29.67968957 -66.4239,-40.84878 -59.9685,27.45523 -25.3008,76.664065 -79.3149,-15.729645 18.8404,61.05113 -1.3262,89.38867 -35.7593,-0.59 -44.3798,35.15422 10.9336,44.16211 -14.3094,17.36256 -39.957,63.95036 1.8184,81.95117 45.1305,-37.47146 61.4951,125.65291 31.4804,216.6329 -56.3475,-2.5623 -139.358,15.40955 -184.1484,66.15045 -31.0544,46.8266 -10.1486,71.07971 -99.285102,131.08201 -81.312101,162.641 -2.8844,346.88103 72.177702,496.39263 27.4154,50.0272 448.9193,342.1159 554.5762,-145.3672 15.8098,-135.18583 98.9828,-303.83913 0.2773,-421.25783 -52.0952,-9.0989 -112.8421,30.7858 -173.3066,11.8105 -32.1881,-6.2265 -117.3888,-31.51561 -44.793,-54.47651 73.106,-158.09345 161.6404,-1.1436 218.0996,42.66601 -2.2715,-50.34001 -60.1811,-93.72821 -157.0547,-160.48446 -72.9426,64.51635 -56.9039,130.69965 -72.9414,64.51565 -42.5381,-58.09085 -66.0348,-151.57464 -48.416,-214.43954 105.6996,-58.28714 -54.0872,-28.50593 -10.6836,-76.27148 98.2155,-16.14252 4.0157,-37.46077 -13.4531,-64 17.5576,-8.6164 62.1921,-50.47037 12.6777,-61.84375 76.7232,-18.93937 64.5034,-98.716425 -9.1914,-77.189465 -2.459,-37.07117 -11.0782,-74.92671957 -28.957,-75.76561957 z M 278.58984,572.16666 c 20.2709,-0.2255 36.37,7.2571 41.9277,28.5117 -40.2989,15.1867 -112.3931,38.9816 -126.8085,99.48051 -30.8083,182.2541 -75.0482,373.95683 -28.0704,558.33403 l -0.3808,4.332 C 81.259937,1150.46 27.976338,1004.8851 27.525438,863.62177 6.0191374,751.44567 126.16334,720.31017 147.73634,623.65296 c 0,0 79.0501,-50.9099 130.8535,-51.4863 z m 30.9102,38.7149 c 0.3849,-0.025 0.9105,0.029 1.6054,0.2011 -0.1688,4.1131 -4.3002,-0.024 -1.6054,-0.2011 z m -64.9317,19.9218 c -0.2968,-0.034 -0.7787,0.3165 -1.498,1.3555 1.2596,3.8085 2.5582,-1.2325 1.498,-1.3555 z m 48.1524,15.5957 c 74.2916,0.3999 113.513,167.72341 195.4023,71.46101 -223.0347,-6.2245 213.9166,-70.66221 186.9297,42.9668 0.09,159.7727 -37.8382,332.71023 -83.9004,476.53513 -57.6986,63.2247 -151.2471,76.3651 -229.416,88.7403 -29.2449,5.1617 -56.0003,-6.4541 -83.3652,-11.9493 -33.7885,12.3143 34.1374,-233.7012 -1.2774,-343.40433 -19.2372,-102.1877 -123.0537,-238.3394 -11.0234,-317.46281 9.4068,-4.8429 18.2522,-6.932 26.6504,-6.8868 z m 404.709,69.13091 c -0.4133,-0.062 -0.9733,0.074 -1.6934,0.5508 2.5279,3.7211 3.484,-0.2816 1.6934,-0.5508 z m -494.752,132.5508 c 11.9342,0.2547 26.7007,43.9269 42.8848,120.0781 21.5157,37.86813 21.9581,206.02173 -0.072,330.39453 -110.7941,-32.2111 -62.7357,-242.5735 -67.2969,-334.94533 5.1016,-80.0011 13.619,-115.7592 24.4844,-115.5273 z"
     id="path923"
     inkscape:connector-curvature="0"
     sodipodi:nodetypes="scccccccccccccccccccccsccccccccccccccscccccccsccccccccc" />
  <path
     style="fill:#800000;fill-opacity:1;stroke:none;stroke-width:2.10176539;stroke-miterlimit:4;stroke-dasharray:none"
     d="m 229.49054,1290.5534 c -28.3296,-16.2536 -45.2137,-47.0709 -52.5235,-95.8669 -4.0485,-27.0249 -4.0573,-93.7151 -0.021,-156.5816 1.67,-26.0093 3.0637,-57.22053 3.0971,-69.35823 0.1247,-45.3531 10.2517,-107.8115 18.8795,-116.4393 3.4766,-3.4766 4.5638,-3.6533 7.4975,-1.2186 8.5945,7.1328 18.5204,34.5961 32.649,90.3349 4.5418,17.9176 10.0497,39.198 12.24,47.2897 11.8745,43.87073 12.4087,161.08493 1.1637,255.36463 -4.5263,37.9488 -7.3229,52.5468 -10.0624,52.5244 -1.3263,-0.011 -7.1404,-2.7329 -12.9202,-6.049 z"
     id="path2122"
     inkscape:connector-curvature="0"
     sodipodi:nodetypes="ccccsccccccc" />
  <path
     style="fill:#800000;fill-opacity:1;stroke:none;stroke-width:2.10176539;stroke-miterlimit:4;stroke-dasharray:none"
     d="M 142.26624,1227.0359 C 86.492337,1141.5899 49.558037,1044.6227 35.104538,945.69347 c -4.7193,-32.3022 -9.4247,-110.1791 -7.5231,-124.5137 3.5888,-27.0534 17.833999,-51.7809 51.809299,-89.9326 45.189003,-50.7439 53.831203,-62.8988 64.191303,-90.28301 l 6.7237,-17.772 23.8291,-13.2675 c 55.8989,-31.1232 103.9131,-43.1934 127.1237,-31.9573 8.045,3.8945 17.557,14.8582 17.557,20.2364 0,1.1135 -9.2215,5.6107 -20.4922,9.9938 -11.2707,4.3832 -27.4313,11.6414 -35.9124,16.1294 -8.4811,4.4879 -16.2839,7.626 -17.3396,6.9736 -1.0556,-0.6524 -1.9194,0.084 -1.9194,1.6373 0,1.5529 -2.6197,4.371 -5.8215,6.2624 -8.0555,4.7585 -27.6304,25.04111 -33.4657,34.67561 -8.0572,13.3028 -10.5149,23.8157 -24.713,105.7119 -27.3891,157.9824 -33.5491,213.5121 -33.574,302.65423 -0.019,66.8577 2.5137,96.0163 12.7502,146.8112 2.8773,14.2778 4.8188,26.3723 4.3144,26.8767 -0.5044,0.5045 -9.6737,-12.4979 -20.3761,-28.894 z"
     id="path2124"
     inkscape:connector-curvature="0"
     sodipodi:nodetypes="cccsccscscccsccscccc" />
  <path
     style="fill:#800000;fill-opacity:1;stroke:none;stroke-width:2.10176539;stroke-miterlimit:4;stroke-dasharray:none"
     d="m 302.37164,1318.938 c -15.5829,-3.7878 -28.8528,-8.1489 -29.918,-9.8325 -3.4122,-5.3927 -2.0989,-39.9048 3.3161,-87.144 21.7702,-189.9203 19.2836,-218.1694 -31.2861,-355.43543 -26.2687,-71.3037 -32.8561,-107.7569 -25.6315,-141.8406 4.5424,-21.4301 14.296,-38.6162 31.6056,-55.6898 23.6864,-23.36351 41.4526,-27.03521 68.3578,-14.12721 8.9728,4.30481 20.026,14.15581 49.3915,44.01911 30.1217,30.6325 40.1876,39.5595 49.3915,43.803 14.4768,6.6746 28.8878,7.023 41.331,0.9994 8.9376,-4.3266 30.129,-21.8628 30.129,-24.9322 0,-0.8751 -10.6402,-2.2353 -23.6449,-3.0229 -40.2853,-2.4395 -48.7567,-7.1104 -23.531,-12.9744 48.0404,-11.1673 146.0678,-8.7604 186.8701,4.5883 24.2808,7.9436 41.3172,20.626 44.9911,33.4926 1.9713,6.9039 -0.4095,78.3095 -3.9548,118.6135 -9.4775,107.7423 -32.7693,223.51173 -69.7716,346.79133 -7.7907,25.9562 -9.3439,29.2323 -18.2278,38.4493 -34.7707,36.0742 -91.574,58.887 -186.816,75.027 -46.4045,7.8639 -57.4059,7.7707 -92.602,-0.7845 z"
     id="path2126"
     inkscape:connector-curvature="0"
     sodipodi:nodetypes="cccscsccscsccscscccc" />
  <path
     style="fill:#800000;fill-opacity:1;stroke:none;stroke-width:2.10176539;stroke-miterlimit:4;stroke-dasharray:none"
     d="m 477.49884,673.57747 c -34.698,-8.9486 -57.5729,-19.40601 -60.7904,-27.79051 -2.1562,-5.6191 4.187,-12.5431 16.0136,-17.4799 10.3303,-4.3122 11.8427,-5.9021 20.6065,-21.6637 23.179,-41.6872 50.7563,-58.47775 80.2784,-48.8778 22.2027,7.2198 34.9166,17.1325 80.0435,62.4076 l 43.6739,43.81751 h -14.9708 c -9.1242,0 -31.2337,3.2832 -56.6138,8.407 -54.0213,10.9061 -69.8585,11.0787 -108.2409,1.1798 z"
     id="path2128"
     inkscape:connector-curvature="0"
     sodipodi:nodetypes="ccsscccscc" />
  <path
     style="fill:#338000;fill-opacity:1;stroke:none;stroke-width:2.97234511;stroke-miterlimit:4;stroke-dasharray:none"
     d=""
     id="path2186"
     inkscape:connector-curvature="0" />
  <path
     style="fill:#338000;fill-opacity:1;stroke:none;stroke-width:2.97234511;stroke-miterlimit:4;stroke-dasharray:none"
     d=""
     id="path2188"
     inkscape:connector-curvature="0" />
  <path
     style="fill:#338000;fill-opacity:1;stroke:none;stroke-width:2.97234511;stroke-miterlimit:4;stroke-dasharray:none"
     d=""
     id="path2192"
     inkscape:connector-curvature="0" />
  <g
     id="g2275"
     transform="translate(-1452.0209,-511.77459)">
    <path
       inkscape:connector-curvature="0"
       id="path2180"
       d="m 1691.2841,2086.6205 c -72.9302,-109.3091 -102.9555,-163.8033 -129.379,-234.8152 -11.0399,-29.6691 -17.1618,-140.0383 -15.5606,-144.8421 0.4651,-1.3952 20.3702,57.7062 58.7651,76.8436 l 69.8088,34.7952 101.0597,36.4551 101.0598,-17.047 81.7394,-26.931 c 77.0063,-25.3715 54.3493,-42.6416 84.3959,-61.9426 36.3875,-23.3741 22.6165,-49.7056 22.5891,-44.0373 -0.032,6.551 30.5321,104.8722 15.9399,149.6784 -25.2529,77.5407 -58.5468,150.7323 -93.8078,206.2226 -9.993,15.726 -22.5705,35.9492 -27.95,44.9406 -15.5592,26.0057 -17.8624,28.5167 -32.9522,35.9254 -13.7853,6.7682 -17.4031,7.069 -103.1828,8.58 l -88.8965,1.5659 z m 184.3842,-68.4495 c 20.9348,-15.3676 55.5987,-53.3646 76.1939,-83.5203 30.2833,-44.3414 74.6753,-124.5666 70.9753,-128.2667 -2.934,-2.934 -33.1254,7.9631 -61.7143,22.2747 -20.9573,10.4912 -32.2742,18.639 -48.2972,34.7721 -31.8492,32.0681 -42.8811,59.1812 -49.0884,120.6438 -1.7335,17.1653 -3.8227,34.2191 -4.6425,37.8974 -1.9884,8.9206 -0.1977,8.5099 16.5732,-3.801 z m -217.3651,-109.8956 c -47.0499,-86.3258 -55.18,-99.5692 -61.1256,-99.5692 -14.2699,0 -11.9177,21.6611 5.8098,53.5023 22.93,41.1853 106.2304,155.6957 108.4396,149.0682 0.6292,-1.8876 -23.2765,-48.2382 -53.1238,-103.0013 z m 139.403,92.4153 c 14.324,-15.5397 24.3564,-34.4794 32.8433,-62.0034 6.9689,-22.6005 19.4942,-85.1435 17.4591,-87.1786 -2.5023,-2.5023 -69.0976,2.0595 -94.323,-1.2224 -41.8398,-5.4435 -55.7631,-13.5152 -51.4431,13.6073 1.8174,11.4103 42.5022,94.2647 64.487,131.3273 6.0608,10.2174 12.7915,18.5772 14.9571,18.5772 2.1657,0 9.3745,-5.8984 16.0196,-13.1074 z m -88.5977,-71.5806 c -8.2829,-24.0748 -33.1569,-75.8187 -36.447,-75.8187 -4.5413,0 0.048,13.6123 15.9695,47.3656 21.6317,45.8592 30.894,58.7289 20.4775,28.4531 z"
       style="fill:#225500;fill-opacity:1;stroke:none;stroke-width:2.97234511;stroke-miterlimit:4;stroke-dasharray:none"
       sodipodi:nodetypes="sccscccsccssccscscccssccccscccccssscsccscc" />
    <g
       id="g2265">
      <path
         style="fill:#338000;fill-opacity:1;stroke:none;stroke-width:2.97234511;stroke-miterlimit:4;stroke-dasharray:none"
         d="m 1861.9656,2019.4054 c 0.8759,-3.9014 3.0162,-20.7631 4.7563,-37.4704 5.3194,-51.0752 14.2881,-77.2465 35.1043,-102.4369 17.0727,-20.6604 37.4769,-37.2011 59.5095,-48.2415 22.4424,-11.2458 56.3656,-24.0641 58.3729,-22.0568 2.0905,2.0905 -41.7381,81.0175 -62.4472,112.4556 -23.5181,35.7022 -54.0484,70.852 -78.1528,89.9777 -16.5121,13.1017 -18.5466,14.024 -17.143,7.7723 z"
         id="path2182"
         inkscape:connector-curvature="0" />
      <path
         style="fill:#338000;fill-opacity:1;stroke:none;stroke-width:2.97234511;stroke-miterlimit:4;stroke-dasharray:none"
         d="m 1776.7669,2005.5285 c -5.9102,-6.8306 -46.926,-82.6772 -59.8226,-110.6242 -29.1796,-63.2326 -12.0781,-72.5846 92.0799,-50.3541 16.5406,3.5303 31.5678,7.3421 33.3938,8.4706 7.0127,4.3341 -12.8385,89.6406 -27.6712,118.9115 -8.1447,16.0726 -20.4665,31.6937 -28.312,35.8924 -3.8263,2.0479 -6.4479,1.4252 -9.6679,-2.2962 z"
         id="path2184"
         inkscape:connector-curvature="0" />
      <path
         style="fill:#338000;fill-opacity:1;stroke:none;stroke-width:2.97234511;stroke-miterlimit:4;stroke-dasharray:none"
         d="m 1688.2939,1894.9043 c -2.0749,-5.0092 -3.1037,-9.7765 -2.2863,-10.5939 0.8174,-0.8174 3.1838,2.6123 5.2587,7.6215 2.0749,5.0092 3.1037,9.7764 2.2863,10.5938 -0.8174,0.8174 -3.1838,-2.6122 -5.2587,-7.6214 z"
         id="path2190"
         inkscape:connector-curvature="0" />
      <path
         style="fill:#338000;fill-opacity:1;stroke:none;stroke-width:1.0508827;stroke-miterlimit:4;stroke-dasharray:none"
         d="m 1697.3945,1994.5115 c -35.1311,-44.2687 -72.5683,-97.4177 -89.4534,-126.9955 -14.9418,-26.1736 -21.503,-45.9252 -17.6483,-53.1278 0.5951,-1.112 2.5228,-2.7668 4.2836,-3.6774 2.8325,-1.4647 3.4736,-1.4773 5.5609,-0.1097 3.9145,2.5649 9.1887,11.7335 52.6892,91.594 47.701,87.572 56.6546,104.4435 55.8529,105.2452 -0.3143,0.3142 -5.3924,-5.5037 -11.2849,-12.9288 z"
         id="path2194"
         inkscape:connector-curvature="0" />
      <path
         style="fill:#338000;fill-opacity:1;stroke:none;stroke-width:1.0508827;stroke-miterlimit:4;stroke-dasharray:none"
         d="m 1680.7093,1879.1162 c -7.4502,-16.9877 -10.7573,-28.2834 -6.7806,-23.1599 2.0681,2.6646 14.0651,26.4043 14.0651,27.8322 0,0.5869 -0.5912,0.9489 -1.3136,0.8044 -0.8108,-0.1622 -1.1878,0.6423 -0.9849,2.1017 0.5929,4.2639 -0.5626,2.5076 -4.986,-7.5784 z"
         id="path2196"
         inkscape:connector-curvature="0" />
      <path
         style="fill:#338000;fill-opacity:1;stroke:none;stroke-width:1.0508827;stroke-miterlimit:4;stroke-dasharray:none"
         d="m 1700.6439,1920.6249 c -5.0822,-10.1262 -8.198,-17.4618 -7.5138,-17.6898 0.643,-0.2143 1.2024,-1.4143 1.2432,-2.6666 0.089,-2.7269 1.895,1.0936 10.0553,21.2709 3.1341,7.7494 5.5183,14.6064 5.2982,15.2378 -0.2202,0.6314 -4.3075,-6.6371 -9.0829,-16.1523 z"
         id="path2198"
         inkscape:connector-curvature="0" />
    </g>
  </g>
  <path
     style="fill:#338000;fill-opacity:1;stroke:none;stroke-width:1.0508827;stroke-miterlimit:4;stroke-dasharray:none"
     d=""
     id="path2200"
     inkscape:connector-curvature="0" />
</svg>
