<?xml version="1.0" encoding="UTF-8" standalone="no"?>
<!-- Created with Inkscape (http://www.inkscape.org/) -->

<svg
   xmlns:dc="http://purl.org/dc/elements/1.1/"
   xmlns:cc="http://creativecommons.org/ns#"
   xmlns:rdf="http://www.w3.org/1999/02/22-rdf-syntax-ns#"
   xmlns:svg="http://www.w3.org/2000/svg"
   xmlns="http://www.w3.org/2000/svg"
   xmlns:sodipodi="http://sodipodi.sourceforge.net/DTD/sodipodi-0.dtd"
   xmlns:inkscape="http://www.inkscape.org/namespaces/inkscape"
   version="1.1"
   id="svg3460"
   xml:space="preserve"
   width="73.802856"
   height="170.65547"
   viewBox="0 0 73.802856 170.65547"
   sodipodi:docname="0.svg"
   inkscape:version="0.92.4 (5da689c313, 2019-01-14)"><metadata
     id="metadata3466"><rdf:RDF><cc:Work
         rdf:about=""><dc:format>image/svg+xml</dc:format><dc:type
           rdf:resource="http://purl.org/dc/dcmitype/StillImage" /><dc:title /></cc:Work></rdf:RDF></metadata><defs
     id="defs3464" /><sodipodi:namedview
     pagecolor="#ffffff"
     bordercolor="#666666"
     borderopacity="1"
     objecttolerance="10"
     gridtolerance="10"
     guidetolerance="10"
     inkscape:pageopacity="0"
     inkscape:pageshadow="2"
     inkscape:window-width="1345"
     inkscape:window-height="771"
     id="namedview3462"
     showgrid="false"
     fit-margin-top="0"
     fit-margin-left="0"
     fit-margin-right="0"
     fit-margin-bottom="0"
     inkscape:zoom="2.5284424"
     inkscape:cx="-35.487624"
     inkscape:cy="99.444712"
     inkscape:window-x="0"
     inkscape:window-y="0"
     inkscape:window-maximized="0"
     inkscape:current-layer="g3468" /><g
     id="g3468"
     inkscape:groupmode="layer"
     inkscape:label="Plantos_Test1_with names"
     transform="matrix(1.3333333,0,0,-1.3333333,-278.50589,860.00817)"><g
       id="g3470"
       transform="matrix(610.6,0,0,789.1,-574.84239,29.086441)"><path
         style="fill:#160000;fill-opacity:1;stroke-width:0.48000872"
         d="M 73.658203,0.00195312 C 73.464284,0.03292663 73.057352,0.55124586 72.351562,1.6972656 63.935866,5.5848982 60.511457,8.7871797 55.953125,10.376953 h 0.0039 C 51.715397,12.642196 48.026059,14.573312 44.382812,18.09375 31.866327,24.414967 21.728851,35.314695 15.705078,47.939453 10.486484,57.256094 6.6955126,67.308879 2.203125,76.992188 c -0.97696,5.129149 -4.0627673,26.058032 -0.6054688,40.064452 7.8319625,22.08512 10.1284858,30.32699 17.9628908,52.41211 3.232109,2.37466 3.988872,-18.27466 6.537109,-27.69336 2.93088,-7.76895 6.96144,-15.09066 10.527344,-22.57617 2.882032,-4.86927 5.290818,-9.67478 8.177734,-14.68945 C 56.364242,85.489089 63.743274,64.281486 70.273438,43.103516 71.665605,35.555511 72.162557,27.8071 71.861328,20.140625 69.55326,13.886514 74.705368,-0.16530381 73.658203,0.00195312 Z M 66.048828,12.851562 c 0,0 -0.840918,24.069057 -3.955078,35.59375 C 58.783537,60.695566 52.264828,71.860387 46.669922,83.25 41.052109,94.68624 34.282616,105.52536 28.476562,116.86719 24.473203,124.68753 17.005859,140.59766 17.005859,140.59766 13.956461,136.76513 9.2085722,121.36096 7.9091723,110.93456 6.7823323,101.89272 6.6362232,92.023573 9.0957031,83.25 14.17389,65.134894 23.010783,47.400469 35.595703,33.416016 43.78957,24.310936 66.048828,12.851562 66.048828,12.851562 Z"
         transform="matrix(0.0012283,0,0,-9.504499e-4,1.2835274,0.78053441)"
         id="path3474"
         inkscape:connector-curvature="0"
         sodipodi:nodetypes="scccccccccccccscssscsssc" /></g><path
       style="fill:#57ed66;fill-opacity:1;stroke:none;stroke-width:0;stroke-miterlimit:4;stroke-dasharray:none;stroke-opacity:1"
       d="M 15.428156,137.72336 C 12.634131,131.84539 9.4698508,120.837 8.1513798,112.4078 7.2760841,106.81189 7.1488454,92.75502 7.9349203,88.494128 10.072006,76.910122 17.954585,58.162118 25.478277,46.768835 33.512184,34.602919 39.065104,29.156594 51.357527,21.386366 55.913755,18.506303 65.294684,13.1513 65.783768,13.1513 c 0.131749,0 0.182401,0.93437 0.112563,2.076377 -1.604834,26.242952 -2.975721,33.467561 -8.91185,46.965674 -3.26501,7.424282 -13.119314,26.616655 -20.205393,39.352289 -5.114175,9.19158 -10.9333,20.55025 -18.128869,35.38672 l -1.817113,3.74669 z"
       id="path7728"
       inkscape:connector-curvature="0"
       transform="matrix(0.75000002,0,0,-0.75000002,208.87942,645.00614)" /></g></svg>