<?xml version="1.0" encoding="UTF-8" standalone="no"?>
<!-- Created with Inkscape (http://www.inkscape.org/) -->

<svg
   xmlns:dc="http://purl.org/dc/elements/1.1/"
   xmlns:cc="http://creativecommons.org/ns#"
   xmlns:rdf="http://www.w3.org/1999/02/22-rdf-syntax-ns#"
   xmlns:svg="http://www.w3.org/2000/svg"
   xmlns="http://www.w3.org/2000/svg"
   xmlns:sodipodi="http://sodipodi.sourceforge.net/DTD/sodipodi-0.dtd"
   xmlns:inkscape="http://www.inkscape.org/namespaces/inkscape"
   version="1.1"
   id="svg2162"
   xml:space="preserve"
   width="274.43518"
   height="438.20511"
   viewBox="0 0 274.43518 438.20511"
   sodipodi:docname="1.svg"
   inkscape:version="0.92.2 5c3e80d, 2017-08-06"><metadata
     id="metadata2168"><rdf:RDF><cc:Work
         rdf:about=""><dc:format>image/svg+xml</dc:format><dc:type
           rdf:resource="http://purl.org/dc/dcmitype/StillImage" /><dc:title></dc:title></cc:Work></rdf:RDF></metadata><defs
     id="defs2166" /><sodipodi:namedview
     pagecolor="#ffffff"
     bordercolor="#666666"
     borderopacity="1"
     objecttolerance="10"
     gridtolerance="10"
     guidetolerance="10"
     inkscape:pageopacity="0"
     inkscape:pageshadow="2"
     inkscape:window-width="1358"
     inkscape:window-height="801"
     id="namedview2164"
     showgrid="false"
     inkscape:zoom="0.8939394"
     inkscape:cx="293.36817"
     inkscape:cy="269.05448"
     inkscape:window-x="0"
     inkscape:window-y="0"
     inkscape:window-maximized="0"
     inkscape:current-layer="g2172"
     fit-margin-top="0"
     fit-margin-left="0"
     fit-margin-right="0"
     fit-margin-bottom="0" /><g
     id="g2170"
     inkscape:groupmode="layer"
     inkscape:label="Hibiscus_Salvia_Firewheel"
     transform="matrix(0,-1.3333333,-1.3333333,0,694.54663,505.61114)"><g
       id="g2172"
       transform="matrix(792,0,0,612,-344.08536,-237.30025)"><path
         style="fill:#000000;stroke-width:0.00034473"
         d="m 0.73798017,0.90259456 c -0.006864,0.0175456 -0.0188065,0.0344904 -0.0305579,0.0498851 -0.0117611,0.0161434 -0.0344429,0.015523 -0.0527144,0.0197517 -0.0340864,0.004997 -0.0722564,0.009235 -0.0975958,0.0351716 -0.005527,0.00593 -0.0174041,0.01629 -0.00936,0.00305 0.0115059,-0.0216066 0.0265209,-0.0428789 0.0462927,-0.0575549 0.009598,-0.0128439 0.0210286,0.018989 0.0181193,-0.002591 0.0100304,-0.0102458 0.0308883,0.014764 0.0396796,0.009335 -0.005185,-0.0108013 -0.0178793,-0.0166517 -0.0286628,-0.021074 -0.0247755,0.001407 -0.051498,-0.0161674 -0.0728373,0.005734 -0.0169364,-0.002887 -0.0319041,0.0107634 -0.037678,0.0257423 -0.0100263,0.0224847 -0.0157042,0.0503983 -0.001548,0.0723884 -0.004964,0.00877 -0.0165709,0.028207 0.005118,0.030368 0.0140101,-0.00378 0.0171746,0.011541 0.002096,0.010537 -0.0157763,0.00154 -0.008173,0.023309 0.006427,0.013812 0.0185763,-1.549e-4 -0.022894,0.01111 -0.0204954,0.026482 -0.0146842,0.021215 0.001741,0.04314 0.006171,0.062397 0.001468,0.00995 0.008408,0.038962 0.0180787,0.033202 -0.00525,-0.00965 -0.0167541,-0.029089 -0.0106139,-0.035335 0.006516,0.012987 0.0190175,-8.496e-4 0.002803,-0.00599 -0.007543,-0.011424 0.003378,-0.026966 0.0111841,-0.035976 0.008252,-0.00867 0.016342,-0.010997 0.0112089,0.00302 -0.002174,0.023198 0.0147454,0.043167 0.0324732,0.05589 0.009847,0.00489 0.0444264,0.00909 0.0388461,-0.00676 -0.0260319,0.00877 -0.0528024,-0.00776 -0.0607872,-0.033224 -0.003335,-0.00802 -0.008774,-0.032849 0.004845,-0.012673 0.0180909,0.02031 0.0440658,0.033546 0.0712308,0.035304 0.0149082,0.00234 0.0278715,0.00927 0.0400911,0.017813 0.012812,0.010525 0.0344648,0.00985 0.0409878,0.026464 0.007257,0.00498 0.0213378,0.021544 0.018026,0.00142 -0.006642,-0.012173 -0.006458,-0.027495 -0.0158317,-0.038376 -0.00513,-0.00783 -0.0168554,-0.013888 -3.7559e-4,-0.014611 0.0328108,-0.012376 0.0651881,-0.025874 0.0949847,-0.044678 0.0277595,-0.014877 0.0555921,-0.029719 0.0837379,-0.043741 0.008964,-0.00394 0.0205416,-0.00777 0.0209731,-0.019426 0.006304,-0.017296 -0.0203898,-0.013919 -0.029107,-0.023343 -0.0193076,-0.011069 -0.0359295,-0.026666 -0.0569561,-0.034703 3.709e-4,-0.0208605 -0.0334098,-0.0179837 -0.0501688,-0.0229147 -0.0187741,-0.003588 -0.038705,-0.005301 -0.0569764,-6.968e-5 0.009248,-0.0162114 0.0144669,-0.0341781 0.0210833,-0.0515159 -0.001569,-0.008874 0.0118227,-0.0301431 -0.002192,-0.0332175 z m -0.002791,0.023662 c -0.003485,0.0186518 -0.0124287,0.0353531 -0.0201638,0.0523627 -0.010244,0.0176725 -0.0294227,0.0220211 -0.0498996,0.0173633 0.00902,-0.00619 0.0324563,-0.0203264 0.0426988,-0.0337745 0.0110022,-0.0102703 0.0163714,-0.0264977 0.0273646,-0.0359515 z m -0.14561852,0.0154071 c 5.9762e-4,0.007355 -0.0252526,0.0170913 -0.0278784,0.0304167 -0.0117589,0.017992 -0.0263786,0.0367853 -0.0266853,0.0590706 -0.004396,0.00724 -0.00925,0.01586 -0.009484,0.00121 -0.007721,-0.028522 0.0106221,-0.0552705 0.0270804,-0.0768958 0.0109806,-0.006671 0.0192687,-0.0172916 0.0369676,-0.0138063 z m -0.0454546,0.0106126 c -0.0187972,0.0235928 -0.0302316,0.054954 -0.0246794,0.0853403 -0.002727,0.00657 -0.0124392,-0.020217 -0.009876,-0.029033 0.001839,-0.0193091 0.00761,-0.0415221 0.0244947,-0.0530829 0.003026,-0.001842 0.006406,-0.003527 0.0100607,-0.003224 z m 0.14212118,0.0211162 c -0.0161275,0.0132294 -0.0384309,0.0249947 -0.0597562,0.0183417 -0.0121739,0.0118462 0.009338,0.012736 0.0151332,0.0189185 0.016881,0.016913 0.0277957,0.039463 0.0451416,0.05621 -0.0109645,0.019444 -0.0250942,0.040029 -0.0393084,0.058127 -0.008715,0.00976 -0.0220186,0.019483 -0.0356359,0.015275 -0.0109311,0.00774 0.004403,0.013273 0.0115803,0.014791 0.0113507,0.0058 0.0154373,0.017933 0.0246202,0.024082 -0.0136856,-0.00677 -0.0340558,-0.00362 -0.0490478,-0.012079 -0.0268313,-0.00897 -0.0482787,-0.032347 -0.0582162,-0.058504 -0.001245,-0.0069 0.0280845,-0.00607 0.009083,-0.011613 -0.0177898,0.00848 -0.018636,-0.017751 -3.8786e-4,-0.013857 0.009644,0.00209 0.0223934,-0.010547 0.004912,-0.00818 -0.0138543,0.00556 -0.0245106,0.00536 -0.0210572,-0.011187 -0.005004,-0.026331 0.0255499,-0.012789 0.0405041,-0.016631 -0.001202,-0.014507 -0.0321508,-2.946e-4 -0.0363527,-0.00862 0.00939,-0.01473 0.0235073,-0.025863 0.037271,-0.036475 0.0338024,-0.0208789 0.07486,-0.0171242 0.11151738,-0.0286008 z m -0.12121212,0.006956 c -7.6087e-4,0.001388 -7.6175e-4,-0.001388 0,0 z m 0.16696092,0.0125337 c -0.0106417,0.0135759 -0.0265829,0.021776 -0.0380499,0.0346483 0.0161661,-0.00445 0.0345178,-0.026053 0.0457318,-0.0347766 0.0221218,8.764e-4 0.0552531,9.4132e-4 0.0704586,0.01228 -0.0158209,0.00475 -0.0261654,0.018133 -0.0394364,0.027224 -0.0242565,0.018724 -0.0486654,0.03729 -0.0716923,0.057595 -0.008447,0.00556 -0.023253,0.017841 -0.0293387,0.015588 0.006009,-0.015762 0.0244834,-0.02551 0.0280744,-0.040152 -0.0114987,-0.00826 0.0185142,-0.017625 0.0239203,-0.027276 0.005391,-0.0067 0.0342261,-0.020983 0.0111841,-0.015165 -0.0136539,0.00889 -0.0247575,0.02202 -0.0388338,0.031186 -0.0121437,0.015771 -0.0206798,-0.02088 -0.0311034,-0.026731 -0.006023,-0.00817 -0.0216178,-0.022883 -0.001809,-0.021989 0.017295,-2.43e-5 0.0356133,0.00179 0.0512019,-0.007382 0.00655,-0.001572 0.0130572,-0.004217 0.0196924,-0.00505 z m 0.0130716,0.027101 c -8.0396e-4,0.00639 0.004248,-0.00264 0,0 z m -0.0594545,0.010841 c -0.010329,0.00356 -0.0122253,0.013228 -0.001032,0.00466 0.003396,-3.441e-4 0.009493,-0.00875 0.001032,-0.00466 z m 0.12108811,-0.01675 c 0.0140168,1.928e-4 0.0280212,0.00811 0.0407548,0.014901 0.0164129,0.01549 0.0394697,0.022233 0.0559653,0.036529 -0.0132693,0.0094 -0.0362498,0.00342 -0.0531354,0.00913 -0.0224622,0.003 -0.0440547,0.0109 -0.063905,0.021756 0.0152543,-0.013361 0.0372133,-0.037206 0.035725,-0.05537 -0.010408,0.024115 -0.0277804,0.04428 -0.0487624,0.059722 -0.0100407,0.011732 -0.0262032,0.018795 -0.0395778,0.027638 -0.005949,0.00479 -0.0312075,0.020276 -0.011917,0.00577 0.0237568,-0.024299 0.045887,-0.051449 0.0543976,-0.085171 -0.002757,-0.00937 -0.008085,0.015817 -0.0119433,0.02155 -0.0106908,0.024053 -0.0286298,0.044289 -0.0479054,0.0618 -0.00542,0.00544 -0.02168,0.013023 -0.0161144,0.017601 -0.019406,0.00819 -0.0482778,0.030047 -0.0641181,0.0061 -0.016886,-0.00832 0.004811,-0.011753 0.0107404,-0.020594 0.014542,-0.025981 0.0453026,-0.028089 0.0651707,-0.049669 0.026136,-0.0232 0.0552674,-0.042936 0.082157,-0.065344 0.003603,-0.00319 0.008027,-0.00498 0.012468,-0.00634 z m 0.0427273,0.03913 c -0.005402,0.00618 -0.0253315,0.02933 -0.00529,0.013746 8.5976e-4,-0.00298 0.009343,-0.010748 0.00529,-0.013746 z m -0.12977273,0.029976 c -0.0129585,0.025395 -0.027927,0.050248 -0.04826,0.070506 -0.008179,0.015746 0.0145085,-0.00705 0.015779,-0.01137 0.0118105,-0.017144 0.0323726,-0.040949 0.032481,-0.059136 z M 0.52000829,1.0543567 c 0.007259,0.00563 0.013518,0.01681 -0.002081,0.010748 -0.011834,1.988e-4 -0.007014,-0.015729 0.002081,-0.010748 z m 0.37399135,0.02375 c -0.0134002,0.00553 -0.0267755,0.019079 -0.0413976,0.019285 -0.008031,-0.00904 -0.0135967,-0.00147 -0.004132,0.00465 -0.0127268,0.00557 -0.0293393,0.026303 -0.0389923,0.00377 -0.001177,0.011392 0.0134206,0.014315 -0.002179,0.019219 -0.0104969,0.00606 -0.0225662,0.016279 -0.0295527,2.153e-4 0.005621,0.010347 0.007212,0.015829 -0.006011,0.019225 3.2522e-4,-0.00462 -0.0164862,-0.011324 -0.004003,0.0014 -0.00656,0.00696 -0.0163066,0.008 -0.0186798,-0.00292 0.004959,0.015184 -0.0143745,0.017714 -0.0248535,0.020943 -0.002413,-0.01023 -0.022259,-0.0098 -0.003449,0.00173 -0.0177763,0.00971 -0.0381477,0.00603 -0.0575225,0.0065 0.0310862,-0.00792 0.0564648,-0.02851 0.0836228,-0.044692 0.0218038,-0.014528 0.0447605,-0.02745 0.0689386,-0.037504 0.0255295,-0.00612 0.0519182,-0.012087 0.0782114,-0.011826 z m -0.0696707,0.025131 c 0.009107,0.015679 0.0134724,-0.00189 0,0 z M 0.53062548,1.0892022 c -0.0142767,0.00414 -0.006965,-0.00161 0,0 z m -0.008634,0.00153 c -0.002293,5.545e-4 2.5954e-4,-0.00156 0,0 z m 0.32376774,0.00507 c -0.002233,0.00159 0.001388,-0.00182 0,0 z m -0.29082228,0.00517 c -0.001162,7.201e-4 -3.0413e-4,-8.297e-4 0,0 z m -0.0191756,0.00779 c 0.0119703,0.01663 -0.005587,0.021744 -0.0141734,0.033502 -0.006085,0.00843 -0.0116616,0.032392 -0.0131472,0.0079 -2.8749e-4,-0.017051 0.008882,-0.036977 0.0258634,-0.042955 l 0.001457,0.00156 z m -0.0296007,0.052044 c -0.001895,4.988e-4 1.329e-4,-0.00166 0,0 z M 0.663492,1.1797912 c 0.0144172,-1.055e-4 0.0329759,-0.00221 0.0420468,0.011633 0.007219,0.00836 0.0123198,0.020129 0.0119145,0.030887 C 0.7125773,1.2096162 0.6987598,1.2073462 0.6877579,1.2023122 0.6763928,1.1970722 0.663854,1.1891182 0.6576863,1.1790132 l 0.005805,7.851e-4 z"
         id="path2719"
         inkscape:connector-curvature="0"
         sodipodi:nodetypes="cccccccccccccccccccccccccccccccccccccccccccccccccccccccccccccccccccccccccccccccccccccccccccccccccccccccccccccccccccccccccccccccccccccccccccccccccccccccccccccccccccccccccc" /><path
         style="fill:#002b00;fill-opacity:1;stroke:none;stroke-width:0.79100078;stroke-miterlimit:4;stroke-dasharray:none"
         d="m 165.52338,814.61914 c -5.00708,-5.70131 -11.53604,-19.23635 -16.12086,-33.41978 -4.39843,-13.60684 -6.15118,-17.36926 -9.78398,-21.00205 l -2.59632,-2.59632 3.50616,0.56066 c 8.43558,1.3489 20.47005,10.63002 24.53134,18.91885 1.32313,2.70042 2.75767,6.86758 3.18788,9.26036 0.62701,3.4874 1.57278,32.43103 1.05973,32.43103 -0.0753,0 -1.77805,-1.86873 -3.78395,-4.15275 z"
         id="path1393"
         inkscape:connector-curvature="0"
         transform="matrix(0,-0.00122549,-9.4696972e-4,0,1.4344512,1.3877455)" /><path
         style="fill:#002b00;fill-opacity:1;stroke:none;stroke-width:0.79100078;stroke-miterlimit:4;stroke-dasharray:none"
         d="m 318.91286,803.26299 c -1.66898,-20.03588 4.36987,-35.80892 16.88284,-44.09674 14.1139,-9.34818 35.63937,-20.18991 38.31491,-19.29806 1.32808,0.44269 -3.66999,5.59918 -12.81793,13.22422 -15.76855,13.14349 -26.55843,27.83946 -38.4946,52.43022 -1.21423,2.50154 -2.45754,4.54826 -2.76291,4.54826 -0.30537,0 -0.81041,-3.06356 -1.12231,-6.8079 z"
         id="path1395"
         inkscape:connector-curvature="0"
         transform="matrix(0,-0.00122549,-9.4696972e-4,0,1.4344512,1.3877455)" /><path
         style="fill:#ffd5e5;fill-opacity:1;stroke:none;stroke-width:0.79100078;stroke-miterlimit:4;stroke-dasharray:none"
         d="m 304.62536,824.42604 c -3.1939,-2.33553 -9.93252,-9.42564 -12.41447,-13.06199 -0.78074,-1.14389 -4.8872,-4.70588 -9.12545,-7.91555 -12.32926,-9.33704 -15.05563,-13.30952 -12.47708,-18.17986 2.85378,-5.39021 7.20763,-12.36216 15.81881,-25.33115 10.62434,-16.00092 11.47492,-17.58189 12.31355,-22.88708 1.37831,-8.71908 -0.54008,-7.62738 -6.66619,3.79355 -2.39728,4.46926 -5.80693,9.86031 -7.57699,11.98014 -1.77007,2.11983 -5.36998,8.05256 -7.9998,13.18386 -2.62982,5.13129 -5.66664,10.38156 -6.74849,11.66726 -2.11759,2.51661 -4.75901,3.06992 -5.49532,1.15113 -0.25041,-0.65257 -0.89012,-1.1865 -1.42156,-1.1865 -2.52839,0 -9.15323,5.80498 -16.44332,14.40837 -4.41549,5.21093 -9.65255,10.71804 -11.63793,12.23804 -3.40819,2.6093 -3.62398,2.67053 -3.86433,1.0964 -0.14001,-0.91698 0.1648,-2.99587 0.67735,-4.61976 1.59089,-5.0403 11.53413,-23.51382 17.23484,-32.02056 7.8085,-11.65204 15.67661,-24.32562 33.76221,-54.38255 8.76946,-14.57419 17.90959,-29.58375 20.31139,-33.35458 3.69072,-5.79442 6.49759,-11.59242 9.27812,-19.16527 0.43153,-1.17531 0.92666,-0.51829 2.2857,3.03309 3.96122,10.35134 6.11474,26.84832 6.97628,53.44176 l 0.4997,15.42452 -3.63986,5.1415 c -16.20132,22.88525 -24.21022,36.69309 -24.23695,41.78599 -0.009,1.80246 0.0301,1.79321 1.91601,-0.44808 1.05911,-1.25869 5.89907,-8.49399 10.75545,-16.07846 8.64695,-13.50438 14.05169,-20.93834 14.72985,-20.26017 0.51969,0.51969 -3.51973,17.80233 -5.23151,22.38296 -3.13062,8.37738 -4.12548,16.56162 -4.55596,37.47983 -0.2283,11.09379 -0.74001,20.79343 -1.13711,21.55477 -1.00715,1.93088 -2.32037,1.73645 -5.88694,-0.87161 z m -16.2052,-26.70793 c 1.92175,-2.4431 4.55837,-10.3153 3.73174,-11.14193 -1.08008,-1.08008 -3.26585,1.09958 -5.39261,5.37754 -2.38335,4.79409 -2.80877,7.83416 -1.09629,7.83416 0.621,0 1.86172,-0.9314 2.75716,-2.06977 z m 12.21981,-70.30681 c 0.30969,-0.80705 -0.0427,-1.1865 -1.10187,-1.1865 -0.85683,0 -1.55718,0.53364 -1.55718,1.1865 0,0.65258 0.49584,1.1865 1.10187,1.1865 0.60603,0 1.30676,-0.53392 1.55718,-1.1865 z"
         id="path1397"
         inkscape:connector-curvature="0"
         transform="matrix(0,-0.00122549,-9.4696972e-4,0,1.4344512,1.3877455)" /><path
         style="fill:#ffd5e5;fill-opacity:1;stroke:none;stroke-width:0.79100078;stroke-miterlimit:4;stroke-dasharray:none"
         d="m 192.06764,847.56652 c -0.91455,-1.16267 -1.66283,-2.39283 -1.66283,-2.73368 0,-0.34086 -1.61146,-2.50762 -3.58104,-4.81504 -4.30446,-5.04281 -5.91097,-9.90001 -5.91097,-17.87158 0,-8.11561 1.71384,-15.02256 7.72437,-31.13012 4.83095,-12.9464 5.35545,-13.96333 7.54748,-14.63351 1.82769,-0.5588 3.23955,-2.22734 6.2986,-7.44375 9.29558,-15.85116 20.74424,-30.40611 33.90916,-43.10954 10.71605,-10.3404 18.27656,-15.73967 31.02025,-22.15287 9.6354,-4.84896 11.91497,-6.70433 10.26476,-8.35454 -1.98185,-1.98185 -19.16951,6.65323 -31.2881,15.71912 -10.08651,7.54571 -32.52926,30.92298 -39.61545,41.26507 -2.91167,4.2495 -1.0612,-0.44278 4.42023,-11.20845 3.16815,-6.22233 7.76007,-15.58473 10.20427,-20.80534 2.4442,-5.2206 6.34817,-12.31738 8.67549,-15.77062 2.32732,-3.45323 5.70767,-8.61451 7.51188,-11.46951 10.57085,-16.72737 25.76575,-33.12758 38.58144,-41.64185 5.7798,-3.83988 6.71732,-4.72925 5.2171,-4.94909 -7.77102,-1.13875 -22.19224,9.39649 -34.81579,25.43424 -3.26144,4.14354 -6.00171,7.46188 -6.0895,7.37409 -0.0878,-0.0878 1.24318,-3.96279 2.95769,-8.61113 3.90877,-10.59737 8.15017,-26.71768 10.14621,-38.56271 3.67332,-21.79854 4.13888,-25.76634 4.82625,-41.13205 0.70609,-15.78419 1.56989,-22.37764 3.54801,-27.08222 l 0.96522,-2.29556 1.2199,1.86181 c 2.27278,3.4687 8.30938,15.99778 12.87629,26.72497 5.38567,12.65041 8.99991,19.97279 13.06732,26.47418 6.04571,9.66352 13.10692,30.49205 13.97765,41.23005 0.56847,7.01035 -0.72487,11.21573 -6.2274,20.24883 -2.20169,3.61434 -12.52701,20.79271 -22.94516,38.17415 -10.41815,17.38143 -22.61823,36.98238 -27.1113,43.55766 -8.91618,13.04819 -12.37476,19.44282 -18.61835,34.42381 -8.2921,19.89621 -13.43164,28.25982 -22.28971,36.27223 -2.43328,2.20098 -4.93537,5.73484 -7.29438,10.30232 -4.55053,8.81068 -5.31814,9.49661 -7.50959,6.71063 z m 4.57478,-48.0703 c 11.99697,-13.78096 25.51898,-25.71676 43.99094,-38.83054 l 8.70101,-6.1771 -3.45477,0.43883 c -4.4707,0.56788 -11.82468,4.2608 -18.29775,9.1885 -6.88145,5.23859 -31.35634,27.77336 -34.69969,31.94905 -6.15668,7.68941 -7.81979,11.63292 -4.90602,11.63292 0.95058,0 4.21965,-3.09381 8.66628,-8.20166 z m 69.61489,-174.0401 c 7.12099,-7.15071 8.18428,-9.18043 4.8093,-9.18043 -2.02172,0 -9.44234,6.6576 -11.58425,10.39312 -4.93115,8.59997 -2.57733,8.17864 6.77495,-1.21269 z"
         id="path1399"
         inkscape:connector-curvature="0"
         transform="matrix(0,-0.00122549,-9.4696972e-4,0,1.4344512,1.3877455)" /><path
         style="fill:#ffd5e5;fill-opacity:1;stroke:none;stroke-width:0.79100078;stroke-miterlimit:4;stroke-dasharray:none"
         d="m 176.50627,790.29587 c 0.29252,-19.88012 0.74048,-23.8812 3.69719,-33.02265 l 0.83095,-2.56912 2.50995,3.75562 c 2.60639,3.89992 4.65744,4.81411 5.14308,2.29238 0.56262,-2.92145 -0.76834,-6.83329 -3.12769,-9.19264 l -2.41192,-2.41192 1.64671,-7.15204 c 2.94245,-12.77968 7.18367,-19.5744 11.68153,-18.71458 2.33186,0.44577 2.31777,0.3806 -0.53425,-2.47143 -2.93564,-2.93564 -3.19105,-7.42436 -0.71365,-12.542 l 1.65935,-3.42776 2.78826,2.44812 c 3.41156,2.99539 4.78927,2.23027 3.42539,-1.90232 -0.50678,-1.53555 -1.64511,-3.71194 -2.52963,-4.83643 -1.37618,-1.74953 -1.48157,-2.40779 -0.73047,-4.56242 2.14655,-6.1576 4.69483,-7.47096 9.58704,-4.9411 2.8523,1.47498 2.94264,0.93172 0.35622,-2.14207 -2.97622,-3.53704 -2.69816,-8.77492 0.91616,-17.25776 1.57559,-3.69793 3.58793,-8.80486 4.47186,-11.34871 0.88393,-2.54386 2.06253,-4.79996 2.61912,-5.01353 0.55658,-0.21359 2.2179,0.53149 3.69183,1.6557 2.87951,2.19631 7.48394,4.09281 8.1995,3.37724 0.241,-0.241 -0.8632,-1.58082 -2.45379,-2.97737 -7.00654,-6.15182 -6.87857,-10.98572 0.70432,-26.60484 l 5.19628,-10.70322 1.63403,2.07734 c 1.90672,2.42399 5.4226,2.86185 5.56531,0.69309 0.19352,-2.94087 -0.24594,-4.62779 -1.75467,-6.7356 -2.80143,-3.91381 -0.47943,-12.32765 8.78308,-31.82569 l 4.88492,-10.28301 -0.42963,10.67851 c -0.77279,19.20792 -6.31552,58.12552 -10.08272,70.79457 -5.67579,19.08762 -14.23202,38.97788 -35.72795,83.05508 -19.7169,40.42932 -23.69023,49.82698 -28.59418,67.63057 -1.13594,4.124 -1.18288,3.30032 -0.90153,-15.82001 z m 54.95328,-153.2031 c -0.59508,-1.11193 -1.7064,-1.83306 -2.82486,-1.83306 -2.84389,0 -2.46309,3.634 0.72691,6.93701 l 2.57075,2.66182 0.25411,-2.96636 c 0.13976,-1.63149 -0.18735,-3.79123 -0.72691,-4.79941 z"
         id="path1401"
         inkscape:connector-curvature="0"
         transform="matrix(0,-0.00122549,-9.4696972e-4,0,1.4344512,1.3877455)" /><path
         style="fill:#217821;fill-opacity:1;stroke:none;stroke-width:0.79100078;stroke-miterlimit:4;stroke-dasharray:none"
         d="m 256.23899,951.13062 c -1.65129,-0.66439 -3.34511,-4.71819 -3.34511,-8.00579 0,-1.69221 0.7119,-5.86026 1.582,-9.26232 1.8537,-7.24792 1.9894,-10.60999 0.50988,-12.63335 -2.99206,-4.09189 -6.34459,2.61591 -6.63096,13.26734 -0.22902,8.5184 -1.42561,12.01781 -4.51043,13.19066 -5.36404,2.03939 -9.36835,-4.61881 -6.81568,-11.33283 0.77544,-2.03958 -0.20777,-7.31275 -1.64328,-8.81321 -1.10527,-1.15529 -2.00448,0.71568 -3.43565,7.14853 -0.686,3.08346 -1.78115,6.36849 -2.43366,7.30009 l -1.18639,1.6938 -4.11104,-2.42396 c -7.77307,-4.58316 -11.28592,-7.33104 -17.99939,-14.07973 -11.62453,-11.68552 -19.18766,-24.5351 -25.18893,-42.7954 -3.88438,-11.81915 -4.42383,-14.48335 -6.47836,-31.99502 -0.86771,-7.39586 -1.8031,-14.49063 -2.07864,-15.76615 -0.41804,-1.93513 0.6328,-1.0838 6.34637,5.1415 7.51947,8.19296 9.88621,12.27456 12.47499,21.5139 1.57854,5.63382 4.2682,10.07227 6.10371,10.07227 0.40763,0 1.54858,-0.65383 2.53545,-1.45295 1.64211,-1.32969 1.80361,-2.15169 1.90385,-9.68976 0.11998,-9.02303 1.46792,-13.4729 6.87477,-22.69535 4.49974,-7.67521 26.89035,-29.07998 46.03953,-44.01245 l 6.99965,-5.45831 2.00023,2.69762 c 1.10014,1.48369 10.82211,11.4184 21.60439,22.07714 10.78229,10.65874 20.49298,20.62535 21.57931,22.14802 1.08633,1.52268 3.144,6.12961 4.57261,10.23763 3.60163,10.35666 5.64508,12.13168 9.82609,8.53532 l 2.08457,-1.79308 -0.91623,-6.69178 c -1.85293,-13.533 1.21889,-28.39412 9.23887,-44.69662 3.78156,-7.68693 5.54449,-10.15366 4.70417,-6.5822 -1.26655,5.38299 -3.76636,22.36571 -5.62622,38.22223 -5.56116,47.41272 -9.60121,62.66097 -21.81944,82.35257 -7.19667,11.59857 -13.49776,19.94 -19.5561,25.88848 l -4.70527,4.61994 -0.89148,-2.55729 c -0.6016,-1.72575 -0.74284,-6.95745 -0.43437,-16.08945 0.40962,-12.12676 0.30673,-13.8197 -0.99065,-16.30067 -0.88445,-1.69131 -2.14023,-2.86685 -3.2275,-3.02127 -2.06667,-0.29351 -1.98649,-1.1782 -1.78775,19.72604 0.19875,20.90437 -0.92839,22.88696 -12.95244,22.78282 -3.96555,-0.0343 -7.66251,-0.24447 -8.21547,-0.46696 z"
         id="path1403"
         inkscape:connector-curvature="0"
         transform="matrix(0,-0.00122549,-9.4696972e-4,0,1.4344512,1.3877455)" /><path
         style="fill:#002b00;fill-opacity:1;stroke:none;stroke-width:0.79100078;stroke-miterlimit:4;stroke-dasharray:none"
         d="m 191.85582,986.88782 c -2.02978,-0.55923 -8.25891,-3.14779 -13.84252,-5.75236 -5.5836,-2.60456 -13.51611,-5.69065 -17.62778,-6.85797 -14.21673,-4.0362 -22.97776,-9.66095 -22.97776,-14.75216 v -2.36498 l 5.85754,3.99176 c 8.59121,5.85469 14.56109,8.67923 18.36888,8.69092 4.1123,0.0127 5.67169,-1.54668 3.50642,-3.50621 -3.27158,-2.96074 -3.45553,-9.15504 -0.27105,-9.12768 2.24796,0.0193 3.2171,0.98416 4.97085,4.94881 1.94544,4.39799 3.87084,5.62256 8.73835,5.55767 4.87418,-0.065 10.60208,-3.09975 16.80834,-8.9054 5.73149,-5.36152 8.95246,-9.68077 10.43492,-13.99296 1.79696,-5.22699 0.0911,-6.45668 -6.35654,-4.58229 -5.37067,1.56129 -11.18398,0.64108 -18.55267,-2.93679 -9.84155,-4.77858 -25.90168,-23.36543 -28.90004,-33.44685 -3.00378,-10.09963 -3.45521,-29.24824 -0.81011,-34.36329 0.68777,-1.33001 1.99693,-2.81768 2.90923,-3.30593 2.7565,-1.47523 3.32003,0.0204 2.35389,6.2474 -3.67246,23.66954 7.79728,47.95698 27.0692,57.31966 6.62839,3.22021 10.86488,4.49829 14.93092,4.50443 5.11823,0.008 4.71889,-1.9814 -1.74933,-8.71352 -7.44127,-7.74487 -15.33361,-20.74105 -20.48002,-33.72409 -4.91336,-12.39511 -7.65085,-24.57435 -9.19452,-40.90683 -1.17951,-12.47957 -6.23488,-27.91307 -13.79446,-42.11295 -2.11029,-3.96395 -4.95973,-10.72701 -6.3321,-15.02901 -6.21654,-19.48714 -8.6555,-24.57388 -13.48344,-28.12128 -2.57455,-1.89168 -8.86562,-10.91772 -10.76791,-15.44913 -0.58336,-1.3896 -0.84813,-3.08036 -0.58838,-3.75725 0.72816,-1.89756 5.89164,-1.53204 9.89314,0.70032 1.90376,1.06208 6.84291,3.21825 10.97589,4.79151 10.48816,3.99241 13.22894,5.78582 20.03013,13.10666 7.05172,7.59048 8.5069,7.88429 9.49587,1.91717 1.10517,-6.66823 4.39002,-18.11967 11.00283,-38.3574 7.69128,-23.53827 13.39016,-38.56577 21.74788,-57.34755 10.14366,-22.79518 34.80982,-83.57134 40.93129,-100.85261 4.90783,-13.85508 7.30095,-16.90444 14.88674,-18.96896 6.8539,-1.86532 8.82613,0.47389 12.4546,14.77219 2.4926,9.82229 4.81235,14.91336 21.19474,46.51532 4.28506,8.26595 8.94643,18.27479 10.35862,22.24185 2.47317,6.94751 2.67926,7.2463 5.60226,8.12206 7.20468,2.15857 10.33197,9.97524 13.01084,32.52065 0.69785,5.87318 1.99673,15.48384 2.88639,21.35702 2.24106,14.79456 2.84648,39.59256 1.22602,50.21828 -0.66261,4.34485 -1.09218,8.01229 -0.95461,8.14985 0.13756,0.13757 2.8411,-1.42598 6.00786,-3.47455 7.51169,-4.85929 35.73477,-18.50754 38.27155,-18.50754 1.08238,0 4.74013,-0.88534 8.12835,-1.9674 8.31207,-2.65458 12.26528,-2.62808 14.40849,0.0966 0.90167,1.14629 1.63905,2.48111 1.6386,2.96625 -4.4e-4,0.48515 -1.82754,1.9081 -4.06023,3.16212 -12.762,7.16794 -37.99185,29.91545 -42.44341,38.26742 -4.51831,8.47724 -6.86774,20.85142 -11.67514,61.49164 -5.61622,47.47773 -12.05196,68.52389 -27.22924,89.04489 -8.07913,10.92369 -9.59363,14.70472 -4.91812,12.27836 2.84414,-1.47597 16.24964,-11.69767 22.16433,-16.90033 2.60688,-2.29304 4.89154,-3.89482 5.07702,-3.55951 0.18549,0.33533 0.24529,0.20774 0.13289,-0.28351 -0.1124,-0.49126 1.04631,-2.09303 2.57491,-3.55951 6.07577,-5.82882 20.55749,-25.48373 22.45894,-30.48177 0.92991,-2.44432 -0.37999,-6.37554 -3.64648,-10.94358 l -2.82813,-3.955 3.41047,-0.3955 c 3.11702,-0.36148 3.49378,-0.65072 4.37876,-3.36165 1.36475,-4.18058 0.2694,-9.04415 -4.64304,-20.61604 -3.94318,-9.28869 -5.77822,-17.15436 -4.00204,-17.15436 1.45231,0 6.54283,6.54285 9.23132,11.86502 4.63299,9.17152 6.49049,15.575 6.99831,24.12552 0.25837,4.3505 1.24909,13.24926 2.2016,19.77502 2.3427,16.05009 2.38219,29.00215 0.11096,36.38604 -0.93674,3.04535 -2.83204,7.31304 -4.21179,9.48376 -2.19044,3.44616 -2.53945,4.75047 -2.75152,10.28301 -0.14457,3.7717 -0.90841,8.25717 -1.88721,11.08226 -2.24085,6.46764 -7.96323,14.63598 -12.9301,18.45689 -5.89227,4.53279 -17.16979,9.98717 -25.70847,12.4339 -6.38944,1.83087 -8.46936,2.06933 -15.82001,1.81374 -7.87372,-0.27378 -8.87669,-0.49846 -14.39588,-3.22487 -3.26287,-1.61183 -6.67743,-3.48215 -7.5879,-4.15628 -1.5176,-1.12365 -1.8255,-1.09187 -3.69908,0.38188 -3.84848,3.02723 -11.02086,6.33027 -13.74582,6.33027 -5.33877,0 -8.17655,-5.26144 -8.18482,-15.17527 -0.006,-6.44523 -0.92139,-9.07667 -3.58156,-10.28872 -3.34936,-1.52607 -5.12959,1.01942 -5.97306,8.54069 -0.8042,7.17098 -2.47031,10.07951 -5.97741,10.43477 -4.8638,0.49268 -7.82416,-6.06058 -5.70785,-12.63531 1.24277,-3.86089 1.03647,-8.01317 -0.37636,-7.57507 -0.51243,0.1589 -3.03826,4.50763 -5.61297,9.66385 -5.00757,10.02838 -9.99472,16.24406 -13.03342,16.24406 -0.97371,0 -2.99173,0.93157 -4.4845,2.07016 -5.44321,4.15174 -13.11867,5.28241 -21.04134,3.0996 z m 9.04542,-9.49597 c 7.31148,-1.54933 13.90368,-5.25321 19.16265,-10.76669 4.7157,-4.94393 9.5363,-13.92623 8.76987,-16.34105 -0.68018,-2.14305 -6.73243,-5.74309 -9.65506,-5.74309 -3.44474,0 -6.47957,2.70337 -13.10399,11.67277 -4.82091,6.52747 -6.35228,7.96063 -13.32685,12.47214 -9.63455,6.23211 -10.08839,7.622 -2.94845,9.02963 4.7988,0.94608 5.15917,0.93557 11.10183,-0.32371 z m 113.80297,-1.26821 c 18.79103,-3.75996 30.95107,-11.65724 37.85138,-24.58243 1.31231,-2.45812 2.61785,-6.16076 2.90121,-8.2281 l 0.5152,-3.75878 -6.5584,5.66733 c -19.45765,16.81398 -40.48203,24.55834 -58.52805,21.55886 -5.62304,-0.93462 -7.35958,-0.31226 -5.875,2.10554 1.14736,1.86863 11.44305,6.96787 15.98092,7.915 5.25362,1.09654 4.7138,1.12321 13.71274,-0.67742 z m -43.46465,-2.11784 c 3.23925,-3.77159 2.4322,-7.86355 -2.5756,-13.05905 -3.91636,-4.06316 -6.39328,-4.69716 -6.95503,-1.78023 -0.4373,2.27075 1.50902,12.3681 2.78412,14.44378 1.33699,2.17644 5.03097,2.39299 6.74651,0.3955 z M 243.9122,958.67277 c 0.47819,-6.38815 -0.90512,-4.70234 -1.70984,2.08377 -0.43577,3.67474 -0.34885,4.54348 0.38507,3.84874 0.52132,-0.4935 1.11748,-3.16313 1.32477,-5.93251 z m 66.93757,2.02862 c 10.0313,-2.59937 21.10465,-9.61272 34.15068,-21.62944 7.0505,-6.49423 8.3329,-8.12208 12.38324,-15.71896 2.48504,-4.66097 5.1475,-10.6102 5.91658,-13.2205 1.37524,-4.66763 2.00007,-17.18584 0.9121,-18.27381 -1.26387,-1.26387 -4.53667,2.5227 -10.02065,11.59374 -6.54976,10.83395 -9.33192,14.33393 -13.47125,16.94698 -1.54547,0.97561 -6.0099,4.53191 -9.92098,7.90288 -16.61466,14.32027 -24.59106,18.63956 -39.54537,21.41415 -2.28295,0.42357 -8.43831,6.58382 -8.13921,8.14566 0.1791,0.93515 1.95413,1.68178 6.17443,2.59717 7.78255,1.68804 15.63993,1.77628 21.56043,0.24213 z m -37.85172,-9.15506 c 0.98032,-0.44666 2.46413,-1.93862 3.29737,-3.31546 1.34802,-2.22747 1.52634,-4.24674 1.61805,-18.32336 0.0567,-8.70101 0.14567,-16.79888 0.19775,-17.99527 0.13747,-3.15832 2.30701,-2.753 3.75001,0.70058 0.96527,2.31022 1.1518,5.80408 0.94838,17.76445 -0.22451,13.2011 -0.0999,15.04245 1.09904,16.24569 1.27682,1.28136 1.65209,1.05157 6.72788,-4.1197 9.48258,-9.66094 22.62892,-29.58057 27.50825,-41.68111 5.86995,-14.55723 9.04419,-30.01451 13.03221,-63.46174 2.63099,-22.06591 3.99679,-31.41104 5.94282,-40.66214 0.6765,-3.21597 1.07784,-5.99938 0.89187,-6.18535 -0.65983,-0.65983 -6.88772,10.72116 -9.87754,18.05044 -5.6703,13.90026 -7.80204,26.40202 -6.41089,37.59711 0.81662,6.57157 0.78085,6.91571 -0.90543,8.71067 -0.96561,1.02783 -2.1105,1.86879 -2.54422,1.86879 -1.91411,0 -3.78598,-3.07772 -6.1044,-10.03681 -3.29432,-9.88835 -7.59098,-15.18483 -26.92126,-33.18569 -8.22363,-7.65805 -14.9684,-14.14701 -14.98838,-14.41989 -0.02,-0.27289 -1.95212,-2.60527 -4.29364,-5.18306 l -4.25731,-4.68689 -6.04448,4.54944 c -16.89842,12.71878 -41.32923,35.76796 -46.81343,44.166 -5.61779,8.60262 -7.59423,14.66585 -7.75055,23.77674 -0.11796,6.87542 -0.33218,7.94478 -1.90148,9.49201 l -1.76855,1.74367 -1.91617,-2.20252 c -1.05389,-1.21139 -2.65311,-4.7709 -3.55382,-7.91001 -2.65256,-9.24458 -5.05078,-13.47956 -11.60089,-20.48587 -3.39347,-3.6298 -7.12616,-7.84074 -8.29488,-9.35765 l -2.12493,-2.75799 1.11934,4.3505 c 1.1721,4.55553 1.86227,9.23159 3.96951,26.89403 0.96573,8.09463 2.14688,13.35808 4.88139,21.75252 6.62399,20.3344 12.71763,30.99584 24.94745,43.64814 7.60965,7.87252 19.96471,16.86342 23.17327,16.86342 1.91982,0 3.70304,-3.44786 4.7353,-9.15574 0.30882,-1.70763 0.99358,-3.95162 1.52169,-4.98665 0.93599,-1.83441 0.98157,-1.7977 1.80733,1.45557 0.59034,2.32574 0.59804,4.05196 0.0255,5.69458 -1.12278,3.2208 -0.29513,8.46795 1.64107,10.40416 2.29354,2.29353 6.05447,2.07082 8.63674,-0.51145 1.96521,-1.96521 2.14004,-2.71676 2.56088,-11.0081 0.43937,-8.65668 1.65063,-13.02404 4.01785,-14.48707 2.44622,-1.51185 2.99279,4.98576 0.97366,11.57487 -0.7241,2.36298 -1.34702,6.84796 -1.38426,9.96663 -0.059,4.94434 0.17469,5.92842 1.82559,7.68635 1.77313,1.88809 2.36718,2.01476 9.35866,1.99566 4.10594,-0.0112 8.26742,-0.38584 9.24772,-0.8325 z M 200.04078,841.71092 c 2.92437,-5.67387 5.03057,-8.58014 8.59868,-11.86501 8.53767,-7.85995 13.41413,-16.02923 21.71981,-36.38604 4.6572,-11.41455 10.14589,-22.13375 13.73982,-26.83334 5.17845,-6.77159 15.61993,-23.34092 30.94303,-49.10274 8.40994,-14.13914 17.91315,-29.86814 21.11824,-34.95333 7.62674,-12.1006 9.21025,-16.57334 8.62844,-24.37173 -0.88612,-11.87733 -7.91346,-32.03974 -15.59023,-44.73053 -2.38146,-3.9369 -7.64731,-14.79338 -11.70189,-24.12552 -7.1921,-16.5536 -13.23029,-28.43705 -14.44934,-28.43705 -2.53999,0 -4.58801,11.45937 -5.41976,30.32534 -0.40608,9.21095 -1.25677,19.59299 -1.8904,23.0712 -0.63364,3.47821 -1.38759,8.28175 -1.67546,10.67453 -1.56171,12.98114 -7.48291,35.67083 -13.11184,50.24378 -1.78366,4.61777 -3.10299,8.53597 -2.93185,8.70711 0.17113,0.17113 2.37644,-2.54443 4.90068,-6.03458 9.53779,-13.18746 23.71959,-26.26634 31.94145,-29.45734 5.59413,-2.17115 6.35558,-1.48567 1.75318,1.57827 -14.28955,9.51292 -28.25084,24.4046 -38.74926,41.33155 -2.16663,3.49333 -5.38088,8.2319 -7.14278,10.53015 -1.76189,2.29826 -5.71675,9.33992 -8.78858,15.64815 -3.07183,6.30823 -8.93204,18.23257 -13.0227,26.49853 -4.09066,8.26596 -7.43612,15.29598 -7.43438,15.62226 0.008,1.51115 1.38936,0.26834 3.51802,-3.16541 7.34322,-11.84538 30.00822,-35.95704 42.75871,-45.48792 6.65518,-4.97468 24.24574,-14.54015 27.60297,-15.01004 0.82497,-0.11547 1.64753,0.21104 1.82792,0.72558 0.19136,0.54583 -3.96334,3.11761 -9.97434,6.17415 -17.41493,8.85534 -29.322,18.43086 -43.23178,34.76647 -9.45743,11.10677 -16.76336,21.17504 -20.53565,28.30007 -3.70653,7.00081 -6.49831,10.28374 -8.26765,9.72218 -1.1551,-0.36661 -2.22795,1.80346 -6.6527,13.45656 -6.27892,16.53626 -8.38632,24.78726 -8.3938,32.86386 -0.007,7.53742 1.56115,12.72433 5.33794,17.65644 3.1375,4.09725 3.96278,5.31093 5.60453,8.24206 0.73395,1.31036 1.59962,1.75782 3.06065,1.582 1.6936,-0.2038 2.69057,-1.51273 5.91032,-7.75966 z m 110.9468,-15.99602 c 1.01317,-1.44649 1.23136,-4.51522 1.23136,-17.31821 0,-18.98025 1.01074,-29.52811 3.65011,-38.09157 2.74507,-8.90646 6.67736,-25.93278 6.43547,-27.8648 -0.28915,-2.30944 -6.77534,6.10267 -15.55256,20.17052 -7.84288,12.57031 -11.07038,16.92776 -11.1156,15.00715 -0.0751,-3.19393 7.76571,-16.31632 20.35774,-34.07037 l 6.50785,-9.1757 -0.004,-7.43531 c -0.008,-16.90665 -2.05307,-40.84281 -4.45288,-52.12686 -1.47255,-6.92412 -4.91251,-15.98937 -5.84801,-15.4112 -0.35625,0.22018 -0.89579,1.55308 -1.19898,2.96201 -0.98895,4.59572 -4.83577,12.14699 -11.65377,22.87626 -3.68181,5.79395 -11.78496,19.07726 -18.007,29.51847 -13.17053,22.10147 -24.919,41.03265 -32.39846,52.20605 -6.32776,9.4529 -13.96776,23.29923 -16.87782,30.58845 -2.06374,5.17001 -2.76727,10.14809 -1.4339,10.14809 1.56612,0 7.34837,-4.98953 12.44231,-10.73652 14.7412,-16.63106 18.37274,-19.6297 20.94909,-17.29814 3.52685,3.19176 6.22019,0.43291 13.23258,-13.5544 2.19805,-4.38434 5.53676,-9.78204 7.41936,-11.9949 1.88259,-2.21285 5.27329,-7.52442 7.53487,-11.80349 2.26158,-4.27906 4.67387,-8.49202 5.36064,-9.36212 1.16949,-1.48168 1.21737,-1.33119 0.75505,2.373 -0.78612,6.29842 -2.34107,8.98866 -26.51718,45.87805 -3.21299,4.90257 -3.51344,9.13066 -0.9085,12.78517 0.98095,1.37619 5.09262,5.02225 9.13703,8.10235 4.04442,3.08009 10.87636,9.38859 15.18211,14.01888 7.40955,7.96803 11.46522,11.35751 13.5978,11.36419 0.51914,0.002 1.49801,-0.78815 2.17525,-1.75505 z M 170.00194,805.12713 c -0.44011,-22.87109 -2.30938,-28.93105 -11.60704,-37.62856 -6.40732,-5.99373 -13.29121,-9.62262 -19.32135,-10.1854 l -4.43429,-0.41385 2.96703,2.51849 c 4.40464,3.73876 6.56946,8.05195 11.20689,22.32859 4.17167,12.84273 8.81823,23.2417 13.30727,29.78155 2.85595,4.16069 6.89056,8.82595 7.63286,8.82595 0.2979,0 0.40978,-6.85205 0.24863,-15.22677 z m 7.38185,4.74186 c 0.82769,-4.93054 6.20852,-21.38433 9.92696,-30.3552 1.77968,-4.29355 10.82215,-23.29028 20.09438,-42.21498 31.46183,-64.21385 35.76076,-76.48065 41.85842,-119.44112 3.31027,-23.32219 4.91598,-51.0382 2.65791,-45.87805 -0.47595,1.08763 -3.4353,7.67271 -6.57636,14.63352 -6.38628,14.15248 -7.21321,16.43821 -8.2487,22.80051 -0.65703,4.03695 -0.53773,4.78325 1.28634,8.04686 3.19255,5.7121 0.79486,8.2672 -3.24857,3.46184 -1.14419,-1.35978 -2.16818,-2.33864 -2.27555,-2.17525 -0.10738,0.16339 -2.56785,5.28038 -5.46772,11.37108 -5.9978,12.59743 -7.04646,17.25382 -4.99271,22.16915 0.71729,1.7167 2.06112,3.92704 2.98629,4.91183 2.41681,2.57258 0.56494,2.20622 -2.94414,-0.58245 -4.65276,-3.69755 -5.54071,-3.26664 -8.15012,3.955 -0.86459,2.39278 -2.84903,7.37609 -4.40988,11.07402 -2.9364,6.95687 -3.68955,12.80041 -2.04568,15.87201 0.73698,1.37706 0.54239,1.53 -1.94669,1.53 -3.43561,0 -5.46923,2.03423 -6.80574,6.80777 -0.90752,3.24135 -0.85382,3.67723 0.65104,5.28376 1.62287,1.73252 3.32755,5.36937 3.32755,7.09916 0,0.49206 -1.21507,-0.28302 -2.70015,-1.72242 -3.12307,-3.027 -3.98584,-2.7694 -6.06585,1.81109 -1.75938,3.87443 -1.90074,8.82283 -0.3305,11.56967 1.53089,2.67802 1.47971,2.91892 -0.73849,3.47565 -3.74882,0.94089 -6.81121,7.38123 -9.56067,20.10651 l -1.41539,6.55081 1.70904,1.19705 c 2.2734,1.59236 4.073,5.2069 4.073,8.18074 0,3.50298 -1.10242,2.98407 -4.20789,-1.98069 l -2.74783,-4.39299 -1.28334,3.40423 c -3.09259,8.20352 -3.78284,14.14951 -4.19499,36.13656 -0.27644,14.74777 -0.14619,21.49776 0.4082,21.15513 0.4478,-0.27676 1.06782,-2.01411 1.37783,-3.8608 z m 148.17011,-8.05395 c 12.19232,-23.30202 21.74718,-36.18846 34.78853,-46.91857 8.21595,-6.75989 17.41146,-16.18686 16.18743,-16.59487 -1.15945,-0.38649 -11.65485,3.51767 -17.95419,6.67872 -11.22114,5.63086 -26.29527,15.16534 -29.53731,18.68254 -7.36028,7.98496 -10.74307,18.29798 -10.81158,32.96101 -0.0408,8.73511 0.61944,15.82002 1.47432,15.82002 0.1603,0 2.79407,-4.78299 5.8528,-10.62885 z"
         id="path1967"
         inkscape:connector-curvature="0"
         transform="matrix(0,-0.00122549,-9.4696972e-4,0,1.4344512,1.3877455)" /><path
         style="fill:none;fill-opacity:1;stroke:none;stroke-width:0.27966103;stroke-miterlimit:4;stroke-dasharray:none"
         d="m 197.41621,689.64566 c 0,-0.2886 3.75626,-9.22054 7.13229,-16.95975 13.28928,-30.46432 32.17922,-76.96344 41.52458,-102.2161 5.0666,-13.69077 7.44662,-16.84272 14.26686,-18.8942 1.1612,-0.34928 2.90888,-0.64232 3.91525,-0.65648 4.25754,-0.0599 5.77251,2.41307 9.2526,15.10375 1.07757,3.92952 2.35155,8.22886 2.83107,9.55408 0.82865,2.29007 8.81386,18.45477 18.75221,37.96064 5.03281,9.87782 8.41124,17.18943 10.40234,22.51272 2.2391,5.98635 2.12827,5.83325 5.06368,6.99494 1.39423,0.55176 2.92741,1.28266 3.40708,1.62422 3.74318,2.66538 6.23816,8.7167 8.14976,19.76643 0.43407,2.50906 3.38703,24.47252 3.38703,25.19194 0,0.0646 -1.1734,0.11738 -2.60755,0.11738 h -2.60754 l -0.76841,-5.58196 c -0.42263,-3.07008 -1.01292,-6.77885 -1.31176,-8.24171 -1.17702,-5.7616 -3.89792,-13.86612 -5.33081,-15.87843 l -0.6057,-0.85062 -0.36762,0.70163 c -0.2022,0.3859 -0.6281,1.65109 -0.94647,2.81153 -1.40104,5.10684 -3.80098,9.84149 -10.69373,21.09676 l -3.63938,5.9428 h -2.48352 -2.48351 l 0.66139,-1.04873 c 8.95306,-14.19632 11.25232,-18.73739 12.31736,-24.32692 1.1597,-6.08637 -1.65791,-19.47609 -6.95971,-33.0735 -2.55949,-6.56426 -4.59803,-10.87717 -7.93107,-16.77966 -3.52513,-6.24264 -7.91497,-15.27636 -13.04623,-26.84746 -6.55223,-14.7754 -11.57468,-24.81697 -13.1553,-26.30189 l -0.65049,-0.6111 -0.67599,0.72941 c -0.91546,0.9878 -1.71668,3.55766 -2.5532,8.18922 -0.90271,4.99804 -1.16488,7.58032 -1.68497,16.59605 -1.07639,18.65922 -1.54817,24.2603 -2.53227,30.06356 -0.36516,2.15339 -0.9928,6.24344 -1.39475,9.08899 -2.1729,15.38264 -7.04577,33.57436 -14.19554,52.99576 -0.84937,2.3072 -1.6396,4.50855 -1.75606,4.89187 -0.19273,0.63435 -0.16872,0.66125 0.26725,0.29943 0.26345,-0.21865 2.19579,-2.66865 4.29407,-5.44445 6.53022,-8.63875 12.41434,-15.08582 18.93154,-20.74277 4.68488,-4.06649 7.84507,-6.29699 11.47559,-8.09959 3.99454,-1.98335 7.41833,-2.74672 6.30554,-1.40589 -0.18928,0.22806 -2.06346,1.63721 -4.16486,3.13145 -13.17126,9.36567 -24.7342,21.39244 -34.16964,35.5403 l -2.09175,3.13645 -4.57441,0.01 c -3.55217,0.008 -4.54253,-0.0684 -4.43173,-0.33985 0.0785,-0.19227 1.0444,-2.48898 2.14649,-5.10381 4.18951,-9.94003 8.93447,-23.60804 10.8878,-31.36264 3.13327,-12.43885 7.18055,-39.21986 8.99604,-59.52719 0.73621,-8.23499 1.07128,-22.08408 0.52993,-21.90363 -0.57901,0.193 -11.58474,24.83298 -13.39332,29.9854 -1.10117,3.13708 -2.25826,8.79694 -2.25826,11.0462 0,1.49509 0.1801,2.0844 1.38418,4.52936 1.49047,3.02652 1.94103,4.85922 1.42955,5.81492 -0.69713,1.30261 -2.29818,0.52752 -4.9614,-2.40186 l -1.72818,-1.9009 -2.01026,4.19492 c -6.90716,14.41352 -8.29075,17.70986 -9.08925,21.65486 -0.95117,4.69923 0.20117,8.75637 3.66439,12.90158 2.02738,2.42662 1.00509,2.22657 -2.95174,-0.57763 -4.47067,-3.16836 -5.47163,-3.03822 -7.08863,0.92161 -3.4692,8.4956 -7.29907,18.48 -7.77022,20.25678 -0.83835,3.16162 -0.83947,7.29139 -0.002,9.15927 0.59648,1.33112 0.60188,1.40923 0.12195,1.76546 -0.3312,0.24583 -0.89403,0.31521 -1.65327,0.20379 -0.72526,-0.10644 -1.60469,-0.011 -2.37712,0.25801 -1.06135,0.3696 -6.39974,0.64947 -6.39974,0.33551 z"
         id="path1969"
         inkscape:connector-curvature="0"
         transform="matrix(0,-0.00122549,-9.4696972e-4,0,1.4344512,1.3877455)" /><path
         style="fill:none;fill-opacity:1;stroke:none;stroke-width:0.27966103;stroke-miterlimit:4;stroke-dasharray:none"
         d="m 197.41621,689.64566 c 0,-0.2886 3.75626,-9.22054 7.13229,-16.95975 13.28928,-30.46432 32.17922,-76.96344 41.52458,-102.2161 5.0666,-13.69077 7.44662,-16.84272 14.26686,-18.8942 1.1612,-0.34928 2.90888,-0.64232 3.91525,-0.65648 4.25754,-0.0599 5.77251,2.41307 9.2526,15.10375 1.07757,3.92952 2.35155,8.22886 2.83107,9.55408 0.82865,2.29007 8.81386,18.45477 18.75221,37.96064 5.03281,9.87782 8.41124,17.18943 10.40234,22.51272 2.2391,5.98635 2.12827,5.83325 5.06368,6.99494 1.39423,0.55176 2.92741,1.28266 3.40708,1.62422 3.74318,2.66538 6.23816,8.7167 8.14976,19.76643 0.43407,2.50906 3.38703,24.47252 3.38703,25.19194 0,0.0646 -1.1734,0.11738 -2.60755,0.11738 h -2.60754 l -0.76841,-5.58196 c -0.42263,-3.07008 -1.01292,-6.77885 -1.31176,-8.24171 -1.17702,-5.7616 -3.89792,-13.86612 -5.33081,-15.87843 l -0.6057,-0.85062 -0.36762,0.70163 c -0.2022,0.3859 -0.6281,1.65109 -0.94647,2.81153 -1.40104,5.10684 -3.80098,9.84149 -10.69373,21.09676 l -3.63938,5.9428 h -2.48352 -2.48351 l 0.66139,-1.04873 c 8.95306,-14.19632 11.25232,-18.73739 12.31736,-24.32692 1.1597,-6.08637 -1.65791,-19.47609 -6.95971,-33.0735 -2.55949,-6.56426 -4.59803,-10.87717 -7.93107,-16.77966 -3.52513,-6.24264 -7.91497,-15.27636 -13.04623,-26.84746 -6.55223,-14.7754 -11.57468,-24.81697 -13.1553,-26.30189 l -0.65049,-0.6111 -0.67599,0.72941 c -0.91546,0.9878 -1.71668,3.55766 -2.5532,8.18922 -0.90271,4.99804 -1.16488,7.58032 -1.68497,16.59605 -1.07639,18.65922 -1.54817,24.2603 -2.53227,30.06356 -0.36516,2.15339 -0.9928,6.24344 -1.39475,9.08899 -2.1729,15.38264 -7.04577,33.57436 -14.19554,52.99576 -0.84937,2.3072 -1.6396,4.50855 -1.75606,4.89187 -0.19273,0.63435 -0.16872,0.66125 0.26725,0.29943 0.26345,-0.21865 2.19579,-2.66865 4.29407,-5.44445 6.53022,-8.63875 12.41434,-15.08582 18.93154,-20.74277 4.68488,-4.06649 7.84507,-6.29699 11.47559,-8.09959 3.99454,-1.98335 7.41833,-2.74672 6.30554,-1.40589 -0.18928,0.22806 -2.06346,1.63721 -4.16486,3.13145 -13.17126,9.36567 -24.7342,21.39244 -34.16964,35.5403 l -2.09175,3.13645 -4.57441,0.01 c -3.55217,0.008 -4.54253,-0.0684 -4.43173,-0.33985 0.0785,-0.19227 1.0444,-2.48898 2.14649,-5.10381 4.18951,-9.94003 8.93447,-23.60804 10.8878,-31.36264 3.13327,-12.43885 7.18055,-39.21986 8.99604,-59.52719 0.73621,-8.23499 1.07128,-22.08408 0.52993,-21.90363 -0.57901,0.193 -11.58474,24.83298 -13.39332,29.9854 -1.10117,3.13708 -2.25826,8.79694 -2.25826,11.0462 0,1.49509 0.1801,2.0844 1.38418,4.52936 1.49047,3.02652 1.94103,4.85922 1.42955,5.81492 -0.69713,1.30261 -2.29818,0.52752 -4.9614,-2.40186 l -1.72818,-1.9009 -2.01026,4.19492 c -6.90716,14.41352 -8.29075,17.70986 -9.08925,21.65486 -0.95117,4.69923 0.20117,8.75637 3.66439,12.90158 2.02738,2.42662 1.00509,2.22657 -2.95174,-0.57763 -4.47067,-3.16836 -5.47163,-3.03822 -7.08863,0.92161 -3.4692,8.4956 -7.29907,18.48 -7.77022,20.25678 -0.83835,3.16162 -0.83947,7.29139 -0.002,9.15927 0.59648,1.33112 0.60188,1.40923 0.12195,1.76546 -0.3312,0.24583 -0.89403,0.31521 -1.65327,0.20379 -0.72526,-0.10644 -1.60469,-0.011 -2.37712,0.25801 -1.06135,0.3696 -6.39974,0.64947 -6.39974,0.33551 z"
         id="path1971"
         inkscape:connector-curvature="0"
         transform="matrix(0,-0.00122549,-9.4696972e-4,0,1.4344512,1.3877455)" /><path
         style="fill:none;fill-opacity:1;stroke:none;stroke-width:0.27966103;stroke-miterlimit:4;stroke-dasharray:none"
         d="m 197.41621,689.64566 c 0,-0.2886 3.75626,-9.22054 7.13229,-16.95975 13.28928,-30.46432 32.17922,-76.96344 41.52458,-102.2161 5.0666,-13.69077 7.44662,-16.84272 14.26686,-18.8942 1.1612,-0.34928 2.90888,-0.64232 3.91525,-0.65648 4.25754,-0.0599 5.77251,2.41307 9.2526,15.10375 1.07757,3.92952 2.35155,8.22886 2.83107,9.55408 0.82865,2.29007 8.81386,18.45477 18.75221,37.96064 5.03281,9.87782 8.41124,17.18943 10.40234,22.51272 2.2391,5.98635 2.12827,5.83325 5.06368,6.99494 1.39423,0.55176 2.92741,1.28266 3.40708,1.62422 3.74318,2.66538 6.23816,8.7167 8.14976,19.76643 0.43407,2.50906 3.38703,24.47252 3.38703,25.19194 0,0.0646 -1.1734,0.11738 -2.60755,0.11738 h -2.60754 l -0.76841,-5.58196 c -0.42263,-3.07008 -1.01292,-6.77885 -1.31176,-8.24171 -1.17702,-5.7616 -3.89792,-13.86612 -5.33081,-15.87843 l -0.6057,-0.85062 -0.36762,0.70163 c -0.2022,0.3859 -0.6281,1.65109 -0.94647,2.81153 -1.40104,5.10684 -3.80098,9.84149 -10.69373,21.09676 l -3.63938,5.9428 h -2.48352 -2.48351 l 0.66139,-1.04873 c 8.95306,-14.19632 11.25232,-18.73739 12.31736,-24.32692 1.1597,-6.08637 -1.65791,-19.47609 -6.95971,-33.0735 -2.55949,-6.56426 -4.59803,-10.87717 -7.93107,-16.77966 -3.52513,-6.24264 -7.91497,-15.27636 -13.04623,-26.84746 -6.55223,-14.7754 -11.57468,-24.81697 -13.1553,-26.30189 l -0.65049,-0.6111 -0.67599,0.72941 c -0.91546,0.9878 -1.71668,3.55766 -2.5532,8.18922 -0.90271,4.99804 -1.16488,7.58032 -1.68497,16.59605 -1.07639,18.65922 -1.54817,24.2603 -2.53227,30.06356 -0.36516,2.15339 -0.9928,6.24344 -1.39475,9.08899 -2.1729,15.38264 -7.04577,33.57436 -14.19554,52.99576 -0.84937,2.3072 -1.6396,4.50855 -1.75606,4.89187 -0.19273,0.63435 -0.16872,0.66125 0.26725,0.29943 0.26345,-0.21865 2.19579,-2.66865 4.29407,-5.44445 6.53022,-8.63875 12.41434,-15.08582 18.93154,-20.74277 4.68488,-4.06649 7.84507,-6.29699 11.47559,-8.09959 3.99454,-1.98335 7.41833,-2.74672 6.30554,-1.40589 -0.18928,0.22806 -2.06346,1.63721 -4.16486,3.13145 -13.17126,9.36567 -24.7342,21.39244 -34.16964,35.5403 l -2.09175,3.13645 -4.57441,0.01 c -3.55217,0.008 -4.54253,-0.0684 -4.43173,-0.33985 0.0785,-0.19227 1.0444,-2.48898 2.14649,-5.10381 4.18951,-9.94003 8.93447,-23.60804 10.8878,-31.36264 3.13327,-12.43885 7.18055,-39.21986 8.99604,-59.52719 0.73621,-8.23499 1.07128,-22.08408 0.52993,-21.90363 -0.57901,0.193 -11.58474,24.83298 -13.39332,29.9854 -1.10117,3.13708 -2.25826,8.79694 -2.25826,11.0462 0,1.49509 0.1801,2.0844 1.38418,4.52936 1.49047,3.02652 1.94103,4.85922 1.42955,5.81492 -0.69713,1.30261 -2.29818,0.52752 -4.9614,-2.40186 l -1.72818,-1.9009 -2.01026,4.19492 c -6.90716,14.41352 -8.29075,17.70986 -9.08925,21.65486 -0.95117,4.69923 0.20117,8.75637 3.66439,12.90158 2.02738,2.42662 1.00509,2.22657 -2.95174,-0.57763 -4.47067,-3.16836 -5.47163,-3.03822 -7.08863,0.92161 -3.4692,8.4956 -7.29907,18.48 -7.77022,20.25678 -0.83835,3.16162 -0.83947,7.29139 -0.002,9.15927 0.59648,1.33112 0.60188,1.40923 0.12195,1.76546 -0.3312,0.24583 -0.89403,0.31521 -1.65327,0.20379 -0.72526,-0.10644 -1.60469,-0.011 -2.37712,0.25801 -1.06135,0.3696 -6.39974,0.64947 -6.39974,0.33551 z"
         id="path1973"
         inkscape:connector-curvature="0"
         transform="matrix(0,-0.00122549,-9.4696972e-4,0,1.4344512,1.3877455)" /><path
         style="fill:#000000;fill-opacity:1;stroke:none;stroke-width:0.27966103;stroke-miterlimit:4;stroke-dasharray:none"
         d="m 197.41621,689.64566 c 0,-0.2886 3.75626,-9.22054 7.13229,-16.95975 13.28928,-30.46432 32.17922,-76.96344 41.52458,-102.2161 5.0666,-13.69077 7.44662,-16.84272 14.26686,-18.8942 1.1612,-0.34928 2.90888,-0.64232 3.91525,-0.65648 4.25754,-0.0599 5.77251,2.41307 9.2526,15.10375 1.07757,3.92952 2.35155,8.22886 2.83107,9.55408 0.82865,2.29007 8.81386,18.45477 18.75221,37.96064 5.03281,9.87782 8.41124,17.18943 10.40234,22.51272 2.2391,5.98635 2.12827,5.83325 5.06368,6.99494 1.39423,0.55176 2.92741,1.28266 3.40708,1.62422 3.74318,2.66538 6.23816,8.7167 8.14976,19.76643 0.43407,2.50906 3.38703,24.47252 3.38703,25.19194 0,0.0646 -1.1734,0.11738 -2.60755,0.11738 h -2.60754 l -0.76841,-5.58196 c -0.42263,-3.07008 -1.01292,-6.77885 -1.31176,-8.24171 -1.17702,-5.7616 -3.89792,-13.86612 -5.33081,-15.87843 l -0.6057,-0.85062 -0.36762,0.70163 c -0.2022,0.3859 -0.6281,1.65109 -0.94647,2.81153 -1.40104,5.10684 -3.80098,9.84149 -10.69373,21.09676 l -3.63938,5.9428 h -2.48352 -2.48351 l 0.66139,-1.04873 c 8.95306,-14.19632 11.25232,-18.73739 12.31736,-24.32692 1.1597,-6.08637 -1.65791,-19.47609 -6.95971,-33.0735 -2.55949,-6.56426 -4.59803,-10.87717 -7.93107,-16.77966 -3.52513,-6.24264 -7.91497,-15.27636 -13.04623,-26.84746 -6.55223,-14.7754 -11.57468,-24.81697 -13.1553,-26.30189 l -0.65049,-0.6111 -0.67599,0.72941 c -0.91546,0.9878 -1.71668,3.55766 -2.5532,8.18922 -0.90271,4.99804 -1.16488,7.58032 -1.68497,16.59605 -1.07639,18.65922 -1.54817,24.2603 -2.53227,30.06356 -0.36516,2.15339 -0.9928,6.24344 -1.39475,9.08899 -2.1729,15.38264 -7.04577,33.57436 -14.19554,52.99576 -0.84937,2.3072 -1.6396,4.50855 -1.75606,4.89187 -0.19273,0.63435 -0.16872,0.66125 0.26725,0.29943 0.26345,-0.21865 2.19579,-2.66865 4.29407,-5.44445 6.53022,-8.63875 12.41434,-15.08582 18.93154,-20.74277 4.68488,-4.06649 7.84507,-6.29699 11.47559,-8.09959 3.99454,-1.98335 7.41833,-2.74672 6.30554,-1.40589 -0.18928,0.22806 -2.06346,1.63721 -4.16486,3.13145 -13.17126,9.36567 -24.7342,21.39244 -34.16964,35.5403 l -2.09175,3.13645 -4.57441,0.01 c -3.55217,0.008 -4.54253,-0.0684 -4.43173,-0.33985 0.0785,-0.19227 1.0444,-2.48898 2.14649,-5.10381 4.18951,-9.94003 8.93447,-23.60804 10.8878,-31.36264 3.13327,-12.43885 7.18055,-39.21986 8.99604,-59.52719 0.73621,-8.23499 1.07128,-22.08408 0.52993,-21.90363 -0.57901,0.193 -11.58474,24.83298 -13.39332,29.9854 -1.10117,3.13708 -2.25826,8.79694 -2.25826,11.0462 0,1.49509 0.1801,2.0844 1.38418,4.52936 1.49047,3.02652 1.94103,4.85922 1.42955,5.81492 -0.69713,1.30261 -2.29818,0.52752 -4.9614,-2.40186 l -1.72818,-1.9009 -2.01026,4.19492 c -6.90716,14.41352 -8.29075,17.70986 -9.08925,21.65486 -0.95117,4.69923 0.20117,8.75637 3.66439,12.90158 2.02738,2.42662 1.00509,2.22657 -2.95174,-0.57763 -4.47067,-3.16836 -5.47163,-3.03822 -7.08863,0.92161 -3.4692,8.4956 -7.29907,18.48 -7.77022,20.25678 -0.83835,3.16162 -0.83947,7.29139 -0.002,9.15927 0.59648,1.33112 0.60188,1.40923 0.12195,1.76546 -0.3312,0.24583 -0.89403,0.31521 -1.65327,0.20379 -0.72526,-0.10644 -1.60469,-0.011 -2.37712,0.25801 -1.06135,0.3696 -6.39974,0.64947 -6.39974,0.33551 z"
         id="path1975"
         inkscape:connector-curvature="0"
         transform="matrix(0,-0.00122549,-9.4696972e-4,0,1.4344512,1.3877455)" /><path
         style="fill:#000000;fill-opacity:1;stroke:none;stroke-width:0.55932206;stroke-miterlimit:4;stroke-dasharray:none"
         d=""
         id="path1979"
         inkscape:connector-curvature="0"
         transform="matrix(0,-0.00122549,-9.4696972e-4,0,1.4344512,1.3877455)" /><path
         style="fill:#000000;fill-opacity:1;stroke:none;stroke-width:0.39550039;stroke-miterlimit:4;stroke-dasharray:none"
         d="m 178.08478,820.1474 -1.86949,-6.10891 1.19248,-4.68632 c 2.27161,-8.92713 6.97245,-23.12178 10.06554,-30.39384 1.46769,-3.45066 10.06242,-21.51343 17.61885,-37.02795 13.2993,-27.30557 16.9676,-34.98104 20.94609,-43.82711 l 3.81316,-8.47849 4.31847,0.10725 c 2.37515,0.059 4.38426,0.17297 4.46469,0.2533 0.0804,0.0803 -1.61034,2.74008 -3.75725,5.91057 -8.83344,13.04494 -8.08653,11.66159 -24.77498,45.88539 -4.45499,9.13606 -8.22965,17.03252 -8.38814,17.54768 -0.58417,1.89889 0.79094,0.57902 3.55211,-3.4094 6.59312,-9.52356 14.87558,-19.08246 26.54141,-30.63179 9.0001,-8.91021 13.18754,-12.52127 18.94113,-16.33397 10.29998,-6.82543 23.46848,-13.50122 25.55556,-12.95544 2.18453,0.57127 0.0469,2.16302 -9.75913,7.26705 -9.97721,5.19312 -15.47637,8.78058 -23.50869,15.33626 -13.13144,10.71737 -30.61467,31.6832 -39.61227,47.50288 -3.8628,6.79162 -6.15171,9.49201 -8.04563,9.49201 -1.1716,0 -1.35968,0.18627 -2.29622,2.27413 -2.6361,5.87672 -8.38896,21.48527 -10.09457,27.3884 -1.8794,6.50463 -2.50945,10.06987 -2.78139,15.73899 l -0.25223,5.25821 z"
         id="path1989"
         inkscape:connector-curvature="0"
         transform="matrix(0,-0.00122549,-9.4696972e-4,0,1.4344512,1.3877455)" /><path
         style="fill:#000000;fill-opacity:1;stroke:none;stroke-width:0.39550039;stroke-miterlimit:4;stroke-dasharray:none"
         d="m 218.12007,818.95066 c 0,-0.18635 0.61995,-1.35938 1.37768,-2.60673 2.32612,-3.8292 5.85496,-11.25123 9.87739,-20.77459 2.11318,-5.00308 5.32563,-12.12208 7.13878,-15.82001 3.21477,-6.55654 4.28753,-8.3083 12.10998,-19.77502 5.5758,-8.17342 11.52482,-17.77491 28.05644,-45.28205 l 14.85748,-24.72152 2.49665,-0.11907 2.49664,-0.11907 -0.79113,1.30557 c -0.43512,0.71806 -5.99699,9.93737 -12.35971,20.48734 -18.22044,30.21113 -23.80514,39.23265 -33.97434,54.88209 -6.31437,9.71722 -9.73049,15.61794 -14.02059,24.21799 -3.68319,7.38345 -4.99707,10.979 -5.29535,14.49129 l -0.20625,2.42854 -5.88183,5.87203 c -3.23501,3.22961 -5.88184,5.71956 -5.88184,5.53321 z"
         id="path1991"
         inkscape:connector-curvature="0"
         transform="matrix(0,-0.00122549,-9.4696972e-4,0,1.4344512,1.3877455)" /><path
         style="fill:#000000;fill-opacity:1;stroke:none;stroke-width:0.39550039;stroke-miterlimit:4;stroke-dasharray:none"
         d="m 267.06324,784.72085 c -1.03324,-1.92503 -1.87862,-3.60868 -1.87862,-3.74142 0,-0.13274 0.52773,-0.24135 1.17274,-0.24135 2.4408,0 4.6913,-2.92149 9.90155,-12.85376 3.53303,-6.73501 6.17071,-11.05592 8.68204,-14.22247 2.23067,-2.81267 4.20541,-5.99054 8.21973,-13.22768 3.80627,-6.86207 4.8027,-8.41885 5.22249,-8.1594 0.41089,0.25394 0.15991,2.72402 -0.59288,5.83516 -0.97235,4.01853 -4.55367,10.3469 -13.94013,24.63288 -6.44614,9.8109 -12.83917,19.84262 -13.66524,21.44304 -0.36125,0.69989 -0.78872,1.8941 -0.94993,2.6538 l -0.29312,1.38127 z"
         id="path1993"
         inkscape:connector-curvature="0"
         transform="matrix(0,-0.00122549,-9.4696972e-4,0,1.4344512,1.3877455)" /><path
         style="fill:#000000;fill-opacity:1;stroke:none;stroke-width:0.39550039;stroke-miterlimit:4;stroke-dasharray:none"
         d="m 295.64298,777.27745 c 0.022,-3.14934 8.77723,-17.52092 22.10639,-36.28716 l 4.77553,-6.72351 10e-4,-5.1415 c 0.003,-8.94577 -1.50078,-35.46022 -2.1807,-38.46242 -0.19382,-0.85585 -0.0979,-0.88987 2.50822,-0.88987 h 2.70974 l 0.66491,4.44938 c 2.00069,13.38814 3.00193,32.40102 2.31706,43.99942 -0.24405,4.13297 -0.74529,9.59322 -1.11387,12.13387 l -0.67014,4.61937 -2.80682,0.6597 c -1.90097,0.4468 -3.094,0.97344 -3.69668,1.63182 -0.48943,0.53466 -0.88988,0.79121 -0.88988,0.57011 0,-0.2211 0.5348,-2.79393 1.18845,-5.7174 0.65364,-2.92347 1.30505,-6.43103 1.44757,-7.79459 l 0.25913,-2.47919 -0.93464,0.65465 c -2.13879,1.49806 -7.63305,9.2974 -17.96813,25.50651 -5.50728,8.6374 -7.7318,11.30961 -7.71757,9.27081 z"
         id="path1995"
         inkscape:connector-curvature="0"
         transform="matrix(0,-0.00122549,-9.4696972e-4,0,1.4344512,1.3877455)" /><path
         style="fill:#000000;fill-opacity:1;stroke:none;stroke-width:0.39550039;stroke-miterlimit:4;stroke-dasharray:none"
         d=""
         id="path2001"
         inkscape:connector-curvature="0"
         transform="matrix(0,-0.00122549,-9.4696972e-4,0,1.4344512,1.3877455)" /><path
         style="fill:#000000;fill-opacity:1;stroke:none;stroke-width:0.39550039;stroke-miterlimit:4;stroke-dasharray:none"
         d="m 173.29475,787.57916 c -1.05243,-9.39769 -1.81122,-17.25222 -1.6862,-17.45452 0.12503,-0.20229 0.66381,-2.51523 1.1973,-5.13985 2.46433,-12.12396 14.56001,-49.82542 22.57566,-70.36692 l 1.89056,-4.84488 1.42637,-0.004 c 0.7845,-0.002 2.13826,-0.11084 3.00836,-0.241 1.55585,-0.23274 1.56717,-0.22567 0.68484,0.42738 -1.21088,0.89623 -2.74091,4.01376 -3.43942,7.00798 l -0.57368,2.45916 1.37492,1.67791 c 2.16017,2.6362 4.08624,7.26145 3.02385,7.26145 -0.17256,0 -1.37193,-0.89474 -2.66528,-1.9883 -1.29334,-1.09357 -2.61419,-1.93772 -2.93522,-1.87589 -0.32103,0.0618 -0.98379,0.70611 -1.47279,1.43174 -2.82327,4.18945 -3.49289,10.03022 -1.6106,14.04863 0.59819,1.27705 1.08763,2.37635 1.08763,2.44288 0,0.0665 -0.94462,0.55342 -2.09915,1.08198 -2.41542,1.10582 -4.21179,3.4746 -5.93737,7.8293 -1.02018,2.57457 -3.3452,11.36768 -4.23609,16.02077 l -0.46092,2.40732 2.14428,2.14429 c 2.35184,2.35184 3.47024,4.84041 3.47024,7.72169 0,3.35404 -1.24805,2.62198 -4.63299,-2.71755 -1.55074,-2.44619 -2.31768,-3.34389 -2.54999,-2.98472 -0.18272,0.28251 -0.94142,2.38239 -1.686,4.66641 -2.54204,7.79778 -3.29762,14.6398 -3.71246,33.61753 l -0.27232,12.45826 z"
         id="path2003"
         inkscape:connector-curvature="0"
         transform="matrix(0,-0.00122549,-9.4696972e-4,0,1.4344512,1.3877455)" /></g></g></svg>