<?xml version="1.0" encoding="UTF-8" standalone="no"?>
<!-- Created with Inkscape (http://www.inkscape.org/) -->

<svg
   xmlns:dc="http://purl.org/dc/elements/1.1/"
   xmlns:cc="http://creativecommons.org/ns#"
   xmlns:rdf="http://www.w3.org/1999/02/22-rdf-syntax-ns#"
   xmlns:svg="http://www.w3.org/2000/svg"
   xmlns="http://www.w3.org/2000/svg"
   xmlns:sodipodi="http://sodipodi.sourceforge.net/DTD/sodipodi-0.dtd"
   xmlns:inkscape="http://www.inkscape.org/namespaces/inkscape"
   version="1.1"
   id="svg905"
   xml:space="preserve"
   width="697.59882"
   height="669.05475"
   viewBox="0 0 697.59882 669.05475"
   sodipodi:docname="2.svg"
   inkscape:version="0.92.2 5c3e80d, 2017-08-06"><metadata
     id="metadata911"><rdf:RDF><cc:Work
         rdf:about=""><dc:format>image/svg+xml</dc:format><dc:type
           rdf:resource="http://purl.org/dc/dcmitype/StillImage" /><dc:title></dc:title></cc:Work></rdf:RDF></metadata><defs
     id="defs909" /><sodipodi:namedview
     pagecolor="#ffffff"
     bordercolor="#666666"
     borderopacity="1"
     objecttolerance="10"
     gridtolerance="10"
     guidetolerance="10"
     inkscape:pageopacity="0"
     inkscape:pageshadow="2"
     inkscape:window-width="1272"
     inkscape:window-height="726"
     id="namedview907"
     showgrid="false"
     inkscape:zoom="0.4469697"
     inkscape:cx="449.31836"
     inkscape:cy="294.58592"
     inkscape:window-x="0"
     inkscape:window-y="0"
     inkscape:window-maximized="0"
     inkscape:current-layer="g915"
     fit-margin-top="0"
     fit-margin-left="0"
     fit-margin-right="0"
     fit-margin-bottom="0" /><g
     id="g913"
     inkscape:groupmode="layer"
     inkscape:label="Hibiscus_Salvia_Firewheel"
     transform="matrix(0,-1.3333333,-1.3333333,0,805.54576,871.64386)"><g
       id="g915"
       transform="scale(792,612)"><ellipse
         style="fill:#550044;fill-opacity:1;stroke:none;stroke-width:0.00129414;stroke-miterlimit:4;stroke-dasharray:none"
         id="path2117"
         cx="-0.56131607"
         cy="-0.52145123"
         transform="matrix(0,-1,-1,0,0,0)"
         rx="0.086365893"
         ry="0.06541314" /><path
         style="fill:#000000;stroke-width:0.00034473"
         d="m 0.397815,0.17669034 c 0.0173862,-0.009128 0.0370228,-0.0264849 0.0582038,-0.0337504 0.009188,-0.009044 0.0769404,0.001019 0.0421185,-0.008653 l -0.0274417,-0.001999 c -0.0232292,0.007549 -0.06043,0.0217172 -0.0728806,0.0444024 z m 0.10032226,-0.0424038 c 0.004071,0.0150487 0.0446074,0.001536 0.0625857,0.0137544 0.0285807,-0.00447 0.0597919,0.0109324 0.0789903,0.0316314 0.0478766,0.0773978 -0.0124589,0.0967713 -0.0521374,0.143685 -0.01476,0.009015 -0.0232448,0.0210635 -0.0350025,0.0355123 -0.0278512,0.0436223 -0.0498878,0.0959547 -0.0377649,0.14861952 0.0104038,0.031044 0.0244769,-0.0216846 0.0168878,-0.033178 0.00197,-0.0167403 -0.0147352,-0.0301765 -0.006245,-0.0454896 0.0122218,-0.0343982 0.0306513,-0.0678486 0.0599454,-0.0901731 0.005873,-0.0151169 0.0249412,-0.0278309 0.0374405,-0.0399984 0.0745334,-0.0610923 0.0276401,-0.13979193 -0.0340475,-0.1560668 -0.0311991,-0.001166 -0.0592526,-0.008722 -0.0906524,-0.008297 z m 0.0239736,0.30238256 c -0.001266,-6.1481e-4 2.109e-5,-0.002188 0,0 z m -0.006051,0.0135294 c -3.333e-4,0.001404 -7.6609e-4,-0.001383 0,0 z m 0.004926,0.00238 c 0.009656,0.016751 0.001019,0.0765382 -0.002643,0.0334153 4.0097e-4,-0.01 -0.001858,-0.0283611 0.002643,-0.0334153 z M 0.39484848,0.17650604 c -0.0187581,0.008506 -0.0157598,0.0597433 -0.0235667,0.0793948 0.0154912,-0.007307 0.006058,-0.0686679 0.0259665,-0.0760015 L 0.397815,0.17669034 0.394852,0.17650748 Z m 0.13932307,0.0305528 c -0.003134,0.0550987 -0.0147885,0.10913044 -0.0327893,0.1611981 -0.004591,0.014522 -0.0129369,0.0467173 -9.3741e-4,0.0129204 0.0188022,-0.0561442 0.0369338,-0.11451771 0.0337267,-0.1741185 z m -0.0666542,0.004344 c 0.002921,0.0567173 0.00723,0.11488192 -0.003744,0.170935 0.0148424,-0.0389644 0.007684,-0.0834038 0.009263,-0.12469336 -0.001154,-0.0151984 -4.3083e-4,-0.0321934 -0.005519,-0.0462416 z m -0.15712191,0.0105614 c -0.0276502,0.0132768 -0.009976,0.0135504 0.008583,0.006762 0.0402445,0.003681 0.059767,0.046881 0.0631222,0.0825512 0.009727,0.032905 0.004107,0.0673627 0.0126219,0.0993623 0.003426,0.0501799 0.0166491,0.10601005 0.0607345,0.1362465 0.0221096,0.0239071 0.0551782,-0.002013 0.0228778,-0.0218201 -0.0257275,-0.0157072 -0.0558573,-0.00981 -0.0617498,-0.0474928 -0.0114844,-0.0311856 -0.013085,-0.0659069 -0.0220531,-0.0969119 6.324e-5,-0.0422379 -0.005235,-0.0861785 -0.0232502,-0.12476058 -0.0132756,-0.0198686 -0.0352255,-0.0380446 -0.0608863,-0.0339366 z m 0.13923097,0.2962865 c 0.0211973,0.001018 0.0544335,0.0460733 0.0150558,0.0235758 -0.005971,-0.005355 -0.0350769,-0.0269035 -0.0150558,-0.0235758 z m -0.0110371,0.0121578 c -4.2601e-4,0.001443 -5.4162e-4,-8.7751e-4 0,0 z M 0.31039544,0.22196424 c -0.0268156,0.009971 -0.058806,0.051526 -0.0774315,0.0700628 -0.00752,0.0273163 -0.0248234,0.0491545 -0.0305896,0.077546 -0.006416,0.0320477 0.003175,0.0648155 -0.009648,0.0946939 8.76e-5,0.034341 0.009854,0.0694788 0.003353,0.10370722 0.005283,0.0380328 -0.001687,0.082626 0.0133172,0.11776804 -0.003083,-0.0276887 -0.004778,-0.0735303 -0.009181,-0.10675756 0.004635,-0.0321586 0.00172,-0.0647567 -0.001825,-0.096691 -0.004647,-0.0215169 0.0154724,-0.0431957 0.003145,-0.0641431 0.007435,-0.0247944 0.002636,-0.0488375 0.0148304,-0.0720648 -0.005316,-0.0191013 0.0226345,-0.0282368 0.0183303,-0.0472572 0.0149173,-0.0173009 0.0217122,-0.0186217 0.0360913,-0.0370758 1.9443e-4,-0.004536 0.050749,-0.0351334 0.0396079,-0.0397885 z m 0.27630301,0.0215132 c -0.0118012,0.0479905 -0.0315892,0.0944404 -0.0642466,0.1321165 0.0130964,-0.001206 0.0363472,-0.0464448 0.0471459,-0.0685792 0.006814,-0.0198758 0.0182749,-0.044008 0.0171007,-0.0635373 z m -0.0602807,0.13111899 c -0.001229,5.6843e-4 0.001125,-0.001813 0,0 z m 0.0964194,-0.0759464 c 0.0503798,-0.0656751 0.10601786,0.0113289 0.11863906,0.055371 0.0170312,0.0161873 0.0347349,0.0364158 0.0448882,0.0593747 0.008879,0.0300896 0.0313602,0.0578824 0.0239053,0.0907231 -0.003317,0.0400673 -0.0163182,0.089932 -0.0587296,0.10440834 -0.0393997,0.0183397 -0.0554363,-0.0282623 -0.079368,-0.0479817 -0.0215512,-0.0256835 -0.0636938,-0.038986 -0.0879309,-0.0376392 -0.006799,-0.004426 -0.007925,-0.0423881 -0.0188341,-0.0317654 0.015155,0.00836 0.006128,0.0409741 -0.0122348,0.0468978 -0.001139,0.0325516 0.0491255,-0.00194 0.0599637,-0.0056 0.0315197,0.0140305 0.0608815,0.0332662 0.0803678,0.06255 0.0138425,0.0277693 0.0348302,0.0277111 0.0638745,0.0188595 0.0412786,-0.0172346 0.0552727,-0.0666828 0.0581076,-0.1073781 0.007525,-0.0336286 -0.0146992,-0.0620348 -0.0239717,-0.0927351 -0.007541,-0.0268201 -0.0343155,-0.0461757 -0.0466673,-0.066285 -0.00576,-0.024179 -0.0207933,-0.0485622 -0.0409096,-0.0637523 -0.0478725,-0.0616627 -0.0402276,-0.0185414 -0.0811002,0.0149524 z m 0.0901923,-0.006883 c -7.6061e-4,0.001388 -7.6056e-4,-0.001388 0,0 z m 0.0265469,0.0536176 c -0.001514,-9.4705e-4 0.001089,-0.001075 0,0 z m 0.0210304,0.0220337 c 8.2412e-4,0.003581 -0.001106,-0.001598 0,0 z m -0.18303146,0.1419918 c -3.3328e-4,0.001404 -7.6611e-4,-0.001383 0,0 z m 0.0234534,0.0221249 c -0.0181657,0.0184732 -0.0613711,0.0102708 -0.0214843,0.001351 0.007049,-7.4089e-4 0.0143579,-0.002778 0.0214843,-0.001351 z m 0.030032,0.001014 c -7.7173e-4,0.001404 -7.0296e-4,-5.9748e-4 0,0 z M 0.41840509,0.27029412 c 0.006387,0.0495596 0.0102452,0.10056809 0.0139646,0.14955389 0.001333,-0.0498998 -0.006119,-0.0999301 -0.0128487,-0.149358 z m -0.11446573,0.0457786 c 0.006593,0.0105231 0.0266407,0.0157571 0.0354329,0.0263144 0.008985,0.003419 -0.0192293,-0.0188644 -0.0291687,-0.0237973 -0.002341,-0.001507 -0.004582,-0.001592 -0.006264,-0.002517 z m 0.24355561,0.019515 c -0.010171,0.0155298 -0.0379097,0.0528414 -0.00922,0.0165909 7.2793e-4,-0.001239 0.0178792,-0.0240483 0.00922,-0.0165909 z m 0.12928018,0.0157663 c -0.0355776,0.0159896 -0.0616118,0.0471853 -0.090864,0.072178 -0.0181011,0.0188948 0.002835,2.0386e-4 0.0110031,-0.006401 0.0254695,-0.0235819 0.0515933,-0.0479515 0.0815732,-0.0651727 l -0.00171,-6.0627e-4 z m 0.024285,0.045294 c -0.0232299,0.0077 -0.0439304,0.0215994 -0.0645372,0.0343853 0.006137,5.4616e-4 0.0290297,-0.0141978 0.040901,-0.0198526 0.004342,-0.006529 0.0485392,-0.009558 0.0236362,-0.0145327 z m -0.42409046,0.003696 c 0.0243041,0.0243162 0.0556038,0.0416871 0.0775928,0.0688727 0.0211161,0.0196683 0.0367499,0.0444004 0.0530951,0.0675447 C 0.3914533,0.49780576 0.3590125,0.46763656 0.3290742,0.43880446 0.3125621,0.42492896 0.2959737,0.41045386 0.27696969,0.40034402 Z m 0.47152372,0.0466107 c -0.0334814,0.0169361 -0.0701367,0.0267052 -0.1059147,0.0375515 -0.0160911,0.001772 -0.0474965,0.013331 -0.0125766,0.00448 0.0386433,-0.0100443 0.0792754,-0.0175695 0.11626762,-0.0352206 0.001077,0.001692 0.008721,-0.008917 0.002224,-0.006811 z M 0.49363497,0.4813738 c -4.1659e-4,0.0188147 0.007014,-0.00162 0.0247079,0.00462 -0.003467,-0.007201 -0.0189181,-0.00179 -0.0247079,-0.00462 z m 0.0380613,-0.007063 c 0.003591,0.008789 0.0212888,0.0142399 0.0273619,0.0212088 0.00294,-0.0274676 0.007752,0.0273488 0.006349,-0.004379 -0.002527,-0.019138 -0.009285,0.0156068 -0.0144528,-0.0100716 -0.004142,0.008547 -0.013907,-0.0133246 -0.0192581,-0.006758 z m 0.0240605,0.0182397 c -3.333e-4,0.001404 -7.6609e-4,-0.001383 0,0 z m -0.0621218,-0.011177 c -0.01259,0.003307 -0.0369763,0.0359325 -0.0153597,0.0219743 -0.004757,-0.0100449 0.0240857,-0.013758 0.0153597,-0.0219743 z m -0.001262,0.012861 c -0.0100714,0.0104805 -0.001168,0.0242077 -0.011715,0.0226587 0.0137778,0.006212 0.0121451,0.0138185 0.0247396,0.0270149 -0.005575,0.007813 -0.002845,0.0193913 0.007136,0.005602 0.00699,0.00384 0.0180834,-0.00129 0.0115258,0.007894 -0.005417,2.3609e-4 0.0112967,0.0362238 0.013309,0.0178767 -0.0213136,-0.001768 0.004356,-0.032829 -0.0165764,-0.0322064 C 0.50163667,0.5340377 0.49713977,0.5087 0.49237457,0.4942385 Z m 0.0369241,0.0536831 c -6.0346e-4,-2.4529e-4 4.8076e-4,-0.001687 0,0 z M 0.52840195,0.562199 c -0.001162,7.2031e-4 -3.0421e-4,-8.2964e-4 0,0 z m -0.003347,0.004935 c -6.0346e-4,-2.4529e-4 4.8079e-4,-0.001687 0,0 z m 0.0140354,0.0103418 c -0.001543,0.006298 -4.9643e-4,-0.00309 0,0 z M 0.77681762,0.4953281 c -0.0297843,0.0205417 -0.0674093,0.0235138 -0.10240819,0.0196003 -0.003559,0.004218 0.0411167,0.007947 0.0525848,0.003095 0.0127255,-0.00389 0.0564717,-0.0113231 0.0498234,-0.0226953 z m -0.29854235,0.00802 c -0.006304,0.0120456 0.0178384,0.005669 0,0 z m 0.0246305,0.002957 c -0.003335,0.0231685 0.009752,0.0110862 0,0 z m 0.005157,0.0166687 c -0.001792,0.0132005 0.0161723,0.0112434 0,0 z m 0.0149605,0.006319 c -0.00581,0.017479 0.0131666,0.006568 0,0 z m -0.18043424,-3.01e-4 c 0.0226906,0.0160898 0.0502354,0.0241354 0.0761007,0.0335862 -0.0199143,-0.013159 -0.0442229,-0.016915 -0.065372,-0.0290344 -0.003417,-0.001874 -0.007183,-0.002973 -0.0107287,-0.004552 z m 0.17540868,0.001513 c -0.005069,0.0142167 0.0111498,6.978e-5 0,0 z m 0.0179202,0.001475 c -0.009742,0.0149433 0.008242,0.012342 0,0 z m 0.23611066,0.012161 c -0.0107901,0.0117195 -0.0526198,0.0195473 -0.016878,0.0134429 0.003638,0.002329 0.0300134,-0.0149454 0.016878,-0.0134429 z m -0.23385509,0.001993 c -0.0125366,0.0108025 0.005262,0.0111285 0,0 z m 0.004099,0.009515 c -0.0113918,0.0106529 0.009176,0.003618 0,0 z m -0.0265141,0.001708 c -0.005549,0.0248011 0.009926,-0.006085 0,0 z m -0.003247,-5.5647e-4 c -0.0133988,0.020478 0.0147345,-0.001646 0,0 z m -0.006451,0.001169 c -0.0190261,0.006808 0.002707,0.0152761 0,0 z m 0.0290663,0.005214 c 0.001754,0.0162853 0.0175228,-0.005007 0,0 z m 0.0400249,4.9828e-4 c 0.001017,0.007279 -0.0216857,0.0503558 -0.0100023,0.0529513 C 0.5643737,0.60005549 0.57951347,0.5732974 0.58,0.56457847 l -0.002515,-0.0158936 -0.002334,0.014995 z m -0.0579268,0.003191 c -0.006384,0.0112862 0.009702,-0.001563 0,0 z m -0.0617677,-0.0199864 c -0.0152418,0.0159994 0.0155788,0.0407778 0.005248,0.0534103 0.0243738,-0.0144181 -0.002893,0.0307339 0.0178896,0.0114243 -0.008951,0.002249 0.005204,-0.022349 -0.0112138,-0.0167547 0.004197,-0.0197783 -0.018267,-0.0226278 -0.0119238,-0.0480799 z m 0.006362,0.0247058 c -9.9384e-4,0.001425 -4.8622e-4,-0.001972 0,0 z m -0.001157,0.001042 c -0.001229,5.6841e-4 0.001125,-0.001813 0,0 z m 0.006132,0.0181923 c 0.001968,0.002136 -0.002676,8.1458e-4 0,0 z m 0.039322,-0.0225738 c -0.0119134,0.0138384 0.008823,0.005471 0,0 z m 0.003917,0.002878 c -0.0104287,0.0237917 0.008147,0.005451 0,0 z m 0.001097,0.001783 c -1.7277e-4,0.001836 -7.8316e-4,-9.5218e-4 0,0 z m 0.008163,-3.4714e-4 c -0.008938,0.0216039 0.0120264,0.008208 0,0 z M 0.6375992,0.5751324 C 0.6632333,0.6097425 0.6586729,0.6068652 0.672963,0.6133535 0.7008497,0.6422807 0.6525225,0.5942747 0.6928684,0.6336408 0.7217211,0.6536738 0.7544259,0.6842211 0.7849596,0.6849698 0.7467208,0.67181 0.7081237,0.6452106 0.67925615,0.6143142 0.66468365,0.6028523 0.65251785,0.5821079 0.6375992,0.5751324 Z m -0.12289129,0.002018 c -0.002286,0.0210398 0.00939,0.0109008 0,0 z M 0.81548592,0.5064701 c 0.00955,0.022856 0.001797,0.13132708 -0.004441,0.15882538 0.004158,0.0428861 -0.005048,0.0835262 -0.0130771,0.12518275 -0.0142943,0.0254836 -0.013336,0.0566664 -0.0311685,0.0797623 -0.0181591,-0.002436 -0.008758,0.0408509 -0.0360106,0.0322955 -0.00482,0.0365951 -0.0471661,0.0384022 -0.0700343,0.0579293 -0.0285241,0.005281 -0.0568365,0.0300864 -0.0829693,0.005556 C 0.54459429,0.947849 0.55955999,0.9034721 0.5778521,0.8794218 0.6320126,0.789288 0.6163483,0.69252691 0.5651493,0.61663294 0.5558243,0.59275284 0.5264164,0.59276244 0.5365339,0.62055094 0.5416379,0.63727114 0.5538767,0.65435534 0.5715606,0.65882354 0.5835643,0.64825344 0.5549311,0.64180494 0.5537761,0.62857484 0.5347315,0.60454174 0.55306056,0.60684264 0.5657848,0.62811979 0.6014189,0.68588679 0.6196919,0.75890128 0.599824,0.8249545 0.5877841,0.8644421 0.5485546,0.8952661 0.5532924,0.93921633 c 3.347e-5,0.021211 0.0437005,0.0415392 -3.072e-5,0.0420866 -0.0229605,-0.0165142 -0.0364511,-2.757e-5 -0.058218,-8.9731e-4 -0.022466,-0.0109639 -0.0740993,0.004229 -0.10109187,-0.005776 -0.023604,-0.0139444 0.0452964,0.0316612 0.0566636,0.002756 0.0292515,0.004091 0.0595701,0.0104659 0.0847321,0.00362 0.0183127,0.0151366 0.0412497,-0.003711 0.0467951,-0.006454 0.0177521,0.0177767 0.0437974,0.003276 0.0622141,-0.004368 0.0236006,-0.008756 0.0429473,-0.0170194 0.064132,-0.0298068 0.017523,-0.006761 0.0211003,-0.0264132 0.030952,-0.0346926 0.02235,-0.00805 0.0313355,-0.037049 0.0450857,-0.0564495 0.002498,-0.0293628 0.0232225,-0.0534083 0.0220543,-0.0838781 0.0116506,-0.0291796 0.0100053,-0.060778 0.00832,-0.0916323 0.004409,-0.0297644 0.0209515,-0.14583918 5.8521e-4,-0.16725422 z M 0.61321409,0.793229 c -0.001514,-9.4043e-4 0.001087,-0.001084 0,0 z m 0.12973442,0.11132165 c -0.001162,7.2024e-4 -3.0416e-4,-8.2963e-4 0,0 z m -0.18849866,0.0143462 c -6.0347e-4,-2.4528e-4 4.8079e-4,-0.001687 0,0 z m 0.0164584,0.0599263 c -7.6608e-4,0.001383 -3.3328e-4,-0.001404 0,0 z m 0.0365162,0.002745 c 9.1024e-4,0.001117 -0.002215,-6.1904e-4 0,0 z M 0.4307578,0.98235246 c -3.333e-4,0.001404 -7.6609e-4,-0.001383 0,0 z m 0.1383334,3.9216e-4 c -7.6061e-4,0.001388 -7.6056e-4,-0.001388 0,0 z M 0.502122,0.58886912 c -0.0204033,0.009272 -0.0360489,0.0319554 -0.0371926,0.0545062 0.009196,0.001322 0.01417,-0.0402446 0.0342738,-0.0419612 -0.016507,0.0388547 -0.0449425,0.0792563 -0.0908707,0.0832741 -0.0257831,0.002189 -0.050391,0.009435 -0.0743178,-0.001668 -0.040025,-0.0117136 -0.0879969,-0.0265121 -0.12461809,0.002722 -0.0328439,0.0213322 -0.012354,0.0593215 0.003151,0.0828775 0.009865,0.0316892 0.007946,0.0677705 0.0280211,0.0959348 0.0116981,0.0278922 0.0292893,0.0467232 0.052524,0.0674947 0.0202571,0.0262611 0.0550397,0.0114991 0.0763571,0.0365225 0.0145159,0.016101 0.070768,0.015643 0.024502,0.006058 -0.0279447,-0.009479 -0.0475291,-0.0348034 -0.0780459,-0.0311508 -0.0302196,-0.0201329 -0.0538462,-0.0467193 -0.0686434,-0.0756414 -0.00557,-0.0132754 -0.015374,-0.0245725 -0.0177775,-0.0406871 -0.00536,-0.0326517 -0.0131777,-0.0649706 -0.0294732,-0.0932335 -0.0145281,-0.0240238 0.009598,-0.0467681 0.0328612,-0.0535516 0.0589971,-0.0213124 0.11452217,0.0323823 0.17348659,0.0145272 0.0341385,-0.005996 0.0637267,-0.0263641 0.0818558,-0.0557975 0.005199,-0.0128816 0.0323135,-0.0423035 0.0139066,-0.0502259 z m -0.27167961,0.087181 c 4.6416e-4,0.001369 -9.6264e-4,-5.93e-5 0,0 z m -0.0328658,0.0268667 c -5.9515e-4,0.001292 -9.5449e-4,-7.1687e-4 0,0 z m 0.0250757,0.0898598 c -0.002109,-7.4329e-4 6.6663e-4,-0.001147 0,0 z m 0.0243179,0.0852614 c -3.3329e-4,0.001404 -7.661e-4,-0.001383 0,0 z m 0.14113006,0.097884 c -0.001162,7.2025e-4 -3.0418e-4,-8.296e-4 0,0 z M 0.37047576,0.59010286 c -0.0287075,0.00277 -0.0577366,4.3871e-4 -0.0862512,0.002445 0.0244652,0.005896 0.0515792,-0.001268 0.0780409,0.001555 0.0174829,-0.00244 0.0551334,0.007313 0.0616718,-0.001149 -0.0176754,-0.002859 -0.0356116,-0.002853 -0.0534615,-0.002851 z m 0.27929254,0.0111714 c 0.0213534,0.0766281 0.0349288,0.0991296 0.0362451,0.1019371 0.007436,0.0122931 0.0258353,0.0455724 0.024801,0.0434884 -6.8658e-4,0.009853 0.0505618,0.0631466 0.0264568,0.0347932 C 0.6980848,0.73137246 0.6737946,0.67155967 0.6534732,0.61190983 l -0.001557,-0.007989 z M 0.385,0.62264856 C 0.3580613,0.62634956 0.3293021,0.62680756 0.3042428,0.63807016 0.335328,0.63320516 0.3665743,0.62653896 0.3981671,0.62470086 0.4116514,0.6232237 0.37888567,0.62099756 0.385,0.62264856 Z m 0.24492601,0.0961855 c 0.003432,0.0129297 0.006269,0.0198586 0.00581,0.0111632 0.002673,0.0352006 0.0135345,0.020818 0.018864,0.0676467 0.0100696,0.0228046 0.0150349,0.0537811 0.0247118,0.0761739 -0.0259655,-0.0823509 -0.0526808,-0.18659706 -0.0737978,-0.2420246 0.004955,0.0430235 0.0343803,0.11046604 0.024412,0.0870408 z M 0.4882154,0.63909502 c 0.006736,0.009157 0.0195817,0.0176994 0.0316115,0.0203585 0.003036,-0.0131568 0.0312681,-0.0240356 0.016707,-0.0389026 0.002791,0.0186131 -0.0208487,0.0129436 -0.020407,0.0341411 -0.007235,-0.0136767 -0.0174512,-0.009591 -0.0279115,-0.015597 z m 0.15000426,-5.2437e-4 c -0.002585,0.038308 0.0250902,0.0940789 0.0112907,0.0550898 -0.005499,-0.017707 -0.005244,-0.0386887 -0.0112907,-0.0550898 z m 0.14102314,0.0168379 c -0.002642,0.007801 0.0234124,0.003233 0,0 z M 0.7324241,0.6909027 c 0.0115531,0.0141735 0.0239028,0.0227535 0.00697,0.005176 -0.001165,-0.003197 -0.004402,-0.003601 -0.00697,-0.005176 z m 0.0162121,0.014979 c 0.001132,0.001448 3.2714e-4,-0.001487 0,0 z m -0.0954865,0.004509 c 0.008322,0.0335618 0.001428,0.016491 0.0209112,0.0702992 0.009042,0.0207086 0.0211608,0.046848 0.0333645,0.0610384 C 0.6825774,0.8007693 0.6655646,0.7560214 0.6541329,0.70970402 L 0.65315266,0.7103903 Z M 0.35560779,0.86510032 c -0.002678,0.001636 -0.0163127,0.0174562 -0.005466,0.0085 0.0168151,-0.0161732 0.0310595,-0.0349722 0.0456149,-0.0530086 0.004768,-0.008605 0.0141659,-0.0165703 0.0195286,-0.0252588 0.0228616,-0.0256345 0.0447814,-0.0542568 0.0622902,-0.0839802 -0.0414753,0.0534243 -0.0848773,0.10934995 -0.1219677,0.1537476 z M 0.54405042,0.7212753 c -0.009617,0.0371113 -0.0170646,0.0751886 -0.0248335,0.11258702 0.005255,-3.0334e-4 0.002741,-0.0210697 0.006545,-0.0262196 0.004403,-0.0141862 -0.006194,0.0297618 0.00206,7.4279e-4 0.005697,-0.027443 0.0172587,-0.0635303 0.0162285,-0.0871102 z m 0.22462521,1.0648e-4 c 0.0107038,0.0166427 0.006164,-0.003425 0,0 z m -0.13410582,0.007867 c 4.6399e-4,0.001027 1.2044e-4,-0.001685 0,0 z m -0.12828197,0.0103446 c -0.0112671,0.0305388 0.007984,-0.009204 0,0 z m 0.2047727,0.007857 c 7.661e-4,0.001383 3.3327e-4,-0.001404 0,0 z m -0.36878879,0.007542 0.004394,-0.005616 c -0.006559,7.7116e-4 -0.0375942,0.0422471 -0.004394,0.005616 z m 0.14980918,0.0390238 c -0.007454,0.0346459 -0.010569,0.0704758 -0.0242716,0.1035119 -0.003795,0.0122886 -0.002457,0.009595 -0.002536,0.0143474 -0.005336,0.001175 -0.0107564,0.0249096 -0.0176974,0.036767 -9.1404e-4,0.0142738 0.0184491,-0.0351828 0.0220204,-0.0456993 0.0136425,-0.0348477 0.0197162,-0.0719214 0.0224846,-0.108927 z m 0.13897968,0.0350799 c -0.008289,0.0167916 0.006836,0.0131452 0,0 z m 0.010152,0.0143096 c 0.002231,0.011728 0.01475,0.0616461 0.0164204,0.0522805 -0.008085,-0.0154446 -0.006314,-0.0403045 -0.0164204,-0.0522805 z m -0.0200903,0.005038 c 0.0181289,0.049063 0.0126683,0.0393288 0.0137656,0.0423437 0.002416,0.003071 0.0108521,0.0273297 0.006551,0.0103974 -0.006862,-0.0153063 -0.0106282,-0.042748 -0.0203179,-0.0527408 z m -0.006605,0.019077 c -1.9929e-4,0.0140434 0.002121,0.0600401 0.0111631,0.0564431 -0.009311,-0.017363 -0.002543,-0.0423775 -0.0111631,-0.0564431 z m -0.33498613,0.043229 c 0.00335,0.003974 -2.7239e-4,5.0268e-4 0,0 z"
         id="path1462"
         inkscape:connector-curvature="0"
         sodipodi:nodetypes="cccccccccccccccccccccccccccccccccccccccccccccccccccccccccccccccccccccccccccccccccccccccccccccccccccccccccccccccccccccccccccccccccccccccccccccccccccccccccccccccccccccccccccccccccccccccccccccccccccccccccccccccccccccccccccccccccccccccccccccccccccccccccccccccccccccccccccccccccccccccccccccccccccccccccccccccccccccccccccccccccccccccccccccccccccccccccccccccccccccccccccccccccccccccccccccccccccccc" /><path
         style="fill:#ffd5e5;fill-opacity:1;stroke:none;stroke-width:1.58200157;stroke-miterlimit:4;stroke-dasharray:none"
         d="m 408.13269,843.99758 c -9.5821,-1.30589 -27.67207,-2.04606 -45.87805,-1.87714 -21.67564,0.20112 -39.05031,-0.68421 -62.30306,-3.17468 -17.73476,-1.89946 -33.39658,-3.46447 -34.80403,-3.47779 -6.01243,-0.057 -6.95699,-2.39753 -3.61285,-8.95258 12.44546,-24.39513 11.90626,-67.13436 -1.51339,-119.95633 -5.7468,-22.62038 -6.31729,-32.25954 -3.6867,-62.29198 1.33598,-15.25238 3.12928,-30.96901 3.98512,-34.92586 4.30644,-19.91039 15.8836,-39.71312 32.49428,-55.58147 11.49097,-10.97745 28.49136,-23.14744 30.0949,-21.5439 2.14134,2.14134 -6.12579,11.80217 -14.50967,16.95574 -10.91485,6.70937 -18.12567,12.4209 -18.12567,14.35695 0,2.27899 7.45901,1.68138 13.89332,-1.11312 6.41506,-2.78615 22.01984,-4.2365 23.29976,-2.16555 0.43868,0.70979 0.0944,3.14013 -0.76511,5.40074 -1.47497,3.87949 -1.33351,4.0527 2.52002,3.08552 3.03538,-0.76183 7.45066,0.70681 17.21158,5.72503 12.05573,6.19801 13.55574,6.6009 18.35153,4.92908 4.3613,-1.52035 5.44874,-1.41671 6.59325,0.62842 0.7538,1.34698 4.75942,6.87688 8.90137,12.28867 18.74248,24.48858 48.11666,39.852 88.11608,46.0869 8.62037,1.3437 18.521,3.1515 22.0014,4.01733 3.48041,0.86583 15.93867,2.35305 27.68503,3.30493 25.2315,2.04468 56.81158,9.12326 70.6601,15.83825 19.02625,9.22561 32.7251,25.7526 37.7881,45.58945 2.10062,8.23021 2.24025,11.41966 0.76182,17.40202 -2.19234,8.87106 -20.2841,39.39467 -29.20041,49.26565 -3.5456,3.9252 -10.71794,12.99757 -15.93854,20.16079 -8.00474,10.98335 -10.19208,13.02557 -13.95997,13.03378 -3.22391,0.006 -6.96802,2.37262 -13.44701,8.49609 -9.77455,9.23821 -14.23373,12.07966 -18.95697,12.07966 -1.68679,0 -6.43773,1.49108 -10.55763,3.3135 -7.49329,3.31464 -42.40748,10.05574 -49.86353,9.62746 -2.17526,-0.12497 -7.51451,-0.63455 -11.86502,-1.13246 -6.08265,-0.69612 -10.62369,0.0282 -19.6566,3.13512 -13.06001,4.49216 -13.43726,4.50771 -35.71345,1.47178 z m 79.91157,-85.17859 c -9.08737,-23.90157 -47.76223,-78.58015 -75.13989,-106.23286 -14.50602,-14.65176 -32.9851,-29.0811 -34.85206,-27.21414 -0.42111,0.42111 6.88661,7.68827 16.23937,16.14925 9.35275,8.46099 21.05959,20.1487 26.01519,25.9727 4.95561,5.824 12.31921,14.50454 16.36356,19.2901 7.10226,8.40384 16.09342,21.72874 39.48781,58.52089 10.66841,16.77814 14.99903,21.70193 11.88602,13.51406 z M 334.29353,678.08303 c 0.0516,-32.19374 -0.46601,-61.38166 -1.15014,-64.86207 l -1.24389,-6.328 -1.98557,4.746 c -1.55816,3.7244 -1.62183,10.45716 -0.29579,31.27782 0.92938,14.5925 1.3056,42.35663 0.83604,61.69806 -0.46956,19.34144 -0.30165,39.0817 0.37314,43.86726 l 1.2269,8.70101 1.07279,-10.28301 c 0.59003,-5.65566 1.11496,-36.62334 1.16652,-68.81707 z m 218.96979,43.11291 c -6.39104,-12.89336 -15.83937,-27.38736 -17.0585,-26.16822 -0.88588,0.88586 16.33495,34.62983 19.40306,38.02004 4.91833,5.43471 4.05112,1.05091 -2.34456,-11.85182 z m -252.90989,-2.77187 c 5.16612,-24.37793 10.03896,-77.7371 7.65694,-83.84609 -1.36667,-3.50501 -1.64297,-2.96502 -2.42842,4.74601 -0.48746,4.78555 -2.82679,25.78662 -5.1985,46.66905 -2.37172,20.88242 -4.5827,40.45969 -4.91331,43.50504 -0.99205,9.13834 2.07283,2.18797 4.88329,-11.07401 z m 80.32288,-37.35083 c -2.53069,-6.86522 -7.24814,-21.38098 -10.4832,-32.25724 -6.07611,-20.42778 -11.79484,-35.43 -13.03348,-34.19136 -2.0512,2.0512 17.13235,61.89001 24.25974,75.67285 4.35329,8.41833 3.9598,3.53357 -0.74306,-9.22425 z"
         id="path2045"
         inkscape:connector-curvature="0"
         transform="matrix(0,-0.00122549,-9.4696972e-4,0,1,1)" /><path
         style="fill:#ffd5e5;fill-opacity:1;stroke:none;stroke-width:1.58200157;stroke-miterlimit:4;stroke-dasharray:none"
         d="m 445.4903,498.45325 c -5.55635,-2.57038 -10.8956,-4.68366 -11.86502,-4.69621 -2.00764,-0.026 -10.46358,-14.62438 -10.46358,-18.06443 0,-1.24606 -1.4238,-2.71747 -3.164,-3.26979 -3.34227,-1.0608 -4.24726,-4.68078 -1.582,-6.32801 0.8701,-0.53775 1.582,-2.35952 1.582,-4.04837 0,-1.68885 -0.7119,-3.07064 -1.582,-3.07064 -0.8701,0 -1.582,-1.81977 -1.582,-4.04396 0,-4.17808 -2.86673,-5.91738 -19.77502,-11.99783 l -6.32801,-2.27565 -1.17445,-14.04556 c -1.43099,-17.11362 -7.4832,-40.54886 -14.31331,-55.42364 -6.06226,-13.20255 -18.25814,-29.83359 -35.58596,-48.52719 -17.00362,-18.34383 -21.14875,-25.66205 -22.09645,-39.01122 -0.61049,-8.59921 0.0377,-12.91024 3.49087,-23.21615 11.35986,-33.90358 34.51067,-51.27547 78.0306,-58.55252 21.46804,-3.58971 27.04469,-2.56316 49.29886,9.07495 10.05725,5.25958 22.23289,11.60956 27.05698,14.11107 12.61815,6.5431 27.91647,19.8041 40.21679,34.86102 8.75622,10.71854 12.83441,14.24984 22.56888,19.54232 14.54489,7.90783 32.7337,24.28845 41.43014,37.31146 13.01329,19.48755 16.03931,41.86638 7.78664,57.58583 -6.06155,11.54586 -35.36689,51.90365 -42.11835,58.00319 -3.4416,3.10926 -8.46556,8.86261 -11.16438,12.78521 -8.31622,12.08721 -21.0367,25.03072 -34.23148,34.83169 -12.24194,9.0932 -38.25294,23.35754 -42.3242,23.21043 -1.10501,-0.0399 -6.55521,-2.17563 -12.11155,-4.746 z m 33.51582,-72.0371 c 23.82901,-33.30513 38.05507,-55.35697 44.07555,-68.32165 9.34121,-20.11559 7.34742,-22.69092 -2.73351,-3.5308 -10.03324,19.06949 -15.65118,27.98355 -38.38564,60.90706 -18.98015,27.4866 -20.45412,29.93182 -17.43656,28.92597 1.1668,-0.38894 7.68287,-8.4802 14.48016,-17.98058 z m -62.24291,-24.13063 c 0.8984,-3.33643 2.74021,-12.41316 4.09291,-20.17052 3.82024,-21.9081 17.65591,-76.82453 24.55416,-97.46016 7.04248,-21.06711 7.24477,-22.2776 3.60423,-21.56773 -5.3667,1.04645 -15.5603,38.14496 -27.30996,99.39177 -4.42287,23.05482 -8.04007,42.80774 -8.03822,43.89537 0.006,3.84983 1.48478,1.89817 3.09688,-4.08873 z m 57.72476,-38.02164 c 9.57181,-20.5428 18.29862,-44.4145 18.25758,-49.94249 -0.0275,-3.70907 -2.53628,-8.34857 -3.82013,-7.06472 -0.46883,0.46882 -2.00562,6.49936 -3.4151,13.4012 -1.40949,6.90184 -6.46485,21.72557 -11.23416,32.94161 -7.26058,17.07477 -12.53365,33.99524 -9.66774,31.02225 0.41938,-0.43505 4.86518,-9.59609 9.87955,-20.35785 z m -78.61475,-33.03471 c -1.75503,-30.70442 3.29113,-65.88765 12.25962,-85.47739 4.5941,-10.03485 4.78989,-11.4202 1.614,-11.4202 -4.08078,0 -8.40746,11.467 -13.4913,35.75598 -3.88747,18.57308 -4.93406,27.47295 -4.9374,41.98597 -0.004,16.70362 1.07721,28.65426 2.87768,31.81166 1.92725,3.37973 2.39309,-0.13506 1.6774,-12.65602 z m -31.2948,-71.10009 c 2.39217,-6.79277 5.30743,-14.637 6.47836,-17.43162 2.71367,-6.47664 0.61341,-8.73915 -3.33835,-3.59624 -3.8386,4.99562 -7.27543,15.7284 -8.5952,26.8417 -1.31184,11.0465 0.0159,9.63148 5.45519,-5.81384 z"
         id="path2049"
         inkscape:connector-curvature="0"
         transform="matrix(0,-0.00122549,-9.4696972e-4,0,1,1)" /><path
         style="fill:#ffd5e5;fill-opacity:1;stroke:none;stroke-width:1.58200157;stroke-miterlimit:4;stroke-dasharray:none"
         d="m 42.478059,462.26858 c -5.931633,-3.61693 -11.297667,-10.50189 -17.362187,-22.2768 -6.757556,-13.1205 -6.373806,-27.26412 1.545247,-56.95205 3.365354,-12.61647 7.503458,-25.60709 9.195787,-28.86807 1.692329,-3.26098 6.223347,-14.4846 10.068931,-24.9414 3.845583,-10.4568 8.112585,-21.1794 9.482228,-23.828 4.089536,-7.90829 13.2278,-16.98528 19.026645,-18.89907 5.060071,-1.66998 5.432644,-2.25593 5.432644,-8.54407 0,-7.89291 2.274716,-10.45006 15.588966,-17.52452 7.08245,-3.76322 9.25627,-5.84897 10.49773,-10.07238 2.1515,-7.31936 11.19835,-13.17272 33.34742,-21.57596 10.00982,-3.79768 21.55517,-8.78664 25.65633,-11.0866 14.94747,-8.38262 65.01509,-18.15561 93.06431,-18.16576 9.66987,-0.003 21.41623,-0.74614 26.10302,-1.65032 26.52489,-5.11718 93.58372,-8.31671 109.13247,-5.20696 4.77784,0.95557 3.83071,1.41685 -9.68976,4.71927 -47.03821,11.48922 -72.59456,42.2044 -72.70079,87.37619 -0.0448,19.03896 1.71654,22.62869 19.88328,40.52459 21.15051,20.83517 34.22683,41.34495 45.64878,71.59861 l 4.33513,11.48254 -6.76102,18.19604 -6.761,18.19604 -7.32734,-0.97201 c -6.43922,-0.85419 -8.85603,-0.2034 -19.93958,5.3693 -6.93673,3.48773 -15.64647,7.15835 -19.355,8.15696 -6.60275,1.77793 -6.89718,1.68698 -14.17924,-4.38014 -19.80543,-16.50102 -45.74247,-30.57916 -69.18509,-37.55233 -10.91823,-3.24771 -18.88193,-4.41286 -34.55995,-5.05632 -30.62408,-1.2569 -50.96451,3.33834 -77.67678,17.54846 -11.85704,6.3076 -17.08888,9.90251 -37.735215,25.92869 -13.972523,10.84581 -34.499463,14.72238 -44.775966,8.45607 z M 299.76558,415.62164 c 0,-1.72975 -90.32457,-38.0334 -124.18713,-49.91385 -6.96081,-2.44215 -25.76564,-9.50935 -41.78852,-15.70488 -16.02288,-6.19553 -29.36895,-11.02817 -29.65793,-10.73918 -1.3618,1.36179 53.68177,23.45463 70.25819,28.19953 6.30725,1.80541 15.39791,5.64919 20.20145,8.54172 4.80353,2.89254 10.32155,5.73244 12.26227,6.3109 1.94072,0.57845 6.37618,2.37049 9.85658,3.98228 29.12897,13.48987 60.51843,25.93162 72.77208,28.84445 4.19836,0.998 10.28301,1.28145 10.28301,0.47903 z m -191.4222,-8.65996 c 0,-2.51625 -8.474041,-4.87429 -23.473381,-6.53183 -8.124806,-0.89787 -16.84559,-2.70458 -19.37952,-4.01492 -4.150634,-2.14638 -4.607145,-2.13446 -4.607145,0.12014 0,3.77551 12.035957,8.35556 26.202976,9.97106 17.36546,1.9802 21.25707,2.06361 21.25707,0.45555 z m 14.14206,-9.00857 c -2.65808,-3.20277 -9.5019,-6.63662 -29.669856,-14.88668 -16.763998,-6.8576 -22.661129,-7.65937 -11.899099,-1.6178 6.592376,3.70081 40.008215,18.60402 42.254125,18.84501 0.75911,0.0815 0.45078,-0.97178 -0.68517,-2.34053 z m 14.99559,-6.38163 c 3.3651,-1.29131 3.16121,-3.24443 -0.43692,-4.18538 -3.55224,-0.92892 -8.56357,1.58985 -7.28361,3.66086 1.05398,1.70539 4.10336,1.91255 7.72053,0.52452 z M 293.01348,380.8166 c -1.5384,-1.16737 -10.24603,-3.69326 -19.35031,-5.61308 -37.16131,-7.83621 -91.1587,-30.78846 -123.39674,-52.45131 -22.77676,-15.3052 -23.65171,-15.70677 -13.82373,-6.34464 19.22342,18.31223 70.7201,44.53729 97.67231,49.74037 1.73883,0.33567 8.09251,2.91392 14.11929,5.72942 13.26603,6.19746 30.79785,10.97503 40.45727,11.02495 6.28624,0.0324 6.7918,-0.21149 4.32191,-2.08571 z m 50.56736,-6.01092 c -2.21607,-3.73723 -7.70513,-11.06637 -12.19792,-16.28698 -31.77973,-36.92796 -56.45143,-78.70979 -68.92119,-116.7189 -4.72267,-14.39517 -5.31048,-15.44983 -5.35745,-9.61237 -0.1128,14.03029 10.02684,38.24496 32.03305,76.49822 5.75632,10.00616 13.97053,22.53243 18.25381,27.83616 4.28327,5.30372 8.6246,12.17872 9.64738,15.27778 1.85589,5.6234 27.88056,32.49201 29.70466,30.66793 0.47677,-0.47679 -0.94629,-3.9246 -3.16234,-7.66184 z m -218.9638,0.37686 c -1.92575,-1.56135 -9.40071,-4.42198 -16.61102,-6.35694 -7.21031,-1.93496 -15.532634,-4.521 -18.494057,-5.74676 -6.78573,-2.80869 -8.105625,-1.74283 -2.439351,1.96986 5.051037,3.30956 39.074078,14.9551 40.246928,13.77588 0.43938,-0.44178 -0.77675,-2.08068 -2.7025,-3.64204 z m 200.46056,-6.35069 c 0,-0.85352 -1.95772,-2.03107 -4.3505,-2.61677 -6.34618,-1.55343 -44.11467,-19.67941 -60.99752,-29.27414 -29.07754,-16.52512 -55.20289,-35.56732 -76.97204,-56.10323 -6.12375,-5.77684 -11.13409,-9.86019 -11.13409,-9.0741 0,3.29203 26.42048,29.58346 36.13546,35.95895 5.79348,3.80199 17.29664,11.96093 25.5626,18.13097 16.81812,12.55373 38.15093,23.72824 68.77368,36.0249 22.62509,9.08518 22.98241,9.1933 22.98241,6.95342 z m -72.77207,-87.73501 c 0,-1.25223 -2.8476,-5.56694 -6.32801,-9.58823 -7.90429,-9.13269 -8.37146,-5.51511 -0.57937,4.48639 6.25901,8.03371 6.90738,8.5126 6.90738,5.10184 z m -25.35616,-41.28145 c -1.05892,-1.2759 -3.03006,-2.31981 -4.38035,-2.31981 -1.86741,0 -1.54453,0.9692 1.34885,4.04908 3.8526,4.1009 6.57925,2.54552 3.0315,-1.72927 z m 54.37444,-10.62532 c -1.40909,-7.54159 -3.70625,-9.12679 -3.70625,-2.55757 0,5.5567 0.94279,7.69908 3.38812,7.69908 0.70333,0 0.84648,-2.31368 0.31813,-5.14151 z"
         id="path2051"
         inkscape:connector-curvature="0"
         transform="matrix(0,-0.00122549,-9.4696972e-4,0,1,1)" /><path
         style="fill:#ffd5e5;fill-opacity:1;stroke:none;stroke-width:1.58200157;stroke-miterlimit:4;stroke-dasharray:none"
         d="m 214.18726,841.56314 c -5.57302,-3.62178 -15.86773,-9.28645 -22.87708,-12.58815 -11.31383,-5.32927 -18.81339,-7.77446 -50.7362,-16.54223 -15.42321,-4.23606 -67.034633,-43.24645 -67.034633,-50.66799 0,-1.21477 -0.645121,-2.20866 -1.433602,-2.20866 -1.815902,0 -10.269025,-11.75587 -18.835692,-26.19505 -5.768201,-9.72233 -6.62747,-12.38138 -6.645897,-20.56602 -0.02372,-10.53567 -4.657294,-24.87937 -16.323822,-50.53203 -11.039966,-24.27496 -12.493017,-34.1746 -11.177125,-76.14984 0.802874,-25.6106 0.559899,-38.39643 -0.890837,-46.87751 -1.708957,-9.99066 -1.629703,-13.42737 0.55305,-23.98204 3.189255,-15.4216 3.255648,-29.37347 0.17487,-36.74681 -2.396379,-5.73534 -3.183158,-18.743 -1.412746,-23.35662 1.66081,-4.328 5.140024,-2.78849 15.518872,6.86692 8.078285,7.51521 11.435832,9.5715 16.966613,10.391 15.550748,2.30419 30.730069,-4.50454 58.310349,-26.15529 31.38479,-24.63731 48.02783,-30.83805 82.26409,-30.64933 24.59234,0.13556 38.37115,3.08979 62.0753,13.30922 33.04131,14.24488 64.52805,38.64872 62.62379,48.53666 -0.42894,2.22734 -1.4974,1.82509 -6.26044,-2.35693 -3.15878,-2.77344 -6.48632,-5.04262 -7.39454,-5.04262 -0.90821,0 -4.75113,-4.44938 -8.53979,-9.88751 -7.05764,-10.13032 -12.9525,-13.43834 -14.90056,-8.36177 -1.58065,4.11913 8.36367,22.29108 15.57755,28.46588 3.60047,3.08188 5.85138,5.60341 5.002,5.60341 -0.84936,0 -6.06872,5.0534 -11.59857,11.22978 l -10.05427,11.22978 2.67061,8.47216 c 1.46884,4.6597 5.08848,12.06509 8.04362,16.45643 5.09628,7.57301 5.21763,8.06741 2.35611,9.59885 -1.6593,0.88803 -6.87555,6.40474 -11.59167,12.25934 -31.35227,38.92079 -40.05347,91.1445 -25.62789,153.81589 8.3253,36.16897 10.6466,51.15961 10.70776,69.14924 0.13004,38.25147 -15.51358,70.03808 -34.4802,70.06098 -3.07397,0.003 -8.66746,-2.4449 -15.02902,-6.57914 z m -16.5477,-139.89511 c 3.96326,-4.86532 7.17382,-9.67065 7.1346,-10.67851 -0.079,-2.0309 -17.3307,16.08475 -17.3307,18.19865 0,3.26462 3.53434,0.65787 10.1961,-7.52014 z m -15.50428,-94.76865 c 28.83918,-29.58696 52.17645,-54.06859 51.86059,-54.40362 -2.9314,-3.10925 -112.60131,107.49078 -129.08039,130.17514 -8.821273,12.14297 -4.23382,9.35056 10.15141,-6.17922 8.04843,-8.6888 38.22921,-40.00534 67.06839,-69.5923 z M 56.811392,575.78228 c 8.330275,-4.49441 15.145954,-8.76582 15.145954,-9.49201 0,-0.7262 1.601776,-1.32092 3.559503,-1.32161 1.957727,-6.8e-4 8.004155,-2.10392 13.436505,-4.67385 12.640406,-5.97993 28.813916,-11.02479 56.567066,-17.64449 24.27558,-5.79022 23.69173,-7.95418 -1.03074,-3.82029 -29.43232,4.92144 -56.317001,14.60031 -86.976443,31.31279 -12.534803,6.83273 -21.406418,13.81111 -17.558053,13.81111 0.940639,0 8.525933,-3.67725 16.856208,-8.17165 z M 212.699,521.36076 c 1.69614,-1.6613 1.78101,-2.26889 0.31693,-2.26889 -2.47928,0 -11.33445,4.49158 -11.33445,5.74913 0,1.60387 8.60047,-1.11287 11.01752,-3.48024 z m -45.81146,-21.32437 c 44.70162,-12.19488 61.89165,-17.88343 56.2029,-18.59877 -2.58175,-0.32464 -8.97565,0.25209 -14.20866,1.28162 -13.03686,2.56484 -60.07372,17.38754 -60.72469,19.13613 -0.29003,0.77906 -2.18954,1.41648 -4.22112,1.41648 -4.72469,0 -8.69856,1.52277 -8.69856,3.33326 0,2.07265 -0.10761,2.09498 31.65013,-6.56872 z"
         id="path2053"
         inkscape:connector-curvature="0"
         transform="matrix(0,-0.00122549,-9.4696972e-4,0,1,1)" /><path
         style="fill:#ffd5e5;fill-opacity:1;stroke:none;stroke-width:1.58200157;stroke-miterlimit:4;stroke-dasharray:none"
         d="m 384.4831,579.60343 c -11.42048,-15.63958 -18.08727,-32.03554 -13.02603,-32.03554 5.79576,0 18.73285,20.41413 20.80323,32.82654 1.4904,8.93525 -0.84852,8.69737 -7.7772,-0.791 z"
         id="path2055"
         inkscape:connector-curvature="0"
         transform="matrix(0,-0.00122549,-9.4696972e-4,0,1,1)" /><path
         style="fill:#ffd5e5;fill-opacity:1;stroke:none;stroke-width:1.58200157;stroke-miterlimit:4;stroke-dasharray:none"
         d="m 420.3932,508.50934 c 1.52268,-0.39792 4.01433,-0.39792 5.53701,0 1.52267,0.39792 0.27685,0.72349 -2.76851,0.72349 -3.04535,0 -4.29118,-0.32557 -2.7685,-0.72349 z"
         id="path2059"
         inkscape:connector-curvature="0"
         transform="matrix(0,-0.00122549,-9.4696972e-4,0,1,1)" /><path
         style="fill:#550044;fill-opacity:1;stroke:none;stroke-width:0.27966103;stroke-miterlimit:4;stroke-dasharray:none"
         d="m 392.13014,545.46717 c -2.26551,-4.08951 -3.96806,-6.33866 -7.33419,-9.68881 -5.44543,-5.41959 -10.74074,-9.30767 -13.95555,-10.24685 -0.84598,-0.24714 -1.72691,-0.50586 -1.95763,-0.57493 -0.2921,-0.0874 -0.16472,-0.25531 0.41949,-0.5528 0.46144,-0.23497 1.30695,-0.74303 1.8789,-1.12901 l 1.03992,-0.70177 0.76973,0.94082 c 1.88237,2.30077 5.29871,5.61882 9.17586,8.91185 4.98232,4.23171 6.65276,5.95391 8.41056,8.67119 1.39153,2.15109 3.29852,6.26021 3.13413,6.75336 -0.0539,0.16182 -0.76549,-0.91056 -1.58122,-2.38305 z"
         id="path2071"
         inkscape:connector-curvature="0"
         transform="matrix(0,-0.00122549,-9.4696972e-4,0,1,1)" /><path
         style="fill:#550044;fill-opacity:1;stroke:none;stroke-width:0.27966103;stroke-miterlimit:4;stroke-dasharray:none"
         d="m 357.81275,528.70511 c 0.78172,-1.02488 1.78286,-3.18717 2.53344,-5.47181 0.55589,-1.692 0.40336,-1.96766 -1.11173,-2.00918 -0.80029,-0.0219 -0.78739,-0.0393 0.27966,-0.37677 2.66729,-0.84355 4.15,-2.16637 5.36058,-4.78253 1.08822,-2.35172 1.26543,-6.80845 0.40587,-10.20753 -0.3212,-1.27017 -0.72722,-2.48197 -0.90226,-2.69289 -0.41903,-0.50489 -1.47639,-0.48663 -2.50095,0.0432 -1.69885,0.87851 -0.53242,-0.92192 1.2887,-1.98917 2.21471,-1.2979 2.49371,-0.79274 2.89844,5.24796 0.1579,2.35668 0.51546,5.18059 0.79457,6.27536 l 0.50748,1.99047 -1.61543,1.71866 c -2.8885,3.0731 -4.06148,5.84242 -3.18915,7.52933 l 0.43167,0.83474 -0.94232,0.17678 c -1.26335,0.23701 -2.20973,1.02713 -2.95377,2.46604 -0.6879,1.33038 -1.36086,2.17062 -1.73846,2.17062 -0.1378,0 0.0663,-0.41547 0.45366,-0.92327 z"
         id="path2073"
         inkscape:connector-curvature="0"
         transform="matrix(0,-0.00122549,-9.4696972e-4,0,1,1)" /><path
         style="fill:#550044;fill-opacity:1;stroke:none;stroke-width:0.27966103;stroke-miterlimit:4;stroke-dasharray:none"
         d="m 405.65819,533.14802 c -13.7522,-5.4027 -20.5727,-9.52692 -25.87083,-15.64353 -2.65003,-3.05942 -6.17056,-8.74569 -4.61585,-7.4554 0.64954,0.53907 1.69989,0.108 2.19773,-0.90197 0.34683,-0.70361 0.45141,-0.78142 0.45631,-0.3395 0.004,0.31531 0.15739,0.72432 0.34196,0.90889 0.47643,0.47643 2.52954,0.41555 3.85367,-0.11426 1.06156,-0.42475 1.1243,-0.51509 1.1243,-1.61883 0,-0.64294 -0.24979,-1.65893 -0.55509,-2.25776 -0.3053,-0.59884 -0.52554,-1.11015 -0.48941,-1.13626 0.0361,-0.0261 0.49096,-0.19113 1.01074,-0.36671 l 0.94505,-0.31923 -0.17924,1.32644 c -0.56094,4.15112 -0.55348,4.36164 0.20779,5.86393 0.40012,0.7896 0.85573,1.5149 1.01247,1.61177 0.15674,0.0969 0.28498,0.30312 0.28498,0.45833 0,0.15521 -0.36551,0.0219 -0.81224,-0.29617 -0.90723,-0.64601 -1.97985,-0.75068 -2.48776,-0.24277 -0.517,0.51699 -0.39784,2.64094 0.21561,3.84341 1.10805,2.17195 4.17747,3.73987 6.28555,3.21077 0.87003,-0.21836 0.84182,-0.34759 -0.55139,-2.52553 -1.25705,-1.96508 -1.07431,-2.29889 0.26551,-0.48502 1.84232,2.49418 1.67869,3.42082 -0.68554,3.8822 -0.82038,0.1601 -1.53999,0.43627 -1.59914,0.61373 -0.54118,1.62353 5.18201,5.03546 17.04118,10.15926 6.24939,2.70008 8.20442,3.65847 7.3439,3.60011 -0.14613,-0.01 -2.27924,-0.80907 -4.74026,-1.7759 z"
         id="path2075"
         inkscape:connector-curvature="0"
         transform="matrix(0,-0.00122549,-9.4696972e-4,0,1,1)" /><path
         style="fill:#550044;fill-opacity:1;stroke:none;stroke-width:0.27966103;stroke-miterlimit:4;stroke-dasharray:none"
         d=""
         id="path2077"
         inkscape:connector-curvature="0"
         transform="matrix(0,-0.00122549,-9.4696972e-4,0,1,1)" /><path
         style="fill:#550044;fill-opacity:1;stroke:none;stroke-width:0.27966103;stroke-miterlimit:4;stroke-dasharray:none"
         d="m 356.99664,486.61314 c 5.1e-4,-3.15608 0.0256,-3.29861 0.56179,-3.1965 0.49008,0.0933 0.561,0.32604 0.55932,1.83516 l -0.002,1.72827 0.94479,-0.0451 0.94479,-0.0451 -1.49456,1.51336 c -0.82201,0.83235 -1.4991,1.51336 -1.50465,1.51336 -0.006,0 -0.01,-1.48651 -0.01,-3.30337 z"
         id="path2079"
         inkscape:connector-curvature="0"
         transform="matrix(0,-0.00122549,-9.4696972e-4,0,1,1)" /><path
         style="fill:#550044;fill-opacity:1;stroke:none;stroke-width:0.27966103;stroke-miterlimit:4;stroke-dasharray:none"
         d="m 350.08892,512.34202 c -0.43833,-0.0506 -0.82488,-0.30515 -0.92042,-0.60617 -0.56722,-1.78714 -2.58119,-2.7246 -3.94025,-1.83411 -0.39592,0.25941 -0.6587,0.63102 -0.58397,0.82578 0.3284,0.85579 -0.28653,0.98221 -1.02555,0.21084 l -0.75984,-0.7931 1.19626,-0.35687 c 3.35367,-1.00045 5.37849,-2.35529 4.41236,-2.95238 -0.15381,-0.0951 -0.27966,-0.29417 -0.27966,-0.44245 0,-0.14828 0.30496,-0.0698 0.67768,0.17443 0.37273,0.24422 1.06678,0.4551 1.54234,0.46862 l 0.86465,0.0246 -0.47626,0.72639 c -0.88366,1.34773 -1.20665,2.12121 -1.20838,2.89376 -10e-4,0.64683 0.11662,0.76907 0.74278,0.76907 1.07781,0 3.17075,-1.29996 3.17075,-1.96941 0,-0.39305 0.19131,-0.54754 0.67802,-0.54754 0.37292,0 1.62089,-0.37754 2.77329,-0.83898 1.99595,-0.79922 4.18579,-1.09852 4.48579,-0.6131 0.0768,0.12423 -0.45064,0.22712 -1.17205,0.22863 -2.35871,0.005 -7.04471,2.73906 -7.04471,4.11034 0,0.52988 -0.15419,0.60888 -1.18856,0.60888 -0.6537,0 -1.52863,-0.0392 -1.94427,-0.0872 z"
         id="path2083"
         inkscape:connector-curvature="0"
         transform="matrix(0,-0.00122549,-9.4696972e-4,0,1,1)" /><path
         style="fill:#550044;fill-opacity:1;stroke:none;stroke-width:0.27966103;stroke-miterlimit:4;stroke-dasharray:none"
         d=""
         id="path2085"
         inkscape:connector-curvature="0"
         transform="matrix(0,-0.00122549,-9.4696972e-4,0,1,1)" /><path
         style="fill:#550044;fill-opacity:1;stroke:none;stroke-width:0.27966103;stroke-miterlimit:4;stroke-dasharray:none"
         d="m 345.87461,523.30666 c -0.11204,-0.11204 -0.20371,-0.41249 -0.20371,-0.66767 0,-0.77009 -1.20581,-1.67838 -2.25531,-1.69881 l -0.96079,-0.0187 1.2091,-0.37734 c 0.665,-0.20754 2.40148,-0.96911 3.85883,-1.69238 1.45736,-0.72326 2.68442,-1.26866 2.72681,-1.212 0.57691,0.77124 1.29425,1.90733 1.29425,2.04978 0,0.10033 -0.2797,-0.0135 -0.62155,-0.25292 -0.34185,-0.23944 -0.89851,-0.43535 -1.23702,-0.43535 -1.18486,0 -2.92397,1.95552 -3.43352,3.86079 -0.0954,0.35658 -0.26505,0.55665 -0.37709,0.44461 z"
         id="path2087"
         inkscape:connector-curvature="0"
         transform="matrix(0,-0.00122549,-9.4696972e-4,0,1,1)" /><path
         style="fill:#550044;fill-opacity:1;stroke:none;stroke-width:0.27966103;stroke-miterlimit:4;stroke-dasharray:none"
         d="m 350.7048,523.33601 c 1.31869,-1.34365 1.39831,-1.40051 1.39831,-0.99873 0,0.4132 -1.84516,2.2572 -2.25862,2.2572 -0.20613,0 0.18101,-0.56631 0.86031,-1.25847 z"
         id="path2089"
         inkscape:connector-curvature="0"
         transform="matrix(0,-0.00122549,-9.4696972e-4,0,1,1)" /><path
         style="fill:#550044;fill-opacity:1;stroke:none;stroke-width:0.13983051;stroke-miterlimit:4;stroke-dasharray:none"
         d="m 362.48763,575.55257 c -2.3464,-0.26596 -4.30171,-0.86497 -6.51612,-1.99623 -1.61597,-0.82554 -2.76851,-1.63164 -5.05831,-3.53789 -5.27141,-4.38842 -9.60658,-6.9539 -13.30672,-7.8747 -0.60196,-0.1498 -1.88013,-0.3763 -2.84038,-0.50332 -0.96025,-0.12702 -1.90411,-0.30593 -2.09746,-0.39756 -0.56318,-0.2669 -0.93502,-1.2486 -1.23169,-3.25175 -0.1488,-1.00466 -0.37747,-2.05202 -0.50817,-2.32745 -0.5757,-1.21318 -1.86935,-2.26871 -3.33097,-2.71782 l -0.80402,-0.24706 v -4.58777 -4.58777 l 0.68289,-0.94172 c 4.1296,-5.6947 7.19762,-11.88359 7.72766,-15.58838 0.49618,-3.46811 -1.22096,-6.73276 -3.99957,-7.60402 -0.41641,-0.13057 -1.46463,-0.25137 -2.55823,-0.29481 l -1.85275,-0.0736 v -9.83981 -9.83981 h 10.64195 10.64195 l 0.50953,0.39982 c 2.10806,1.65416 5.88981,3.49918 8.40046,4.09836 1.93741,0.46237 2.90157,0.40488 4.50948,-0.26888 1.83118,-0.76733 2.07563,-0.81105 2.53124,-0.45266 0.26685,0.2099 0.48561,0.65285 0.7796,1.57854 0.64519,2.03147 0.78773,3.12443 0.78788,6.04101 1.1e-4,2.34216 -0.0372,2.78579 -0.31528,3.74626 -0.45686,1.57807 -1.1719,2.89739 -2.11503,3.90245 -1.33044,1.41778 -2.58755,2.05352 -5.17906,2.61913 -2.1737,0.47441 -3.19138,1.22306 -3.81478,2.80631 -0.26152,0.66417 -0.30404,1.0584 -0.31178,2.89028 -0.0103,2.43397 0.0705,2.65412 1.18778,3.2363 1.54738,0.8063 3.17256,-0.18672 4.43987,-2.71285 0.94142,-1.87652 1.83163,-2.21982 5.75958,-2.22108 2.99013,-9.8e-4 3.94768,0.12893 5.87288,0.79669 2.034,0.7055 4.14305,2.00868 7.20866,4.45422 3.71148,2.96078 7.84351,6.93419 9.9294,9.54825 1.12401,1.40861 2.4418,3.4695 3.6074,5.64161 0.4508,0.84005 1.03748,1.82757 1.30375,2.19448 0.47659,0.65673 0.48858,0.66312 0.77036,0.41007 0.15743,-0.14137 0.63494,-0.96194 1.06114,-1.82349 1.08639,-2.19611 2.12864,-3.39753 2.94738,-3.39753 0.53268,0 1.08865,0.38337 1.35989,0.9377 0.22425,0.45829 0.27014,1.00646 0.33706,4.02628 0.0948,4.27816 0.11141,4.32301 1.68338,4.54521 1.65101,0.23336 1.9196,0.97355 1.53384,4.22698 -0.1577,1.32999 -0.16162,1.76934 -0.0207,2.31918 l 0.17386,0.67836 -3.46784,7.04946 -3.46784,7.04946 -1.09257,-3.6356 c -4.8142,-16.01954 -9.114,-25.26415 -13.88773,-29.85876 -1.4446,-1.39039 -2.18885,-1.92729 -3.58302,-2.58478 -1.38127,-0.65141 -2.43721,-0.91052 -4.09028,-1.00369 -3.27814,-0.18477 -5.38865,0.7718 -7.77399,3.5235 -1.50667,1.73807 -2.49165,3.77267 -3.43242,7.09004 -0.35244,1.24279 -0.37138,1.484 -0.43185,5.50009 -0.10606,7.044 0.1079,8.22575 2.73321,15.09631 1.23973,3.24443 1.52623,4.21742 1.70119,5.77752 0.13631,1.21548 0.0203,1.65086 -0.4919,1.84558 -0.53551,0.2036 -2.09416,0.27154 -3.24281,0.14135 z m -12.8067,-50.6136 c 1.54374,-0.72241 2.70184,-2.18045 2.70184,-3.40161 0,-1.24648 -1.77877,-4.14454 -3.60303,-5.87025 -0.94226,-0.89135 -1.32465,-1.08449 -2.14712,-1.08449 -1.83835,0 -5.16802,1.71258 -6.17499,3.17604 -0.72526,1.05404 -0.85902,1.98612 -0.37359,2.60325 0.36379,0.46247 1.04813,0.65094 2.37076,0.65291 0.5768,8.4e-4 1.28159,0.0662 1.5662,0.14528 0.74636,0.20729 1.46165,1.09179 1.58025,1.95406 0.19857,1.44379 1.34375,2.46837 2.58339,2.31135 0.34432,-0.0436 1.01765,-0.26256 1.49629,-0.48654 z m 7.68514,-6.32051 c 1.81716,-0.67988 3.98963,-2.56077 4.79072,-4.14771 1.10921,-2.19734 1.12886,-4.85625 0.048,-6.4896 -0.4814,-0.72746 -0.95465,-0.94964 -2.01948,-0.94813 -0.86991,10e-4 -1.6253,0.22245 -4.48788,1.31429 -0.52262,0.19933 -1.13255,0.36242 -1.35542,0.36242 -0.5132,0 -0.84055,-0.44455 -0.84055,-1.1415 0,-0.28598 -0.0734,-0.56532 -0.16312,-0.62077 -0.0897,-0.0554 -0.86539,-0.0868 -1.72371,-0.0696 -1.97311,0.0394 -2.54824,-0.1576 -3.17248,-1.08682 -1.23023,-1.83127 -2.37965,-2.43131 -4.62909,-2.41655 -1.76067,0.0115 -2.5472,0.47161 -4.07073,2.38107 -1.02928,1.29001 -1.78145,1.90802 -2.57193,2.1132 -1.34895,0.35014 -1.56296,0.44963 -1.97386,0.91762 -1.04636,1.19174 -0.76926,2.67763 0.6336,3.3975 1.34923,0.69235 6.95912,0.85387 8.15621,0.23483 0.53732,-0.27786 0.793,-0.68261 0.91689,-1.45149 0.15156,-0.94059 0.48038,-1.18148 1.51714,-1.11143 1.36368,0.0921 1.8015,0.37894 2.30814,1.51203 0.38741,0.86642 0.48282,0.9768 0.95858,1.10892 0.29059,0.0807 1.09507,0.14707 1.78774,0.1475 1.50072,9.2e-4 2.08091,0.14616 2.61038,0.65342 0.4696,0.44992 0.48459,0.69384 0.17195,2.79826 -0.27412,1.84517 -0.15169,2.46883 0.54646,2.78363 0.54801,0.24709 1.49619,0.1579 2.56249,-0.24106 z"
         id="path2095"
         inkscape:connector-curvature="0"
         transform="matrix(0,-0.00122549,-9.4696972e-4,0,1,1)" /><path
         style="fill:#ffd5e5;fill-opacity:1;stroke:none;stroke-width:1.11864412;stroke-miterlimit:4;stroke-dasharray:none"
         d="m 597.92514,658.28004 c -21.54873,-11.2948 -56.98869,-19.36014 -85.07059,-19.36014 -3.81494,0 -9.11086,-0.76724 -11.76871,-1.70499 -2.65786,-0.93774 -16.01921,-4.44654 -29.6919,-7.79732 -26.10114,-6.39664 -53.11612,-15.603 -59.02609,-20.11533 -5.11472,-3.90515 -10.26286,-13.22155 -13.4776,-24.38991 l -2.82695,-9.82111 3.5698,-7.23918 c 1.96339,-3.98155 4.44573,-7.51719 5.5163,-7.85698 2.5632,-0.81352 11.52321,-10.83692 15.01804,-16.80041 1.52181,-2.59676 2.95729,-6.22565 3.18998,-8.06421 0.23268,-1.83856 1.28661,-6.29527 2.34207,-9.90381 1.05545,-3.60853 2.09042,-7.19022 2.29993,-7.95929 0.23409,-0.8593 2.35309,-1.3983 5.4971,-1.3983 20.29609,0 51.1322,-13.40573 78.93912,-34.3181 14.84187,-11.16192 31.55638,-29.17823 37.03755,-39.9222 1.25704,-2.46402 5.38194,-8.28787 9.16645,-12.9419 3.78449,-4.65403 11.37364,-14.75424 16.86478,-22.44492 19.99824,-28.00882 29.97956,-37.9576 42.13094,-41.99365 7.23297,-2.4024 18.00581,-1.75152 26.86484,1.62314 9.30293,3.54375 23.17783,13.26387 28.10317,19.6878 6.05646,7.8992 14.86236,26.23559 18.11484,37.72027 2.98391,10.53629 5.06986,27.69659 4.26557,35.09087 -0.29487,2.71089 0.28669,6.82744 1.42231,10.06779 1.4343,4.09262 2.14118,11.43473 2.78943,28.97327 0.50688,13.71393 1.44744,25.0701 2.25975,27.28419 1.00745,2.74597 1.2188,9.07477 0.7658,22.9322 -0.59671,18.25396 -0.81223,19.68302 -4.65796,30.8853 -4.22707,12.31305 -25.71742,57.05085 -27.40507,57.05085 -0.5379,0 -2.03377,1.78937 -3.32413,3.97638 -3.40964,5.7789 -11.15039,8.86784 -30.61982,12.21879 -17.98606,3.09565 -24.4419,5.17459 -27.40311,8.8245 l -1.93669,2.38711 z m -2.29322,-45.01566 c -1.29953,-1.2783 -49.09022,-9.33648 -69.85932,-11.77925 -16.35823,-1.92398 -53.57147,-3.61878 -52.44008,-2.38826 0.38254,0.41605 17.2461,2.52007 37.47458,4.67561 20.22849,2.15553 46.34347,5.33571 58.0333,7.06704 24.01501,3.55678 28.3402,3.94823 26.79152,2.42486 z M 520.7387,563.38571 c 24.35873,-4.27468 55.68553,-4.9899 97.25465,-2.22039 13.49853,0.89932 24.76876,1.40914 25.04497,1.13294 0.27621,-0.27621 -0.95194,-1.05767 -2.72922,-1.73658 -8.71188,-3.32788 -16.61958,-3.8227 -61.40091,-3.84218 -49.90163,-0.0217 -56.23372,0.60261 -69.32881,6.83535 -6.30602,3.00142 -6.96456,3.0114 11.15932,-0.16914 z m -13.98305,-33.01018 c 4.61441,-1.68691 14.62072,-5.69022 22.23626,-8.89623 32.74999,-13.78716 67.91937,-23.18391 102.91618,-27.49769 7.73381,-0.95327 14.28411,-1.95587 14.5562,-2.22798 0.27211,-0.27211 -5.10912,-0.49474 -11.95831,-0.49474 -22.1151,0 -47.63315,4.79883 -75.17406,14.13696 -23.76582,8.05814 -67.11864,26.50224 -67.11864,28.55507 0,1.25438 4.06439,0.25511 14.54237,-3.57539 z m 9.69413,-30.96071 c -1.04581,2.95143 0.62403,1.71098 14.74386,-10.95254 6.86008,-6.15255 12.47386,-12.01562 12.47507,-13.02905 0.002,-2.05171 15.1287,-12.22587 30.20558,-20.31676 9.73669,-5.22512 30.40238,-14.00059 38.83625,-16.49141 5.89838,-1.74199 5.24873,-3.26648 -1.08222,-2.53961 -26.29055,3.01845 -85.75033,39.31357 -99.45042,60.706 -4.53106,7.07516 -4.10479,9.19844 0.8984,4.47502 2.52167,-2.38068 3.81186,-3.08884 3.37348,-1.85165 z"
         id="path2127"
         inkscape:connector-curvature="0"
         transform="matrix(0,-0.00122549,-9.4696972e-4,0,1,1)" /><path
         style="fill:#ffd5e5;fill-opacity:1;stroke:none;stroke-width:1.11864412;stroke-miterlimit:4;stroke-dasharray:none"
         d="m 428.45057,504.71058 c 0,-3.13155 0.21457,-3.29267 3.63559,-2.72989 15.95928,2.62541 17.65049,6.05786 2.98478,6.05786 -6.59785,0 -6.62037,-0.0113 -6.62037,-3.32797 z"
         id="path2129"
         inkscape:connector-curvature="0"
         transform="matrix(0,-0.00122549,-9.4696972e-4,0,1,1)" /><path
         style="fill:#ffd5e5;fill-opacity:1;stroke:none;stroke-width:1.11864412;stroke-miterlimit:4;stroke-dasharray:none"
         d="m 378.39124,438.92901 c -1.38432,-0.2211 -2.51695,-1.1546 -2.51695,-2.07445 0,-2.5413 4.61041,-12.71432 5.76213,-12.71432 0.7527,0 0.16183,14.87793 -0.60152,15.14623 -0.0697,0.0245 -1.25933,-0.13636 -2.64366,-0.35746 z"
         id="path2131"
         inkscape:connector-curvature="0"
         transform="matrix(0,-0.00122549,-9.4696972e-4,0,1,1)" /><path
         style="fill:#ffd5e5;fill-opacity:1;stroke:none;stroke-width:1.11864412;stroke-miterlimit:4;stroke-dasharray:none"
         d="m 407.42962,455.2459 c -5.22508,-4.01585 -5.41608,-4.89739 -0.67014,-3.09299 3.53892,1.3455 7.14871,4.23386 7.14871,5.72003 0,1.71089 -1.76635,0.99464 -6.47857,-2.62704 z"
         id="path2133"
         inkscape:connector-curvature="0"
         transform="matrix(0,-0.00122549,-9.4696972e-4,0,1,1)" /><path
         style="fill:#ffd5e5;fill-opacity:1;stroke:none;stroke-width:0.55932206;stroke-miterlimit:4;stroke-dasharray:none"
         d="m 413.90819,462.95719 c -1.33111,-1.86937 -0.88793,-2.06398 1.97559,-0.86752 2.08922,0.87293 2.46749,1.66394 1.05494,2.20599 -1.45608,0.55874 -1.78213,0.41474 -3.03053,-1.33847 z"
         id="path2135"
         inkscape:connector-curvature="0"
         transform="matrix(0,-0.00122549,-9.4696972e-4,0,1,1)" /><path
         style="fill:#ffd5e5;fill-opacity:1;stroke:none;stroke-width:0.55932206;stroke-miterlimit:4;stroke-dasharray:none"
         d="m 285.22695,513.75948 c -2.16032,-2.2842 -2.37592,-2.70177 -1.39831,-2.70823 0.6357,-0.004 1.68703,-0.15022 2.33629,-0.3245 1.05916,-0.28429 1.2201,-0.0181 1.56606,2.58988 0.21208,1.59871 0.31011,2.96 0.21784,3.02509 -0.0923,0.0651 -1.31711,-1.09691 -2.72188,-2.58224 z"
         id="path2137"
         inkscape:connector-curvature="0"
         transform="matrix(0,-0.00122549,-9.4696972e-4,0,1,1)" /><path
         style="fill:#ffd5e5;fill-opacity:1;stroke:none;stroke-width:0.55932206;stroke-miterlimit:4;stroke-dasharray:none"
         d="m 293.39596,536.68618 c -1.32082,-4.44769 -0.98893,-4.99431 0.83966,-1.3829 1.87771,3.70843 1.98984,4.28103 0.83831,4.28103 -0.50098,0 -1.15042,-1.1217 -1.67797,-2.89813 z"
         id="path2139"
         inkscape:connector-curvature="0"
         transform="matrix(0,-0.00122549,-9.4696972e-4,0,1,1)" /></g></g></svg>