<?xml version="1.0" encoding="UTF-8" standalone="no"?>
<!-- Created with Inkscape (http://www.inkscape.org/) -->

<svg
   xmlns:dc="http://purl.org/dc/elements/1.1/"
   xmlns:cc="http://creativecommons.org/ns#"
   xmlns:rdf="http://www.w3.org/1999/02/22-rdf-syntax-ns#"
   xmlns:svg="http://www.w3.org/2000/svg"
   xmlns="http://www.w3.org/2000/svg"
   xmlns:sodipodi="http://sodipodi.sourceforge.net/DTD/sodipodi-0.dtd"
   xmlns:inkscape="http://www.inkscape.org/namespaces/inkscape"
   version="1.1"
   id="svg64"
   xml:space="preserve"
   width="182.53297"
   height="162.242"
   viewBox="0 0 182.53298 162.242"
   sodipodi:docname="0.svg"
   inkscape:version="0.92.4 (5da689c313, 2019-01-14)"><metadata
     id="metadata70"><rdf:RDF><cc:Work
         rdf:about=""><dc:format>image/svg+xml</dc:format><dc:type
           rdf:resource="http://purl.org/dc/dcmitype/StillImage" /><dc:title></dc:title></cc:Work></rdf:RDF></metadata><defs
     id="defs68" /><sodipodi:namedview
     pagecolor="#ffffff"
     bordercolor="#666666"
     borderopacity="1"
     objecttolerance="10"
     gridtolerance="10"
     guidetolerance="10"
     inkscape:pageopacity="0"
     inkscape:pageshadow="2"
     inkscape:window-width="1348"
     inkscape:window-height="752"
     id="namedview66"
     showgrid="false"
     fit-margin-top="0"
     fit-margin-left="0"
     fit-margin-right="0"
     fit-margin-bottom="0"
     inkscape:zoom="3.1069843"
     inkscape:cx="124.58929"
     inkscape:cy="80.385032"
     inkscape:window-x="0"
     inkscape:window-y="0"
     inkscape:window-maximized="0"
     inkscape:current-layer="g72" /><g
     id="g72"
     inkscape:groupmode="layer"
     inkscape:label="Plantos_Test1_with names"
     transform="matrix(1.3333333,0,0,-1.3333333,-177.33393,687.91868)"><g
       id="g74"
       transform="matrix(610.6,0,0,789.1,-550.96898,-20.448276)"><path
         style="fill:#000000;stroke-width:0.48000872"
         d="m 43.470703,372.57227 c -3.909324,-0.0711 -1.409503,25.67237 0.611328,40.95312 4.316047,70.81496 59.282329,114.99053 109.845699,120.27539 9.05562,4.35606 45.59925,-6.49808 51.81055,-10.49414 l 9.10352,-3.64062 4.75976,-1.14063 c 1.19695,-0.79211 2.47737,-3.15348 4.34375,-6.59766 l -1.54101,-11.37304 c 0.0601,1.3582 -0.42611,0.39896 -0.62696,-0.3086 l -10.01572,-4.75122 c -3.8604,-1.23093 -8.38467,-1.49682 -8.38467,-1.49682 -6.64242,-0.53663 -12.92311,-4.2669 -17.19451,-6.53578 -54.0206,-16.69746 -98.168665,-49.57961 -135.627752,-102.96422 -3.416816,-8.49682 -5.669974,-11.90006 -7.083985,-11.92578 z m 10.052735,26.23242 c 0.667065,0.0305 4.728318,5.10845 11.626953,16.91211 -8.779054,-10.49756 -12.382962,-16.94667 -11.626953,-16.91211 z m -5.564454,0.68945 c 2.054232,-0.0315 10.027772,12.39953 17.427735,23.66406 10.277619,10.16014 -14.355886,-6.07824 -13.330078,-7.20508 -4.432346,-11.93576 -5.330196,-16.44008 -4.097657,-16.45898 z m 18.753907,18.57031 c 0.120211,-0.0103 0.712396,0.55065 2.126953,2.17383 1.392168,3.02068 -2.487589,-2.1429 -2.126953,-2.17383 z M 54.625,424.72852 c 12.382061,0.76315 37.354846,25.82364 51.05078,35.0039 14.41586,15.56053 84.69852,39.62309 36.80469,45.84961 -10.09525,1.27687 -20.39694,-0.31394 -30.49219,-1.15039 -11.97916,5.86049 -49.722845,-29.65804 -34.853514,-23.37891 8.710412,11.2652 66.757614,15.75566 42.845704,7.46485 -31.710494,-0.63665 -66.895073,-15.48766 -68.767579,-63.20117 0.984974,-0.48558 2.131206,-0.66684 3.412109,-0.58789 z m 26.992188,8.01757 c 1.490741,-0.29249 27.674282,21.56806 36.085932,29.19727 -3.62452,-1.63091 -17.30589,-10.58821 -23.949214,-16.49805 -9.522612,-9.0785 -12.720052,-12.58476 -12.136718,-12.69922 z m -7.273438,18.53125 c -1.936297,0.0115 -0.83773,1.37673 7.892578,5.42774 15.314016,1.07685 -3.632724,-5.45305 -7.892578,-5.42774 z m 46.87305,12.95899 c 27.41349,16.41822 62.96317,29.65594 87.48242,39.85742 l -6.6875,0.4375 c -28.34405,-4.35888 -61.61964,-26.75502 -80.79492,-40.29492 z m 57.70898,40.8789 c 11.75383,0.0625 23.58994,1.20503 36.15039,2.93165 11.36775,12.60334 -43.45706,11.4 -58.19531,12.65624 -48.0762,7.67028 63.29453,0.3248 14.24219,6.69336 -18.2006,2.86602 -36.24227,-2.69788 -53.24219,-10.7246 -31.699909,-17.05603 -5.11143,-6.45148 14.74609,-5.38672 16.20905,-4.54522 31.18677,-6.25023 46.29883,-6.16993 z"
         transform="matrix(0.0012283,0,0,-9.504499e-4,1.0692928,1.0338568)"
         id="path78"
         inkscape:connector-curvature="0"
         sodipodi:nodetypes="cccccccccccccccccsccsccccccccccccccccccccccscccccs" /></g></g></svg>