<?xml version="1.0" encoding="UTF-8" standalone="no"?>
<!-- Created with Inkscape (http://www.inkscape.org/) -->

<svg
   xmlns:dc="http://purl.org/dc/elements/1.1/"
   xmlns:cc="http://creativecommons.org/ns#"
   xmlns:rdf="http://www.w3.org/1999/02/22-rdf-syntax-ns#"
   xmlns:svg="http://www.w3.org/2000/svg"
   xmlns="http://www.w3.org/2000/svg"
   xmlns:sodipodi="http://sodipodi.sourceforge.net/DTD/sodipodi-0.dtd"
   xmlns:inkscape="http://www.inkscape.org/namespaces/inkscape"
   version="1.1"
   id="svg64"
   xml:space="preserve"
   width="275.57449"
   height="95.109589"
   viewBox="0 0 275.5745 95.109588"
   sodipodi:docname="1.svg"
   inkscape:version="0.92.4 (5da689c313, 2019-01-14)"><metadata
     id="metadata70"><rdf:RDF><cc:Work
         rdf:about=""><dc:format>image/svg+xml</dc:format><dc:type
           rdf:resource="http://purl.org/dc/dcmitype/StillImage" /><dc:title /></cc:Work></rdf:RDF></metadata><defs
     id="defs68" /><sodipodi:namedview
     pagecolor="#ffffff"
     bordercolor="#666666"
     borderopacity="1"
     objecttolerance="10"
     gridtolerance="10"
     guidetolerance="10"
     inkscape:pageopacity="0"
     inkscape:pageshadow="2"
     inkscape:window-width="1348"
     inkscape:window-height="752"
     id="namedview66"
     showgrid="false"
     fit-margin-top="0"
     fit-margin-left="0"
     fit-margin-right="0"
     fit-margin-bottom="0"
     inkscape:zoom="2.1969697"
     inkscape:cx="78.365366"
     inkscape:cy="44.223073"
     inkscape:window-x="0"
     inkscape:window-y="0"
     inkscape:window-maximized="0"
     inkscape:current-layer="g72" /><g
     id="g72"
     inkscape:groupmode="layer"
     inkscape:label="Plantos_Test1_with names"
     transform="matrix(1.3333333,0,0,-1.3333333,-362.18302,602.29624)"><g
       id="g74"
       transform="matrix(610.6,0,0,789.1,-550.96898,-20.448276)"><path
         style="fill:#000000;stroke-width:0.48000872"
         d="m 493.51367,458.19727 c -12.84533,0.23958 -34.5468,14.90964 -47.6289,15.78915 -44.71839,5.58473 -102.90405,-6.56274 -134.59766,0.47842 -9.46082,0.30812 -38.32118,10.66596 -44.96492,14.11471 -10.74339,6.98352 -19.63005,12.13845 -24.90967,17.64433 -9.97204,10.14928 -17.37179,22.86736 -11.32463,36.57495 l 5.2793,8.13672 c 9.96155,4.54923 18.6338,1.39683 30.62304,-0.0137 35.75376,-4.22724 95.25771,-4.62343 131.54102,-9.75391 43.04648,-5.76222 66.42225,-58.85618 104.30469,-78.70899 -1.82473,-3.1378 -4.72558,-4.3288 -8.32227,-4.26171 z m -10.76172,9.21875 c -18.15924,14.27366 -44.94408,55.79445 -73.96875,63.55078 -14.96132,17.69972 -82.82994,-15.68935 -37.16601,-15.0293 14.14801,-15.49012 46.16064,6.68494 46.35742,0.0312 -42.42612,-10.73513 16.39291,-12.68078 28.77344,-21.70703 32.18269,-21.1584 -6.3534,-0.20847 -20.24414,2.43555 -53.47969,19.48614 -109.74504,17.16128 -163.54297,34.32031 -41.92624,11.38807 1.48356,9.40592 20.29492,-0.35156 39.79809,18.86254 -12.84509,10.0461 -28.75977,15.00586 -29.78873,0.33478 -10.34206,-6.95757 -18.88476,-21.8379 13.02369,-16.53153 39.52478,-34.10934 60.21679,-41.20703 25.11602,-3.64353 62.47368,-7.70438 81.56836,-2.30273 -18.43523,35.42447 -2.90195,4.12829 11.75,-0.74414 32.03664,8.21358 64.04511,-0.75968 93.60547,-12.16406 z m -142.46679,12.70703 c -4.45196,-0.17278 -28.91052,14.75607 -20.89258,35.33593 3.85329,-8.00726 2.25676,-19.30155 9.63281,-24.85156 11.1722,-7.20593 13.28338,-10.40584 11.25977,-10.48437 z m -49.21875,6.83593 c -3.96268,-0.13382 -27.36377,17.39006 -18.73829,34.95313 5.15673,0.2241 1.37138,-22.27239 9.48829,-24.01367 9.13126,-7.67862 10.92312,-10.88295 9.25,-10.93946 z m 45.51562,33.19727 c 7.80031,0.12692 14.87815,2.06513 19.60547,7.19336 42.57266,16.18034 -14.05239,10.56525 -31.29492,13.9668 -11.9702,2.79825 -22.81895,-2.54114 -32.96875,-10.33008 6.83694,-2.61514 27.49752,-11.10931 44.6582,-10.83008 z"
         transform="matrix(0.0012283,0,0,-9.504499e-4,1.0692928,1.0338568)"
         id="path78"
         inkscape:connector-curvature="0"
         sodipodi:nodetypes="cccccccccccccccccccccccccccccccccscscscs" /></g><path
       style="fill:#57ed66;fill-opacity:1;stroke:none;stroke-width:0;stroke-miterlimit:4;stroke-dasharray:none;stroke-opacity:1"
       d="M 17.828811,87.004697 C 11.613225,86.19338 10.369525,84.837098 11.204555,79.780802 12.147969,74.06821 11.790802,70.755716 9.7220116,66.031163 9.4832341,65.485861 10.732453,63.901761 14.454439,60.03011 25.107747,48.948413 38.83329,39.029948 54.514331,31.081696 66.067272,25.225857 68.337076,24.539312 81.59709,22.890015 c 17.03481,-2.11881 25.15018,-2.768158 38.48313,-3.079212 12.56999,-0.293254 20.64244,0.153663 27.28929,1.510822 1.87758,0.383368 3.46278,0.744846 3.52267,0.803287 0.0599,0.05844 -1.75291,3.740679 -4.02842,8.182753 -2.27551,4.442074 -4.05228,8.161516 -3.94837,8.265427 0.10391,0.10391 1.37318,-1.232755 2.82059,-2.970369 5.12794,-6.156063 11.72703,-11.88367 15.51571,-13.466682 1.43962,-0.601512 2.08631,-0.560333 7.16394,0.456168 16.68631,3.340472 33.3757,2.580231 54.28491,-2.472808 9.07404,-2.192883 24.7722,-7.185997 32.23907,-10.2542838 0.45769,-0.1880752 -1.3622,1.7855928 -4.0442,4.3859288 -2.682,2.600336 -10.04363,10.360642 -16.35917,17.245125 -17.13499,18.678617 -25.43811,26.502072 -35.04949,33.024729 -4.58688,3.112829 -10.7765,6.261411 -15.06911,7.665459 -1.27835,0.418126 -2.78351,1.249057 -3.34478,1.846512 -1.53231,1.631069 -5.07725,2.967023 -9.4119,3.546994 -11.65408,1.559298 -32.57449,-4.752937 -39.84333,-12.021772 -1.53966,-1.539666 -1.77656,-2.036892 -1.65681,-3.477508 0.11755,-1.414221 0.39642,-1.806552 1.75739,-2.472379 2.2226,-1.087356 5.82663,-1.712035 9.87747,-1.712035 3.17047,0 3.51798,-0.09887 5.03779,-1.433288 6.3575,-5.581956 16.09745,-5.572385 33.39686,0.03282 6.67073,2.161391 9.62066,2.85435 10.58147,2.485651 1.59237,-0.611051 0.47297,-1.379587 -3.78984,-2.601961 -7.42513,-2.129178 -10.93248,-4.165155 -10.24801,-5.948854 0.71148,-1.854092 5.5286,-3.474463 20.41067,-6.865702 16.54112,-3.769295 19.35518,-4.80171 26.88144,-9.862227 6.71668,-4.516168 9.24406,-6.525846 8.78989,-6.989387 -0.17246,-0.176014 -5.7028,1.839531 -12.28965,4.47899 -6.58686,2.639458 -13.4099,5.243143 -15.16231,5.785965 -1.75242,0.542821 -7.24543,2.293557 -12.2067,3.890522 -20.80793,6.69779 -38.21429,10.256159 -80.98506,16.555709 -39.092694,5.757822 -52.616527,8.510587 -76.063999,15.482781 -10.673361,3.173763 -16.21977,5.265658 -16.906244,6.376392 -2.201514,3.562125 21.511134,-0.03837 34.187799,-5.191018 l 3.694764,-1.5018 4.725927,2.431453 c 6.036151,3.105555 9.232267,5.504701 9.415961,7.06804 0.116369,0.990406 -0.13631,1.286249 -1.593103,1.865247 -2.475952,0.984051 -5.438851,1.222589 -21.303831,1.715126 -9.306065,0.288907 -15.195125,0.671917 -17.296382,1.124904 -3.370888,0.726697 -8.641751,0.809938 -13.244311,0.209165 z M 47.416493,62.950214 c 0.781563,-0.863617 1.420461,-3.827881 2.757103,-12.791974 0.885536,-5.938783 2.052241,-8.422592 4.795908,-10.210052 2.73072,-1.779025 10.468965,-9.49298 10.468965,-10.436102 0,-1.170932 -1.411912,-0.888307 -4.324702,0.865685 -3.845351,2.315548 -7.255733,5.364219 -10.334161,9.238096 -6.150792,7.740122 -7.98279,14.989357 -5.568722,22.035476 0.823223,2.402805 1.073291,2.550067 2.205609,1.298871 z m 46.878442,-8.586983 c 0.387962,-1.186194 1.236708,-4.71706 1.886103,-7.846371 1.167094,-5.623983 2.500945,-9.299928 4.282352,-11.801684 0.50403,-0.707847 2.81496,-2.583186 5.13541,-4.16742 8.75699,-5.978658 11.9609,-10.546921 5.52629,-7.879611 -4.33874,1.798523 -11.979587,8.140749 -14.786777,12.273665 -2.861013,4.212153 -4.933054,10.069746 -4.948288,13.988645 -0.0091,2.326109 1.336427,8.122919 1.816502,7.826214 0.210667,-0.130197 0.700451,-1.207244 1.088408,-2.393438 z"
       id="path8357"
       inkscape:connector-curvature="0"
       transform="matrix(0.75000002,0,0,-0.75000002,271.63727,451.72219)" /><path
       style="fill:#57ed66;fill-opacity:1;stroke:none;stroke-width:0;stroke-miterlimit:4;stroke-dasharray:none;stroke-opacity:1"
       d="M 86.107035,83.165331 C 80.653248,81.978721 73.846781,78.697646 67.980319,74.427297 l -2.23746,-1.628705 4.05815,-1.536594 C 89.965288,63.626911 105.531,60.736639 116.32,62.624261 c 4.92721,0.862055 9.24368,2.683293 11.77086,4.966451 0.98919,0.893671 3.41384,2.261758 5.41434,3.054994 7.08507,2.809353 12.33723,6.09994 11.91797,7.466845 -0.28291,0.922338 -3.27604,2.026338 -6.79037,2.50459 -1.92621,0.262132 -9.70966,0.688257 -17.29655,0.946944 -13.67381,0.46623 -19.70913,0.913582 -24.439217,1.811493 -3.236223,0.614331 -7.370388,0.533775 -10.789998,-0.210247 z"
       id="path8359"
       inkscape:connector-curvature="0"
       transform="matrix(0.75000002,0,0,-0.75000002,271.63727,451.72219)" /></g></svg>