<?xml version="1.0" encoding="UTF-8" standalone="no"?>
<!-- Created with Inkscape (http://www.inkscape.org/) -->

<svg
   xmlns:dc="http://purl.org/dc/elements/1.1/"
   xmlns:cc="http://creativecommons.org/ns#"
   xmlns:rdf="http://www.w3.org/1999/02/22-rdf-syntax-ns#"
   xmlns:svg="http://www.w3.org/2000/svg"
   xmlns="http://www.w3.org/2000/svg"
   xmlns:sodipodi="http://sodipodi.sourceforge.net/DTD/sodipodi-0.dtd"
   xmlns:inkscape="http://www.inkscape.org/namespaces/inkscape"
   version="1.1"
   id="svg64"
   xml:space="preserve"
   width="93.857666"
   height="132.79941"
   viewBox="0 0 93.857667 132.79941"
   sodipodi:docname="2.svg"
   inkscape:version="0.92.4 (5da689c313, 2019-01-14)"><metadata
     id="metadata70"><rdf:RDF><cc:Work
         rdf:about=""><dc:format>image/svg+xml</dc:format><dc:type
           rdf:resource="http://purl.org/dc/dcmitype/StillImage" /><dc:title></dc:title></cc:Work></rdf:RDF></metadata><defs
     id="defs68" /><sodipodi:namedview
     pagecolor="#ffffff"
     bordercolor="#666666"
     borderopacity="1"
     objecttolerance="10"
     gridtolerance="10"
     guidetolerance="10"
     inkscape:pageopacity="0"
     inkscape:pageshadow="2"
     inkscape:window-width="1348"
     inkscape:window-height="752"
     id="namedview66"
     showgrid="false"
     fit-margin-top="0"
     fit-margin-left="0"
     fit-margin-right="0"
     fit-margin-bottom="0"
     inkscape:zoom="2.1969697"
     inkscape:cx="102.69942"
     inkscape:cy="30.798266"
     inkscape:window-x="0"
     inkscape:window-y="0"
     inkscape:window-maximized="0"
     inkscape:current-layer="g72" /><g
     id="g72"
     inkscape:groupmode="layer"
     inkscape:label="Plantos_Test1_with names"
     transform="matrix(1.3333333,0,0,-1.3333333,-394.07311,1029.2588)"><g
       id="g74"
       transform="matrix(610.6,0,0,789.1,-550.96898,-20.448276)"><path
         style="fill:#000000;stroke-width:0.48000872"
         d="m 259.29688,31.240234 c -4.26468,0.539644 4.22297,27.403768 11.5996,38.361328 7.91745,39.711298 29.39566,94.134768 56.75391,93.298828 13.77762,7.94176 26.06348,-28.33122 24.16406,-34.39844 C 331.29097,89.788708 298.3916,68.925728 269.58594,42.986328 264.0507,34.295391 260.83942,31.045044 259.29688,31.240234 Z m 19.8789,32.38086 c 11.22036,-0.315197 40.74907,30.733573 52.04883,45.800786 23.13848,15.00594 9.85025,32.27495 5.86914,48.22656 l -0.002,0.002 c -2.03542,2.10246 -3.39006,0.75501 -5.85352,-0.24805 -37.38663,-5.78726 -45.92196,-54.2128 -55.30078,-92.158199 0.75805,-1.072415 1.86034,-1.584339 3.23828,-1.623047 z m 11.9082,20.34375 c -1.03124,-0.09921 -0.98448,1.170773 2.0586,5.24414 h 0.002 c 7.6975,1.817035 0.2082,-5.025889 -2.06055,-5.24414 z m 15.375,16.767576 c -3.64273,-0.23149 17.73114,31.11077 26.79297,35.83203 16.70358,4.84602 -14.45634,-20.9488 -15.34375,-25.07422 -6.8744,-7.65792 -10.33409,-10.68694 -11.44922,-10.75781 z"
         transform="matrix(0.0012283,0,0,-9.504499e-4,1.0692928,1.0338568)"
         id="path78"
         inkscape:connector-curvature="0"
         sodipodi:nodetypes="sccccsccccccscccccccccc" /></g></g></svg>